<svg width="32" height="32" viewBox="0 0 32 32" fill="none" xmlns="http://www.w3.org/2000/svg">
<path d="M23.9987 10.6667H22.6654V9.33341C22.6654 5.65741 19.6747 2.66675 15.9987 2.66675C12.3227 2.66675 9.33203 5.65741 9.33203 9.33341V10.6667H7.9987C7.29145 10.6667 6.61318 10.9477 6.11308 11.4478C5.61298 11.9479 5.33203 12.6262 5.33203 13.3334V26.6667C5.33203 27.374 5.61298 28.0523 6.11308 28.5524C6.61318 29.0525 7.29145 29.3334 7.9987 29.3334H23.9987C24.7059 29.3334 25.3842 29.0525 25.8843 28.5524C26.3844 28.0523 26.6654 27.374 26.6654 26.6667V13.3334C26.6654 12.6262 26.3844 11.9479 25.8843 11.4478C25.3842 10.9477 24.7059 10.6667 23.9987 10.6667ZM11.9987 9.33341C11.9987 7.12808 13.7934 5.33341 15.9987 5.33341C18.204 5.33341 19.9987 7.12808 19.9987 9.33341V10.6667H11.9987V9.33341ZM17.332 20.9641V24.0001H14.6654V20.9641C13.872 20.5027 13.332 19.6521 13.332 18.6667C13.332 17.9595 13.613 17.2812 14.1131 16.7811C14.6132 16.281 15.2915 16.0001 15.9987 16.0001C16.7059 16.0001 17.3842 16.281 17.8843 16.7811C18.3844 17.2812 18.6654 17.9595 18.6654 18.6667C18.6654 19.6507 18.1254 20.5014 17.332 20.9641Z" fill="#B9BCCC"/>
</svg>
