<svg width="52" height="26" viewBox="0 0 52 26" fill="none" xmlns="http://www.w3.org/2000/svg">
<rect width="52" height="26" rx="13" fill="#FF5A61"/>
<path d="M14.3711 9.60547C14.3711 10.0508 14.4707 10.4805 14.6699 10.8945C14.8691 11.3086 15.1641 11.6777 15.5547 12.002C15.9453 12.3223 16.4141 12.5664 16.9609 12.7344L16.293 13.7539C15.7031 13.5625 15.1914 13.2793 14.7578 12.9043C14.3242 12.5254 13.9824 12.0781 13.7324 11.5625C13.4902 12.1211 13.1445 12.6074 12.6953 13.0215C12.25 13.4355 11.7188 13.75 11.1016 13.9648L10.4336 12.9336C10.9844 12.75 11.457 12.4883 11.8516 12.1484C12.2461 11.8047 12.5449 11.4141 12.748 10.9766C12.9512 10.5352 13.0547 10.0781 13.0586 9.60547V9.30078H10.7734V8.25781H16.5977V9.30078H14.3711V9.60547ZM12.168 14.4453H13.4805V16.7773H19.4688V17.832H12.168V14.4453ZM17.8633 7.46094H19.1758V15.1484H17.8633V7.46094ZM29.7812 14.1055H28.5391V11.2227H27.5078V13.7539H26.2891V7.66016H27.5078V10.168H28.5391V7.44922H29.7812V14.1055ZM20.6641 8.59766H22.668V7.54297H23.957V8.59766H25.9375V9.61719H20.6641V8.59766ZM21.0391 11.8789C21.0352 11.5195 21.1289 11.2012 21.3203 10.9238C21.5156 10.6426 21.7871 10.4277 22.1348 10.2793C22.4824 10.127 22.875 10.0508 23.3125 10.0508C23.7578 10.0508 24.1543 10.127 24.502 10.2793C24.8496 10.4277 25.1211 10.6406 25.3164 10.918C25.5156 11.1953 25.6172 11.5156 25.6211 11.8789C25.6172 12.2422 25.5156 12.5625 25.3164 12.8398C25.1211 13.1133 24.8496 13.3262 24.502 13.4785C24.1543 13.6309 23.7578 13.707 23.3125 13.707C22.875 13.707 22.4824 13.6309 22.1348 13.4785C21.7871 13.3262 21.5156 13.1113 21.3203 12.834C21.1289 12.5566 21.0352 12.2383 21.0391 11.8789ZM22.1992 11.8789C22.1992 12.1484 22.3008 12.3652 22.5039 12.5293C22.7109 12.6895 22.9805 12.7695 23.3125 12.7695C23.6484 12.7695 23.9199 12.6895 24.127 12.5293C24.334 12.3652 24.4375 12.1484 24.4375 11.8789C24.4375 11.6094 24.334 11.3945 24.127 11.2344C23.9199 11.0703 23.6484 10.9883 23.3125 10.9883C22.9805 10.9883 22.7109 11.0703 22.5039 11.2344C22.3008 11.3945 22.1992 11.6094 22.1992 11.8789ZM22.5742 16.1445C22.5742 15.7422 22.7188 15.3984 23.0078 15.1133C23.2969 14.8281 23.7129 14.6113 24.2559 14.4629C24.8027 14.3105 25.4531 14.2344 26.207 14.2344C26.9609 14.2344 27.6094 14.3105 28.1523 14.4629C28.6953 14.6113 29.1113 14.8281 29.4004 15.1133C29.6934 15.3984 29.8398 15.7422 29.8398 16.1445C29.8398 16.5391 29.6934 16.877 29.4004 17.1582C29.1113 17.4434 28.6934 17.6602 28.1465 17.8086C27.6035 17.957 26.957 18.0312 26.207 18.0312C25.4531 18.0312 24.8027 17.957 24.2559 17.8086C23.7129 17.6602 23.2969 17.4434 23.0078 17.1582C22.7188 16.877 22.5742 16.5391 22.5742 16.1445ZM23.875 16.1445C23.8711 16.4336 24.0664 16.6543 24.4609 16.8066C24.8555 16.959 25.4238 17.0352 26.166 17.0352C26.9355 17.0352 27.5195 16.9609 27.918 16.8125C28.3203 16.6602 28.5234 16.4375 28.5273 16.1445C28.5234 15.8398 28.3242 15.6094 27.9297 15.4531C27.5352 15.2969 26.9609 15.2227 26.207 15.2305C25.4453 15.2227 24.8652 15.2969 24.4668 15.4531C24.0684 15.6094 23.8711 15.8398 23.875 16.1445ZM40.75 13.3672H36.5547V14.2578C37.5117 14.3203 38.2539 14.5137 38.7812 14.8379C39.3086 15.1582 39.5742 15.5898 39.5781 16.1328C39.5781 16.5352 39.4297 16.877 39.1328 17.1582C38.8398 17.4434 38.418 17.6602 37.8672 17.8086C37.3203 17.957 36.668 18.0312 35.9102 18.0312C35.1406 18.0312 34.4785 17.957 33.9238 17.8086C33.373 17.6641 32.9512 17.4492 32.6582 17.1641C32.3652 16.8789 32.2188 16.5352 32.2188 16.1328C32.2188 15.5898 32.4844 15.1562 33.0156 14.832C33.5469 14.5078 34.2969 14.3145 35.2656 14.252V13.3672H31.0938V12.3125H40.75V13.3672ZM31.5625 10.8008C32.1914 10.7422 32.752 10.623 33.2441 10.4434C33.7402 10.2637 34.1367 10.0449 34.4336 9.78711C34.7344 9.5293 34.9219 9.25391 34.9961 8.96094H31.9727V7.91797H39.8828V8.96094H36.8301C36.9004 9.25391 37.084 9.53125 37.3809 9.79297C37.6816 10.0508 38.0801 10.2695 38.5762 10.4492C39.0762 10.625 39.6484 10.7422 40.293 10.8008L39.8359 11.832C38.8789 11.7344 38.0566 11.5059 37.3691 11.1465C36.6855 10.7832 36.1992 10.332 35.9102 9.79297C35.6211 10.3359 35.1367 10.7871 34.457 11.1465C33.7773 11.5059 32.9609 11.7344 32.0078 11.832L31.5625 10.8008ZM33.543 16.1328C33.5391 16.4219 33.7363 16.6445 34.1348 16.8008C34.5332 16.957 35.1113 17.0352 35.8691 17.0352C36.6465 17.0352 37.2402 16.959 37.6504 16.8066C38.0645 16.6543 38.2734 16.4297 38.2773 16.1328C38.2734 15.8398 38.0684 15.6172 37.6621 15.4648C37.2559 15.3125 36.6719 15.2344 35.9102 15.2305C35.1367 15.2344 34.5469 15.3125 34.1406 15.4648C33.7383 15.6172 33.5391 15.8398 33.543 16.1328Z" fill="white"/>
</svg>
