<svg width="56" height="56" viewBox="0 0 56 56" fill="none" xmlns="http://www.w3.org/2000/svg">
<path d="M3.65533 26.7357L13.6732 36.5151L17.1839 29.8513L13.6732 23.0144H5.23336C3.24752 23.0144 2.2546 25.3684 3.65533 26.7357ZM52.0247 26.7357L42.0069 36.5151L39.3473 29.9378L42.0069 23.0144H50.4467C52.4325 23.0144 53.4254 25.3684 52.0247 26.7357Z" fill="#F9C23C"/>
<path d="M27.8252 9.17041C19.9811 9.17041 13.6406 15.2803 13.6406 22.8355V38.595H42.0098V22.8355C41.992 15.2803 35.6498 9.17041 27.8252 9.17041Z" fill="#FCD53F"/>
<path d="M47.4649 33.3576L42.0708 27.9585L36.7534 33.2807L27.84 25.2512L18.9266 33.2807L13.6246 27.9738L8.23047 33.373C8.23047 44.2174 17.0056 53.0007 27.84 53.0007C38.6591 53.0007 47.4342 44.2174 47.4495 33.3884L47.4649 33.3576Z" fill="url(#paint0_linear_1_30685)"/>
<path d="M38.1862 7.05274C38.516 6.88616 38.9042 7.13553 38.885 7.50162L38.4316 16.1504C38.4124 16.5165 38.0002 16.7247 37.6896 16.5252L30.352 11.812C30.0414 11.6125 30.0654 11.1549 30.3952 10.9883L38.1862 7.05274Z" fill="#FCD53F"/>
<path d="M33.1416 23.226C35.5757 23.226 37.5488 21.2595 37.5488 18.8338C37.5488 16.4081 35.5757 14.4417 33.1416 14.4417C30.7076 14.4417 28.7344 16.4081 28.7344 18.8338C28.7344 21.2595 30.7076 23.226 33.1416 23.226Z" fill="white"/>
<path d="M31.9535 21.3412C33.3431 21.3412 34.4695 20.2186 34.4695 18.8338C34.4695 17.449 33.3431 16.3264 31.9535 16.3264C30.564 16.3264 29.4375 17.449 29.4375 18.8338C29.4375 20.2186 30.564 21.3412 31.9535 21.3412Z" fill="#282828"/>
<path d="M31.012 18.9519C31.5343 18.9519 31.9576 18.53 31.9576 18.0095C31.9576 17.4891 31.5343 17.0671 31.012 17.0671C30.4898 17.0671 30.0664 17.4891 30.0664 18.0095C30.0664 18.53 30.4898 18.9519 31.012 18.9519Z" fill="white"/>
<path d="M22.4463 23.226C24.8803 23.226 26.8535 21.2595 26.8535 18.8338C26.8535 16.4081 24.8803 14.4417 22.4463 14.4417C20.0122 14.4417 18.0391 16.4081 18.0391 18.8338C18.0391 21.2595 20.0122 23.226 22.4463 23.226Z" fill="white"/>
<path d="M23.6371 21.3412C25.0267 21.3412 26.1531 20.2186 26.1531 18.8338C26.1531 17.449 25.0267 16.3264 23.6371 16.3264C22.2475 16.3264 21.1211 17.449 21.1211 18.8338C21.1211 20.2186 22.2475 21.3412 23.6371 21.3412Z" fill="#282828"/>
<path d="M24.5745 18.9519C25.0968 18.9519 25.5201 18.53 25.5201 18.0095C25.5201 17.4891 25.0968 17.0671 24.5745 17.0671C24.0523 17.0671 23.6289 17.4891 23.6289 18.0095C23.6289 18.53 24.0523 18.9519 24.5745 18.9519Z" fill="white"/>
<path d="M29.0802 21.1807C28.9677 21.7753 28.4554 22.224 27.8194 22.224C27.1834 22.224 26.6712 21.7753 26.5586 21.1807H29.0746H29.0802Z" fill="#FF6723"/>
<defs>
<linearGradient id="paint0_linear_1_30685" x1="27.8477" y1="24.359" x2="27.8477" y2="53.0007" gradientUnits="userSpaceOnUse">
<stop stop-color="#F6F7FB"/>
<stop offset="1" stop-color="#E6E6EF"/>
</linearGradient>
</defs>
</svg>
