<svg width="56" height="56" viewBox="0 0 56 56" fill="none" xmlns="http://www.w3.org/2000/svg">
<g clip-path="url(#clip0_1_30703)">
<circle cx="36.2402" cy="27.8281" r="19.7636" fill="#FCD53F"/>
<path d="M38.0112 29.9268C40.7702 29.9268 43.0068 27.6757 43.0068 24.8989C43.0068 22.1221 40.7702 19.8711 38.0112 19.8711C35.2522 19.8711 33.0156 22.1221 33.0156 24.8989C33.0156 27.6757 35.2522 29.9268 38.0112 29.9268Z" fill="white"/>
<path d="M36.6487 27.7706C38.2238 27.7706 39.5006 26.4856 39.5006 24.9003C39.5006 23.3151 38.2238 22.03 36.6487 22.03C35.0737 22.03 33.7969 23.3151 33.7969 24.9003C33.7969 26.4856 35.0737 27.7706 36.6487 27.7706Z" fill="#282828"/>
<path d="M25.8628 29.9268C28.6217 29.9268 30.8583 27.6757 30.8583 24.8989C30.8583 22.1221 28.6217 19.8711 25.8628 19.8711C23.1038 19.8711 20.8672 22.1221 20.8672 24.8989C20.8672 27.6757 23.1038 29.9268 25.8628 29.9268Z" fill="white"/>
<path d="M27.1995 27.7706C28.7746 27.7706 30.0514 26.4856 30.0514 24.9003C30.0514 23.3151 28.7746 22.03 27.1995 22.03C25.6245 22.03 24.3477 23.3151 24.3477 24.9003C24.3477 26.4856 25.6245 27.7706 27.1995 27.7706Z" fill="#282828"/>
<path d="M35.4625 26.1429C36.0544 26.1429 36.5343 25.6599 36.5343 25.0641C36.5343 24.4683 36.0544 23.9854 35.4625 23.9854C34.8705 23.9854 34.3906 24.4683 34.3906 25.0641C34.3906 25.6599 34.8705 26.1429 35.4625 26.1429Z" fill="white"/>
<path d="M26.0367 26.1429C26.6287 26.1429 27.1085 25.6599 27.1085 25.0641C27.1085 24.4683 26.6287 23.9854 26.0367 23.9854C25.4447 23.9854 24.9648 24.4683 24.9648 25.0641C24.9648 25.6599 25.4447 26.1429 26.0367 26.1429Z" fill="white"/>
<path d="M52.7157 49.7954H33.4102V47.1106H52.7157C53.3161 47.1106 53.805 47.7131 53.805 48.453C53.805 49.1929 53.3161 49.7954 52.7157 49.7954Z" fill="#B9BCCC"/>
<path d="M49.938 6.10018C50.621 5.76925 51.4061 6.30177 51.3512 7.05872L50.5965 17.4654C50.5416 18.2223 49.6879 18.636 49.0598 18.21L40.4247 12.353C39.7966 11.927 39.8652 10.9808 40.5482 10.6499L49.938 6.10018Z" fill="#FCD53F"/>
<path fill-rule="evenodd" clip-rule="evenodd" d="M41.8872 47.1076C44.5103 46.1949 46.3928 43.7007 46.3928 40.7667C46.3928 37.0598 43.3877 34.0547 39.6808 34.0547C35.9738 34.0547 32.9688 37.0598 32.9688 40.7667C32.9688 43.7007 34.8512 46.1949 37.4743 47.1076H41.8872Z" fill="#FFE376"/>
<path d="M35.9497 49.7943H8.23922C6.76407 49.7943 5.46903 48.8072 5.07451 47.391L0.0915928 29.4608C-0.345806 27.873 0.837744 26.3022 2.48442 26.3022H28.1109C29.0971 26.3022 29.9548 26.9631 30.2035 27.9159L35.9497 49.7943Z" fill="url(#paint0_linear_1_30703)"/>
<path d="M16.8951 41.4747C18.2309 41.4747 19.3137 40.391 19.3137 39.0542C19.3137 37.7175 18.2309 36.6338 16.8951 36.6338C15.5594 36.6338 14.4766 37.7175 14.4766 39.0542C14.4766 40.391 15.5594 41.4747 16.8951 41.4747Z" fill="white"/>
</g>
<defs>
<linearGradient id="paint0_linear_1_30703" x1="17.9749" y1="26.3022" x2="17.9749" y2="49.7943" gradientUnits="userSpaceOnUse">
<stop stop-color="#E0E1EB"/>
<stop offset="1" stop-color="#D1D3E1"/>
</linearGradient>
<clipPath id="clip0_1_30703">
<rect width="56" height="56" fill="white"/>
</clipPath>
</defs>
</svg>
