<svg width="56" height="56" viewBox="0 0 56 56" fill="none" xmlns="http://www.w3.org/2000/svg">
<path d="M24.25 19.3399C24.25 25.4393 19.1991 30.3451 13.1001 29.981C6.83145 29.6067 2.5392 23.5781 3.34774 17.2765C3.83685 13.4429 5.63361 10.1555 7.59008 7.6065C7.92947 7.16144 8.27883 10.7422 8.6282 10.3477C8.97757 9.94307 12.2217 4.32923 13.3497 2.35679C13.5593 1.99265 14.0384 1.88139 14.3778 2.14438C16.6437 3.85382 24.25 10.2769 24.25 19.3399Z" fill="#FF6723"/>
<path d="M21.25 21.8512C21.25 25.893 17.7312 29.142 13.4511 28.9952C8.83147 28.8386 5.66254 24.6109 6.34159 20.256C7.31903 14.0124 13.7289 10 13.7289 10C13.7289 10 21.25 14.7072 21.25 21.8512Z" fill="#FFB02E"/>
<ellipse cx="32.238" cy="32.0007" rx="19.5349" ry="19.5456" fill="#FCD53F"/>
<path d="M44.902 10.5979C45.5691 10.2745 46.336 10.7949 46.2824 11.5347L45.5452 21.7049C45.4916 22.4446 44.6577 22.8489 44.0442 22.4326L35.61 16.7087C34.9965 16.2924 35.0635 15.3677 35.7306 15.0443L44.902 10.5979Z" fill="#FCD53F"/>
<path d="M19.3047 35.0455L22.1901 32.9785C27.4835 34.2501 30.8622 37.0706 32.2465 38.9022V39.7499L19.3047 35.0455Z" fill="white"/>
<path d="M45.184 35.0455L42.2986 32.9785C37.0052 34.2501 33.6265 37.0706 32.2422 38.9022V39.7499L45.184 35.0455Z" fill="white"/>
<path d="M45.184 35.045C39.2753 34.9508 34.0827 38.1481 32.2422 39.7494V53.5022C36.0823 50.7758 43.561 49.7397 43.561 49.7397L45.184 35.045Z" fill="#576DFC"/>
<path d="M19.3003 35.045C25.209 34.9508 30.4017 38.1481 32.2422 39.7494V53.5022C28.4021 50.7758 20.9234 49.7397 20.9234 49.7397L19.3003 35.045Z" fill="#576DFC"/>
<ellipse cx="46.4035" cy="42.7527" rx="6.34884" ry="6.35232" fill="#FFE376"/>
<ellipse cx="17.0988" cy="42.7527" rx="6.34884" ry="6.35232" fill="#FFE376"/>
<path d="M25.7903 31.4994C22.8656 31.4994 20.4947 29.1358 20.4947 26.2203C20.4947 23.3047 22.8656 20.9412 25.7903 20.9412C28.715 20.9412 31.0859 23.3047 31.0859 26.2203C31.0859 29.1358 28.715 31.4994 25.7903 31.4994Z" fill="white"/>
<path d="M27.219 29.2343C25.5493 29.2343 24.1958 27.885 24.1958 26.2205C24.1958 24.5561 25.5493 23.2068 27.219 23.2068C28.8887 23.2068 30.2422 24.5561 30.2422 26.2205C30.2422 27.885 28.8887 29.2343 27.219 29.2343Z" fill="#282828"/>
<path d="M28.5594 27.4721C27.932 27.4721 27.4234 26.965 27.4234 26.3395C27.4234 25.7139 27.932 25.2068 28.5594 25.2068C29.1867 25.2068 29.6953 25.7139 29.6953 26.3395C29.6953 26.965 29.1867 27.4721 28.5594 27.4721Z" fill="white"/>
<path d="M21.0373 23.0756L31.1641 26.8076V21.4762L24.2352 17.7441L21.0373 23.0756Z" fill="#FCD53F"/>
<path d="M38.6472 31.4994C41.5719 31.4994 43.9428 29.1358 43.9428 26.2203C43.9428 23.3047 41.5719 20.9412 38.6472 20.9412C35.7225 20.9412 33.3516 23.3047 33.3516 26.2203C33.3516 29.1358 35.7225 31.4994 38.6472 31.4994Z" fill="white"/>
<path d="M37.2185 29.2343C38.8882 29.2343 40.2417 27.885 40.2417 26.2205C40.2417 24.5561 38.8882 23.2068 37.2185 23.2068C35.5488 23.2068 34.1953 24.5561 34.1953 26.2205C34.1953 27.885 35.5488 29.2343 37.2185 29.2343Z" fill="#282828"/>
<path d="M35.8781 27.4721C36.5055 27.4721 37.0141 26.965 37.0141 26.3395C37.0141 25.7139 36.5055 25.2068 35.8781 25.2068C35.2508 25.2068 34.7422 25.7139 34.7422 26.3395C34.7422 26.965 35.2508 27.4721 35.8781 27.4721Z" fill="white"/>
<path d="M43.4236 23.0756L33.2969 26.8076V21.4762L40.2257 17.7441L43.4236 23.0756Z" fill="#FCD53F"/>
<path d="M32.6814 32.0368H32.5593C31.6303 32.0368 30.6976 31.5464 30.2047 30.7504L30.2042 30.7497L30.2042 30.7497C30.117 30.6067 30.1598 30.4183 30.3035 30.3296C30.4459 30.2417 30.6355 30.2849 30.7242 30.4285L32.6814 32.0368ZM32.6814 32.0368V32.0329V32.0368Z" fill="#E2A50F" stroke="#E2A50F" stroke-width="0.244186"/>
</svg>
