<svg width="56" height="56" viewBox="0 0 56 56" fill="none" xmlns="http://www.w3.org/2000/svg">
<path fill-rule="evenodd" clip-rule="evenodd" d="M34.9533 0.000244141C35.6265 0.000244141 36.1074 0.651972 35.9088 1.29521L33.2221 9.99865H25.9999L29.0244 0.691203C29.1583 0.279193 29.5422 0.000244141 29.9754 0.000244141H34.9533Z" fill="#4153CB"/>
<rect opacity="0.9" x="8" y="7" width="40" height="49" rx="6" fill="#E4E8FF"/>
<rect x="14" y="14.5" width="28" height="25" rx="5" fill="#F1F2F8"/>
<path d="M28 21C21.364 21 16 26.2142 16 32.6619L16 34.5C16 36.1568 17.3432 37.5 19 37.5H37C38.6568 37.5 40 36.1569 40 34.5L40 32.6619C39.985 26.2142 34.6195 21 28 21Z" fill="#FCD53F"/>
<path d="M36.5754 19.7243C36.8551 19.5816 37.1844 19.7953 37.1681 20.1089L36.7835 27.5177C36.7673 27.8313 36.4176 28.0097 36.1542 27.8388L29.9302 23.8013C29.6667 23.6304 29.6871 23.2384 29.9668 23.0957L36.5754 19.7243Z" fill="#FCD53F"/>
<path d="M32.5391 33.025C34.6037 33.025 36.2775 31.3405 36.2775 29.2625C36.2775 27.1845 34.6037 25.5 32.5391 25.5C30.4745 25.5 28.8008 27.1845 28.8008 29.2625C28.8008 31.3405 30.4745 33.025 32.5391 33.025Z" fill="white"/>
<path d="M31.5248 31.4131C32.7034 31.4131 33.6589 30.4514 33.6589 29.2651C33.6589 28.0789 32.7034 27.1172 31.5248 27.1172C30.3461 27.1172 29.3906 28.0789 29.3906 29.2651C29.3906 30.4514 30.3461 31.4131 31.5248 31.4131Z" fill="#282828"/>
<path d="M30.7318 29.3646C31.1748 29.3646 31.5339 29.0031 31.5339 28.5573C31.5339 28.1114 31.1748 27.75 30.7318 27.75C30.2888 27.75 29.9297 28.1114 29.9297 28.5573C29.9297 29.0031 30.2888 29.3646 30.7318 29.3646Z" fill="white"/>
<path d="M23.4571 33.025C25.5217 33.025 27.1954 31.3405 27.1954 29.2625C27.1954 27.1845 25.5217 25.5 23.4571 25.5C21.3925 25.5 19.7188 27.1845 19.7188 29.2625C19.7188 31.3405 21.3925 33.025 23.4571 33.025Z" fill="white"/>
<path d="M24.4701 31.4131C25.6487 31.4131 26.6042 30.4514 26.6042 29.2651C26.6042 28.0789 25.6487 27.1172 24.4701 27.1172C23.2914 27.1172 22.3359 28.0789 22.3359 29.2651C22.3359 30.4514 23.2914 31.4131 24.4701 31.4131Z" fill="#282828"/>
<path d="M25.263 29.3646C25.706 29.3646 26.0651 29.0031 26.0651 28.5573C26.0651 28.1114 25.706 27.75 25.263 27.75C24.82 27.75 24.4609 28.1114 24.4609 28.5573C24.4609 29.0031 24.82 29.3646 25.263 29.3646Z" fill="white"/>
<path d="M29.0647 31.2734C28.9692 31.7828 28.5347 32.1672 27.9952 32.1672C27.4557 32.1672 27.0213 31.7828 26.9258 31.2734H29.0599H29.0647Z" fill="#FF6723"/>
<rect x="21" y="10" width="14" height="2" rx="1" fill="white"/>
<rect opacity="0.3" x="14" y="42.5" width="16" height="2.5" rx="1.25" fill="#8999FD"/>
<rect opacity="0.3" x="14" y="47.5" width="23" height="2.5" rx="1.25" fill="#8999FD"/>
<path fill-rule="evenodd" clip-rule="evenodd" d="M21.0466 0.000976562C20.3734 0.000976562 19.8925 0.652661 20.0911 1.29589L22.7773 9.99946H29.9991L26.9753 0.691992C26.8414 0.279953 26.4575 0.000976562 26.0242 0.000976562H21.0466Z" fill="#576DFC"/>
</svg>
