<svg width="56" height="56" viewBox="0 0 56 56" fill="none" xmlns="http://www.w3.org/2000/svg">
<circle cx="6.5" cy="6.5" r="6.5" transform="matrix(-1 0 0 1 47.5 28)" fill="#F9C23C"/>
<path d="M38.2578 40.6035L51.3651 35.6844L53.649 41.7699C53.8431 42.287 53.5812 42.8635 53.0642 43.0575L41.8293 47.2739C41.3122 47.468 40.7358 47.2061 40.5417 46.6891L38.2578 40.6035Z" fill="#8C5543"/>
<path d="M41.4626 36.1937L38.139 37.441C37.6219 37.6351 37.36 38.2116 37.5541 38.7286L38.2568 40.6011C38.6449 41.6353 39.7979 42.159 40.832 41.7709L50.1944 38.2572C51.2286 37.8691 51.7523 36.7161 51.3642 35.682L50.6614 33.8095C50.4674 33.2924 49.8909 33.0306 49.3738 33.2246L46.0502 34.472C45.4324 33.485 44.186 33.0354 43.0537 33.4604C41.9213 33.8853 41.2785 35.0439 41.4626 36.1937ZM42.432 35.8299C42.42 35.2121 42.7936 34.6261 43.405 34.3966C44.0165 34.1671 44.6834 34.3627 45.0808 34.8358L42.432 35.8299Z" fill="#6D4534"/>
<path d="M44.1132 40.5423L45.3419 39.5472L46.9219 39.4882L47.2733 40.4245C47.3703 40.683 47.2394 40.9713 46.9808 41.0683L45.1084 41.771C44.8498 41.868 44.5616 41.7371 44.4646 41.4786L44.1132 40.5423Z" fill="#D3883E"/>
<path d="M43.9335 40.0736C43.8365 39.8151 43.9674 39.5268 44.2259 39.4298L46.0984 38.7271C46.3569 38.63 46.6452 38.761 46.7422 39.0195L46.9179 39.4876L44.1092 40.5417L43.9335 40.0736Z" fill="#E19747"/>
<circle cx="19.5" cy="19.5" r="19.5" transform="matrix(-1 0 0 1 45 10)" fill="#FCD53F"/>
<path d="M35.9453 29.8628C33.0458 29.8628 30.6953 27.4971 30.6953 24.5789C30.6953 21.6606 33.0458 19.2949 35.9453 19.2949C38.8448 19.2949 41.1953 21.6606 41.1953 24.5789C41.1953 27.4971 38.8448 29.8628 35.9453 29.8628Z" fill="white"/>
<path d="M34.5419 27.5974C32.8867 27.5974 31.5448 26.2469 31.5448 24.5809C31.5448 22.915 32.8867 21.5645 34.5419 21.5645C36.1972 21.5645 37.5391 22.915 37.5391 24.5809C37.5391 26.2469 36.1972 27.5974 34.5419 27.5974Z" fill="#282828"/>
<path d="M35.7564 25.2674C35.1343 25.2674 34.6299 24.7599 34.6299 24.1337C34.6299 23.5076 35.1343 23 35.7564 23C36.3785 23 36.8828 23.5076 36.8828 24.1337C36.8828 24.7599 36.3785 25.2674 35.7564 25.2674Z" fill="white"/>
<path d="M23.75 29.8628C20.8505 29.8628 18.5 27.4971 18.5 24.5789C18.5 21.6606 20.8505 19.2949 23.75 19.2949C26.6495 19.2949 29 21.6606 29 24.5789C29 27.4971 26.6495 29.8628 23.75 29.8628Z" fill="white"/>
<path d="M25.4951 27.5974C23.8398 27.5974 22.4979 26.2469 22.4979 24.5809C22.4979 22.915 23.8398 21.5645 25.4951 21.5645C27.1503 21.5645 28.4922 22.915 28.4922 24.5809C28.4922 26.2469 27.1503 27.5974 25.4951 27.5974Z" fill="#282828"/>
<path d="M26.7095 25.2674C26.0874 25.2674 25.5831 24.7599 25.5831 24.1337C25.5831 23.5076 26.0874 23 26.7095 23C27.3316 23 27.8359 23.5076 27.8359 24.1337C27.8359 24.7599 27.3316 25.2674 26.7095 25.2674Z" fill="white"/>
<path d="M16.9472 40.8284L10.2141 40.831L9.04034 28.8878L18.1172 28.8809L16.9472 40.8284Z" fill="white"/>
<path d="M17.2404 26.3418L9.30236 26.8737L8.96448 27.9741L18.1172 27.9732L17.2404 26.3418Z" fill="#3A3E45"/>
<path d="M18.4215 27.5762L8.40237 27.5816L8.00003 28.8813L18.8281 28.8839L18.4215 27.5762Z" fill="#2B2E33"/>
<mask id="mask0_1_30721" style="mask-type:alpha" maskUnits="userSpaceOnUse" x="8" y="31" width="11" height="8">
<path d="M19 31.541H8.54562V38.8562H19V31.541Z" fill="#D9D9D9"/>
</mask>
<g mask="url(#mask0_1_30721)">
<path d="M17.0919 41.8358L10.1124 41.8385L8.89574 29.4584L18.3047 29.4512L17.0919 41.8358Z" fill="#9F6751"/>
</g>
<ellipse cx="1.77193" cy="1.77124" rx="1.77193" ry="1.77124" transform="matrix(-1 0 0 1 15.2812 33.248)" fill="#E3AD98"/>
<circle cx="6.5" cy="6.5" r="6.5" transform="matrix(-1 0 0 1 14.5 29)" fill="#FFDC58"/>
<path d="M10.8792 7.59791C10.2121 7.27449 9.44525 7.79491 9.49887 8.53466L10.2361 18.7049C10.2897 19.4446 11.1235 19.8489 11.737 19.4326L20.1713 13.7087C20.7848 13.2924 20.7177 12.3677 20.0506 12.0443L10.8792 7.59791Z" fill="#FCD53F"/>
<rect x="16.75" y="19" width="25" height="5" fill="#FCD53F"/>
<path d="M28.4984 27.0352C28.6146 27.6551 29.1434 28.1229 29.8 28.1229C30.4566 28.1229 30.9853 27.6551 31.1016 27.0352H28.5042H28.4984Z" fill="#FF6723"/>
</svg>
