<svg width="56" height="56" viewBox="0 0 56 56" fill="none" xmlns="http://www.w3.org/2000/svg">
<g clip-path="url(#clip0_1_30648)">
<path d="M8.71435 2.74008C8.93969 2.23341 9.63369 2.20875 9.90569 2.66408L9.94502 2.74008L10.6397 4.30341C11.2463 5.66802 12.255 6.81492 13.531 7.59075L13.7457 7.71675L14.979 8.41008C15.0771 8.46497 15.1598 8.54352 15.2197 8.63858C15.2796 8.73364 15.3148 8.84219 15.322 8.95432C15.3293 9.06645 15.3083 9.17861 15.2611 9.28058C15.2139 9.38254 15.1419 9.47106 15.0517 9.53808L14.9797 9.58474L13.7457 10.2781C12.4439 11.0103 11.3968 12.1226 10.7444 13.4661L10.6397 13.6914L9.94502 15.2547C9.71969 15.7614 9.02569 15.7861 8.75369 15.3307L8.71435 15.2547L8.01969 13.6914C7.41311 12.3268 6.40437 11.1799 5.12835 10.4041L4.91369 10.2781L3.68035 9.58474C3.58231 9.52985 3.49955 9.4513 3.43964 9.35624C3.37973 9.26118 3.34455 9.15264 3.33733 9.0405C3.33011 8.92837 3.35106 8.81621 3.39828 8.71425C3.4455 8.61229 3.51749 8.52376 3.60769 8.45675L3.67969 8.41008L4.91369 7.71675C6.21543 6.98451 7.26256 5.87225 7.91502 4.52875L8.01969 4.30341L8.71435 2.74008ZM14.8104 2.41141C15.1412 3.1632 15.7055 3.78833 16.4197 4.19408C16.5264 4.25408 16.5264 4.40741 16.4197 4.46741C15.7052 4.87322 15.1406 5.49861 14.8097 6.25075C14.797 6.27906 14.7764 6.3031 14.7504 6.31997C14.7244 6.33684 14.694 6.34582 14.663 6.34582C14.632 6.34582 14.6017 6.33684 14.5756 6.31997C14.5496 6.3031 14.529 6.27906 14.5164 6.25075C14.1853 5.49886 13.6207 4.87372 12.9064 4.46808C12.8822 4.45433 12.8622 4.43444 12.8483 4.41044C12.8343 4.38643 12.827 4.35917 12.827 4.33141C12.827 4.30365 12.8343 4.27639 12.8483 4.25239C12.8622 4.22838 12.8822 4.2085 12.9064 4.19475C13.621 3.78876 14.1856 3.16313 14.5164 2.41075C14.529 2.38243 14.5496 2.35839 14.5756 2.34152C14.6017 2.32465 14.632 2.31567 14.663 2.31567C14.694 2.31567 14.7244 2.32465 14.7504 2.34152C14.7764 2.35839 14.797 2.38243 14.8097 2.41075L14.8104 2.41141Z" fill="#FFEC00"/>
</g>
<circle cx="45.5" cy="32.5" r="6.5" fill="#F9C23C"/>
<circle cx="19.5" cy="19.5" r="19.5" transform="matrix(-1 0 0 1 48 10)" fill="#FCD53F"/>
<path d="M31.573 24.1543H25.2578V25.1485H31.573V24.1543Z" fill="#203745"/>
<path d="M31.5713 25.471H25.2561C25.076 25.471 24.9297 25.326 24.9297 25.1476V24.1534C24.9297 23.975 25.076 23.8301 25.2561 23.8301H31.5713C31.7514 23.8301 31.8978 23.975 31.8978 24.1534V25.1476C31.8978 25.326 31.7514 25.471 31.5713 25.471ZM25.5826 24.8261H31.2468V24.4786H25.5826V24.8261Z" fill="#2B2D35"/>
<path d="M31.0391 22.3241V24.1639C31.0391 27.4866 33.7558 30.1774 37.1085 30.1774C37.2323 30.1774 37.3561 30.1737 37.48 30.1626C38.1929 30.1254 38.8739 29.9581 39.4987 29.6924C39.9058 29.5196 40.2923 29.3077 40.6451 29.0494C41.3993 28.5142 42.024 27.8118 42.4631 26.9941C42.919 26.1504 43.1798 25.186 43.1798 24.162V22.3223H31.0391V22.3241Z" fill="#2B2D35"/>
<path d="M37.1049 30.5C33.5796 30.5 30.7109 27.6568 30.7109 24.1631V22.3233C30.7109 22.1449 30.8573 22 31.0374 22H43.1781C43.3582 22 43.5045 22.1449 43.5045 22.3233V24.1631C43.5045 25.2038 43.2438 26.2351 42.7503 27.1476C42.2925 28.0005 41.6284 28.7495 40.8348 29.3125C40.4745 29.5746 40.0674 29.8031 39.6265 29.989C38.9454 30.2789 38.2288 30.4461 37.497 30.4851C37.377 30.4963 37.2419 30.5 37.1087 30.5H37.1049ZM31.362 22.6467V24.1631C31.362 27.3018 33.938 29.8552 37.1049 29.8552C37.2194 29.8552 37.3319 29.8533 37.4445 29.8422C38.1124 29.8068 38.7541 29.6563 39.3657 29.3962C39.7597 29.2289 40.1237 29.0263 40.4483 28.7903C41.165 28.283 41.7597 27.6103 42.1725 26.8447C42.6152 26.0251 42.8498 25.0978 42.8498 24.165V22.6486H31.3601L31.362 22.6467Z" fill="#2B2D35"/>
<path d="M35.3847 22.3242L40.6455 29.0514C41.3997 28.5162 42.0245 27.8137 42.4635 26.9961L38.8106 22.3242H35.3828H35.3847Z" fill="white" fill-opacity="0.5"/>
<path d="M40.6413 29.3739C40.5437 29.3739 40.448 29.3312 40.3842 29.2494L35.1235 22.5223C35.0465 22.4257 35.0334 22.2937 35.0878 22.1822C35.1422 22.0726 35.2567 22.002 35.3805 22.002H38.8083C38.9096 22.002 39.0053 22.0484 39.0653 22.1265L42.7182 26.7983C42.797 26.8987 42.8083 27.0362 42.7482 27.1477C42.2886 28.0006 41.6263 28.7514 40.8308 29.3145C40.7726 29.3554 40.7069 29.3739 40.6413 29.3739ZM36.0447 22.6468L40.7013 28.6009C41.2492 28.1642 41.7163 27.6271 42.0709 27.025L38.6488 22.6468H36.0447Z" fill="#2B2D35"/>
<path d="M31.3516 22.3203L37.4848 30.1587C38.1977 30.1216 38.8788 29.9543 39.5035 29.6886L33.7418 22.3203H31.3516Z" fill="white" fill-opacity="0.5"/>
<path d="M37.4843 30.4852C37.383 30.4852 37.2892 30.4388 37.2273 30.3607L31.0922 22.5223C31.0153 22.4257 31.0022 22.2937 31.0566 22.1822C31.111 22.0726 31.2254 22.002 31.3492 22.002H33.7395C33.8408 22.002 33.9346 22.0484 33.9965 22.1265L39.7582 29.4947C39.8201 29.5728 39.8408 29.6769 39.8164 29.7735C39.792 29.8701 39.7226 29.95 39.6288 29.9891C38.9477 30.279 38.231 30.4462 37.4993 30.4852C37.4937 30.4852 37.4881 30.4852 37.4824 30.4852H37.4843ZM32.0153 22.6449L37.6363 29.8274C38.0922 29.7884 38.5425 29.6954 38.9777 29.5468L33.58 22.6449H32.0134H32.0153Z" fill="#2B2D35"/>
<path d="M13.8281 22.3241V24.1639C13.8281 27.4866 16.5448 30.1774 19.8975 30.1774C20.0214 30.1774 20.1452 30.1737 20.269 30.1626C20.982 30.1254 21.663 29.9581 22.2878 29.6924C22.6949 29.5196 23.0814 29.3077 23.4341 29.0494C24.1883 28.5142 24.8131 27.8118 25.2521 26.9941C25.708 26.1504 25.9688 25.186 25.9688 24.162V22.3223H13.8281V22.3241Z" fill="#2B2D35"/>
<path d="M19.8959 30.5C16.3705 30.5 13.5 27.6568 13.5 24.1631V22.3233C13.5 22.1449 13.6463 22 13.8265 22H25.9672C26.1473 22 26.2936 22.1449 26.2936 22.3233V24.1631C26.2936 25.2038 26.0328 26.2351 25.5394 27.1476C25.0816 28.0005 24.4174 28.7495 23.6219 29.3125C23.2617 29.5746 22.8546 29.8031 22.4137 29.989C21.7326 30.2789 21.0159 30.4461 20.2842 30.4851C20.1642 30.4963 20.0291 30.5 19.8959 30.5ZM14.1529 22.6467V24.1631C14.1529 27.3018 16.7289 29.8552 19.8959 29.8552C20.0103 29.8552 20.1229 29.8533 20.2355 29.8422C20.9034 29.8068 21.545 29.6563 22.1567 29.3962C22.5506 29.2289 22.9146 29.0263 23.2392 28.7903C23.9559 28.283 24.5506 27.6103 24.9634 26.8447C25.4062 26.0251 25.6407 25.0978 25.6407 24.165V22.6486H14.151L14.1529 22.6467Z" fill="#2B2D35"/>
<path d="M18.1738 22.3242L23.4345 29.0514C24.1888 28.5162 24.8135 27.8137 25.2525 26.9961L21.5996 22.3242H18.1719H18.1738Z" fill="white" fill-opacity="0.5"/>
<path d="M23.4381 29.3739C23.3406 29.3739 23.2449 29.3312 23.1811 29.2494L17.9203 22.5223C17.8434 22.4257 17.8303 22.2937 17.8847 22.1822C17.9391 22.0726 18.0535 22.002 18.1774 22.002H21.6051C21.7064 22.002 21.8003 22.0484 21.8622 22.1265L25.5151 26.7983C25.5939 26.8987 25.6051 27.0362 25.5451 27.1477C25.0854 28.0025 24.4231 28.7514 23.6276 29.3145C23.5695 29.3554 23.5038 29.3739 23.4381 29.3739ZM18.8415 22.6468L23.4982 28.6009C24.046 28.1642 24.5151 27.6271 24.8678 27.025L21.4457 22.6468H18.8415Z" fill="#2B2D35"/>
<path d="M14.1484 22.3203L20.2816 30.1587C20.9946 30.1216 21.6756 29.9543 22.3004 29.6886L16.5387 22.3203H14.1484Z" fill="white" fill-opacity="0.5"/>
<path d="M20.2793 30.4852C20.178 30.4852 20.0842 30.4388 20.0223 30.3607L13.8891 22.5223C13.8122 22.4257 13.799 22.2937 13.8534 22.1822C13.9078 22.0726 14.0223 22.002 14.1461 22.002H16.5364C16.6377 22.002 16.7315 22.0484 16.7934 22.1265L22.5551 29.4947C22.617 29.5728 22.6377 29.6769 22.6133 29.7735C22.5889 29.8701 22.5195 29.95 22.4257 29.9891C21.7427 30.279 21.026 30.4462 20.2962 30.4852C20.2906 30.4852 20.2849 30.4852 20.2793 30.4852ZM14.8103 22.6449L20.4313 29.8274C20.8872 29.7884 21.3375 29.6954 21.7727 29.5468L16.375 22.6449H14.8084H14.8103Z" fill="#2B2D35"/>
<circle cx="11" cy="32.5" r="6.5" fill="#FFE583"/>
<g clip-path="url(#clip1_1_30648)">
<path d="M26.9062 41.3742L27.9688 37.3013H29.0312L30.0938 41.3742L28.5 42.7909L26.9062 41.3742ZM27.9688 35.7075H29.0312L29.5625 36.0617L29.0312 37.3013H27.9688L27.4375 36.0617L27.9688 35.7075Z" fill="#FF6723"/>
<path d="M27.9687 37.3013L26.9062 41.3742L28.5 42.7909L30.0937 41.3742L29.0312 37.3013M27.9687 37.3013H29.0312M27.9687 37.3013L27.4375 36.0617L27.9687 35.7075H29.0312L29.5625 36.0617L29.0312 37.3013" stroke="#FF6723" stroke-width="0.708333" stroke-linecap="round" stroke-linejoin="round"/>
</g>
<path d="M29.4544 30.6221H29.3323C28.3837 30.6221 27.4297 30.1358 26.9249 29.344L26.9245 29.3433L26.9245 29.3433C26.8338 29.1988 26.8797 29.0099 27.0257 28.9224C27.1683 28.8369 27.3594 28.8776 27.4502 29.0204L29.4544 30.6221ZM29.4544 30.6221V30.6184M29.4544 30.6221V30.6184M29.4544 30.6184C29.5959 30.6122 29.7372 30.5951 29.8768 30.5659C29.8768 30.5659 29.8768 30.5659 29.8769 30.5659L29.8519 30.4464M29.4544 30.6184L27.4502 29.0204C27.9136 29.7481 28.8828 30.1507 29.748 29.9705L29.7729 30.09C29.8735 30.0679 29.9742 30.132 29.9958 30.2298C30.0175 30.3286 29.9525 30.4254 29.8519 30.4464M29.8519 30.4464C29.6809 30.4821 29.5066 30.4989 29.3323 30.4989L29.8519 30.4464Z" fill="#E2A50F" stroke="#E2A50F" stroke-width="0.244186"/>
<path d="M41.7145 7.59791C42.3816 7.27449 43.1485 7.79491 43.0949 8.53466L42.3577 18.7049C42.3041 19.4446 41.4702 19.8489 40.8567 19.4326L32.4225 13.7087C31.809 13.2924 31.876 12.3677 32.5431 12.0443L41.7145 7.59791Z" fill="#FCD53F"/>
<defs>
<clipPath id="clip0_1_30648">
<rect width="16" height="16" fill="white" transform="translate(2 1)"/>
</clipPath>
<clipPath id="clip1_1_30648">
<rect width="8.5" height="8.5" fill="white" transform="translate(24.25 35)"/>
</clipPath>
</defs>
</svg>
