<svg width="305" height="454" viewBox="0 0 305 454" fill="none" xmlns="http://www.w3.org/2000/svg">
<path d="M73 50H217.5C263.063 50 300 86.9365 300 132.5V132.5C300 178.063 263.063 215 217.5 215H87.5C41.9365 215 5 251.937 5 297.5V297.5C5 343.063 41.9365 380 87.5 380H193" stroke="#F7F7FA" stroke-width="10"/>
<circle cx="81" cy="50" r="48" fill="#F7F7FA" stroke="#F7F7FA" stroke-width="4"/>
<path d="M31 116C31 111.582 34.5817 108 39 108H123C127.418 108 131 111.582 131 116V116C131 120.418 127.418 124 123 124H39C34.5817 124 31 120.418 31 116V116Z" fill="#F7F7FA"/>
<circle cx="81" cy="215" r="48" fill="#F7F7FA" stroke="#F7F7FA" stroke-width="4"/>
<path d="M31 281C31 276.582 34.5817 273 39 273H123C127.418 273 131 276.582 131 281V281C131 285.418 127.418 289 123 289H39C34.5817 289 31 285.418 31 281V281Z" fill="#F7F7FA"/>
<circle cx="81" cy="380" r="48" fill="#F7F7FA" stroke="#F7F7FA" stroke-width="4"/>
<path d="M31 446C31 441.582 34.5817 438 39 438H123C127.418 438 131 441.582 131 446V446C131 450.418 127.418 454 123 454H39C34.5817 454 31 450.418 31 446V446Z" fill="#F7F7FA"/>
<circle cx="225" cy="50" r="48" fill="#F7F7FA" stroke="#F7F7FA" stroke-width="4"/>
<path d="M175 116C175 111.582 178.582 108 183 108H267C271.418 108 275 111.582 275 116V116C275 120.418 271.418 124 267 124H183C178.582 124 175 120.418 175 116V116Z" fill="#F7F7FA"/>
<circle cx="225" cy="215" r="48" fill="#F7F7FA" stroke="#F7F7FA" stroke-width="4"/>
<path d="M175 281C175 276.582 178.582 273 183 273H267C271.418 273 275 276.582 275 281V281C275 285.418 271.418 289 267 289H183C178.582 289 175 285.418 175 281V281Z" fill="#F7F7FA"/>
<circle cx="225" cy="380" r="48" fill="#F7F7FA" stroke="#F7F7FA" stroke-width="4"/>
<path d="M175 446C175 441.582 178.582 438 183 438H267C271.418 438 275 441.582 275 446V446C275 450.418 271.418 454 267 454H183C178.582 454 175 450.418 175 446V446Z" fill="#F7F7FA"/>
</svg>
