<svg width="456" height="558" viewBox="0 0 456 558" fill="none" xmlns="http://www.w3.org/2000/svg">
<path d="M6 62H350.5C405.452 62 450 106.548 450 161.5V161.5C450 216.452 405.452 261 350.5 261H105.5C50.5477 261 6 305.548 6 360.5V360.5C6 415.452 50.5477 460 105.5 460H288" stroke="#F7F7FA" stroke-width="12"/>
<circle cx="68" cy="62" r="60" fill="#F7F7FA" stroke="#F7F7FA" stroke-width="4"/>
<path d="M22 144C22 139.582 25.5817 136 30 136H106C110.418 136 114 139.582 114 144V152C114 156.418 110.418 160 106 160H30C25.5817 160 22 156.418 22 152V144Z" fill="#F7F7FA"/>
<circle cx="274" cy="62" r="60" fill="#F7F7FA" stroke="#F7F7FA" stroke-width="4"/>
<path d="M228 144C228 139.582 231.582 136 236 136H312C316.418 136 320 139.582 320 144V152C320 156.418 316.418 160 312 160H236C231.582 160 228 156.418 228 152V144Z" fill="#F7F7FA"/>
<circle cx="68" cy="460" r="60" fill="#F7F7FA" stroke="#F7F7FA" stroke-width="4"/>
<path d="M22 542C22 537.582 25.5817 534 30 534H106C110.418 534 114 537.582 114 542V550C114 554.418 110.418 558 106 558H30C25.5817 558 22 554.418 22 550V542Z" fill="#F7F7FA"/>
<circle cx="274" cy="460" r="60" fill="#F7F7FA" stroke="#F7F7FA" stroke-width="4"/>
<path d="M228 542C228 537.582 231.582 534 236 534H312C316.418 534 320 537.582 320 542V550C320 554.418 316.418 558 312 558H236C231.582 558 228 554.418 228 550V542Z" fill="#F7F7FA"/>
<circle cx="173" cy="261" r="60" fill="#F7F7FA" stroke="#F7F7FA" stroke-width="4"/>
<path d="M127 343C127 338.582 130.582 335 135 335H211C215.418 335 219 338.582 219 343V351C219 355.418 215.418 359 211 359H135C130.582 359 127 355.418 127 351V343Z" fill="#F7F7FA"/>
<circle cx="382" cy="261" r="60" fill="#F7F7FA" stroke="#F7F7FA" stroke-width="4"/>
<path d="M336 343C336 338.582 339.582 335 344 335H420C424.418 335 428 338.582 428 343V351C428 355.418 424.418 359 420 359H344C339.582 359 336 355.418 336 351V343Z" fill="#F7F7FA"/>
</svg>
