<svg width="153" height="74" viewBox="0 0 153 74" fill="none" xmlns="http://www.w3.org/2000/svg">
<path d="M0 20C0 8.95431 8.95431 0 20 0H133C144.046 0 153 8.95431 153 20V46C153 57.0457 144.046 66 133 66H20C8.9543 66 0 57.0457 0 46V20Z" fill="#E4E8FF"/>
<path d="M43.2227 29.2168H41.7188V16.8574H43.2227V29.2168ZM32.9277 25.416C34.1901 25.416 35.3158 25.4046 36.3047 25.3818V22.9688H33.8301V17.9922H35.3613V21.7383H40.3242V22.9688H37.8359V25.334C39.0163 25.2793 40.0599 25.1973 40.9668 25.0879L41.0625 26.209C40.0052 26.3822 38.9069 26.5029 37.7676 26.5713C36.6283 26.6351 35.4456 26.667 34.2197 26.667C33.7093 26.667 33.3333 26.6647 33.0918 26.6602L32.9277 25.416ZM55.6641 29.2168H54.2012V16.8574H55.6641V29.2168ZM45.123 22.2031C45.123 21.3053 45.2324 20.526 45.4512 19.8652C45.6699 19.1999 45.9798 18.6895 46.3809 18.334C46.7865 17.9785 47.2559 17.8008 47.7891 17.8008C48.2858 17.8008 48.7256 17.9489 49.1084 18.2451C49.4958 18.5413 49.8057 18.9674 50.0381 19.5234C50.2751 20.0794 50.4232 20.7402 50.4824 21.5059H51.6719V17.0762H53.1211V28.6152H51.6719V22.7363H50.4961C50.4505 23.5339 50.3092 24.2266 50.0723 24.8145C49.8398 25.3978 49.5277 25.8444 49.1357 26.1543C48.7438 26.4642 48.2949 26.6191 47.7891 26.6191C47.2559 26.6191 46.7865 26.4414 46.3809 26.0859C45.9798 25.7305 45.6699 25.2201 45.4512 24.5547C45.2324 23.8848 45.123 23.1009 45.123 22.2031ZM46.5312 22.2441C46.5312 23.1875 46.6406 23.9121 46.8594 24.418C47.0827 24.9238 47.3926 25.1745 47.7891 25.1699C48.2038 25.1745 48.5251 24.9215 48.7529 24.4111C48.9808 23.9007 49.097 23.1647 49.1016 22.2031C49.097 21.2461 48.9808 20.5124 48.7529 20.002C48.5251 19.487 48.2038 19.2318 47.7891 19.2363C47.388 19.2318 47.0781 19.4893 46.8594 20.0088C46.6406 20.5283 46.5312 21.2734 46.5312 22.2441ZM64.332 20.0703C64.3275 20.7904 64.4095 21.4785 64.5781 22.1348C64.7513 22.7865 65.0179 23.3721 65.3779 23.8916C65.7425 24.4066 66.2005 24.8099 66.752 25.1016L65.8496 26.3047C65.3073 26.0039 64.847 25.596 64.4688 25.0811C64.0905 24.5615 63.7943 23.96 63.5801 23.2764C63.3522 24.0283 63.0355 24.6937 62.6299 25.2725C62.2288 25.8512 61.748 26.3092 61.1875 26.6465L60.2168 25.5391C60.8001 25.1973 61.29 24.7415 61.6865 24.1719C62.083 23.6022 62.377 22.9733 62.5684 22.2852C62.7598 21.597 62.8555 20.8906 62.8555 20.166V17.9512H64.332V20.0703ZM66.916 17.0762H68.3516V21.7246H69.623V16.8574H71.0859V29.2168H69.623V22.9551H68.3516V28.6152H66.916V17.0762ZM78.8242 18.1699C78.8242 18.8626 78.7718 19.5098 78.667 20.1113H81.3535V16.8574H82.8711V29.2031H81.3535V24.6777H78.209V23.4473H81.3535V21.3281H78.3867C77.6439 23.7936 75.9258 25.6849 73.2324 27.002L72.4395 25.7988C73.957 25.0423 75.11 24.1354 75.8984 23.0781C76.6868 22.0208 77.1494 20.7858 77.2861 19.373H73.0137V18.1699H78.8242ZM87.9434 17.7598C88.5632 17.7598 89.1146 17.9398 89.5977 18.2998C90.0807 18.6553 90.459 19.1634 90.7324 19.8242C91.0104 20.4805 91.1517 21.2461 91.1562 22.1211C91.1517 23.0007 91.0104 23.7708 90.7324 24.4316C90.459 25.0924 90.0807 25.6029 89.5977 25.9629C89.1146 26.3184 88.5632 26.4961 87.9434 26.4961C87.319 26.4961 86.763 26.3184 86.2754 25.9629C85.7878 25.6029 85.4072 25.0924 85.1338 24.4316C84.8649 23.7708 84.7305 23.0007 84.7305 22.1211C84.7305 21.2461 84.8649 20.4805 85.1338 19.8242C85.4072 19.1634 85.7878 18.6553 86.2754 18.2998C86.763 17.9398 87.319 17.7598 87.9434 17.7598ZM86.1934 22.1211C86.1934 22.7409 86.2663 23.2786 86.4121 23.7344C86.5579 24.1855 86.763 24.5296 87.0273 24.7666C87.2917 25.0036 87.597 25.1243 87.9434 25.1289C88.2943 25.1243 88.5996 25.0036 88.8594 24.7666C89.1237 24.5296 89.3288 24.1855 89.4746 23.7344C89.6204 23.2832 89.6934 22.7454 89.6934 22.1211C89.6934 21.5013 89.6204 20.9658 89.4746 20.5146C89.3288 20.0635 89.1237 19.7194 88.8594 19.4824C88.5951 19.2454 88.2897 19.127 87.9434 19.127C87.597 19.127 87.2917 19.2477 87.0273 19.4893C86.763 19.7262 86.5579 20.0703 86.4121 20.5215C86.2663 20.9681 86.1934 21.5013 86.1934 22.1211ZM92.7832 16.8574H94.3008V19.8105H96.1328V21.082H94.3008V23.4609H96.1328V24.7051H94.3008V29.2168H92.7832V16.8574ZM106.4 21.7793H108.301V23.0371H106.4V29.2168H104.896V16.8574H106.4V21.7793ZM96.6523 18.7578H99.5781V17.0352H101.096V18.7578H103.939V19.9746H96.6523V18.7578ZM97.2266 23.6934C97.222 23.1328 97.3542 22.6315 97.623 22.1895C97.8919 21.7428 98.2633 21.3965 98.7373 21.1504C99.2113 20.9043 99.7467 20.7812 100.344 20.7812C100.932 20.7812 101.46 20.9043 101.93 21.1504C102.399 21.3965 102.768 21.7428 103.037 22.1895C103.311 22.6315 103.447 23.1328 103.447 23.6934C103.447 24.2539 103.311 24.7552 103.037 25.1973C102.768 25.6348 102.399 25.9766 101.93 26.2227C101.46 26.4688 100.932 26.5918 100.344 26.5918C99.7467 26.5918 99.2113 26.4688 98.7373 26.2227C98.2633 25.9766 97.8919 25.6348 97.623 25.1973C97.3542 24.7552 97.222 24.2539 97.2266 23.6934ZM98.6758 23.6934C98.6758 24.0215 98.7464 24.3109 98.8877 24.5615C99.029 24.8076 99.2249 24.999 99.4756 25.1357C99.7308 25.2679 100.02 25.334 100.344 25.334C100.658 25.334 100.941 25.2679 101.191 25.1357C101.442 25.0036 101.638 24.8122 101.779 24.5615C101.921 24.3109 101.993 24.0215 101.998 23.6934C101.993 23.3652 101.918 23.0758 101.772 22.8252C101.631 22.57 101.435 22.374 101.185 22.2373C100.938 22.096 100.658 22.0254 100.344 22.0254C100.02 22.0254 99.7308 22.096 99.4756 22.2373C99.2249 22.374 99.029 22.57 98.8877 22.8252C98.7464 23.0758 98.6758 23.3652 98.6758 23.6934ZM118.828 21.5605H110.27V17.3086H111.773V20.3574H118.828V21.5605ZM108.807 22.9961H120.1V24.1992H108.807V22.9961ZM110.16 25.293H111.678V27.6992H118.91V28.9297H110.16V25.293ZM35.1289 44.2285H33.6113V37.8574H35.1289V44.2285ZM25.0254 42.7109C25.3079 42.7109 25.7773 42.7064 26.4336 42.6973V39.8262H25.3535V38.6504H32.0664V39.8262H30.959V42.5127C31.4831 42.4762 32.0254 42.4238 32.5859 42.3555L32.6543 43.4492C30.6992 43.7591 28.2109 43.9141 25.1895 43.9141L25.0254 42.7109ZM26.8438 44.748H35.1289V47.9336H28.375V48.9043H35.5254V50.1074H26.8711V46.8262H33.625V45.9375H26.8438V44.748ZM27.8965 42.6631C28.4342 42.6494 28.972 42.6289 29.5098 42.6016V39.8262H27.8965V42.6631ZM43.3594 38.8828C43.3548 39.4023 43.5348 39.9082 43.8994 40.4004C44.2686 40.8926 44.7858 41.3141 45.4512 41.665C46.1211 42.016 46.8822 42.2461 47.7344 42.3555L47.1328 43.5859C46.0938 43.431 45.1732 43.112 44.3711 42.6289C43.569 42.1413 42.9652 41.5465 42.5596 40.8447C42.154 41.5465 41.5524 42.1413 40.7549 42.6289C39.9574 43.112 39.0436 43.431 38.0137 43.5859L37.4121 42.3555C38.2598 42.2461 39.014 42.016 39.6748 41.665C40.3356 41.3141 40.8483 40.8949 41.2129 40.4072C41.5775 39.915 41.7598 39.4069 41.7598 38.8828V38.2539H43.3594V38.8828ZM36.9199 44.6523H48.1855V45.9102H43.2773V50.2168H41.7734V45.9102H36.9199V44.6523ZM62.6094 44.2285H61.1055V37.8574H62.6094V44.2285ZM52.4375 43.1211C53.0618 42.9388 53.5973 42.6722 54.0439 42.3213C54.4951 41.9704 54.8415 41.5693 55.083 41.1182C55.3291 40.667 55.4658 40.1953 55.4932 39.7031H52.834V38.4727H59.6289V39.7031H57.0381C57.0609 40.168 57.193 40.6123 57.4346 41.0361C57.6761 41.4554 58.0202 41.8268 58.4668 42.1504C58.9134 42.474 59.4466 42.7201 60.0664 42.8887L59.3281 44.0645C58.6217 43.8594 58.0111 43.5495 57.4961 43.1348C56.9811 42.7155 56.5801 42.221 56.293 41.6514C56.0059 42.2848 55.5934 42.834 55.0557 43.2988C54.5225 43.7591 53.8822 44.1009 53.1348 44.3242L52.4375 43.1211ZM54.4336 44.748H62.6367V47.9336H55.9512V48.9316H63.0059V50.1074H54.4609V46.8262H61.1191V45.9102H54.4336V44.748ZM75.7207 45.2539H70.9492V47.5234H69.4453V45.2539H64.4277V44.0371H75.7207V45.2539ZM65.7949 46.3887H67.3125V48.7402H74.4766V49.9707H65.7949V46.3887ZM65.8633 38.418H74.2715V42.8887H65.8633V38.418ZM72.7676 41.6992V39.6074H67.3398V41.6992H72.7676ZM86.8223 50.2305H85.291V37.8574H86.8223V50.2305ZM76.9375 43.1211C76.9375 42.2507 77.0742 41.485 77.3477 40.8242C77.6211 40.1634 78.0016 39.6553 78.4893 39.2998C78.9814 38.9398 79.5397 38.7598 80.1641 38.7598C80.7793 38.7598 81.3307 38.9398 81.8184 39.2998C82.3105 39.6553 82.6956 40.1634 82.9736 40.8242C83.2516 41.485 83.3906 42.2507 83.3906 43.1211C83.3906 44.0007 83.2516 44.7708 82.9736 45.4316C82.6956 46.0924 82.3105 46.6029 81.8184 46.9629C81.3307 47.3184 80.7793 47.4961 80.1641 47.4961C79.5397 47.4961 78.9814 47.3184 78.4893 46.9629C78.0016 46.6029 77.6211 46.0924 77.3477 45.4316C77.0742 44.7708 76.9375 44.0007 76.9375 43.1211ZM78.4004 43.1211C78.4004 43.7454 78.4733 44.2832 78.6191 44.7344C78.7695 45.1855 78.9769 45.5296 79.2412 45.7666C79.5055 46.0036 79.8132 46.1243 80.1641 46.1289C80.5104 46.1243 80.8158 46.0036 81.0801 45.7666C81.3444 45.5296 81.5495 45.1855 81.6953 44.7344C81.8411 44.2832 81.9141 43.7454 81.9141 43.1211C81.9141 42.5013 81.8411 41.9681 81.6953 41.5215C81.5495 41.0703 81.3444 40.7262 81.0801 40.4893C80.8158 40.2477 80.5104 40.127 80.1641 40.127C79.8132 40.127 79.5055 40.2477 79.2412 40.4893C78.9769 40.7262 78.7695 41.0703 78.6191 41.5215C78.4733 41.9681 78.4004 42.5013 78.4004 43.1211ZM98.3887 40.6602H100.125V41.9316H98.3887V44.6934H96.8711V37.8711H98.3887V40.6602ZM89.1055 38.4453H94.752V41.9727H90.6367V43.2305C91.7624 43.2259 92.7148 43.1963 93.4941 43.1416C94.2734 43.0869 95.0618 42.9844 95.8594 42.834L96.0234 44.0781C95.1393 44.2331 94.2575 44.3402 93.3779 44.3994C92.4984 44.4541 91.416 44.4837 90.1309 44.4883H89.1191V40.8105H93.2617V39.6621H89.1055V38.4453ZM90.4043 45.1992H91.9082V46.457H96.8711V45.1992H98.3887V50.0664H90.4043V45.1992ZM96.8711 48.8359V47.6465H91.9082V48.8359H96.8711ZM111.049 50.2168H109.545V37.8574H111.049V50.2168ZM101.451 39.0605H102.955V45.8145C104.901 45.7826 106.729 45.5957 108.438 45.2539L108.629 46.5254C106.706 46.9264 104.669 47.1224 102.518 47.1133H101.451V39.0605ZM122.52 42.5469H124.42V43.791H122.52V50.2305H121.002V37.8574H122.52V42.5469ZM113.346 39.0332H119.129V40.2637H114.863V45.9375C115.866 45.9329 116.768 45.901 117.57 45.8418C118.372 45.7826 119.184 45.6823 120.004 45.541L120.182 46.8262C119.284 46.9811 118.4 47.0837 117.529 47.1338C116.659 47.1839 115.606 47.209 114.371 47.209H113.346V39.0332ZM127.332 46.0879H125.787L125.623 39.1016H127.482L127.332 46.0879ZM125.5 48.043C125.5 47.8561 125.548 47.6829 125.644 47.5234C125.739 47.3594 125.869 47.2295 126.033 47.1338C126.197 47.0381 126.375 46.9902 126.566 46.9902C126.753 46.9902 126.926 47.0381 127.086 47.1338C127.25 47.2295 127.38 47.3594 127.476 47.5234C127.571 47.6829 127.619 47.8561 127.619 48.043C127.619 48.2344 127.571 48.4121 127.476 48.5762C127.38 48.7402 127.25 48.8701 127.086 48.9658C126.926 49.0615 126.753 49.1094 126.566 49.1094C126.375 49.1094 126.197 49.0615 126.033 48.9658C125.869 48.8701 125.739 48.7402 125.644 48.5762C125.548 48.4121 125.5 48.2344 125.5 48.043Z" fill="#576DFC"/>
<path d="M75.7474 73.1399C76.1458 73.5952 76.8542 73.5952 77.2526 73.1399L83.5 66H69.5L75.7474 73.1399Z" fill="#E4E8FF"/>
</svg>
