<svg width="193" height="74" viewBox="0 0 193 74" fill="none" xmlns="http://www.w3.org/2000/svg">
<path d="M0.5 20C0.5 8.95431 9.4543 0 20.5 0H172.5C183.546 0 192.5 8.95431 192.5 20V46C192.5 57.0457 183.546 66 172.5 66H20.5C9.45431 66 0.5 57.0457 0.5 46V20Z" fill="#E4E8FF"/>
<path d="M61.5615 29.2168H60.0303V16.8574H61.5615V29.2168ZM51.3213 25.8125C52.9163 25.056 54.1126 24.1514 54.9102 23.0986C55.7122 22.0459 56.1839 20.804 56.3252 19.373H51.9502V18.1699H57.8701C57.8701 20.1341 57.4258 21.8568 56.5371 23.3379C55.6484 24.819 54.1742 26.0495 52.1143 27.0293L51.3213 25.8125ZM66.7705 17.4043C67.2992 17.4043 67.7845 17.5 68.2266 17.6914C68.6686 17.8783 69.0378 18.1449 69.334 18.4912C69.6348 18.833 69.8353 19.2272 69.9355 19.6738H72.1709V16.8574H73.6885V23.4883H72.1709V20.9043H69.9492C69.8535 21.3646 69.6553 21.7702 69.3545 22.1211C69.0583 22.472 68.6868 22.7454 68.2402 22.9414C67.7936 23.1328 67.3037 23.2285 66.7705 23.2285C66.1462 23.2285 65.5856 23.1032 65.0889 22.8525C64.5921 22.6019 64.2025 22.2555 63.9199 21.8135C63.6419 21.3669 63.5029 20.8633 63.5029 20.3027C63.5029 19.7467 63.6419 19.2477 63.9199 18.8057C64.2025 18.3636 64.5921 18.0195 65.0889 17.7734C65.5856 17.5273 66.1462 17.4043 66.7705 17.4043ZM64.9521 20.3027C64.9521 20.6263 65.0296 20.9134 65.1846 21.1641C65.3395 21.4147 65.5537 21.6084 65.8271 21.7451C66.1051 21.8773 66.4196 21.9434 66.7705 21.9434C67.1123 21.9434 67.4176 21.8773 67.6865 21.7451C67.96 21.6084 68.1742 21.4147 68.3291 21.1641C68.484 20.9134 68.5615 20.6263 68.5615 20.3027C68.5615 19.9792 68.484 19.6943 68.3291 19.4482C68.1742 19.1976 67.9622 19.0062 67.6934 18.874C67.4245 18.7419 67.1169 18.6758 66.7705 18.6758C66.415 18.6758 66.1006 18.7419 65.8271 18.874C65.5537 19.0062 65.3395 19.1976 65.1846 19.4482C65.0296 19.6943 64.9521 19.9792 64.9521 20.3027ZM65.54 24.0625H67.0439V25.375H72.1709V24.0625H73.6885V29.0664H65.54V24.0625ZM72.1709 27.8359V26.5508H67.0439V27.8359H72.1709ZM85.3506 22.7637H79.3896V17.623H85.3506V22.7637ZM80.1279 28.0137C80.889 27.9499 81.5658 27.804 82.1582 27.5762C82.7552 27.3483 83.2246 27.0749 83.5664 26.7559C83.9128 26.4323 84.1087 26.1042 84.1543 25.7715H80.6338V24.623H84.1885V23.543H85.7197V24.623H89.2881V25.7715H85.7607C85.8063 26.0951 85.9977 26.4163 86.335 26.7354C86.6768 27.0498 87.1416 27.3232 87.7295 27.5557C88.3219 27.7835 88.9964 27.9362 89.7529 28.0137L89.2334 29.1758C88.2536 29.071 87.3923 28.8385 86.6494 28.4785C85.9111 28.1185 85.3483 27.6764 84.9609 27.1523C84.5736 27.681 84.0062 28.123 83.2588 28.4785C82.5114 28.834 81.641 29.0664 80.6475 29.1758L80.1279 28.0137ZM83.8467 21.5742V18.8262H80.8936V21.5742H83.8467ZM87.5244 16.8574H89.0283V23.8984H87.5244V16.8574ZM105.476 27.7266H94.1826V26.4824H99.0635V23.6387H100.581V26.4824H105.476V27.7266ZM94.6748 22.9551C95.4814 22.8229 96.2129 22.5654 96.8691 22.1826C97.5254 21.7952 98.0426 21.3327 98.4209 20.7949C98.7992 20.2526 98.9951 19.6875 99.0088 19.0996H95.126V17.8555H104.505V19.0996H100.608C100.622 19.6875 100.82 20.248 101.203 20.7812C101.586 21.3145 102.11 21.7679 102.775 22.1416C103.445 22.5107 104.195 22.7591 105.024 22.8867L104.423 24.0898C103.375 23.903 102.445 23.5452 101.634 23.0166C100.823 22.4834 100.219 21.8317 99.8223 21.0615C99.4258 21.8408 98.8265 22.5039 98.0244 23.0508C97.2223 23.5931 96.3063 23.9622 95.2764 24.1582L94.6748 22.9551ZM110.972 19.0039C110.972 19.5189 111.088 20.0202 111.32 20.5078C111.557 20.9909 111.901 21.4215 112.353 21.7998C112.808 22.1781 113.355 22.4674 113.993 22.668L113.214 23.8438C112.526 23.6204 111.929 23.29 111.423 22.8525C110.917 22.4105 110.518 21.8887 110.227 21.2871C109.944 21.9388 109.541 22.5062 109.017 22.9893C108.497 23.4723 107.877 23.8346 107.157 24.0762L106.378 22.9004C107.021 22.6816 107.572 22.3717 108.032 21.9707C108.493 21.5651 108.841 21.1071 109.078 20.5967C109.315 20.0817 109.436 19.5508 109.44 19.0039V18.8535H106.774V17.6367H113.569V18.8535H110.972V19.0039ZM108.142 24.8828H116.577V29.2168H115.046V26.1133H108.142V24.8828ZM115.046 16.8574H116.577V24.3086H115.046V16.8574ZM129.661 24.2539H124.89V26.5234H123.386V24.2539H118.368V23.0371H129.661V24.2539ZM119.735 25.3887H121.253V27.7402H128.417V28.9707H119.735V25.3887ZM119.804 17.418H128.212V21.8887H119.804V17.418ZM126.708 20.6992V18.6074H121.28V20.6992H126.708ZM140.257 21.957H141.993V23.2285H140.257V29.2168H138.726V16.8574H140.257V21.957ZM130.331 25.7852C131.68 25.7852 132.733 25.776 133.489 25.7578V24.6025C133.043 24.5251 132.651 24.3838 132.313 24.1787C131.981 23.9736 131.723 23.7161 131.541 23.4062C131.363 23.0964 131.274 22.75 131.274 22.3672C131.274 21.9069 131.4 21.5013 131.65 21.1504C131.901 20.7995 132.252 20.5283 132.703 20.3369C133.159 20.141 133.681 20.043 134.269 20.043C134.852 20.043 135.369 20.141 135.82 20.3369C136.276 20.5283 136.632 20.7995 136.887 21.1504C137.142 21.5013 137.272 21.9069 137.276 22.3672C137.272 22.75 137.176 23.0986 136.989 23.4131C136.802 23.723 136.538 23.9805 136.196 24.1855C135.859 24.3906 135.467 24.5296 135.021 24.6025V25.7031C136.201 25.6393 137.217 25.5482 138.069 25.4297L138.165 26.5371C136.994 26.7513 135.798 26.8903 134.576 26.9541C133.355 27.0133 132.013 27.043 130.55 27.043L130.331 25.7852ZM130.563 18.2793H133.489V16.9121H135.021V18.2793H137.933V19.4824H130.563V18.2793ZM132.71 22.3672C132.705 22.7135 132.842 22.987 133.12 23.1875C133.403 23.388 133.779 23.4883 134.248 23.4883C134.727 23.4883 135.107 23.3903 135.39 23.1943C135.672 22.9984 135.813 22.7227 135.813 22.3672C135.813 22.0117 135.672 21.7314 135.39 21.5264C135.107 21.3167 134.733 21.2096 134.269 21.2051C133.795 21.2096 133.414 21.3167 133.127 21.5264C132.844 21.7314 132.705 22.0117 132.71 22.3672ZM29.5488 39.9766C29.5488 40.487 29.6605 40.9837 29.8838 41.4668C30.1071 41.9453 30.4375 42.376 30.875 42.7588C31.3125 43.137 31.8411 43.431 32.4609 43.6406L31.6953 44.8164C31.0208 44.5977 30.4375 44.2673 29.9453 43.8252C29.4577 43.3831 29.0749 42.8636 28.7969 42.2666C28.5189 42.932 28.1224 43.5085 27.6074 43.9961C27.0924 44.4837 26.4772 44.8483 25.7617 45.0898L24.9824 43.8867C25.6204 43.6771 26.165 43.3695 26.6162 42.9639C27.0719 42.5583 27.416 42.098 27.6484 41.583C27.8854 41.0635 28.0039 40.5326 28.0039 39.9902V39.8262H25.4336V38.6094H32.1055V39.8262H29.5488V39.9766ZM26.9375 45.8145H35.3594V50.2168H33.8418V47.0312H26.9375V45.8145ZM31.7363 40.9199H33.8418V37.8574H35.3594V45.2266H33.8418V42.1641H31.7363V40.9199ZM46.8574 40.9062H48.5801V42.1641H46.8574V45.0762H45.3398V37.8574H46.8574V40.9062ZM37.123 39.0059H40.0352V37.7617H41.5527V39.0059H44.4512V40.2227H37.123V39.0059ZM37.752 42.8203C37.752 42.3874 37.8796 42.0068 38.1348 41.6787C38.39 41.3506 38.7454 41.0977 39.2012 40.9199C39.6615 40.7376 40.1901 40.6465 40.7871 40.6465C41.375 40.6465 41.8968 40.7376 42.3525 40.9199C42.8128 41.0977 43.1706 41.3506 43.4258 41.6787C43.681 42.0068 43.8086 42.3874 43.8086 42.8203C43.8086 43.2533 43.681 43.6338 43.4258 43.9619C43.1706 44.29 42.8128 44.5452 42.3525 44.7275C41.8968 44.9053 41.375 44.9941 40.7871 44.9941C40.1901 44.9941 39.6615 44.9053 39.2012 44.7275C38.7454 44.5498 38.39 44.2969 38.1348 43.9688C37.8796 43.6361 37.752 43.2533 37.752 42.8203ZM38.873 45.5684H40.377V46.6348H45.3398V45.5684H46.8574V50.0664H38.873V45.5684ZM39.2285 42.8203C39.224 43.1484 39.363 43.4059 39.6455 43.5928C39.9326 43.7796 40.3132 43.873 40.7871 43.873C41.2611 43.873 41.6416 43.7796 41.9287 43.5928C42.2158 43.4059 42.3594 43.1484 42.3594 42.8203C42.3594 42.4967 42.2158 42.2415 41.9287 42.0547C41.6416 41.8633 41.2611 41.7676 40.7871 41.7676C40.3132 41.7676 39.9326 41.8633 39.6455 42.0547C39.363 42.2415 39.224 42.4967 39.2285 42.8203ZM45.3398 48.8633V47.8105H40.377V48.8633H45.3398ZM53.7344 39.6348C53.7298 40.2044 53.8369 40.7445 54.0557 41.2549C54.279 41.7607 54.6094 42.2074 55.0469 42.5947C55.4844 42.9775 56.0176 43.2669 56.6465 43.4629L55.8262 44.6523C55.1654 44.4154 54.598 44.0804 54.124 43.6475C53.6501 43.2145 53.2786 42.6995 53.0098 42.1025C52.7318 42.7907 52.333 43.3877 51.8135 43.8936C51.2939 44.3949 50.6673 44.7754 49.9336 45.0352L49.127 43.8047C49.7923 43.5859 50.3551 43.2692 50.8154 42.8545C51.2757 42.4398 51.6198 41.9635 51.8477 41.4258C52.0801 40.8835 52.1986 40.3092 52.2031 39.7031V38.5273H53.7344V39.6348ZM51.1777 47.8379C51.1732 47.3411 51.3395 46.915 51.6768 46.5596C52.014 46.1995 52.4971 45.9261 53.126 45.7393C53.7594 45.5524 54.5091 45.459 55.375 45.459C56.2454 45.459 56.9974 45.5524 57.6309 45.7393C58.2643 45.9261 58.7497 46.1995 59.0869 46.5596C59.4287 46.915 59.5996 47.3411 59.5996 47.8379C59.5996 48.3346 59.4287 48.7607 59.0869 49.1162C58.7497 49.4717 58.2643 49.7406 57.6309 49.9229C56.9974 50.1097 56.2454 50.2031 55.375 50.2031C54.5091 50.2031 53.7594 50.1097 53.126 49.9229C52.4971 49.7406 52.014 49.4717 51.6768 49.1162C51.3395 48.7607 51.1732 48.3346 51.1777 47.8379ZM52.6816 47.8379C52.6771 48.2116 52.9095 48.501 53.3789 48.7061C53.8483 48.9066 54.5137 49.0091 55.375 49.0137C56.2409 49.0091 56.9085 48.9066 57.3779 48.7061C57.8473 48.501 58.082 48.2116 58.082 47.8379C58.082 47.4505 57.8473 47.1543 57.3779 46.9492C56.9131 46.7441 56.2454 46.6393 55.375 46.6348C54.5091 46.6393 53.8415 46.7441 53.3721 46.9492C52.9072 47.1543 52.6771 47.4505 52.6816 47.8379ZM55.5801 40.25H58.041V37.8574H59.5586V45.1309H58.041V41.4941H55.5801V40.25ZM71.9727 50.2168H70.5098V37.8574H71.9727V50.2168ZM61.4316 43.2031C61.4316 42.3053 61.541 41.526 61.7598 40.8652C61.9785 40.1999 62.2884 39.6895 62.6895 39.334C63.0951 38.9785 63.5645 38.8008 64.0977 38.8008C64.5944 38.8008 65.0342 38.9489 65.417 39.2451C65.8044 39.5413 66.1143 39.9674 66.3467 40.5234C66.5837 41.0794 66.7318 41.7402 66.791 42.5059H67.9805V38.0762H69.4297V49.6152H67.9805V43.7363H66.8047C66.7591 44.5339 66.6178 45.2266 66.3809 45.8145C66.1484 46.3978 65.8363 46.8444 65.4443 47.1543C65.0524 47.4642 64.6035 47.6191 64.0977 47.6191C63.5645 47.6191 63.0951 47.4414 62.6895 47.0859C62.2884 46.7305 61.9785 46.2201 61.7598 45.5547C61.541 44.8848 61.4316 44.1009 61.4316 43.2031ZM62.8398 43.2441C62.8398 44.1875 62.9492 44.9121 63.168 45.418C63.3913 45.9238 63.7012 46.1745 64.0977 46.1699C64.5124 46.1745 64.8337 45.9215 65.0615 45.4111C65.2894 44.9007 65.4056 44.1647 65.4102 43.2031C65.4056 42.2461 65.2894 41.5124 65.0615 41.002C64.8337 40.487 64.5124 40.2318 64.0977 40.2363C63.6966 40.2318 63.3867 40.4893 63.168 41.0088C62.9492 41.5283 62.8398 42.2734 62.8398 43.2441ZM87.3672 50.2168H85.918V43.9141H84.5234V49.5879H83.1289V38.0898H84.5234V42.6973H85.918V37.8574H87.3672V50.2168ZM77.1133 39.3203H81.7344V40.5508H78.6445V46.0469C79.36 46.0378 80.0072 46.0104 80.5859 45.9648C81.1647 45.9193 81.7526 45.8418 82.3496 45.7324L82.459 46.9766C81.7708 47.1133 81.0941 47.2044 80.4287 47.25C79.7679 47.2956 78.9408 47.3229 77.9473 47.332H77.1133V39.3203ZM98.5781 41.7539H100.301V43.0117H98.5781V47.0996H97.0605V37.8711H98.5781V41.7539ZM88.8438 39.2383H91.7559V37.8574H93.2734V39.2383H96.1719V40.4551H88.8438V39.2383ZM89.4727 43.3262C89.4727 42.8568 89.6003 42.4443 89.8555 42.0889C90.1107 41.7288 90.4684 41.4508 90.9287 41.2549C91.389 41.0589 91.9154 40.9609 92.5078 40.9609C93.0957 40.9609 93.6175 41.0589 94.0732 41.2549C94.5335 41.4508 94.8913 41.7288 95.1465 42.0889C95.4017 42.4443 95.5293 42.8568 95.5293 43.3262C95.5293 43.791 95.4017 44.2012 95.1465 44.5566C94.8913 44.9076 94.5358 45.181 94.0801 45.377C93.6243 45.5684 93.1003 45.6641 92.5078 45.6641C91.9108 45.6641 91.3822 45.5684 90.9219 45.377C90.4661 45.181 90.1107 44.9076 89.8555 44.5566C89.6003 44.2012 89.4727 43.791 89.4727 43.3262ZM90.6621 46.375H92.1797V48.7402H99.0703V49.9707H90.6621V46.375ZM90.9492 43.3262C90.9447 43.6908 91.0814 43.9756 91.3594 44.1807C91.6419 44.3857 92.0179 44.4883 92.4873 44.4883C92.9704 44.4883 93.3555 44.388 93.6426 44.1875C93.9342 43.9824 94.0801 43.6953 94.0801 43.3262C94.0801 42.957 93.9365 42.6676 93.6494 42.458C93.3623 42.2438 92.9818 42.1367 92.5078 42.1367C92.0339 42.1367 91.6533 42.2438 91.3662 42.458C91.0837 42.6676 90.9447 42.957 90.9492 43.3262ZM114.52 44.2285H113.016V37.8574H114.52V44.2285ZM104.348 43.1211C104.972 42.9388 105.507 42.6722 105.954 42.3213C106.405 41.9704 106.752 41.5693 106.993 41.1182C107.239 40.667 107.376 40.1953 107.403 39.7031H104.744V38.4727H111.539V39.7031H108.948C108.971 40.168 109.103 40.6123 109.345 41.0361C109.586 41.4554 109.93 41.8268 110.377 42.1504C110.824 42.474 111.357 42.7201 111.977 42.8887L111.238 44.0645C110.532 43.8594 109.921 43.5495 109.406 43.1348C108.891 42.7155 108.49 42.221 108.203 41.6514C107.916 42.2848 107.504 42.834 106.966 43.2988C106.433 43.7591 105.792 44.1009 105.045 44.3242L104.348 43.1211ZM106.344 44.748H114.547V47.9336H107.861V48.9316H114.916V50.1074H106.371V46.8262H113.029V45.9102H106.344V44.748ZM127.631 45.2539H122.859V47.5234H121.355V45.2539H116.338V44.0371H127.631V45.2539ZM117.705 46.3887H119.223V48.7402H126.387V49.9707H117.705V46.3887ZM117.773 38.418H126.182V42.8887H117.773V38.418ZM124.678 41.6992V39.6074H119.25V41.6992H124.678ZM138.732 50.2305H137.201V37.8574H138.732V50.2305ZM128.848 43.1211C128.848 42.2507 128.984 41.485 129.258 40.8242C129.531 40.1634 129.912 39.6553 130.399 39.2998C130.892 38.9398 131.45 38.7598 132.074 38.7598C132.689 38.7598 133.241 38.9398 133.729 39.2998C134.221 39.6553 134.606 40.1634 134.884 40.8242C135.162 41.485 135.301 42.2507 135.301 43.1211C135.301 44.0007 135.162 44.7708 134.884 45.4316C134.606 46.0924 134.221 46.6029 133.729 46.9629C133.241 47.3184 132.689 47.4961 132.074 47.4961C131.45 47.4961 130.892 47.3184 130.399 46.9629C129.912 46.6029 129.531 46.0924 129.258 45.4316C128.984 44.7708 128.848 44.0007 128.848 43.1211ZM130.311 43.1211C130.311 43.7454 130.383 44.2832 130.529 44.7344C130.68 45.1855 130.887 45.5296 131.151 45.7666C131.416 46.0036 131.723 46.1243 132.074 46.1289C132.421 46.1243 132.726 46.0036 132.99 45.7666C133.255 45.5296 133.46 45.1855 133.605 44.7344C133.751 44.2832 133.824 43.7454 133.824 43.1211C133.824 42.5013 133.751 41.9681 133.605 41.5215C133.46 41.0703 133.255 40.7262 132.99 40.4893C132.726 40.2477 132.421 40.127 132.074 40.127C131.723 40.127 131.416 40.2477 131.151 40.4893C130.887 40.7262 130.68 41.0703 130.529 41.5215C130.383 41.9681 130.311 42.5013 130.311 43.1211ZM151.215 50.2168H149.752V37.8574H151.215V50.2168ZM140.674 43.2031C140.674 42.3053 140.783 41.526 141.002 40.8652C141.221 40.1999 141.531 39.6895 141.932 39.334C142.337 38.9785 142.807 38.8008 143.34 38.8008C143.837 38.8008 144.276 38.9489 144.659 39.2451C145.047 39.5413 145.356 39.9674 145.589 40.5234C145.826 41.0794 145.974 41.7402 146.033 42.5059H147.223V38.0762H148.672V49.6152H147.223V43.7363H146.047C146.001 44.5339 145.86 45.2266 145.623 45.8145C145.391 46.3978 145.078 46.8444 144.687 47.1543C144.295 47.4642 143.846 47.6191 143.34 47.6191C142.807 47.6191 142.337 47.4414 141.932 47.0859C141.531 46.7305 141.221 46.2201 141.002 45.5547C140.783 44.8848 140.674 44.1009 140.674 43.2031ZM142.082 43.2441C142.082 44.1875 142.191 44.9121 142.41 45.418C142.633 45.9238 142.943 46.1745 143.34 46.1699C143.755 46.1745 144.076 45.9215 144.304 45.4111C144.532 44.9007 144.648 44.1647 144.652 43.2031C144.648 42.2461 144.532 41.5124 144.304 41.002C144.076 40.487 143.755 40.2318 143.34 40.2363C142.939 40.2318 142.629 40.4893 142.41 41.0088C142.191 41.5283 142.082 42.2734 142.082 43.2441ZM163.943 48.7129H152.65V47.4688H155.262V44.3447C154.76 44.0576 154.371 43.6953 154.093 43.2578C153.819 42.8203 153.685 42.3327 153.689 41.7949C153.689 41.1478 153.883 40.5781 154.271 40.0859C154.662 39.5892 155.207 39.2064 155.904 38.9375C156.602 38.6641 157.39 38.5273 158.27 38.5273C159.154 38.5273 159.944 38.6641 160.642 38.9375C161.343 39.2064 161.89 39.5892 162.282 40.0859C162.679 40.5781 162.877 41.1478 162.877 41.7949C162.882 42.3236 162.749 42.8021 162.48 43.2305C162.212 43.6589 161.833 44.0189 161.346 44.3105V47.4688H163.943V48.7129ZM155.18 41.7949C155.18 42.2096 155.307 42.5742 155.562 42.8887C155.822 43.1986 156.185 43.4378 156.649 43.6064C157.119 43.7751 157.659 43.8594 158.27 43.8594C158.88 43.8594 159.42 43.7751 159.89 43.6064C160.364 43.4378 160.73 43.1986 160.99 42.8887C161.255 42.5742 161.387 42.2096 161.387 41.7949C161.387 41.3757 161.255 41.0088 160.99 40.6943C160.73 40.3799 160.364 40.1406 159.89 39.9766C159.42 39.8125 158.88 39.7305 158.27 39.7305C157.654 39.7305 157.112 39.8125 156.643 39.9766C156.178 40.1406 155.818 40.3799 155.562 40.6943C155.307 41.0042 155.18 41.3711 155.18 41.7949ZM159.801 47.4688V44.8916C159.318 44.9964 158.807 45.0488 158.27 45.0488C157.755 45.0488 157.253 44.9987 156.766 44.8984V47.4688H159.801ZM167.143 46.0879H165.598L165.434 39.1016H167.293L167.143 46.0879ZM165.311 48.043C165.311 47.8561 165.358 47.6829 165.454 47.5234C165.55 47.3594 165.68 47.2295 165.844 47.1338C166.008 47.0381 166.186 46.9902 166.377 46.9902C166.564 46.9902 166.737 47.0381 166.896 47.1338C167.061 47.2295 167.19 47.3594 167.286 47.5234C167.382 47.6829 167.43 47.8561 167.43 48.043C167.43 48.2344 167.382 48.4121 167.286 48.5762C167.19 48.7402 167.061 48.8701 166.896 48.9658C166.737 49.0615 166.564 49.1094 166.377 49.1094C166.186 49.1094 166.008 49.0615 165.844 48.9658C165.68 48.8701 165.55 48.7402 165.454 48.5762C165.358 48.4121 165.311 48.2344 165.311 48.043Z" fill="#576DFC"/>
<path d="M95.7474 73.1399C96.1458 73.5952 96.8542 73.5952 97.2526 73.1399L103.5 66H89.5L95.7474 73.1399Z" fill="#E4E8FF"/>
</svg>
