<svg width="192" height="74" viewBox="0 0 192 74" fill="none" xmlns="http://www.w3.org/2000/svg">
<path d="M0 20C0 8.95431 8.9543 0 20 0H172C183.046 0 192 8.95431 192 20V46C192 57.0457 183.046 66 172 66H20C8.95431 66 0 57.0457 0 46V20Z" fill="#E4E8FF"/>
<path d="M61.0615 29.2168H59.5303V16.8574H61.0615V29.2168ZM50.8213 25.8125C52.4163 25.056 53.6126 24.1514 54.4102 23.0986C55.2122 22.0459 55.6839 20.804 55.8252 19.373H51.4502V18.1699H57.3701C57.3701 20.1341 56.9258 21.8568 56.0371 23.3379C55.1484 24.819 53.6742 26.0495 51.6143 27.0293L50.8213 25.8125ZM66.2705 17.4043C66.7992 17.4043 67.2845 17.5 67.7266 17.6914C68.1686 17.8783 68.5378 18.1449 68.834 18.4912C69.1348 18.833 69.3353 19.2272 69.4355 19.6738H71.6709V16.8574H73.1885V23.4883H71.6709V20.9043H69.4492C69.3535 21.3646 69.1553 21.7702 68.8545 22.1211C68.5583 22.472 68.1868 22.7454 67.7402 22.9414C67.2936 23.1328 66.8037 23.2285 66.2705 23.2285C65.6462 23.2285 65.0856 23.1032 64.5889 22.8525C64.0921 22.6019 63.7025 22.2555 63.4199 21.8135C63.1419 21.3669 63.0029 20.8633 63.0029 20.3027C63.0029 19.7467 63.1419 19.2477 63.4199 18.8057C63.7025 18.3636 64.0921 18.0195 64.5889 17.7734C65.0856 17.5273 65.6462 17.4043 66.2705 17.4043ZM64.4521 20.3027C64.4521 20.6263 64.5296 20.9134 64.6846 21.1641C64.8395 21.4147 65.0537 21.6084 65.3271 21.7451C65.6051 21.8773 65.9196 21.9434 66.2705 21.9434C66.6123 21.9434 66.9176 21.8773 67.1865 21.7451C67.46 21.6084 67.6742 21.4147 67.8291 21.1641C67.984 20.9134 68.0615 20.6263 68.0615 20.3027C68.0615 19.9792 67.984 19.6943 67.8291 19.4482C67.6742 19.1976 67.4622 19.0062 67.1934 18.874C66.9245 18.7419 66.6169 18.6758 66.2705 18.6758C65.915 18.6758 65.6006 18.7419 65.3271 18.874C65.0537 19.0062 64.8395 19.1976 64.6846 19.4482C64.5296 19.6943 64.4521 19.9792 64.4521 20.3027ZM65.04 24.0625H66.5439V25.375H71.6709V24.0625H73.1885V29.0664H65.04V24.0625ZM71.6709 27.8359V26.5508H66.5439V27.8359H71.6709ZM84.8506 22.7637H78.8896V17.623H84.8506V22.7637ZM79.6279 28.0137C80.389 27.9499 81.0658 27.804 81.6582 27.5762C82.2552 27.3483 82.7246 27.0749 83.0664 26.7559C83.4128 26.4323 83.6087 26.1042 83.6543 25.7715H80.1338V24.623H83.6885V23.543H85.2197V24.623H88.7881V25.7715H85.2607C85.3063 26.0951 85.4977 26.4163 85.835 26.7354C86.1768 27.0498 86.6416 27.3232 87.2295 27.5557C87.8219 27.7835 88.4964 27.9362 89.2529 28.0137L88.7334 29.1758C87.7536 29.071 86.8923 28.8385 86.1494 28.4785C85.4111 28.1185 84.8483 27.6764 84.4609 27.1523C84.0736 27.681 83.5062 28.123 82.7588 28.4785C82.0114 28.834 81.141 29.0664 80.1475 29.1758L79.6279 28.0137ZM83.3467 21.5742V18.8262H80.3936V21.5742H83.3467ZM87.0244 16.8574H88.5283V23.8984H87.0244V16.8574ZM104.976 27.7266H93.6826V26.4824H98.5635V23.6387H100.081V26.4824H104.976V27.7266ZM94.1748 22.9551C94.9814 22.8229 95.7129 22.5654 96.3691 22.1826C97.0254 21.7952 97.5426 21.3327 97.9209 20.7949C98.2992 20.2526 98.4951 19.6875 98.5088 19.0996H94.626V17.8555H104.005V19.0996H100.108C100.122 19.6875 100.32 20.248 100.703 20.7812C101.086 21.3145 101.61 21.7679 102.275 22.1416C102.945 22.5107 103.695 22.7591 104.524 22.8867L103.923 24.0898C102.875 23.903 101.945 23.5452 101.134 23.0166C100.323 22.4834 99.7188 21.8317 99.3223 21.0615C98.9258 21.8408 98.3265 22.5039 97.5244 23.0508C96.7223 23.5931 95.8063 23.9622 94.7764 24.1582L94.1748 22.9551ZM110.472 19.0039C110.472 19.5189 110.588 20.0202 110.82 20.5078C111.057 20.9909 111.401 21.4215 111.853 21.7998C112.308 22.1781 112.855 22.4674 113.493 22.668L112.714 23.8438C112.026 23.6204 111.429 23.29 110.923 22.8525C110.417 22.4105 110.018 21.8887 109.727 21.2871C109.444 21.9388 109.041 22.5062 108.517 22.9893C107.997 23.4723 107.377 23.8346 106.657 24.0762L105.878 22.9004C106.521 22.6816 107.072 22.3717 107.532 21.9707C107.993 21.5651 108.341 21.1071 108.578 20.5967C108.815 20.0817 108.936 19.5508 108.94 19.0039V18.8535H106.274V17.6367H113.069V18.8535H110.472V19.0039ZM107.642 24.8828H116.077V29.2168H114.546V26.1133H107.642V24.8828ZM114.546 16.8574H116.077V24.3086H114.546V16.8574ZM129.161 24.2539H124.39V26.5234H122.886V24.2539H117.868V23.0371H129.161V24.2539ZM119.235 25.3887H120.753V27.7402H127.917V28.9707H119.235V25.3887ZM119.304 17.418H127.712V21.8887H119.304V17.418ZM126.208 20.6992V18.6074H120.78V20.6992H126.208ZM139.757 21.957H141.493V23.2285H139.757V29.2168H138.226V16.8574H139.757V21.957ZM129.831 25.7852C131.18 25.7852 132.233 25.776 132.989 25.7578V24.6025C132.543 24.5251 132.151 24.3838 131.813 24.1787C131.481 23.9736 131.223 23.7161 131.041 23.4062C130.863 23.0964 130.774 22.75 130.774 22.3672C130.774 21.9069 130.9 21.5013 131.15 21.1504C131.401 20.7995 131.752 20.5283 132.203 20.3369C132.659 20.141 133.181 20.043 133.769 20.043C134.352 20.043 134.869 20.141 135.32 20.3369C135.776 20.5283 136.132 20.7995 136.387 21.1504C136.642 21.5013 136.772 21.9069 136.776 22.3672C136.772 22.75 136.676 23.0986 136.489 23.4131C136.302 23.723 136.038 23.9805 135.696 24.1855C135.359 24.3906 134.967 24.5296 134.521 24.6025V25.7031C135.701 25.6393 136.717 25.5482 137.569 25.4297L137.665 26.5371C136.494 26.7513 135.298 26.8903 134.076 26.9541C132.855 27.0133 131.513 27.043 130.05 27.043L129.831 25.7852ZM130.063 18.2793H132.989V16.9121H134.521V18.2793H137.433V19.4824H130.063V18.2793ZM132.21 22.3672C132.205 22.7135 132.342 22.987 132.62 23.1875C132.903 23.388 133.279 23.4883 133.748 23.4883C134.227 23.4883 134.607 23.3903 134.89 23.1943C135.172 22.9984 135.313 22.7227 135.313 22.3672C135.313 22.0117 135.172 21.7314 134.89 21.5264C134.607 21.3167 134.233 21.2096 133.769 21.2051C133.295 21.2096 132.914 21.3167 132.627 21.5264C132.344 21.7314 132.205 22.0117 132.21 22.3672ZM29.0488 39.9766C29.0488 40.487 29.1605 40.9837 29.3838 41.4668C29.6071 41.9453 29.9375 42.376 30.375 42.7588C30.8125 43.137 31.3411 43.431 31.9609 43.6406L31.1953 44.8164C30.5208 44.5977 29.9375 44.2673 29.4453 43.8252C28.9577 43.3831 28.5749 42.8636 28.2969 42.2666C28.0189 42.932 27.6224 43.5085 27.1074 43.9961C26.5924 44.4837 25.9772 44.8483 25.2617 45.0898L24.4824 43.8867C25.1204 43.6771 25.665 43.3695 26.1162 42.9639C26.5719 42.5583 26.916 42.098 27.1484 41.583C27.3854 41.0635 27.5039 40.5326 27.5039 39.9902V39.8262H24.9336V38.6094H31.6055V39.8262H29.0488V39.9766ZM26.4375 45.8145H34.8594V50.2168H33.3418V47.0312H26.4375V45.8145ZM31.2363 40.9199H33.3418V37.8574H34.8594V45.2266H33.3418V42.1641H31.2363V40.9199ZM46.3574 40.9062H48.0801V42.1641H46.3574V45.0762H44.8398V37.8574H46.3574V40.9062ZM36.623 39.0059H39.5352V37.7617H41.0527V39.0059H43.9512V40.2227H36.623V39.0059ZM37.252 42.8203C37.252 42.3874 37.3796 42.0068 37.6348 41.6787C37.89 41.3506 38.2454 41.0977 38.7012 40.9199C39.1615 40.7376 39.6901 40.6465 40.2871 40.6465C40.875 40.6465 41.3968 40.7376 41.8525 40.9199C42.3128 41.0977 42.6706 41.3506 42.9258 41.6787C43.181 42.0068 43.3086 42.3874 43.3086 42.8203C43.3086 43.2533 43.181 43.6338 42.9258 43.9619C42.6706 44.29 42.3128 44.5452 41.8525 44.7275C41.3968 44.9053 40.875 44.9941 40.2871 44.9941C39.6901 44.9941 39.1615 44.9053 38.7012 44.7275C38.2454 44.5498 37.89 44.2969 37.6348 43.9688C37.3796 43.6361 37.252 43.2533 37.252 42.8203ZM38.373 45.5684H39.877V46.6348H44.8398V45.5684H46.3574V50.0664H38.373V45.5684ZM38.7285 42.8203C38.724 43.1484 38.863 43.4059 39.1455 43.5928C39.4326 43.7796 39.8132 43.873 40.2871 43.873C40.7611 43.873 41.1416 43.7796 41.4287 43.5928C41.7158 43.4059 41.8594 43.1484 41.8594 42.8203C41.8594 42.4967 41.7158 42.2415 41.4287 42.0547C41.1416 41.8633 40.7611 41.7676 40.2871 41.7676C39.8132 41.7676 39.4326 41.8633 39.1455 42.0547C38.863 42.2415 38.724 42.4967 38.7285 42.8203ZM44.8398 48.8633V47.8105H39.877V48.8633H44.8398ZM53.2344 39.6348C53.2298 40.2044 53.3369 40.7445 53.5557 41.2549C53.779 41.7607 54.1094 42.2074 54.5469 42.5947C54.9844 42.9775 55.5176 43.2669 56.1465 43.4629L55.3262 44.6523C54.6654 44.4154 54.098 44.0804 53.624 43.6475C53.1501 43.2145 52.7786 42.6995 52.5098 42.1025C52.2318 42.7907 51.833 43.3877 51.3135 43.8936C50.7939 44.3949 50.1673 44.7754 49.4336 45.0352L48.627 43.8047C49.2923 43.5859 49.8551 43.2692 50.3154 42.8545C50.7757 42.4398 51.1198 41.9635 51.3477 41.4258C51.5801 40.8835 51.6986 40.3092 51.7031 39.7031V38.5273H53.2344V39.6348ZM50.6777 47.8379C50.6732 47.3411 50.8395 46.915 51.1768 46.5596C51.514 46.1995 51.9971 45.9261 52.626 45.7393C53.2594 45.5524 54.0091 45.459 54.875 45.459C55.7454 45.459 56.4974 45.5524 57.1309 45.7393C57.7643 45.9261 58.2497 46.1995 58.5869 46.5596C58.9287 46.915 59.0996 47.3411 59.0996 47.8379C59.0996 48.3346 58.9287 48.7607 58.5869 49.1162C58.2497 49.4717 57.7643 49.7406 57.1309 49.9229C56.4974 50.1097 55.7454 50.2031 54.875 50.2031C54.0091 50.2031 53.2594 50.1097 52.626 49.9229C51.9971 49.7406 51.514 49.4717 51.1768 49.1162C50.8395 48.7607 50.6732 48.3346 50.6777 47.8379ZM52.1816 47.8379C52.1771 48.2116 52.4095 48.501 52.8789 48.7061C53.3483 48.9066 54.0137 49.0091 54.875 49.0137C55.7409 49.0091 56.4085 48.9066 56.8779 48.7061C57.3473 48.501 57.582 48.2116 57.582 47.8379C57.582 47.4505 57.3473 47.1543 56.8779 46.9492C56.4131 46.7441 55.7454 46.6393 54.875 46.6348C54.0091 46.6393 53.3415 46.7441 52.8721 46.9492C52.4072 47.1543 52.1771 47.4505 52.1816 47.8379ZM55.0801 40.25H57.541V37.8574H59.0586V45.1309H57.541V41.4941H55.0801V40.25ZM71.4727 50.2168H70.0098V37.8574H71.4727V50.2168ZM60.9316 43.2031C60.9316 42.3053 61.041 41.526 61.2598 40.8652C61.4785 40.1999 61.7884 39.6895 62.1895 39.334C62.5951 38.9785 63.0645 38.8008 63.5977 38.8008C64.0944 38.8008 64.5342 38.9489 64.917 39.2451C65.3044 39.5413 65.6143 39.9674 65.8467 40.5234C66.0837 41.0794 66.2318 41.7402 66.291 42.5059H67.4805V38.0762H68.9297V49.6152H67.4805V43.7363H66.3047C66.2591 44.5339 66.1178 45.2266 65.8809 45.8145C65.6484 46.3978 65.3363 46.8444 64.9443 47.1543C64.5524 47.4642 64.1035 47.6191 63.5977 47.6191C63.0645 47.6191 62.5951 47.4414 62.1895 47.0859C61.7884 46.7305 61.4785 46.2201 61.2598 45.5547C61.041 44.8848 60.9316 44.1009 60.9316 43.2031ZM62.3398 43.2441C62.3398 44.1875 62.4492 44.9121 62.668 45.418C62.8913 45.9238 63.2012 46.1745 63.5977 46.1699C64.0124 46.1745 64.3337 45.9215 64.5615 45.4111C64.7894 44.9007 64.9056 44.1647 64.9102 43.2031C64.9056 42.2461 64.7894 41.5124 64.5615 41.002C64.3337 40.487 64.0124 40.2318 63.5977 40.2363C63.1966 40.2318 62.8867 40.4893 62.668 41.0088C62.4492 41.5283 62.3398 42.2734 62.3398 43.2441ZM86.8672 50.2168H85.418V43.9141H84.0234V49.5879H82.6289V38.0898H84.0234V42.6973H85.418V37.8574H86.8672V50.2168ZM76.6133 39.3203H81.2344V40.5508H78.1445V46.0469C78.86 46.0378 79.5072 46.0104 80.0859 45.9648C80.6647 45.9193 81.2526 45.8418 81.8496 45.7324L81.959 46.9766C81.2708 47.1133 80.5941 47.2044 79.9287 47.25C79.2679 47.2956 78.4408 47.3229 77.4473 47.332H76.6133V39.3203ZM98.0781 41.7539H99.8008V43.0117H98.0781V47.0996H96.5605V37.8711H98.0781V41.7539ZM88.3438 39.2383H91.2559V37.8574H92.7734V39.2383H95.6719V40.4551H88.3438V39.2383ZM88.9727 43.3262C88.9727 42.8568 89.1003 42.4443 89.3555 42.0889C89.6107 41.7288 89.9684 41.4508 90.4287 41.2549C90.889 41.0589 91.4154 40.9609 92.0078 40.9609C92.5957 40.9609 93.1175 41.0589 93.5732 41.2549C94.0335 41.4508 94.3913 41.7288 94.6465 42.0889C94.9017 42.4443 95.0293 42.8568 95.0293 43.3262C95.0293 43.791 94.9017 44.2012 94.6465 44.5566C94.3913 44.9076 94.0358 45.181 93.5801 45.377C93.1243 45.5684 92.6003 45.6641 92.0078 45.6641C91.4108 45.6641 90.8822 45.5684 90.4219 45.377C89.9661 45.181 89.6107 44.9076 89.3555 44.5566C89.1003 44.2012 88.9727 43.791 88.9727 43.3262ZM90.1621 46.375H91.6797V48.7402H98.5703V49.9707H90.1621V46.375ZM90.4492 43.3262C90.4447 43.6908 90.5814 43.9756 90.8594 44.1807C91.1419 44.3857 91.5179 44.4883 91.9873 44.4883C92.4704 44.4883 92.8555 44.388 93.1426 44.1875C93.4342 43.9824 93.5801 43.6953 93.5801 43.3262C93.5801 42.957 93.4365 42.6676 93.1494 42.458C92.8623 42.2438 92.4818 42.1367 92.0078 42.1367C91.5339 42.1367 91.1533 42.2438 90.8662 42.458C90.5837 42.6676 90.4447 42.957 90.4492 43.3262ZM114.02 44.2285H112.516V37.8574H114.02V44.2285ZM103.848 43.1211C104.472 42.9388 105.007 42.6722 105.454 42.3213C105.905 41.9704 106.252 41.5693 106.493 41.1182C106.739 40.667 106.876 40.1953 106.903 39.7031H104.244V38.4727H111.039V39.7031H108.448C108.471 40.168 108.603 40.6123 108.845 41.0361C109.086 41.4554 109.43 41.8268 109.877 42.1504C110.324 42.474 110.857 42.7201 111.477 42.8887L110.738 44.0645C110.032 43.8594 109.421 43.5495 108.906 43.1348C108.391 42.7155 107.99 42.221 107.703 41.6514C107.416 42.2848 107.004 42.834 106.466 43.2988C105.933 43.7591 105.292 44.1009 104.545 44.3242L103.848 43.1211ZM105.844 44.748H114.047V47.9336H107.361V48.9316H114.416V50.1074H105.871V46.8262H112.529V45.9102H105.844V44.748ZM127.131 45.2539H122.359V47.5234H120.855V45.2539H115.838V44.0371H127.131V45.2539ZM117.205 46.3887H118.723V48.7402H125.887V49.9707H117.205V46.3887ZM117.273 38.418H125.682V42.8887H117.273V38.418ZM124.178 41.6992V39.6074H118.75V41.6992H124.178ZM138.232 50.2305H136.701V37.8574H138.232V50.2305ZM128.348 43.1211C128.348 42.2507 128.484 41.485 128.758 40.8242C129.031 40.1634 129.412 39.6553 129.899 39.2998C130.392 38.9398 130.95 38.7598 131.574 38.7598C132.189 38.7598 132.741 38.9398 133.229 39.2998C133.721 39.6553 134.106 40.1634 134.384 40.8242C134.662 41.485 134.801 42.2507 134.801 43.1211C134.801 44.0007 134.662 44.7708 134.384 45.4316C134.106 46.0924 133.721 46.6029 133.229 46.9629C132.741 47.3184 132.189 47.4961 131.574 47.4961C130.95 47.4961 130.392 47.3184 129.899 46.9629C129.412 46.6029 129.031 46.0924 128.758 45.4316C128.484 44.7708 128.348 44.0007 128.348 43.1211ZM129.811 43.1211C129.811 43.7454 129.883 44.2832 130.029 44.7344C130.18 45.1855 130.387 45.5296 130.651 45.7666C130.916 46.0036 131.223 46.1243 131.574 46.1289C131.921 46.1243 132.226 46.0036 132.49 45.7666C132.755 45.5296 132.96 45.1855 133.105 44.7344C133.251 44.2832 133.324 43.7454 133.324 43.1211C133.324 42.5013 133.251 41.9681 133.105 41.5215C132.96 41.0703 132.755 40.7262 132.49 40.4893C132.226 40.2477 131.921 40.127 131.574 40.127C131.223 40.127 130.916 40.2477 130.651 40.4893C130.387 40.7262 130.18 41.0703 130.029 41.5215C129.883 41.9681 129.811 42.5013 129.811 43.1211ZM150.715 50.2168H149.252V37.8574H150.715V50.2168ZM140.174 43.2031C140.174 42.3053 140.283 41.526 140.502 40.8652C140.721 40.1999 141.031 39.6895 141.432 39.334C141.837 38.9785 142.307 38.8008 142.84 38.8008C143.337 38.8008 143.776 38.9489 144.159 39.2451C144.547 39.5413 144.856 39.9674 145.089 40.5234C145.326 41.0794 145.474 41.7402 145.533 42.5059H146.723V38.0762H148.172V49.6152H146.723V43.7363H145.547C145.501 44.5339 145.36 45.2266 145.123 45.8145C144.891 46.3978 144.578 46.8444 144.187 47.1543C143.795 47.4642 143.346 47.6191 142.84 47.6191C142.307 47.6191 141.837 47.4414 141.432 47.0859C141.031 46.7305 140.721 46.2201 140.502 45.5547C140.283 44.8848 140.174 44.1009 140.174 43.2031ZM141.582 43.2441C141.582 44.1875 141.691 44.9121 141.91 45.418C142.133 45.9238 142.443 46.1745 142.84 46.1699C143.255 46.1745 143.576 45.9215 143.804 45.4111C144.032 44.9007 144.148 44.1647 144.152 43.2031C144.148 42.2461 144.032 41.5124 143.804 41.002C143.576 40.487 143.255 40.2318 142.84 40.2363C142.439 40.2318 142.129 40.4893 141.91 41.0088C141.691 41.5283 141.582 42.2734 141.582 43.2441ZM163.443 48.7129H152.15V47.4688H154.762V44.3447C154.26 44.0576 153.871 43.6953 153.593 43.2578C153.319 42.8203 153.185 42.3327 153.189 41.7949C153.189 41.1478 153.383 40.5781 153.771 40.0859C154.162 39.5892 154.707 39.2064 155.404 38.9375C156.102 38.6641 156.89 38.5273 157.77 38.5273C158.654 38.5273 159.444 38.6641 160.142 38.9375C160.843 39.2064 161.39 39.5892 161.782 40.0859C162.179 40.5781 162.377 41.1478 162.377 41.7949C162.382 42.3236 162.249 42.8021 161.98 43.2305C161.712 43.6589 161.333 44.0189 160.846 44.3105V47.4688H163.443V48.7129ZM154.68 41.7949C154.68 42.2096 154.807 42.5742 155.062 42.8887C155.322 43.1986 155.685 43.4378 156.149 43.6064C156.619 43.7751 157.159 43.8594 157.77 43.8594C158.38 43.8594 158.92 43.7751 159.39 43.6064C159.864 43.4378 160.23 43.1986 160.49 42.8887C160.755 42.5742 160.887 42.2096 160.887 41.7949C160.887 41.3757 160.755 41.0088 160.49 40.6943C160.23 40.3799 159.864 40.1406 159.39 39.9766C158.92 39.8125 158.38 39.7305 157.77 39.7305C157.154 39.7305 156.612 39.8125 156.143 39.9766C155.678 40.1406 155.318 40.3799 155.062 40.6943C154.807 41.0042 154.68 41.3711 154.68 41.7949ZM159.301 47.4688V44.8916C158.818 44.9964 158.307 45.0488 157.77 45.0488C157.255 45.0488 156.753 44.9987 156.266 44.8984V47.4688H159.301ZM166.643 46.0879H165.098L164.934 39.1016H166.793L166.643 46.0879ZM164.811 48.043C164.811 47.8561 164.858 47.6829 164.954 47.5234C165.05 47.3594 165.18 47.2295 165.344 47.1338C165.508 47.0381 165.686 46.9902 165.877 46.9902C166.064 46.9902 166.237 47.0381 166.396 47.1338C166.561 47.2295 166.69 47.3594 166.786 47.5234C166.882 47.6829 166.93 47.8561 166.93 48.043C166.93 48.2344 166.882 48.4121 166.786 48.5762C166.69 48.7402 166.561 48.8701 166.396 48.9658C166.237 49.0615 166.064 49.1094 165.877 49.1094C165.686 49.1094 165.508 49.0615 165.344 48.9658C165.18 48.8701 165.05 48.7402 164.954 48.5762C164.858 48.4121 164.811 48.2344 164.811 48.043Z" fill="#576DFC"/>
<path d="M95.2474 73.1399C95.6458 73.5952 96.3542 73.5952 96.7526 73.1399L103 66H89L95.2474 73.1399Z" fill="#E4E8FF"/>
</svg>
