<svg width="156" height="74" viewBox="0 0 156 74" fill="none" xmlns="http://www.w3.org/2000/svg">
<path d="M0 20C0 8.95431 8.95431 0 20 0H136C147.046 0 156 8.95431 156 20V46C156 57.0457 147.046 66 136 66H20C8.9543 66 0 57.0457 0 46V20Z" fill="#E4E8FF"/>
<path d="M43.2803 17.7598C43.9001 17.7598 44.4515 17.9398 44.9346 18.2998C45.4176 18.6553 45.7959 19.1634 46.0693 19.8242C46.3473 20.4805 46.4886 21.2461 46.4932 22.1211C46.4886 23.0007 46.3473 23.7708 46.0693 24.4316C45.7959 25.0924 45.4176 25.6029 44.9346 25.9629C44.4515 26.3184 43.9001 26.4961 43.2803 26.4961C42.6559 26.4961 42.0999 26.3184 41.6123 25.9629C41.1247 25.6029 40.7441 25.0924 40.4707 24.4316C40.2018 23.7708 40.0674 23.0007 40.0674 22.1211C40.0674 21.2461 40.2018 20.4805 40.4707 19.8242C40.7441 19.1634 41.1247 18.6553 41.6123 18.2998C42.0999 17.9398 42.6559 17.7598 43.2803 17.7598ZM41.5303 22.1211C41.5303 22.7409 41.6032 23.2786 41.749 23.7344C41.8949 24.1855 42.0999 24.5296 42.3643 24.7666C42.6286 25.0036 42.9339 25.1243 43.2803 25.1289C43.6312 25.1243 43.9365 25.0036 44.1963 24.7666C44.4606 24.5296 44.6657 24.1855 44.8115 23.7344C44.9574 23.2832 45.0303 22.7454 45.0303 22.1211C45.0303 21.5013 44.9574 20.9658 44.8115 20.5146C44.6657 20.0635 44.4606 19.7194 44.1963 19.4824C43.932 19.2454 43.6266 19.127 43.2803 19.127C42.9339 19.127 42.6286 19.2477 42.3643 19.4893C42.0999 19.7262 41.8949 20.0703 41.749 20.5215C41.6032 20.9681 41.5303 21.5013 41.5303 22.1211ZM48.1201 16.8574H49.6377V19.8105H51.4697V21.082H49.6377V23.4609H51.4697V24.7051H49.6377V29.2168H48.1201V16.8574ZM62.7764 19.7422H52.5635V18.5117H56.9248V17.0215H58.4287V18.5117H62.7764V19.7422ZM52.0576 26.6602H56.9248V25.1426C56.2139 25.0879 55.6009 24.958 55.0859 24.7529C54.5755 24.5479 54.1836 24.2767 53.9102 23.9395C53.6413 23.5977 53.5068 23.2012 53.5068 22.75C53.5068 22.2578 53.6732 21.834 54.0059 21.4785C54.3431 21.1185 54.8239 20.8451 55.4482 20.6582C56.0771 20.4668 56.82 20.3711 57.6768 20.3711C58.5199 20.3711 59.2536 20.4668 59.8779 20.6582C60.5068 20.8451 60.9899 21.1185 61.3271 21.4785C61.6644 21.834 61.833 22.2578 61.833 22.75C61.833 23.1966 61.6963 23.5908 61.4229 23.9326C61.1494 24.2699 60.7575 24.541 60.2471 24.7461C59.7367 24.9512 59.1305 25.0833 58.4287 25.1426V26.6602H63.3506V27.8906H52.0576V26.6602ZM55.0654 22.75C55.0609 23.1419 55.2819 23.4404 55.7285 23.6455C56.1797 23.846 56.8291 23.9486 57.6768 23.9531C58.5107 23.9486 59.151 23.846 59.5977 23.6455C60.0488 23.4404 60.2744 23.1419 60.2744 22.75C60.2744 22.3626 60.0488 22.0687 59.5977 21.8682C59.151 21.6676 58.5107 21.5651 57.6768 21.5605C56.8291 21.5651 56.1797 21.6676 55.7285 21.8682C55.2819 22.0687 55.0609 22.3626 55.0654 22.75ZM64.7451 25.2383C64.7314 24.6686 64.8089 24.1878 64.9775 23.7959C65.1507 23.3994 65.39 23.1032 65.6953 22.9072C66.0052 22.7113 66.363 22.6133 66.7686 22.6133C67.083 22.6133 67.377 22.6771 67.6504 22.8047C67.9238 22.9323 68.2406 23.151 68.6006 23.4609C68.8285 23.6615 69.0039 23.8005 69.127 23.8779C69.2546 23.9508 69.3981 23.9896 69.5576 23.9941C69.8128 23.9896 70.0133 23.8916 70.1592 23.7002C70.3096 23.5042 70.3825 23.2194 70.3779 22.8457H71.7725C71.7861 23.4108 71.7064 23.8916 71.5332 24.2881C71.3646 24.68 71.1253 24.9762 70.8154 25.1768C70.5055 25.3727 70.1501 25.4707 69.749 25.4707C69.43 25.4707 69.1315 25.4046 68.8535 25.2725C68.5801 25.1403 68.2679 24.9193 67.917 24.6094C67.6663 24.3997 67.4818 24.2607 67.3633 24.1924C67.2493 24.124 67.1149 24.0898 66.96 24.0898C66.7048 24.0898 66.502 24.1833 66.3516 24.3701C66.2057 24.557 66.1351 24.8464 66.1396 25.2383H64.7451ZM75.5732 25.0879H74.0283L73.8643 18.1016H75.7236L75.5732 25.0879ZM73.7412 27.043C73.7412 26.8561 73.7891 26.6829 73.8848 26.5234C73.9805 26.3594 74.1104 26.2295 74.2744 26.1338C74.4385 26.0381 74.6162 25.9902 74.8076 25.9902C74.9945 25.9902 75.1676 26.0381 75.3271 26.1338C75.4912 26.2295 75.6211 26.3594 75.7168 26.5234C75.8125 26.6829 75.8604 26.8561 75.8604 27.043C75.8604 27.2344 75.8125 27.4121 75.7168 27.5762C75.6211 27.7402 75.4912 27.8701 75.3271 27.9658C75.1676 28.0615 74.9945 28.1094 74.8076 28.1094C74.6162 28.1094 74.4385 28.0615 74.2744 27.9658C74.1104 27.8701 73.9805 27.7402 73.8848 27.5762C73.7891 27.4121 73.7412 27.2344 73.7412 27.043ZM90.5986 23.8711H81.9307V17.9375H90.5029V19.168H83.4346V22.6543H90.5986V23.8711ZM80.5635 26.3867H91.8564V27.6445H80.5635V26.3867ZM102.944 29.2305H101.413V16.8574H102.944V29.2305ZM93.4287 17.9785H99.3896V19.2227H94.96V24.9648C96.1813 24.9557 97.1816 24.9284 97.9609 24.8828C98.7448 24.8327 99.5264 24.737 100.306 24.5957L100.456 25.8535C99.6084 26.0085 98.7471 26.1133 97.8721 26.168C96.9971 26.2227 95.8669 26.25 94.4814 26.25H93.4287V17.9785ZM108.14 17.7598C108.691 17.7598 109.19 17.9079 109.637 18.2041C110.083 18.5003 110.448 18.9242 110.73 19.4756C111.013 20.0225 111.191 20.6673 111.264 21.4102H113.622V16.8574H115.126V29.2305H113.622V22.6406H111.277C111.223 23.4245 111.056 24.1081 110.778 24.6914C110.5 25.2702 110.133 25.7168 109.678 26.0312C109.222 26.3411 108.709 26.4961 108.14 26.4961C107.52 26.4961 106.968 26.3184 106.485 25.9629C106.007 25.6029 105.633 25.0924 105.364 24.4316C105.1 23.7708 104.968 23.0007 104.968 22.1211C104.968 21.2461 105.1 20.4805 105.364 19.8242C105.633 19.1634 106.009 18.6553 106.492 18.2998C106.975 17.9398 107.524 17.7598 108.14 17.7598ZM106.431 22.1211C106.431 22.7454 106.501 23.2832 106.643 23.7344C106.784 24.1855 106.982 24.5296 107.237 24.7666C107.497 25.0036 107.798 25.1243 108.14 25.1289C108.481 25.1243 108.782 25.0036 109.042 24.7666C109.302 24.5296 109.502 24.1855 109.644 23.7344C109.789 23.2832 109.862 22.7454 109.862 22.1211C109.862 21.5013 109.789 20.9658 109.644 20.5146C109.502 20.0635 109.302 19.7194 109.042 19.4824C108.782 19.2454 108.481 19.127 108.14 19.127C107.798 19.127 107.497 19.2477 107.237 19.4893C106.982 19.7262 106.784 20.0703 106.643 20.5215C106.501 20.9681 106.431 21.5013 106.431 22.1211ZM30.9482 47.1543H25.0967V39.0605H30.9482V47.1543ZM29.4307 45.9375V40.25H26.5869V45.9375H29.4307ZM32.8213 37.8574H34.3389V42.6016H36.2393V43.8867H34.3389V50.2168H32.8213V37.8574ZM41.4209 41.3711C41.4209 42.0501 41.5485 42.7223 41.8037 43.3877C42.0635 44.0485 42.4326 44.6432 42.9111 45.1719C43.3942 45.696 43.9593 46.0924 44.6064 46.3613L43.7725 47.5645C43.057 47.2546 42.4349 46.7965 41.9062 46.1904C41.3776 45.5798 40.9674 44.8711 40.6758 44.0645C40.3841 44.9303 39.9717 45.696 39.4385 46.3613C38.9053 47.0267 38.2855 47.528 37.5791 47.8652L36.7041 46.6758C37.3376 46.3841 37.8936 45.9557 38.3721 45.3906C38.8506 44.8255 39.2197 44.1898 39.4795 43.4834C39.7393 42.777 39.8714 42.0729 39.876 41.3711V40.332H37.1553V39.0742H44.1279V40.332H41.4209V41.3711ZM45.5088 37.8574H47.04V50.2168H45.5088V37.8574ZM55.1338 44.4062H49.2822V38.7598H55.1338V44.4062ZM50.376 45.7598H58.6064V50.2305H57.0889V46.9766H50.376V45.7598ZM53.6436 43.2031V39.9629H50.7725V43.2031H53.6436ZM57.0889 37.8574H58.6064V40.9062H60.3291V42.1504H58.6064V45.1855H57.0889V37.8574ZM74.0283 41.3301H75.7646V42.5879H74.0283V46.7988H72.5107V37.8574H74.0283V41.3301ZM64.7998 38.8828H70.3369V40.0996H66.3037V43.4629C67.5068 43.4629 68.4753 43.4378 69.209 43.3877C69.9473 43.333 70.6742 43.2305 71.3896 43.0801L71.5537 44.3105C70.7653 44.4655 69.9587 44.5703 69.1338 44.625C68.3089 44.6797 67.1969 44.707 65.7979 44.707H64.7998V38.8828ZM66.1123 45.8555H67.6299V48.7402H74.5205V49.9707H66.1123V45.8555ZM87.0439 50.2168H85.5947V37.8574H87.0439V50.2168ZM76.2568 46.5254C77.5101 45.7826 78.4535 44.9258 79.0869 43.9551C79.7249 42.9844 80.1032 41.8633 80.2217 40.5918H76.9131V39.3613H81.7256C81.7256 39.9993 81.6823 40.6055 81.5957 41.1797H83.0381V38.1582H84.4873V49.6289H83.0381V45.5H81.1104V44.2559H83.0381V42.4238H81.3359C81.0306 43.4857 80.5361 44.4495 79.8525 45.3154C79.1735 46.1768 78.2712 46.9401 77.1455 47.6055L76.2568 46.5254ZM99.7725 48.7812H88.4795V47.5234H93.3467V45.5137H89.8193V41.4668H96.9287V39.9355H89.792V38.7051H98.4326V42.6699H91.3369V44.2695H98.7197V45.5137H94.8506V47.5234H99.7725V48.7812ZM113.991 40.1816V40.3252C113.987 41.0133 113.973 41.6104 113.95 42.1162C113.932 42.6175 113.889 43.2008 113.82 43.8662C113.752 44.527 113.645 45.2448 113.499 46.0195L111.968 45.8555C112.118 45.1126 112.228 44.4131 112.296 43.7568C112.369 43.096 112.412 42.515 112.426 42.0137C112.444 41.5124 112.455 40.9108 112.46 40.209H105.077V38.9922H113.991V40.1816ZM103.901 47.373H108.058V43.0801H109.562V47.373H115.167V48.6172H103.901V47.373ZM126.091 40.1816V40.3252C126.086 41.0133 126.073 41.6104 126.05 42.1162C126.032 42.6175 125.988 43.2008 125.92 43.8662C125.852 44.527 125.744 45.2448 125.599 46.0195L124.067 45.8555C124.218 45.1126 124.327 44.4131 124.396 43.7568C124.468 43.096 124.512 42.515 124.525 42.0137C124.544 41.5124 124.555 40.9108 124.56 40.209H117.177V38.9922H126.091V40.1816ZM116.001 47.373H120.157V43.0801H121.661V47.373H127.267V48.6172H116.001V47.373ZM130.493 46.0879H128.948L128.784 39.1016H130.644L130.493 46.0879ZM128.661 48.043C128.661 47.8561 128.709 47.6829 128.805 47.5234C128.9 47.3594 129.03 47.2295 129.194 47.1338C129.358 47.0381 129.536 46.9902 129.728 46.9902C129.914 46.9902 130.088 47.0381 130.247 47.1338C130.411 47.2295 130.541 47.3594 130.637 47.5234C130.732 47.6829 130.78 47.8561 130.78 48.043C130.78 48.2344 130.732 48.4121 130.637 48.5762C130.541 48.7402 130.411 48.8701 130.247 48.9658C130.088 49.0615 129.914 49.1094 129.728 49.1094C129.536 49.1094 129.358 49.0615 129.194 48.9658C129.03 48.8701 128.9 48.7402 128.805 48.5762C128.709 48.4121 128.661 48.2344 128.661 48.043Z" fill="#576DFC"/>
<path d="M77.2474 73.1399C77.6458 73.5952 78.3542 73.5952 78.7526 73.1399L85 66H71L77.2474 73.1399Z" fill="#E4E8FF"/>
</svg>
