<svg width="194" height="74" viewBox="0 0 194 74" fill="none" xmlns="http://www.w3.org/2000/svg">
<path d="M0 20C0 8.95431 8.95431 0 20 0H174C185.046 0 194 8.95431 194 20V46C194 57.0457 185.046 66 174 66H20C8.95431 66 0 57.0457 0 46V20Z" fill="#E4E8FF"/>
<path d="M37.1064 29.2305H35.5752V16.8574H37.1064V29.2305ZM27.2217 22.1211C27.2217 21.2507 27.3584 20.485 27.6318 19.8242C27.9053 19.1634 28.2858 18.6553 28.7734 18.2998C29.2656 17.9398 29.8239 17.7598 30.4482 17.7598C31.0635 17.7598 31.6149 17.9398 32.1025 18.2998C32.5947 18.6553 32.9798 19.1634 33.2578 19.8242C33.5358 20.485 33.6748 21.2507 33.6748 22.1211C33.6748 23.0007 33.5358 23.7708 33.2578 24.4316C32.9798 25.0924 32.5947 25.6029 32.1025 25.9629C31.6149 26.3184 31.0635 26.4961 30.4482 26.4961C29.8239 26.4961 29.2656 26.3184 28.7734 25.9629C28.2858 25.6029 27.9053 25.0924 27.6318 24.4316C27.3584 23.7708 27.2217 23.0007 27.2217 22.1211ZM28.6846 22.1211C28.6846 22.7454 28.7575 23.2832 28.9033 23.7344C29.0537 24.1855 29.2611 24.5296 29.5254 24.7666C29.7897 25.0036 30.0973 25.1243 30.4482 25.1289C30.7946 25.1243 31.0999 25.0036 31.3643 24.7666C31.6286 24.5296 31.8337 24.1855 31.9795 23.7344C32.1253 23.2832 32.1982 22.7454 32.1982 22.1211C32.1982 21.5013 32.1253 20.9681 31.9795 20.5215C31.8337 20.0703 31.6286 19.7262 31.3643 19.4893C31.0999 19.2477 30.7946 19.127 30.4482 19.127C30.0973 19.127 29.7897 19.2477 29.5254 19.4893C29.2611 19.7262 29.0537 20.0703 28.9033 20.5215C28.7575 20.9681 28.6846 21.5013 28.6846 22.1211ZM49.2744 29.2168H47.7568V22.9277H45.1455V21.6836H47.7568V16.8574H49.2744V29.2168ZM38.8428 25.7988C40.4059 25.0332 41.568 24.1263 42.3291 23.0781C43.0902 22.0299 43.5368 20.7949 43.6689 19.373H39.417V18.1699H45.2002C45.1956 19.4551 45.0179 20.6309 44.667 21.6973C44.3206 22.7591 43.7373 23.7367 42.917 24.6299C42.1012 25.5231 41.0075 26.3092 39.6357 26.9883L38.8428 25.7988ZM56.4795 19.5098H59.6924V17.8555H61.21V23.502H58.8584V25.4844C59.9567 25.4342 60.9502 25.3477 61.8389 25.2246L61.9482 26.3457C60.8089 26.5417 59.6491 26.6693 58.4688 26.7285C57.2884 26.7832 55.9372 26.8151 54.415 26.8242L54.1963 25.5664C54.4743 25.5664 54.6862 25.5641 54.832 25.5596C55.7207 25.5596 56.557 25.5505 57.3408 25.5322V23.502H54.9756V17.8555H56.4795V19.5098ZM59.6924 22.2852V20.6719H56.4795V22.2852H59.6924ZM62.5498 16.8574H64.0674V21.875H65.8584V23.1465H64.0674V29.2168H62.5498V16.8574ZM77.7393 27.7129H66.4463V26.4688H69.0576V23.3447C68.5563 23.0576 68.1667 22.6953 67.8887 22.2578C67.6152 21.8203 67.4808 21.3327 67.4854 20.7949C67.4854 20.1478 67.679 19.5781 68.0664 19.0859C68.4583 18.5892 69.0029 18.2064 69.7002 17.9375C70.3975 17.6641 71.1859 17.5273 72.0654 17.5273C72.9495 17.5273 73.7402 17.6641 74.4375 17.9375C75.1393 18.2064 75.6862 18.5892 76.0781 19.0859C76.4746 19.5781 76.6729 20.1478 76.6729 20.7949C76.6774 21.3236 76.5452 21.8021 76.2764 22.2305C76.0075 22.6589 75.6292 23.0189 75.1416 23.3105V26.4688H77.7393V27.7129ZM68.9756 20.7949C68.9756 21.2096 69.1032 21.5742 69.3584 21.8887C69.6182 22.1986 69.9805 22.4378 70.4453 22.6064C70.9147 22.7751 71.4548 22.8594 72.0654 22.8594C72.6761 22.8594 73.2161 22.7751 73.6855 22.6064C74.1595 22.4378 74.5264 22.1986 74.7861 21.8887C75.0505 21.5742 75.1826 21.2096 75.1826 20.7949C75.1826 20.3757 75.0505 20.0088 74.7861 19.6943C74.5264 19.3799 74.1595 19.1406 73.6855 18.9766C73.2161 18.8125 72.6761 18.7305 72.0654 18.7305C71.4502 18.7305 70.9079 18.8125 70.4385 18.9766C69.9736 19.1406 69.6136 19.3799 69.3584 19.6943C69.1032 20.0042 68.9756 20.3711 68.9756 20.7949ZM73.5967 26.4688V23.8916C73.1136 23.9964 72.6032 24.0488 72.0654 24.0488C71.5505 24.0488 71.0492 23.9987 70.5615 23.8984V26.4688H73.5967ZM79.8037 30.8574H78.5049L79.2158 27.0293H80.9521L79.8037 30.8574ZM91.4658 20.043H85.4092V18.8262H87.7061V17.2129H89.21V18.8262H91.4658V20.043ZM85.7646 23.5703C85.7601 23.0189 85.8717 22.5244 86.0996 22.0869C86.332 21.6494 86.6533 21.3099 87.0635 21.0684C87.4782 20.8223 87.943 20.6992 88.458 20.6992C88.9775 20.6992 89.4401 20.8223 89.8457 21.0684C90.2559 21.3099 90.5749 21.6494 90.8027 22.0869C91.0352 22.5244 91.1514 23.0189 91.1514 23.5703C91.1514 24.1354 91.0352 24.639 90.8027 25.0811C90.5749 25.5231 90.2559 25.8672 89.8457 26.1133C89.4401 26.3594 88.9775 26.4824 88.458 26.4824C87.943 26.4824 87.4782 26.3594 87.0635 26.1133C86.6533 25.8672 86.332 25.5231 86.0996 25.0811C85.8717 24.639 85.7601 24.1354 85.7646 23.5703ZM87.1045 23.5703C87.1045 23.8984 87.1592 24.1855 87.2686 24.4316C87.3825 24.6732 87.542 24.86 87.7471 24.9922C87.9567 25.1198 88.1937 25.1836 88.458 25.1836C88.7223 25.1836 88.957 25.1198 89.1621 24.9922C89.3672 24.86 89.5267 24.6732 89.6406 24.4316C89.7546 24.1855 89.8115 23.8984 89.8115 23.5703C89.8115 23.2513 89.7546 22.971 89.6406 22.7295C89.5267 22.4834 89.3672 22.2943 89.1621 22.1621C88.957 22.0254 88.7223 21.957 88.458 21.957C88.1937 21.957 87.959 22.0254 87.7539 22.1621C87.5488 22.2943 87.3893 22.4834 87.2754 22.7295C87.1615 22.971 87.1045 23.2513 87.1045 23.5703ZM91.9854 17.1172H93.4072V21.9434H94.6104V16.8574H96.0596V29.2168H94.6104V23.1738H93.4072V28.6562H91.9854V17.1172ZM108.104 23.9121H106.655V21.0137H105.302V23.8027H103.88V17.0762H105.302V19.7969H106.655V16.8711H108.104V23.9121ZM98.0693 17.7598H99.5869V21.916C100.211 21.9069 100.804 21.8773 101.364 21.8271C101.929 21.7725 102.513 21.6882 103.114 21.5742L103.265 22.8047C102.586 22.946 101.927 23.0462 101.289 23.1055C100.656 23.1602 99.9743 23.1875 99.2451 23.1875H98.9033H98.0693V17.7598ZM98.2471 27.9727C98.762 27.7995 99.1973 27.5557 99.5527 27.2412C99.9082 26.9222 100.175 26.5645 100.353 26.168C100.535 25.7715 100.626 25.3659 100.626 24.9512V24.2812H102.103V24.9512C102.103 25.4889 102.228 26.0062 102.479 26.5029C102.734 26.9997 103.114 27.4121 103.62 27.7402C104.131 27.3893 104.516 26.9609 104.775 26.4551C105.04 25.9492 105.174 25.4479 105.179 24.9512V24.2812H106.683V24.9512C106.683 25.3932 106.771 25.8125 106.949 26.209C107.127 26.6055 107.394 26.9587 107.749 27.2686C108.109 27.5739 108.551 27.8086 109.075 27.9727L108.31 29.1074C107.731 28.9069 107.239 28.6175 106.833 28.2393C106.432 27.861 106.122 27.4144 105.903 26.8994C105.694 27.4189 105.4 27.8792 105.021 28.2803C104.648 28.6859 104.19 28.998 103.647 29.2168C103.082 29.0072 102.611 28.7064 102.232 28.3145C101.854 27.9225 101.565 27.4645 101.364 26.9404C101.136 27.4417 100.824 27.877 100.428 28.2461C100.031 28.6198 99.555 28.9069 98.999 29.1074L98.2471 27.9727ZM116.526 18.8262H114.011C114.015 19.2682 114.125 19.6966 114.339 20.1113C114.558 20.5215 114.877 20.8906 115.296 21.2188C115.715 21.5423 116.221 21.793 116.813 21.9707L116.034 23.1055C115.396 22.9095 114.842 22.6201 114.373 22.2373C113.904 21.8545 113.537 21.401 113.272 20.877C112.985 21.5013 112.582 22.0459 112.062 22.5107C111.543 22.9756 110.93 23.3197 110.224 23.543L109.472 22.3672C110.096 22.1667 110.634 21.8818 111.085 21.5127C111.536 21.139 111.88 20.7197 112.117 20.2549C112.354 19.7855 112.475 19.3092 112.479 18.8262H109.882V17.623H116.526V18.8262ZM110.812 24.2266H112.302V27.7061C113.113 27.665 113.828 27.5443 114.448 27.3438L114.667 28.5332C114.157 28.7018 113.642 28.818 113.122 28.8818C112.607 28.9456 112.056 28.9753 111.468 28.9707H110.812V24.2266ZM114.243 24.377H116.622V23.4199H118.112V24.377H120.464V25.498H114.243V24.377ZM114.995 27.4805C114.991 27.1387 115.086 26.8402 115.282 26.585C115.478 26.3252 115.754 26.1247 116.109 25.9834C116.469 25.8421 116.882 25.7715 117.347 25.7715C117.807 25.7715 118.215 25.8421 118.57 25.9834C118.93 26.1247 119.211 26.3252 119.411 26.585C119.612 26.8447 119.712 27.1432 119.712 27.4805C119.712 27.8314 119.612 28.1367 119.411 28.3965C119.211 28.6608 118.93 28.8636 118.57 29.0049C118.215 29.1462 117.807 29.2168 117.347 29.2168C116.877 29.2168 116.465 29.1462 116.109 29.0049C115.754 28.8636 115.478 28.6608 115.282 28.3965C115.086 28.1367 114.991 27.8314 114.995 27.4805ZM116.349 27.4736C116.349 27.6924 116.44 27.8633 116.622 27.9863C116.804 28.1048 117.046 28.1641 117.347 28.1641C117.647 28.1641 117.889 28.1048 118.071 27.9863C118.254 27.8678 118.345 27.6992 118.345 27.4805C118.345 27.2708 118.254 27.109 118.071 26.9951C117.889 26.8766 117.647 26.8151 117.347 26.8105C117.05 26.8151 116.809 26.8743 116.622 26.9883C116.44 27.1022 116.349 27.264 116.349 27.4736ZM117.866 16.8574H119.384V19.5371H121.106V20.7812H119.384V23.0508H117.866V16.8574ZM125.058 17.7598C125.677 17.7598 126.229 17.9398 126.712 18.2998C127.195 18.6553 127.573 19.1634 127.847 19.8242C128.125 20.4805 128.266 21.2461 128.271 22.1211C128.266 23.0007 128.125 23.7708 127.847 24.4316C127.573 25.0924 127.195 25.6029 126.712 25.9629C126.229 26.3184 125.677 26.4961 125.058 26.4961C124.433 26.4961 123.877 26.3184 123.39 25.9629C122.902 25.6029 122.521 25.0924 122.248 24.4316C121.979 23.7708 121.845 23.0007 121.845 22.1211C121.845 21.2461 121.979 20.4805 122.248 19.8242C122.521 19.1634 122.902 18.6553 123.39 18.2998C123.877 17.9398 124.433 17.7598 125.058 17.7598ZM123.308 22.1211C123.308 22.7409 123.381 23.2786 123.526 23.7344C123.672 24.1855 123.877 24.5296 124.142 24.7666C124.406 25.0036 124.711 25.1243 125.058 25.1289C125.409 25.1243 125.714 25.0036 125.974 24.7666C126.238 24.5296 126.443 24.1855 126.589 23.7344C126.735 23.2832 126.808 22.7454 126.808 22.1211C126.808 21.5013 126.735 20.9658 126.589 20.5146C126.443 20.0635 126.238 19.7194 125.974 19.4824C125.709 19.2454 125.404 19.127 125.058 19.127C124.711 19.127 124.406 19.2477 124.142 19.4893C123.877 19.7262 123.672 20.0703 123.526 20.5215C123.381 20.9681 123.308 21.5013 123.308 22.1211ZM129.897 16.8574H131.415V21.6016H133.315V22.8867H131.415V29.2168H129.897V16.8574ZM145.128 27.7129H133.835V26.4688H136.446V23.3447C135.945 23.0576 135.555 22.6953 135.277 22.2578C135.004 21.8203 134.869 21.3327 134.874 20.7949C134.874 20.1478 135.068 19.5781 135.455 19.0859C135.847 18.5892 136.392 18.2064 137.089 17.9375C137.786 17.6641 138.575 17.5273 139.454 17.5273C140.338 17.5273 141.129 17.6641 141.826 17.9375C142.528 18.2064 143.075 18.5892 143.467 19.0859C143.863 19.5781 144.062 20.1478 144.062 20.7949C144.066 21.3236 143.934 21.8021 143.665 22.2305C143.396 22.6589 143.018 23.0189 142.53 23.3105V26.4688H145.128V27.7129ZM136.364 20.7949C136.364 21.2096 136.492 21.5742 136.747 21.8887C137.007 22.1986 137.369 22.4378 137.834 22.6064C138.303 22.7751 138.843 22.8594 139.454 22.8594C140.065 22.8594 140.605 22.7751 141.074 22.6064C141.548 22.4378 141.915 22.1986 142.175 21.8887C142.439 21.5742 142.571 21.2096 142.571 20.7949C142.571 20.3757 142.439 20.0088 142.175 19.6943C141.915 19.3799 141.548 19.1406 141.074 18.9766C140.605 18.8125 140.065 18.7305 139.454 18.7305C138.839 18.7305 138.297 18.8125 137.827 18.9766C137.362 19.1406 137.002 19.3799 136.747 19.6943C136.492 20.0042 136.364 20.3711 136.364 20.7949ZM140.985 26.4688V23.8916C140.502 23.9964 139.992 24.0488 139.454 24.0488C138.939 24.0488 138.438 23.9987 137.95 23.8984V26.4688H140.985ZM148.327 25.0879H146.782L146.618 18.1016H148.478L148.327 25.0879ZM146.495 27.043C146.495 26.8561 146.543 26.6829 146.639 26.5234C146.734 26.3594 146.864 26.2295 147.028 26.1338C147.192 26.0381 147.37 25.9902 147.562 25.9902C147.748 25.9902 147.922 26.0381 148.081 26.1338C148.245 26.2295 148.375 26.3594 148.471 26.5234C148.566 26.6829 148.614 26.8561 148.614 27.043C148.614 27.2344 148.566 27.4121 148.471 27.5762C148.375 27.7402 148.245 27.8701 148.081 27.9658C147.922 28.0615 147.748 28.1094 147.562 28.1094C147.37 28.1094 147.192 28.0615 147.028 27.9658C146.864 27.8701 146.734 27.7402 146.639 27.5762C146.543 27.4121 146.495 27.2344 146.495 27.043ZM28.9648 49H27.1738V40.8379H27.1191L24.8086 42.3145V40.6875L27.2559 39.1016H28.9648V49ZM35.0215 49.1367C34.2285 49.1367 33.5472 48.9385 32.9775 48.542C32.4079 48.141 31.9727 47.5599 31.6719 46.7988C31.3711 46.0378 31.2207 45.1217 31.2207 44.0508C31.2207 42.9844 31.3711 42.0706 31.6719 41.3096C31.9772 40.5439 32.4147 39.9629 32.9844 39.5664C33.554 39.1654 34.2331 38.9648 35.0215 38.9648C35.8099 38.9648 36.4889 39.1654 37.0586 39.5664C37.6283 39.9629 38.0635 40.5439 38.3643 41.3096C38.6696 42.0706 38.8223 42.9844 38.8223 44.0508C38.8223 45.1217 38.6696 46.04 38.3643 46.8057C38.0635 47.5667 37.6283 48.1455 37.0586 48.542C36.4935 48.9385 35.8145 49.1367 35.0215 49.1367ZM33.0117 44.0508C33.0117 45.222 33.1872 46.113 33.5381 46.7236C33.8936 47.3343 34.388 47.6419 35.0215 47.6465C35.4362 47.6419 35.7939 47.5052 36.0947 47.2363C36.3955 46.9674 36.6257 46.5641 36.7852 46.0264C36.9492 45.4886 37.0312 44.8301 37.0312 44.0508C37.0312 43.276 36.9492 42.6198 36.7852 42.082C36.6257 41.5397 36.3955 41.1318 36.0947 40.8584C35.7939 40.585 35.4362 40.446 35.0215 40.4414C34.6068 40.446 34.249 40.585 33.9482 40.8584C33.6475 41.1318 33.415 41.5397 33.251 42.082C33.0915 42.6198 33.0117 43.276 33.0117 44.0508ZM43.9629 49.1367C43.1699 49.1367 42.4886 48.9385 41.9189 48.542C41.3493 48.141 40.9141 47.5599 40.6133 46.7988C40.3125 46.0378 40.1621 45.1217 40.1621 44.0508C40.1621 42.9844 40.3125 42.0706 40.6133 41.3096C40.9186 40.5439 41.3561 39.9629 41.9258 39.5664C42.4954 39.1654 43.1745 38.9648 43.9629 38.9648C44.7513 38.9648 45.4303 39.1654 46 39.5664C46.5697 39.9629 47.0049 40.5439 47.3057 41.3096C47.611 42.0706 47.7637 42.9844 47.7637 44.0508C47.7637 45.1217 47.611 46.04 47.3057 46.8057C47.0049 47.5667 46.5697 48.1455 46 48.542C45.4349 48.9385 44.7559 49.1367 43.9629 49.1367ZM41.9531 44.0508C41.9531 45.222 42.1286 46.113 42.4795 46.7236C42.835 47.3343 43.3294 47.6419 43.9629 47.6465C44.3776 47.6419 44.7354 47.5052 45.0361 47.2363C45.3369 46.9674 45.5671 46.5641 45.7266 46.0264C45.8906 45.4886 45.9727 44.8301 45.9727 44.0508C45.9727 43.276 45.8906 42.6198 45.7266 42.082C45.5671 41.5397 45.3369 41.1318 45.0361 40.8584C44.7354 40.585 44.3776 40.446 43.9629 40.4414C43.5482 40.446 43.1904 40.585 42.8896 40.8584C42.5889 41.1318 42.3564 41.5397 42.1924 42.082C42.0329 42.6198 41.9531 43.276 41.9531 44.0508ZM60.123 45.2539H55.3516V47.5234H53.8477V45.2539H48.8301V44.0371H60.123V45.2539ZM50.1973 46.3887H51.7148V48.7402H58.8789V49.9707H50.1973V46.3887ZM50.2656 38.418H58.6738V42.8887H50.2656V38.418ZM57.1699 41.6992V39.6074H51.7422V41.6992H57.1699ZM71.5801 50.2168H70.1309V37.8574H71.5801V50.2168ZM60.7246 46.7031C61.2988 46.3522 61.7773 45.8896 62.1602 45.3154C62.5475 44.7367 62.8324 44.0986 63.0146 43.4014C63.2015 42.6995 63.2949 41.9772 63.2949 41.2344V40.4141H61.1484V39.1836H66.7539V40.4141H64.7578V41.2344C64.7578 41.9544 64.8467 42.6471 65.0244 43.3125C65.2021 43.9779 65.4779 44.5817 65.8516 45.124C66.2298 45.6663 66.7038 46.1016 67.2734 46.4297L66.3711 47.5508C65.8151 47.2227 65.3434 46.7806 64.9561 46.2246C64.5687 45.6641 64.2633 45.0192 64.04 44.29C63.8122 45.083 63.4977 45.7848 63.0967 46.3955C62.7002 47.0062 62.2194 47.487 61.6543 47.8379L60.7246 46.7031ZM65.8516 42.1641H67.6289V38.0898H69.0645V49.6152H67.6289V43.3945H65.8516V42.1641ZM86.2773 39.3887V39.792C86.2773 40.3161 86.2591 40.8083 86.2227 41.2686C86.1908 41.7243 86.1224 42.2096 86.0176 42.7246H87.6035V43.9414H76.3926V42.7246H84.5068C84.5798 42.3372 84.639 41.9294 84.6846 41.501L77.623 41.7949L77.4453 40.6191L84.7461 40.4414C84.7552 40.2409 84.7598 39.9492 84.7598 39.5664H77.7598V38.3633H86.2773V39.3887ZM77.6367 44.8301H86.3457V47.9473H79.168V48.877H86.7832V50.0664H77.6641V46.8398H84.8281V45.9922H77.6367V44.8301ZM98.7598 50.2305H97.2559V37.8574H98.7598V50.2305ZM89.1348 38.9375H94.959V43.5723H90.707V46.0605C91.737 46.0514 92.6895 46.015 93.5645 45.9512C94.4395 45.8874 95.3372 45.778 96.2578 45.623L96.3945 46.8672C95.4375 47.0312 94.4941 47.1452 93.5645 47.209C92.6393 47.2728 91.6094 47.3047 90.4746 47.3047H90.2285H89.1484V42.3691H93.4141V40.168H89.1348V38.9375ZM103.941 38.7598C104.493 38.7598 104.992 38.9079 105.438 39.2041C105.885 39.5003 106.25 39.9242 106.532 40.4756C106.815 41.0225 106.993 41.6673 107.065 42.4102H109.424V37.8574H110.928V50.2305H109.424V43.6406H107.079C107.024 44.4245 106.858 45.1081 106.58 45.6914C106.302 46.2702 105.935 46.7168 105.479 47.0312C105.024 47.3411 104.511 47.4961 103.941 47.4961C103.322 47.4961 102.77 47.3184 102.287 46.9629C101.809 46.6029 101.435 46.0924 101.166 45.4316C100.902 44.7708 100.77 44.0007 100.77 43.1211C100.77 42.2461 100.902 41.4805 101.166 40.8242C101.435 40.1634 101.811 39.6553 102.294 39.2998C102.777 38.9398 103.326 38.7598 103.941 38.7598ZM102.232 43.1211C102.232 43.7454 102.303 44.2832 102.444 44.7344C102.586 45.1855 102.784 45.5296 103.039 45.7666C103.299 46.0036 103.6 46.1243 103.941 46.1289C104.283 46.1243 104.584 46.0036 104.844 45.7666C105.104 45.5296 105.304 45.1855 105.445 44.7344C105.591 44.2832 105.664 43.7454 105.664 43.1211C105.664 42.5013 105.591 41.9658 105.445 41.5146C105.304 41.0635 105.104 40.7194 104.844 40.4824C104.584 40.2454 104.283 40.127 103.941 40.127C103.6 40.127 103.299 40.2477 103.039 40.4893C102.784 40.7262 102.586 41.0703 102.444 41.5215C102.303 41.9681 102.232 42.5013 102.232 43.1211ZM119.09 40.168C119.09 40.724 119.16 41.2731 119.302 41.8154C119.448 42.3532 119.694 42.8317 120.04 43.251C120.377 42.8454 120.617 42.3737 120.758 41.8359C120.899 41.2982 120.972 40.7422 120.977 40.168V39.9492H120.266V38.7188H123.766V39.9492H122.412V40.168C122.412 40.9199 122.562 41.624 122.863 42.2803C123.169 42.9365 123.652 43.4355 124.312 43.7773L123.492 44.8574C122.663 44.4108 122.066 43.6725 121.701 42.6426C121.382 43.7272 120.822 44.5065 120.02 44.9805C119.245 44.5065 118.696 43.7386 118.372 42.6768C118.007 43.6976 117.413 44.4245 116.588 44.8574L115.768 43.7773C116.214 43.5358 116.579 43.2191 116.861 42.8271C117.144 42.4352 117.349 42.0114 117.477 41.5557C117.609 41.0999 117.673 40.6374 117.668 40.168V39.9492H116.246V38.7188H119.814V39.9492H119.09V40.168ZM117.518 45.7734H126.062V50.2168H124.545V46.9902H117.518V45.7734ZM124.545 37.8574H126.062V40.9062H127.43V42.1777H126.062V45.2539H124.545V37.8574ZM131.189 40.168C131.189 40.724 131.26 41.2731 131.401 41.8154C131.547 42.3532 131.793 42.8317 132.14 43.251C132.477 42.8454 132.716 42.3737 132.857 41.8359C132.999 41.2982 133.072 40.7422 133.076 40.168V39.9492H132.365V38.7188H135.865V39.9492H134.512V40.168C134.512 40.9199 134.662 41.624 134.963 42.2803C135.268 42.9365 135.751 43.4355 136.412 43.7773L135.592 44.8574C134.762 44.4108 134.165 43.6725 133.801 42.6426C133.482 43.7272 132.921 44.5065 132.119 44.9805C131.344 44.5065 130.795 43.7386 130.472 42.6768C130.107 43.6976 129.512 44.4245 128.688 44.8574L127.867 43.7773C128.314 43.5358 128.678 43.2191 128.961 42.8271C129.243 42.4352 129.449 42.0114 129.576 41.5557C129.708 41.0999 129.772 40.6374 129.768 40.168V39.9492H128.346V38.7188H131.914V39.9492H131.189V40.168ZM129.617 45.7734H138.162V50.2168H136.645V46.9902H129.617V45.7734ZM136.645 37.8574H138.162V40.9062H139.529V42.1777H138.162V45.2539H136.645V37.8574ZM143.289 40.168C143.289 40.724 143.36 41.2731 143.501 41.8154C143.647 42.3532 143.893 42.8317 144.239 43.251C144.576 42.8454 144.816 42.3737 144.957 41.8359C145.098 41.2982 145.171 40.7422 145.176 40.168V39.9492H144.465V38.7188H147.965V39.9492H146.611V40.168C146.611 40.9199 146.762 41.624 147.062 42.2803C147.368 42.9365 147.851 43.4355 148.512 43.7773L147.691 44.8574C146.862 44.4108 146.265 43.6725 145.9 42.6426C145.581 43.7272 145.021 44.5065 144.219 44.9805C143.444 44.5065 142.895 43.7386 142.571 42.6768C142.207 43.6976 141.612 44.4245 140.787 44.8574L139.967 43.7773C140.413 43.5358 140.778 43.2191 141.061 42.8271C141.343 42.4352 141.548 42.0114 141.676 41.5557C141.808 41.0999 141.872 40.6374 141.867 40.168V39.9492H140.445V38.7188H144.014V39.9492H143.289V40.168ZM141.717 45.7734H150.262V50.2168H148.744V46.9902H141.717V45.7734ZM148.744 37.8574H150.262V40.9062H151.629V42.1777H150.262V45.2539H148.744V37.8574Z" fill="#576DFC"/>
<path d="M166.131 47.2238L166.053 42.5288C166.004 42.0832 165.759 41.4846 164.924 41.4846C163.95 41.531 163.911 42.5288 163.911 42.5288L162.426 39.8758C162.055 39.3111 161.446 39.2718 161.064 39.5045C160.683 39.7371 160.6 40.2083 160.6 40.2083L160.291 39.8061C160.058 39.425 159.362 39.3806 159.007 39.5973C158.418 39.957 158.332 40.7018 158.713 41.1133C158.688 41.0863 158.397 40.9855 157.909 41.2835C157.527 41.5161 157.41 42.2117 157.622 42.6061C157.835 43.0006 157.866 43.0625 157.866 43.0625C157.866 43.0625 157.537 42.9078 157.019 43.2558C156.648 43.5048 156.516 44.2437 156.748 44.6249L157.997 46.7293L159.714 49.5361C160.724 50.9674 162.877 51.4616 164.442 50.5113C165.509 49.8632 166.232 48.4938 166.131 47.2238Z" fill="#F59F00"/>
<path d="M160.644 40.2819L160.599 40.2081C160.6 40.1994 160.653 39.9124 160.858 39.6782L161.069 40.0179C161.236 40.2869 161.463 40.6511 161.7 41.0318C162.175 41.7946 162.691 42.6204 162.862 42.8837C162.937 42.9996 162.904 43.1544 162.788 43.2294C162.672 43.3044 162.517 43.2712 162.442 43.1553C162.269 42.8874 161.75 42.0569 161.276 41.2963C161.038 40.9153 160.812 40.551 160.644 40.2819Z" fill="#D67D00"/>
<path d="M158.687 41.0994C158.647 41.0885 158.609 41.0812 158.574 41.0766C158.626 41.0804 158.664 41.0901 158.687 41.0994Z" fill="#D67D00"/>
<path d="M158.703 41.104C158.843 41.1449 159.01 41.2302 159.199 41.3978C159.213 41.4105 159.247 41.4483 159.3 41.5236C159.351 41.5944 159.41 41.6857 159.476 41.7933C159.609 42.0084 159.764 42.2786 159.922 42.5605C160.005 42.7086 160.089 42.8609 160.172 43.0097C160.398 43.4186 160.611 43.8017 160.741 44.003C160.816 44.1189 160.971 44.1521 161.087 44.0771C161.203 44.0021 161.236 43.8473 161.161 43.7314C161.041 43.5455 160.843 43.1883 160.62 42.7873C160.535 42.6342 160.447 42.4748 160.358 42.3161C160.199 42.0332 160.04 41.7553 159.902 41.5307C159.833 41.4185 159.767 41.3171 159.708 41.2338C159.651 41.1548 159.591 41.077 159.531 41.0241C159.133 40.6704 158.767 40.5724 158.483 40.5701C158.496 40.7679 158.57 40.9565 158.703 41.104Z" fill="#D67D00"/>
<path d="M157.843 43.0543C157.787 43.042 157.734 43.0337 157.686 43.0286C157.762 43.0312 157.815 43.0451 157.843 43.0543Z" fill="#D67D00"/>
<path d="M157.862 43.0587C157.878 43.0623 157.894 43.0662 157.91 43.0705C158.073 43.1139 158.223 43.1829 158.324 43.2727C158.375 43.3178 158.451 43.4105 158.55 43.5505C158.646 43.686 158.752 43.8507 158.861 44.0272C158.95 44.1698 159.042 44.3227 159.132 44.4717C159.259 44.6827 159.382 44.8861 159.483 45.042C159.558 45.1579 159.713 45.1911 159.829 45.1161C159.945 45.0411 159.978 44.8863 159.903 44.7704C159.804 44.6178 159.69 44.429 159.568 44.2261C159.478 44.0765 159.383 43.9193 159.286 43.7635C159.175 43.5841 159.063 43.4097 158.959 43.2623C158.858 43.1194 158.753 42.9853 158.656 42.899C158.476 42.7388 158.244 42.6421 158.039 42.5873C157.878 42.5447 157.717 42.523 157.582 42.522C157.593 42.5513 157.606 42.5793 157.621 42.6061C157.806 42.9493 157.853 43.0407 157.862 43.0587Z" fill="#D67D00"/>
<path d="M168.976 47.1858V42.4436C168.926 41.9936 168.601 41.3889 167.757 41.3889C166.773 41.4358 166.734 42.4436 166.734 42.4436L165.234 39.7639C164.859 39.1936 164.244 39.1539 163.859 39.3889C163.474 39.6239 163.39 40.0998 163.39 40.0998L163.078 39.6936C162.843 39.3086 162.139 39.2637 161.781 39.4826C161.186 39.846 161.099 40.5982 161.484 41.0139C161.459 40.9866 161.165 40.8848 160.671 41.1858C160.286 41.4208 160.168 42.1233 160.382 42.5217C160.597 42.9201 160.629 42.9826 160.629 42.9826C160.629 42.9826 160.296 42.8264 159.773 43.1779C159.399 43.4294 159.265 44.1758 159.5 44.5608L160.76 46.6863L162.495 49.5213C163.515 50.967 165.69 51.4662 167.27 50.5063C168.348 49.8517 169.079 48.4685 168.976 47.1858Z" fill="#FFC83D"/>
<path d="M163.392 40.0917L163.399 40.1022C163.566 40.3713 163.793 40.7356 164.03 41.1166C164.504 41.8772 165.023 42.7078 165.196 42.9757C165.271 43.0916 165.426 43.1248 165.542 43.0498C165.658 42.9747 165.691 42.82 165.616 42.704C165.446 42.4407 164.93 41.615 164.455 40.8522C164.217 40.4714 163.991 40.1072 163.824 39.8383L163.653 39.5641C163.463 39.7808 163.402 40.0425 163.392 40.0917Z" fill="#D67D00"/>
<path d="M161.445 40.9946C161.367 40.9799 161.299 40.9757 161.246 40.9773C161.338 40.9706 161.405 40.9819 161.445 40.9946Z" fill="#D67D00"/>
<path d="M162.088 41.323C161.87 41.1294 161.648 41.038 161.472 41.0001C161.343 40.8548 161.27 40.6706 161.255 40.4771C161.553 40.474 162.003 40.5784 162.42 40.9493C162.523 41.0408 162.653 41.2239 162.783 41.4199C162.919 41.6265 163.074 41.8804 163.23 42.1397C163.346 42.3332 163.461 42.5285 163.568 42.7111C163.753 43.0247 163.916 43.3008 164.023 43.4657C164.098 43.5817 164.064 43.7364 163.948 43.8115C163.833 43.8865 163.678 43.8533 163.603 43.7374C163.491 43.5642 163.318 43.2709 163.128 42.9488C163.022 42.7685 162.91 42.579 162.801 42.3966C162.646 42.1388 162.495 41.8924 162.365 41.6951C162.228 41.4872 162.133 41.3629 162.088 41.323Z" fill="#D67D00"/>
<path d="M160.687 42.9931C160.665 42.9839 160.643 42.9755 160.621 42.9679C160.603 42.9329 160.546 42.824 160.383 42.5218C160.363 42.4851 160.346 42.4458 160.332 42.4045C160.499 42.4023 160.699 42.4581 160.876 42.5299C161.079 42.6124 161.296 42.7346 161.463 42.8833C161.564 42.9732 161.671 43.1195 161.77 43.2721C161.874 43.4309 161.986 43.6203 162.097 43.8139C162.165 43.9314 162.231 44.0498 162.296 44.165C162.45 44.4369 162.593 44.6906 162.71 44.872C162.785 44.9879 162.752 45.1427 162.636 45.2177C162.52 45.2927 162.365 45.2595 162.29 45.1436C162.164 44.9487 162.008 44.6725 161.851 44.3939C161.788 44.2822 161.725 44.17 161.664 44.0626C161.554 43.871 161.448 43.692 161.352 43.5459C161.252 43.3935 161.177 43.2983 161.131 43.257C161.017 43.1556 160.853 43.0604 160.687 42.9931Z" fill="#D67D00"/>
<path d="M167.202 43.27C167.116 43.1214 166.942 42.8118 166.735 42.4388C166.737 42.3961 166.762 42.0796 166.955 41.8049C167.253 42.3437 167.522 42.8249 167.634 43.0191C167.704 43.1385 167.663 43.2915 167.544 43.3608C167.424 43.4301 167.271 43.3894 167.202 43.27Z" fill="#D67D00"/>
<path d="M158.026 38.4085L157.416 37.5828C157.321 37.4537 157.381 37.2679 157.531 37.2215L158.211 37.0099C158.361 36.9634 158.511 37.0873 158.501 37.2473L158.431 38.2847C158.411 38.4963 158.151 38.5789 158.026 38.4085Z" fill="#576DFC"/>
<path d="M156.846 39.2195L155.916 38.8296C155.771 38.7696 155.731 38.5845 155.841 38.4695L156.326 37.9546C156.431 37.8396 156.621 37.8696 156.691 38.0096L157.136 38.9145C157.221 39.0995 157.036 39.2995 156.846 39.2195Z" fill="#576DFC"/>
<path d="M155.26 40.6795L156.296 40.5446C156.508 40.5187 156.575 40.2437 156.399 40.1192L155.534 39.5381C155.4 39.4499 155.213 39.5225 155.177 39.6781L155.006 40.3941C154.97 40.555 155.099 40.7002 155.26 40.6795Z" fill="#576DFC"/>
<path d="M96.2474 73.1399C96.6458 73.5952 97.3542 73.5952 97.7526 73.1399L104 66H90L96.2474 73.1399Z" fill="#E4E8FF"/>
</svg>
