<svg width="176" height="74" viewBox="0 0 176 74" fill="none" xmlns="http://www.w3.org/2000/svg">
<path d="M0 20C0 8.95431 8.9543 0 20 0H156C167.046 0 176 8.95431 176 20V46C176 57.0457 167.046 66 156 66H20C8.95431 66 0 57.0457 0 46V20Z" fill="#E4E8FF"/>
<path d="M35.1992 29.2168H33.7363V22.873H32.4102V28.6426H30.9883V17.1855H32.4102V21.6426H33.7363V16.8574H35.1992V29.2168ZM24.4941 25.5801C25.7702 24.8418 26.7204 23.9873 27.3447 23.0166C27.9736 22.0413 28.3451 20.9134 28.459 19.6328H25.0684V18.416H29.9355C29.9355 19.5964 29.7943 20.6787 29.5117 21.6631C29.2292 22.6475 28.7507 23.5612 28.0762 24.4043C27.4017 25.2428 26.4993 25.9857 25.3691 26.6328L24.4941 25.5801ZM46.9844 25.7988H45.4531V16.8711H46.9844V25.7988ZM36.9082 20.7676C36.9082 20.1797 37.054 19.651 37.3457 19.1816C37.6419 18.7122 38.043 18.3454 38.5488 18.0811C39.0592 17.8122 39.6243 17.6777 40.2441 17.6777C40.8639 17.6777 41.4268 17.8122 41.9326 18.0811C42.443 18.3454 42.8418 18.7122 43.1289 19.1816C43.4206 19.651 43.5664 20.1797 43.5664 20.7676C43.5664 21.3646 43.4206 21.9001 43.1289 22.374C42.8418 22.8434 42.443 23.2103 41.9326 23.4746C41.4268 23.7389 40.8639 23.8711 40.2441 23.8711C39.6243 23.8711 39.0592 23.7389 38.5488 23.4746C38.043 23.2103 37.6419 22.8434 37.3457 22.374C37.054 21.9001 36.9082 21.3646 36.9082 20.7676ZM38.3984 20.7676C38.3984 21.123 38.4759 21.4352 38.6309 21.7041C38.7904 21.973 39.0091 22.1803 39.2871 22.3262C39.5697 22.472 39.8887 22.5449 40.2441 22.5449C40.5905 22.5449 40.9027 22.472 41.1807 22.3262C41.4587 22.1803 41.6774 21.973 41.8369 21.7041C41.9964 21.4352 42.0762 21.123 42.0762 20.7676C42.0762 20.4212 41.9964 20.1136 41.8369 19.8447C41.6774 19.5758 41.4564 19.3685 41.1738 19.2227C40.8958 19.0768 40.5859 19.0039 40.2441 19.0039C39.8932 19.0039 39.5765 19.0768 39.2939 19.2227C39.0114 19.3685 38.7904 19.5758 38.6309 19.8447C38.4759 20.1136 38.3984 20.4212 38.3984 20.7676ZM38.8086 24.8965H40.3398V27.7402H47.3262V28.9707H38.8086V24.8965ZM53.3281 18.9766C53.3281 19.487 53.4398 19.9837 53.6631 20.4668C53.8864 20.9453 54.2168 21.376 54.6543 21.7588C55.0918 22.137 55.6204 22.431 56.2402 22.6406L55.4746 23.8164C54.8001 23.5977 54.2168 23.2673 53.7246 22.8252C53.237 22.3831 52.8542 21.8636 52.5762 21.2666C52.2982 21.932 51.9017 22.5085 51.3867 22.9961C50.8717 23.4837 50.2565 23.8483 49.541 24.0898L48.7617 22.8867C49.3997 22.6771 49.9443 22.3695 50.3955 21.9639C50.8512 21.5583 51.1953 21.098 51.4277 20.583C51.6647 20.0635 51.7832 19.5326 51.7832 18.9902V18.8262H49.2129V17.6094H55.8848V18.8262H53.3281V18.9766ZM50.7168 24.8145H59.1387V29.2168H57.6211V26.0312H50.7168V24.8145ZM55.5156 19.9199H57.6211V16.8574H59.1387V24.2266H57.6211V21.1641H55.5156V19.9199ZM71.1836 25.7988H69.6523V16.8711H71.1836V25.7988ZM61.1074 20.7676C61.1074 20.1797 61.2533 19.651 61.5449 19.1816C61.8411 18.7122 62.2422 18.3454 62.748 18.0811C63.2585 17.8122 63.8236 17.6777 64.4434 17.6777C65.0632 17.6777 65.626 17.8122 66.1318 18.0811C66.6423 18.3454 67.041 18.7122 67.3281 19.1816C67.6198 19.651 67.7656 20.1797 67.7656 20.7676C67.7656 21.3646 67.6198 21.9001 67.3281 22.374C67.041 22.8434 66.6423 23.2103 66.1318 23.4746C65.626 23.7389 65.0632 23.8711 64.4434 23.8711C63.8236 23.8711 63.2585 23.7389 62.748 23.4746C62.2422 23.2103 61.8411 22.8434 61.5449 22.374C61.2533 21.9001 61.1074 21.3646 61.1074 20.7676ZM62.5977 20.7676C62.5977 21.123 62.6751 21.4352 62.8301 21.7041C62.9896 21.973 63.2083 22.1803 63.4863 22.3262C63.7689 22.472 64.0879 22.5449 64.4434 22.5449C64.7897 22.5449 65.1019 22.472 65.3799 22.3262C65.6579 22.1803 65.8766 21.973 66.0361 21.7041C66.1956 21.4352 66.2754 21.123 66.2754 20.7676C66.2754 20.4212 66.1956 20.1136 66.0361 19.8447C65.8766 19.5758 65.6556 19.3685 65.373 19.2227C65.0951 19.0768 64.7852 19.0039 64.4434 19.0039C64.0924 19.0039 63.7757 19.0768 63.4932 19.2227C63.2106 19.3685 62.9896 19.5758 62.8301 19.8447C62.6751 20.1136 62.5977 20.4212 62.5977 20.7676ZM63.0078 24.8965H64.5391V27.7402H71.5254V28.9707H63.0078V24.8965ZM86.6055 25.8945H85.0742V16.8711H86.6055V25.8945ZM76.3242 22.9824C76.9714 22.7546 77.5228 22.4242 77.9785 21.9912C78.4342 21.5537 78.776 21.057 79.0039 20.501C79.2363 19.9404 79.3503 19.3594 79.3457 18.7578V17.5547H80.918V18.7578C80.9134 19.3411 81.0228 19.8971 81.2461 20.4258C81.474 20.9544 81.8112 21.4238 82.2578 21.834C82.7044 22.2396 83.2467 22.5495 83.8848 22.7637L83.1055 23.9668C82.4128 23.7253 81.8158 23.3698 81.3145 22.9004C80.8132 22.4264 80.4235 21.8682 80.1455 21.2256C79.8675 21.9183 79.471 22.5199 78.9561 23.0303C78.4411 23.5407 77.8281 23.9258 77.1172 24.1855L76.3242 22.9824ZM78.4297 25.0332H79.9609V27.7402H86.9473V28.9707H78.4297V25.0332ZM90.666 22.4629C91.5319 22.4538 92.3226 22.4242 93.0381 22.374C93.7536 22.3193 94.4805 22.2305 95.2188 22.1074L95.3691 23.3105C94.5671 23.4609 93.7718 23.5658 92.9834 23.625C92.1995 23.6797 91.3132 23.707 90.3242 23.707H90.0918H89.1348V17.418H90.666V22.4629ZM90.6113 24.6094H98.7598V29.0664H90.6113V24.6094ZM97.2559 27.8359V25.8262H92.1016V27.8359H97.2559ZM94.043 20.248H97.2422V19.2363H94.043V18.0879H97.2422V16.8574H98.7598V24.1035H97.2422V21.3965H94.043V20.248ZM107.414 19.0176C107.414 19.8288 107.394 20.5967 107.353 21.3213C107.316 22.0413 107.223 22.8685 107.072 23.8027L105.568 23.6797C105.701 22.8457 105.789 22.0892 105.835 21.4102C105.881 20.7311 105.906 20.0475 105.91 19.3594H101.057V18.1426H107.414V19.0176ZM100.4 25.4023C101.467 25.3932 102.264 25.3818 102.793 25.3682V21.6699H104.297V25.3203C105.719 25.2565 106.963 25.1608 108.029 25.0332L108.111 26.168C106.257 26.4688 103.939 26.6191 101.159 26.6191H100.551L100.4 25.4023ZM108.672 16.8574H110.203V21.8887H111.994V23.1738H110.203V29.2168H108.672V16.8574ZM125.762 21.6562H122.316V22.9551H127.197V24.1855H115.932V22.9551H120.785V21.6562H117.354V17.3633H125.762V21.6562ZM117.176 25.2246H125.816V29.2168H124.299V26.4277H117.176V25.2246ZM124.258 20.4531V18.5527H118.83V20.4531H124.258ZM139.324 27.7949H128.031V26.5645H130.957V24.0215H129.002V22.791H130.738V19.127H128.961V17.9102H138.34V19.127H136.535V22.791H138.299V24.0215H136.344V26.5645H139.324V27.7949ZM135.031 22.791V19.127H132.256V22.791H135.031ZM134.826 26.5645V24.0215H132.475V26.5645H134.826ZM150.795 29.2168H149.332V16.8574H150.795V29.2168ZM140.254 22.2031C140.254 21.3053 140.363 20.526 140.582 19.8652C140.801 19.1999 141.111 18.6895 141.512 18.334C141.917 17.9785 142.387 17.8008 142.92 17.8008C143.417 17.8008 143.856 17.9489 144.239 18.2451C144.627 18.5413 144.937 18.9674 145.169 19.5234C145.406 20.0794 145.554 20.7402 145.613 21.5059H146.803V17.0762H148.252V28.6152H146.803V22.7363H145.627C145.581 23.5339 145.44 24.2266 145.203 24.8145C144.971 25.3978 144.659 25.8444 144.267 26.1543C143.875 26.4642 143.426 26.6191 142.92 26.6191C142.387 26.6191 141.917 26.4414 141.512 26.0859C141.111 25.7305 140.801 25.2201 140.582 24.5547C140.363 23.8848 140.254 23.1009 140.254 22.2031ZM141.662 22.2441C141.662 23.1875 141.771 23.9121 141.99 24.418C142.214 24.9238 142.523 25.1745 142.92 25.1699C143.335 25.1745 143.656 24.9215 143.884 24.4111C144.112 23.9007 144.228 23.1647 144.232 22.2031C144.228 21.2461 144.112 20.5124 143.884 20.002C143.656 19.487 143.335 19.2318 142.92 19.2363C142.519 19.2318 142.209 19.4893 141.99 20.0088C141.771 20.5283 141.662 21.2734 141.662 22.2441ZM53.0068 50.2168H51.5576V43.9141H50.1631V49.5879H48.7686V38.0898H50.1631V42.6973H51.5576V37.8574H53.0068V50.2168ZM42.7529 39.3203H47.374V40.5508H44.2842V46.0469C44.9997 46.0378 45.6468 46.0104 46.2256 45.9648C46.8044 45.9193 47.3923 45.8418 47.9893 45.7324L48.0986 46.9766C47.4105 47.1133 46.7337 47.2044 46.0684 47.25C45.4076 47.2956 44.5804 47.3229 43.5869 47.332H42.7529V39.3203ZM64.2178 41.7539H65.9404V43.0117H64.2178V47.0996H62.7002V37.8711H64.2178V41.7539ZM54.4834 39.2383H57.3955V37.8574H58.9131V39.2383H61.8115V40.4551H54.4834V39.2383ZM55.1123 43.3262C55.1123 42.8568 55.2399 42.4443 55.4951 42.0889C55.7503 41.7288 56.1081 41.4508 56.5684 41.2549C57.0286 41.0589 57.555 40.9609 58.1475 40.9609C58.7354 40.9609 59.2572 41.0589 59.7129 41.2549C60.1732 41.4508 60.5309 41.7288 60.7861 42.0889C61.0413 42.4443 61.1689 42.8568 61.1689 43.3262C61.1689 43.791 61.0413 44.2012 60.7861 44.5566C60.5309 44.9076 60.1755 45.181 59.7197 45.377C59.264 45.5684 58.7399 45.6641 58.1475 45.6641C57.5505 45.6641 57.0218 45.5684 56.5615 45.377C56.1058 45.181 55.7503 44.9076 55.4951 44.5566C55.2399 44.2012 55.1123 43.791 55.1123 43.3262ZM56.3018 46.375H57.8193V48.7402H64.71V49.9707H56.3018V46.375ZM56.5889 43.3262C56.5843 43.6908 56.721 43.9756 56.999 44.1807C57.2816 44.3857 57.6576 44.4883 58.127 44.4883C58.61 44.4883 58.9951 44.388 59.2822 44.1875C59.5739 43.9824 59.7197 43.6953 59.7197 43.3262C59.7197 42.957 59.5762 42.6676 59.2891 42.458C59.002 42.2438 58.6214 42.1367 58.1475 42.1367C57.6735 42.1367 57.293 42.2438 57.0059 42.458C56.7233 42.6676 56.5843 42.957 56.5889 43.3262ZM80.1592 44.2285H78.6553V37.8574H80.1592V44.2285ZM69.9873 43.1211C70.6117 42.9388 71.1471 42.6722 71.5938 42.3213C72.0449 41.9704 72.3913 41.5693 72.6328 41.1182C72.8789 40.667 73.0156 40.1953 73.043 39.7031H70.3838V38.4727H77.1787V39.7031H74.5879C74.6107 40.168 74.7428 40.6123 74.9844 41.0361C75.2259 41.4554 75.57 41.8268 76.0166 42.1504C76.4632 42.474 76.9964 42.7201 77.6162 42.8887L76.8779 44.0645C76.1715 43.8594 75.5609 43.5495 75.0459 43.1348C74.5309 42.7155 74.1299 42.221 73.8428 41.6514C73.5557 42.2848 73.1432 42.834 72.6055 43.2988C72.0723 43.7591 71.432 44.1009 70.6846 44.3242L69.9873 43.1211ZM71.9834 44.748H80.1865V47.9336H73.501V48.9316H80.5557V50.1074H72.0107V46.8262H78.6689V45.9102H71.9834V44.748ZM93.2705 45.2539H88.499V47.5234H86.9951V45.2539H81.9775V44.0371H93.2705V45.2539ZM83.3447 46.3887H84.8623V48.7402H92.0264V49.9707H83.3447V46.3887ZM83.4131 38.418H91.8213V42.8887H83.4131V38.418ZM90.3174 41.6992V39.6074H84.8896V41.6992H90.3174ZM104.372 50.2305H102.841V37.8574H104.372V50.2305ZM94.4873 43.1211C94.4873 42.2507 94.624 41.485 94.8975 40.8242C95.1709 40.1634 95.5514 39.6553 96.0391 39.2998C96.5312 38.9398 97.0895 38.7598 97.7139 38.7598C98.3291 38.7598 98.8805 38.9398 99.3682 39.2998C99.8604 39.6553 100.245 40.1634 100.523 40.8242C100.801 41.485 100.94 42.2507 100.94 43.1211C100.94 44.0007 100.801 44.7708 100.523 45.4316C100.245 46.0924 99.8604 46.6029 99.3682 46.9629C98.8805 47.3184 98.3291 47.4961 97.7139 47.4961C97.0895 47.4961 96.5312 47.3184 96.0391 46.9629C95.5514 46.6029 95.1709 46.0924 94.8975 45.4316C94.624 44.7708 94.4873 44.0007 94.4873 43.1211ZM95.9502 43.1211C95.9502 43.7454 96.0231 44.2832 96.1689 44.7344C96.3193 45.1855 96.5267 45.5296 96.791 45.7666C97.0553 46.0036 97.363 46.1243 97.7139 46.1289C98.0602 46.1243 98.3656 46.0036 98.6299 45.7666C98.8942 45.5296 99.0993 45.1855 99.2451 44.7344C99.391 44.2832 99.4639 43.7454 99.4639 43.1211C99.4639 42.5013 99.391 41.9681 99.2451 41.5215C99.0993 41.0703 98.8942 40.7262 98.6299 40.4893C98.3656 40.2477 98.0602 40.127 97.7139 40.127C97.363 40.127 97.0553 40.2477 96.791 40.4893C96.5267 40.7262 96.3193 41.0703 96.1689 41.5215C96.0231 41.9681 95.9502 42.5013 95.9502 43.1211ZM116.854 50.2168H115.392V37.8574H116.854V50.2168ZM106.313 43.2031C106.313 42.3053 106.423 41.526 106.642 40.8652C106.86 40.1999 107.17 39.6895 107.571 39.334C107.977 38.9785 108.446 38.8008 108.979 38.8008C109.476 38.8008 109.916 38.9489 110.299 39.2451C110.686 39.5413 110.996 39.9674 111.229 40.5234C111.465 41.0794 111.614 41.7402 111.673 42.5059H112.862V38.0762H114.312V49.6152H112.862V43.7363H111.687C111.641 44.5339 111.5 45.2266 111.263 45.8145C111.03 46.3978 110.718 46.8444 110.326 47.1543C109.934 47.4642 109.485 47.6191 108.979 47.6191C108.446 47.6191 107.977 47.4414 107.571 47.0859C107.17 46.7305 106.86 46.2201 106.642 45.5547C106.423 44.8848 106.313 44.1009 106.313 43.2031ZM107.722 43.2441C107.722 44.1875 107.831 44.9121 108.05 45.418C108.273 45.9238 108.583 46.1745 108.979 46.1699C109.394 46.1745 109.715 45.9215 109.943 45.4111C110.171 44.9007 110.287 44.1647 110.292 43.2031C110.287 42.2461 110.171 41.5124 109.943 41.002C109.715 40.487 109.394 40.2318 108.979 40.2363C108.578 40.2318 108.269 40.4893 108.05 41.0088C107.831 41.5283 107.722 42.2734 107.722 43.2441ZM129.583 48.7129H118.29V47.4688H120.901V44.3447C120.4 44.0576 120.01 43.6953 119.732 43.2578C119.459 42.8203 119.325 42.3327 119.329 41.7949C119.329 41.1478 119.523 40.5781 119.91 40.0859C120.302 39.5892 120.847 39.2064 121.544 38.9375C122.241 38.6641 123.03 38.5273 123.909 38.5273C124.793 38.5273 125.584 38.6641 126.281 38.9375C126.983 39.2064 127.53 39.5892 127.922 40.0859C128.318 40.5781 128.517 41.1478 128.517 41.7949C128.521 42.3236 128.389 42.8021 128.12 43.2305C127.851 43.6589 127.473 44.0189 126.985 44.3105V47.4688H129.583V48.7129ZM120.819 41.7949C120.819 42.2096 120.947 42.5742 121.202 42.8887C121.462 43.1986 121.824 43.4378 122.289 43.6064C122.758 43.7751 123.299 43.8594 123.909 43.8594C124.52 43.8594 125.06 43.7751 125.529 43.6064C126.003 43.4378 126.37 43.1986 126.63 42.8887C126.894 42.5742 127.026 42.2096 127.026 41.7949C127.026 41.3757 126.894 41.0088 126.63 40.6943C126.37 40.3799 126.003 40.1406 125.529 39.9766C125.06 39.8125 124.52 39.7305 123.909 39.7305C123.294 39.7305 122.752 39.8125 122.282 39.9766C121.817 40.1406 121.457 40.3799 121.202 40.6943C120.947 41.0042 120.819 41.3711 120.819 41.7949ZM125.44 47.4688V44.8916C124.957 44.9964 124.447 45.0488 123.909 45.0488C123.394 45.0488 122.893 44.9987 122.405 44.8984V47.4688H125.44ZM132.782 46.0879H131.237L131.073 39.1016H132.933L132.782 46.0879ZM130.95 48.043C130.95 47.8561 130.998 47.6829 131.094 47.5234C131.189 47.3594 131.319 47.2295 131.483 47.1338C131.647 47.0381 131.825 46.9902 132.017 46.9902C132.203 46.9902 132.377 47.0381 132.536 47.1338C132.7 47.2295 132.83 47.3594 132.926 47.5234C133.021 47.6829 133.069 47.8561 133.069 48.043C133.069 48.2344 133.021 48.4121 132.926 48.5762C132.83 48.7402 132.7 48.8701 132.536 48.9658C132.377 49.0615 132.203 49.1094 132.017 49.1094C131.825 49.1094 131.647 49.0615 131.483 48.9658C131.319 48.8701 131.189 48.7402 131.094 48.5762C130.998 48.4121 130.95 48.2344 130.95 48.043Z" fill="#576DFC"/>
<path d="M87.2474 73.1399C87.6458 73.5952 88.3542 73.5952 88.7526 73.1399L95 66H81L87.2474 73.1399Z" fill="#E4E8FF"/>
</svg>
