<svg width="156" height="74" viewBox="0 0 156 74" fill="none" xmlns="http://www.w3.org/2000/svg">
<path d="M0 20C0 8.95431 8.95431 0 20 0H136C147.046 0 156 8.95431 156 20V46C156 57.0457 147.046 66 136 66H20C8.9543 66 0 57.0457 0 46V20Z" fill="#E4E8FF"/>
<path d="M34.9404 29.2305H33.4092V16.8574H34.9404V29.2305ZM25.0557 22.1211C25.0557 21.2507 25.1924 20.485 25.4658 19.8242C25.7393 19.1634 26.1198 18.6553 26.6074 18.2998C27.0996 17.9398 27.6579 17.7598 28.2822 17.7598C28.8975 17.7598 29.4489 17.9398 29.9365 18.2998C30.4287 18.6553 30.8138 19.1634 31.0918 19.8242C31.3698 20.485 31.5088 21.2507 31.5088 22.1211C31.5088 23.0007 31.3698 23.7708 31.0918 24.4316C30.8138 25.0924 30.4287 25.6029 29.9365 25.9629C29.4489 26.3184 28.8975 26.4961 28.2822 26.4961C27.6579 26.4961 27.0996 26.3184 26.6074 25.9629C26.1198 25.6029 25.7393 25.0924 25.4658 24.4316C25.1924 23.7708 25.0557 23.0007 25.0557 22.1211ZM26.5186 22.1211C26.5186 22.7454 26.5915 23.2832 26.7373 23.7344C26.8877 24.1855 27.0951 24.5296 27.3594 24.7666C27.6237 25.0036 27.9313 25.1243 28.2822 25.1289C28.6286 25.1243 28.9339 25.0036 29.1982 24.7666C29.4626 24.5296 29.6676 24.1855 29.8135 23.7344C29.9593 23.2832 30.0322 22.7454 30.0322 22.1211C30.0322 21.5013 29.9593 20.9681 29.8135 20.5215C29.6676 20.0703 29.4626 19.7262 29.1982 19.4893C28.9339 19.2477 28.6286 19.127 28.2822 19.127C27.9313 19.127 27.6237 19.2477 27.3594 19.4893C27.0951 19.7262 26.8877 20.0703 26.7373 20.5215C26.5915 20.9681 26.5186 21.5013 26.5186 22.1211ZM47.3955 29.2168H45.9463V16.8574H47.3955V29.2168ZM36.54 25.7031C37.1143 25.3522 37.5928 24.8896 37.9756 24.3154C38.363 23.7367 38.6478 23.0986 38.8301 22.4014C39.0169 21.6995 39.1104 20.9772 39.1104 20.2344V19.4141H36.9639V18.1836H42.5693V19.4141H40.5732V20.2344C40.5732 20.9544 40.6621 21.6471 40.8398 22.3125C41.0176 22.9779 41.2933 23.5817 41.667 24.124C42.0452 24.6663 42.5192 25.1016 43.0889 25.4297L42.1865 26.5508C41.6305 26.2227 41.1589 25.7806 40.7715 25.2246C40.3841 24.6641 40.0788 24.0192 39.8555 23.29C39.6276 24.083 39.3132 24.7848 38.9121 25.3955C38.5156 26.0062 38.0348 26.487 37.4697 26.8379L36.54 25.7031ZM41.667 21.1641H43.4443V17.0898H44.8799V28.6152H43.4443V22.3945H41.667V21.1641ZM62.5303 29.2168H61.0127V22.9277H58.4014V21.6836H61.0127V16.8574H62.5303V29.2168ZM52.0986 25.7988C53.6618 25.0332 54.8239 24.1263 55.585 23.0781C56.346 22.0299 56.7926 20.7949 56.9248 19.373H52.6729V18.1699H58.4561C58.4515 19.4551 58.2738 20.6309 57.9229 21.6973C57.5765 22.7591 56.9932 23.7367 56.1729 24.6299C55.3571 25.5231 54.2633 26.3092 52.8916 26.9883L52.0986 25.7988ZM68.2861 17.7188C68.9333 17.7188 69.5143 17.8464 70.0293 18.1016C70.5443 18.3522 70.9476 18.7054 71.2393 19.1611C71.5355 19.6123 71.6859 20.125 71.6904 20.6992C71.6859 21.278 71.5355 21.7952 71.2393 22.251C70.9476 22.7021 70.5443 23.0553 70.0293 23.3105C69.5143 23.5658 68.9333 23.6934 68.2861 23.6934C67.6436 23.6934 67.0625 23.5658 66.543 23.3105C66.028 23.0553 65.6247 22.6999 65.333 22.2441C65.0413 21.7884 64.8955 21.2734 64.8955 20.6992C64.8955 20.125 65.0413 19.6123 65.333 19.1611C65.6292 18.7054 66.0348 18.3522 66.5498 18.1016C67.0648 17.8464 67.6436 17.7188 68.2861 17.7188ZM64.335 25.4023C65.848 25.4023 67.2607 25.3773 68.5732 25.3271C69.8857 25.2725 71.1344 25.1608 72.3193 24.9922L72.4424 26.0996C71.221 26.332 69.9746 26.4824 68.7031 26.5508C67.4362 26.6146 66.0439 26.6465 64.5264 26.6465L64.335 25.4023ZM66.3994 20.6992C66.3994 21.0365 66.4792 21.3327 66.6387 21.5879C66.8027 21.8385 67.0283 22.0322 67.3154 22.1689C67.6025 22.3011 67.9261 22.3672 68.2861 22.3672C68.6507 22.3672 68.9766 22.3011 69.2637 22.1689C69.5553 22.0322 69.7832 21.8385 69.9473 21.5879C70.1159 21.3327 70.2002 21.0365 70.2002 20.6992C70.2002 20.362 70.1159 20.068 69.9473 19.8174C69.7832 19.5667 69.5553 19.373 69.2637 19.2363C68.9766 19.0996 68.6507 19.0312 68.2861 19.0312C67.9261 19.0312 67.6025 19.0996 67.3154 19.2363C67.0283 19.373 66.8027 19.569 66.6387 19.8242C66.4792 20.0749 66.3994 20.3665 66.3994 20.6992ZM73.0576 16.8574H74.5752V29.2305H73.0576V16.8574ZM89.3818 21.5469H91.2822V22.791H89.3818V29.2305H87.8643V16.8574H89.3818V21.5469ZM80.208 18.0332H85.9912V19.2637H81.7256V24.9375C82.7282 24.9329 83.6305 24.901 84.4326 24.8418C85.2347 24.7826 86.0459 24.6823 86.8662 24.541L87.0439 25.8262C86.1462 25.9811 85.262 26.0837 84.3916 26.1338C83.5212 26.1839 82.4684 26.209 81.2334 26.209H80.208V18.0332ZM101.591 20.002H103.259V21.2461H101.591V24.3223H100.073V16.8711H101.591V20.002ZM91.7744 22.7773C92.8818 22.7773 93.889 22.766 94.7959 22.7432V21.8066C94.3265 21.7337 93.9141 21.5947 93.5586 21.3896C93.2031 21.18 92.9274 20.918 92.7314 20.6035C92.54 20.2845 92.4443 19.9336 92.4443 19.5508C92.4443 19.0905 92.5742 18.6826 92.834 18.3271C93.0938 17.9717 93.4561 17.696 93.9209 17.5C94.3903 17.2995 94.9281 17.1992 95.5342 17.1992C96.1312 17.1992 96.6644 17.2995 97.1338 17.5C97.6032 17.696 97.9701 17.9717 98.2344 18.3271C98.4987 18.6826 98.6331 19.0905 98.6377 19.5508C98.6331 19.929 98.5352 20.2754 98.3438 20.5898C98.1523 20.8997 97.8835 21.1595 97.5371 21.3691C97.1908 21.5742 96.7874 21.7155 96.3271 21.793V22.6816C97.4665 22.6224 98.4736 22.5267 99.3486 22.3945L99.4854 23.4609C98.346 23.666 97.1657 23.8005 95.9443 23.8643C94.723 23.9281 93.3877 23.9622 91.9385 23.9668L91.7744 22.7773ZM92.1709 27.9453C92.6904 27.7767 93.1279 27.5465 93.4834 27.2549C93.8389 26.9587 94.1032 26.626 94.2764 26.2568C94.4541 25.8831 94.5452 25.4935 94.5498 25.0879V24.8281H96.04V25.0879C96.0355 25.5983 96.1608 26.0882 96.416 26.5576C96.6712 27.027 97.0518 27.4167 97.5576 27.7266C98.0589 27.4076 98.4395 27.0111 98.6992 26.5371C98.9635 26.0632 99.098 25.5801 99.1025 25.0879V24.8281H100.593V25.0879C100.588 25.5026 100.673 25.8968 100.846 26.2705C101.023 26.6442 101.292 26.9769 101.652 27.2686C102.012 27.5602 102.457 27.7858 102.985 27.9453L102.233 29.0664C101.659 28.875 101.169 28.5993 100.764 28.2393C100.358 27.8838 100.046 27.4645 99.8271 26.9814C99.613 27.4827 99.3167 27.9225 98.9385 28.3008C98.5602 28.6836 98.0999 28.9753 97.5576 29.1758C97.0062 28.9707 96.5413 28.679 96.1631 28.3008C95.7894 27.9271 95.5 27.4919 95.2949 26.9951C95.0671 27.4691 94.7526 27.8838 94.3516 28.2393C93.9505 28.5993 93.4697 28.875 92.9092 29.0664L92.1709 27.9453ZM93.8662 19.5508C93.8617 19.7878 93.9277 19.9974 94.0645 20.1797C94.2012 20.362 94.3971 20.5033 94.6523 20.6035C94.9076 20.7038 95.2015 20.7539 95.5342 20.7539C95.8623 20.7539 96.1517 20.7038 96.4023 20.6035C96.653 20.5033 96.849 20.362 96.9902 20.1797C97.1315 19.9974 97.2021 19.7878 97.2021 19.5508C97.1976 19.1771 97.0426 18.8809 96.7373 18.6621C96.4365 18.4434 96.0355 18.334 95.5342 18.334C95.0238 18.334 94.6159 18.4434 94.3105 18.6621C94.0098 18.8809 93.8617 19.1771 93.8662 19.5508ZM107.278 17.7598C107.83 17.7598 108.329 17.9079 108.775 18.2041C109.222 18.5003 109.587 18.9242 109.869 19.4756C110.152 20.0225 110.329 20.6673 110.402 21.4102H112.761V16.8574H114.265V29.2305H112.761V22.6406H110.416C110.361 23.4245 110.195 24.1081 109.917 24.6914C109.639 25.2702 109.272 25.7168 108.816 26.0312C108.361 26.3411 107.848 26.4961 107.278 26.4961C106.659 26.4961 106.107 26.3184 105.624 25.9629C105.146 25.6029 104.772 25.0924 104.503 24.4316C104.239 23.7708 104.106 23.0007 104.106 22.1211C104.106 21.2461 104.239 20.4805 104.503 19.8242C104.772 19.1634 105.148 18.6553 105.631 18.2998C106.114 17.9398 106.663 17.7598 107.278 17.7598ZM105.569 22.1211C105.569 22.7454 105.64 23.2832 105.781 23.7344C105.923 24.1855 106.121 24.5296 106.376 24.7666C106.636 25.0036 106.937 25.1243 107.278 25.1289C107.62 25.1243 107.921 25.0036 108.181 24.7666C108.44 24.5296 108.641 24.1855 108.782 23.7344C108.928 23.2832 109.001 22.7454 109.001 22.1211C109.001 21.5013 108.928 20.9658 108.782 20.5146C108.641 20.0635 108.44 19.7194 108.181 19.4824C107.921 19.2454 107.62 19.127 107.278 19.127C106.937 19.127 106.636 19.2477 106.376 19.4893C106.121 19.7262 105.923 20.0703 105.781 20.5215C105.64 20.9681 105.569 21.5013 105.569 22.1211ZM127.294 27.7129H116.001V26.4688H118.612V23.3447C118.111 23.0576 117.721 22.6953 117.443 22.2578C117.17 21.8203 117.035 21.3327 117.04 20.7949C117.04 20.1478 117.234 19.5781 117.621 19.0859C118.013 18.5892 118.558 18.2064 119.255 17.9375C119.952 17.6641 120.741 17.5273 121.62 17.5273C122.504 17.5273 123.295 17.6641 123.992 17.9375C124.694 18.2064 125.241 18.5892 125.633 19.0859C126.029 19.5781 126.228 20.1478 126.228 20.7949C126.232 21.3236 126.1 21.8021 125.831 22.2305C125.562 22.6589 125.184 23.0189 124.696 23.3105V26.4688H127.294V27.7129ZM118.53 20.7949C118.53 21.2096 118.658 21.5742 118.913 21.8887C119.173 22.1986 119.535 22.4378 120 22.6064C120.469 22.7751 121.009 22.8594 121.62 22.8594C122.231 22.8594 122.771 22.7751 123.24 22.6064C123.714 22.4378 124.081 22.1986 124.341 21.8887C124.605 21.5742 124.737 21.2096 124.737 20.7949C124.737 20.3757 124.605 20.0088 124.341 19.6943C124.081 19.3799 123.714 19.1406 123.24 18.9766C122.771 18.8125 122.231 18.7305 121.62 18.7305C121.005 18.7305 120.463 18.8125 119.993 18.9766C119.528 19.1406 119.168 19.3799 118.913 19.6943C118.658 20.0042 118.53 20.3711 118.53 20.7949ZM123.151 26.4688V23.8916C122.668 23.9964 122.158 24.0488 121.62 24.0488C121.105 24.0488 120.604 23.9987 120.116 23.8984V26.4688H123.151ZM130.493 25.0879H128.948L128.784 18.1016H130.644L130.493 25.0879ZM128.661 27.043C128.661 26.8561 128.709 26.6829 128.805 26.5234C128.9 26.3594 129.03 26.2295 129.194 26.1338C129.358 26.0381 129.536 25.9902 129.728 25.9902C129.914 25.9902 130.088 26.0381 130.247 26.1338C130.411 26.2295 130.541 26.3594 130.637 26.5234C130.732 26.6829 130.78 26.8561 130.78 27.043C130.78 27.2344 130.732 27.4121 130.637 27.5762C130.541 27.7402 130.411 27.8701 130.247 27.9658C130.088 28.0615 129.914 28.1094 129.728 28.1094C129.536 28.1094 129.358 28.0615 129.194 27.9658C129.03 27.8701 128.9 27.7402 128.805 27.5762C128.709 27.4121 128.661 27.2344 128.661 27.043ZM36.3691 42.5469H38.2695V43.791H36.3691V50.2305H34.8516V37.8574H36.3691V42.5469ZM27.1953 39.0332H32.9785V40.2637H28.7129V45.9375C29.7155 45.9329 30.6178 45.901 31.4199 45.8418C32.222 45.7826 33.0332 45.6823 33.8535 45.541L34.0312 46.8262C33.1335 46.9811 32.2493 47.0837 31.3789 47.1338C30.5085 47.1839 29.4557 47.209 28.2207 47.209H27.1953V39.0332ZM44.4082 38.1035C45.3151 38.1035 46.1035 38.1992 46.7734 38.3906C47.4434 38.582 47.9583 38.86 48.3184 39.2246C48.6829 39.5846 48.8652 40.013 48.8652 40.5098C48.8652 40.9974 48.6829 41.4189 48.3184 41.7744C47.9583 42.1253 47.4434 42.3942 46.7734 42.5811C46.1035 42.7679 45.3151 42.8613 44.4082 42.8613C43.5104 42.8613 42.7243 42.7679 42.0498 42.5811C41.3799 42.3942 40.8626 42.1253 40.498 41.7744C40.1335 41.4189 39.9512 40.9974 39.9512 40.5098C39.9512 40.013 40.1335 39.5846 40.498 39.2246C40.8626 38.86 41.3799 38.582 42.0498 38.3906C42.7243 38.1992 43.5104 38.1035 44.4082 38.1035ZM38.7891 43.6953H50.0547V44.9258H38.7891V43.6953ZM40.1152 45.9102H48.6875V50.0664H40.1152V45.9102ZM41.5371 40.5098C41.5326 40.8789 41.7832 41.166 42.2891 41.3711C42.7949 41.5762 43.5013 41.681 44.4082 41.6855C45.3151 41.681 46.0215 41.5762 46.5273 41.3711C47.0378 41.166 47.293 40.8789 47.293 40.5098C47.293 40.1178 47.04 39.8171 46.5342 39.6074C46.0283 39.3978 45.3197 39.293 44.4082 39.293C43.4967 39.293 42.7881 39.3978 42.2822 39.6074C41.7809 39.8171 41.5326 40.1178 41.5371 40.5098ZM47.2109 48.8359V47.1133H41.6191V48.8359H47.2109ZM63.959 41.3301H65.6953V42.5879H63.959V46.7988H62.4414V37.8574H63.959V41.3301ZM54.7305 38.8828H60.2676V40.0996H56.2344V43.4629C57.4375 43.4629 58.4059 43.4378 59.1396 43.3877C59.8779 43.333 60.6048 43.2305 61.3203 43.0801L61.4844 44.3105C60.696 44.4655 59.8893 44.5703 59.0645 44.625C58.2396 44.6797 57.1276 44.707 55.7285 44.707H54.7305V38.8828ZM56.043 45.8555H57.5605V48.7402H64.4512V49.9707H56.043V45.8555ZM76.9746 50.2168H75.5254V37.8574H76.9746V50.2168ZM66.1875 46.5254C67.4408 45.7826 68.3841 44.9258 69.0176 43.9551C69.6556 42.9844 70.0339 41.8633 70.1523 40.5918H66.8438V39.3613H71.6562C71.6562 39.9993 71.613 40.6055 71.5264 41.1797H72.9688V38.1582H74.418V49.6289H72.9688V45.5H71.041V44.2559H72.9688V42.4238H71.2666C70.9613 43.4857 70.4668 44.4495 69.7832 45.3154C69.1042 46.1768 68.2018 46.9401 67.0762 47.6055L66.1875 46.5254ZM89.7031 48.7812H78.4102V47.5234H83.2773V45.5137H79.75V41.4668H86.8594V39.9355H79.7227V38.7051H88.3633V42.6699H81.2676V44.2695H88.6504V45.5137H84.7812V47.5234H89.7031V48.7812ZM98.7266 42.4102H95.8281V43.8662C96.5938 43.8571 97.2614 43.8298 97.8311 43.7842C98.4007 43.734 98.9818 43.6497 99.5742 43.5312L99.7246 44.7344C99.041 44.8665 98.3665 44.9554 97.7012 45.001C97.0358 45.042 96.1973 45.0625 95.1855 45.0625H94.3516V41.2891H97.2637V39.9629H94.3379V38.7461H98.7266V42.4102ZM95.3359 49C96.1426 48.8906 96.8535 48.6855 97.4688 48.3848C98.084 48.0794 98.5602 47.7148 98.8975 47.291C99.2347 46.8672 99.4056 46.4206 99.4102 45.9512V45.6914H100.928V45.9512C100.923 46.4206 101.087 46.8672 101.42 47.291C101.757 47.7148 102.233 48.0794 102.849 48.3848C103.468 48.6855 104.186 48.8906 105.002 49L104.414 50.1484C103.443 50.0072 102.589 49.7292 101.851 49.3145C101.112 48.9043 100.552 48.3962 100.169 47.79C99.7861 48.3962 99.2256 48.9043 98.4873 49.3145C97.749 49.7292 96.8945 50.0072 95.9238 50.1484L95.3359 49ZM99.1777 40.7969H100.463V38.1172H101.898V45.2539H100.463V42.0137H99.1777V40.7969ZM102.951 37.8711H104.4V46.293H102.951V37.8711ZM117.225 48.7266H105.932V47.4824H117.225V48.7266ZM106.424 44.4883C107.285 44.3607 108.039 44.1214 108.687 43.7705C109.334 43.415 109.837 42.9889 110.197 42.4922C110.557 41.9954 110.756 41.4668 110.792 40.9062H106.93V39.6758H110.812V38.0898H112.316V39.6758H116.213V40.9062H112.351C112.382 41.4668 112.578 41.9954 112.938 42.4922C113.299 42.9889 113.802 43.415 114.449 43.7705C115.096 44.1214 115.853 44.3607 116.719 44.4883L116.131 45.7051C115.078 45.5319 114.155 45.2038 113.362 44.7207C112.574 44.2331 111.975 43.6315 111.564 42.916C111.154 43.627 110.553 44.2262 109.76 44.7139C108.971 45.2015 108.051 45.5319 106.998 45.7051L106.424 44.4883ZM128.121 40.1816V40.3252C128.117 41.0133 128.103 41.6104 128.08 42.1162C128.062 42.6175 128.019 43.2008 127.95 43.8662C127.882 44.527 127.775 45.2448 127.629 46.0195L126.098 45.8555C126.248 45.1126 126.357 44.4131 126.426 43.7568C126.499 43.096 126.542 42.515 126.556 42.0137C126.574 41.5124 126.585 40.9108 126.59 40.209H119.207V38.9922H128.121V40.1816ZM118.031 47.373H122.188V43.0801H123.691V47.373H129.297V48.6172H118.031V47.373Z" fill="#576DFC"/>
<path d="M77.2474 73.1399C77.6458 73.5952 78.3542 73.5952 78.7526 73.1399L85 66H71L77.2474 73.1399Z" fill="#E4E8FF"/>
</svg>
