<svg width="188" height="74" viewBox="0 0 188 74" fill="none" xmlns="http://www.w3.org/2000/svg">
<path d="M0 20C0 8.95431 8.95431 0 20 0H168C179.046 0 188 8.95431 188 20V46C188 57.0457 179.046 66 168 66H20C8.9543 66 0 57.0457 0 46V20Z" fill="#E4E8FF"/>
<path d="M34.2881 20.3301H36.0244V21.5879H34.2881V25.7988H32.7705V16.8574H34.2881V20.3301ZM25.0596 17.8828H30.5967V19.0996H26.5635V22.4629C27.7666 22.4629 28.735 22.4378 29.4688 22.3877C30.207 22.333 30.9339 22.2305 31.6494 22.0801L31.8135 23.3105C31.0251 23.4655 30.2184 23.5703 29.3936 23.625C28.5687 23.6797 27.4567 23.707 26.0576 23.707H25.0596V17.8828ZM26.3721 24.8555H27.8896V27.7402H34.7803V28.9707H26.3721V24.8555ZM43.0518 17.6504C43.0518 18.138 43.2318 18.6165 43.5918 19.0859C43.9518 19.5508 44.4531 19.9541 45.0957 20.2959C45.7428 20.6331 46.4743 20.8587 47.29 20.9727L46.7158 22.1758C45.7087 22.0208 44.8154 21.7109 44.0361 21.2461C43.2614 20.7812 42.6758 20.2139 42.2793 19.5439C41.8783 20.223 41.2881 20.7972 40.5088 21.2666C39.7295 21.736 38.8363 22.0482 37.8291 22.2031L37.2549 21.0137C38.0752 20.8906 38.8066 20.6605 39.4492 20.3232C40.0918 19.9814 40.5931 19.5758 40.9531 19.1064C41.3132 18.637 41.4932 18.1517 41.4932 17.6504V17.1719H43.0518V17.6504ZM36.626 22.9961H47.9189V24.2266H43.1475V26.4824H41.6436V24.2266H36.626V22.9961ZM37.9932 25.375H39.5107V27.7402H46.6748V28.9707H37.9932V25.375ZM59.0205 29.2168H57.4893V16.8574H59.0205V29.2168ZM48.999 18.7715H51.9385V17.0078H53.4834V18.7715H56.4092V19.9883H48.999V18.7715ZM49.5869 23.6934C49.5869 23.1328 49.7214 22.6315 49.9902 22.1895C50.2637 21.7428 50.6374 21.3965 51.1113 21.1504C51.5898 20.9043 52.1299 20.7812 52.7314 20.7812C53.3285 20.7812 53.8662 20.9043 54.3447 21.1504C54.8232 21.3965 55.1969 21.7428 55.4658 22.1895C55.7393 22.6315 55.876 23.1328 55.876 23.6934C55.876 24.2539 55.7393 24.7552 55.4658 25.1973C55.1969 25.6348 54.8232 25.9766 54.3447 26.2227C53.8662 26.4688 53.3285 26.5918 52.7314 26.5918C52.1299 26.5918 51.5898 26.4688 51.1113 26.2227C50.6374 25.9766 50.2637 25.6348 49.9902 25.1973C49.7214 24.7552 49.5869 24.2539 49.5869 23.6934ZM51.0361 23.6934C51.0361 24.0215 51.1068 24.3109 51.248 24.5615C51.3939 24.8122 51.5944 25.0036 51.8496 25.1357C52.1094 25.2679 52.4033 25.334 52.7314 25.334C53.0596 25.334 53.3512 25.2679 53.6064 25.1357C53.8617 25.0036 54.0599 24.8122 54.2012 24.5615C54.3424 24.3109 54.4131 24.0215 54.4131 23.6934C54.4131 23.3652 54.3424 23.0758 54.2012 22.8252C54.0599 22.57 53.8617 22.374 53.6064 22.2373C53.3512 22.096 53.0596 22.0254 52.7314 22.0254C52.4033 22.0254 52.1094 22.096 51.8496 22.2373C51.5944 22.374 51.3939 22.57 51.248 22.8252C51.1068 23.0758 51.0361 23.3652 51.0361 23.6934ZM74.4834 29.2168H72.9521V16.8574H74.4834V29.2168ZM64.2432 25.8125C65.8382 25.056 67.0345 24.1514 67.832 23.0986C68.6341 22.0459 69.1058 20.804 69.2471 19.373H64.8721V18.1699H70.792C70.792 20.1341 70.3477 21.8568 69.459 23.3379C68.5703 24.819 67.096 26.0495 65.0361 27.0293L64.2432 25.8125ZM82.6729 17.2539C82.6729 17.6914 82.8506 18.1084 83.2061 18.5049C83.5615 18.8968 84.0605 19.2318 84.7031 19.5098C85.3503 19.7832 86.0954 19.9655 86.9385 20.0566L86.4326 21.2051C85.3844 21.0866 84.4616 20.8291 83.6641 20.4326C82.8711 20.0316 82.2764 19.5303 81.8799 18.9287C81.4834 19.5303 80.8887 20.0316 80.0957 20.4326C79.3027 20.8291 78.389 21.0866 77.3545 21.2051L76.835 20.0566C77.6781 19.9655 78.4232 19.7832 79.0703 19.5098C79.722 19.2318 80.2256 18.8968 80.5811 18.5049C80.9365 18.1084 81.1143 17.6914 81.1143 17.2539V16.9258H82.6729V17.2539ZM76.2607 21.8203H87.5264V23.0234H82.6318V23.9805H86.1182V27.043H79.0908V27.9453H86.46V29.1074H77.6006V25.9492H84.6279V25.1426H77.5869V23.9805H81.1143V23.0234H76.2607V21.8203ZM92.8994 18.9766C92.8994 19.487 93.0111 19.9837 93.2344 20.4668C93.4577 20.9453 93.7881 21.376 94.2256 21.7588C94.6631 22.137 95.1917 22.431 95.8115 22.6406L95.0459 23.8164C94.3714 23.5977 93.7881 23.2673 93.2959 22.8252C92.8083 22.3831 92.4255 21.8636 92.1475 21.2666C91.8695 21.932 91.473 22.5085 90.958 22.9961C90.443 23.4837 89.8278 23.8483 89.1123 24.0898L88.333 22.8867C88.971 22.6771 89.5156 22.3695 89.9668 21.9639C90.4225 21.5583 90.7666 21.098 90.999 20.583C91.236 20.0635 91.3545 19.5326 91.3545 18.9902V18.8262H88.7842V17.6094H95.4561V18.8262H92.8994V18.9766ZM90.2881 24.8145H98.71V29.2168H97.1924V26.0312H90.2881V24.8145ZM95.0869 19.9199H97.1924V16.8574H98.71V24.2266H97.1924V21.1641H95.0869V19.9199ZM114.132 29.2168H112.614V25.9492H105.71V24.7461H114.132V29.2168ZM103.946 20.5352C103.946 19.9609 104.088 19.4482 104.37 18.9971C104.653 18.5413 105.04 18.1859 105.532 17.9307C106.024 17.6709 106.576 17.541 107.187 17.541C107.701 17.541 108.175 17.6299 108.608 17.8076C109.041 17.9854 109.406 18.2383 109.702 18.5664H112.614V16.8574H114.132V24.1582H112.614V22.5176H109.716C109.42 22.8503 109.055 23.11 108.622 23.2969C108.189 23.4792 107.72 23.5703 107.214 23.5703C106.599 23.5703 106.043 23.4404 105.546 23.1807C105.049 22.9209 104.657 22.5609 104.37 22.1006C104.088 21.6403 103.946 21.1185 103.946 20.5352ZM105.396 20.5352C105.396 20.8861 105.473 21.1937 105.628 21.458C105.783 21.7223 105.997 21.9274 106.271 22.0732C106.549 22.2145 106.863 22.2852 107.214 22.2852C107.551 22.2806 107.854 22.2077 108.123 22.0664C108.396 21.9251 108.611 21.7223 108.766 21.458C108.925 21.1937 109.005 20.8861 109.005 20.5352C109.005 20.1979 108.925 19.8994 108.766 19.6396C108.611 19.3799 108.396 19.1794 108.123 19.0381C107.854 18.8968 107.551 18.8262 107.214 18.8262C106.863 18.8262 106.549 18.8968 106.271 19.0381C105.997 19.1794 105.783 19.3799 105.628 19.6396C105.473 19.8994 105.396 20.1979 105.396 20.5352ZM112.614 21.2871V19.8105H110.365C110.424 20.0612 110.454 20.3027 110.454 20.5352C110.454 20.7904 110.422 21.041 110.358 21.2871H112.614ZM127.366 19.8789H125.63V21.2188H127.366V22.4902H125.63V24.3359H124.112V16.8711H125.63V18.6211H127.366V19.8789ZM116.347 17.623H121.993V21.1777H117.878V22.4766C118.981 22.4674 119.924 22.4378 120.708 22.3877C121.496 22.333 122.294 22.2396 123.101 22.1074L123.265 23.3242C122.426 23.4792 121.585 23.584 120.742 23.6387C119.904 23.6934 118.883 23.7207 117.68 23.7207H117.372H116.36V20.0293H120.503V18.8262H116.347V17.623ZM117.413 26.9062C117.413 26.4232 117.579 26.0085 117.912 25.6621C118.249 25.3112 118.732 25.0423 119.361 24.8555C119.99 24.6641 120.735 24.5684 121.597 24.5684C122.444 24.5684 123.18 24.6641 123.805 24.8555C124.429 25.0423 124.91 25.3112 125.247 25.6621C125.584 26.013 125.753 26.4277 125.753 26.9062C125.753 27.3848 125.584 27.7949 125.247 28.1367C124.91 28.4785 124.429 28.7383 123.805 28.916C123.18 29.0983 122.444 29.1895 121.597 29.1895C120.735 29.1895 119.99 29.0983 119.361 28.916C118.732 28.7383 118.249 28.4785 117.912 28.1367C117.579 27.7949 117.413 27.3848 117.413 26.9062ZM118.903 26.9062C118.899 27.2708 119.127 27.5511 119.587 27.7471C120.047 27.943 120.703 28.041 121.556 28.041C122.426 28.041 123.091 27.9453 123.552 27.7539C124.017 27.5579 124.249 27.2754 124.249 26.9062C124.249 26.5326 124.019 26.2477 123.559 26.0518C123.103 25.8558 122.449 25.7578 121.597 25.7578C120.731 25.7578 120.063 25.8581 119.594 26.0586C119.129 26.2546 118.899 26.5371 118.903 26.9062ZM134.257 23.7617H128.405V17.9238H134.257V23.7617ZM129.813 25.0059H131.331V27.7402H138.222V28.9707H129.813V25.0059ZM132.767 22.5586V19.1406H129.896V22.5586H132.767ZM136.212 16.8574H137.729V20.4805H139.452V21.752H137.729V25.8809H136.212V16.8574ZM145.7 17.5547C146.566 17.5547 147.35 17.7005 148.052 17.9922C148.754 18.2839 149.305 18.694 149.706 19.2227C150.107 19.7513 150.308 20.3574 150.308 21.041C150.308 21.7337 150.107 22.3467 149.706 22.8799C149.305 23.4131 148.754 23.8255 148.052 24.1172C147.35 24.4089 146.566 24.5547 145.7 24.5547C144.839 24.5547 144.06 24.4089 143.362 24.1172C142.665 23.8255 142.116 23.4131 141.715 22.8799C141.318 22.3467 141.12 21.7337 141.12 21.041C141.12 20.3574 141.318 19.7513 141.715 19.2227C142.116 18.694 142.665 18.2839 143.362 17.9922C144.06 17.7005 144.839 17.5547 145.7 17.5547ZM140.081 26.4141H151.374V27.6582H140.081V26.4141ZM142.583 21.041C142.583 21.4967 142.715 21.8955 142.979 22.2373C143.248 22.5791 143.618 22.8434 144.087 23.0303C144.561 23.2126 145.099 23.306 145.7 23.3105C146.302 23.306 146.837 23.2126 147.307 23.0303C147.781 22.848 148.15 22.5859 148.414 22.2441C148.683 21.8978 148.817 21.4967 148.817 21.041C148.817 20.5944 148.683 20.2002 148.414 19.8584C148.15 19.512 147.781 19.2454 147.307 19.0586C146.833 18.8717 146.297 18.7806 145.7 18.7852C145.103 18.7806 144.568 18.8717 144.094 19.0586C143.62 19.2454 143.248 19.512 142.979 19.8584C142.715 20.2002 142.583 20.5944 142.583 21.041ZM163.46 24.9922H152.167V23.7617H157.062V22.6816H153.603V19.4004H160.548V18.3613H153.562V17.1719H162.065V20.4805H155.106V21.5059H162.312V22.6816H158.565V23.7617H163.46V24.9922ZM153.616 25.6758H155.147V27.9863H162.339V29.2168H153.616V25.6758ZM39.4014 38.418C39.3968 39.5163 39.1963 40.4688 38.7998 41.2754C38.4079 42.082 37.7972 42.7633 36.9678 43.3193C36.1383 43.8708 35.0719 44.306 33.7686 44.625L33.2217 43.4629C34.9671 43.0618 36.2113 42.4329 36.9541 41.5762L33.4678 41.8359L33.2354 40.6738L37.5762 40.5098C37.681 40.2227 37.7493 39.9219 37.7812 39.6074H33.8643V38.418H39.4014ZM35.1631 44.6523H43.2979V47.8652H36.667V48.8633H43.626V50.0664H35.1768V46.7578H41.7939V45.8418H35.1631V44.6523ZM39.4287 40.6191H41.7803V37.8574H43.2979V44.1602H41.7803V41.8633H39.4287V40.6191ZM55.3975 50.2305H53.8936V45.4453H51.624V44.2012H53.8936V42.8887H51.624V41.6445H53.8936V37.8574H55.3975V50.2305ZM45.0205 46.7031C45.6449 46.4206 46.1849 46.0173 46.6406 45.4932C47.0964 44.9691 47.4427 44.3835 47.6797 43.7363C47.9212 43.0892 48.042 42.4375 48.042 41.7812V41.1387H45.3896V39.9219H48.0557V38.1172H49.5732V39.9219H52.1572V41.1387H49.5596V41.7812C49.555 42.4102 49.6735 43.0368 49.915 43.6611C50.1611 44.2855 50.5166 44.8506 50.9814 45.3564C51.4463 45.8623 51.9932 46.252 52.6221 46.5254L51.7881 47.7012C51.1045 47.4049 50.5075 46.9652 49.9971 46.3818C49.4912 45.7985 49.097 45.1263 48.8145 44.3652C48.5365 45.1719 48.1423 45.8828 47.6318 46.498C47.126 47.1087 46.529 47.569 45.8408 47.8789L45.0205 46.7031ZM64.3936 40.0996H63.2861V43.374C63.9059 43.3193 64.4482 43.2624 64.9131 43.2031L65.0088 44.3105C63.9014 44.5111 62.7393 44.6432 61.5225 44.707C60.3102 44.7663 58.9749 44.7982 57.5166 44.8027L57.3525 43.5586C57.9587 43.5586 58.4281 43.5563 58.7607 43.5518V40.0996H57.6807V38.8691H64.3936V40.0996ZM58.501 48.9727C59.3122 48.8496 60.0186 48.6309 60.6201 48.3164C61.2262 48.002 61.6888 47.6214 62.0078 47.1748C62.3314 46.7282 62.4932 46.252 62.4932 45.7461V45.541H64.0928V45.7461C64.0882 46.252 64.2454 46.7282 64.5645 47.1748C64.888 47.6214 65.3506 48.002 65.9521 48.3164C66.5583 48.6309 67.2692 48.8496 68.085 48.9727L67.5107 50.1484C66.5309 49.9935 65.6742 49.6973 64.9404 49.2598C64.2113 48.8268 63.6621 48.2891 63.293 47.6465C62.9193 48.2891 62.3678 48.8268 61.6387 49.2598C60.9141 49.6973 60.0687 49.9935 59.1025 50.1484L58.501 48.9727ZM60.2236 43.5244C60.9437 43.5062 61.4814 43.488 61.8369 43.4697V40.0996H60.2236V43.5244ZM65.9111 37.8574H67.4424V46.1973H65.9111V37.8574ZM74.8662 38.0488C75.805 38.0488 76.6071 38.1309 77.2725 38.2949C77.9378 38.459 78.446 38.7005 78.7969 39.0195C79.1478 39.334 79.3232 39.7168 79.3232 40.168C79.3232 40.6237 79.1478 41.0111 78.7969 41.3301C78.446 41.6491 77.9378 41.8906 77.2725 42.0547C76.6071 42.2142 75.805 42.2962 74.8662 42.3008C73.9274 42.2962 73.1253 42.2142 72.46 42.0547C71.7946 41.8906 71.2865 41.6491 70.9355 41.3301C70.5846 41.0111 70.4092 40.6237 70.4092 40.168C70.4092 39.7168 70.5846 39.334 70.9355 39.0195C71.2865 38.7005 71.7946 38.4613 72.46 38.3018C73.1253 38.1377 73.9274 38.0534 74.8662 38.0488ZM69.2471 42.957H80.5127V44.1738H69.2471V42.957ZM70.5732 45.0078H79.1045V48.0293H72.0771V48.9453H79.4463V50.1074H70.5869V46.9492H77.6143V46.1289H70.5732V45.0078ZM72.0088 40.168C72.0042 40.5052 72.2412 40.7559 72.7197 40.9199C73.1982 41.084 73.9137 41.166 74.8662 41.166C75.8278 41.166 76.5479 41.084 77.0264 40.9199C77.5094 40.7559 77.751 40.5052 77.751 40.168C77.751 39.849 77.5049 39.6029 77.0127 39.4297C76.5251 39.2565 75.8096 39.1699 74.8662 39.1699C73.932 39.1699 73.221 39.2565 72.7334 39.4297C72.2458 39.6029 72.0042 39.849 72.0088 40.168ZM94.417 40.3457H96.1396V41.6035H94.417V44.0645H92.8994V37.8574H94.417V40.3457ZM84.8057 41.043C84.8057 40.5052 84.9469 40.0267 85.2295 39.6074C85.512 39.1836 85.9017 38.8555 86.3984 38.623C86.8997 38.3861 87.4626 38.2676 88.0869 38.2676C88.7067 38.2676 89.265 38.3861 89.7617 38.623C90.263 38.8555 90.6549 39.1813 90.9375 39.6006C91.2246 40.0199 91.3682 40.5007 91.3682 41.043C91.3682 41.5716 91.2246 42.0479 90.9375 42.4717C90.6549 42.891 90.263 43.2191 89.7617 43.4561C89.265 43.6885 88.7067 43.8047 88.0869 43.8047C87.4671 43.8047 86.9066 43.6885 86.4053 43.4561C85.904 43.2191 85.512 42.891 85.2295 42.4717C84.9469 42.0479 84.8057 41.5716 84.8057 41.043ZM86.2959 41.043C86.2913 41.3483 86.3643 41.6195 86.5146 41.8564C86.6696 42.0934 86.8838 42.278 87.1572 42.4102C87.4307 42.5378 87.7406 42.6016 88.0869 42.6016C88.4333 42.6016 88.7409 42.5378 89.0098 42.4102C89.2832 42.278 89.4974 42.0934 89.6523 41.8564C89.8118 41.6195 89.8916 41.3483 89.8916 41.043C89.8916 40.7376 89.8118 40.4688 89.6523 40.2363C89.4974 39.9993 89.2832 39.8171 89.0098 39.6895C88.7409 39.5618 88.4333 39.498 88.0869 39.498C87.7406 39.498 87.4307 39.5618 87.1572 39.6895C86.8838 39.8171 86.6696 39.9993 86.5146 40.2363C86.3643 40.4688 86.2913 40.7376 86.2959 41.043ZM86.3369 44.5977H94.417V47.8379H87.8545V48.8633H94.7998V50.0664H86.3506V46.7305H92.8994V45.7734H86.3369V44.5977ZM106.53 38.8828C106.526 39.4023 106.706 39.9082 107.07 40.4004C107.439 40.8926 107.957 41.3141 108.622 41.665C109.292 42.016 110.053 42.2461 110.905 42.3555L110.304 43.5859C109.265 43.431 108.344 43.112 107.542 42.6289C106.74 42.1413 106.136 41.5465 105.73 40.8447C105.325 41.5465 104.723 42.1413 103.926 42.6289C103.128 43.112 102.215 43.431 101.185 43.5859L100.583 42.3555C101.431 42.2461 102.185 42.016 102.846 41.665C103.507 41.3141 104.019 40.8949 104.384 40.4072C104.748 39.915 104.931 39.4069 104.931 38.8828V38.2539H106.53V38.8828ZM100.091 44.6523H111.356V45.9102H106.448V50.2168H104.944V45.9102H100.091V44.6523ZM118.315 46.416H119.942V45.0898H121.351V49.0137C121.82 48.8177 122.212 48.5579 122.526 48.2344C122.845 47.9108 123.082 47.5553 123.237 47.168C123.392 46.7806 123.47 46.3841 123.47 45.9785V44.9941H124.987V45.9785C124.983 46.4206 125.058 46.8421 125.213 47.2432C125.372 47.6396 125.616 47.9951 125.944 48.3096C126.272 48.6195 126.683 48.8587 127.175 49.0273L126.396 50.1621C125.361 49.7884 124.634 49.0957 124.215 48.084C124.001 48.5534 123.714 48.9658 123.354 49.3213C122.998 49.6813 122.572 49.9616 122.075 50.1621L121.351 49.0889V50.0664H116.894V45.0898H118.315V46.416ZM115.677 41.2344C115.677 40.6784 115.816 40.1839 116.094 39.751C116.376 39.3135 116.766 38.974 117.263 38.7324C117.759 38.4863 118.32 38.3633 118.944 38.3633C119.468 38.3633 119.951 38.4567 120.394 38.6436C120.836 38.8258 121.205 39.0856 121.501 39.4229C121.802 39.7601 122.005 40.1497 122.109 40.5918H124.345V37.8574H125.862V44.4062H124.345V41.8496H122.116C122.016 42.3008 121.818 42.6995 121.521 43.0459C121.225 43.3923 120.854 43.6611 120.407 43.8525C119.961 44.0394 119.473 44.1328 118.944 44.1328C118.32 44.1328 117.759 44.012 117.263 43.7705C116.766 43.5244 116.376 43.1826 116.094 42.7451C115.816 42.3031 115.677 41.7995 115.677 41.2344ZM117.126 41.2344C117.126 41.5625 117.203 41.8519 117.358 42.1025C117.513 42.3532 117.728 42.5469 118.001 42.6836C118.279 42.8203 118.593 42.8887 118.944 42.8887C119.291 42.8887 119.598 42.8203 119.867 42.6836C120.136 42.5469 120.348 42.3532 120.503 42.1025C120.658 41.8519 120.735 41.5625 120.735 41.2344C120.735 40.9154 120.658 40.6328 120.503 40.3867C120.348 40.1406 120.134 39.9515 119.86 39.8193C119.591 39.6872 119.286 39.6211 118.944 39.6211C118.593 39.6211 118.279 39.6872 118.001 39.8193C117.728 39.9515 117.513 40.1406 117.358 40.3867C117.203 40.6328 117.126 40.9154 117.126 41.2344ZM119.942 48.9043V47.5508H118.315V48.9043H119.942ZM130.989 38.7598C131.541 38.7598 132.04 38.9079 132.486 39.2041C132.933 39.5003 133.298 39.9242 133.58 40.4756C133.863 41.0225 134.04 41.6673 134.113 42.4102H136.472V37.8574H137.976V50.2305H136.472V43.6406H134.127C134.072 44.4245 133.906 45.1081 133.628 45.6914C133.35 46.2702 132.983 46.7168 132.527 47.0312C132.072 47.3411 131.559 47.4961 130.989 47.4961C130.369 47.4961 129.818 47.3184 129.335 46.9629C128.856 46.6029 128.483 46.0924 128.214 45.4316C127.95 44.7708 127.817 44.0007 127.817 43.1211C127.817 42.2461 127.95 41.4805 128.214 40.8242C128.483 40.1634 128.859 39.6553 129.342 39.2998C129.825 38.9398 130.374 38.7598 130.989 38.7598ZM129.28 43.1211C129.28 43.7454 129.351 44.2832 129.492 44.7344C129.633 45.1855 129.832 45.5296 130.087 45.7666C130.347 46.0036 130.647 46.1243 130.989 46.1289C131.331 46.1243 131.632 46.0036 131.892 45.7666C132.151 45.5296 132.352 45.1855 132.493 44.7344C132.639 44.2832 132.712 43.7454 132.712 43.1211C132.712 42.5013 132.639 41.9658 132.493 41.5146C132.352 41.0635 132.151 40.7194 131.892 40.4824C131.632 40.2454 131.331 40.127 130.989 40.127C130.647 40.127 130.347 40.2477 130.087 40.4893C129.832 40.7262 129.633 41.0703 129.492 41.5215C129.351 41.9681 129.28 42.5013 129.28 43.1211ZM151.005 48.7129H139.712V47.4688H142.323V44.3447C141.822 44.0576 141.432 43.6953 141.154 43.2578C140.881 42.8203 140.746 42.3327 140.751 41.7949C140.751 41.1478 140.945 40.5781 141.332 40.0859C141.724 39.5892 142.269 39.2064 142.966 38.9375C143.663 38.6641 144.451 38.5273 145.331 38.5273C146.215 38.5273 147.006 38.6641 147.703 38.9375C148.405 39.2064 148.952 39.5892 149.344 40.0859C149.74 40.5781 149.938 41.1478 149.938 41.7949C149.943 42.3236 149.811 42.8021 149.542 43.2305C149.273 43.6589 148.895 44.0189 148.407 44.3105V47.4688H151.005V48.7129ZM142.241 41.7949C142.241 42.2096 142.369 42.5742 142.624 42.8887C142.884 43.1986 143.246 43.4378 143.711 43.6064C144.18 43.7751 144.72 43.8594 145.331 43.8594C145.942 43.8594 146.482 43.7751 146.951 43.6064C147.425 43.4378 147.792 43.1986 148.052 42.8887C148.316 42.5742 148.448 42.2096 148.448 41.7949C148.448 41.3757 148.316 41.0088 148.052 40.6943C147.792 40.3799 147.425 40.1406 146.951 39.9766C146.482 39.8125 145.942 39.7305 145.331 39.7305C144.716 39.7305 144.174 39.8125 143.704 39.9766C143.239 40.1406 142.879 40.3799 142.624 40.6943C142.369 41.0042 142.241 41.3711 142.241 41.7949ZM146.862 47.4688V44.8916C146.379 44.9964 145.869 45.0488 145.331 45.0488C144.816 45.0488 144.315 44.9987 143.827 44.8984V47.4688H146.862ZM154.204 46.0879H152.659L152.495 39.1016H154.354L154.204 46.0879ZM152.372 48.043C152.372 47.8561 152.42 47.6829 152.516 47.5234C152.611 47.3594 152.741 47.2295 152.905 47.1338C153.069 47.0381 153.247 46.9902 153.438 46.9902C153.625 46.9902 153.799 47.0381 153.958 47.1338C154.122 47.2295 154.252 47.3594 154.348 47.5234C154.443 47.6829 154.491 47.8561 154.491 48.043C154.491 48.2344 154.443 48.4121 154.348 48.5762C154.252 48.7402 154.122 48.8701 153.958 48.9658C153.799 49.0615 153.625 49.1094 153.438 49.1094C153.247 49.1094 153.069 49.0615 152.905 48.9658C152.741 48.8701 152.611 48.7402 152.516 48.5762C152.42 48.4121 152.372 48.2344 152.372 48.043Z" fill="#576DFC"/>
<path d="M93.2474 73.1399C93.6458 73.5952 94.3542 73.5952 94.7526 73.1399L101 66H87L93.2474 73.1399Z" fill="#E4E8FF"/>
</svg>
