<svg width="168" height="74" viewBox="0 0 168 74" fill="none" xmlns="http://www.w3.org/2000/svg">
<path d="M0 20C0 8.95431 8.95431 0 20 0H148C159.046 0 168 8.95431 168 20V46C168 57.0457 159.046 66 148 66H20C8.95431 66 0 57.0457 0 46V20Z" fill="#E4E8FF"/>
<path d="M29.2852 19.8242C29.2806 20.5853 29.4059 21.3258 29.6611 22.0459C29.9163 22.766 30.2855 23.4062 30.7686 23.9668C31.2516 24.5273 31.819 24.9466 32.4707 25.2246L31.5684 26.4414C30.8711 26.1178 30.2627 25.6484 29.7432 25.0332C29.2282 24.4134 28.8249 23.6911 28.5332 22.8662C28.2415 23.7549 27.8291 24.5342 27.2959 25.2041C26.7673 25.874 26.1361 26.3822 25.4023 26.7285L24.4727 25.457C25.1426 25.1699 25.7236 24.737 26.2158 24.1582C26.708 23.5749 27.084 22.9072 27.3438 22.1553C27.6035 21.4033 27.7357 20.6263 27.7402 19.8242V17.8555H29.2852V19.8242ZM33.3594 16.8574H34.8906V29.2305H33.3594V16.8574ZM41.1387 19.0039C41.1387 19.5234 41.248 20.0225 41.4668 20.501C41.6901 20.9795 42.0205 21.4079 42.458 21.7861C42.9001 22.1644 43.4355 22.4583 44.0645 22.668L43.2988 23.8438C42.6198 23.6159 42.0342 23.2832 41.542 22.8457C41.0544 22.4082 40.6715 21.8932 40.3936 21.3008C40.1156 21.9479 39.7191 22.5107 39.2041 22.9893C38.6937 23.4632 38.0853 23.821 37.3789 24.0625L36.5723 22.8867C37.2148 22.6725 37.764 22.3649 38.2197 21.9639C38.68 21.5628 39.0264 21.1071 39.2588 20.5967C39.4912 20.0817 39.6074 19.5508 39.6074 19.0039V18.8535H36.9961V17.6367H43.709V18.8535H41.1387V19.0039ZM38.2266 24.8828H46.457V29.2168H44.9395V26.0996H38.2266V24.8828ZM44.9395 16.8574H46.457V19.9473H48.1797V21.2188H46.457V24.3086H44.9395V16.8574ZM59.0898 29.2305H57.5586V16.8574H59.0898V29.2305ZM49.2051 22.1211C49.2051 21.2507 49.3418 20.485 49.6152 19.8242C49.8887 19.1634 50.2692 18.6553 50.7568 18.2998C51.249 17.9398 51.8073 17.7598 52.4316 17.7598C53.0469 17.7598 53.5983 17.9398 54.0859 18.2998C54.5781 18.6553 54.9632 19.1634 55.2412 19.8242C55.5192 20.485 55.6582 21.2507 55.6582 22.1211C55.6582 23.0007 55.5192 23.7708 55.2412 24.4316C54.9632 25.0924 54.5781 25.6029 54.0859 25.9629C53.5983 26.3184 53.0469 26.4961 52.4316 26.4961C51.8073 26.4961 51.249 26.3184 50.7568 25.9629C50.2692 25.6029 49.8887 25.0924 49.6152 24.4316C49.3418 23.7708 49.2051 23.0007 49.2051 22.1211ZM50.668 22.1211C50.668 22.7454 50.7409 23.2832 50.8867 23.7344C51.0371 24.1855 51.2445 24.5296 51.5088 24.7666C51.7731 25.0036 52.0807 25.1243 52.4316 25.1289C52.778 25.1243 53.0833 25.0036 53.3477 24.7666C53.612 24.5296 53.8171 24.1855 53.9629 23.7344C54.1087 23.2832 54.1816 22.7454 54.1816 22.1211C54.1816 21.5013 54.1087 20.9681 53.9629 20.5215C53.8171 20.0703 53.612 19.7262 53.3477 19.4893C53.0833 19.2477 52.778 19.127 52.4316 19.127C52.0807 19.127 51.7731 19.2477 51.5088 19.4893C51.2445 19.7262 51.0371 20.0703 50.8867 20.5215C50.7409 20.9681 50.668 21.5013 50.668 22.1211ZM73.9785 20.4395H75.7012V21.6973H73.9785V25.9629H72.4609V16.8711H73.9785V20.4395ZM64.6543 17.7461H66.1582V19.6328H69.043V17.7461H70.5469V23.9531H64.6543V17.7461ZM66.0625 25.0469H67.5801V27.7402H74.4707V28.9707H66.0625V25.0469ZM69.043 22.75V20.8086H66.1582V22.75H69.043ZM86.6113 29.2305H85.0801V16.8574H86.6113V29.2305ZM76.7266 22.1211C76.7266 21.2507 76.8633 20.485 77.1367 19.8242C77.4102 19.1634 77.7907 18.6553 78.2783 18.2998C78.7705 17.9398 79.3288 17.7598 79.9531 17.7598C80.5684 17.7598 81.1198 17.9398 81.6074 18.2998C82.0996 18.6553 82.4847 19.1634 82.7627 19.8242C83.0407 20.485 83.1797 21.2507 83.1797 22.1211C83.1797 23.0007 83.0407 23.7708 82.7627 24.4316C82.4847 25.0924 82.0996 25.6029 81.6074 25.9629C81.1198 26.3184 80.5684 26.4961 79.9531 26.4961C79.3288 26.4961 78.7705 26.3184 78.2783 25.9629C77.7907 25.6029 77.4102 25.0924 77.1367 24.4316C76.8633 23.7708 76.7266 23.0007 76.7266 22.1211ZM78.1895 22.1211C78.1895 22.7454 78.2624 23.2832 78.4082 23.7344C78.5586 24.1855 78.766 24.5296 79.0303 24.7666C79.2946 25.0036 79.6022 25.1243 79.9531 25.1289C80.2995 25.1243 80.6048 25.0036 80.8691 24.7666C81.1335 24.5296 81.3385 24.1855 81.4844 23.7344C81.6302 23.2832 81.7031 22.7454 81.7031 22.1211C81.7031 21.5013 81.6302 20.9681 81.4844 20.5215C81.3385 20.0703 81.1335 19.7262 80.8691 19.4893C80.6048 19.2477 80.2995 19.127 79.9531 19.127C79.6022 19.127 79.2946 19.2477 79.0303 19.4893C78.766 19.7262 78.5586 20.0703 78.4082 20.5215C78.2624 20.9681 78.1895 21.5013 78.1895 22.1211ZM98.1094 21.6016H100.01V22.873H98.1094V29.2305H96.6055V16.8574H98.1094V21.6016ZM88.9219 17.9375H94.6094V22.5996H90.4531V25.0605C91.5013 25.0514 92.4264 25.0195 93.2285 24.9648C94.0306 24.9056 94.8418 24.8053 95.6621 24.6641L95.7988 25.8945C94.8919 26.0586 93.9919 26.1702 93.0986 26.2295C92.21 26.2887 91.1641 26.3184 89.9609 26.3184H88.9492V21.3828H93.0918V19.168H88.9219V17.9375ZM110.537 21.5605H101.979V17.3086H103.482V20.3574H110.537V21.5605ZM100.516 22.9961H111.809V24.1992H100.516V22.9961ZM101.869 25.293H103.387V27.6992H110.619V28.9297H101.869V25.293ZM120.367 19.8242C120.363 20.5671 120.479 21.2917 120.716 21.998C120.957 22.7044 121.304 23.3379 121.755 23.8984C122.211 24.4544 122.751 24.8828 123.375 25.1836L122.445 26.4004C121.789 26.0677 121.219 25.5938 120.736 24.9785C120.258 24.3633 119.884 23.6523 119.615 22.8457C119.337 23.707 118.945 24.4681 118.439 25.1289C117.938 25.7852 117.341 26.2865 116.648 26.6328L115.719 25.416C116.361 25.1107 116.917 24.6663 117.387 24.083C117.861 23.4951 118.221 22.832 118.467 22.0938C118.717 21.3509 118.845 20.5944 118.85 19.8242V17.8555H120.367V19.8242ZM124.113 16.8574H125.631V21.6973H127.531V22.9961H125.631V29.2168H124.113V16.8574ZM138.318 23.1602H136.814V16.8574H138.318V23.1602ZM128.037 21.957C128.684 21.752 129.238 21.4512 129.698 21.0547C130.159 20.6582 130.505 20.207 130.737 19.7012C130.974 19.1908 131.09 18.6621 131.086 18.1152V17.1582H132.658V18.1152C132.654 18.6439 132.768 19.1497 133 19.6328C133.232 20.1113 133.572 20.5374 134.019 20.9111C134.47 21.2803 135.014 21.5605 135.652 21.752L134.914 22.9277C134.208 22.709 133.599 22.3831 133.089 21.9502C132.578 21.5127 132.18 20.9932 131.893 20.3916C131.605 21.0433 131.2 21.6084 130.676 22.0869C130.152 22.5609 129.527 22.9141 128.803 23.1465L128.037 21.957ZM130.143 23.7344H138.346V26.9473H131.66V27.9043H138.715V29.1074H130.17V25.8125H136.828V24.9102H130.143V23.7344ZM142.543 25.0879H140.998L140.834 18.1016H142.693L142.543 25.0879ZM140.711 27.043C140.711 26.8561 140.759 26.6829 140.854 26.5234C140.95 26.3594 141.08 26.2295 141.244 26.1338C141.408 26.0381 141.586 25.9902 141.777 25.9902C141.964 25.9902 142.137 26.0381 142.297 26.1338C142.461 26.2295 142.591 26.3594 142.687 26.5234C142.782 26.6829 142.83 26.8561 142.83 27.043C142.83 27.2344 142.782 27.4121 142.687 27.5762C142.591 27.7402 142.461 27.8701 142.297 27.9658C142.137 28.0615 141.964 28.1094 141.777 28.1094C141.586 28.1094 141.408 28.0615 141.244 27.9658C141.08 27.8701 140.95 27.7402 140.854 27.5762C140.759 27.4121 140.711 27.2344 140.711 27.043ZM48.9795 40.3047H47.79V45.8623C48.4463 45.8122 48.9932 45.7598 49.4307 45.7051L49.499 46.7988C48.3597 46.9993 47.1634 47.1315 45.9102 47.1953C44.6569 47.2591 43.333 47.291 41.9385 47.291L41.7607 46.0469L43.251 46.04V40.3047H42.0752V39.0605H48.9795V40.3047ZM44.7275 46.0127C45.2562 45.999 45.7894 45.9785 46.3271 45.9512V40.3047H44.7275V46.0127ZM50.0869 37.8574H51.6045V42.6426H53.5049V43.8867H51.6045V50.2168H50.0869V37.8574ZM64.3057 50.2305H62.7744V37.8574H64.3057V50.2305ZM54.4209 43.1211C54.4209 42.2507 54.5576 41.485 54.8311 40.8242C55.1045 40.1634 55.485 39.6553 55.9727 39.2998C56.4648 38.9398 57.0231 38.7598 57.6475 38.7598C58.2627 38.7598 58.8141 38.9398 59.3018 39.2998C59.7939 39.6553 60.179 40.1634 60.457 40.8242C60.735 41.485 60.874 42.2507 60.874 43.1211C60.874 44.0007 60.735 44.7708 60.457 45.4316C60.179 46.0924 59.7939 46.6029 59.3018 46.9629C58.8141 47.3184 58.2627 47.4961 57.6475 47.4961C57.0231 47.4961 56.4648 47.3184 55.9727 46.9629C55.485 46.6029 55.1045 46.0924 54.8311 45.4316C54.5576 44.7708 54.4209 44.0007 54.4209 43.1211ZM55.8838 43.1211C55.8838 43.7454 55.9567 44.2832 56.1025 44.7344C56.2529 45.1855 56.4603 45.5296 56.7246 45.7666C56.9889 46.0036 57.2965 46.1243 57.6475 46.1289C57.9938 46.1243 58.2992 46.0036 58.5635 45.7666C58.8278 45.5296 59.0329 45.1855 59.1787 44.7344C59.3245 44.2832 59.3975 43.7454 59.3975 43.1211C59.3975 42.5013 59.3245 41.9681 59.1787 41.5215C59.0329 41.0703 58.8278 40.7262 58.5635 40.4893C58.2992 40.2477 57.9938 40.127 57.6475 40.127C57.2965 40.127 56.9889 40.2477 56.7246 40.4893C56.4603 40.7262 56.2529 41.0703 56.1025 41.5215C55.9567 41.9681 55.8838 42.5013 55.8838 43.1211ZM72.7822 39.9492H68.3525V41.125H72.4268V42.3145H68.3525V43.5039H68.8311C69.9248 43.5039 70.8294 43.4834 71.5449 43.4424C72.265 43.4014 72.9827 43.3216 73.6982 43.2031L73.8486 44.4062C73.0557 44.5384 72.2559 44.6273 71.4492 44.6729C70.6471 44.7139 69.6149 44.7344 68.3525 44.7344H67.8604H66.8076V38.7461H72.7822V39.9492ZM68.0244 47.8926C68.0244 47.4095 68.1908 46.9948 68.5234 46.6484C68.8607 46.2975 69.346 46.0332 69.9795 45.8555C70.6175 45.6732 71.374 45.582 72.249 45.582C73.1104 45.582 73.8577 45.6732 74.4912 45.8555C75.1292 46.0378 75.6191 46.3021 75.9609 46.6484C76.3027 46.9948 76.4736 47.4095 76.4736 47.8926C76.4736 48.3757 76.3027 48.7904 75.9609 49.1367C75.6191 49.4831 75.1292 49.7474 74.4912 49.9297C73.8577 50.112 73.1104 50.2031 72.249 50.2031C71.374 50.2031 70.6175 50.112 69.9795 49.9297C69.346 49.7474 68.8607 49.4831 68.5234 49.1367C68.1908 48.7904 68.0244 48.3757 68.0244 47.8926ZM69.542 47.8926C69.5374 48.2617 69.7676 48.5443 70.2324 48.7402C70.6973 48.9316 71.3695 49.0273 72.249 49.0273C73.1104 49.0273 73.7757 48.9294 74.2451 48.7334C74.7191 48.5374 74.9561 48.2572 74.9561 47.8926C74.9561 47.528 74.7191 47.2477 74.2451 47.0518C73.7757 46.8558 73.1104 46.7578 72.249 46.7578C71.3695 46.7578 70.6973 46.8558 70.2324 47.0518C69.7676 47.2477 69.5374 47.528 69.542 47.8926ZM74.8877 37.8711H76.4189V45.4043H74.8877V37.8711ZM88.5049 50.2305H86.9736V37.8574H88.5049V50.2305ZM78.6201 43.1211C78.6201 42.2507 78.7568 41.485 79.0303 40.8242C79.3037 40.1634 79.6842 39.6553 80.1719 39.2998C80.6641 38.9398 81.2223 38.7598 81.8467 38.7598C82.4619 38.7598 83.0133 38.9398 83.501 39.2998C83.9932 39.6553 84.3783 40.1634 84.6562 40.8242C84.9342 41.485 85.0732 42.2507 85.0732 43.1211C85.0732 44.0007 84.9342 44.7708 84.6562 45.4316C84.3783 46.0924 83.9932 46.6029 83.501 46.9629C83.0133 47.3184 82.4619 47.4961 81.8467 47.4961C81.2223 47.4961 80.6641 47.3184 80.1719 46.9629C79.6842 46.6029 79.3037 46.0924 79.0303 45.4316C78.7568 44.7708 78.6201 44.0007 78.6201 43.1211ZM80.083 43.1211C80.083 43.7454 80.1559 44.2832 80.3018 44.7344C80.4521 45.1855 80.6595 45.5296 80.9238 45.7666C81.1882 46.0036 81.4958 46.1243 81.8467 46.1289C82.193 46.1243 82.4984 46.0036 82.7627 45.7666C83.027 45.5296 83.2321 45.1855 83.3779 44.7344C83.5238 44.2832 83.5967 43.7454 83.5967 43.1211C83.5967 42.5013 83.5238 41.9681 83.3779 41.5215C83.2321 41.0703 83.027 40.7262 82.7627 40.4893C82.4984 40.2477 82.193 40.127 81.8467 40.127C81.4958 40.127 81.1882 40.2477 80.9238 40.4893C80.6595 40.7262 80.4521 41.0703 80.3018 41.5215C80.1559 41.9681 80.083 42.5013 80.083 43.1211ZM100.987 50.2168H99.5244V37.8574H100.987V50.2168ZM90.4463 43.2031C90.4463 42.3053 90.5557 41.526 90.7744 40.8652C90.9932 40.1999 91.3031 39.6895 91.7041 39.334C92.1097 38.9785 92.5791 38.8008 93.1123 38.8008C93.609 38.8008 94.0488 38.9489 94.4316 39.2451C94.819 39.5413 95.1289 39.9674 95.3613 40.5234C95.5983 41.0794 95.7464 41.7402 95.8057 42.5059H96.9951V38.0762H98.4443V49.6152H96.9951V43.7363H95.8193C95.7738 44.5339 95.6325 45.2266 95.3955 45.8145C95.1631 46.3978 94.8509 46.8444 94.459 47.1543C94.0671 47.4642 93.6182 47.6191 93.1123 47.6191C92.5791 47.6191 92.1097 47.4414 91.7041 47.0859C91.3031 46.7305 90.9932 46.2201 90.7744 45.5547C90.5557 44.8848 90.4463 44.1009 90.4463 43.2031ZM91.8545 43.2441C91.8545 44.1875 91.9639 44.9121 92.1826 45.418C92.4059 45.9238 92.7158 46.1745 93.1123 46.1699C93.527 46.1745 93.8483 45.9215 94.0762 45.4111C94.304 44.9007 94.4202 44.1647 94.4248 43.2031C94.4202 42.2461 94.304 41.5124 94.0762 41.002C93.8483 40.487 93.527 40.2318 93.1123 40.2363C92.7113 40.2318 92.4014 40.4893 92.1826 41.0088C91.9639 41.5283 91.8545 42.2734 91.8545 43.2441ZM113.716 48.7129H102.423V47.4688H105.034V44.3447C104.533 44.0576 104.143 43.6953 103.865 43.2578C103.592 42.8203 103.457 42.3327 103.462 41.7949C103.462 41.1478 103.656 40.5781 104.043 40.0859C104.435 39.5892 104.979 39.2064 105.677 38.9375C106.374 38.6641 107.162 38.5273 108.042 38.5273C108.926 38.5273 109.717 38.6641 110.414 38.9375C111.116 39.2064 111.663 39.5892 112.055 40.0859C112.451 40.5781 112.649 41.1478 112.649 41.7949C112.654 42.3236 112.522 42.8021 112.253 43.2305C111.984 43.6589 111.606 44.0189 111.118 44.3105V47.4688H113.716V48.7129ZM104.952 41.7949C104.952 42.2096 105.08 42.5742 105.335 42.8887C105.595 43.1986 105.957 43.4378 106.422 43.6064C106.891 43.7751 107.431 43.8594 108.042 43.8594C108.653 43.8594 109.193 43.7751 109.662 43.6064C110.136 43.4378 110.503 43.1986 110.763 42.8887C111.027 42.5742 111.159 42.2096 111.159 41.7949C111.159 41.3757 111.027 41.0088 110.763 40.6943C110.503 40.3799 110.136 40.1406 109.662 39.9766C109.193 39.8125 108.653 39.7305 108.042 39.7305C107.427 39.7305 106.884 39.8125 106.415 39.9766C105.95 40.1406 105.59 40.3799 105.335 40.6943C105.08 41.0042 104.952 41.3711 104.952 41.7949ZM109.573 47.4688V44.8916C109.09 44.9964 108.58 45.0488 108.042 45.0488C107.527 45.0488 107.026 44.9987 106.538 44.8984V47.4688H109.573ZM119.349 49.1094C119.157 49.1094 118.979 49.0615 118.815 48.9658C118.651 48.8701 118.521 48.7402 118.426 48.5762C118.33 48.4121 118.282 48.2344 118.282 48.043C118.282 47.8561 118.33 47.6829 118.426 47.5234C118.521 47.3594 118.651 47.2295 118.815 47.1338C118.979 47.0381 119.157 46.9902 119.349 46.9902C119.535 46.9902 119.709 47.0381 119.868 47.1338C120.032 47.2295 120.162 47.3594 120.258 47.5234C120.354 47.6829 120.401 47.8561 120.401 48.043C120.401 48.2344 120.354 48.4121 120.258 48.5762C120.162 48.7402 120.032 48.8701 119.868 48.9658C119.709 49.0615 119.535 49.1094 119.349 49.1094ZM119.349 43.8047C119.157 43.8047 118.979 43.7568 118.815 43.6611C118.651 43.5654 118.521 43.4355 118.426 43.2715C118.33 43.1074 118.282 42.9297 118.282 42.7383C118.282 42.5514 118.33 42.3783 118.426 42.2188C118.521 42.0547 118.651 41.9248 118.815 41.8291C118.979 41.7334 119.157 41.6855 119.349 41.6855C119.535 41.6855 119.709 41.7334 119.868 41.8291C120.032 41.9248 120.162 42.0547 120.258 42.2188C120.354 42.3783 120.401 42.5514 120.401 42.7383C120.401 42.9297 120.354 43.1074 120.258 43.2715C120.162 43.4355 120.032 43.5654 119.868 43.6611C119.709 43.7568 119.535 43.8047 119.349 43.8047ZM125.214 44.9531C125.214 46.1562 125.054 47.266 124.735 48.2822C124.416 49.2985 123.938 50.2396 123.3 51.1055H121.659C121.983 50.6816 122.277 50.1325 122.541 49.458C122.81 48.7835 123.02 48.0521 123.17 47.2637C123.32 46.4707 123.396 45.7005 123.396 44.9531C123.396 44.2057 123.32 43.4401 123.17 42.6562C123.02 41.8678 122.81 41.1364 122.541 40.4619C122.277 39.7874 121.983 39.2383 121.659 38.8145H123.3C123.938 39.6803 124.416 40.6214 124.735 41.6377C125.054 42.6494 125.214 43.7546 125.214 44.9531Z" fill="#576DFC"/>
<path d="M83.2474 73.1399C83.6458 73.5952 84.3542 73.5952 84.7526 73.1399L91 66H77L83.2474 73.1399Z" fill="#E4E8FF"/>
</svg>
