<svg width="190" height="74" viewBox="0 0 190 74" fill="none" xmlns="http://www.w3.org/2000/svg">
<path d="M0 20C0 8.95431 8.95431 0 20 0H170C181.046 0 190 8.95431 190 20V46C190 57.0457 181.046 66 170 66H20C8.95431 66 0 57.0457 0 46V20Z" fill="#E4E8FF"/>
<path d="M44.1064 29.2305H42.5752V16.8574H44.1064V29.2305ZM34.2217 22.1211C34.2217 21.2507 34.3584 20.485 34.6318 19.8242C34.9053 19.1634 35.2858 18.6553 35.7734 18.2998C36.2656 17.9398 36.8239 17.7598 37.4482 17.7598C38.0635 17.7598 38.6149 17.9398 39.1025 18.2998C39.5947 18.6553 39.9798 19.1634 40.2578 19.8242C40.5358 20.485 40.6748 21.2507 40.6748 22.1211C40.6748 23.0007 40.5358 23.7708 40.2578 24.4316C39.9798 25.0924 39.5947 25.6029 39.1025 25.9629C38.6149 26.3184 38.0635 26.4961 37.4482 26.4961C36.8239 26.4961 36.2656 26.3184 35.7734 25.9629C35.2858 25.6029 34.9053 25.0924 34.6318 24.4316C34.3584 23.7708 34.2217 23.0007 34.2217 22.1211ZM35.6846 22.1211C35.6846 22.7454 35.7575 23.2832 35.9033 23.7344C36.0537 24.1855 36.2611 24.5296 36.5254 24.7666C36.7897 25.0036 37.0973 25.1243 37.4482 25.1289C37.7946 25.1243 38.0999 25.0036 38.3643 24.7666C38.6286 24.5296 38.8337 24.1855 38.9795 23.7344C39.1253 23.2832 39.1982 22.7454 39.1982 22.1211C39.1982 21.5013 39.1253 20.9681 38.9795 20.5215C38.8337 20.0703 38.6286 19.7262 38.3643 19.4893C38.0999 19.2477 37.7946 19.127 37.4482 19.127C37.0973 19.127 36.7897 19.2477 36.5254 19.4893C36.2611 19.7262 36.0537 20.0703 35.9033 20.5215C35.7575 20.9681 35.6846 21.5013 35.6846 22.1211ZM56.2744 29.2168H54.7568V22.9277H52.1455V21.6836H54.7568V16.8574H56.2744V29.2168ZM45.8428 25.7988C47.4059 25.0332 48.568 24.1263 49.3291 23.0781C50.0902 22.0299 50.5368 20.7949 50.6689 19.373H46.417V18.1699H52.2002C52.1956 19.4551 52.0179 20.6309 51.667 21.6973C51.3206 22.7591 50.7373 23.7367 49.917 24.6299C49.1012 25.5231 48.0075 26.3092 46.6357 26.9883L45.8428 25.7988ZM63.4795 19.5098H66.6924V17.8555H68.21V23.502H65.8584V25.4844C66.9567 25.4342 67.9502 25.3477 68.8389 25.2246L68.9482 26.3457C67.8089 26.5417 66.6491 26.6693 65.4688 26.7285C64.2884 26.7832 62.9372 26.8151 61.415 26.8242L61.1963 25.5664C61.4743 25.5664 61.6862 25.5641 61.832 25.5596C62.7207 25.5596 63.557 25.5505 64.3408 25.5322V23.502H61.9756V17.8555H63.4795V19.5098ZM66.6924 22.2852V20.6719H63.4795V22.2852H66.6924ZM69.5498 16.8574H71.0674V21.875H72.8584V23.1465H71.0674V29.2168H69.5498V16.8574ZM84.7393 27.7129H73.4463V26.4688H76.0576V23.3447C75.5563 23.0576 75.1667 22.6953 74.8887 22.2578C74.6152 21.8203 74.4808 21.3327 74.4854 20.7949C74.4854 20.1478 74.679 19.5781 75.0664 19.0859C75.4583 18.5892 76.0029 18.2064 76.7002 17.9375C77.3975 17.6641 78.1859 17.5273 79.0654 17.5273C79.9495 17.5273 80.7402 17.6641 81.4375 17.9375C82.1393 18.2064 82.6862 18.5892 83.0781 19.0859C83.4746 19.5781 83.6729 20.1478 83.6729 20.7949C83.6774 21.3236 83.5452 21.8021 83.2764 22.2305C83.0075 22.6589 82.6292 23.0189 82.1416 23.3105V26.4688H84.7393V27.7129ZM75.9756 20.7949C75.9756 21.2096 76.1032 21.5742 76.3584 21.8887C76.6182 22.1986 76.9805 22.4378 77.4453 22.6064C77.9147 22.7751 78.4548 22.8594 79.0654 22.8594C79.6761 22.8594 80.2161 22.7751 80.6855 22.6064C81.1595 22.4378 81.5264 22.1986 81.7861 21.8887C82.0505 21.5742 82.1826 21.2096 82.1826 20.7949C82.1826 20.3757 82.0505 20.0088 81.7861 19.6943C81.5264 19.3799 81.1595 19.1406 80.6855 18.9766C80.2161 18.8125 79.6761 18.7305 79.0654 18.7305C78.4502 18.7305 77.9079 18.8125 77.4385 18.9766C76.9736 19.1406 76.6136 19.3799 76.3584 19.6943C76.1032 20.0042 75.9756 20.3711 75.9756 20.7949ZM80.5967 26.4688V23.8916C80.1136 23.9964 79.6032 24.0488 79.0654 24.0488C78.5505 24.0488 78.0492 23.9987 77.5615 23.8984V26.4688H80.5967ZM86.8037 30.8574H85.5049L86.2158 27.0293H87.9521L86.8037 30.8574ZM98.4658 20.043H92.4092V18.8262H94.7061V17.2129H96.21V18.8262H98.4658V20.043ZM92.7646 23.5703C92.7601 23.0189 92.8717 22.5244 93.0996 22.0869C93.332 21.6494 93.6533 21.3099 94.0635 21.0684C94.4782 20.8223 94.943 20.6992 95.458 20.6992C95.9775 20.6992 96.4401 20.8223 96.8457 21.0684C97.2559 21.3099 97.5749 21.6494 97.8027 22.0869C98.0352 22.5244 98.1514 23.0189 98.1514 23.5703C98.1514 24.1354 98.0352 24.639 97.8027 25.0811C97.5749 25.5231 97.2559 25.8672 96.8457 26.1133C96.4401 26.3594 95.9775 26.4824 95.458 26.4824C94.943 26.4824 94.4782 26.3594 94.0635 26.1133C93.6533 25.8672 93.332 25.5231 93.0996 25.0811C92.8717 24.639 92.7601 24.1354 92.7646 23.5703ZM94.1045 23.5703C94.1045 23.8984 94.1592 24.1855 94.2686 24.4316C94.3825 24.6732 94.542 24.86 94.7471 24.9922C94.9567 25.1198 95.1937 25.1836 95.458 25.1836C95.7223 25.1836 95.957 25.1198 96.1621 24.9922C96.3672 24.86 96.5267 24.6732 96.6406 24.4316C96.7546 24.1855 96.8115 23.8984 96.8115 23.5703C96.8115 23.2513 96.7546 22.971 96.6406 22.7295C96.5267 22.4834 96.3672 22.2943 96.1621 22.1621C95.957 22.0254 95.7223 21.957 95.458 21.957C95.1937 21.957 94.959 22.0254 94.7539 22.1621C94.5488 22.2943 94.3893 22.4834 94.2754 22.7295C94.1615 22.971 94.1045 23.2513 94.1045 23.5703ZM98.9854 17.1172H100.407V21.9434H101.61V16.8574H103.06V29.2168H101.61V23.1738H100.407V28.6562H98.9854V17.1172ZM115.104 23.9121H113.655V21.0137H112.302V23.8027H110.88V17.0762H112.302V19.7969H113.655V16.8711H115.104V23.9121ZM105.069 17.7598H106.587V21.916C107.211 21.9069 107.804 21.8773 108.364 21.8271C108.929 21.7725 109.513 21.6882 110.114 21.5742L110.265 22.8047C109.586 22.946 108.927 23.0462 108.289 23.1055C107.656 23.1602 106.974 23.1875 106.245 23.1875H105.903H105.069V17.7598ZM105.247 27.9727C105.762 27.7995 106.197 27.5557 106.553 27.2412C106.908 26.9222 107.175 26.5645 107.353 26.168C107.535 25.7715 107.626 25.3659 107.626 24.9512V24.2812H109.103V24.9512C109.103 25.4889 109.228 26.0062 109.479 26.5029C109.734 26.9997 110.114 27.4121 110.62 27.7402C111.131 27.3893 111.516 26.9609 111.775 26.4551C112.04 25.9492 112.174 25.4479 112.179 24.9512V24.2812H113.683V24.9512C113.683 25.3932 113.771 25.8125 113.949 26.209C114.127 26.6055 114.394 26.9587 114.749 27.2686C115.109 27.5739 115.551 27.8086 116.075 27.9727L115.31 29.1074C114.731 28.9069 114.239 28.6175 113.833 28.2393C113.432 27.861 113.122 27.4144 112.903 26.8994C112.694 27.4189 112.4 27.8792 112.021 28.2803C111.648 28.6859 111.19 28.998 110.647 29.2168C110.082 29.0072 109.611 28.7064 109.232 28.3145C108.854 27.9225 108.565 27.4645 108.364 26.9404C108.136 27.4417 107.824 27.877 107.428 28.2461C107.031 28.6198 106.555 28.9069 105.999 29.1074L105.247 27.9727ZM123.526 18.8262H121.011C121.015 19.2682 121.125 19.6966 121.339 20.1113C121.558 20.5215 121.877 20.8906 122.296 21.2188C122.715 21.5423 123.221 21.793 123.813 21.9707L123.034 23.1055C122.396 22.9095 121.842 22.6201 121.373 22.2373C120.904 21.8545 120.537 21.401 120.272 20.877C119.985 21.5013 119.582 22.0459 119.062 22.5107C118.543 22.9756 117.93 23.3197 117.224 23.543L116.472 22.3672C117.096 22.1667 117.634 21.8818 118.085 21.5127C118.536 21.139 118.88 20.7197 119.117 20.2549C119.354 19.7855 119.475 19.3092 119.479 18.8262H116.882V17.623H123.526V18.8262ZM117.812 24.2266H119.302V27.7061C120.113 27.665 120.828 27.5443 121.448 27.3438L121.667 28.5332C121.157 28.7018 120.642 28.818 120.122 28.8818C119.607 28.9456 119.056 28.9753 118.468 28.9707H117.812V24.2266ZM121.243 24.377H123.622V23.4199H125.112V24.377H127.464V25.498H121.243V24.377ZM121.995 27.4805C121.991 27.1387 122.086 26.8402 122.282 26.585C122.478 26.3252 122.754 26.1247 123.109 25.9834C123.469 25.8421 123.882 25.7715 124.347 25.7715C124.807 25.7715 125.215 25.8421 125.57 25.9834C125.93 26.1247 126.211 26.3252 126.411 26.585C126.612 26.8447 126.712 27.1432 126.712 27.4805C126.712 27.8314 126.612 28.1367 126.411 28.3965C126.211 28.6608 125.93 28.8636 125.57 29.0049C125.215 29.1462 124.807 29.2168 124.347 29.2168C123.877 29.2168 123.465 29.1462 123.109 29.0049C122.754 28.8636 122.478 28.6608 122.282 28.3965C122.086 28.1367 121.991 27.8314 121.995 27.4805ZM123.349 27.4736C123.349 27.6924 123.44 27.8633 123.622 27.9863C123.804 28.1048 124.046 28.1641 124.347 28.1641C124.647 28.1641 124.889 28.1048 125.071 27.9863C125.254 27.8678 125.345 27.6992 125.345 27.4805C125.345 27.2708 125.254 27.109 125.071 26.9951C124.889 26.8766 124.647 26.8151 124.347 26.8105C124.05 26.8151 123.809 26.8743 123.622 26.9883C123.44 27.1022 123.349 27.264 123.349 27.4736ZM124.866 16.8574H126.384V19.5371H128.106V20.7812H126.384V23.0508H124.866V16.8574ZM132.058 17.7598C132.677 17.7598 133.229 17.9398 133.712 18.2998C134.195 18.6553 134.573 19.1634 134.847 19.8242C135.125 20.4805 135.266 21.2461 135.271 22.1211C135.266 23.0007 135.125 23.7708 134.847 24.4316C134.573 25.0924 134.195 25.6029 133.712 25.9629C133.229 26.3184 132.677 26.4961 132.058 26.4961C131.433 26.4961 130.877 26.3184 130.39 25.9629C129.902 25.6029 129.521 25.0924 129.248 24.4316C128.979 23.7708 128.845 23.0007 128.845 22.1211C128.845 21.2461 128.979 20.4805 129.248 19.8242C129.521 19.1634 129.902 18.6553 130.39 18.2998C130.877 17.9398 131.433 17.7598 132.058 17.7598ZM130.308 22.1211C130.308 22.7409 130.381 23.2786 130.526 23.7344C130.672 24.1855 130.877 24.5296 131.142 24.7666C131.406 25.0036 131.711 25.1243 132.058 25.1289C132.409 25.1243 132.714 25.0036 132.974 24.7666C133.238 24.5296 133.443 24.1855 133.589 23.7344C133.735 23.2832 133.808 22.7454 133.808 22.1211C133.808 21.5013 133.735 20.9658 133.589 20.5146C133.443 20.0635 133.238 19.7194 132.974 19.4824C132.709 19.2454 132.404 19.127 132.058 19.127C131.711 19.127 131.406 19.2477 131.142 19.4893C130.877 19.7262 130.672 20.0703 130.526 20.5215C130.381 20.9681 130.308 21.5013 130.308 22.1211ZM136.897 16.8574H138.415V21.6016H140.315V22.8867H138.415V29.2168H136.897V16.8574ZM152.128 27.7129H140.835V26.4688H143.446V23.3447C142.945 23.0576 142.555 22.6953 142.277 22.2578C142.004 21.8203 141.869 21.3327 141.874 20.7949C141.874 20.1478 142.068 19.5781 142.455 19.0859C142.847 18.5892 143.392 18.2064 144.089 17.9375C144.786 17.6641 145.575 17.5273 146.454 17.5273C147.338 17.5273 148.129 17.6641 148.826 17.9375C149.528 18.2064 150.075 18.5892 150.467 19.0859C150.863 19.5781 151.062 20.1478 151.062 20.7949C151.066 21.3236 150.934 21.8021 150.665 22.2305C150.396 22.6589 150.018 23.0189 149.53 23.3105V26.4688H152.128V27.7129ZM143.364 20.7949C143.364 21.2096 143.492 21.5742 143.747 21.8887C144.007 22.1986 144.369 22.4378 144.834 22.6064C145.303 22.7751 145.843 22.8594 146.454 22.8594C147.065 22.8594 147.605 22.7751 148.074 22.6064C148.548 22.4378 148.915 22.1986 149.175 21.8887C149.439 21.5742 149.571 21.2096 149.571 20.7949C149.571 20.3757 149.439 20.0088 149.175 19.6943C148.915 19.3799 148.548 19.1406 148.074 18.9766C147.605 18.8125 147.065 18.7305 146.454 18.7305C145.839 18.7305 145.297 18.8125 144.827 18.9766C144.362 19.1406 144.002 19.3799 143.747 19.6943C143.492 20.0042 143.364 20.3711 143.364 20.7949ZM147.985 26.4688V23.8916C147.502 23.9964 146.992 24.0488 146.454 24.0488C145.939 24.0488 145.438 23.9987 144.95 23.8984V26.4688H147.985ZM155.327 25.0879H153.782L153.618 18.1016H155.478L155.327 25.0879ZM153.495 27.043C153.495 26.8561 153.543 26.6829 153.639 26.5234C153.734 26.3594 153.864 26.2295 154.028 26.1338C154.192 26.0381 154.37 25.9902 154.562 25.9902C154.748 25.9902 154.922 26.0381 155.081 26.1338C155.245 26.2295 155.375 26.3594 155.471 26.5234C155.566 26.6829 155.614 26.8561 155.614 27.043C155.614 27.2344 155.566 27.4121 155.471 27.5762C155.375 27.7402 155.245 27.8701 155.081 27.9658C154.922 28.0615 154.748 28.1094 154.562 28.1094C154.37 28.1094 154.192 28.0615 154.028 27.9658C153.864 27.8701 153.734 27.7402 153.639 27.5762C153.543 27.4121 153.495 27.2344 153.495 27.043ZM28.9648 49H27.1738V40.8379H27.1191L24.8086 42.3145V40.6875L27.2559 39.1016H28.9648V49ZM35.0215 49.1367C34.2285 49.1367 33.5472 48.9385 32.9775 48.542C32.4079 48.141 31.9727 47.5599 31.6719 46.7988C31.3711 46.0378 31.2207 45.1217 31.2207 44.0508C31.2207 42.9844 31.3711 42.0706 31.6719 41.3096C31.9772 40.5439 32.4147 39.9629 32.9844 39.5664C33.554 39.1654 34.2331 38.9648 35.0215 38.9648C35.8099 38.9648 36.4889 39.1654 37.0586 39.5664C37.6283 39.9629 38.0635 40.5439 38.3643 41.3096C38.6696 42.0706 38.8223 42.9844 38.8223 44.0508C38.8223 45.1217 38.6696 46.04 38.3643 46.8057C38.0635 47.5667 37.6283 48.1455 37.0586 48.542C36.4935 48.9385 35.8145 49.1367 35.0215 49.1367ZM33.0117 44.0508C33.0117 45.222 33.1872 46.113 33.5381 46.7236C33.8936 47.3343 34.388 47.6419 35.0215 47.6465C35.4362 47.6419 35.7939 47.5052 36.0947 47.2363C36.3955 46.9674 36.6257 46.5641 36.7852 46.0264C36.9492 45.4886 37.0312 44.8301 37.0312 44.0508C37.0312 43.276 36.9492 42.6198 36.7852 42.082C36.6257 41.5397 36.3955 41.1318 36.0947 40.8584C35.7939 40.585 35.4362 40.446 35.0215 40.4414C34.6068 40.446 34.249 40.585 33.9482 40.8584C33.6475 41.1318 33.415 41.5397 33.251 42.082C33.0915 42.6198 33.0117 43.276 33.0117 44.0508ZM43.9629 49.1367C43.1699 49.1367 42.4886 48.9385 41.9189 48.542C41.3493 48.141 40.9141 47.5599 40.6133 46.7988C40.3125 46.0378 40.1621 45.1217 40.1621 44.0508C40.1621 42.9844 40.3125 42.0706 40.6133 41.3096C40.9186 40.5439 41.3561 39.9629 41.9258 39.5664C42.4954 39.1654 43.1745 38.9648 43.9629 38.9648C44.7513 38.9648 45.4303 39.1654 46 39.5664C46.5697 39.9629 47.0049 40.5439 47.3057 41.3096C47.611 42.0706 47.7637 42.9844 47.7637 44.0508C47.7637 45.1217 47.611 46.04 47.3057 46.8057C47.0049 47.5667 46.5697 48.1455 46 48.542C45.4349 48.9385 44.7559 49.1367 43.9629 49.1367ZM41.9531 44.0508C41.9531 45.222 42.1286 46.113 42.4795 46.7236C42.835 47.3343 43.3294 47.6419 43.9629 47.6465C44.3776 47.6419 44.7354 47.5052 45.0361 47.2363C45.3369 46.9674 45.5671 46.5641 45.7266 46.0264C45.8906 45.4886 45.9727 44.8301 45.9727 44.0508C45.9727 43.276 45.8906 42.6198 45.7266 42.082C45.5671 41.5397 45.3369 41.1318 45.0361 40.8584C44.7354 40.585 44.3776 40.446 43.9629 40.4414C43.5482 40.446 43.1904 40.585 42.8896 40.8584C42.5889 41.1318 42.3564 41.5397 42.1924 42.082C42.0329 42.6198 41.9531 43.276 41.9531 44.0508ZM60.123 45.2539H55.3516V47.5234H53.8477V45.2539H48.8301V44.0371H60.123V45.2539ZM50.1973 46.3887H51.7148V48.7402H58.8789V49.9707H50.1973V46.3887ZM50.2656 38.418H58.6738V42.8887H50.2656V38.418ZM57.1699 41.6992V39.6074H51.7422V41.6992H57.1699ZM71.5801 50.2168H70.1309V37.8574H71.5801V50.2168ZM60.7246 46.7031C61.2988 46.3522 61.7773 45.8896 62.1602 45.3154C62.5475 44.7367 62.8324 44.0986 63.0146 43.4014C63.2015 42.6995 63.2949 41.9772 63.2949 41.2344V40.4141H61.1484V39.1836H66.7539V40.4141H64.7578V41.2344C64.7578 41.9544 64.8467 42.6471 65.0244 43.3125C65.2021 43.9779 65.4779 44.5817 65.8516 45.124C66.2298 45.6663 66.7038 46.1016 67.2734 46.4297L66.3711 47.5508C65.8151 47.2227 65.3434 46.7806 64.9561 46.2246C64.5687 45.6641 64.2633 45.0192 64.04 44.29C63.8122 45.083 63.4977 45.7848 63.0967 46.3955C62.7002 47.0062 62.2194 47.487 61.6543 47.8379L60.7246 46.7031ZM65.8516 42.1641H67.6289V38.0898H69.0645V49.6152H67.6289V43.3945H65.8516V42.1641ZM86.2773 39.3887V39.792C86.2773 40.3161 86.2591 40.8083 86.2227 41.2686C86.1908 41.7243 86.1224 42.2096 86.0176 42.7246H87.6035V43.9414H76.3926V42.7246H84.5068C84.5798 42.3372 84.639 41.9294 84.6846 41.501L77.623 41.7949L77.4453 40.6191L84.7461 40.4414C84.7552 40.2409 84.7598 39.9492 84.7598 39.5664H77.7598V38.3633H86.2773V39.3887ZM77.6367 44.8301H86.3457V47.9473H79.168V48.877H86.7832V50.0664H77.6641V46.8398H84.8281V45.9922H77.6367V44.8301ZM98.7598 50.2305H97.2559V37.8574H98.7598V50.2305ZM89.1348 38.9375H94.959V43.5723H90.707V46.0605C91.737 46.0514 92.6895 46.015 93.5645 45.9512C94.4395 45.8874 95.3372 45.778 96.2578 45.623L96.3945 46.8672C95.4375 47.0312 94.4941 47.1452 93.5645 47.209C92.6393 47.2728 91.6094 47.3047 90.4746 47.3047H90.2285H89.1484V42.3691H93.4141V40.168H89.1348V38.9375ZM103.941 38.7598C104.493 38.7598 104.992 38.9079 105.438 39.2041C105.885 39.5003 106.25 39.9242 106.532 40.4756C106.815 41.0225 106.993 41.6673 107.065 42.4102H109.424V37.8574H110.928V50.2305H109.424V43.6406H107.079C107.024 44.4245 106.858 45.1081 106.58 45.6914C106.302 46.2702 105.935 46.7168 105.479 47.0312C105.024 47.3411 104.511 47.4961 103.941 47.4961C103.322 47.4961 102.77 47.3184 102.287 46.9629C101.809 46.6029 101.435 46.0924 101.166 45.4316C100.902 44.7708 100.77 44.0007 100.77 43.1211C100.77 42.2461 100.902 41.4805 101.166 40.8242C101.435 40.1634 101.811 39.6553 102.294 39.2998C102.777 38.9398 103.326 38.7598 103.941 38.7598ZM102.232 43.1211C102.232 43.7454 102.303 44.2832 102.444 44.7344C102.586 45.1855 102.784 45.5296 103.039 45.7666C103.299 46.0036 103.6 46.1243 103.941 46.1289C104.283 46.1243 104.584 46.0036 104.844 45.7666C105.104 45.5296 105.304 45.1855 105.445 44.7344C105.591 44.2832 105.664 43.7454 105.664 43.1211C105.664 42.5013 105.591 41.9658 105.445 41.5146C105.304 41.0635 105.104 40.7194 104.844 40.4824C104.584 40.2454 104.283 40.127 103.941 40.127C103.6 40.127 103.299 40.2477 103.039 40.4893C102.784 40.7262 102.586 41.0703 102.444 41.5215C102.303 41.9681 102.232 42.5013 102.232 43.1211ZM119.09 40.168C119.09 40.724 119.16 41.2731 119.302 41.8154C119.448 42.3532 119.694 42.8317 120.04 43.251C120.377 42.8454 120.617 42.3737 120.758 41.8359C120.899 41.2982 120.972 40.7422 120.977 40.168V39.9492H120.266V38.7188H123.766V39.9492H122.412V40.168C122.412 40.9199 122.562 41.624 122.863 42.2803C123.169 42.9365 123.652 43.4355 124.312 43.7773L123.492 44.8574C122.663 44.4108 122.066 43.6725 121.701 42.6426C121.382 43.7272 120.822 44.5065 120.02 44.9805C119.245 44.5065 118.696 43.7386 118.372 42.6768C118.007 43.6976 117.413 44.4245 116.588 44.8574L115.768 43.7773C116.214 43.5358 116.579 43.2191 116.861 42.8271C117.144 42.4352 117.349 42.0114 117.477 41.5557C117.609 41.0999 117.673 40.6374 117.668 40.168V39.9492H116.246V38.7188H119.814V39.9492H119.09V40.168ZM117.518 45.7734H126.062V50.2168H124.545V46.9902H117.518V45.7734ZM124.545 37.8574H126.062V40.9062H127.43V42.1777H126.062V45.2539H124.545V37.8574ZM131.189 40.168C131.189 40.724 131.26 41.2731 131.401 41.8154C131.547 42.3532 131.793 42.8317 132.14 43.251C132.477 42.8454 132.716 42.3737 132.857 41.8359C132.999 41.2982 133.072 40.7422 133.076 40.168V39.9492H132.365V38.7188H135.865V39.9492H134.512V40.168C134.512 40.9199 134.662 41.624 134.963 42.2803C135.268 42.9365 135.751 43.4355 136.412 43.7773L135.592 44.8574C134.762 44.4108 134.165 43.6725 133.801 42.6426C133.482 43.7272 132.921 44.5065 132.119 44.9805C131.344 44.5065 130.795 43.7386 130.472 42.6768C130.107 43.6976 129.512 44.4245 128.688 44.8574L127.867 43.7773C128.314 43.5358 128.678 43.2191 128.961 42.8271C129.243 42.4352 129.449 42.0114 129.576 41.5557C129.708 41.0999 129.772 40.6374 129.768 40.168V39.9492H128.346V38.7188H131.914V39.9492H131.189V40.168ZM129.617 45.7734H138.162V50.2168H136.645V46.9902H129.617V45.7734ZM136.645 37.8574H138.162V40.9062H139.529V42.1777H138.162V45.2539H136.645V37.8574ZM143.289 40.168C143.289 40.724 143.36 41.2731 143.501 41.8154C143.647 42.3532 143.893 42.8317 144.239 43.251C144.576 42.8454 144.816 42.3737 144.957 41.8359C145.098 41.2982 145.171 40.7422 145.176 40.168V39.9492H144.465V38.7188H147.965V39.9492H146.611V40.168C146.611 40.9199 146.762 41.624 147.062 42.2803C147.368 42.9365 147.851 43.4355 148.512 43.7773L147.691 44.8574C146.862 44.4108 146.265 43.6725 145.9 42.6426C145.581 43.7272 145.021 44.5065 144.219 44.9805C143.444 44.5065 142.895 43.7386 142.571 42.6768C142.207 43.6976 141.612 44.4245 140.787 44.8574L139.967 43.7773C140.413 43.5358 140.778 43.2191 141.061 42.8271C141.343 42.4352 141.548 42.0114 141.676 41.5557C141.808 41.0999 141.872 40.6374 141.867 40.168V39.9492H140.445V38.7188H144.014V39.9492H143.289V40.168ZM141.717 45.7734H150.262V50.2168H148.744V46.9902H141.717V45.7734ZM148.744 37.8574H150.262V40.9062H151.629V42.1777H150.262V45.2539H148.744V37.8574ZM151.875 49.98H165.875V35.98H151.875V49.98Z" fill="#576DFC"/>
<path d="M94.2474 73.1399C94.6458 73.5952 95.3542 73.5952 95.7526 73.1399L102 66H88L94.2474 73.1399Z" fill="#E4E8FF"/>
</svg>
