<svg width="153" height="74" viewBox="0 0 153 74" fill="none" xmlns="http://www.w3.org/2000/svg">
<path d="M0 20C0 8.95431 8.95431 0 20 0H133C144.046 0 153 8.95431 153 20V46C153 57.0457 144.046 66 133 66H20C8.9543 66 0 57.0457 0 46V20Z" fill="#E4E8FF"/>
<path d="M41.5615 29.2168H40.0576V16.8574H41.5615V29.2168ZM31.2666 25.416C32.529 25.416 33.6546 25.4046 34.6436 25.3818V22.9688H32.1689V17.9922H33.7002V21.7383H38.6631V22.9688H36.1748V25.334C37.3551 25.2793 38.3988 25.1973 39.3057 25.0879L39.4014 26.209C38.3441 26.3822 37.2458 26.5029 36.1064 26.5713C34.9671 26.6351 33.7845 26.667 32.5586 26.667C32.0482 26.667 31.6722 26.6647 31.4307 26.6602L31.2666 25.416ZM54.0029 29.2168H52.54V16.8574H54.0029V29.2168ZM43.4619 22.2031C43.4619 21.3053 43.5713 20.526 43.79 19.8652C44.0088 19.1999 44.3187 18.6895 44.7197 18.334C45.1253 17.9785 45.5947 17.8008 46.1279 17.8008C46.6247 17.8008 47.0645 17.9489 47.4473 18.2451C47.8346 18.5413 48.1445 18.9674 48.377 19.5234C48.6139 20.0794 48.762 20.7402 48.8213 21.5059H50.0107V17.0762H51.46V28.6152H50.0107V22.7363H48.835C48.7894 23.5339 48.6481 24.2266 48.4111 24.8145C48.1787 25.3978 47.8665 25.8444 47.4746 26.1543C47.0827 26.4642 46.6338 26.6191 46.1279 26.6191C45.5947 26.6191 45.1253 26.4414 44.7197 26.0859C44.3187 25.7305 44.0088 25.2201 43.79 24.5547C43.5713 23.8848 43.4619 23.1009 43.4619 22.2031ZM44.8701 22.2441C44.8701 23.1875 44.9795 23.9121 45.1982 24.418C45.4215 24.9238 45.7314 25.1745 46.1279 25.1699C46.5426 25.1745 46.8639 24.9215 47.0918 24.4111C47.3197 23.9007 47.4359 23.1647 47.4404 22.2031C47.4359 21.2461 47.3197 20.5124 47.0918 20.002C46.8639 19.487 46.5426 19.2318 46.1279 19.2363C45.7269 19.2318 45.417 19.4893 45.1982 20.0088C44.9795 20.5283 44.8701 21.2734 44.8701 22.2441ZM62.6709 20.0703C62.6663 20.7904 62.7484 21.4785 62.917 22.1348C63.0902 22.7865 63.3568 23.3721 63.7168 23.8916C64.0814 24.4066 64.5394 24.8099 65.0908 25.1016L64.1885 26.3047C63.6462 26.0039 63.1859 25.596 62.8076 25.0811C62.4294 24.5615 62.1331 23.96 61.9189 23.2764C61.6911 24.0283 61.3743 24.6937 60.9688 25.2725C60.5677 25.8512 60.0869 26.3092 59.5264 26.6465L58.5557 25.5391C59.139 25.1973 59.6289 24.7415 60.0254 24.1719C60.4219 23.6022 60.7158 22.9733 60.9072 22.2852C61.0986 21.597 61.1943 20.8906 61.1943 20.166V17.9512H62.6709V20.0703ZM65.2549 17.0762H66.6904V21.7246H67.9619V16.8574H69.4248V29.2168H67.9619V22.9551H66.6904V28.6152H65.2549V17.0762ZM77.1631 18.1699C77.1631 18.8626 77.1107 19.5098 77.0059 20.1113H79.6924V16.8574H81.21V29.2031H79.6924V24.6777H76.5479V23.4473H79.6924V21.3281H76.7256C75.9827 23.7936 74.2646 25.6849 71.5713 27.002L70.7783 25.7988C72.2959 25.0423 73.4489 24.1354 74.2373 23.0781C75.0257 22.0208 75.4883 20.7858 75.625 19.373H71.3525V18.1699H77.1631ZM86.2822 17.7598C86.902 17.7598 87.4535 17.9398 87.9365 18.2998C88.4196 18.6553 88.7979 19.1634 89.0713 19.8242C89.3493 20.4805 89.4906 21.2461 89.4951 22.1211C89.4906 23.0007 89.3493 23.7708 89.0713 24.4316C88.7979 25.0924 88.4196 25.6029 87.9365 25.9629C87.4535 26.3184 86.902 26.4961 86.2822 26.4961C85.6579 26.4961 85.1019 26.3184 84.6143 25.9629C84.1266 25.6029 83.7461 25.0924 83.4727 24.4316C83.2038 23.7708 83.0693 23.0007 83.0693 22.1211C83.0693 21.2461 83.2038 20.4805 83.4727 19.8242C83.7461 19.1634 84.1266 18.6553 84.6143 18.2998C85.1019 17.9398 85.6579 17.7598 86.2822 17.7598ZM84.5322 22.1211C84.5322 22.7409 84.6051 23.2786 84.751 23.7344C84.8968 24.1855 85.1019 24.5296 85.3662 24.7666C85.6305 25.0036 85.9359 25.1243 86.2822 25.1289C86.6331 25.1243 86.9385 25.0036 87.1982 24.7666C87.4626 24.5296 87.6676 24.1855 87.8135 23.7344C87.9593 23.2832 88.0322 22.7454 88.0322 22.1211C88.0322 21.5013 87.9593 20.9658 87.8135 20.5146C87.6676 20.0635 87.4626 19.7194 87.1982 19.4824C86.9339 19.2454 86.6286 19.127 86.2822 19.127C85.9359 19.127 85.6305 19.2477 85.3662 19.4893C85.1019 19.7262 84.8968 20.0703 84.751 20.5215C84.6051 20.9681 84.5322 21.5013 84.5322 22.1211ZM91.1221 16.8574H92.6396V19.8105H94.4717V21.082H92.6396V23.4609H94.4717V24.7051H92.6396V29.2168H91.1221V16.8574ZM108.062 21.7793H109.962V23.0371H108.062V29.2168H106.558V16.8574H108.062V21.7793ZM98.3135 18.7578H101.239V17.0352H102.757V18.7578H105.601V19.9746H98.3135V18.7578ZM98.8877 23.6934C98.8831 23.1328 99.0153 22.6315 99.2842 22.1895C99.5531 21.7428 99.9245 21.3965 100.398 21.1504C100.872 20.9043 101.408 20.7812 102.005 20.7812C102.593 20.7812 103.121 20.9043 103.591 21.1504C104.06 21.3965 104.429 21.7428 104.698 22.1895C104.972 22.6315 105.108 23.1328 105.108 23.6934C105.108 24.2539 104.972 24.7552 104.698 25.1973C104.429 25.6348 104.06 25.9766 103.591 26.2227C103.121 26.4688 102.593 26.5918 102.005 26.5918C101.408 26.5918 100.872 26.4688 100.398 26.2227C99.9245 25.9766 99.5531 25.6348 99.2842 25.1973C99.0153 24.7552 98.8831 24.2539 98.8877 23.6934ZM100.337 23.6934C100.337 24.0215 100.408 24.3109 100.549 24.5615C100.69 24.8076 100.886 24.999 101.137 25.1357C101.392 25.2679 101.681 25.334 102.005 25.334C102.319 25.334 102.602 25.2679 102.853 25.1357C103.103 25.0036 103.299 24.8122 103.44 24.5615C103.582 24.3109 103.655 24.0215 103.659 23.6934C103.655 23.3652 103.579 23.0758 103.434 22.8252C103.292 22.57 103.096 22.374 102.846 22.2373C102.6 22.096 102.319 22.0254 102.005 22.0254C101.681 22.0254 101.392 22.096 101.137 22.2373C100.886 22.374 100.69 22.57 100.549 22.8252C100.408 23.0758 100.337 23.3652 100.337 23.6934ZM120.489 21.5605H111.931V17.3086H113.435V20.3574H120.489V21.5605ZM110.468 22.9961H121.761V24.1992H110.468V22.9961ZM111.821 25.293H113.339V27.6992H120.571V28.9297H111.821V25.293ZM35.1289 44.2285H33.6113V37.8574H35.1289V44.2285ZM25.0254 42.7109C25.3079 42.7109 25.7773 42.7064 26.4336 42.6973V39.8262H25.3535V38.6504H32.0664V39.8262H30.959V42.5127C31.4831 42.4762 32.0254 42.4238 32.5859 42.3555L32.6543 43.4492C30.6992 43.7591 28.2109 43.9141 25.1895 43.9141L25.0254 42.7109ZM26.8438 44.748H35.1289V47.9336H28.375V48.9043H35.5254V50.1074H26.8711V46.8262H33.625V45.9375H26.8438V44.748ZM27.8965 42.6631C28.4342 42.6494 28.972 42.6289 29.5098 42.6016V39.8262H27.8965V42.6631ZM43.3594 38.8828C43.3548 39.4023 43.5348 39.9082 43.8994 40.4004C44.2686 40.8926 44.7858 41.3141 45.4512 41.665C46.1211 42.016 46.8822 42.2461 47.7344 42.3555L47.1328 43.5859C46.0938 43.431 45.1732 43.112 44.3711 42.6289C43.569 42.1413 42.9652 41.5465 42.5596 40.8447C42.154 41.5465 41.5524 42.1413 40.7549 42.6289C39.9574 43.112 39.0436 43.431 38.0137 43.5859L37.4121 42.3555C38.2598 42.2461 39.014 42.016 39.6748 41.665C40.3356 41.3141 40.8483 40.8949 41.2129 40.4072C41.5775 39.915 41.7598 39.4069 41.7598 38.8828V38.2539H43.3594V38.8828ZM36.9199 44.6523H48.1855V45.9102H43.2773V50.2168H41.7734V45.9102H36.9199V44.6523ZM62.6094 44.2285H61.1055V37.8574H62.6094V44.2285ZM52.4375 43.1211C53.0618 42.9388 53.5973 42.6722 54.0439 42.3213C54.4951 41.9704 54.8415 41.5693 55.083 41.1182C55.3291 40.667 55.4658 40.1953 55.4932 39.7031H52.834V38.4727H59.6289V39.7031H57.0381C57.0609 40.168 57.193 40.6123 57.4346 41.0361C57.6761 41.4554 58.0202 41.8268 58.4668 42.1504C58.9134 42.474 59.4466 42.7201 60.0664 42.8887L59.3281 44.0645C58.6217 43.8594 58.0111 43.5495 57.4961 43.1348C56.9811 42.7155 56.5801 42.221 56.293 41.6514C56.0059 42.2848 55.5934 42.834 55.0557 43.2988C54.5225 43.7591 53.8822 44.1009 53.1348 44.3242L52.4375 43.1211ZM54.4336 44.748H62.6367V47.9336H55.9512V48.9316H63.0059V50.1074H54.4609V46.8262H61.1191V45.9102H54.4336V44.748ZM75.7207 45.2539H70.9492V47.5234H69.4453V45.2539H64.4277V44.0371H75.7207V45.2539ZM65.7949 46.3887H67.3125V48.7402H74.4766V49.9707H65.7949V46.3887ZM65.8633 38.418H74.2715V42.8887H65.8633V38.418ZM72.7676 41.6992V39.6074H67.3398V41.6992H72.7676ZM86.8223 50.2305H85.291V37.8574H86.8223V50.2305ZM76.9375 43.1211C76.9375 42.2507 77.0742 41.485 77.3477 40.8242C77.6211 40.1634 78.0016 39.6553 78.4893 39.2998C78.9814 38.9398 79.5397 38.7598 80.1641 38.7598C80.7793 38.7598 81.3307 38.9398 81.8184 39.2998C82.3105 39.6553 82.6956 40.1634 82.9736 40.8242C83.2516 41.485 83.3906 42.2507 83.3906 43.1211C83.3906 44.0007 83.2516 44.7708 82.9736 45.4316C82.6956 46.0924 82.3105 46.6029 81.8184 46.9629C81.3307 47.3184 80.7793 47.4961 80.1641 47.4961C79.5397 47.4961 78.9814 47.3184 78.4893 46.9629C78.0016 46.6029 77.6211 46.0924 77.3477 45.4316C77.0742 44.7708 76.9375 44.0007 76.9375 43.1211ZM78.4004 43.1211C78.4004 43.7454 78.4733 44.2832 78.6191 44.7344C78.7695 45.1855 78.9769 45.5296 79.2412 45.7666C79.5055 46.0036 79.8132 46.1243 80.1641 46.1289C80.5104 46.1243 80.8158 46.0036 81.0801 45.7666C81.3444 45.5296 81.5495 45.1855 81.6953 44.7344C81.8411 44.2832 81.9141 43.7454 81.9141 43.1211C81.9141 42.5013 81.8411 41.9681 81.6953 41.5215C81.5495 41.0703 81.3444 40.7262 81.0801 40.4893C80.8158 40.2477 80.5104 40.127 80.1641 40.127C79.8132 40.127 79.5055 40.2477 79.2412 40.4893C78.9769 40.7262 78.7695 41.0703 78.6191 41.5215C78.4733 41.9681 78.4004 42.5013 78.4004 43.1211ZM98.3887 40.6602H100.125V41.9316H98.3887V44.6934H96.8711V37.8711H98.3887V40.6602ZM89.1055 38.4453H94.752V41.9727H90.6367V43.2305C91.7624 43.2259 92.7148 43.1963 93.4941 43.1416C94.2734 43.0869 95.0618 42.9844 95.8594 42.834L96.0234 44.0781C95.1393 44.2331 94.2575 44.3402 93.3779 44.3994C92.4984 44.4541 91.416 44.4837 90.1309 44.4883H89.1191V40.8105H93.2617V39.6621H89.1055V38.4453ZM90.4043 45.1992H91.9082V46.457H96.8711V45.1992H98.3887V50.0664H90.4043V45.1992ZM96.8711 48.8359V47.6465H91.9082V48.8359H96.8711ZM111.049 50.2168H109.545V37.8574H111.049V50.2168ZM101.451 39.0605H102.955V45.8145C104.901 45.7826 106.729 45.5957 108.438 45.2539L108.629 46.5254C106.706 46.9264 104.669 47.1224 102.518 47.1133H101.451V39.0605ZM122.52 42.5469H124.42V43.791H122.52V50.2305H121.002V37.8574H122.52V42.5469ZM113.346 39.0332H119.129V40.2637H114.863V45.9375C115.866 45.9329 116.768 45.901 117.57 45.8418C118.372 45.7826 119.184 45.6823 120.004 45.541L120.182 46.8262C119.284 46.9811 118.4 47.0837 117.529 47.1338C116.659 47.1839 115.606 47.209 114.371 47.209H113.346V39.0332ZM127.332 46.0879H125.787L125.623 39.1016H127.482L127.332 46.0879ZM125.5 48.043C125.5 47.8561 125.548 47.6829 125.644 47.5234C125.739 47.3594 125.869 47.2295 126.033 47.1338C126.197 47.0381 126.375 46.9902 126.566 46.9902C126.753 46.9902 126.926 47.0381 127.086 47.1338C127.25 47.2295 127.38 47.3594 127.476 47.5234C127.571 47.6829 127.619 47.8561 127.619 48.043C127.619 48.2344 127.571 48.4121 127.476 48.5762C127.38 48.7402 127.25 48.8701 127.086 48.9658C126.926 49.0615 126.753 49.1094 126.566 49.1094C126.375 49.1094 126.197 49.0615 126.033 48.9658C125.869 48.8701 125.739 48.7402 125.644 48.5762C125.548 48.4121 125.5 48.2344 125.5 48.043Z" fill="#576DFC"/>
<path d="M75.7474 73.1399C76.1458 73.5952 76.8542 73.5952 77.2526 73.1399L83.5 66H69.5L75.7474 73.1399Z" fill="#E4E8FF"/>
</svg>
