<svg width="173" height="74" viewBox="0 0 173 74" fill="none" xmlns="http://www.w3.org/2000/svg">
<path d="M0 20C0 8.95431 8.9543 0 20 0H153C164.046 0 173 8.95431 173 20V46C173 57.0457 164.046 66 153 66H20C8.95431 66 0 57.0457 0 46V20Z" fill="#E4E8FF"/>
<path d="M44.4453 20.8223C44.3997 20.403 44.2106 20.0749 43.8779 19.8379C43.5498 19.6009 43.1214 19.4824 42.5928 19.4824C42.2191 19.4824 41.8932 19.5371 41.6152 19.6465C41.3418 19.7559 41.1322 19.9085 40.9863 20.1045C40.8405 20.3005 40.7676 20.5238 40.7676 20.7744C40.7676 21.1481 40.9248 21.4398 41.2393 21.6494C41.5537 21.8545 41.9616 22.0163 42.4629 22.1348L43.3926 22.3809C44.2448 22.5768 44.9398 22.9027 45.4775 23.3584C46.0199 23.8096 46.291 24.4316 46.291 25.2246C46.291 25.8034 46.1429 26.3138 45.8467 26.7559C45.5505 27.1979 45.1198 27.542 44.5547 27.7881C43.9941 28.0296 43.3242 28.1504 42.5449 28.1504C41.7793 28.1504 41.1117 28.0319 40.542 27.7949C39.9769 27.5534 39.5348 27.2025 39.2158 26.7422C38.8968 26.2819 38.7259 25.7305 38.7031 25.0879H40.4531C40.4941 25.5846 40.7038 25.9652 41.082 26.2295C41.4603 26.4938 41.9434 26.6283 42.5312 26.6328C42.9186 26.6328 43.2604 26.5736 43.5566 26.4551C43.8574 26.332 44.0921 26.1634 44.2607 25.9492C44.4294 25.735 44.5137 25.4889 44.5137 25.2109C44.5091 24.8464 44.3587 24.5638 44.0625 24.3633C43.7663 24.1582 43.3197 23.9805 42.7227 23.8301L41.6016 23.543C39.8424 23.0827 38.9629 22.194 38.9629 20.877C38.9629 20.3027 39.1201 19.7969 39.4346 19.3594C39.749 18.9173 40.182 18.5755 40.7334 18.334C41.2848 18.0879 41.9069 17.9648 42.5996 17.9648C43.2878 17.9648 43.8984 18.0856 44.4316 18.3271C44.9694 18.5687 45.3887 18.9082 45.6895 19.3457C45.9902 19.7786 46.1452 20.2708 46.1543 20.8223H44.4453ZM47.3301 18.1016H55.2188V19.5918H52.1699V28H50.3926V19.5918H47.3301V18.1016ZM56.6133 18.1016H63.0527V19.5918H58.3906V22.2988H62.7109V23.7891H58.3906V26.4961H63.0801V28H56.6133V18.1016ZM64.7617 18.1016H68.4805C69.2188 18.1016 69.8477 18.2406 70.3672 18.5186C70.8913 18.7965 71.2878 19.1839 71.5566 19.6807C71.8255 20.1729 71.9622 20.7402 71.9668 21.3828C71.9622 22.0208 71.8232 22.5859 71.5498 23.0781C71.2809 23.5703 70.8822 23.9554 70.3535 24.2334C69.8294 24.5114 69.196 24.6504 68.4531 24.6504H66.5391V28H64.7617V18.1016ZM68.207 23.1875C68.8542 23.1829 69.3395 23.0189 69.6631 22.6953C69.9867 22.3672 70.1484 21.9297 70.1484 21.3828C70.1484 20.8314 69.9867 20.3962 69.6631 20.0771C69.3395 19.7536 68.8542 19.5918 68.207 19.5918H66.5391V23.1875H68.207ZM80.2793 28.1367C79.4863 28.1367 78.805 27.9385 78.2354 27.542C77.6657 27.141 77.2305 26.5599 76.9297 25.7988C76.6289 25.0378 76.4785 24.1217 76.4785 23.0508C76.4785 21.9844 76.6289 21.0706 76.9297 20.3096C77.235 19.5439 77.6725 18.9629 78.2422 18.5664C78.8118 18.1654 79.4909 17.9648 80.2793 17.9648C81.0677 17.9648 81.7467 18.1654 82.3164 18.5664C82.8861 18.9629 83.3213 19.5439 83.6221 20.3096C83.9274 21.0706 84.0801 21.9844 84.0801 23.0508C84.0801 24.1217 83.9274 25.04 83.6221 25.8057C83.3213 26.5667 82.8861 27.1455 82.3164 27.542C81.7513 27.9385 81.0723 28.1367 80.2793 28.1367ZM78.2695 23.0508C78.2695 24.222 78.445 25.113 78.7959 25.7236C79.1514 26.3343 79.6458 26.6419 80.2793 26.6465C80.694 26.6419 81.0518 26.5052 81.3525 26.2363C81.6533 25.9674 81.8835 25.5641 82.043 25.0264C82.207 24.4886 82.2891 23.8301 82.2891 23.0508C82.2891 22.276 82.207 21.6198 82.043 21.082C81.8835 20.5397 81.6533 20.1318 81.3525 19.8584C81.0518 19.585 80.694 19.446 80.2793 19.4414C79.8646 19.446 79.5068 19.585 79.2061 19.8584C78.9053 20.1318 78.6729 20.5397 78.5088 21.082C78.3493 21.6198 78.2695 22.276 78.2695 23.0508ZM89.5898 28H87.7988V19.8379H87.7441L85.4336 21.3145V19.6875L87.8809 18.1016H89.5898V28ZM104.82 18.3887V18.792C104.82 19.3161 104.802 19.8083 104.766 20.2686C104.734 20.7243 104.665 21.2096 104.561 21.7246H106.146V22.9414H94.9355V21.7246H103.05C103.123 21.3372 103.182 20.9294 103.228 20.501L96.166 20.7949L95.9883 19.6191L103.289 19.4414C103.298 19.2409 103.303 18.9492 103.303 18.5664H96.3027V17.3633H104.82V18.3887ZM96.1797 23.8301H104.889V26.9473H97.7109V27.877H105.326V29.0664H96.207V25.8398H103.371V24.9922H96.1797V23.8301ZM117.303 29.2305H115.799V16.8574H117.303V29.2305ZM107.678 17.9375H113.502V22.5723H109.25V25.0605C110.28 25.0514 111.232 25.015 112.107 24.9512C112.982 24.8874 113.88 24.778 114.801 24.623L114.938 25.8672C113.98 26.0312 113.037 26.1452 112.107 26.209C111.182 26.2728 110.152 26.3047 109.018 26.3047H108.771H107.691V21.3691H111.957V19.168H107.678V17.9375ZM122.484 17.7598C123.036 17.7598 123.535 17.9079 123.981 18.2041C124.428 18.5003 124.793 18.9242 125.075 19.4756C125.358 20.0225 125.535 20.6673 125.608 21.4102H127.967V16.8574H129.471V29.2305H127.967V22.6406H125.622C125.567 23.4245 125.401 24.1081 125.123 24.6914C124.845 25.2702 124.478 25.7168 124.022 26.0312C123.567 26.3411 123.054 26.4961 122.484 26.4961C121.865 26.4961 121.313 26.3184 120.83 25.9629C120.352 25.6029 119.978 25.0924 119.709 24.4316C119.445 23.7708 119.312 23.0007 119.312 22.1211C119.312 21.2461 119.445 20.4805 119.709 19.8242C119.978 19.1634 120.354 18.6553 120.837 18.2998C121.32 17.9398 121.869 17.7598 122.484 17.7598ZM120.775 22.1211C120.775 22.7454 120.846 23.2832 120.987 23.7344C121.129 24.1855 121.327 24.5296 121.582 24.7666C121.842 25.0036 122.143 25.1243 122.484 25.1289C122.826 25.1243 123.127 25.0036 123.387 24.7666C123.646 24.5296 123.847 24.1855 123.988 23.7344C124.134 23.2832 124.207 22.7454 124.207 22.1211C124.207 21.5013 124.134 20.9658 123.988 20.5146C123.847 20.0635 123.646 19.7194 123.387 19.4824C123.127 19.2454 122.826 19.127 122.484 19.127C122.143 19.127 121.842 19.2477 121.582 19.4893C121.327 19.7262 121.129 20.0703 120.987 20.5215C120.846 20.9681 120.775 21.5013 120.775 22.1211ZM133.6 25.0879H132.055L131.891 18.1016H133.75L133.6 25.0879ZM131.768 27.043C131.768 26.8561 131.815 26.6829 131.911 26.5234C132.007 26.3594 132.137 26.2295 132.301 26.1338C132.465 26.0381 132.643 25.9902 132.834 25.9902C133.021 25.9902 133.194 26.0381 133.354 26.1338C133.518 26.2295 133.647 26.3594 133.743 26.5234C133.839 26.6829 133.887 26.8561 133.887 27.043C133.887 27.2344 133.839 27.4121 133.743 27.5762C133.647 27.7402 133.518 27.8701 133.354 27.9658C133.194 28.0615 133.021 28.1094 132.834 28.1094C132.643 28.1094 132.465 28.0615 132.301 27.9658C132.137 27.8701 132.007 27.7402 131.911 27.5762C131.815 27.4121 131.768 27.2344 131.768 27.043ZM34.3076 42.5469H36.208V43.791H34.3076V50.2305H32.79V37.8574H34.3076V42.5469ZM25.1338 39.0332H30.917V40.2637H26.6514V45.9375C27.654 45.9329 28.5563 45.901 29.3584 45.8418C30.1605 45.7826 30.9717 45.6823 31.792 45.541L31.9697 46.8262C31.0719 46.9811 30.1878 47.0837 29.3174 47.1338C28.4469 47.1839 27.3942 47.209 26.1592 47.209H25.1338V39.0332ZM42.3467 38.1035C43.2536 38.1035 44.042 38.1992 44.7119 38.3906C45.3818 38.582 45.8968 38.86 46.2568 39.2246C46.6214 39.5846 46.8037 40.013 46.8037 40.5098C46.8037 40.9974 46.6214 41.4189 46.2568 41.7744C45.8968 42.1253 45.3818 42.3942 44.7119 42.5811C44.042 42.7679 43.2536 42.8613 42.3467 42.8613C41.4489 42.8613 40.6628 42.7679 39.9883 42.5811C39.3184 42.3942 38.8011 42.1253 38.4365 41.7744C38.0719 41.4189 37.8896 40.9974 37.8896 40.5098C37.8896 40.013 38.0719 39.5846 38.4365 39.2246C38.8011 38.86 39.3184 38.582 39.9883 38.3906C40.6628 38.1992 41.4489 38.1035 42.3467 38.1035ZM36.7275 43.6953H47.9932V44.9258H36.7275V43.6953ZM38.0537 45.9102H46.626V50.0664H38.0537V45.9102ZM39.4756 40.5098C39.471 40.8789 39.7217 41.166 40.2275 41.3711C40.7334 41.5762 41.4398 41.681 42.3467 41.6855C43.2536 41.681 43.96 41.5762 44.4658 41.3711C44.9762 41.166 45.2314 40.8789 45.2314 40.5098C45.2314 40.1178 44.9785 39.8171 44.4727 39.6074C43.9668 39.3978 43.2581 39.293 42.3467 39.293C41.4352 39.293 40.7266 39.3978 40.2207 39.6074C39.7194 39.8171 39.471 40.1178 39.4756 40.5098ZM45.1494 48.8359V47.1133H39.5576V48.8359H45.1494ZM61.8975 41.3301H63.6338V42.5879H61.8975V46.7988H60.3799V37.8574H61.8975V41.3301ZM52.6689 38.8828H58.2061V40.0996H54.1729V43.4629C55.376 43.4629 56.3444 43.4378 57.0781 43.3877C57.8164 43.333 58.5433 43.2305 59.2588 43.0801L59.4229 44.3105C58.6344 44.4655 57.8278 44.5703 57.0029 44.625C56.1781 44.6797 55.0661 44.707 53.667 44.707H52.6689V38.8828ZM53.9814 45.8555H55.499V48.7402H62.3896V49.9707H53.9814V45.8555ZM74.9131 50.2168H73.4639V37.8574H74.9131V50.2168ZM64.126 46.5254C65.3792 45.7826 66.3226 44.9258 66.9561 43.9551C67.5941 42.9844 67.9723 41.8633 68.0908 40.5918H64.7822V39.3613H69.5947C69.5947 39.9993 69.5514 40.6055 69.4648 41.1797H70.9072V38.1582H72.3564V49.6289H70.9072V45.5H68.9795V44.2559H70.9072V42.4238H69.2051C68.8997 43.4857 68.4053 44.4495 67.7217 45.3154C67.0426 46.1768 66.1403 46.9401 65.0146 47.6055L64.126 46.5254ZM87.6416 48.7812H76.3486V47.5234H81.2158V45.5137H77.6885V41.4668H84.7979V39.9355H77.6611V38.7051H86.3018V42.6699H79.2061V44.2695H86.5889V45.5137H82.7197V47.5234H87.6416V48.7812ZM96.665 42.4102H93.7666V43.8662C94.5322 43.8571 95.1999 43.8298 95.7695 43.7842C96.3392 43.734 96.9202 43.6497 97.5127 43.5312L97.6631 44.7344C96.9795 44.8665 96.305 44.9554 95.6396 45.001C94.9743 45.042 94.1357 45.0625 93.124 45.0625H92.29V41.2891H95.2021V39.9629H92.2764V38.7461H96.665V42.4102ZM93.2744 49C94.0811 48.8906 94.792 48.6855 95.4072 48.3848C96.0225 48.0794 96.4987 47.7148 96.8359 47.291C97.1732 46.8672 97.3441 46.4206 97.3486 45.9512V45.6914H98.8662V45.9512C98.8617 46.4206 99.0257 46.8672 99.3584 47.291C99.6956 47.7148 100.172 48.0794 100.787 48.3848C101.407 48.6855 102.125 48.8906 102.94 49L102.353 50.1484C101.382 50.0072 100.527 49.7292 99.7891 49.3145C99.0508 48.9043 98.4902 48.3962 98.1074 47.79C97.7246 48.3962 97.1641 48.9043 96.4258 49.3145C95.6875 49.7292 94.833 50.0072 93.8623 50.1484L93.2744 49ZM97.1162 40.7969H98.4014V38.1172H99.8369V45.2539H98.4014V42.0137H97.1162V40.7969ZM100.89 37.8711H102.339V46.293H100.89V37.8711ZM115.163 48.7266H103.87V47.4824H115.163V48.7266ZM104.362 44.4883C105.224 44.3607 105.978 44.1214 106.625 43.7705C107.272 43.415 107.776 42.9889 108.136 42.4922C108.496 41.9954 108.694 41.4668 108.73 40.9062H104.868V39.6758H108.751V38.0898H110.255V39.6758H114.151V40.9062H110.289C110.321 41.4668 110.517 41.9954 110.877 42.4922C111.237 42.9889 111.741 43.415 112.388 43.7705C113.035 44.1214 113.791 44.3607 114.657 44.4883L114.069 45.7051C113.017 45.5319 112.094 45.2038 111.301 44.7207C110.512 44.2331 109.913 43.6315 109.503 42.916C109.093 43.627 108.491 44.2262 107.698 44.7139C106.91 45.2015 105.989 45.5319 104.937 45.7051L104.362 44.4883ZM126.292 50.2168H124.761V37.8574H126.292V50.2168ZM116.052 46.8125C117.647 46.056 118.843 45.1514 119.641 44.0986C120.443 43.0459 120.914 41.804 121.056 40.373H116.681V39.1699H122.601C122.601 41.1341 122.156 42.8568 121.268 44.3379C120.379 45.819 118.905 47.0495 116.845 48.0293L116.052 46.8125ZM138.337 46.2656H136.833V37.8574H138.337V46.2656ZM128.698 38.6367H134.399V42.3281H130.216V43.7363C131.378 43.7318 132.365 43.7021 133.176 43.6475C133.987 43.5928 134.805 43.4948 135.63 43.3535L135.794 44.5703C134.91 44.7298 134.026 44.8369 133.142 44.8916C132.262 44.9417 131.141 44.9668 129.778 44.9668H128.726V41.166H132.896V39.8672H128.698V38.6367ZM129.396 49C130.207 48.8906 130.915 48.6855 131.521 48.3848C132.132 48.084 132.599 47.7171 132.923 47.2842C133.251 46.8512 133.415 46.3887 133.415 45.8965V45.6367H135.015V45.8965C135.01 46.3841 135.17 46.8444 135.493 47.2773C135.817 47.7103 136.282 48.0794 136.888 48.3848C137.494 48.6855 138.205 48.8906 139.021 49L138.46 50.1621C137.466 50.0117 136.603 49.7269 135.869 49.3076C135.135 48.8929 134.582 48.3734 134.208 47.749C133.834 48.3734 133.281 48.8952 132.547 49.3145C131.813 49.7337 130.954 50.0163 129.97 50.1621L129.396 49ZM140.757 46.2383C140.743 45.6686 140.821 45.1878 140.989 44.7959C141.162 44.3994 141.402 44.1032 141.707 43.9072C142.017 43.7113 142.375 43.6133 142.78 43.6133C143.095 43.6133 143.389 43.6771 143.662 43.8047C143.936 43.9323 144.252 44.151 144.612 44.4609C144.84 44.6615 145.016 44.8005 145.139 44.8779C145.266 44.9508 145.41 44.9896 145.569 44.9941C145.825 44.9896 146.025 44.8916 146.171 44.7002C146.321 44.5042 146.394 44.2194 146.39 43.8457H147.784C147.798 44.4108 147.718 44.8916 147.545 45.2881C147.376 45.68 147.137 45.9762 146.827 46.1768C146.517 46.3727 146.162 46.4707 145.761 46.4707C145.442 46.4707 145.143 46.4046 144.865 46.2725C144.592 46.1403 144.28 45.9193 143.929 45.6094C143.678 45.3997 143.493 45.2607 143.375 45.1924C143.261 45.124 143.127 45.0898 142.972 45.0898C142.716 45.0898 142.514 45.1833 142.363 45.3701C142.217 45.557 142.147 45.8464 142.151 46.2383H140.757Z" fill="#576DFC"/>
<path d="M85.7474 73.1399C86.1458 73.5952 86.8542 73.5952 87.2526 73.1399L93.5 66H79.5L85.7474 73.1399Z" fill="#E4E8FF"/>
</svg>
