<svg width="180" height="74" viewBox="0 0 180 74" fill="none" xmlns="http://www.w3.org/2000/svg">
<path d="M0 20C0 8.95431 8.95431 0 20 0H160C171.046 0 180 8.95431 180 20V46C180 57.0457 171.046 66 160 66H20C8.9543 66 0 57.0457 0 46V20Z" fill="#E4E8FF"/>
<path d="M42.4697 19.4551C42.4697 20.1934 42.4606 20.8268 42.4424 21.3555C42.4287 21.8841 42.39 22.4902 42.3262 23.1738C42.2624 23.8574 42.1598 24.6048 42.0186 25.416L40.4736 25.2793C40.624 24.5273 40.7334 23.8164 40.8018 23.1465C40.8701 22.472 40.9111 21.8704 40.9248 21.3418C40.943 20.8132 40.9521 20.1842 40.9521 19.4551V19.291H33.8291V18.0605H42.4697V19.4551ZM32.6396 26.2773H43.9053V27.5215H32.6396V26.2773ZM56.0186 23.9941H44.7393V22.7773H49.6338V21.6016H46.1201V17.418H54.6514V18.6074H47.6377V20.3984H54.7197V21.6016H51.124V22.7773H56.0186V23.9941ZM46.0518 26.9609C46.0518 26.4824 46.2227 26.0745 46.5645 25.7373C46.9108 25.3955 47.4053 25.138 48.0479 24.9648C48.695 24.7917 49.4652 24.7051 50.3584 24.7051C51.2471 24.7051 52.0104 24.7917 52.6484 24.9648C53.291 25.138 53.7832 25.3955 54.125 25.7373C54.4668 26.0745 54.6377 26.4824 54.6377 26.9609C54.6377 27.4349 54.4668 27.8405 54.125 28.1777C53.7832 28.515 53.291 28.7725 52.6484 28.9502C52.0104 29.1279 51.2471 29.2168 50.3584 29.2168C49.4652 29.2168 48.695 29.1279 48.0479 28.9502C47.4053 28.7725 46.9108 28.515 46.5645 28.1777C46.2227 27.8405 46.0518 27.4349 46.0518 26.9609ZM47.5967 26.9609C47.5921 27.3164 47.82 27.5853 48.2803 27.7676C48.7451 27.9499 49.4219 28.041 50.3105 28.041C51.222 28.041 51.917 27.9521 52.3955 27.7744C52.874 27.5921 53.1156 27.321 53.1201 26.9609C53.1156 26.6055 52.8763 26.3343 52.4023 26.1475C51.9284 25.9606 51.2471 25.8672 50.3584 25.8672C49.4606 25.8672 48.7747 25.9606 48.3008 26.1475C47.8268 26.3343 47.5921 26.6055 47.5967 26.9609ZM66.5869 20.4805H68.3096V21.7383H66.5869V25.8945H65.0693V16.8574H66.5869V20.4805ZM56.9756 20.7949C56.9756 20.1979 57.1214 19.6624 57.4131 19.1885C57.7048 18.7145 58.1035 18.3454 58.6094 18.0811C59.1198 17.8122 59.6872 17.6777 60.3115 17.6777C60.9313 17.6777 61.4941 17.8122 62 18.0811C62.5104 18.3454 62.9115 18.7145 63.2031 19.1885C63.4948 19.6624 63.6429 20.1979 63.6475 20.7949C63.6429 21.3828 63.4925 21.9137 63.1963 22.3877C62.9046 22.8617 62.5059 23.2331 62 23.502C61.4941 23.7663 60.9313 23.8984 60.3115 23.8984C59.6917 23.8984 59.1266 23.7663 58.6162 23.502C58.1058 23.2331 57.7048 22.8617 57.4131 22.3877C57.1214 21.9137 56.9756 21.3828 56.9756 20.7949ZM58.4658 20.7949C58.4658 21.1413 58.5456 21.4489 58.7051 21.7178C58.8691 21.9867 59.0924 22.194 59.375 22.3398C59.6576 22.4857 59.9697 22.5586 60.3115 22.5586C60.6579 22.5586 60.9701 22.4857 61.248 22.3398C61.5306 22.194 61.7516 21.9889 61.9111 21.7246C62.0752 21.4557 62.1572 21.1458 62.1572 20.7949C62.1572 20.4395 62.0752 20.1273 61.9111 19.8584C61.7516 19.585 61.5306 19.3753 61.248 19.2295C60.9701 19.0791 60.6579 19.0039 60.3115 19.0039C59.9652 19.0039 59.6507 19.0791 59.3682 19.2295C59.0902 19.3753 58.8691 19.585 58.7051 19.8584C58.5456 20.1273 58.4658 20.4395 58.4658 20.7949ZM58.6709 24.9512H60.1885V27.7402H67.0791V28.9707H58.6709V24.9512ZM82.3369 19.4004H83.7451V20.6445H82.3369V23.3789H80.8193V16.8574H82.3369V19.4004ZM72.0693 21.6152C72.7165 21.2552 73.1859 20.7402 73.4775 20.0703C73.7738 19.4004 73.9242 18.6895 73.9287 17.9375V17.3223H75.3643V17.9375C75.3597 18.5072 75.4303 19.07 75.5762 19.626C75.722 20.1774 75.9727 20.6696 76.3281 21.1025C76.679 20.6787 76.9251 20.1911 77.0664 19.6396C77.2122 19.0837 77.2829 18.5163 77.2783 17.9375V17.3359H77.6338V17.3223H78.7002V17.9375C78.7002 18.7214 78.8483 19.446 79.1445 20.1113C79.4453 20.7721 79.9261 21.2734 80.5869 21.6152L79.7803 22.709C78.9463 22.2669 78.3561 21.5332 78.0098 20.5078C77.6725 21.5879 77.1097 22.3672 76.3213 22.8457L76.3076 22.8252C75.5192 22.3467 74.9609 21.5628 74.6328 20.4736C74.2682 21.5218 73.6826 22.2669 72.876 22.709L72.0693 21.6152ZM73.874 23.9941H77.5518V22.9004H79.083V23.9941H82.7334V25.1562H73.874V23.9941ZM74.585 27.3984C74.585 27.0202 74.7308 26.6989 75.0225 26.4346C75.3141 26.1657 75.738 25.9606 76.2939 25.8193C76.8545 25.6781 77.529 25.6074 78.3174 25.6074C79.0967 25.6074 79.762 25.6781 80.3135 25.8193C80.8695 25.9606 81.2933 26.1657 81.585 26.4346C81.8766 26.6989 82.0225 27.0202 82.0225 27.3984C82.0179 27.9863 81.6943 28.4329 81.0518 28.7383C80.4092 29.0482 79.4977 29.2031 78.3174 29.2031C77.1234 29.2031 76.2028 29.0482 75.5557 28.7383C74.9085 28.4329 74.585 27.9863 74.585 27.3984ZM76.1025 27.3984C76.098 27.6445 76.2734 27.8268 76.6289 27.9453C76.9844 28.0638 77.5267 28.123 78.2559 28.123C79.0124 28.123 79.5798 28.0661 79.958 27.9521C80.3363 27.8337 80.5277 27.6491 80.5322 27.3984C80.5277 27.1706 80.3385 26.9974 79.9648 26.8789C79.5911 26.7559 79.042 26.6921 78.3174 26.6875C77.5745 26.6921 77.0163 26.7536 76.6426 26.8721C76.2734 26.9906 76.0934 27.166 76.1025 27.3984ZM87.6826 17.7598C88.3024 17.7598 88.8538 17.9398 89.3369 18.2998C89.82 18.6553 90.1982 19.1634 90.4717 19.8242C90.7497 20.4805 90.891 21.2461 90.8955 22.1211C90.891 23.0007 90.7497 23.7708 90.4717 24.4316C90.1982 25.0924 89.82 25.6029 89.3369 25.9629C88.8538 26.3184 88.3024 26.4961 87.6826 26.4961C87.0583 26.4961 86.5023 26.3184 86.0146 25.9629C85.527 25.6029 85.1465 25.0924 84.873 24.4316C84.6042 23.7708 84.4697 23.0007 84.4697 22.1211C84.4697 21.2461 84.6042 20.4805 84.873 19.8242C85.1465 19.1634 85.527 18.6553 86.0146 18.2998C86.5023 17.9398 87.0583 17.7598 87.6826 17.7598ZM85.9326 22.1211C85.9326 22.7409 86.0055 23.2786 86.1514 23.7344C86.2972 24.1855 86.5023 24.5296 86.7666 24.7666C87.0309 25.0036 87.3363 25.1243 87.6826 25.1289C88.0335 25.1243 88.3389 25.0036 88.5986 24.7666C88.863 24.5296 89.068 24.1855 89.2139 23.7344C89.3597 23.2832 89.4326 22.7454 89.4326 22.1211C89.4326 21.5013 89.3597 20.9658 89.2139 20.5146C89.068 20.0635 88.863 19.7194 88.5986 19.4824C88.3343 19.2454 88.029 19.127 87.6826 19.127C87.3363 19.127 87.0309 19.2477 86.7666 19.4893C86.5023 19.7262 86.2972 20.0703 86.1514 20.5215C86.0055 20.9681 85.9326 21.5013 85.9326 22.1211ZM92.5225 16.8574H94.04V21.6016H95.9404V22.8867H94.04V29.2168H92.5225V16.8574ZM107.726 24.5273H96.46V23.2969H101.313V22.2031C100.557 22.1484 99.9007 22.014 99.3447 21.7998C98.7933 21.5856 98.3672 21.3008 98.0664 20.9453C97.7702 20.5898 97.6221 20.1751 97.6221 19.7012C97.6221 19.1908 97.8044 18.7464 98.1689 18.3682C98.5381 17.9899 99.0576 17.7005 99.7275 17.5C100.397 17.2995 101.181 17.1992 102.079 17.1992C102.972 17.1992 103.754 17.2995 104.424 17.5C105.094 17.7005 105.613 17.9899 105.982 18.3682C106.352 18.7464 106.536 19.1908 106.536 19.7012C106.536 20.1751 106.386 20.5898 106.085 20.9453C105.784 21.3008 105.356 21.5856 104.8 21.7998C104.248 22.014 103.597 22.1484 102.845 22.2031V23.2969H107.726V24.5273ZM97.8545 25.375H99.3721V27.7402H106.454V28.9707H97.8545V25.375ZM99.208 19.7012C99.2035 20.1204 99.4495 20.4417 99.9463 20.665C100.443 20.8883 101.14 21 102.038 21C102.968 21 103.688 20.8906 104.198 20.6719C104.709 20.4486 104.964 20.125 104.964 19.7012C104.964 19.4323 104.848 19.2021 104.615 19.0107C104.387 18.8148 104.057 18.6644 103.624 18.5596C103.191 18.4548 102.676 18.4023 102.079 18.4023C101.482 18.4023 100.967 18.4548 100.534 18.5596C100.101 18.6644 99.7708 18.8148 99.543 19.0107C99.3151 19.2021 99.2035 19.4323 99.208 19.7012ZM121.931 23.5156H118.28V26.5098H123.175V27.7402H111.882V26.5098H116.749V23.5156H113.181V17.8418H114.739V22.2852H121.931V23.5156ZM129.888 21.3145H125.991V22.832C127.03 22.832 127.869 22.8115 128.507 22.7705C129.149 22.7295 129.787 22.6497 130.421 22.5312L130.571 23.7617C129.874 23.8802 129.163 23.9577 128.438 23.9941C127.718 24.0306 126.702 24.0488 125.39 24.0488H124.487V20.1797H128.37V18.7988H124.46V17.5957H129.888V21.3145ZM125.882 25.0605H134.331V29.2168H132.813V26.2773H125.882V25.0605ZM130.626 21.2188H132.813V19.8379H130.626V18.6211H132.813V16.8711H134.331V24.4727H132.813V22.4355H130.626V21.2188ZM142.985 19.0176C142.985 19.8288 142.965 20.5967 142.924 21.3213C142.887 22.0413 142.794 22.8685 142.644 23.8027L141.14 23.6797C141.272 22.8457 141.361 22.0892 141.406 21.4102C141.452 20.7311 141.477 20.0475 141.481 19.3594H136.628V18.1426H142.985V19.0176ZM135.972 25.4023C137.038 25.3932 137.836 25.3818 138.364 25.3682V21.6699H139.868V25.3203C141.29 25.2565 142.534 25.1608 143.601 25.0332L143.683 26.168C141.828 26.4688 139.51 26.6191 136.73 26.6191H136.122L135.972 25.4023ZM144.243 16.8574H145.774V21.8887H147.565V23.1738H145.774V29.2168H144.243V16.8574ZM34.9092 45.0898H33.3916V43.7227H30.4521V42.4922H33.3916V41.166H30.5684C30.181 42.1413 29.543 42.973 28.6543 43.6611C27.7656 44.3447 26.6468 44.8757 25.2979 45.2539L24.6826 44.0508C26.1045 43.668 27.2074 43.1257 27.9912 42.4238C28.7796 41.7174 29.2331 40.8971 29.3516 39.9629H25.3389V38.7324H31.0127C31.0127 39.1608 30.9785 39.571 30.9102 39.9629H33.3916V37.8711H34.9092V45.0898ZM26.624 47.6875C26.624 47.1862 26.7972 46.751 27.1436 46.3818C27.4899 46.0127 27.9775 45.7279 28.6064 45.5273C29.2399 45.3268 29.9782 45.2266 30.8213 45.2266C31.6507 45.2266 32.3799 45.3268 33.0088 45.5273C33.6377 45.7279 34.1253 46.0127 34.4717 46.3818C34.818 46.751 34.9912 47.1862 34.9912 47.6875C34.9912 48.1888 34.818 48.6263 34.4717 49C34.1253 49.3691 33.6377 49.6517 33.0088 49.8477C32.3799 50.0482 31.6507 50.1484 30.8213 50.1484C29.9827 50.1484 29.2467 50.0482 28.6133 49.8477C27.9798 49.6517 27.4899 49.3691 27.1436 49C26.7972 48.6263 26.624 48.1888 26.624 47.6875ZM28.1416 47.6875C28.1416 48.0885 28.3786 48.3984 28.8525 48.6172C29.3265 48.8359 29.9827 48.9453 30.8213 48.9453C31.6462 48.9453 32.2933 48.8359 32.7627 48.6172C33.2321 48.3984 33.4691 48.0885 33.4736 47.6875C33.4691 47.2773 33.2321 46.9629 32.7627 46.7441C32.2979 46.5254 31.6507 46.416 30.8213 46.416C29.9827 46.416 29.3265 46.5254 28.8525 46.7441C28.3786 46.9629 28.1416 47.2773 28.1416 47.6875ZM47.0088 45.3359H45.4912V42.7793H43.7275V41.5215H45.4912V37.8574H47.0088V45.3359ZM36.6865 39.0059H39.5576V37.7617H41.0615V39.0059H43.9326V40.2363H36.6865V39.0059ZM37.3838 42.9297C37.3838 42.5013 37.5068 42.1208 37.7529 41.7881C38.0036 41.4508 38.3499 41.1888 38.792 41.002C39.2386 40.8105 39.7445 40.7148 40.3096 40.7148C40.8747 40.7148 41.3805 40.8105 41.8271 41.002C42.2738 41.1888 42.6224 41.4508 42.873 41.7881C43.1237 42.1208 43.249 42.5013 43.249 42.9297C43.249 43.3672 43.1237 43.7546 42.873 44.0918C42.6224 44.4245 42.2738 44.6842 41.8271 44.8711C41.3851 45.0534 40.8792 45.1445 40.3096 45.1445C39.7445 45.1445 39.2386 45.0534 38.792 44.8711C38.3499 44.6842 38.0036 44.4245 37.7529 44.0918C37.5068 43.7546 37.3838 43.3672 37.3838 42.9297ZM38.792 45.8965H47.0088V50.0664H38.792V45.8965ZM38.833 42.9297C38.833 43.2669 38.9652 43.5312 39.2295 43.7227C39.4984 43.9141 39.8584 44.0098 40.3096 44.0098C40.7562 44.0098 41.1139 43.9141 41.3828 43.7227C41.6517 43.5312 41.7861 43.2669 41.7861 42.9297C41.7861 42.6016 41.6517 42.3418 41.3828 42.1504C41.1139 41.959 40.7562 41.8633 40.3096 41.8633C39.863 41.8633 39.5052 41.959 39.2363 42.1504C38.9674 42.3418 38.833 42.6016 38.833 42.9297ZM45.5186 48.8359V47.0996H40.3096V48.8359H45.5186ZM59.4229 50.2168H57.96V37.8574H59.4229V50.2168ZM48.8818 43.2031C48.8818 42.3053 48.9912 41.526 49.21 40.8652C49.4287 40.1999 49.7386 39.6895 50.1396 39.334C50.5452 38.9785 51.0146 38.8008 51.5479 38.8008C52.0446 38.8008 52.4844 38.9489 52.8672 39.2451C53.2546 39.5413 53.5645 39.9674 53.7969 40.5234C54.0339 41.0794 54.182 41.7402 54.2412 42.5059H55.4307V38.0762H56.8799V49.6152H55.4307V43.7363H54.2549C54.2093 44.5339 54.068 45.2266 53.8311 45.8145C53.5986 46.3978 53.2865 46.8444 52.8945 47.1543C52.5026 47.4642 52.0537 47.6191 51.5479 47.6191C51.0146 47.6191 50.5452 47.4414 50.1396 47.0859C49.7386 46.7305 49.4287 46.2201 49.21 45.5547C48.9912 44.8848 48.8818 44.1009 48.8818 43.2031ZM50.29 43.2441C50.29 44.1875 50.3994 44.9121 50.6182 45.418C50.8415 45.9238 51.1514 46.1745 51.5479 46.1699C51.9626 46.1745 52.2839 45.9215 52.5117 45.4111C52.7396 44.9007 52.8558 44.1647 52.8604 43.2031C52.8558 42.2461 52.7396 41.5124 52.5117 41.002C52.2839 40.487 51.9626 40.2318 51.5479 40.2363C51.1468 40.2318 50.8369 40.4893 50.6182 41.0088C50.3994 41.5283 50.29 42.2734 50.29 43.2441ZM74.8174 50.2168H73.3682V43.9141H71.9736V49.5879H70.5791V38.0898H71.9736V42.6973H73.3682V37.8574H74.8174V50.2168ZM64.5635 39.3203H69.1846V40.5508H66.0947V46.0469C66.8102 46.0378 67.4574 46.0104 68.0361 45.9648C68.6149 45.9193 69.2028 45.8418 69.7998 45.7324L69.9092 46.9766C69.221 47.1133 68.5443 47.2044 67.8789 47.25C67.2181 47.2956 66.391 47.3229 65.3975 47.332H64.5635V39.3203ZM86.0283 41.7539H87.751V43.0117H86.0283V47.0996H84.5107V37.8711H86.0283V41.7539ZM76.2939 39.2383H79.2061V37.8574H80.7236V39.2383H83.6221V40.4551H76.2939V39.2383ZM76.9229 43.3262C76.9229 42.8568 77.0505 42.4443 77.3057 42.0889C77.5609 41.7288 77.9186 41.4508 78.3789 41.2549C78.8392 41.0589 79.3656 40.9609 79.958 40.9609C80.5459 40.9609 81.0677 41.0589 81.5234 41.2549C81.9837 41.4508 82.3415 41.7288 82.5967 42.0889C82.8519 42.4443 82.9795 42.8568 82.9795 43.3262C82.9795 43.791 82.8519 44.2012 82.5967 44.5566C82.3415 44.9076 81.986 45.181 81.5303 45.377C81.0745 45.5684 80.5505 45.6641 79.958 45.6641C79.361 45.6641 78.8324 45.5684 78.3721 45.377C77.9163 45.181 77.5609 44.9076 77.3057 44.5566C77.0505 44.2012 76.9229 43.791 76.9229 43.3262ZM78.1123 46.375H79.6299V48.7402H86.5205V49.9707H78.1123V46.375ZM78.3994 43.3262C78.3949 43.6908 78.5316 43.9756 78.8096 44.1807C79.0921 44.3857 79.4681 44.4883 79.9375 44.4883C80.4206 44.4883 80.8057 44.388 81.0928 44.1875C81.3844 43.9824 81.5303 43.6953 81.5303 43.3262C81.5303 42.957 81.3867 42.6676 81.0996 42.458C80.8125 42.2438 80.432 42.1367 79.958 42.1367C79.484 42.1367 79.1035 42.2438 78.8164 42.458C78.5339 42.6676 78.3949 42.957 78.3994 43.3262ZM101.97 44.2285H100.466V37.8574H101.97V44.2285ZM91.7979 43.1211C92.4222 42.9388 92.9577 42.6722 93.4043 42.3213C93.8555 41.9704 94.2018 41.5693 94.4434 41.1182C94.6895 40.667 94.8262 40.1953 94.8535 39.7031H92.1943V38.4727H98.9893V39.7031H96.3984C96.4212 40.168 96.5534 40.6123 96.7949 41.0361C97.0365 41.4554 97.3805 41.8268 97.8271 42.1504C98.2738 42.474 98.807 42.7201 99.4268 42.8887L98.6885 44.0645C97.9821 43.8594 97.3714 43.5495 96.8564 43.1348C96.3415 42.7155 95.9404 42.221 95.6533 41.6514C95.3662 42.2848 94.9538 42.834 94.416 43.2988C93.8828 43.7591 93.2425 44.1009 92.4951 44.3242L91.7979 43.1211ZM93.7939 44.748H101.997V47.9336H95.3115V48.9316H102.366V50.1074H93.8213V46.8262H100.479V45.9102H93.7939V44.748ZM115.081 45.2539H110.31V47.5234H108.806V45.2539H103.788V44.0371H115.081V45.2539ZM105.155 46.3887H106.673V48.7402H113.837V49.9707H105.155V46.3887ZM105.224 38.418H113.632V42.8887H105.224V38.418ZM112.128 41.6992V39.6074H106.7V41.6992H112.128ZM126.183 50.2305H124.651V37.8574H126.183V50.2305ZM116.298 43.1211C116.298 42.2507 116.435 41.485 116.708 40.8242C116.981 40.1634 117.362 39.6553 117.85 39.2998C118.342 38.9398 118.9 38.7598 119.524 38.7598C120.14 38.7598 120.691 38.9398 121.179 39.2998C121.671 39.6553 122.056 40.1634 122.334 40.8242C122.612 41.485 122.751 42.2507 122.751 43.1211C122.751 44.0007 122.612 44.7708 122.334 45.4316C122.056 46.0924 121.671 46.6029 121.179 46.9629C120.691 47.3184 120.14 47.4961 119.524 47.4961C118.9 47.4961 118.342 47.3184 117.85 46.9629C117.362 46.6029 116.981 46.0924 116.708 45.4316C116.435 44.7708 116.298 44.0007 116.298 43.1211ZM117.761 43.1211C117.761 43.7454 117.834 44.2832 117.979 44.7344C118.13 45.1855 118.337 45.5296 118.602 45.7666C118.866 46.0036 119.174 46.1243 119.524 46.1289C119.871 46.1243 120.176 46.0036 120.44 45.7666C120.705 45.5296 120.91 45.1855 121.056 44.7344C121.201 44.2832 121.274 43.7454 121.274 43.1211C121.274 42.5013 121.201 41.9681 121.056 41.5215C120.91 41.0703 120.705 40.7262 120.44 40.4893C120.176 40.2477 119.871 40.127 119.524 40.127C119.174 40.127 118.866 40.2477 118.602 40.4893C118.337 40.7262 118.13 41.0703 117.979 41.5215C117.834 41.9681 117.761 42.5013 117.761 43.1211ZM138.665 50.2168H137.202V37.8574H138.665V50.2168ZM128.124 43.2031C128.124 42.3053 128.233 41.526 128.452 40.8652C128.671 40.1999 128.981 39.6895 129.382 39.334C129.787 38.9785 130.257 38.8008 130.79 38.8008C131.287 38.8008 131.727 38.9489 132.109 39.2451C132.497 39.5413 132.807 39.9674 133.039 40.5234C133.276 41.0794 133.424 41.7402 133.483 42.5059H134.673V38.0762H136.122V49.6152H134.673V43.7363H133.497C133.451 44.5339 133.31 45.2266 133.073 45.8145C132.841 46.3978 132.529 46.8444 132.137 47.1543C131.745 47.4642 131.296 47.6191 130.79 47.6191C130.257 47.6191 129.787 47.4414 129.382 47.0859C128.981 46.7305 128.671 46.2201 128.452 45.5547C128.233 44.8848 128.124 44.1009 128.124 43.2031ZM129.532 43.2441C129.532 44.1875 129.642 44.9121 129.86 45.418C130.084 45.9238 130.394 46.1745 130.79 46.1699C131.205 46.1745 131.526 45.9215 131.754 45.4111C131.982 44.9007 132.098 44.1647 132.103 43.2031C132.098 42.2461 131.982 41.5124 131.754 41.002C131.526 40.487 131.205 40.2318 130.79 40.2363C130.389 40.2318 130.079 40.4893 129.86 41.0088C129.642 41.5283 129.532 42.2734 129.532 43.2441ZM151.394 48.7129H140.101V47.4688H142.712V44.3447C142.211 44.0576 141.821 43.6953 141.543 43.2578C141.27 42.8203 141.135 42.3327 141.14 41.7949C141.14 41.1478 141.333 40.5781 141.721 40.0859C142.113 39.5892 142.657 39.2064 143.354 38.9375C144.052 38.6641 144.84 38.5273 145.72 38.5273C146.604 38.5273 147.395 38.6641 148.092 38.9375C148.794 39.2064 149.34 39.5892 149.732 40.0859C150.129 40.5781 150.327 41.1478 150.327 41.7949C150.332 42.3236 150.2 42.8021 149.931 43.2305C149.662 43.6589 149.284 44.0189 148.796 44.3105V47.4688H151.394V48.7129ZM142.63 41.7949C142.63 42.2096 142.757 42.5742 143.013 42.8887C143.272 43.1986 143.635 43.4378 144.1 43.6064C144.569 43.7751 145.109 43.8594 145.72 43.8594C146.33 43.8594 146.87 43.7751 147.34 43.6064C147.814 43.4378 148.181 43.1986 148.44 42.8887C148.705 42.5742 148.837 42.2096 148.837 41.7949C148.837 41.3757 148.705 41.0088 148.44 40.6943C148.181 40.3799 147.814 40.1406 147.34 39.9766C146.87 39.8125 146.33 39.7305 145.72 39.7305C145.104 39.7305 144.562 39.8125 144.093 39.9766C143.628 40.1406 143.268 40.3799 143.013 40.6943C142.757 41.0042 142.63 41.3711 142.63 41.7949ZM147.251 47.4688V44.8916C146.768 44.9964 146.257 45.0488 145.72 45.0488C145.205 45.0488 144.703 44.9987 144.216 44.8984V47.4688H147.251ZM154.593 46.0879H153.048L152.884 39.1016H154.743L154.593 46.0879ZM152.761 48.043C152.761 47.8561 152.809 47.6829 152.904 47.5234C153 47.3594 153.13 47.2295 153.294 47.1338C153.458 47.0381 153.636 46.9902 153.827 46.9902C154.014 46.9902 154.187 47.0381 154.347 47.1338C154.511 47.2295 154.641 47.3594 154.736 47.5234C154.832 47.6829 154.88 47.8561 154.88 48.043C154.88 48.2344 154.832 48.4121 154.736 48.5762C154.641 48.7402 154.511 48.8701 154.347 48.9658C154.187 49.0615 154.014 49.1094 153.827 49.1094C153.636 49.1094 153.458 49.0615 153.294 48.9658C153.13 48.8701 153 48.7402 152.904 48.5762C152.809 48.4121 152.761 48.2344 152.761 48.043Z" fill="#576DFC"/>
<path d="M89.2474 73.1399C89.6458 73.5952 90.3542 73.5952 90.7526 73.1399L97 66H83L89.2474 73.1399Z" fill="#E4E8FF"/>
</svg>
