<svg width="181" height="74" viewBox="0 0 181 74" fill="none" xmlns="http://www.w3.org/2000/svg">
<path d="M0.5 20C0.5 8.95431 9.45431 0 20.5 0H160.5C171.546 0 180.5 8.95431 180.5 20V46C180.5 57.0457 171.546 66 160.5 66H20.5C9.4543 66 0.5 57.0457 0.5 46V20Z" fill="#E4E8FF"/>
<path d="M42.9697 19.4551C42.9697 20.1934 42.9606 20.8268 42.9424 21.3555C42.9287 21.8841 42.89 22.4902 42.8262 23.1738C42.7624 23.8574 42.6598 24.6048 42.5186 25.416L40.9736 25.2793C41.124 24.5273 41.2334 23.8164 41.3018 23.1465C41.3701 22.472 41.4111 21.8704 41.4248 21.3418C41.443 20.8132 41.4521 20.1842 41.4521 19.4551V19.291H34.3291V18.0605H42.9697V19.4551ZM33.1396 26.2773H44.4053V27.5215H33.1396V26.2773ZM56.5186 23.9941H45.2393V22.7773H50.1338V21.6016H46.6201V17.418H55.1514V18.6074H48.1377V20.3984H55.2197V21.6016H51.624V22.7773H56.5186V23.9941ZM46.5518 26.9609C46.5518 26.4824 46.7227 26.0745 47.0645 25.7373C47.4108 25.3955 47.9053 25.138 48.5479 24.9648C49.195 24.7917 49.9652 24.7051 50.8584 24.7051C51.7471 24.7051 52.5104 24.7917 53.1484 24.9648C53.791 25.138 54.2832 25.3955 54.625 25.7373C54.9668 26.0745 55.1377 26.4824 55.1377 26.9609C55.1377 27.4349 54.9668 27.8405 54.625 28.1777C54.2832 28.515 53.791 28.7725 53.1484 28.9502C52.5104 29.1279 51.7471 29.2168 50.8584 29.2168C49.9652 29.2168 49.195 29.1279 48.5479 28.9502C47.9053 28.7725 47.4108 28.515 47.0645 28.1777C46.7227 27.8405 46.5518 27.4349 46.5518 26.9609ZM48.0967 26.9609C48.0921 27.3164 48.32 27.5853 48.7803 27.7676C49.2451 27.9499 49.9219 28.041 50.8105 28.041C51.722 28.041 52.417 27.9521 52.8955 27.7744C53.374 27.5921 53.6156 27.321 53.6201 26.9609C53.6156 26.6055 53.3763 26.3343 52.9023 26.1475C52.4284 25.9606 51.7471 25.8672 50.8584 25.8672C49.9606 25.8672 49.2747 25.9606 48.8008 26.1475C48.3268 26.3343 48.0921 26.6055 48.0967 26.9609ZM67.0869 20.4805H68.8096V21.7383H67.0869V25.8945H65.5693V16.8574H67.0869V20.4805ZM57.4756 20.7949C57.4756 20.1979 57.6214 19.6624 57.9131 19.1885C58.2048 18.7145 58.6035 18.3454 59.1094 18.0811C59.6198 17.8122 60.1872 17.6777 60.8115 17.6777C61.4313 17.6777 61.9941 17.8122 62.5 18.0811C63.0104 18.3454 63.4115 18.7145 63.7031 19.1885C63.9948 19.6624 64.1429 20.1979 64.1475 20.7949C64.1429 21.3828 63.9925 21.9137 63.6963 22.3877C63.4046 22.8617 63.0059 23.2331 62.5 23.502C61.9941 23.7663 61.4313 23.8984 60.8115 23.8984C60.1917 23.8984 59.6266 23.7663 59.1162 23.502C58.6058 23.2331 58.2048 22.8617 57.9131 22.3877C57.6214 21.9137 57.4756 21.3828 57.4756 20.7949ZM58.9658 20.7949C58.9658 21.1413 59.0456 21.4489 59.2051 21.7178C59.3691 21.9867 59.5924 22.194 59.875 22.3398C60.1576 22.4857 60.4697 22.5586 60.8115 22.5586C61.1579 22.5586 61.4701 22.4857 61.748 22.3398C62.0306 22.194 62.2516 21.9889 62.4111 21.7246C62.5752 21.4557 62.6572 21.1458 62.6572 20.7949C62.6572 20.4395 62.5752 20.1273 62.4111 19.8584C62.2516 19.585 62.0306 19.3753 61.748 19.2295C61.4701 19.0791 61.1579 19.0039 60.8115 19.0039C60.4652 19.0039 60.1507 19.0791 59.8682 19.2295C59.5902 19.3753 59.3691 19.585 59.2051 19.8584C59.0456 20.1273 58.9658 20.4395 58.9658 20.7949ZM59.1709 24.9512H60.6885V27.7402H67.5791V28.9707H59.1709V24.9512ZM82.8369 19.4004H84.2451V20.6445H82.8369V23.3789H81.3193V16.8574H82.8369V19.4004ZM72.5693 21.6152C73.2165 21.2552 73.6859 20.7402 73.9775 20.0703C74.2738 19.4004 74.4242 18.6895 74.4287 17.9375V17.3223H75.8643V17.9375C75.8597 18.5072 75.9303 19.07 76.0762 19.626C76.222 20.1774 76.4727 20.6696 76.8281 21.1025C77.179 20.6787 77.4251 20.1911 77.5664 19.6396C77.7122 19.0837 77.7829 18.5163 77.7783 17.9375V17.3359H78.1338V17.3223H79.2002V17.9375C79.2002 18.7214 79.3483 19.446 79.6445 20.1113C79.9453 20.7721 80.4261 21.2734 81.0869 21.6152L80.2803 22.709C79.4463 22.2669 78.8561 21.5332 78.5098 20.5078C78.1725 21.5879 77.6097 22.3672 76.8213 22.8457L76.8076 22.8252C76.0192 22.3467 75.4609 21.5628 75.1328 20.4736C74.7682 21.5218 74.1826 22.2669 73.376 22.709L72.5693 21.6152ZM74.374 23.9941H78.0518V22.9004H79.583V23.9941H83.2334V25.1562H74.374V23.9941ZM75.085 27.3984C75.085 27.0202 75.2308 26.6989 75.5225 26.4346C75.8141 26.1657 76.238 25.9606 76.7939 25.8193C77.3545 25.6781 78.029 25.6074 78.8174 25.6074C79.5967 25.6074 80.262 25.6781 80.8135 25.8193C81.3695 25.9606 81.7933 26.1657 82.085 26.4346C82.3766 26.6989 82.5225 27.0202 82.5225 27.3984C82.5179 27.9863 82.1943 28.4329 81.5518 28.7383C80.9092 29.0482 79.9977 29.2031 78.8174 29.2031C77.6234 29.2031 76.7028 29.0482 76.0557 28.7383C75.4085 28.4329 75.085 27.9863 75.085 27.3984ZM76.6025 27.3984C76.598 27.6445 76.7734 27.8268 77.1289 27.9453C77.4844 28.0638 78.0267 28.123 78.7559 28.123C79.5124 28.123 80.0798 28.0661 80.458 27.9521C80.8363 27.8337 81.0277 27.6491 81.0322 27.3984C81.0277 27.1706 80.8385 26.9974 80.4648 26.8789C80.0911 26.7559 79.542 26.6921 78.8174 26.6875C78.0745 26.6921 77.5163 26.7536 77.1426 26.8721C76.7734 26.9906 76.5934 27.166 76.6025 27.3984ZM88.1826 17.7598C88.8024 17.7598 89.3538 17.9398 89.8369 18.2998C90.32 18.6553 90.6982 19.1634 90.9717 19.8242C91.2497 20.4805 91.391 21.2461 91.3955 22.1211C91.391 23.0007 91.2497 23.7708 90.9717 24.4316C90.6982 25.0924 90.32 25.6029 89.8369 25.9629C89.3538 26.3184 88.8024 26.4961 88.1826 26.4961C87.5583 26.4961 87.0023 26.3184 86.5146 25.9629C86.027 25.6029 85.6465 25.0924 85.373 24.4316C85.1042 23.7708 84.9697 23.0007 84.9697 22.1211C84.9697 21.2461 85.1042 20.4805 85.373 19.8242C85.6465 19.1634 86.027 18.6553 86.5146 18.2998C87.0023 17.9398 87.5583 17.7598 88.1826 17.7598ZM86.4326 22.1211C86.4326 22.7409 86.5055 23.2786 86.6514 23.7344C86.7972 24.1855 87.0023 24.5296 87.2666 24.7666C87.5309 25.0036 87.8363 25.1243 88.1826 25.1289C88.5335 25.1243 88.8389 25.0036 89.0986 24.7666C89.363 24.5296 89.568 24.1855 89.7139 23.7344C89.8597 23.2832 89.9326 22.7454 89.9326 22.1211C89.9326 21.5013 89.8597 20.9658 89.7139 20.5146C89.568 20.0635 89.363 19.7194 89.0986 19.4824C88.8343 19.2454 88.529 19.127 88.1826 19.127C87.8363 19.127 87.5309 19.2477 87.2666 19.4893C87.0023 19.7262 86.7972 20.0703 86.6514 20.5215C86.5055 20.9681 86.4326 21.5013 86.4326 22.1211ZM93.0225 16.8574H94.54V21.6016H96.4404V22.8867H94.54V29.2168H93.0225V16.8574ZM108.226 24.5273H96.96V23.2969H101.813V22.2031C101.057 22.1484 100.401 22.014 99.8447 21.7998C99.2933 21.5856 98.8672 21.3008 98.5664 20.9453C98.2702 20.5898 98.1221 20.1751 98.1221 19.7012C98.1221 19.1908 98.3044 18.7464 98.6689 18.3682C99.0381 17.9899 99.5576 17.7005 100.228 17.5C100.897 17.2995 101.681 17.1992 102.579 17.1992C103.472 17.1992 104.254 17.2995 104.924 17.5C105.594 17.7005 106.113 17.9899 106.482 18.3682C106.852 18.7464 107.036 19.1908 107.036 19.7012C107.036 20.1751 106.886 20.5898 106.585 20.9453C106.284 21.3008 105.856 21.5856 105.3 21.7998C104.748 22.014 104.097 22.1484 103.345 22.2031V23.2969H108.226V24.5273ZM98.3545 25.375H99.8721V27.7402H106.954V28.9707H98.3545V25.375ZM99.708 19.7012C99.7035 20.1204 99.9495 20.4417 100.446 20.665C100.943 20.8883 101.64 21 102.538 21C103.468 21 104.188 20.8906 104.698 20.6719C105.209 20.4486 105.464 20.125 105.464 19.7012C105.464 19.4323 105.348 19.2021 105.115 19.0107C104.887 18.8148 104.557 18.6644 104.124 18.5596C103.691 18.4548 103.176 18.4023 102.579 18.4023C101.982 18.4023 101.467 18.4548 101.034 18.5596C100.601 18.6644 100.271 18.8148 100.043 19.0107C99.8151 19.2021 99.7035 19.4323 99.708 19.7012ZM122.431 23.5156H118.78V26.5098H123.675V27.7402H112.382V26.5098H117.249V23.5156H113.681V17.8418H115.239V22.2852H122.431V23.5156ZM130.388 21.3145H126.491V22.832C127.53 22.832 128.369 22.8115 129.007 22.7705C129.649 22.7295 130.287 22.6497 130.921 22.5312L131.071 23.7617C130.374 23.8802 129.663 23.9577 128.938 23.9941C128.218 24.0306 127.202 24.0488 125.89 24.0488H124.987V20.1797H128.87V18.7988H124.96V17.5957H130.388V21.3145ZM126.382 25.0605H134.831V29.2168H133.313V26.2773H126.382V25.0605ZM131.126 21.2188H133.313V19.8379H131.126V18.6211H133.313V16.8711H134.831V24.4727H133.313V22.4355H131.126V21.2188ZM143.485 19.0176C143.485 19.8288 143.465 20.5967 143.424 21.3213C143.387 22.0413 143.294 22.8685 143.144 23.8027L141.64 23.6797C141.772 22.8457 141.861 22.0892 141.906 21.4102C141.952 20.7311 141.977 20.0475 141.981 19.3594H137.128V18.1426H143.485V19.0176ZM136.472 25.4023C137.538 25.3932 138.336 25.3818 138.864 25.3682V21.6699H140.368V25.3203C141.79 25.2565 143.034 25.1608 144.101 25.0332L144.183 26.168C142.328 26.4688 140.01 26.6191 137.23 26.6191H136.622L136.472 25.4023ZM144.743 16.8574H146.274V21.8887H148.065V23.1738H146.274V29.2168H144.743V16.8574ZM35.4092 45.0898H33.8916V43.7227H30.9521V42.4922H33.8916V41.166H31.0684C30.681 42.1413 30.043 42.973 29.1543 43.6611C28.2656 44.3447 27.1468 44.8757 25.7979 45.2539L25.1826 44.0508C26.6045 43.668 27.7074 43.1257 28.4912 42.4238C29.2796 41.7174 29.7331 40.8971 29.8516 39.9629H25.8389V38.7324H31.5127C31.5127 39.1608 31.4785 39.571 31.4102 39.9629H33.8916V37.8711H35.4092V45.0898ZM27.124 47.6875C27.124 47.1862 27.2972 46.751 27.6436 46.3818C27.9899 46.0127 28.4775 45.7279 29.1064 45.5273C29.7399 45.3268 30.4782 45.2266 31.3213 45.2266C32.1507 45.2266 32.8799 45.3268 33.5088 45.5273C34.1377 45.7279 34.6253 46.0127 34.9717 46.3818C35.318 46.751 35.4912 47.1862 35.4912 47.6875C35.4912 48.1888 35.318 48.6263 34.9717 49C34.6253 49.3691 34.1377 49.6517 33.5088 49.8477C32.8799 50.0482 32.1507 50.1484 31.3213 50.1484C30.4827 50.1484 29.7467 50.0482 29.1133 49.8477C28.4798 49.6517 27.9899 49.3691 27.6436 49C27.2972 48.6263 27.124 48.1888 27.124 47.6875ZM28.6416 47.6875C28.6416 48.0885 28.8786 48.3984 29.3525 48.6172C29.8265 48.8359 30.4827 48.9453 31.3213 48.9453C32.1462 48.9453 32.7933 48.8359 33.2627 48.6172C33.7321 48.3984 33.9691 48.0885 33.9736 47.6875C33.9691 47.2773 33.7321 46.9629 33.2627 46.7441C32.7979 46.5254 32.1507 46.416 31.3213 46.416C30.4827 46.416 29.8265 46.5254 29.3525 46.7441C28.8786 46.9629 28.6416 47.2773 28.6416 47.6875ZM47.5088 45.3359H45.9912V42.7793H44.2275V41.5215H45.9912V37.8574H47.5088V45.3359ZM37.1865 39.0059H40.0576V37.7617H41.5615V39.0059H44.4326V40.2363H37.1865V39.0059ZM37.8838 42.9297C37.8838 42.5013 38.0068 42.1208 38.2529 41.7881C38.5036 41.4508 38.8499 41.1888 39.292 41.002C39.7386 40.8105 40.2445 40.7148 40.8096 40.7148C41.3747 40.7148 41.8805 40.8105 42.3271 41.002C42.7738 41.1888 43.1224 41.4508 43.373 41.7881C43.6237 42.1208 43.749 42.5013 43.749 42.9297C43.749 43.3672 43.6237 43.7546 43.373 44.0918C43.1224 44.4245 42.7738 44.6842 42.3271 44.8711C41.8851 45.0534 41.3792 45.1445 40.8096 45.1445C40.2445 45.1445 39.7386 45.0534 39.292 44.8711C38.8499 44.6842 38.5036 44.4245 38.2529 44.0918C38.0068 43.7546 37.8838 43.3672 37.8838 42.9297ZM39.292 45.8965H47.5088V50.0664H39.292V45.8965ZM39.333 42.9297C39.333 43.2669 39.4652 43.5312 39.7295 43.7227C39.9984 43.9141 40.3584 44.0098 40.8096 44.0098C41.2562 44.0098 41.6139 43.9141 41.8828 43.7227C42.1517 43.5312 42.2861 43.2669 42.2861 42.9297C42.2861 42.6016 42.1517 42.3418 41.8828 42.1504C41.6139 41.959 41.2562 41.8633 40.8096 41.8633C40.363 41.8633 40.0052 41.959 39.7363 42.1504C39.4674 42.3418 39.333 42.6016 39.333 42.9297ZM46.0186 48.8359V47.0996H40.8096V48.8359H46.0186ZM59.9229 50.2168H58.46V37.8574H59.9229V50.2168ZM49.3818 43.2031C49.3818 42.3053 49.4912 41.526 49.71 40.8652C49.9287 40.1999 50.2386 39.6895 50.6396 39.334C51.0452 38.9785 51.5146 38.8008 52.0479 38.8008C52.5446 38.8008 52.9844 38.9489 53.3672 39.2451C53.7546 39.5413 54.0645 39.9674 54.2969 40.5234C54.5339 41.0794 54.682 41.7402 54.7412 42.5059H55.9307V38.0762H57.3799V49.6152H55.9307V43.7363H54.7549C54.7093 44.5339 54.568 45.2266 54.3311 45.8145C54.0986 46.3978 53.7865 46.8444 53.3945 47.1543C53.0026 47.4642 52.5537 47.6191 52.0479 47.6191C51.5146 47.6191 51.0452 47.4414 50.6396 47.0859C50.2386 46.7305 49.9287 46.2201 49.71 45.5547C49.4912 44.8848 49.3818 44.1009 49.3818 43.2031ZM50.79 43.2441C50.79 44.1875 50.8994 44.9121 51.1182 45.418C51.3415 45.9238 51.6514 46.1745 52.0479 46.1699C52.4626 46.1745 52.7839 45.9215 53.0117 45.4111C53.2396 44.9007 53.3558 44.1647 53.3604 43.2031C53.3558 42.2461 53.2396 41.5124 53.0117 41.002C52.7839 40.487 52.4626 40.2318 52.0479 40.2363C51.6468 40.2318 51.3369 40.4893 51.1182 41.0088C50.8994 41.5283 50.79 42.2734 50.79 43.2441ZM75.3174 50.2168H73.8682V43.9141H72.4736V49.5879H71.0791V38.0898H72.4736V42.6973H73.8682V37.8574H75.3174V50.2168ZM65.0635 39.3203H69.6846V40.5508H66.5947V46.0469C67.3102 46.0378 67.9574 46.0104 68.5361 45.9648C69.1149 45.9193 69.7028 45.8418 70.2998 45.7324L70.4092 46.9766C69.721 47.1133 69.0443 47.2044 68.3789 47.25C67.7181 47.2956 66.891 47.3229 65.8975 47.332H65.0635V39.3203ZM86.5283 41.7539H88.251V43.0117H86.5283V47.0996H85.0107V37.8711H86.5283V41.7539ZM76.7939 39.2383H79.7061V37.8574H81.2236V39.2383H84.1221V40.4551H76.7939V39.2383ZM77.4229 43.3262C77.4229 42.8568 77.5505 42.4443 77.8057 42.0889C78.0609 41.7288 78.4186 41.4508 78.8789 41.2549C79.3392 41.0589 79.8656 40.9609 80.458 40.9609C81.0459 40.9609 81.5677 41.0589 82.0234 41.2549C82.4837 41.4508 82.8415 41.7288 83.0967 42.0889C83.3519 42.4443 83.4795 42.8568 83.4795 43.3262C83.4795 43.791 83.3519 44.2012 83.0967 44.5566C82.8415 44.9076 82.486 45.181 82.0303 45.377C81.5745 45.5684 81.0505 45.6641 80.458 45.6641C79.861 45.6641 79.3324 45.5684 78.8721 45.377C78.4163 45.181 78.0609 44.9076 77.8057 44.5566C77.5505 44.2012 77.4229 43.791 77.4229 43.3262ZM78.6123 46.375H80.1299V48.7402H87.0205V49.9707H78.6123V46.375ZM78.8994 43.3262C78.8949 43.6908 79.0316 43.9756 79.3096 44.1807C79.5921 44.3857 79.9681 44.4883 80.4375 44.4883C80.9206 44.4883 81.3057 44.388 81.5928 44.1875C81.8844 43.9824 82.0303 43.6953 82.0303 43.3262C82.0303 42.957 81.8867 42.6676 81.5996 42.458C81.3125 42.2438 80.932 42.1367 80.458 42.1367C79.984 42.1367 79.6035 42.2438 79.3164 42.458C79.0339 42.6676 78.8949 42.957 78.8994 43.3262ZM102.47 44.2285H100.966V37.8574H102.47V44.2285ZM92.2979 43.1211C92.9222 42.9388 93.4577 42.6722 93.9043 42.3213C94.3555 41.9704 94.7018 41.5693 94.9434 41.1182C95.1895 40.667 95.3262 40.1953 95.3535 39.7031H92.6943V38.4727H99.4893V39.7031H96.8984C96.9212 40.168 97.0534 40.6123 97.2949 41.0361C97.5365 41.4554 97.8805 41.8268 98.3271 42.1504C98.7738 42.474 99.307 42.7201 99.9268 42.8887L99.1885 44.0645C98.4821 43.8594 97.8714 43.5495 97.3564 43.1348C96.8415 42.7155 96.4404 42.221 96.1533 41.6514C95.8662 42.2848 95.4538 42.834 94.916 43.2988C94.3828 43.7591 93.7425 44.1009 92.9951 44.3242L92.2979 43.1211ZM94.2939 44.748H102.497V47.9336H95.8115V48.9316H102.866V50.1074H94.3213V46.8262H100.979V45.9102H94.2939V44.748ZM115.581 45.2539H110.81V47.5234H109.306V45.2539H104.288V44.0371H115.581V45.2539ZM105.655 46.3887H107.173V48.7402H114.337V49.9707H105.655V46.3887ZM105.724 38.418H114.132V42.8887H105.724V38.418ZM112.628 41.6992V39.6074H107.2V41.6992H112.628ZM126.683 50.2305H125.151V37.8574H126.683V50.2305ZM116.798 43.1211C116.798 42.2507 116.935 41.485 117.208 40.8242C117.481 40.1634 117.862 39.6553 118.35 39.2998C118.842 38.9398 119.4 38.7598 120.024 38.7598C120.64 38.7598 121.191 38.9398 121.679 39.2998C122.171 39.6553 122.556 40.1634 122.834 40.8242C123.112 41.485 123.251 42.2507 123.251 43.1211C123.251 44.0007 123.112 44.7708 122.834 45.4316C122.556 46.0924 122.171 46.6029 121.679 46.9629C121.191 47.3184 120.64 47.4961 120.024 47.4961C119.4 47.4961 118.842 47.3184 118.35 46.9629C117.862 46.6029 117.481 46.0924 117.208 45.4316C116.935 44.7708 116.798 44.0007 116.798 43.1211ZM118.261 43.1211C118.261 43.7454 118.334 44.2832 118.479 44.7344C118.63 45.1855 118.837 45.5296 119.102 45.7666C119.366 46.0036 119.674 46.1243 120.024 46.1289C120.371 46.1243 120.676 46.0036 120.94 45.7666C121.205 45.5296 121.41 45.1855 121.556 44.7344C121.701 44.2832 121.774 43.7454 121.774 43.1211C121.774 42.5013 121.701 41.9681 121.556 41.5215C121.41 41.0703 121.205 40.7262 120.94 40.4893C120.676 40.2477 120.371 40.127 120.024 40.127C119.674 40.127 119.366 40.2477 119.102 40.4893C118.837 40.7262 118.63 41.0703 118.479 41.5215C118.334 41.9681 118.261 42.5013 118.261 43.1211ZM139.165 50.2168H137.702V37.8574H139.165V50.2168ZM128.624 43.2031C128.624 42.3053 128.733 41.526 128.952 40.8652C129.171 40.1999 129.481 39.6895 129.882 39.334C130.287 38.9785 130.757 38.8008 131.29 38.8008C131.787 38.8008 132.227 38.9489 132.609 39.2451C132.997 39.5413 133.307 39.9674 133.539 40.5234C133.776 41.0794 133.924 41.7402 133.983 42.5059H135.173V38.0762H136.622V49.6152H135.173V43.7363H133.997C133.951 44.5339 133.81 45.2266 133.573 45.8145C133.341 46.3978 133.029 46.8444 132.637 47.1543C132.245 47.4642 131.796 47.6191 131.29 47.6191C130.757 47.6191 130.287 47.4414 129.882 47.0859C129.481 46.7305 129.171 46.2201 128.952 45.5547C128.733 44.8848 128.624 44.1009 128.624 43.2031ZM130.032 43.2441C130.032 44.1875 130.142 44.9121 130.36 45.418C130.584 45.9238 130.894 46.1745 131.29 46.1699C131.705 46.1745 132.026 45.9215 132.254 45.4111C132.482 44.9007 132.598 44.1647 132.603 43.2031C132.598 42.2461 132.482 41.5124 132.254 41.002C132.026 40.487 131.705 40.2318 131.29 40.2363C130.889 40.2318 130.579 40.4893 130.36 41.0088C130.142 41.5283 130.032 42.2734 130.032 43.2441ZM151.894 48.7129H140.601V47.4688H143.212V44.3447C142.711 44.0576 142.321 43.6953 142.043 43.2578C141.77 42.8203 141.635 42.3327 141.64 41.7949C141.64 41.1478 141.833 40.5781 142.221 40.0859C142.613 39.5892 143.157 39.2064 143.854 38.9375C144.552 38.6641 145.34 38.5273 146.22 38.5273C147.104 38.5273 147.895 38.6641 148.592 38.9375C149.294 39.2064 149.84 39.5892 150.232 40.0859C150.629 40.5781 150.827 41.1478 150.827 41.7949C150.832 42.3236 150.7 42.8021 150.431 43.2305C150.162 43.6589 149.784 44.0189 149.296 44.3105V47.4688H151.894V48.7129ZM143.13 41.7949C143.13 42.2096 143.257 42.5742 143.513 42.8887C143.772 43.1986 144.135 43.4378 144.6 43.6064C145.069 43.7751 145.609 43.8594 146.22 43.8594C146.83 43.8594 147.37 43.7751 147.84 43.6064C148.314 43.4378 148.681 43.1986 148.94 42.8887C149.205 42.5742 149.337 42.2096 149.337 41.7949C149.337 41.3757 149.205 41.0088 148.94 40.6943C148.681 40.3799 148.314 40.1406 147.84 39.9766C147.37 39.8125 146.83 39.7305 146.22 39.7305C145.604 39.7305 145.062 39.8125 144.593 39.9766C144.128 40.1406 143.768 40.3799 143.513 40.6943C143.257 41.0042 143.13 41.3711 143.13 41.7949ZM147.751 47.4688V44.8916C147.268 44.9964 146.757 45.0488 146.22 45.0488C145.705 45.0488 145.203 44.9987 144.716 44.8984V47.4688H147.751ZM155.093 46.0879H153.548L153.384 39.1016H155.243L155.093 46.0879ZM153.261 48.043C153.261 47.8561 153.309 47.6829 153.404 47.5234C153.5 47.3594 153.63 47.2295 153.794 47.1338C153.958 47.0381 154.136 46.9902 154.327 46.9902C154.514 46.9902 154.687 47.0381 154.847 47.1338C155.011 47.2295 155.141 47.3594 155.236 47.5234C155.332 47.6829 155.38 47.8561 155.38 48.043C155.38 48.2344 155.332 48.4121 155.236 48.5762C155.141 48.7402 155.011 48.8701 154.847 48.9658C154.687 49.0615 154.514 49.1094 154.327 49.1094C154.136 49.1094 153.958 49.0615 153.794 48.9658C153.63 48.8701 153.5 48.7402 153.404 48.5762C153.309 48.4121 153.261 48.2344 153.261 48.043Z" fill="#576DFC"/>
<path d="M89.7474 73.1399C90.1458 73.5952 90.8542 73.5952 91.2526 73.1399L97.5 66H83.5L89.7474 73.1399Z" fill="#E4E8FF"/>
</svg>
