<svg width="157" height="74" viewBox="0 0 157 74" fill="none" xmlns="http://www.w3.org/2000/svg">
<path d="M0.5 20C0.5 8.95431 9.45431 0 20.5 0H136.5C147.546 0 156.5 8.95431 156.5 20V46C156.5 57.0457 147.546 66 136.5 66H20.5C9.4543 66 0.5 57.0457 0.5 46V20Z" fill="#E4E8FF"/>
<path d="M34.8389 21.5469H36.7393V22.791H34.8389V29.2305H33.3213V16.8574H34.8389V21.5469ZM25.665 18.0332H31.4482V19.2637H27.1826V24.9375C28.1852 24.9329 29.0876 24.901 29.8896 24.8418C30.6917 24.7826 31.5029 24.6823 32.3232 24.541L32.501 25.8262C31.6032 25.9811 30.7191 26.0837 29.8486 26.1338C28.9782 26.1839 27.9255 26.209 26.6904 26.209H25.665V18.0332ZM42.8779 17.1035C43.7848 17.1035 44.5732 17.1992 45.2432 17.3906C45.9131 17.582 46.4281 17.86 46.7881 18.2246C47.1527 18.5846 47.335 19.013 47.335 19.5098C47.335 19.9974 47.1527 20.4189 46.7881 20.7744C46.4281 21.1253 45.9131 21.3942 45.2432 21.5811C44.5732 21.7679 43.7848 21.8613 42.8779 21.8613C41.9801 21.8613 41.194 21.7679 40.5195 21.5811C39.8496 21.3942 39.3324 21.1253 38.9678 20.7744C38.6032 20.4189 38.4209 19.9974 38.4209 19.5098C38.4209 19.013 38.6032 18.5846 38.9678 18.2246C39.3324 17.86 39.8496 17.582 40.5195 17.3906C41.194 17.1992 41.9801 17.1035 42.8779 17.1035ZM37.2588 22.6953H48.5244V23.9258H37.2588V22.6953ZM38.585 24.9102H47.1572V29.0664H38.585V24.9102ZM40.0068 19.5098C40.0023 19.8789 40.2529 20.166 40.7588 20.3711C41.2646 20.5762 41.971 20.681 42.8779 20.6855C43.7848 20.681 44.4912 20.5762 44.9971 20.3711C45.5075 20.166 45.7627 19.8789 45.7627 19.5098C45.7627 19.1178 45.5098 18.8171 45.0039 18.6074C44.498 18.3978 43.7894 18.293 42.8779 18.293C41.9665 18.293 41.2578 18.3978 40.752 18.6074C40.2507 18.8171 40.0023 19.1178 40.0068 19.5098ZM45.6807 27.8359V26.1133H40.0889V27.8359H45.6807ZM62.4287 20.3301H64.165V21.5879H62.4287V25.7988H60.9111V16.8574H62.4287V20.3301ZM53.2002 17.8828H58.7373V19.0996H54.7041V22.4629C55.9072 22.4629 56.8757 22.4378 57.6094 22.3877C58.3477 22.333 59.0745 22.2305 59.79 22.0801L59.9541 23.3105C59.1657 23.4655 58.359 23.5703 57.5342 23.625C56.7093 23.6797 55.5973 23.707 54.1982 23.707H53.2002V17.8828ZM54.5127 24.8555H56.0303V27.7402H62.9209V28.9707H54.5127V24.8555ZM75.4443 29.2168H73.9951V16.8574H75.4443V29.2168ZM64.6572 25.5254C65.9105 24.7826 66.8538 23.9258 67.4873 22.9551C68.1253 21.9844 68.5036 20.8633 68.6221 19.5918H65.3135V18.3613H70.126C70.126 18.9993 70.0827 19.6055 69.9961 20.1797H71.4385V17.1582H72.8877V28.6289H71.4385V24.5H69.5107V23.2559H71.4385V21.4238H69.7363C69.431 22.4857 68.9365 23.4495 68.2529 24.3154C67.5739 25.1768 66.6715 25.9401 65.5459 26.6055L64.6572 25.5254ZM88.1729 27.7812H76.8799V26.5234H81.7471V24.5137H78.2197V20.4668H85.3291V18.9355H78.1924V17.7051H86.833V21.6699H79.7373V23.2695H87.1201V24.5137H83.251V26.5234H88.1729V27.7812ZM98.96 17.3906C98.9554 19.0677 98.4769 20.4463 97.5244 21.5264C96.5765 22.6019 95.0999 23.3971 93.0947 23.9121L92.5752 22.6953C94.3389 22.2533 95.6058 21.6016 96.376 20.7402L92.7529 21.0137L92.5205 19.7969L97.0732 19.626C97.1963 19.3161 97.2783 18.9811 97.3193 18.6211H93.1494V17.3906H98.96ZM94.4209 24.1719H95.9248V25.416H101.079V24.1719H102.597V29.0664H94.4209V24.1719ZM101.079 27.8359V26.5781H95.9248V27.8359H101.079ZM101.065 16.8574H102.597V23.6797H101.065V16.8574ZM114.491 19.1816V19.3252C114.487 20.0133 114.473 20.6104 114.45 21.1162C114.432 21.6175 114.389 22.2008 114.32 22.8662C114.252 23.527 114.145 24.2448 113.999 25.0195L112.468 24.8555C112.618 24.1126 112.728 23.4131 112.796 22.7568C112.869 22.096 112.912 21.515 112.926 21.0137C112.944 20.5124 112.955 19.9108 112.96 19.209H105.577V17.9922H114.491V19.1816ZM104.401 26.373H108.558V22.0801H110.062V26.373H115.667V27.6172H104.401V26.373ZM126.796 24.1582H125.265V16.8711H126.796V24.1582ZM116.72 20.5352C116.72 19.9701 116.863 19.4642 117.15 19.0176C117.442 18.571 117.841 18.2223 118.347 17.9717C118.853 17.721 119.422 17.5957 120.056 17.5957C120.685 17.5957 121.252 17.721 121.758 17.9717C122.264 18.2223 122.66 18.571 122.947 19.0176C123.234 19.4642 123.378 19.9701 123.378 20.5352C123.378 21.0957 123.234 21.5993 122.947 22.0459C122.66 22.488 122.264 22.8343 121.758 23.085C121.252 23.3356 120.685 23.4609 120.056 23.4609C119.422 23.4609 118.853 23.3356 118.347 23.085C117.841 22.8343 117.442 22.488 117.15 22.0459C116.863 21.5993 116.72 21.0957 116.72 20.5352ZM118.21 20.5352C118.21 20.8678 118.287 21.1595 118.442 21.4102C118.597 21.6562 118.814 21.8454 119.092 21.9775C119.374 22.1097 119.696 22.1758 120.056 22.1758C120.411 22.1758 120.726 22.1097 120.999 21.9775C121.277 21.8454 121.493 21.6562 121.648 21.4102C121.808 21.1595 121.888 20.8678 121.888 20.5352C121.888 20.1979 121.808 19.904 121.648 19.6533C121.493 19.4027 121.277 19.2113 120.999 19.0791C120.721 18.9469 120.407 18.8809 120.056 18.8809C119.696 18.8809 119.374 18.9469 119.092 19.0791C118.814 19.2113 118.597 19.4027 118.442 19.6533C118.287 19.904 118.21 20.1979 118.21 20.5352ZM118.388 26.7969C118.388 26.291 118.556 25.8581 118.894 25.498C119.235 25.138 119.723 24.8646 120.356 24.6777C120.99 24.4863 121.742 24.3906 122.612 24.3906C123.469 24.3906 124.214 24.4863 124.848 24.6777C125.481 24.8646 125.969 25.1403 126.311 25.5049C126.652 25.8649 126.823 26.2956 126.823 26.7969C126.823 27.2982 126.652 27.7288 126.311 28.0889C125.969 28.4489 125.481 28.7246 124.848 28.916C124.214 29.1074 123.469 29.2031 122.612 29.2031C121.742 29.2031 120.99 29.1074 120.356 28.916C119.723 28.7246 119.235 28.4489 118.894 28.0889C118.556 27.7288 118.388 27.2982 118.388 26.7969ZM119.919 26.7969C119.919 27.1888 120.149 27.4896 120.609 27.6992C121.074 27.9043 121.742 28.0091 122.612 28.0137C123.478 28.0091 124.146 27.9043 124.615 27.6992C125.089 27.4896 125.328 27.1888 125.333 26.7969C125.328 26.3958 125.091 26.0928 124.622 25.8877C124.153 25.6826 123.483 25.5801 122.612 25.5801C121.737 25.5801 121.07 25.6826 120.609 25.8877C120.149 26.0928 119.919 26.3958 119.919 26.7969ZM130.993 25.0879H129.448L129.284 18.1016H131.144L130.993 25.0879ZM129.161 27.043C129.161 26.8561 129.209 26.6829 129.305 26.5234C129.4 26.3594 129.53 26.2295 129.694 26.1338C129.858 26.0381 130.036 25.9902 130.228 25.9902C130.414 25.9902 130.588 26.0381 130.747 26.1338C130.911 26.2295 131.041 26.3594 131.137 26.5234C131.232 26.6829 131.28 26.8561 131.28 27.043C131.28 27.2344 131.232 27.4121 131.137 27.5762C131.041 27.7402 130.911 27.8701 130.747 27.9658C130.588 28.0615 130.414 28.1094 130.228 28.1094C130.036 28.1094 129.858 28.0615 129.694 27.9658C129.53 27.8701 129.4 27.7402 129.305 27.5762C129.209 27.4121 129.161 27.2344 129.161 27.043ZM38.3457 48.7266H27.0527V47.4824H31.9336V44.6387H33.4512V47.4824H38.3457V48.7266ZM27.5449 43.9551C28.3516 43.8229 29.083 43.5654 29.7393 43.1826C30.3955 42.7952 30.9128 42.3327 31.291 41.7949C31.6693 41.2526 31.8652 40.6875 31.8789 40.0996H27.9961V38.8555H37.375V40.0996H33.4785C33.4922 40.6875 33.6904 41.248 34.0732 41.7812C34.4561 42.3145 34.9801 42.7679 35.6455 43.1416C36.3154 43.5107 37.0651 43.7591 37.8945 43.8867L37.293 45.0898C36.2448 44.903 35.3151 44.5452 34.5039 44.0166C33.6927 43.4834 33.0889 42.8317 32.6924 42.0615C32.2959 42.8408 31.6966 43.5039 30.8945 44.0508C30.0924 44.5931 29.1764 44.9622 28.1465 45.1582L27.5449 43.9551ZM49.0645 39.416V39.7988C49.0645 40.3275 49.0439 40.8379 49.0029 41.3301C48.9619 41.8223 48.8822 42.3555 48.7637 42.9297H50.4453V44.1602H39.1523V42.9297H47.2256C47.3577 42.3281 47.4443 41.7767 47.4854 41.2754C47.5264 40.7741 47.5469 40.2409 47.5469 39.6758H40.5469V38.459H49.0645V39.416ZM40.5059 45.5957H49.0508V50.0664H40.5059V45.5957ZM47.5469 48.8359V46.7852H41.9961V48.8359H47.5469ZM57.5273 44.7617H51.6758V38.9238H57.5273V44.7617ZM53.084 46.0059H54.6016V48.7402H61.4922V49.9707H53.084V46.0059ZM56.0371 43.5586V40.1406H53.166V43.5586H56.0371ZM59.4824 37.8574H61V41.4805H62.7227V42.752H61V46.8809H59.4824V37.8574ZM72.9219 40.2227H68.8066V45.9785C69.8229 45.9694 70.6979 45.9375 71.4316 45.8828C72.1654 45.8281 72.8991 45.7324 73.6328 45.5957L73.7969 46.8262C72.972 46.9902 72.1517 47.0996 71.3359 47.1543C70.5202 47.209 69.4948 47.2363 68.2598 47.2363H67.2754V38.9785H72.9219V40.2227ZM72.2656 42.2051H75.5332V37.8574H77.0508V50.2305H75.5332V43.4492H72.2656V42.2051ZM92.3906 45.3359H90.8594V37.8574H92.3906V45.3359ZM82.2461 39.0469H85.2539V37.7754H86.7852V39.0469H89.7656V40.2637H82.2461V39.0469ZM82.9434 42.9297C82.9434 42.4876 83.071 42.1003 83.3262 41.7676C83.5814 41.4303 83.9414 41.1706 84.4062 40.9883C84.8711 40.806 85.4089 40.7148 86.0195 40.7148C86.6302 40.7148 87.168 40.806 87.6328 40.9883C88.0977 41.1706 88.4577 41.4303 88.7129 41.7676C88.9681 42.1003 89.0957 42.4876 89.0957 42.9297C89.0957 43.3763 88.9681 43.7682 88.7129 44.1055C88.4577 44.4382 88.0977 44.6956 87.6328 44.8779C87.1725 45.0557 86.6348 45.1445 86.0195 45.1445C85.4089 45.1445 84.8711 45.0534 84.4062 44.8711C83.9414 44.6888 83.5814 44.4313 83.3262 44.0986C83.071 43.766 82.9434 43.3763 82.9434 42.9297ZM84.1875 45.8965H92.3906V50.0664H84.1875V45.8965ZM84.3926 42.9297C84.3926 43.2715 84.5361 43.5381 84.8232 43.7295C85.1149 43.9163 85.5137 44.0098 86.0195 44.0098C86.5208 44.0098 86.915 43.9163 87.2021 43.7295C87.4938 43.5381 87.6419 43.2715 87.6465 42.9297C87.6419 42.5924 87.4961 42.3281 87.209 42.1367C86.9264 41.9453 86.5391 41.8496 86.0469 41.8496C85.5319 41.8496 85.1263 41.943 84.8301 42.1299C84.5384 42.3167 84.3926 42.5833 84.3926 42.9297ZM90.9004 48.8359V47.0996H85.6914V48.8359H90.9004ZM104.805 50.2168H103.342V43.9688H101.975V49.5879H100.553V38.0898H101.975V42.7246H103.342V37.8574H104.805V50.2168ZM94.7285 39.2793H96.2598V45.8008C97.4674 45.778 98.6432 45.6549 99.7871 45.4316L99.9375 46.7578C98.4883 47.013 97.0254 47.1406 95.5488 47.1406H94.7285V39.2793ZM117.588 48.7129H106.295V47.4688H108.906V44.3447C108.405 44.0576 108.015 43.6953 107.737 43.2578C107.464 42.8203 107.329 42.3327 107.334 41.7949C107.334 41.1478 107.528 40.5781 107.915 40.0859C108.307 39.5892 108.852 39.2064 109.549 38.9375C110.246 38.6641 111.035 38.5273 111.914 38.5273C112.798 38.5273 113.589 38.6641 114.286 38.9375C114.988 39.2064 115.535 39.5892 115.927 40.0859C116.323 40.5781 116.521 41.1478 116.521 41.7949C116.526 42.3236 116.394 42.8021 116.125 43.2305C115.856 43.6589 115.478 44.0189 114.99 44.3105V47.4688H117.588V48.7129ZM108.824 41.7949C108.824 42.2096 108.952 42.5742 109.207 42.8887C109.467 43.1986 109.829 43.4378 110.294 43.6064C110.763 43.7751 111.303 43.8594 111.914 43.8594C112.525 43.8594 113.065 43.7751 113.534 43.6064C114.008 43.4378 114.375 43.1986 114.635 42.8887C114.899 42.5742 115.031 42.2096 115.031 41.7949C115.031 41.3757 114.899 41.0088 114.635 40.6943C114.375 40.3799 114.008 40.1406 113.534 39.9766C113.065 39.8125 112.525 39.7305 111.914 39.7305C111.299 39.7305 110.757 39.8125 110.287 39.9766C109.822 40.1406 109.462 40.3799 109.207 40.6943C108.952 41.0042 108.824 41.3711 108.824 41.7949ZM113.445 47.4688V44.8916C112.962 44.9964 112.452 45.0488 111.914 45.0488C111.399 45.0488 110.898 44.9987 110.41 44.8984V47.4688H113.445ZM123.221 49.1094C123.029 49.1094 122.852 49.0615 122.688 48.9658C122.523 48.8701 122.394 48.7402 122.298 48.5762C122.202 48.4121 122.154 48.2344 122.154 48.043C122.154 47.8561 122.202 47.6829 122.298 47.5234C122.394 47.3594 122.523 47.2295 122.688 47.1338C122.852 47.0381 123.029 46.9902 123.221 46.9902C123.408 46.9902 123.581 47.0381 123.74 47.1338C123.904 47.2295 124.034 47.3594 124.13 47.5234C124.226 47.6829 124.273 47.8561 124.273 48.043C124.273 48.2344 124.226 48.4121 124.13 48.5762C124.034 48.7402 123.904 48.8701 123.74 48.9658C123.581 49.0615 123.408 49.1094 123.221 49.1094ZM123.221 43.8047C123.029 43.8047 122.852 43.7568 122.688 43.6611C122.523 43.5654 122.394 43.4355 122.298 43.2715C122.202 43.1074 122.154 42.9297 122.154 42.7383C122.154 42.5514 122.202 42.3783 122.298 42.2188C122.394 42.0547 122.523 41.9248 122.688 41.8291C122.852 41.7334 123.029 41.6855 123.221 41.6855C123.408 41.6855 123.581 41.7334 123.74 41.8291C123.904 41.9248 124.034 42.0547 124.13 42.2188C124.226 42.3783 124.273 42.5514 124.273 42.7383C124.273 42.9297 124.226 43.1074 124.13 43.2715C124.034 43.4355 123.904 43.5654 123.74 43.6611C123.581 43.7568 123.408 43.8047 123.221 43.8047ZM129.086 44.9531C129.086 46.1562 128.926 47.266 128.607 48.2822C128.288 49.2985 127.81 50.2396 127.172 51.1055H125.531C125.855 50.6816 126.149 50.1325 126.413 49.458C126.682 48.7835 126.892 48.0521 127.042 47.2637C127.192 46.4707 127.268 45.7005 127.268 44.9531C127.268 44.2057 127.192 43.4401 127.042 42.6562C126.892 41.8678 126.682 41.1364 126.413 40.4619C126.149 39.7874 125.855 39.2383 125.531 38.8145H127.172C127.81 39.6803 128.288 40.6214 128.607 41.6377C128.926 42.6494 129.086 43.7546 129.086 44.9531Z" fill="#576DFC"/>
<path d="M77.7474 73.1399C78.1458 73.5952 78.8542 73.5952 79.2526 73.1399L85.5 66H71.5L77.7474 73.1399Z" fill="#E4E8FF"/>
</svg>
