<svg width="150" height="74" viewBox="0 0 150 74" fill="none" xmlns="http://www.w3.org/2000/svg">
<path d="M0.5 20C0.5 8.95431 9.4543 0 20.5 0H129.5C140.546 0 149.5 8.95431 149.5 20V46C149.5 57.0457 140.546 66 129.5 66H20.5C9.4543 66 0.5 57.0457 0.5 46V20Z" fill="#E4E8FF"/>
<path d="M30.0127 20.3711C30.0127 21.0501 30.1403 21.7223 30.3955 22.3877C30.6553 23.0485 31.0244 23.6432 31.5029 24.1719C31.986 24.696 32.5511 25.0924 33.1982 25.3613L32.3643 26.5645C31.6488 26.2546 31.0267 25.7965 30.498 25.1904C29.9694 24.5798 29.5592 23.8711 29.2676 23.0645C28.9759 23.9303 28.5635 24.696 28.0303 25.3613C27.4971 26.0267 26.8773 26.528 26.1709 26.8652L25.2959 25.6758C25.9294 25.3841 26.4854 24.9557 26.9639 24.3906C27.4424 23.8255 27.8115 23.1898 28.0713 22.4834C28.3311 21.777 28.4632 21.0729 28.4678 20.3711V19.332H25.7471V18.0742H32.7197V19.332H30.0127V20.3711ZM34.1006 16.8574H35.6318V29.2168H34.1006V16.8574ZM47.3623 18.416V18.7988C47.3623 19.3275 47.3418 19.8379 47.3008 20.3301C47.2598 20.8223 47.18 21.3555 47.0615 21.9297H48.7432V23.1602H37.4502V21.9297H45.5234C45.6556 21.3281 45.7422 20.7767 45.7832 20.2754C45.8242 19.7741 45.8447 19.2409 45.8447 18.6758H38.8447V17.459H47.3623V18.416ZM38.8037 24.5957H47.3486V29.0664H38.8037V24.5957ZM45.8447 27.8359V25.7852H40.2939V27.8359H45.8447ZM59.4072 21.793H61.1162V23.0508H59.4072V29.2168H57.876V16.8574H59.4072V21.793ZM49.3721 25.6758C49.9372 25.0742 50.3906 24.4499 50.7324 23.8027C51.0742 23.1556 51.3271 22.4766 51.4912 21.7656C51.6598 21.0547 51.7646 20.2663 51.8057 19.4004H49.8643V18.1562H53.2549C53.2503 19.3411 53.1751 20.4076 53.0293 21.3555C52.8835 22.2988 52.6123 23.2057 52.2158 24.0762C51.8239 24.9466 51.2725 25.7669 50.5615 26.5371L49.3721 25.6758ZM52.8721 26.4961C53.4372 25.8171 53.8861 25.1061 54.2188 24.3633C54.556 23.6159 54.7998 22.8434 54.9502 22.0459C55.1006 21.2438 55.194 20.362 55.2305 19.4004H53.665V18.1562H56.6729C56.6683 19.4186 56.5999 20.5625 56.4678 21.5879C56.3402 22.6133 56.0872 23.6159 55.709 24.5957C55.3353 25.571 54.7952 26.4824 54.0889 27.3301L52.8721 26.4961ZM66.3115 20.3711C66.3115 21.0501 66.4391 21.7223 66.6943 22.3877C66.9541 23.0485 67.3232 23.6432 67.8018 24.1719C68.2848 24.696 68.8499 25.0924 69.4971 25.3613L68.6631 26.5645C67.9476 26.2546 67.3255 25.7965 66.7969 25.1904C66.2682 24.5798 65.8581 23.8711 65.5664 23.0645C65.2747 23.9303 64.8623 24.696 64.3291 25.3613C63.7959 26.0267 63.1761 26.528 62.4697 26.8652L61.5947 25.6758C62.2282 25.3841 62.7842 24.9557 63.2627 24.3906C63.7412 23.8255 64.1104 23.1898 64.3701 22.4834C64.6299 21.777 64.762 21.0729 64.7666 20.3711V19.332H62.0459V18.0742H69.0186V19.332H66.3115V20.3711ZM70.3994 16.8574H71.9307V29.2168H70.3994V16.8574ZM77.7549 17.7188C78.402 17.7188 78.9831 17.8464 79.498 18.1016C80.013 18.3522 80.4163 18.7054 80.708 19.1611C81.0042 19.6123 81.1546 20.125 81.1592 20.6992C81.1546 21.278 81.0042 21.7952 80.708 22.251C80.4163 22.7021 80.013 23.0553 79.498 23.3105C78.9831 23.5658 78.402 23.6934 77.7549 23.6934C77.1123 23.6934 76.5312 23.5658 76.0117 23.3105C75.4967 23.0553 75.0934 22.6999 74.8018 22.2441C74.5101 21.7884 74.3643 21.2734 74.3643 20.6992C74.3643 20.125 74.5101 19.6123 74.8018 19.1611C75.098 18.7054 75.5036 18.3522 76.0186 18.1016C76.5335 17.8464 77.1123 17.7188 77.7549 17.7188ZM73.8037 25.4023C75.3167 25.4023 76.7295 25.3773 78.042 25.3271C79.3545 25.2725 80.6032 25.1608 81.7881 24.9922L81.9111 26.0996C80.6898 26.332 79.4434 26.4824 78.1719 26.5508C76.9049 26.6146 75.5127 26.6465 73.9951 26.6465L73.8037 25.4023ZM75.8682 20.6992C75.8682 21.0365 75.9479 21.3327 76.1074 21.5879C76.2715 21.8385 76.4971 22.0322 76.7842 22.1689C77.0713 22.3011 77.3949 22.3672 77.7549 22.3672C78.1195 22.3672 78.4453 22.3011 78.7324 22.1689C79.0241 22.0322 79.252 21.8385 79.416 21.5879C79.5846 21.3327 79.6689 21.0365 79.6689 20.6992C79.6689 20.362 79.5846 20.068 79.416 19.8174C79.252 19.5667 79.0241 19.373 78.7324 19.2363C78.4453 19.0996 78.1195 19.0312 77.7549 19.0312C77.3949 19.0312 77.0713 19.0996 76.7842 19.2363C76.4971 19.373 76.2715 19.569 76.1074 19.8242C75.9479 20.0749 75.8682 20.3665 75.8682 20.6992ZM82.5264 16.8574H84.0439V29.2305H82.5264V16.8574ZM99.5205 24.0898H98.0029V22.7227H95.0635V21.4922H98.0029V20.166H95.1797C94.7923 21.1413 94.1543 21.973 93.2656 22.6611C92.377 23.3447 91.2581 23.8757 89.9092 24.2539L89.2939 23.0508C90.7158 22.668 91.8187 22.1257 92.6025 21.4238C93.391 20.7174 93.8444 19.8971 93.9629 18.9629H89.9502V17.7324H95.624C95.624 18.1608 95.5898 18.571 95.5215 18.9629H98.0029V16.8711H99.5205V24.0898ZM91.2354 26.6875C91.2354 26.1862 91.4085 25.751 91.7549 25.3818C92.1012 25.0127 92.5889 24.7279 93.2178 24.5273C93.8512 24.3268 94.5895 24.2266 95.4326 24.2266C96.262 24.2266 96.9912 24.3268 97.6201 24.5273C98.249 24.7279 98.7367 25.0127 99.083 25.3818C99.4294 25.751 99.6025 26.1862 99.6025 26.6875C99.6025 27.1888 99.4294 27.6263 99.083 28C98.7367 28.3691 98.249 28.6517 97.6201 28.8477C96.9912 29.0482 96.262 29.1484 95.4326 29.1484C94.5941 29.1484 93.8581 29.0482 93.2246 28.8477C92.5911 28.6517 92.1012 28.3691 91.7549 28C91.4085 27.6263 91.2354 27.1888 91.2354 26.6875ZM92.7529 26.6875C92.7529 27.0885 92.9899 27.3984 93.4639 27.6172C93.9378 27.8359 94.5941 27.9453 95.4326 27.9453C96.2575 27.9453 96.9046 27.8359 97.374 27.6172C97.8434 27.3984 98.0804 27.0885 98.085 26.6875C98.0804 26.2773 97.8434 25.9629 97.374 25.7441C96.9092 25.5254 96.262 25.416 95.4326 25.416C94.5941 25.416 93.9378 25.5254 93.4639 25.7441C92.9899 25.9629 92.7529 26.2773 92.7529 26.6875ZM111.62 24.3359H110.103V21.7793H108.339V20.5215H110.103V16.8574H111.62V24.3359ZM101.298 18.0059H104.169V16.7617H105.673V18.0059H108.544V19.2363H101.298V18.0059ZM101.995 21.9297C101.995 21.5013 102.118 21.1208 102.364 20.7881C102.615 20.4508 102.961 20.1888 103.403 20.002C103.85 19.8105 104.356 19.7148 104.921 19.7148C105.486 19.7148 105.992 19.8105 106.438 20.002C106.885 20.1888 107.234 20.4508 107.484 20.7881C107.735 21.1208 107.86 21.5013 107.86 21.9297C107.86 22.3672 107.735 22.7546 107.484 23.0918C107.234 23.4245 106.885 23.6842 106.438 23.8711C105.996 24.0534 105.491 24.1445 104.921 24.1445C104.356 24.1445 103.85 24.0534 103.403 23.8711C102.961 23.6842 102.615 23.4245 102.364 23.0918C102.118 22.7546 101.995 22.3672 101.995 21.9297ZM103.403 24.8965H111.62V29.0664H103.403V24.8965ZM103.444 21.9297C103.444 22.2669 103.576 22.5312 103.841 22.7227C104.11 22.9141 104.47 23.0098 104.921 23.0098C105.368 23.0098 105.725 22.9141 105.994 22.7227C106.263 22.5312 106.397 22.2669 106.397 21.9297C106.397 21.6016 106.263 21.3418 105.994 21.1504C105.725 20.959 105.368 20.8633 104.921 20.8633C104.474 20.8633 104.117 20.959 103.848 21.1504C103.579 21.3418 103.444 21.6016 103.444 21.9297ZM110.13 27.8359V26.0996H104.921V27.8359H110.13ZM118.989 17.0488C119.928 17.0488 120.73 17.1309 121.396 17.2949C122.061 17.459 122.569 17.7005 122.92 18.0195C123.271 18.334 123.446 18.7168 123.446 19.168C123.446 19.6237 123.271 20.0111 122.92 20.3301C122.569 20.6491 122.061 20.8906 121.396 21.0547C120.73 21.2142 119.928 21.2962 118.989 21.3008C118.05 21.2962 117.248 21.2142 116.583 21.0547C115.918 20.8906 115.41 20.6491 115.059 20.3301C114.708 20.0111 114.532 19.6237 114.532 19.168C114.532 18.7168 114.708 18.334 115.059 18.0195C115.41 17.7005 115.918 17.4613 116.583 17.3018C117.248 17.1377 118.05 17.0534 118.989 17.0488ZM113.37 21.957H124.636V23.1738H113.37V21.957ZM114.696 24.0078H123.228V27.0293H116.2V27.9453H123.569V29.1074H114.71V25.9492H121.737V25.1289H114.696V24.0078ZM116.132 19.168C116.127 19.5052 116.364 19.7559 116.843 19.9199C117.321 20.084 118.037 20.166 118.989 20.166C119.951 20.166 120.671 20.084 121.149 19.9199C121.632 19.7559 121.874 19.5052 121.874 19.168C121.874 18.849 121.628 18.6029 121.136 18.4297C120.648 18.2565 119.933 18.1699 118.989 18.1699C118.055 18.1699 117.344 18.2565 116.856 18.4297C116.369 18.6029 116.127 18.849 116.132 19.168ZM38.9404 40.2637H37.2998V45.8418C37.8831 45.819 38.43 45.7507 38.9404 45.6367L39.1045 46.8945C38.7262 46.9766 38.3548 47.0312 37.9902 47.0586C37.6302 47.0859 37.2087 47.0996 36.7256 47.0996H36.3838H35.7959V39.0332H38.9404V40.2637ZM39.5693 39.0332H42.9463V40.2637H41.0869V45.8486C41.5472 45.8395 41.9528 45.819 42.3037 45.7871C42.6546 45.7507 43.0101 45.6914 43.3701 45.6094L43.4932 46.8398C43.0648 46.9447 42.641 47.0153 42.2217 47.0518C41.8024 47.0837 41.2669 47.0996 40.6152 47.0996H40.2393H39.5693V39.0332ZM42.3994 42.2461H44.4639V37.8574H45.9814V50.2168H44.4639V43.4766H42.3994V42.2461ZM53.2002 37.9805C54.139 37.9805 54.9411 38.0648 55.6064 38.2334C56.2718 38.3975 56.7799 38.6367 57.1309 38.9512C57.4818 39.2656 57.6572 39.6484 57.6572 40.0996C57.6527 40.724 57.3291 41.2161 56.6865 41.5762C56.0439 41.9362 55.1279 42.1481 53.9385 42.2119V42.998H58.8467V44.2148H47.5811V42.998H52.4346V42.2119C51.2542 42.1481 50.3428 41.9362 49.7002 41.5762C49.0622 41.2116 48.7432 40.7194 48.7432 40.0996C48.7432 39.6484 48.9186 39.2656 49.2695 38.9512C49.6204 38.6367 50.1286 38.3975 50.7939 38.2334C51.4639 38.0648 52.266 37.9805 53.2002 37.9805ZM48.9072 45.0078H57.4385V48.0293H50.4111V48.9453H57.7803V50.1074H48.9209V46.9492H55.9482V46.1562H48.9072V45.0078ZM50.3428 40.0996C50.3382 40.4368 50.5752 40.6875 51.0537 40.8516C51.5322 41.0156 52.2477 41.1022 53.2002 41.1113C54.1663 41.1022 54.8887 41.0156 55.3672 40.8516C55.8457 40.6875 56.085 40.4368 56.085 40.0996C56.085 39.7806 55.8411 39.5391 55.3535 39.375C54.8704 39.2064 54.1527 39.1198 53.2002 39.1152C52.2614 39.1198 51.5482 39.2064 51.0605 39.375C50.5775 39.5391 50.3382 39.7806 50.3428 40.0996ZM70.0303 50.2305H68.5127V45.1582H66.2568V43.9141H68.5127V41.7949H66.2979V40.5508H68.5127V37.8574H70.0303V50.2305ZM60.0908 38.9238H65.6006V43.5449H61.6357V46.1699C62.5016 46.1654 63.3037 46.1403 64.042 46.0947C64.7848 46.0446 65.555 45.9603 66.3525 45.8418L66.4756 47.0859C65.6006 47.2227 64.7575 47.3138 63.9463 47.3594C63.1396 47.4049 62.1872 47.4277 61.0889 47.4277H60.1318V42.3555H64.1104V40.1406H60.0908V38.9238ZM74.7471 39.0195H80.0791V38.0488H81.583V42.1641H78.1377V43.1074H83.0459V44.3105H71.7803V43.1074H76.6338V42.1641H73.2432V38.0488H74.7471V39.0195ZM73.1064 45.0898H81.6377V48.084H74.6104V48.9453H81.9795V50.1074H73.1201V47.0176H80.1475V46.2109H73.1064V45.0898ZM80.0791 41.0293V40.127H74.7471V41.0293H80.0791ZM93.7373 42.793H95.4463V44.0508H93.7373V50.2168H92.2061V37.8574H93.7373V42.793ZM83.7021 46.6758C84.2673 46.0742 84.7207 45.4499 85.0625 44.8027C85.4043 44.1556 85.6572 43.4766 85.8213 42.7656C85.9899 42.0547 86.0947 41.2663 86.1357 40.4004H84.1943V39.1562H87.585C87.5804 40.3411 87.5052 41.4076 87.3594 42.3555C87.2135 43.2988 86.9424 44.2057 86.5459 45.0762C86.154 45.9466 85.6025 46.7669 84.8916 47.5371L83.7021 46.6758ZM87.2021 47.4961C87.7673 46.8171 88.2161 46.1061 88.5488 45.3633C88.8861 44.6159 89.1299 43.8434 89.2803 43.0459C89.4307 42.2438 89.5241 41.362 89.5605 40.4004H87.9951V39.1562H91.0029C90.9984 40.4186 90.93 41.5625 90.7979 42.5879C90.6702 43.6133 90.4173 44.6159 90.0391 45.5957C89.6654 46.571 89.1253 47.4824 88.4189 48.3301L87.2021 47.4961ZM107.272 48.7129H95.9795V47.4688H98.5908V44.3447C98.0895 44.0576 97.6999 43.6953 97.4219 43.2578C97.1484 42.8203 97.014 42.3327 97.0186 41.7949C97.0186 41.1478 97.2122 40.5781 97.5996 40.0859C97.9915 39.5892 98.5361 39.2064 99.2334 38.9375C99.9307 38.6641 100.719 38.5273 101.599 38.5273C102.483 38.5273 103.273 38.6641 103.971 38.9375C104.673 39.2064 105.219 39.5892 105.611 40.0859C106.008 40.5781 106.206 41.1478 106.206 41.7949C106.211 42.3236 106.078 42.8021 105.81 43.2305C105.541 43.6589 105.162 44.0189 104.675 44.3105V47.4688H107.272V48.7129ZM98.5088 41.7949C98.5088 42.2096 98.6364 42.5742 98.8916 42.8887C99.1514 43.1986 99.5137 43.4378 99.9785 43.6064C100.448 43.7751 100.988 43.8594 101.599 43.8594C102.209 43.8594 102.749 43.7751 103.219 43.6064C103.693 43.4378 104.06 43.1986 104.319 42.8887C104.584 42.5742 104.716 42.2096 104.716 41.7949C104.716 41.3757 104.584 41.0088 104.319 40.6943C104.06 40.3799 103.693 40.1406 103.219 39.9766C102.749 39.8125 102.209 39.7305 101.599 39.7305C100.983 39.7305 100.441 39.8125 99.9717 39.9766C99.5068 40.1406 99.1468 40.3799 98.8916 40.6943C98.6364 41.0042 98.5088 41.3711 98.5088 41.7949ZM103.13 47.4688V44.8916C102.647 44.9964 102.136 45.0488 101.599 45.0488C101.084 45.0488 100.582 44.9987 100.095 44.8984V47.4688H103.13ZM110.171 45.9648C110.175 45.4043 110.23 44.9508 110.335 44.6045C110.44 44.2581 110.586 43.9801 110.772 43.7705C110.964 43.5609 111.219 43.3581 111.538 43.1621C111.862 42.9525 112.115 42.7269 112.297 42.4854C112.479 42.2438 112.568 41.9635 112.563 41.6445C112.563 41.3939 112.504 41.1751 112.386 40.9883C112.272 40.7969 112.112 40.6488 111.907 40.5439C111.702 40.4391 111.474 40.3867 111.224 40.3867C110.991 40.3867 110.772 40.4368 110.567 40.5371C110.362 40.6374 110.194 40.79 110.062 40.9951C109.929 41.2002 109.856 41.4486 109.843 41.7402H108.134C108.147 41.1478 108.293 40.6442 108.571 40.2295C108.849 39.8102 109.218 39.4958 109.679 39.2861C110.144 39.0719 110.663 38.9648 111.237 38.9648C111.848 38.9648 112.388 39.0742 112.857 39.293C113.331 39.5072 113.698 39.8148 113.958 40.2158C114.222 40.6169 114.354 41.084 114.354 41.6172C114.35 42.1504 114.222 42.6084 113.972 42.9912C113.726 43.374 113.37 43.7044 112.905 43.9824C112.632 44.151 112.413 44.3219 112.249 44.4951C112.09 44.6683 111.971 44.8711 111.894 45.1035C111.816 45.3359 111.775 45.623 111.771 45.9648V46.0879H110.171V45.9648ZM109.952 48.043C109.952 47.8561 110 47.6829 110.096 47.5234C110.191 47.3594 110.321 47.2295 110.485 47.1338C110.649 47.0381 110.827 46.9902 111.019 46.9902C111.205 46.9902 111.379 47.0381 111.538 47.1338C111.702 47.2295 111.832 47.3594 111.928 47.5234C112.023 47.6829 112.071 47.8561 112.071 48.043C112.071 48.2344 112.023 48.4121 111.928 48.5762C111.832 48.7402 111.702 48.8701 111.538 48.9658C111.379 49.0615 111.205 49.1094 111.019 49.1094C110.827 49.1094 110.649 49.0615 110.485 48.9658C110.321 48.8701 110.191 48.7402 110.096 48.5762C110 48.4121 109.952 48.2344 109.952 48.043Z" fill="#576DFC"/>
<path d="M74.2474 73.1399C74.6458 73.5952 75.3542 73.5952 75.7526 73.1399L82 66H68L74.2474 73.1399Z" fill="#E4E8FF"/>
</svg>
