<svg width="149" height="74" viewBox="0 0 149 74" fill="none" xmlns="http://www.w3.org/2000/svg">
<path d="M0 20C0 8.95431 8.9543 0 20 0H129C140.046 0 149 8.95431 149 20V46C149 57.0457 140.046 66 129 66H20C8.9543 66 0 57.0457 0 46V20Z" fill="#E4E8FF"/>
<path d="M29.5127 20.3711C29.5127 21.0501 29.6403 21.7223 29.8955 22.3877C30.1553 23.0485 30.5244 23.6432 31.0029 24.1719C31.486 24.696 32.0511 25.0924 32.6982 25.3613L31.8643 26.5645C31.1488 26.2546 30.5267 25.7965 29.998 25.1904C29.4694 24.5798 29.0592 23.8711 28.7676 23.0645C28.4759 23.9303 28.0635 24.696 27.5303 25.3613C26.9971 26.0267 26.3773 26.528 25.6709 26.8652L24.7959 25.6758C25.4294 25.3841 25.9854 24.9557 26.4639 24.3906C26.9424 23.8255 27.3115 23.1898 27.5713 22.4834C27.8311 21.777 27.9632 21.0729 27.9678 20.3711V19.332H25.2471V18.0742H32.2197V19.332H29.5127V20.3711ZM33.6006 16.8574H35.1318V29.2168H33.6006V16.8574ZM46.8623 18.416V18.7988C46.8623 19.3275 46.8418 19.8379 46.8008 20.3301C46.7598 20.8223 46.68 21.3555 46.5615 21.9297H48.2432V23.1602H36.9502V21.9297H45.0234C45.1556 21.3281 45.2422 20.7767 45.2832 20.2754C45.3242 19.7741 45.3447 19.2409 45.3447 18.6758H38.3447V17.459H46.8623V18.416ZM38.3037 24.5957H46.8486V29.0664H38.3037V24.5957ZM45.3447 27.8359V25.7852H39.7939V27.8359H45.3447ZM58.9072 21.793H60.6162V23.0508H58.9072V29.2168H57.376V16.8574H58.9072V21.793ZM48.8721 25.6758C49.4372 25.0742 49.8906 24.4499 50.2324 23.8027C50.5742 23.1556 50.8271 22.4766 50.9912 21.7656C51.1598 21.0547 51.2646 20.2663 51.3057 19.4004H49.3643V18.1562H52.7549C52.7503 19.3411 52.6751 20.4076 52.5293 21.3555C52.3835 22.2988 52.1123 23.2057 51.7158 24.0762C51.3239 24.9466 50.7725 25.7669 50.0615 26.5371L48.8721 25.6758ZM52.3721 26.4961C52.9372 25.8171 53.3861 25.1061 53.7188 24.3633C54.056 23.6159 54.2998 22.8434 54.4502 22.0459C54.6006 21.2438 54.694 20.362 54.7305 19.4004H53.165V18.1562H56.1729C56.1683 19.4186 56.0999 20.5625 55.9678 21.5879C55.8402 22.6133 55.5872 23.6159 55.209 24.5957C54.8353 25.571 54.2952 26.4824 53.5889 27.3301L52.3721 26.4961ZM65.8115 20.3711C65.8115 21.0501 65.9391 21.7223 66.1943 22.3877C66.4541 23.0485 66.8232 23.6432 67.3018 24.1719C67.7848 24.696 68.3499 25.0924 68.9971 25.3613L68.1631 26.5645C67.4476 26.2546 66.8255 25.7965 66.2969 25.1904C65.7682 24.5798 65.3581 23.8711 65.0664 23.0645C64.7747 23.9303 64.3623 24.696 63.8291 25.3613C63.2959 26.0267 62.6761 26.528 61.9697 26.8652L61.0947 25.6758C61.7282 25.3841 62.2842 24.9557 62.7627 24.3906C63.2412 23.8255 63.6104 23.1898 63.8701 22.4834C64.1299 21.777 64.262 21.0729 64.2666 20.3711V19.332H61.5459V18.0742H68.5186V19.332H65.8115V20.3711ZM69.8994 16.8574H71.4307V29.2168H69.8994V16.8574ZM77.2549 17.7188C77.902 17.7188 78.4831 17.8464 78.998 18.1016C79.513 18.3522 79.9163 18.7054 80.208 19.1611C80.5042 19.6123 80.6546 20.125 80.6592 20.6992C80.6546 21.278 80.5042 21.7952 80.208 22.251C79.9163 22.7021 79.513 23.0553 78.998 23.3105C78.4831 23.5658 77.902 23.6934 77.2549 23.6934C76.6123 23.6934 76.0312 23.5658 75.5117 23.3105C74.9967 23.0553 74.5934 22.6999 74.3018 22.2441C74.0101 21.7884 73.8643 21.2734 73.8643 20.6992C73.8643 20.125 74.0101 19.6123 74.3018 19.1611C74.598 18.7054 75.0036 18.3522 75.5186 18.1016C76.0335 17.8464 76.6123 17.7188 77.2549 17.7188ZM73.3037 25.4023C74.8167 25.4023 76.2295 25.3773 77.542 25.3271C78.8545 25.2725 80.1032 25.1608 81.2881 24.9922L81.4111 26.0996C80.1898 26.332 78.9434 26.4824 77.6719 26.5508C76.4049 26.6146 75.0127 26.6465 73.4951 26.6465L73.3037 25.4023ZM75.3682 20.6992C75.3682 21.0365 75.4479 21.3327 75.6074 21.5879C75.7715 21.8385 75.9971 22.0322 76.2842 22.1689C76.5713 22.3011 76.8949 22.3672 77.2549 22.3672C77.6195 22.3672 77.9453 22.3011 78.2324 22.1689C78.5241 22.0322 78.752 21.8385 78.916 21.5879C79.0846 21.3327 79.1689 21.0365 79.1689 20.6992C79.1689 20.362 79.0846 20.068 78.916 19.8174C78.752 19.5667 78.5241 19.373 78.2324 19.2363C77.9453 19.0996 77.6195 19.0312 77.2549 19.0312C76.8949 19.0312 76.5713 19.0996 76.2842 19.2363C75.9971 19.373 75.7715 19.569 75.6074 19.8242C75.4479 20.0749 75.3682 20.3665 75.3682 20.6992ZM82.0264 16.8574H83.5439V29.2305H82.0264V16.8574ZM99.0205 24.0898H97.5029V22.7227H94.5635V21.4922H97.5029V20.166H94.6797C94.2923 21.1413 93.6543 21.973 92.7656 22.6611C91.877 23.3447 90.7581 23.8757 89.4092 24.2539L88.7939 23.0508C90.2158 22.668 91.3187 22.1257 92.1025 21.4238C92.891 20.7174 93.3444 19.8971 93.4629 18.9629H89.4502V17.7324H95.124C95.124 18.1608 95.0898 18.571 95.0215 18.9629H97.5029V16.8711H99.0205V24.0898ZM90.7354 26.6875C90.7354 26.1862 90.9085 25.751 91.2549 25.3818C91.6012 25.0127 92.0889 24.7279 92.7178 24.5273C93.3512 24.3268 94.0895 24.2266 94.9326 24.2266C95.762 24.2266 96.4912 24.3268 97.1201 24.5273C97.749 24.7279 98.2367 25.0127 98.583 25.3818C98.9294 25.751 99.1025 26.1862 99.1025 26.6875C99.1025 27.1888 98.9294 27.6263 98.583 28C98.2367 28.3691 97.749 28.6517 97.1201 28.8477C96.4912 29.0482 95.762 29.1484 94.9326 29.1484C94.0941 29.1484 93.3581 29.0482 92.7246 28.8477C92.0911 28.6517 91.6012 28.3691 91.2549 28C90.9085 27.6263 90.7354 27.1888 90.7354 26.6875ZM92.2529 26.6875C92.2529 27.0885 92.4899 27.3984 92.9639 27.6172C93.4378 27.8359 94.0941 27.9453 94.9326 27.9453C95.7575 27.9453 96.4046 27.8359 96.874 27.6172C97.3434 27.3984 97.5804 27.0885 97.585 26.6875C97.5804 26.2773 97.3434 25.9629 96.874 25.7441C96.4092 25.5254 95.762 25.416 94.9326 25.416C94.0941 25.416 93.4378 25.5254 92.9639 25.7441C92.4899 25.9629 92.2529 26.2773 92.2529 26.6875ZM111.12 24.3359H109.603V21.7793H107.839V20.5215H109.603V16.8574H111.12V24.3359ZM100.798 18.0059H103.669V16.7617H105.173V18.0059H108.044V19.2363H100.798V18.0059ZM101.495 21.9297C101.495 21.5013 101.618 21.1208 101.864 20.7881C102.115 20.4508 102.461 20.1888 102.903 20.002C103.35 19.8105 103.856 19.7148 104.421 19.7148C104.986 19.7148 105.492 19.8105 105.938 20.002C106.385 20.1888 106.734 20.4508 106.984 20.7881C107.235 21.1208 107.36 21.5013 107.36 21.9297C107.36 22.3672 107.235 22.7546 106.984 23.0918C106.734 23.4245 106.385 23.6842 105.938 23.8711C105.496 24.0534 104.991 24.1445 104.421 24.1445C103.856 24.1445 103.35 24.0534 102.903 23.8711C102.461 23.6842 102.115 23.4245 101.864 23.0918C101.618 22.7546 101.495 22.3672 101.495 21.9297ZM102.903 24.8965H111.12V29.0664H102.903V24.8965ZM102.944 21.9297C102.944 22.2669 103.076 22.5312 103.341 22.7227C103.61 22.9141 103.97 23.0098 104.421 23.0098C104.868 23.0098 105.225 22.9141 105.494 22.7227C105.763 22.5312 105.897 22.2669 105.897 21.9297C105.897 21.6016 105.763 21.3418 105.494 21.1504C105.225 20.959 104.868 20.8633 104.421 20.8633C103.974 20.8633 103.617 20.959 103.348 21.1504C103.079 21.3418 102.944 21.6016 102.944 21.9297ZM109.63 27.8359V26.0996H104.421V27.8359H109.63ZM118.489 17.0488C119.428 17.0488 120.23 17.1309 120.896 17.2949C121.561 17.459 122.069 17.7005 122.42 18.0195C122.771 18.334 122.946 18.7168 122.946 19.168C122.946 19.6237 122.771 20.0111 122.42 20.3301C122.069 20.6491 121.561 20.8906 120.896 21.0547C120.23 21.2142 119.428 21.2962 118.489 21.3008C117.55 21.2962 116.748 21.2142 116.083 21.0547C115.418 20.8906 114.91 20.6491 114.559 20.3301C114.208 20.0111 114.032 19.6237 114.032 19.168C114.032 18.7168 114.208 18.334 114.559 18.0195C114.91 17.7005 115.418 17.4613 116.083 17.3018C116.748 17.1377 117.55 17.0534 118.489 17.0488ZM112.87 21.957H124.136V23.1738H112.87V21.957ZM114.196 24.0078H122.728V27.0293H115.7V27.9453H123.069V29.1074H114.21V25.9492H121.237V25.1289H114.196V24.0078ZM115.632 19.168C115.627 19.5052 115.864 19.7559 116.343 19.9199C116.821 20.084 117.537 20.166 118.489 20.166C119.451 20.166 120.171 20.084 120.649 19.9199C121.132 19.7559 121.374 19.5052 121.374 19.168C121.374 18.849 121.128 18.6029 120.636 18.4297C120.148 18.2565 119.433 18.1699 118.489 18.1699C117.555 18.1699 116.844 18.2565 116.356 18.4297C115.869 18.6029 115.627 18.849 115.632 19.168ZM38.4404 40.2637H36.7998V45.8418C37.3831 45.819 37.93 45.7507 38.4404 45.6367L38.6045 46.8945C38.2262 46.9766 37.8548 47.0312 37.4902 47.0586C37.1302 47.0859 36.7087 47.0996 36.2256 47.0996H35.8838H35.2959V39.0332H38.4404V40.2637ZM39.0693 39.0332H42.4463V40.2637H40.5869V45.8486C41.0472 45.8395 41.4528 45.819 41.8037 45.7871C42.1546 45.7507 42.5101 45.6914 42.8701 45.6094L42.9932 46.8398C42.5648 46.9447 42.141 47.0153 41.7217 47.0518C41.3024 47.0837 40.7669 47.0996 40.1152 47.0996H39.7393H39.0693V39.0332ZM41.8994 42.2461H43.9639V37.8574H45.4814V50.2168H43.9639V43.4766H41.8994V42.2461ZM52.7002 37.9805C53.639 37.9805 54.4411 38.0648 55.1064 38.2334C55.7718 38.3975 56.2799 38.6367 56.6309 38.9512C56.9818 39.2656 57.1572 39.6484 57.1572 40.0996C57.1527 40.724 56.8291 41.2161 56.1865 41.5762C55.5439 41.9362 54.6279 42.1481 53.4385 42.2119V42.998H58.3467V44.2148H47.0811V42.998H51.9346V42.2119C50.7542 42.1481 49.8428 41.9362 49.2002 41.5762C48.5622 41.2116 48.2432 40.7194 48.2432 40.0996C48.2432 39.6484 48.4186 39.2656 48.7695 38.9512C49.1204 38.6367 49.6286 38.3975 50.2939 38.2334C50.9639 38.0648 51.766 37.9805 52.7002 37.9805ZM48.4072 45.0078H56.9385V48.0293H49.9111V48.9453H57.2803V50.1074H48.4209V46.9492H55.4482V46.1562H48.4072V45.0078ZM49.8428 40.0996C49.8382 40.4368 50.0752 40.6875 50.5537 40.8516C51.0322 41.0156 51.7477 41.1022 52.7002 41.1113C53.6663 41.1022 54.3887 41.0156 54.8672 40.8516C55.3457 40.6875 55.585 40.4368 55.585 40.0996C55.585 39.7806 55.3411 39.5391 54.8535 39.375C54.3704 39.2064 53.6527 39.1198 52.7002 39.1152C51.7614 39.1198 51.0482 39.2064 50.5605 39.375C50.0775 39.5391 49.8382 39.7806 49.8428 40.0996ZM69.5303 50.2305H68.0127V45.1582H65.7568V43.9141H68.0127V41.7949H65.7979V40.5508H68.0127V37.8574H69.5303V50.2305ZM59.5908 38.9238H65.1006V43.5449H61.1357V46.1699C62.0016 46.1654 62.8037 46.1403 63.542 46.0947C64.2848 46.0446 65.055 45.9603 65.8525 45.8418L65.9756 47.0859C65.1006 47.2227 64.2575 47.3138 63.4463 47.3594C62.6396 47.4049 61.6872 47.4277 60.5889 47.4277H59.6318V42.3555H63.6104V40.1406H59.5908V38.9238ZM74.2471 39.0195H79.5791V38.0488H81.083V42.1641H77.6377V43.1074H82.5459V44.3105H71.2803V43.1074H76.1338V42.1641H72.7432V38.0488H74.2471V39.0195ZM72.6064 45.0898H81.1377V48.084H74.1104V48.9453H81.4795V50.1074H72.6201V47.0176H79.6475V46.2109H72.6064V45.0898ZM79.5791 41.0293V40.127H74.2471V41.0293H79.5791ZM93.2373 42.793H94.9463V44.0508H93.2373V50.2168H91.7061V37.8574H93.2373V42.793ZM83.2021 46.6758C83.7673 46.0742 84.2207 45.4499 84.5625 44.8027C84.9043 44.1556 85.1572 43.4766 85.3213 42.7656C85.4899 42.0547 85.5947 41.2663 85.6357 40.4004H83.6943V39.1562H87.085C87.0804 40.3411 87.0052 41.4076 86.8594 42.3555C86.7135 43.2988 86.4424 44.2057 86.0459 45.0762C85.654 45.9466 85.1025 46.7669 84.3916 47.5371L83.2021 46.6758ZM86.7021 47.4961C87.2673 46.8171 87.7161 46.1061 88.0488 45.3633C88.3861 44.6159 88.6299 43.8434 88.7803 43.0459C88.9307 42.2438 89.0241 41.362 89.0605 40.4004H87.4951V39.1562H90.5029C90.4984 40.4186 90.43 41.5625 90.2979 42.5879C90.1702 43.6133 89.9173 44.6159 89.5391 45.5957C89.1654 46.571 88.6253 47.4824 87.9189 48.3301L86.7021 47.4961ZM106.772 48.7129H95.4795V47.4688H98.0908V44.3447C97.5895 44.0576 97.1999 43.6953 96.9219 43.2578C96.6484 42.8203 96.514 42.3327 96.5186 41.7949C96.5186 41.1478 96.7122 40.5781 97.0996 40.0859C97.4915 39.5892 98.0361 39.2064 98.7334 38.9375C99.4307 38.6641 100.219 38.5273 101.099 38.5273C101.983 38.5273 102.773 38.6641 103.471 38.9375C104.173 39.2064 104.719 39.5892 105.111 40.0859C105.508 40.5781 105.706 41.1478 105.706 41.7949C105.711 42.3236 105.578 42.8021 105.31 43.2305C105.041 43.6589 104.662 44.0189 104.175 44.3105V47.4688H106.772V48.7129ZM98.0088 41.7949C98.0088 42.2096 98.1364 42.5742 98.3916 42.8887C98.6514 43.1986 99.0137 43.4378 99.4785 43.6064C99.9479 43.7751 100.488 43.8594 101.099 43.8594C101.709 43.8594 102.249 43.7751 102.719 43.6064C103.193 43.4378 103.56 43.1986 103.819 42.8887C104.084 42.5742 104.216 42.2096 104.216 41.7949C104.216 41.3757 104.084 41.0088 103.819 40.6943C103.56 40.3799 103.193 40.1406 102.719 39.9766C102.249 39.8125 101.709 39.7305 101.099 39.7305C100.483 39.7305 99.9411 39.8125 99.4717 39.9766C99.0068 40.1406 98.6468 40.3799 98.3916 40.6943C98.1364 41.0042 98.0088 41.3711 98.0088 41.7949ZM102.63 47.4688V44.8916C102.147 44.9964 101.636 45.0488 101.099 45.0488C100.584 45.0488 100.082 44.9987 99.5947 44.8984V47.4688H102.63ZM109.671 45.9648C109.675 45.4043 109.73 44.9508 109.835 44.6045C109.94 44.2581 110.086 43.9801 110.272 43.7705C110.464 43.5609 110.719 43.3581 111.038 43.1621C111.362 42.9525 111.615 42.7269 111.797 42.4854C111.979 42.2438 112.068 41.9635 112.063 41.6445C112.063 41.3939 112.004 41.1751 111.886 40.9883C111.772 40.7969 111.612 40.6488 111.407 40.5439C111.202 40.4391 110.974 40.3867 110.724 40.3867C110.491 40.3867 110.272 40.4368 110.067 40.5371C109.862 40.6374 109.694 40.79 109.562 40.9951C109.429 41.2002 109.356 41.4486 109.343 41.7402H107.634C107.647 41.1478 107.793 40.6442 108.071 40.2295C108.349 39.8102 108.718 39.4958 109.179 39.2861C109.644 39.0719 110.163 38.9648 110.737 38.9648C111.348 38.9648 111.888 39.0742 112.357 39.293C112.831 39.5072 113.198 39.8148 113.458 40.2158C113.722 40.6169 113.854 41.084 113.854 41.6172C113.85 42.1504 113.722 42.6084 113.472 42.9912C113.226 43.374 112.87 43.7044 112.405 43.9824C112.132 44.151 111.913 44.3219 111.749 44.4951C111.59 44.6683 111.471 44.8711 111.394 45.1035C111.316 45.3359 111.275 45.623 111.271 45.9648V46.0879H109.671V45.9648ZM109.452 48.043C109.452 47.8561 109.5 47.6829 109.596 47.5234C109.691 47.3594 109.821 47.2295 109.985 47.1338C110.149 47.0381 110.327 46.9902 110.519 46.9902C110.705 46.9902 110.879 47.0381 111.038 47.1338C111.202 47.2295 111.332 47.3594 111.428 47.5234C111.523 47.6829 111.571 47.8561 111.571 48.043C111.571 48.2344 111.523 48.4121 111.428 48.5762C111.332 48.7402 111.202 48.8701 111.038 48.9658C110.879 49.0615 110.705 49.1094 110.519 49.1094C110.327 49.1094 110.149 49.0615 109.985 48.9658C109.821 48.8701 109.691 48.7402 109.596 48.5762C109.5 48.4121 109.452 48.2344 109.452 48.043Z" fill="#576DFC"/>
<path d="M73.7474 73.1399C74.1458 73.5952 74.8542 73.5952 75.2526 73.1399L81.5 66H67.5L73.7474 73.1399Z" fill="#E4E8FF"/>
</svg>
