<svg width="168" height="74" viewBox="0 0 168 74" fill="none" xmlns="http://www.w3.org/2000/svg">
<path d="M0 20C0 8.95431 8.95431 0 20 0H148C159.046 0 168 8.95431 168 20V46C168 57.0457 159.046 66 148 66H20C8.95431 66 0 57.0457 0 46V20Z" fill="#E4E8FF"/>
<path d="M38.7256 28H36.9346V19.8379H36.8799L34.5693 21.3145V19.6875L37.0166 18.1016H38.7256V28ZM44.7822 28.1367C43.9893 28.1367 43.3079 27.9385 42.7383 27.542C42.1686 27.141 41.7334 26.5599 41.4326 25.7988C41.1318 25.0378 40.9814 24.1217 40.9814 23.0508C40.9814 21.9844 41.1318 21.0706 41.4326 20.3096C41.738 19.5439 42.1755 18.9629 42.7451 18.5664C43.3148 18.1654 43.9938 17.9648 44.7822 17.9648C45.5706 17.9648 46.2497 18.1654 46.8193 18.5664C47.389 18.9629 47.8242 19.5439 48.125 20.3096C48.4303 21.0706 48.583 21.9844 48.583 23.0508C48.583 24.1217 48.4303 25.04 48.125 25.8057C47.8242 26.5667 47.389 27.1455 46.8193 27.542C46.2542 27.9385 45.5752 28.1367 44.7822 28.1367ZM42.7725 23.0508C42.7725 24.222 42.9479 25.113 43.2988 25.7236C43.6543 26.3343 44.1488 26.6419 44.7822 26.6465C45.1969 26.6419 45.5547 26.5052 45.8555 26.2363C46.1562 25.9674 46.3864 25.5641 46.5459 25.0264C46.71 24.4886 46.792 23.8301 46.792 23.0508C46.792 22.276 46.71 21.6198 46.5459 21.082C46.3864 20.5397 46.1562 20.1318 45.8555 19.8584C45.5547 19.585 45.1969 19.446 44.7822 19.4414C44.3675 19.446 44.0098 19.585 43.709 19.8584C43.4082 20.1318 43.1758 20.5397 43.0117 21.082C42.8522 21.6198 42.7725 22.276 42.7725 23.0508ZM53.7236 28.1367C52.9307 28.1367 52.2493 27.9385 51.6797 27.542C51.11 27.141 50.6748 26.5599 50.374 25.7988C50.0732 25.0378 49.9229 24.1217 49.9229 23.0508C49.9229 21.9844 50.0732 21.0706 50.374 20.3096C50.6794 19.5439 51.1169 18.9629 51.6865 18.5664C52.2562 18.1654 52.9352 17.9648 53.7236 17.9648C54.512 17.9648 55.1911 18.1654 55.7607 18.5664C56.3304 18.9629 56.7656 19.5439 57.0664 20.3096C57.3717 21.0706 57.5244 21.9844 57.5244 23.0508C57.5244 24.1217 57.3717 25.04 57.0664 25.8057C56.7656 26.5667 56.3304 27.1455 55.7607 27.542C55.1956 27.9385 54.5166 28.1367 53.7236 28.1367ZM51.7139 23.0508C51.7139 24.222 51.8893 25.113 52.2402 25.7236C52.5957 26.3343 53.0902 26.6419 53.7236 26.6465C54.1383 26.6419 54.4961 26.5052 54.7969 26.2363C55.0977 25.9674 55.3278 25.5641 55.4873 25.0264C55.6514 24.4886 55.7334 23.8301 55.7334 23.0508C55.7334 22.276 55.6514 21.6198 55.4873 21.082C55.3278 20.5397 55.0977 20.1318 54.7969 19.8584C54.4961 19.585 54.1383 19.446 53.7236 19.4414C53.3089 19.446 52.9512 19.585 52.6504 19.8584C52.3496 20.1318 52.1172 20.5397 51.9531 21.082C51.7936 21.6198 51.7139 22.276 51.7139 23.0508ZM69.8838 24.2539H65.1123V26.5234H63.6084V24.2539H58.5908V23.0371H69.8838V24.2539ZM59.958 25.3887H61.4756V27.7402H68.6396V28.9707H59.958V25.3887ZM60.0264 17.418H68.4346V21.8887H60.0264V17.418ZM66.9307 20.6992V18.6074H61.5029V20.6992H66.9307ZM81.3408 29.2168H79.8916V16.8574H81.3408V29.2168ZM70.4854 25.7031C71.0596 25.3522 71.5381 24.8896 71.9209 24.3154C72.3083 23.7367 72.5931 23.0986 72.7754 22.4014C72.9622 21.6995 73.0557 20.9772 73.0557 20.2344V19.4141H70.9092V18.1836H76.5146V19.4141H74.5186V20.2344C74.5186 20.9544 74.6074 21.6471 74.7852 22.3125C74.9629 22.9779 75.2386 23.5817 75.6123 24.124C75.9906 24.6663 76.4645 25.1016 77.0342 25.4297L76.1318 26.5508C75.5758 26.2227 75.1042 25.7806 74.7168 25.2246C74.3294 24.6641 74.0241 24.0192 73.8008 23.29C73.5729 24.083 73.2585 24.7848 72.8574 25.3955C72.4609 26.0062 71.9801 26.487 71.415 26.8379L70.4854 25.7031ZM75.6123 21.1641H77.3896V17.0898H78.8252V28.6152H77.3896V22.3945H75.6123V21.1641ZM96.0381 18.3887V18.792C96.0381 19.3161 96.0199 19.8083 95.9834 20.2686C95.9515 20.7243 95.8831 21.2096 95.7783 21.7246H97.3643V22.9414H86.1533V21.7246H94.2676C94.3405 21.3372 94.3997 20.9294 94.4453 20.501L87.3838 20.7949L87.2061 19.6191L94.5068 19.4414C94.516 19.2409 94.5205 18.9492 94.5205 18.5664H87.5205V17.3633H96.0381V18.3887ZM87.3975 23.8301H96.1064V26.9473H88.9287V27.877H96.5439V29.0664H87.4248V25.8398H94.5889V24.9922H87.3975V23.8301ZM108.521 29.2305H107.017V16.8574H108.521V29.2305ZM98.8955 17.9375H104.72V22.5723H100.468V25.0605C101.498 25.0514 102.45 25.015 103.325 24.9512C104.2 24.8874 105.098 24.778 106.019 24.623L106.155 25.8672C105.198 26.0312 104.255 26.1452 103.325 26.209C102.4 26.2728 101.37 26.3047 100.235 26.3047H99.9893H98.9092V21.3691H103.175V19.168H98.8955V17.9375ZM113.702 17.7598C114.254 17.7598 114.753 17.9079 115.199 18.2041C115.646 18.5003 116.01 18.9242 116.293 19.4756C116.576 20.0225 116.753 20.6673 116.826 21.4102H119.185V16.8574H120.688V29.2305H119.185V22.6406H116.84C116.785 23.4245 116.619 24.1081 116.341 24.6914C116.063 25.2702 115.696 25.7168 115.24 26.0312C114.785 26.3411 114.272 26.4961 113.702 26.4961C113.082 26.4961 112.531 26.3184 112.048 25.9629C111.569 25.6029 111.196 25.0924 110.927 24.4316C110.662 23.7708 110.53 23.0007 110.53 22.1211C110.53 21.2461 110.662 20.4805 110.927 19.8242C111.196 19.1634 111.572 18.6553 112.055 18.2998C112.538 17.9398 113.087 17.7598 113.702 17.7598ZM111.993 22.1211C111.993 22.7454 112.064 23.2832 112.205 23.7344C112.346 24.1855 112.545 24.5296 112.8 24.7666C113.06 25.0036 113.36 25.1243 113.702 25.1289C114.044 25.1243 114.345 25.0036 114.604 24.7666C114.864 24.5296 115.065 24.1855 115.206 23.7344C115.352 23.2832 115.425 22.7454 115.425 22.1211C115.425 21.5013 115.352 20.9658 115.206 20.5146C115.065 20.0635 114.864 19.7194 114.604 19.4824C114.345 19.2454 114.044 19.127 113.702 19.127C113.36 19.127 113.06 19.2477 112.8 19.4893C112.545 19.7262 112.346 20.0703 112.205 20.5215C112.064 20.9681 111.993 21.5013 111.993 22.1211ZM133.704 23.6113H122.411V22.4629H133.704V23.6113ZM123.724 24.3496H132.337V27.166H125.255V28.0273H132.706V29.0801H123.737V26.1816H130.833V25.416H123.724V24.3496ZM123.806 17.1309H132.31V19.9199H125.351V20.7266H132.528V21.7656H123.847V18.9355H130.792V18.1836H123.806V17.1309ZM28.5195 38.4043C29.1393 38.4043 29.6953 38.5137 30.1875 38.7324C30.6797 38.9466 31.0648 39.252 31.3428 39.6484C31.6208 40.0404 31.7598 40.4915 31.7598 41.002C31.7598 41.5033 31.6208 41.9499 31.3428 42.3418C31.0648 42.7337 30.6797 43.0391 30.1875 43.2578C29.6953 43.4766 29.1393 43.5859 28.5195 43.5859C27.9043 43.5859 27.3529 43.4766 26.8652 43.2578C26.3776 43.0391 25.9948 42.7337 25.7168 42.3418C25.4434 41.9499 25.3066 41.5033 25.3066 41.002C25.3066 40.4915 25.4434 40.0404 25.7168 39.6484C25.9948 39.252 26.3776 38.9466 26.8652 38.7324C27.3529 38.5137 27.9043 38.4043 28.5195 38.4043ZM24.5 44.4336C25.9766 44.4336 27.3848 44.4062 28.7246 44.3516C30.0645 44.2923 31.3268 44.1738 32.5117 43.9961L32.6211 45.1172C31.6458 45.304 30.5612 45.443 29.3672 45.5342V49.834H27.8359V45.623C26.9655 45.6595 25.9173 45.6823 24.6914 45.6914L24.5 44.4336ZM26.7832 41.002C26.7832 41.2708 26.8561 41.5078 27.002 41.7129C27.1478 41.9134 27.3506 42.0684 27.6104 42.1777C27.8701 42.2871 28.1663 42.3418 28.499 42.3418C28.8499 42.3418 29.1621 42.2894 29.4355 42.1846C29.7135 42.0752 29.9277 41.9202 30.0781 41.7197C30.2331 41.5146 30.3105 41.2754 30.3105 41.002C30.3105 40.724 30.2354 40.4801 30.085 40.2705C29.9346 40.0609 29.7227 39.9014 29.4492 39.792C29.1803 39.6826 28.8704 39.6302 28.5195 39.6348C28.1823 39.6302 27.8815 39.6826 27.6172 39.792C27.3529 39.9014 27.1478 40.0609 27.002 40.2705C26.8561 40.4801 26.7832 40.724 26.7832 41.002ZM33.3184 37.8711H34.8223V50.2031H33.3184V37.8711ZM42.6152 41.043H36.5586V39.8262H38.8555V38.2129H40.3594V39.8262H42.6152V41.043ZM36.9141 44.5703C36.9095 44.0189 37.0212 43.5244 37.249 43.0869C37.4814 42.6494 37.8027 42.3099 38.2129 42.0684C38.6276 41.8223 39.0924 41.6992 39.6074 41.6992C40.127 41.6992 40.5895 41.8223 40.9951 42.0684C41.4053 42.3099 41.7243 42.6494 41.9521 43.0869C42.1846 43.5244 42.3008 44.0189 42.3008 44.5703C42.3008 45.1354 42.1846 45.639 41.9521 46.0811C41.7243 46.5231 41.4053 46.8672 40.9951 47.1133C40.5895 47.3594 40.127 47.4824 39.6074 47.4824C39.0924 47.4824 38.6276 47.3594 38.2129 47.1133C37.8027 46.8672 37.4814 46.5231 37.249 46.0811C37.0212 45.639 36.9095 45.1354 36.9141 44.5703ZM38.2539 44.5703C38.2539 44.8984 38.3086 45.1855 38.418 45.4316C38.5319 45.6732 38.6914 45.86 38.8965 45.9922C39.1061 46.1198 39.3431 46.1836 39.6074 46.1836C39.8717 46.1836 40.1064 46.1198 40.3115 45.9922C40.5166 45.86 40.6761 45.6732 40.79 45.4316C40.904 45.1855 40.9609 44.8984 40.9609 44.5703C40.9609 44.2513 40.904 43.971 40.79 43.7295C40.6761 43.4834 40.5166 43.2943 40.3115 43.1621C40.1064 43.0254 39.8717 42.957 39.6074 42.957C39.3431 42.957 39.1084 43.0254 38.9033 43.1621C38.6982 43.2943 38.5387 43.4834 38.4248 43.7295C38.3109 43.971 38.2539 44.2513 38.2539 44.5703ZM43.1348 38.1172H44.5566V42.9434H45.7598V37.8574H47.209V50.2168H45.7598V44.1738H44.5566V49.6562H43.1348V38.1172ZM61.6875 42.5469H63.5879V43.791H61.6875V50.2305H60.1699V37.8574H61.6875V42.5469ZM52.5137 39.0332H58.2969V40.2637H54.0312V45.9375C55.0339 45.9329 55.9362 45.901 56.7383 45.8418C57.5404 45.7826 58.3516 45.6823 59.1719 45.541L59.3496 46.8262C58.4518 46.9811 57.5677 47.0837 56.6973 47.1338C55.8268 47.1839 54.7741 47.209 53.5391 47.209H52.5137V39.0332ZM69.7266 38.1035C70.6335 38.1035 71.4219 38.1992 72.0918 38.3906C72.7617 38.582 73.2767 38.86 73.6367 39.2246C74.0013 39.5846 74.1836 40.013 74.1836 40.5098C74.1836 40.9974 74.0013 41.4189 73.6367 41.7744C73.2767 42.1253 72.7617 42.3942 72.0918 42.5811C71.4219 42.7679 70.6335 42.8613 69.7266 42.8613C68.8288 42.8613 68.0426 42.7679 67.3682 42.5811C66.6982 42.3942 66.181 42.1253 65.8164 41.7744C65.4518 41.4189 65.2695 40.9974 65.2695 40.5098C65.2695 40.013 65.4518 39.5846 65.8164 39.2246C66.181 38.86 66.6982 38.582 67.3682 38.3906C68.0426 38.1992 68.8288 38.1035 69.7266 38.1035ZM64.1074 43.6953H75.373V44.9258H64.1074V43.6953ZM65.4336 45.9102H74.0059V50.0664H65.4336V45.9102ZM66.8555 40.5098C66.8509 40.8789 67.1016 41.166 67.6074 41.3711C68.1133 41.5762 68.8197 41.681 69.7266 41.6855C70.6335 41.681 71.3398 41.5762 71.8457 41.3711C72.3561 41.166 72.6113 40.8789 72.6113 40.5098C72.6113 40.1178 72.3584 39.8171 71.8525 39.6074C71.3467 39.3978 70.638 39.293 69.7266 39.293C68.8151 39.293 68.1064 39.3978 67.6006 39.6074C67.0993 39.8171 66.8509 40.1178 66.8555 40.5098ZM72.5293 48.8359V47.1133H66.9375V48.8359H72.5293ZM89.2773 41.3301H91.0137V42.5879H89.2773V46.7988H87.7598V37.8574H89.2773V41.3301ZM80.0488 38.8828H85.5859V40.0996H81.5527V43.4629C82.7559 43.4629 83.7243 43.4378 84.458 43.3877C85.1963 43.333 85.9232 43.2305 86.6387 43.0801L86.8027 44.3105C86.0143 44.4655 85.2077 44.5703 84.3828 44.625C83.5579 44.6797 82.446 44.707 81.0469 44.707H80.0488V38.8828ZM81.3613 45.8555H82.8789V48.7402H89.7695V49.9707H81.3613V45.8555ZM102.293 50.2168H100.844V37.8574H102.293V50.2168ZM91.5059 46.5254C92.7591 45.7826 93.7025 44.9258 94.3359 43.9551C94.974 42.9844 95.3522 41.8633 95.4707 40.5918H92.1621V39.3613H96.9746C96.9746 39.9993 96.9313 40.6055 96.8447 41.1797H98.2871V38.1582H99.7363V49.6289H98.2871V45.5H96.3594V44.2559H98.2871V42.4238H96.585C96.2796 43.4857 95.7852 44.4495 95.1016 45.3154C94.4225 46.1768 93.5202 46.9401 92.3945 47.6055L91.5059 46.5254ZM115.021 48.7812H103.729V47.5234H108.596V45.5137H105.068V41.4668H112.178V39.9355H105.041V38.7051H113.682V42.6699H106.586V44.2695H113.969V45.5137H110.1V47.5234H115.021V48.7812ZM125.562 38.5C125.562 38.9466 125.74 39.3841 126.096 39.8125C126.456 40.2409 126.959 40.61 127.606 40.9199C128.254 41.2253 128.994 41.4258 129.828 41.5215L129.268 42.6836C128.251 42.556 127.349 42.2803 126.561 41.8564C125.777 41.4281 125.184 40.8994 124.783 40.2705C124.382 40.8994 123.787 41.4258 122.999 41.8496C122.215 42.2734 121.311 42.5514 120.285 42.6836L119.738 41.5215C120.572 41.4258 121.313 41.2253 121.96 40.9199C122.607 40.6146 123.108 40.25 123.464 39.8262C123.819 39.3978 123.999 38.9557 124.004 38.5V38.0352H125.562V38.5ZM119.15 43.3945H130.416V44.6113H127.736V46.2656C128.16 46.457 128.484 46.6986 128.707 46.9902C128.93 47.2819 129.044 47.6191 129.049 48.002C129.049 48.4714 128.876 48.8724 128.529 49.2051C128.188 49.5378 127.695 49.7884 127.053 49.957C126.415 50.1302 125.654 50.2168 124.77 50.2168C123.872 50.2168 123.099 50.1302 122.452 49.957C121.81 49.7884 121.317 49.5378 120.976 49.2051C120.634 48.8724 120.463 48.4714 120.463 48.002C120.463 47.6146 120.575 47.2751 120.798 46.9834C121.026 46.6917 121.356 46.4502 121.789 46.2588V44.6113H119.15V43.3945ZM122.008 48.002C122.003 48.3483 122.233 48.6126 122.698 48.7949C123.163 48.9772 123.838 49.0684 124.722 49.0684C125.629 49.0684 126.321 48.9795 126.8 48.8018C127.283 48.6195 127.527 48.3529 127.531 48.002C127.527 47.651 127.287 47.3844 126.813 47.2021C126.34 47.0199 125.658 46.9264 124.77 46.9219C123.867 46.9264 123.179 47.0199 122.705 47.2021C122.236 47.3844 122.003 47.651 122.008 48.002ZM123.334 45.8623C123.753 45.8031 124.232 45.7734 124.77 45.7734C125.294 45.7734 125.786 45.8053 126.246 45.8691V44.6113H123.334V45.8623ZM131.838 46.2383C131.824 45.6686 131.902 45.1878 132.07 44.7959C132.243 44.3994 132.483 44.1032 132.788 43.9072C133.098 43.7113 133.456 43.6133 133.861 43.6133C134.176 43.6133 134.47 43.6771 134.743 43.8047C135.017 43.9323 135.333 44.151 135.693 44.4609C135.921 44.6615 136.097 44.8005 136.22 44.8779C136.347 44.9508 136.491 44.9896 136.65 44.9941C136.906 44.9896 137.106 44.8916 137.252 44.7002C137.402 44.5042 137.475 44.2194 137.471 43.8457H138.865C138.879 44.4108 138.799 44.8916 138.626 45.2881C138.457 45.68 138.218 45.9762 137.908 46.1768C137.598 46.3727 137.243 46.4707 136.842 46.4707C136.523 46.4707 136.224 46.4046 135.946 46.2725C135.673 46.1403 135.361 45.9193 135.01 45.6094C134.759 45.3997 134.575 45.2607 134.456 45.1924C134.342 45.124 134.208 45.0898 134.053 45.0898C133.798 45.0898 133.595 45.1833 133.444 45.3701C133.299 45.557 133.228 45.8464 133.232 46.2383H131.838ZM142.666 46.0879H141.121L140.957 39.1016H142.816L142.666 46.0879ZM140.834 48.043C140.834 47.8561 140.882 47.6829 140.978 47.5234C141.073 47.3594 141.203 47.2295 141.367 47.1338C141.531 47.0381 141.709 46.9902 141.9 46.9902C142.087 46.9902 142.26 47.0381 142.42 47.1338C142.584 47.2295 142.714 47.3594 142.81 47.5234C142.905 47.6829 142.953 47.8561 142.953 48.043C142.953 48.2344 142.905 48.4121 142.81 48.5762C142.714 48.7402 142.584 48.8701 142.42 48.9658C142.26 49.0615 142.087 49.1094 141.9 49.1094C141.709 49.1094 141.531 49.0615 141.367 48.9658C141.203 48.8701 141.073 48.7402 140.978 48.5762C140.882 48.4121 140.834 48.2344 140.834 48.043Z" fill="#576DFC"/>
<path d="M83.2474 73.1399C83.6458 73.5952 84.3542 73.5952 84.7526 73.1399L91 66H77L83.2474 73.1399Z" fill="#E4E8FF"/>
</svg>
