<svg width="65" height="77" viewBox="0 0 65 77" fill="none" xmlns="http://www.w3.org/2000/svg">
<path fill-rule="evenodd" clip-rule="evenodd" d="M56.2669 0.935812C55.8194 0.615216 55.1979 0.71988 54.8788 1.16959C54.5597 1.61929 54.6639 2.24375 55.1115 2.56434L61.39 7.06158C48.3459 7.31867 33.3536 12.4117 21.5034 23.2882C9.31498 34.4751 0.499913 51.7353 0.5 76.0006L0.500005 77.0006L2.49055 77.0006L2.49055 76.0006C2.49046 52.2655 11.093 35.552 22.8459 24.7648C34.2508 14.2971 48.6686 9.3675 61.2061 9.06607L56.0367 14.7686C55.6665 15.1769 55.6959 15.8093 56.1023 16.1812C56.5087 16.5531 57.1381 16.5236 57.5083 16.1153L64.6072 8.28427C64.7989 8.07285 64.8913 7.78911 64.8611 7.50475C64.8308 7.22039 64.6809 6.96264 64.4492 6.79664L56.2669 0.935812Z" fill="white"/>
</svg>
