<svg width="384" height="369" viewBox="0 0 384 369" fill="none" xmlns="http://www.w3.org/2000/svg">
<rect x="0.5" y="0.5" width="383" height="368" rx="29.5" fill="white"/>
<rect x="0.5" y="0.5" width="383" height="368" rx="29.5" stroke="#E6E6EF"/>
<g clip-path="url(#clip0_5204_8537)">
<path d="M69.905 46.571C67.3397 47.9876 64.7743 49.9876 63.0641 52.2376L64.1758 52.4043C67.8527 53.321 70.5036 56.321 70.5036 59.9876C70.5036 64.4043 66.9121 67.9043 62.38 67.9043C56.5653 67.9043 54 63.571 54 58.321C54 51.1543 59.6437 45.1543 65.886 41.9876L69.905 46.571ZM89.4014 46.571C86.8361 47.9876 84.2708 49.9876 82.5606 52.2376L83.6722 52.4043C87.3492 53.321 90 56.321 90 59.9876C90 64.4043 86.4086 67.9043 81.8765 67.9043C76.0618 67.9043 73.4964 63.571 73.4964 58.321C73.4964 51.1543 79.1401 45.1543 85.3824 41.9043L89.4014 46.4876V46.571Z" fill="#E6E6EF"/>
</g>
<path d="M66.2812 92.8672C66.2578 99.4297 64.4531 105.02 56.3906 108.969L54.8203 106.672C58.3359 104.926 60.5391 102.934 61.8281 100.543L55.3594 101.117L54.9844 98.5859L62.7891 98.1172C63.0469 97.2266 63.1992 96.2656 63.293 95.2578H56.0859V92.8672H66.2812ZM69.5391 112.156V90.8281H72.5625V112.156H69.5391ZM93.5859 90.8516V112.156H90.5391V107.445H86.2031V105.195H90.5391V90.8516H93.5859ZM75.2812 101.656C79.2773 101.656 84.5742 101.633 89.1797 101.023L89.3438 103.203C87.4688 103.531 85.5469 103.742 83.6484 103.871V111.523H80.625V104.023C78.8555 104.082 77.168 104.094 75.6562 104.094L75.2812 101.656ZM76.7812 96.0781C76.7695 93.5117 79.0664 91.707 82.2656 91.6953C85.418 91.707 87.7383 93.5117 87.75 96.0781C87.7383 98.7031 85.418 100.438 82.2656 100.438C79.0664 100.438 76.7695 98.7031 76.7812 96.0781ZM79.5938 96.0781C79.582 97.4141 80.6719 98.1641 82.2656 98.1641C83.8008 98.1641 84.8906 97.4141 84.9141 96.0781C84.8906 94.7773 83.8125 93.9688 82.2656 93.9688C80.6719 93.9688 79.582 94.7773 79.5938 96.0781ZM113.508 100.695V103.086H98.4141V92.6094H113.344V95.0234H101.367V100.695H113.508ZM96.1172 109.555V107.094H115.641V109.555H96.1172ZM139.781 100.016V102.43H133.641V107.328H141.914V109.719H122.391V107.328H130.617V102.43H124.57V92.4688H127.641V100.016H139.781ZM160.523 101.844V104.211H145.43V92.3984H160.359V94.8125H148.477V97.0625H159.867V99.4062H148.477V101.844H160.523ZM143.133 109.672V107.234H162.656V109.672H143.133ZM183.398 107.328V109.789H163.875V107.328H172.102V104.117H166.125V96.9453H178.195V94.6016H166.102V92.2109H181.148V99.2891H169.125V101.68H181.641V104.117H175.078V107.328H183.398ZM208.125 90.8281V103.484H205.148V98.4453H201.82V96.0312H205.148V90.8281H208.125ZM190.008 101.141C193.5 99.9688 195.094 97.1797 195.164 94.5078H190.875V92.1172H202.453V94.5078H198.211C198.27 96.9922 199.793 99.5 203.109 100.602L201.633 102.945C199.289 102.184 197.66 100.637 196.734 98.7266C195.797 100.895 194.086 102.641 191.555 103.508L190.008 101.141ZM193.5 108.078C193.5 105.488 196.289 103.965 200.836 103.953C205.395 103.965 208.184 105.488 208.195 108.078C208.184 110.668 205.395 112.18 200.836 112.18C196.289 112.18 193.5 110.668 193.5 108.078ZM196.477 108.078C196.477 109.297 198.012 109.906 200.836 109.906C203.672 109.906 205.207 109.297 205.219 108.078C205.207 106.848 203.672 106.238 200.836 106.25C198.012 106.238 196.477 106.848 196.477 108.078ZM228.773 90.8281V112.203H225.797V90.8281H228.773ZM212.016 95.0234V92.6094H222.164V100.836H215.133V104.75C218.391 104.727 221.145 104.562 224.273 104.047L224.531 106.461C221.027 107.082 217.852 107.211 213.961 107.211H212.039V98.4688H219.117V95.0234H212.016ZM249.961 90.8516V103.977H247.125V98.7266H245.461V103.742H242.672V91.1328H245.461V96.3125H247.125V90.8516H249.961ZM231.516 95.2344V92.8672H235.289V90.9453H238.266V92.8672H241.992V95.2344H231.516ZM232.172 99.6406C232.16 97.4023 234.117 95.9141 236.789 95.9141C239.496 95.9141 241.441 97.4023 241.453 99.6406C241.441 101.832 239.496 103.355 236.789 103.367C234.117 103.355 232.16 101.832 232.172 99.6406ZM232.828 109.672C235.594 108.875 236.836 106.953 236.836 105.078V104.633H239.812V105.078C239.789 106.637 240.492 108.242 242.168 109.309C243.867 108.184 244.617 106.508 244.641 105.078V104.633H247.617V105.078C247.594 107.059 248.789 108.957 251.625 109.672L250.242 111.898C248.18 111.266 246.82 110.023 246.07 108.453C245.391 110.023 244.16 111.406 242.227 112.109C240.246 111.418 238.992 110.117 238.301 108.559C237.539 110.059 236.191 111.266 234.234 111.898L232.828 109.672ZM234.844 99.6406C234.832 100.637 235.617 101.211 236.789 101.211C237.949 101.211 238.746 100.637 238.758 99.6406C238.746 98.5977 237.949 98.0469 236.789 98.0469C235.629 98.0469 234.832 98.5977 234.844 99.6406ZM263.391 92.3047V94.6953H256.641V101.117C259.746 101.094 261.926 100.977 264.375 100.508L264.656 102.898C261.82 103.402 259.277 103.52 255.375 103.531H253.664V92.3047H263.391ZM256.172 111.828V105.078H259.172V109.438H270.867V111.828H256.172ZM262.148 98.7734V96.4062H267.375V90.8516H270.352V106.367H267.375V98.7734H262.148ZM291.609 90.8281V112.156H288.797V90.8281H291.609ZM272.859 105.617C277.172 103.062 279.07 99.957 279.48 95.7734H274.031V93.3594H282.445C282.445 95.3984 282.223 97.2969 281.707 99.0547H284.273V91.2969H287.062V111.219H284.273V101.422H280.781C279.562 103.859 277.582 105.969 274.547 107.727L272.859 105.617ZM65.6484 126.562V128.18H69.6328V124.852H72.6094V140.367H69.6328V135.141H65.6484V136.945H55.5234V126.562H65.6484ZM58.4062 145.781V138.891H61.4297V143.391H73.0547V145.781H58.4062ZM58.5 134.625H62.7188V128.93H58.5V134.625ZM65.6484 132.773H69.6328V130.594H65.6484V132.773ZM93.3516 124.828V136.5H90.375V132.047H87V129.609H90.375V124.828H93.3516ZM75.2578 134.531C78.6211 133.406 80.2266 130.828 80.3789 128.227H76.1016V125.789H87.6797V128.227H83.4492C83.5781 130.605 85.1133 133.066 88.3359 134.133L86.8594 136.43C84.5039 135.656 82.875 134.121 81.9492 132.211C81 134.344 79.3008 136.055 76.7812 136.875L75.2578 134.531ZM79.125 145.922V137.32H82.0781V139.336H90.375V137.32H93.3516V145.922H79.125ZM82.0781 143.531H90.375V141.633H82.0781V143.531ZM114.609 124.828V146.156H111.75V124.828H114.609ZM96.3047 134.062C96.3047 129.293 98.1211 126.34 100.945 126.352C103.512 126.34 105.27 128.742 105.598 132.727H107.344V125.133H110.156V145.172H107.344V135.094H105.621C105.363 139.277 103.57 141.82 100.945 141.82C98.1211 141.82 96.3047 138.855 96.3047 134.062ZM99.0703 134.062C99.0469 137.344 99.75 138.961 100.945 138.938C102.176 138.961 102.902 137.344 102.891 134.062C102.902 130.793 102.176 129.164 100.945 129.164C99.75 129.164 99.0469 130.793 99.0703 134.062ZM124.922 129.656C124.934 133.664 126.551 137.566 130.102 139.102L128.273 141.492C125.906 140.344 124.312 138.211 123.422 135.574C122.508 138.375 120.867 140.672 118.43 141.867L116.555 139.43C120.211 137.777 121.875 133.664 121.898 129.656V126.469H124.922V129.656ZM127.711 133.945V131.531H131.906V124.828H134.859V146.203H131.906V133.945H127.711ZM160.336 125.789V127.781C160.348 129.879 160.348 132.047 159.785 135.023H162.586V137.414H143.133V135.023H156.75C156.949 134.051 157.078 133.16 157.172 132.328L145.266 132.797L144.938 130.359L157.324 130.102C157.348 129.434 157.359 128.801 157.359 128.18H145.523V125.789H160.336ZM145.406 145.781V138.984H148.383V143.391H160.664V145.781H145.406ZM186.797 134.367V136.734H180.609V141.281H188.93V143.719H169.406V141.281H177.633V136.734H171.703V126.328H186.633V128.719H174.703V134.367H186.797ZM199.875 125.109C204.621 125.121 207.621 126.668 207.633 129.258C207.621 131.801 204.621 133.324 199.875 133.312C195.152 133.324 192.094 131.801 192.094 129.258C192.094 126.668 195.152 125.121 199.875 125.109ZM190.148 136.805V134.414H209.602V136.805H201.352V138.656H207.281V145.922H192.398V138.656H198.375V136.805H190.148ZM195.211 129.258C195.188 130.43 196.887 131.039 199.875 131.039C202.816 131.039 204.539 130.43 204.539 129.258C204.539 128.027 202.816 127.395 199.875 127.406C196.887 127.395 195.188 128.027 195.211 129.258ZM195.352 143.531H204.352V141.023H195.352V143.531ZM228.75 124.828V146.203H225.727V124.828H228.75ZM211.523 133.922C211.512 129.27 213.891 126.328 217.172 126.328C220.383 126.328 222.773 129.27 222.773 133.922C222.773 138.609 220.383 141.539 217.172 141.539C213.891 141.539 211.512 138.609 211.523 133.922ZM214.406 133.922C214.395 137.098 215.508 138.832 217.172 138.82C218.789 138.832 219.879 137.098 219.891 133.922C219.879 130.758 218.789 129.023 217.172 129.023C215.508 129.023 214.395 130.758 214.406 133.922ZM249.867 133.5V135.891H245.719V139.395C247.477 139.324 249.234 139.207 250.898 139.031L251.133 141.211C246.469 141.926 241.617 141.961 237.609 141.961L237.258 139.523C238.957 139.535 240.809 139.535 242.719 139.488V135.891H238.664V126.727H249.75V129.094H241.641V133.5H249.867ZM252.117 146.203V124.828H255.094V146.203H252.117ZM265.945 138.445C265.934 140.191 266.648 141.984 268.395 143.191C270.152 141.902 270.867 140.027 270.891 138.445V137.578H273.82V138.445C273.832 140.672 274.992 142.781 277.898 143.672L276.375 145.875C274.348 145.172 273.035 143.848 272.297 142.195C271.594 143.836 270.34 145.289 268.406 146.062C266.449 145.336 265.195 143.941 264.492 142.277C263.73 143.871 262.418 145.16 260.484 145.875L259.031 143.672C261.844 142.734 263.027 140.566 263.039 138.445V137.578H265.945V138.445ZM258.164 131.016C258.164 128.074 260.602 125.906 263.859 125.93C266.555 125.906 268.746 127.477 269.332 129.773H272.906V124.828H275.883V136.781H272.906V132.211H269.344C268.781 134.566 266.578 136.16 263.859 136.148C260.602 136.16 258.164 134.016 258.164 131.016ZM261.047 131.016C261.023 132.645 262.219 133.676 263.859 133.664C265.453 133.676 266.637 132.645 266.648 131.016C266.637 129.387 265.453 128.402 263.859 128.414C262.219 128.402 261.023 129.387 261.047 131.016ZM284.531 126.328C287.414 126.328 289.57 128.695 289.992 132.539H293.695V124.828H296.648V146.203H293.695V134.93H290.027C289.711 139.031 287.508 141.539 284.531 141.539C281.297 141.539 278.977 138.609 279 133.922C278.977 129.27 281.297 126.328 284.531 126.328ZM281.859 133.922C281.848 137.098 282.938 138.832 284.531 138.82C286.137 138.832 287.203 137.098 287.203 133.922C287.203 130.758 286.137 129.023 284.531 129.023C282.938 129.023 281.848 130.758 281.859 133.922ZM318.914 141.211V143.672H299.391V141.211H303.75V135.984C302.098 134.988 301.102 133.477 301.102 131.602C301.102 128.145 304.477 125.871 309.117 125.859C313.734 125.871 317.145 128.145 317.156 131.602C317.145 133.441 316.184 134.93 314.578 135.926V141.211H318.914ZM304.055 131.602C304.055 133.688 306.059 134.977 309.117 134.977C312.129 134.977 314.191 133.688 314.203 131.602C314.191 129.457 312.129 128.215 309.117 128.227C306.059 128.215 304.055 129.457 304.055 131.602ZM306.703 141.211H311.555V137.062C310.793 137.215 309.973 137.297 309.117 137.297C308.262 137.297 307.453 137.215 306.703 137.074V141.211Z" fill="#2B2D35"/>
<path d="M65.5156 172.531H67.5469V173.766H65.5156V176.797H64.0312V169.328H65.5156V172.531ZM55.1406 170.219H61.3594V171.438H56.6094V175.156C58.0521 175.146 59.2057 175.109 60.0703 175.047C60.9349 174.984 61.7865 174.865 62.625 174.688L62.7969 175.891C61.8906 176.083 60.9688 176.211 60.0312 176.273C59.099 176.336 57.8385 176.37 56.25 176.375H55.1406V170.219ZM56.5469 177.531H58.0156V179.125H64.0312V177.531H65.5156V183.109H56.5469V177.531ZM64.0312 181.906V180.297H58.0156V181.906H64.0312ZM80.0156 179.688H78.5312V176.047H75.4688V177.359H69.0156V170.266H70.5V172.641H74V170.266H75.4688V171.828H78.5312V169.344H80.0156V179.688ZM74 176.156V173.781H70.5V176.156H74ZM70.875 178.672H72.375V181.828H80.3281V183.031H70.875V178.672ZM78.5312 174.844V173.047H75.4688V174.844H78.5312ZM88.5469 169.562C89.599 169.562 90.4974 169.654 91.2422 169.836C91.987 170.018 92.5573 170.292 92.9531 170.656C93.349 171.016 93.5469 171.453 93.5469 171.969C93.5469 172.49 93.349 172.932 92.9531 173.297C92.5573 173.656 91.987 173.93 91.2422 174.117C90.4974 174.299 89.599 174.391 88.5469 174.391C87.4948 174.391 86.5938 174.299 85.8438 174.117C85.099 173.93 84.5286 173.656 84.1328 173.297C83.7422 172.932 83.5469 172.49 83.5469 171.969C83.5469 171.453 83.7422 171.016 84.1328 170.656C84.5286 170.292 85.099 170.018 85.8438 169.836C86.5938 169.654 87.4948 169.562 88.5469 169.562ZM82.1719 175.25H94.9375V176.438H82.1719V175.25ZM83.7031 177.516H93.3281V180.797H85.1719V182.047H93.7188V183.188H83.7188V179.719H91.8594V178.625H83.7031V177.516ZM85.0938 171.969C85.0885 172.401 85.3828 172.729 85.9766 172.953C86.5703 173.172 87.4271 173.281 88.5469 173.281C89.6771 173.281 90.5391 173.172 91.1328 172.953C91.7266 172.729 92.0208 172.401 92.0156 171.969C92.0208 171.552 91.7214 171.229 91.1172 171C90.5182 170.771 89.6615 170.656 88.5469 170.656C87.4375 170.656 86.5833 170.771 85.9844 171C85.3854 171.229 85.0885 171.552 85.0938 171.969ZM104.297 171.359C104.302 171.646 104.383 171.953 104.539 172.281C104.695 172.604 104.922 172.917 105.219 173.219C105.521 173.516 105.875 173.763 106.281 173.961C106.688 173.763 107.036 173.518 107.328 173.227C107.625 172.93 107.852 172.62 108.008 172.297C108.164 171.969 108.24 171.656 108.234 171.359V171.141H106.562V169.953H111.812V171.141H109.734V171.359C109.734 171.719 109.833 172.076 110.031 172.43C110.229 172.784 110.521 173.104 110.906 173.391C111.297 173.677 111.766 173.896 112.312 174.047L111.641 175.125C110.995 174.938 110.445 174.654 109.992 174.273C109.539 173.893 109.195 173.451 108.961 172.945C108.727 173.471 108.383 173.94 107.93 174.352C107.482 174.763 106.932 175.073 106.281 175.281C105.63 175.068 105.076 174.753 104.617 174.336C104.164 173.914 103.818 173.438 103.578 172.906C103.333 173.411 102.984 173.859 102.531 174.25C102.078 174.641 101.531 174.932 100.891 175.125L100.266 174.047C100.792 173.885 101.25 173.656 101.641 173.359C102.031 173.057 102.328 172.729 102.531 172.375C102.734 172.016 102.833 171.677 102.828 171.359V171.141H100.734V169.953H106V171.141H104.297V171.359ZM99.8906 175.969H112.703V177.156H107.016V178.859H111.094V183.328H109.594V180.031H101.297V178.859H105.547V177.156H99.8906V175.969ZM129.547 183.328H128.047V175.578H125.781V174.281H128.047V169.328H129.547V183.328ZM117.375 179.125C118.167 178.526 118.724 177.721 119.047 176.711C119.37 175.695 119.536 174.615 119.547 173.469V170.531H120.938V173.469C120.932 174.365 121.021 175.242 121.203 176.102C121.391 176.956 121.721 177.706 122.195 178.352C122.659 177.721 122.979 176.987 123.156 176.148C123.333 175.305 123.427 174.411 123.438 173.469V170.531H124.859V173.469C124.849 174.63 125.003 175.716 125.32 176.727C125.643 177.737 126.208 178.536 127.016 179.125L126.078 180.188C125.167 179.516 124.521 178.44 124.141 176.961C123.76 178.513 123.109 179.625 122.188 180.297C121.266 179.625 120.615 178.516 120.234 176.969C119.854 178.422 119.234 179.479 118.375 180.141L117.375 179.125ZM144.281 181.594H131.469V180.359H137.109V177.484H132.938V170.281H134.422V172.688H141.297V170.281H142.766V177.484H138.578V180.359H144.281V181.594ZM141.297 176.281V173.891H134.422V176.281H141.297ZM156.625 172.047C156.62 172.854 156.607 173.544 156.586 174.117C156.57 174.685 156.523 175.349 156.445 176.109C156.372 176.87 156.255 177.693 156.094 178.578L154.594 178.422C154.76 177.583 154.883 176.794 154.961 176.055C155.039 175.31 155.086 174.654 155.102 174.086C155.122 173.518 155.135 172.839 155.141 172.047V171.875H146.641V170.672H156.625V172.047ZM145.297 180.203H150.156V175.266H151.625V180.203H158.062V181.438H145.297V180.203ZM170.031 172.078H162.953V170.906H165.781V169.406H167.25V170.906H170.031V172.078ZM163.5 175.203C163.5 174.708 163.628 174.271 163.883 173.891C164.138 173.51 164.492 173.216 164.945 173.008C165.404 172.794 165.922 172.688 166.5 172.688C167.094 172.688 167.62 172.794 168.078 173.008C168.536 173.216 168.893 173.51 169.148 173.891C169.404 174.271 169.531 174.708 169.531 175.203C169.531 175.688 169.404 176.117 169.148 176.492C168.893 176.862 168.534 177.151 168.07 177.359C167.612 177.568 167.089 177.672 166.5 177.672C165.922 177.672 165.404 177.568 164.945 177.359C164.492 177.151 164.138 176.862 163.883 176.492C163.628 176.117 163.5 175.688 163.5 175.203ZM164.828 175.203C164.828 175.609 164.982 175.938 165.289 176.188C165.596 176.432 166 176.557 166.5 176.562C166.833 176.562 167.128 176.505 167.383 176.391C167.638 176.276 167.836 176.117 167.977 175.914C168.117 175.711 168.188 175.474 168.188 175.203C168.193 174.776 168.039 174.44 167.727 174.195C167.419 173.945 167.01 173.818 166.5 173.812C166 173.818 165.596 173.945 165.289 174.195C164.982 174.44 164.828 174.776 164.828 175.203ZM165.453 178.828H174.969V183.328H173.5V180.016H165.453V178.828ZM170.578 169.562H171.984V173.188H173.562V169.344H174.969V178.062H173.562V174.406H171.984V177.969H170.578V169.562ZM188.469 177.266H186.984V169.344H188.469V177.266ZM176.922 175.781C177.635 175.542 178.258 175.19 178.789 174.727C179.32 174.258 179.727 173.721 180.008 173.117C180.289 172.513 180.432 171.885 180.438 171.234V169.875H181.953V171.234C181.953 171.859 182.094 172.458 182.375 173.031C182.656 173.599 183.057 174.102 183.578 174.539C184.104 174.977 184.719 175.312 185.422 175.547L184.688 176.688C183.88 176.422 183.177 176.023 182.578 175.492C181.979 174.961 181.521 174.333 181.203 173.609C180.885 174.391 180.422 175.07 179.812 175.648C179.203 176.227 178.484 176.661 177.656 176.953L176.922 175.781ZM179.266 178.016H188.469V183.156H179.266V178.016ZM187.016 181.953V179.203H180.734V181.953H187.016ZM202.141 170.75C202.135 172.229 201.938 173.589 201.547 174.828C201.161 176.068 200.49 177.221 199.531 178.289C198.573 179.357 197.271 180.292 195.625 181.094L194.828 179.938C196.057 179.339 197.076 178.667 197.883 177.922C198.695 177.172 199.326 176.341 199.773 175.43L195.109 175.859L194.906 174.562L200.25 174.219C200.469 173.531 200.607 172.776 200.664 171.953H195.609V170.75H202.141ZM204.734 169.328H206.234V183.328H204.734V169.328ZM220.125 183.328H218.625V179.984H215.531V178.859H218.625V169.344H220.125V183.328ZM208.594 176.625C210.458 176.615 212.099 176.583 213.516 176.531C214.932 176.474 216.297 176.354 217.609 176.172L217.688 177.266C216.484 177.479 215.13 177.633 213.625 177.727V182.891H212.141V177.797C211 177.839 209.807 177.859 208.562 177.859L208.359 176.625H208.594ZM209.391 172.781C209.391 172.234 209.542 171.75 209.844 171.328C210.151 170.901 210.576 170.57 211.117 170.336C211.659 170.102 212.276 169.984 212.969 169.984C213.651 169.984 214.26 170.104 214.797 170.344C215.339 170.578 215.76 170.906 216.062 171.328C216.365 171.75 216.516 172.234 216.516 172.781C216.516 173.333 216.365 173.82 216.062 174.242C215.76 174.659 215.341 174.984 214.805 175.219C214.268 175.448 213.656 175.562 212.969 175.562C212.271 175.562 211.651 175.448 211.109 175.219C210.573 174.984 210.151 174.659 209.844 174.242C209.542 173.82 209.391 173.333 209.391 172.781ZM210.797 172.781C210.797 173.109 210.885 173.398 211.062 173.648C211.245 173.898 211.5 174.091 211.828 174.227C212.161 174.357 212.542 174.422 212.969 174.422C213.38 174.422 213.747 174.357 214.07 174.227C214.393 174.091 214.646 173.898 214.828 173.648C215.016 173.398 215.109 173.109 215.109 172.781C215.109 172.458 215.018 172.172 214.836 171.922C214.654 171.672 214.398 171.477 214.07 171.336C213.747 171.195 213.38 171.125 212.969 171.125C212.542 171.125 212.164 171.195 211.836 171.336C211.508 171.477 211.253 171.672 211.07 171.922C210.888 172.172 210.797 172.458 210.797 172.781ZM233.594 177.188H223.844V170.578H233.469V171.797H225.312V175.969H233.594V177.188ZM222.25 180.25H235.062V181.484H222.25V180.25ZM248.875 176.891H236.062V175.75H248.875V176.891ZM237.578 177.875H247.297V180.953H239.078V182.109H247.734V183.156H237.594V179.969H245.828V178.938H237.578V177.875ZM237.672 169.688H247.266V172.719H239.172V173.781H247.5V174.828H237.703V171.734H245.781V170.734H237.672V169.688ZM265.484 177.656H264V174.109H261.391V172.891H264V169.328H265.484V177.656ZM253.812 176.391C254.521 176.141 255.141 175.781 255.672 175.312C256.203 174.839 256.609 174.299 256.891 173.695C257.177 173.086 257.318 172.458 257.312 171.812V171.5H254.281V170.297H261.828V171.5H258.828V171.797C258.823 172.391 258.956 172.966 259.227 173.523C259.497 174.081 259.888 174.578 260.398 175.016C260.909 175.448 261.51 175.781 262.203 176.016L261.438 177.188C260.667 176.922 259.995 176.526 259.422 176C258.854 175.469 258.414 174.849 258.102 174.141C257.794 174.932 257.339 175.628 256.734 176.227C256.13 176.826 255.417 177.276 254.594 177.578L253.812 176.391ZM256.062 180.688C256.062 180.135 256.25 179.664 256.625 179.273C257.005 178.878 257.549 178.576 258.258 178.367C258.971 178.154 259.818 178.047 260.797 178.047C261.771 178.047 262.612 178.154 263.32 178.367C264.029 178.576 264.573 178.878 264.953 179.273C265.339 179.664 265.531 180.135 265.531 180.688C265.531 181.24 265.339 181.711 264.953 182.102C264.573 182.497 264.029 182.799 263.32 183.008C262.612 183.221 261.771 183.328 260.797 183.328C259.818 183.328 258.971 183.221 258.258 183.008C257.549 182.799 257.005 182.497 256.625 182.102C256.25 181.711 256.062 181.24 256.062 180.688ZM257.531 180.688C257.526 181.161 257.81 181.529 258.383 181.789C258.961 182.044 259.766 182.167 260.797 182.156C261.818 182.167 262.615 182.044 263.188 181.789C263.766 181.529 264.057 181.161 264.062 180.688C264.057 180.219 263.771 179.854 263.203 179.594C262.641 179.333 261.854 179.203 260.844 179.203C259.792 179.203 258.974 179.331 258.391 179.586C257.812 179.841 257.526 180.208 257.531 180.688ZM279.266 183.359H277.781V169.328H279.266V183.359ZM268.422 170.594H274.984V175.703H269.953V178.766C271.167 178.76 272.289 178.721 273.32 178.648C274.357 178.576 275.432 178.448 276.547 178.266L276.688 179.484C275.526 179.677 274.398 179.81 273.305 179.883C272.211 179.956 270.984 179.995 269.625 180H268.438V174.516H273.469V171.797H268.422V170.594ZM292.469 173.844H294.5V175.078H292.469V179.812H290.984V169.344H292.469V173.844ZM281.484 170.969H284.922V169.328H286.406V170.969H289.828V172.172H281.484V170.969ZM282.25 175.484C282.25 174.958 282.391 174.495 282.672 174.094C282.958 173.693 283.359 173.385 283.875 173.172C284.391 172.953 284.984 172.844 285.656 172.844C286.323 172.844 286.911 172.953 287.422 173.172C287.938 173.385 288.336 173.693 288.617 174.094C288.904 174.495 289.047 174.958 289.047 175.484C289.047 176.005 288.904 176.464 288.617 176.859C288.336 177.255 287.938 177.562 287.422 177.781C286.911 178 286.323 178.109 285.656 178.109C284.984 178.109 284.391 178 283.875 177.781C283.359 177.562 282.958 177.255 282.672 176.859C282.391 176.464 282.25 176.005 282.25 175.484ZM283.594 178.984H285.078V181.828H293.062V183.031H283.594V178.984ZM283.688 175.484C283.682 175.781 283.76 176.042 283.922 176.266C284.083 176.484 284.31 176.654 284.602 176.773C284.898 176.893 285.242 176.953 285.633 176.953C286.237 176.953 286.724 176.823 287.094 176.562C287.464 176.302 287.651 175.943 287.656 175.484C287.651 175.026 287.466 174.664 287.102 174.398C286.737 174.128 286.255 173.99 285.656 173.984C285.26 173.984 284.911 174.047 284.609 174.172C284.312 174.292 284.083 174.466 283.922 174.695C283.76 174.919 283.682 175.182 283.688 175.484ZM307 171.688C306.995 172.62 306.969 173.495 306.922 174.312C306.875 175.13 306.766 176.083 306.594 177.172L305.125 177.062C305.286 176.068 305.393 175.174 305.445 174.383C305.497 173.591 305.526 172.807 305.531 172.031H299.844V170.828H307V171.688ZM299.062 179.109C300.339 179.099 301.297 179.086 301.938 179.07V174.828H303.406V179.023C305.182 178.951 306.651 178.839 307.812 178.688L307.891 179.797C305.76 180.141 303.091 180.312 299.883 180.312H299.234L299.062 179.109ZM308.609 169.328H310.109V175.109H312.25V176.375H310.109V183.328H308.609V169.328ZM324.703 177.656H323.219V174.109H320.609V172.891H323.219V169.328H324.703V177.656ZM313.031 176.391C313.74 176.141 314.359 175.781 314.891 175.312C315.422 174.839 315.828 174.299 316.109 173.695C316.396 173.086 316.536 172.458 316.531 171.812V171.5H313.5V170.297H321.047V171.5H318.047V171.797C318.042 172.391 318.174 172.966 318.445 173.523C318.716 174.081 319.107 174.578 319.617 175.016C320.128 175.448 320.729 175.781 321.422 176.016L320.656 177.188C319.885 176.922 319.214 176.526 318.641 176C318.073 175.469 317.633 174.849 317.32 174.141C317.013 174.932 316.557 175.628 315.953 176.227C315.349 176.826 314.635 177.276 313.812 177.578L313.031 176.391ZM315.281 180.688C315.281 180.135 315.469 179.664 315.844 179.273C316.224 178.878 316.768 178.576 317.477 178.367C318.19 178.154 319.036 178.047 320.016 178.047C320.99 178.047 321.831 178.154 322.539 178.367C323.247 178.576 323.792 178.878 324.172 179.273C324.557 179.664 324.75 180.135 324.75 180.688C324.75 181.24 324.557 181.711 324.172 182.102C323.792 182.497 323.247 182.799 322.539 183.008C321.831 183.221 320.99 183.328 320.016 183.328C319.036 183.328 318.19 183.221 317.477 183.008C316.768 182.799 316.224 182.497 315.844 182.102C315.469 181.711 315.281 181.24 315.281 180.688ZM316.75 180.688C316.745 181.161 317.029 181.529 317.602 181.789C318.18 182.044 318.984 182.167 320.016 182.156C321.036 182.167 321.833 182.044 322.406 181.789C322.984 181.529 323.276 181.161 323.281 180.688C323.276 180.219 322.99 179.854 322.422 179.594C321.859 179.333 321.073 179.203 320.062 179.203C319.01 179.203 318.193 179.331 317.609 179.586C317.031 179.841 316.745 180.208 316.75 180.688ZM66.1094 207.359H64.625V193.328H66.1094V207.359ZM55 199.281C55 198.302 55.1536 197.443 55.4609 196.703C55.7682 195.958 56.1953 195.385 56.7422 194.984C57.2943 194.578 57.9219 194.375 58.625 194.375C59.3177 194.375 59.9375 194.578 60.4844 194.984C61.0312 195.385 61.4583 195.958 61.7656 196.703C62.0781 197.443 62.2344 198.302 62.2344 199.281C62.2344 200.271 62.0781 201.138 61.7656 201.883C61.4583 202.628 61.0312 203.201 60.4844 203.602C59.9375 204.003 59.3177 204.203 58.625 204.203C57.9219 204.203 57.2943 204.003 56.7422 203.602C56.1953 203.201 55.7682 202.628 55.4609 201.883C55.1536 201.138 55 200.271 55 199.281ZM56.4375 199.281C56.4375 200.01 56.5286 200.646 56.7109 201.188C56.8932 201.729 57.1484 202.146 57.4766 202.438C57.8099 202.729 58.1927 202.875 58.625 202.875C59.0521 202.875 59.4297 202.729 59.7578 202.438C60.0859 202.146 60.3411 201.729 60.5234 201.188C60.7057 200.646 60.7969 200.01 60.7969 199.281C60.7969 198.562 60.7057 197.935 60.5234 197.398C60.3411 196.857 60.0859 196.44 59.7578 196.148C59.4297 195.852 59.0521 195.703 58.625 195.703C58.1927 195.703 57.8099 195.852 57.4766 196.148C57.1484 196.44 56.8932 196.857 56.7109 197.398C56.5286 197.935 56.4375 198.562 56.4375 199.281ZM77.6719 203.188C79.1146 203.109 80.3802 202.99 81.4688 202.828L81.5781 203.922C80.1823 204.182 78.7578 204.349 77.3047 204.422C75.8516 204.495 74.2552 204.531 72.5156 204.531L72.3281 203.312C74.0052 203.302 75.2917 203.281 76.1875 203.25V200.766H77.6719V203.188ZM72.7031 200.094C73.3906 199.896 73.9896 199.609 74.5 199.234C75.0156 198.859 75.4167 198.422 75.7031 197.922C75.9896 197.422 76.1458 196.885 76.1719 196.312H73.0781V195.109H76.1875V193.438H77.6719V195.109H80.8125V196.312H77.6719C77.6979 196.859 77.8568 197.375 78.1484 197.859C78.4401 198.339 78.8438 198.758 79.3594 199.117C79.8802 199.477 80.4844 199.75 81.1719 199.938L80.4844 201.094C79.6562 200.859 78.9349 200.497 78.3203 200.008C77.7109 199.518 77.2474 198.94 76.9297 198.273C76.6224 198.982 76.1667 199.591 75.5625 200.102C74.9583 200.612 74.2396 200.984 73.4062 201.219L72.7031 200.094ZM82.3438 193.328H83.8281V207.359H82.3438V193.328ZM93.1875 200.203H98.8438V201.422H86.0781V200.203H91.7188V198.312H93.1875V200.203ZM86.7344 197.875C87.5729 197.792 88.3385 197.62 89.0312 197.359C89.724 197.099 90.2839 196.779 90.7109 196.398C91.138 196.013 91.3854 195.599 91.4531 195.156H87.25V193.969H97.7031V195.156H93.4531C93.5208 195.599 93.7682 196.013 94.1953 196.398C94.6276 196.779 95.1901 197.099 95.8828 197.359C96.5807 197.62 97.349 197.792 98.1875 197.875L97.6562 199.047C96.8438 198.953 96.0885 198.784 95.3906 198.539C94.6979 198.289 94.0964 197.974 93.5859 197.594C93.0807 197.208 92.7031 196.773 92.4531 196.289C92.0729 197.018 91.4219 197.625 90.5 198.109C89.5781 198.594 88.5 198.906 87.2656 199.047L86.7344 197.875ZM87.5938 204.875C87.5938 204.354 87.7865 203.911 88.1719 203.547C88.5573 203.182 89.112 202.906 89.8359 202.719C90.5651 202.531 91.4375 202.438 92.4531 202.438C93.4583 202.438 94.3203 202.531 95.0391 202.719C95.763 202.906 96.3177 203.182 96.7031 203.547C97.0885 203.911 97.2812 204.354 97.2812 204.875C97.2812 205.391 97.0885 205.831 96.7031 206.195C96.3177 206.56 95.763 206.833 95.0391 207.016C94.3203 207.203 93.4583 207.297 92.4531 207.297C91.4375 207.297 90.5651 207.203 89.8359 207.016C89.112 206.833 88.5573 206.56 88.1719 206.195C87.7865 205.831 87.5938 205.391 87.5938 204.875ZM89.0938 204.875C89.0885 205.292 89.375 205.612 89.9531 205.836C90.5365 206.06 91.3698 206.172 92.4531 206.172C93.5208 206.172 94.3438 206.06 94.9219 205.836C95.5052 205.612 95.7969 205.292 95.7969 204.875C95.7969 204.458 95.5078 204.141 94.9297 203.922C94.3516 203.698 93.526 203.583 92.4531 203.578C91.3698 203.583 90.5365 203.698 89.9531 203.922C89.375 204.141 89.0885 204.458 89.0938 204.875ZM110.953 195.703H114V193.344H115.484V203.547H114V199.922H110.953V201.141H104.453V194.516H110.953V195.703ZM109.5 199.969V195.719H105.922V199.969H109.5ZM106.344 202.609H107.844V205.828H115.797V207.031H106.344V202.609ZM114 198.703V196.922H110.953V198.703H114ZM129.297 200.953H127.828V197.859H125.203V196.641H127.828V193.328H129.297V200.953ZM117.656 200.016C118.359 199.771 118.974 199.417 119.5 198.953C120.031 198.49 120.438 197.958 120.719 197.359C121 196.76 121.141 196.141 121.141 195.5V195.312H118.109V194.109H125.656V195.312H122.656V195.516C122.651 196.094 122.784 196.661 123.055 197.219C123.331 197.776 123.724 198.276 124.234 198.719C124.745 199.156 125.344 199.49 126.031 199.719L125.266 200.875C124.49 200.599 123.815 200.198 123.242 199.672C122.669 199.141 122.229 198.526 121.922 197.828C121.615 198.609 121.159 199.294 120.555 199.883C119.956 200.466 119.245 200.901 118.422 201.188L117.656 200.016ZM120.188 201.578H121.656V203.188H127.828V201.578H129.297V207.156H120.188V201.578ZM127.828 205.953V204.344H121.656V205.953H127.828ZM143.516 207.328H142.094V193.328H143.516V207.328ZM131.625 199.375C131.625 198.375 131.747 197.505 131.992 196.766C132.242 196.021 132.594 195.451 133.047 195.055C133.505 194.654 134.036 194.453 134.641 194.453C135.203 194.453 135.701 194.622 136.133 194.961C136.57 195.299 136.919 195.789 137.18 196.43C137.445 197.065 137.607 197.818 137.664 198.688H139.25V193.594H140.672V206.641H139.25V199.891H137.672C137.63 200.797 137.479 201.583 137.219 202.25C136.958 202.911 136.607 203.422 136.164 203.781C135.721 204.135 135.214 204.312 134.641 204.312C134.036 204.312 133.505 204.115 133.047 203.719C132.594 203.318 132.242 202.745 131.992 202C131.747 201.25 131.625 200.375 131.625 199.375ZM133 199.375C133 200.109 133.065 200.742 133.195 201.273C133.331 201.805 133.521 202.211 133.766 202.492C134.016 202.768 134.307 202.906 134.641 202.906C134.984 202.906 135.281 202.768 135.531 202.492C135.781 202.211 135.974 201.805 136.109 201.273C136.245 200.742 136.312 200.109 136.312 199.375C136.312 198.635 136.245 198.003 136.109 197.477C135.974 196.945 135.781 196.542 135.531 196.266C135.281 195.984 134.984 195.844 134.641 195.844C134.307 195.844 134.016 195.984 133.766 196.266C133.521 196.542 133.331 196.945 133.195 197.477C133.065 198.008 133 198.641 133 199.375ZM150.344 196.891C150.344 197.74 150.492 198.573 150.789 199.391C151.091 200.203 151.513 200.924 152.055 201.555C152.596 202.185 153.219 202.656 153.922 202.969L153.016 204.156C152.234 203.76 151.549 203.19 150.961 202.445C150.372 201.695 149.922 200.836 149.609 199.867C149.297 200.893 148.841 201.807 148.242 202.609C147.648 203.406 146.953 204.01 146.156 204.422L145.219 203.219C145.927 202.88 146.555 202.38 147.102 201.719C147.654 201.052 148.081 200.297 148.383 199.453C148.69 198.604 148.844 197.75 148.844 196.891V194.5H150.344V196.891ZM152.375 197.984H155.5V193.328H156.969V207.359H155.5V199.188H152.375V197.984ZM173.938 198.906H176.109V200.141H173.938V207.312H172.453V193.328H173.938V198.906ZM163.047 203.578C164.797 202.703 166.148 201.635 167.102 200.375C168.06 199.115 168.615 197.667 168.766 196.031H163.75V194.797H170.281C170.271 196.932 169.753 198.852 168.727 200.555C167.701 202.253 166.083 203.646 163.875 204.734L163.047 203.578ZM181.75 195.906C181.745 196.5 181.875 197.068 182.141 197.609C182.411 198.146 182.799 198.622 183.305 199.039C183.81 199.451 184.411 199.766 185.109 199.984L184.406 201.141C183.62 200.891 182.938 200.516 182.359 200.016C181.786 199.516 181.344 198.927 181.031 198.25C180.724 199.026 180.268 199.703 179.664 200.281C179.06 200.854 178.344 201.286 177.516 201.578L176.75 200.391C177.464 200.156 178.086 199.812 178.617 199.359C179.148 198.906 179.555 198.383 179.836 197.789C180.117 197.195 180.26 196.573 180.266 195.922V195.531H177.188V194.328H184.766V195.531H181.75V195.906ZM178.641 204.672C178.641 204.13 178.828 203.664 179.203 203.273C179.583 202.883 180.125 202.586 180.828 202.383C181.536 202.18 182.375 202.078 183.344 202.078C184.302 202.078 185.128 202.18 185.82 202.383C186.518 202.586 187.052 202.883 187.422 203.273C187.797 203.664 187.984 204.13 187.984 204.672C187.984 205.224 187.797 205.695 187.422 206.086C187.052 206.482 186.518 206.781 185.82 206.984C185.128 207.193 184.302 207.297 183.344 207.297C182.375 207.297 181.536 207.193 180.828 206.984C180.125 206.781 179.583 206.482 179.203 206.086C178.828 205.695 178.641 205.224 178.641 204.672ZM180.125 204.672C180.12 205.135 180.396 205.495 180.953 205.75C181.516 206 182.297 206.125 183.297 206.125C184.323 206.125 185.12 206 185.688 205.75C186.255 205.5 186.536 205.141 186.531 204.672C186.536 204.219 186.263 203.87 185.711 203.625C185.159 203.375 184.385 203.25 183.391 203.25C182.354 203.25 181.549 203.372 180.977 203.617C180.404 203.862 180.12 204.214 180.125 204.672ZM186.375 193.328H187.859V196.797H189.891V198.016H187.859V201.734H186.375V193.328ZM205.938 200.969H201.703V204.391H207.406V205.609H194.594V204.391H200.234V200.969H196.188V194.406H205.812V195.609H197.672V199.781H205.938V200.969ZM214.797 193.562C215.818 193.562 216.703 193.669 217.453 193.883C218.203 194.096 218.781 194.404 219.188 194.805C219.594 195.206 219.797 195.682 219.797 196.234C219.797 196.776 219.594 197.245 219.188 197.641C218.781 198.036 218.203 198.339 217.453 198.547C216.703 198.755 215.818 198.859 214.797 198.859C213.781 198.859 212.896 198.755 212.141 198.547C211.391 198.339 210.812 198.036 210.406 197.641C210 197.245 209.797 196.776 209.797 196.234C209.797 195.682 209.997 195.206 210.398 194.805C210.805 194.404 211.383 194.096 212.133 193.883C212.888 193.669 213.776 193.562 214.797 193.562ZM208.422 199.812H221.188V201.016H215.531V202.484H219.625V207.156H209.953V202.484H214.062V201.016H208.422V199.812ZM211.328 196.234C211.328 196.542 211.466 196.807 211.742 197.031C212.018 197.25 212.417 197.417 212.938 197.531C213.458 197.646 214.078 197.703 214.797 197.703C215.51 197.703 216.128 197.646 216.648 197.531C217.169 197.417 217.568 197.25 217.844 197.031C218.125 196.807 218.266 196.542 218.266 196.234C218.266 195.917 218.125 195.643 217.844 195.414C217.568 195.185 217.169 195.013 216.648 194.898C216.128 194.779 215.51 194.719 214.797 194.719C214.078 194.719 213.458 194.779 212.938 194.898C212.417 195.013 212.018 195.185 211.742 195.414C211.466 195.643 211.328 195.917 211.328 196.234ZM218.188 205.953V203.672H211.422V205.953H218.188ZM233.844 207.359H232.359V193.328H233.844V207.359ZM222.734 199.281C222.734 198.302 222.888 197.443 223.195 196.703C223.503 195.958 223.93 195.385 224.477 194.984C225.029 194.578 225.656 194.375 226.359 194.375C227.052 194.375 227.672 194.578 228.219 194.984C228.766 195.385 229.193 195.958 229.5 196.703C229.812 197.443 229.969 198.302 229.969 199.281C229.969 200.271 229.812 201.138 229.5 201.883C229.193 202.628 228.766 203.201 228.219 203.602C227.672 204.003 227.052 204.203 226.359 204.203C225.656 204.203 225.029 204.003 224.477 203.602C223.93 203.201 223.503 202.628 223.195 201.883C222.888 201.138 222.734 200.271 222.734 199.281ZM224.172 199.281C224.172 200.01 224.263 200.646 224.445 201.188C224.628 201.729 224.883 202.146 225.211 202.438C225.544 202.729 225.927 202.875 226.359 202.875C226.786 202.875 227.164 202.729 227.492 202.438C227.82 202.146 228.076 201.729 228.258 201.188C228.44 200.646 228.531 200.01 228.531 199.281C228.531 198.562 228.44 197.935 228.258 197.398C228.076 196.857 227.82 196.44 227.492 196.148C227.164 195.852 226.786 195.703 226.359 195.703C225.927 195.703 225.544 195.852 225.211 196.148C224.883 196.44 224.628 196.857 224.445 197.398C224.263 197.935 224.172 198.562 224.172 199.281ZM248.328 200.469H245.375V203.062C246.823 203 248.099 202.906 249.203 202.781L249.312 203.875C247.938 204.078 246.518 204.214 245.055 204.281C243.591 204.349 241.99 204.385 240.25 204.391L240.062 203.156C241.495 203.156 242.771 203.143 243.891 203.117V200.469H241.078V194.625H248.266V195.828H242.547V199.25H248.328V200.469ZM250.078 193.328H251.562V207.359H250.078V193.328ZM258.781 202.562C258.781 203.198 258.94 203.807 259.258 204.391C259.576 204.969 260.039 205.445 260.648 205.82C261.06 205.555 261.406 205.237 261.688 204.867C261.974 204.497 262.188 204.112 262.328 203.711C262.469 203.31 262.542 202.927 262.547 202.562V201.812H264V202.562C264 203.052 264.107 203.526 264.32 203.984C264.534 204.443 264.852 204.852 265.273 205.211C265.701 205.57 266.214 205.844 266.812 206.031L266.047 207.141C265.375 206.901 264.802 206.557 264.328 206.109C263.859 205.667 263.5 205.148 263.25 204.555C263.01 205.154 262.674 205.69 262.242 206.164C261.815 206.643 261.292 207.01 260.672 207.266C260.031 207.021 259.492 206.667 259.055 206.203C258.617 205.745 258.284 205.216 258.055 204.617C257.799 205.185 257.438 205.688 256.969 206.125C256.505 206.562 255.953 206.901 255.312 207.141L254.594 206.031C255.172 205.828 255.667 205.544 256.078 205.18C256.495 204.81 256.81 204.398 257.023 203.945C257.242 203.487 257.354 203.026 257.359 202.562V201.812H258.781V202.562ZM254.031 197.406C254.031 196.771 254.188 196.203 254.5 195.703C254.818 195.198 255.253 194.805 255.805 194.523C256.362 194.237 256.99 194.094 257.688 194.094C258.286 194.094 258.836 194.206 259.336 194.43C259.841 194.648 260.26 194.961 260.594 195.367C260.932 195.768 261.154 196.229 261.258 196.75H264V193.328H265.484V201.266H264V197.969H261.281C261.188 198.505 260.971 198.982 260.633 199.398C260.299 199.81 259.878 200.13 259.367 200.359C258.857 200.589 258.297 200.703 257.688 200.703C256.99 200.703 256.362 200.562 255.805 200.281C255.253 200 254.818 199.609 254.5 199.109C254.188 198.609 254.031 198.042 254.031 197.406ZM255.453 197.406C255.453 197.802 255.547 198.159 255.734 198.477C255.927 198.789 256.193 199.034 256.531 199.211C256.875 199.383 257.26 199.469 257.688 199.469C258.104 199.469 258.479 199.383 258.812 199.211C259.151 199.034 259.417 198.789 259.609 198.477C259.807 198.159 259.906 197.802 259.906 197.406C259.906 197 259.81 196.641 259.617 196.328C259.424 196.016 259.159 195.773 258.82 195.602C258.482 195.43 258.104 195.344 257.688 195.344C257.26 195.344 256.875 195.43 256.531 195.602C256.193 195.773 255.927 196.016 255.734 196.328C255.547 196.641 255.453 197 255.453 197.406ZM271.438 194.375C272.068 194.375 272.635 194.547 273.141 194.891C273.646 195.234 274.055 195.721 274.367 196.352C274.685 196.982 274.88 197.724 274.953 198.578H277.844V193.328H279.312V207.359H277.844V199.781H274.969C274.917 200.682 274.734 201.466 274.422 202.133C274.109 202.799 273.695 203.312 273.18 203.672C272.664 204.026 272.083 204.203 271.438 204.203C270.745 204.203 270.128 204.003 269.586 203.602C269.049 203.201 268.63 202.628 268.328 201.883C268.031 201.138 267.885 200.271 267.891 199.281C267.885 198.302 268.031 197.443 268.328 196.703C268.63 195.958 269.049 195.385 269.586 194.984C270.128 194.578 270.745 194.375 271.438 194.375ZM269.297 199.281C269.297 200.01 269.385 200.646 269.562 201.188C269.745 201.729 269.997 202.146 270.32 202.438C270.643 202.729 271.016 202.875 271.438 202.875C271.859 202.875 272.232 202.729 272.555 202.438C272.878 202.146 273.128 201.729 273.305 201.188C273.487 200.646 273.578 200.01 273.578 199.281C273.578 198.562 273.487 197.935 273.305 197.398C273.122 196.857 272.87 196.44 272.547 196.148C272.229 195.852 271.859 195.703 271.438 195.703C271.016 195.703 270.643 195.852 270.32 196.148C270.003 196.44 269.753 196.857 269.57 197.398C269.388 197.935 269.297 198.562 269.297 199.281ZM294.281 205.578H281.469V204.344H284.531V200.688C283.943 200.365 283.487 199.956 283.164 199.461C282.841 198.966 282.682 198.411 282.688 197.797C282.688 197.073 282.906 196.435 283.344 195.883C283.781 195.331 284.391 194.904 285.172 194.602C285.958 194.294 286.849 194.141 287.844 194.141C288.839 194.141 289.729 194.294 290.516 194.602C291.302 194.904 291.914 195.331 292.352 195.883C292.794 196.435 293.016 197.073 293.016 197.797C293.016 198.406 292.859 198.956 292.547 199.445C292.234 199.93 291.792 200.333 291.219 200.656V204.344H294.281V205.578ZM284.125 197.797C284.125 198.292 284.281 198.727 284.594 199.102C284.906 199.477 285.344 199.768 285.906 199.977C286.469 200.18 287.115 200.281 287.844 200.281C288.568 200.281 289.211 200.177 289.773 199.969C290.341 199.76 290.784 199.471 291.102 199.102C291.419 198.727 291.578 198.292 291.578 197.797C291.578 197.302 291.419 196.87 291.102 196.5C290.784 196.125 290.341 195.836 289.773 195.633C289.211 195.43 288.568 195.328 287.844 195.328C287.115 195.328 286.469 195.43 285.906 195.633C285.344 195.836 284.906 196.125 284.594 196.5C284.281 196.87 284.125 197.302 284.125 197.797ZM289.719 204.344V201.234C289.135 201.37 288.51 201.438 287.844 201.438C287.188 201.438 286.573 201.37 286 201.234V204.344H289.719ZM296.891 206.109C296.693 206.109 296.508 206.06 296.336 205.961C296.169 205.862 296.034 205.729 295.93 205.562C295.831 205.396 295.781 205.214 295.781 205.016C295.781 204.812 295.831 204.625 295.93 204.453C296.029 204.281 296.161 204.146 296.328 204.047C296.5 203.943 296.688 203.891 296.891 203.891C297.089 203.891 297.271 203.94 297.438 204.039C297.609 204.138 297.745 204.273 297.844 204.445C297.948 204.617 298 204.802 298 205C298 205.198 297.948 205.383 297.844 205.555C297.745 205.721 297.609 205.857 297.438 205.961C297.271 206.06 297.089 206.109 296.891 206.109Z" fill="#636572"/>
<path d="M65.1049 237.538C65.4846 236.821 66.5153 236.821 66.8951 237.538L69.4796 242.419C69.626 242.696 69.8929 242.889 70.2021 242.942L75.6596 243.883C76.4613 244.021 76.7798 244.998 76.2127 245.579L72.3526 249.537C72.1339 249.761 72.0319 250.074 72.0766 250.383L72.865 255.846C72.9808 256.649 72.147 257.252 71.4168 256.895L66.4465 254.459C66.1649 254.321 65.8351 254.321 65.5535 254.459L60.5832 256.895C59.853 257.252 59.0192 256.649 59.135 255.846L59.9234 250.383C59.9681 250.074 59.8661 249.761 59.6474 249.537L55.7873 245.579C55.2202 244.998 55.5387 244.021 56.3404 243.883L61.7979 242.942C62.1071 242.889 62.374 242.696 62.5204 242.419L65.1049 237.538Z" fill="#576DFC"/>
<path d="M91.1049 237.538C91.4846 236.821 92.5153 236.821 92.8951 237.538L95.4796 242.419C95.626 242.696 95.8929 242.889 96.2021 242.942L101.66 243.883C102.461 244.021 102.78 244.998 102.213 245.579L98.3526 249.537C98.1339 249.761 98.0319 250.074 98.0766 250.383L98.865 255.846C98.9808 256.649 98.147 257.252 97.4168 256.895L92.4465 254.459C92.1649 254.321 91.8351 254.321 91.5535 254.459L86.5832 256.895C85.853 257.252 85.0192 256.649 85.135 255.846L85.9234 250.383C85.9681 250.074 85.8661 249.761 85.6474 249.537L81.7873 245.579C81.2202 244.998 81.5387 244.021 82.3404 243.883L87.7979 242.942C88.1071 242.889 88.374 242.696 88.5204 242.419L91.1049 237.538Z" fill="#576DFC"/>
<path d="M117.105 237.538C117.485 236.821 118.515 236.821 118.895 237.538L121.48 242.419C121.626 242.696 121.893 242.889 122.202 242.942L127.66 243.883C128.461 244.021 128.78 244.998 128.213 245.579L124.353 249.537C124.134 249.761 124.032 250.074 124.077 250.383L124.865 255.846C124.981 256.649 124.147 257.252 123.417 256.895L118.447 254.459C118.165 254.321 117.835 254.321 117.553 254.459L112.583 256.895C111.853 257.252 111.019 256.649 111.135 255.846L111.923 250.383C111.968 250.074 111.866 249.761 111.647 249.537L107.787 245.579C107.22 244.998 107.539 244.021 108.34 243.883L113.798 242.942C114.107 242.889 114.374 242.696 114.52 242.419L117.105 237.538Z" fill="#576DFC"/>
<path d="M143.105 237.538C143.485 236.821 144.515 236.821 144.895 237.538L147.48 242.419C147.626 242.696 147.893 242.889 148.202 242.942L153.66 243.883C154.461 244.021 154.78 244.998 154.213 245.579L150.353 249.537C150.134 249.761 150.032 250.074 150.077 250.383L150.865 255.846C150.981 256.649 150.147 257.252 149.417 256.895L144.447 254.459C144.165 254.321 143.835 254.321 143.553 254.459L138.583 256.895C137.853 257.252 137.019 256.649 137.135 255.846L137.923 250.383C137.968 250.074 137.866 249.761 137.647 249.537L133.787 245.579C133.22 244.998 133.539 244.021 134.34 243.883L139.798 242.942C140.107 242.889 140.374 242.696 140.52 242.419L143.105 237.538Z" fill="#576DFC"/>
<path d="M169.105 237.538C169.485 236.821 170.515 236.821 170.895 237.538L173.48 242.419C173.626 242.696 173.893 242.889 174.202 242.942L179.66 243.883C180.461 244.021 180.78 244.998 180.213 245.579L176.353 249.537C176.134 249.761 176.032 250.074 176.077 250.383L176.865 255.846C176.981 256.649 176.147 257.252 175.417 256.895L170.447 254.459C170.165 254.321 169.835 254.321 169.553 254.459L164.583 256.895C163.853 257.252 163.019 256.649 163.135 255.846L163.923 250.383C163.968 250.074 163.866 249.761 163.647 249.537L159.787 245.579C159.22 244.998 159.539 244.021 160.34 243.883L165.798 242.942C166.107 242.889 166.374 242.696 166.52 242.419L169.105 237.538Z" fill="#576DFC"/>
<path d="M192.191 254.195C191.26 254.195 190.421 254.023 189.672 253.678C188.93 253.333 188.34 252.854 187.904 252.242C187.468 251.63 187.237 250.94 187.211 250.172H189.691C189.717 250.543 189.844 250.878 190.072 251.178C190.3 251.477 190.6 251.715 190.971 251.891C191.342 252.06 191.749 252.145 192.191 252.145C192.712 252.145 193.178 252.027 193.588 251.793C194.005 251.552 194.327 251.227 194.555 250.816C194.789 250.406 194.906 249.944 194.906 249.43C194.906 248.896 194.786 248.417 194.545 247.994C194.304 247.571 193.969 247.242 193.539 247.008C193.109 246.773 192.621 246.656 192.074 246.656C190.961 246.656 190.193 247.06 189.77 247.867H187.406L188.266 239.859H196.625V241.988H190.355L189.926 245.738H190.062C190.342 245.419 190.727 245.162 191.215 244.967C191.703 244.771 192.23 244.671 192.797 244.664C193.663 244.664 194.444 244.866 195.141 245.27C195.837 245.673 196.381 246.233 196.771 246.949C197.169 247.659 197.367 248.46 197.367 249.352C197.367 250.283 197.149 251.116 196.713 251.852C196.277 252.587 195.665 253.163 194.877 253.58C194.089 253.99 193.194 254.195 192.191 254.195Z" fill="#3E404B"/>
<path d="M56.791 320.576V328.479C56.791 329.226 56.5882 329.796 56.1826 330.188C55.7816 330.584 55.196 330.785 54.4258 330.789L54.125 330.775V329.531H54.3574C54.6947 329.531 54.9408 329.44 55.0957 329.258C55.2507 329.08 55.3281 328.816 55.3281 328.465V320.576H56.791ZM56.0391 319.428C55.875 319.428 55.7223 319.389 55.5811 319.312C55.4443 319.234 55.3327 319.129 55.2461 318.997C55.1641 318.865 55.123 318.721 55.123 318.566C55.123 318.411 55.1641 318.268 55.2461 318.136C55.3327 318.004 55.4466 317.899 55.5879 317.821C55.7337 317.744 55.8887 317.705 56.0527 317.705C56.2168 317.705 56.3695 317.744 56.5107 317.821C56.652 317.899 56.7637 318.004 56.8457 318.136C56.9277 318.268 56.9688 318.411 56.9688 318.566C56.9688 318.726 56.9255 318.872 56.8389 319.004C56.7568 319.136 56.6452 319.241 56.5039 319.318C56.3626 319.391 56.2077 319.428 56.0391 319.428ZM63.2852 320.576H64.7344V328H63.3125V326.715H63.2305C63.0527 327.13 62.7725 327.465 62.3896 327.72C62.0114 327.97 61.5534 328.096 61.0156 328.096C60.5326 328.096 60.1064 327.989 59.7373 327.774C59.3682 327.56 59.0811 327.243 58.876 326.824C58.6709 326.4 58.5684 325.89 58.5684 325.293V320.576H60.0312V325.115C60.0312 325.448 60.0951 325.74 60.2227 325.99C60.3503 326.241 60.5257 326.435 60.749 326.571C60.9769 326.703 61.2389 326.77 61.5352 326.77C61.8223 326.77 62.1003 326.701 62.3691 326.564C62.638 326.423 62.8568 326.214 63.0254 325.936C63.1986 325.653 63.2852 325.311 63.2852 324.91V320.576ZM67.9746 328H66.5117V320.576H67.9199V321.793H68.002C68.1797 321.378 68.4531 321.057 68.8223 320.829C69.196 320.597 69.6517 320.48 70.1895 320.48C70.6999 320.48 71.1442 320.588 71.5225 320.802C71.9053 321.016 72.1992 321.333 72.4043 321.752C72.6139 322.171 72.7188 322.682 72.7188 323.283V328H71.2695V323.461C71.265 322.919 71.1237 322.497 70.8457 322.196C70.5723 321.891 70.1895 321.738 69.6973 321.738C69.36 321.738 69.0615 321.811 68.8018 321.957C68.542 322.103 68.3392 322.317 68.1934 322.6C68.0475 322.878 67.9746 323.21 67.9746 323.598V328ZM77.6953 328.15C76.9753 328.15 76.3486 327.993 75.8154 327.679C75.2822 327.364 74.8743 326.92 74.5918 326.346C74.3092 325.771 74.168 325.102 74.168 324.336C74.168 323.579 74.3092 322.91 74.5918 322.326C74.8743 321.743 75.2754 321.289 75.7949 320.966C76.3145 320.642 76.916 320.48 77.5996 320.48C78.1966 320.48 78.7435 320.61 79.2402 320.87C79.737 321.13 80.1357 321.54 80.4365 322.101C80.7419 322.657 80.8945 323.361 80.8945 324.213V324.732H75.6172C75.6309 325.197 75.7266 325.596 75.9043 325.929C76.082 326.261 76.3258 326.514 76.6357 326.688C76.9456 326.861 77.3034 326.947 77.709 326.947C78.1009 326.947 78.4336 326.874 78.707 326.729C78.985 326.578 79.1901 326.382 79.3223 326.141H80.7988C80.6895 326.542 80.4935 326.895 80.2109 327.2C79.9284 327.501 79.5729 327.736 79.1445 327.904C78.7161 328.068 78.2331 328.15 77.6953 328.15ZM79.459 323.639C79.459 323.265 79.3815 322.93 79.2266 322.634C79.0762 322.333 78.8597 322.101 78.5771 321.937C78.2992 321.768 77.9779 321.684 77.6133 321.684C77.235 321.684 76.8978 321.772 76.6016 321.95C76.3099 322.123 76.0798 322.36 75.9111 322.661C75.7425 322.962 75.6468 323.288 75.624 323.639H79.459ZM84.4766 321.629L82.7539 322.736L82.2344 321.807L84.0527 320.891L82.2344 319.961L82.7539 319.031L84.4766 320.139L84.3809 318.102H85.4473L85.3516 320.139L87.0605 319.031L87.5938 319.961L85.7617 320.891L87.5938 321.807L87.0605 322.736L85.3516 321.629L85.4473 323.666H84.3809L84.4766 321.629ZM91.3945 321.629L89.6719 322.736L89.1523 321.807L90.9707 320.891L89.1523 319.961L89.6719 319.031L91.3945 320.139L91.2988 318.102H92.3652L92.2695 320.139L93.9785 319.031L94.5117 319.961L92.6797 320.891L94.5117 321.807L93.9785 322.736L92.2695 321.629L92.3652 323.666H91.2988L91.3945 321.629ZM98.3125 321.629L96.5898 322.736L96.0703 321.807L97.8887 320.891L96.0703 319.961L96.5898 319.031L98.3125 320.139L98.2168 318.102H99.2832L99.1875 320.139L100.896 319.031L101.43 319.961L99.5977 320.891L101.43 321.807L100.896 322.736L99.1875 321.629L99.2832 323.666H98.2168L98.3125 321.629ZM105.23 321.629L103.508 322.736L102.988 321.807L104.807 320.891L102.988 319.961L103.508 319.031L105.23 320.139L105.135 318.102H106.201L106.105 320.139L107.814 319.031L108.348 319.961L106.516 320.891L108.348 321.807L107.814 322.736L106.105 321.629L106.201 323.666H105.135L105.23 321.629ZM119.723 323.83H118.438V316.912H119.723V323.83ZM110.33 317.623H111.629V321.916C112.668 321.907 113.63 321.861 114.514 321.779C115.402 321.697 116.291 321.561 117.18 321.369L117.357 322.449C116.378 322.65 115.409 322.793 114.452 322.88C113.495 322.962 112.458 323.005 111.342 323.01H110.33V317.623ZM111.697 324.391H119.723V328.998H111.697V324.391ZM118.451 327.959V325.416H112.969V327.959H118.451ZM125.67 317.787C126.308 317.787 126.88 317.91 127.386 318.156C127.892 318.398 128.288 318.742 128.575 319.188C128.862 319.631 129.006 320.134 129.006 320.699C129.006 321.264 128.862 321.77 128.575 322.217C128.288 322.659 127.892 323.005 127.386 323.256C126.88 323.502 126.308 323.625 125.67 323.625C125.032 323.625 124.458 323.502 123.947 323.256C123.441 323.005 123.045 322.659 122.758 322.217C122.475 321.77 122.334 321.264 122.334 320.699C122.334 320.134 122.475 319.631 122.758 319.188C123.045 318.746 123.441 318.402 123.947 318.156C124.458 317.91 125.032 317.787 125.67 317.787ZM121.746 325.471C123.286 325.471 124.708 325.446 126.012 325.396C127.315 325.345 128.559 325.234 129.744 325.061L129.84 326.004C128.618 326.241 127.377 326.391 126.114 326.455C124.856 326.519 123.455 326.551 121.91 326.551L121.746 325.471ZM123.619 320.699C123.615 321.055 123.699 321.369 123.872 321.643C124.05 321.911 124.294 322.121 124.604 322.271C124.918 322.417 125.273 322.49 125.67 322.49C126.066 322.49 126.42 322.417 126.729 322.271C127.044 322.121 127.29 321.911 127.468 321.643C127.646 321.369 127.734 321.055 127.734 320.699C127.734 320.348 127.646 320.038 127.468 319.77C127.29 319.496 127.044 319.284 126.729 319.134C126.415 318.983 126.062 318.908 125.67 318.908C125.273 318.908 124.918 318.983 124.604 319.134C124.294 319.284 124.05 319.496 123.872 319.77C123.699 320.038 123.615 320.348 123.619 320.699ZM130.51 316.912H131.809V329.189H130.51V316.912ZM147.34 323.215H146.055V316.912H147.34V323.215ZM137.236 322.121C137.861 321.911 138.405 321.606 138.87 321.205C139.34 320.804 139.697 320.341 139.943 319.817C140.194 319.293 140.322 318.749 140.326 318.184V317.24H141.652V318.184C141.652 318.726 141.775 319.245 142.021 319.742C142.268 320.239 142.621 320.676 143.081 321.055C143.541 321.428 144.081 321.711 144.701 321.902L144.059 322.914C143.348 322.682 142.73 322.335 142.206 321.875C141.682 321.415 141.281 320.87 141.003 320.241C140.72 320.92 140.31 321.513 139.772 322.019C139.239 322.524 138.613 322.9 137.893 323.146L137.236 322.121ZM139.301 323.803H147.354V326.865H140.6V328H147.764V329.039H139.342V325.881H146.068V324.828H139.301V323.803ZM159.809 329.162H158.564V316.912H159.809V329.162ZM149.117 325.785C149.678 325.448 150.154 324.992 150.546 324.418C150.942 323.844 151.239 323.206 151.435 322.504C151.635 321.798 151.738 321.073 151.742 320.33V319.346H149.486V318.293H155.092V319.346H152.986V320.33C152.986 321.041 153.082 321.731 153.273 322.401C153.469 323.071 153.759 323.677 154.142 324.22C154.529 324.762 155.001 325.193 155.557 325.512L154.777 326.469C154.208 326.132 153.72 325.667 153.314 325.074C152.913 324.482 152.601 323.805 152.378 323.044C152.155 323.869 151.833 324.603 151.414 325.245C150.995 325.888 150.493 326.391 149.91 326.756L149.117 325.785ZM154.189 321.246H156.09V317.172H157.32V328.547H156.09V322.312H154.189V321.246ZM175.354 319.332H165.387V318.266H169.748V316.857H171.033V318.266H175.354V319.332ZM164.812 324.842H176.023V325.908H171.033V329.176H169.748V325.908H164.812V324.842ZM166.316 322.025C166.316 321.583 166.476 321.207 166.795 320.897C167.118 320.588 167.586 320.353 168.196 320.193C168.807 320.034 169.538 319.956 170.391 319.961C171.238 319.956 171.967 320.034 172.578 320.193C173.189 320.353 173.656 320.588 173.979 320.897C174.303 321.207 174.465 321.583 174.465 322.025C174.465 322.458 174.303 322.827 173.979 323.133C173.656 323.438 173.189 323.673 172.578 323.837C171.967 323.996 171.238 324.076 170.391 324.076C169.543 324.076 168.814 323.996 168.203 323.837C167.592 323.673 167.125 323.438 166.802 323.133C166.478 322.827 166.316 322.458 166.316 322.025ZM167.656 322.025C167.656 322.363 167.889 322.625 168.354 322.812C168.818 322.998 169.481 323.092 170.343 323.092C171.236 323.092 171.922 323.001 172.4 322.818C172.879 322.636 173.12 322.372 173.125 322.025C173.12 321.674 172.881 321.406 172.407 321.219C171.938 321.027 171.266 320.932 170.391 320.932C169.511 320.932 168.834 321.027 168.36 321.219C167.891 321.406 167.656 321.674 167.656 322.025ZM187.098 329.162H185.785V316.912H187.098V329.162ZM177.035 325.881C178.639 325.115 179.858 324.183 180.692 323.085C181.526 321.987 182.007 320.713 182.135 319.264H177.623V318.225H183.447C183.447 320.12 182.994 321.804 182.087 323.276C181.185 324.748 179.729 325.967 177.719 326.934L177.035 325.881Z" fill="#888CA0"/>
<defs>
<clipPath id="clip0_5204_8537">
<rect width="36" height="26" fill="white" transform="translate(54 42)"/>
</clipPath>
</defs>
</svg>
