<svg width="384" height="369" viewBox="0 0 384 369" fill="none" xmlns="http://www.w3.org/2000/svg">
<rect x="0.5" y="0.5" width="383" height="368" rx="29.5" fill="white"/>
<rect x="0.5" y="0.5" width="383" height="368" rx="29.5" stroke="#E6E6EF"/>
<g clip-path="url(#clip0_5204_8536)">
<path d="M69.905 46.571C67.3397 47.9876 64.7743 49.9876 63.0641 52.2376L64.1758 52.4043C67.8527 53.321 70.5036 56.321 70.5036 59.9876C70.5036 64.4043 66.9121 67.9043 62.38 67.9043C56.5653 67.9043 54 63.571 54 58.321C54 51.1543 59.6437 45.1543 65.886 41.9876L69.905 46.571ZM89.4014 46.571C86.8361 47.9876 84.2708 49.9876 82.5606 52.2376L83.6722 52.4043C87.3492 53.321 90 56.321 90 59.9876C90 64.4043 86.4086 67.9043 81.8765 67.9043C76.0618 67.9043 73.4964 63.571 73.4964 58.321C73.4964 51.1543 79.1401 45.1543 85.3824 41.9043L89.4014 46.4876V46.571Z" fill="#E6E6EF"/>
</g>
<path d="M71.8359 98.4219V100.766H57.0938V91.9531H71.625V94.3438H60.1641V98.4219H71.8359ZM54.6094 105.289V102.922H74.1328V105.289H65.7891V112.133H62.8359V105.289H54.6094ZM93.3516 90.8516V102.758H90.375V99.8047H86.8359V97.4375H90.375V95.5859H86.8359V93.1953H90.375V90.8516H93.3516ZM76.1719 94.0391V91.6484H85.6172V98.0234H79.1719V99.8984C82.3477 99.8867 84.2227 99.8281 86.4375 99.4297L86.6719 101.844C84.1406 102.277 81.9609 102.336 77.8125 102.336H76.2188V95.8203H82.6172V94.0391H76.1719ZM79.0078 111.922V103.555H81.9609V105.453H90.3984V103.555H93.3516V111.922H79.0078ZM81.9609 109.531H90.3984V107.75H81.9609V109.531ZM114.047 90.8281V112.156H111.023V90.8281H114.047ZM96.1875 106.109C101.695 103.508 104.121 100.133 104.602 95.3984H97.3359V93.0547H107.648C107.637 99.5234 105.375 104.902 97.7578 108.5L96.1875 106.109ZM127.734 92.5859V102.828H117.492V92.5859H127.734ZM119.953 111.781V104.867H122.93V109.391H134.555V111.781H119.953ZM120.445 100.484H124.781V94.9766H120.445V100.484ZM130.781 106.391V90.8281H133.781V96.9688H136.664V99.4297H133.781V106.391H130.781ZM161.461 90.8516V103.977H158.625V98.7266H156.961V103.742H154.172V91.1328H156.961V96.3125H158.625V90.8516H161.461ZM143.016 95.2344V92.8672H146.789V90.9453H149.766V92.8672H153.492V95.2344H143.016ZM143.672 99.6406C143.66 97.4023 145.617 95.9141 148.289 95.9141C150.996 95.9141 152.941 97.4023 152.953 99.6406C152.941 101.832 150.996 103.355 148.289 103.367C145.617 103.355 143.66 101.832 143.672 99.6406ZM144.328 109.672C147.094 108.875 148.336 106.953 148.336 105.078V104.633H151.312V105.078C151.289 106.637 151.992 108.242 153.668 109.309C155.367 108.184 156.117 106.508 156.141 105.078V104.633H159.117V105.078C159.094 107.059 160.289 108.957 163.125 109.672L161.742 111.898C159.68 111.266 158.32 110.023 157.57 108.453C156.891 110.023 155.66 111.406 153.727 112.109C151.746 111.418 150.492 110.117 149.801 108.559C149.039 110.059 147.691 111.266 145.734 111.898L144.328 109.672ZM146.344 99.6406C146.332 100.637 147.117 101.211 148.289 101.211C149.449 101.211 150.246 100.637 150.258 99.6406C150.246 98.5977 149.449 98.0469 148.289 98.0469C147.129 98.0469 146.332 98.5977 146.344 99.6406ZM171.914 104.445C171.902 106.191 172.617 107.984 174.363 109.191C176.121 107.902 176.836 106.027 176.859 104.445V103.578H179.789V104.445C179.801 106.672 180.961 108.781 183.867 109.672L182.344 111.875C180.316 111.172 179.004 109.848 178.266 108.195C177.562 109.836 176.309 111.289 174.375 112.062C172.418 111.336 171.164 109.941 170.461 108.277C169.699 109.871 168.387 111.16 166.453 111.875L165 109.672C167.812 108.734 168.996 106.566 169.008 104.445V103.578H171.914V104.445ZM164.133 97.0156C164.133 94.0742 166.57 91.9062 169.828 91.9297C172.523 91.9062 174.715 93.4766 175.301 95.7734H178.875V90.8281H181.852V102.781H178.875V98.2109H175.312C174.75 100.566 172.547 102.16 169.828 102.148C166.57 102.16 164.133 100.016 164.133 97.0156ZM167.016 97.0156C166.992 98.6445 168.188 99.6758 169.828 99.6641C171.422 99.6758 172.605 98.6445 172.617 97.0156C172.605 95.3867 171.422 94.4023 169.828 94.4141C168.188 94.4023 166.992 95.3867 167.016 97.0156ZM195.633 92.3047V94.6953H188.883V101.117C191.988 101.094 194.168 100.977 196.617 100.508L196.898 102.898C194.062 103.402 191.52 103.52 187.617 103.531H185.906V92.3047H195.633ZM188.414 111.828V105.078H191.414V109.438H203.109V111.828H188.414ZM194.391 98.7734V96.4062H199.617V90.8516H202.594V106.367H199.617V98.7734H194.391ZM221.906 92.5625V94.1797H225.891V90.8516H228.867V106.367H225.891V101.141H221.906V102.945H211.781V92.5625H221.906ZM214.664 111.781V104.891H217.688V109.391H229.312V111.781H214.664ZM214.758 100.625H218.977V94.9297H214.758V100.625ZM221.906 98.7734H225.891V96.5938H221.906V98.7734ZM249.609 90.8281V102.5H246.633V98.0469H243.258V95.6094H246.633V90.8281H249.609ZM231.516 100.531C234.879 99.4062 236.484 96.8281 236.637 94.2266H232.359V91.7891H243.938V94.2266H239.707C239.836 96.6055 241.371 99.0664 244.594 100.133L243.117 102.43C240.762 101.656 239.133 100.121 238.207 98.2109C237.258 100.344 235.559 102.055 233.039 102.875L231.516 100.531ZM235.383 111.922V103.32H238.336V105.336H246.633V103.32H249.609V111.922H235.383ZM238.336 109.531H246.633V107.633H238.336V109.531ZM270.867 90.8281V112.156H268.008V90.8281H270.867ZM252.562 100.062C252.562 95.293 254.379 92.3398 257.203 92.3516C259.77 92.3398 261.527 94.7422 261.855 98.7266H263.602V91.1328H266.414V111.172H263.602V101.094H261.879C261.621 105.277 259.828 107.82 257.203 107.82C254.379 107.82 252.562 104.855 252.562 100.062ZM255.328 100.062C255.305 103.344 256.008 104.961 257.203 104.938C258.434 104.961 259.16 103.344 259.148 100.062C259.16 96.793 258.434 95.1641 257.203 95.1641C256.008 95.1641 255.305 96.793 255.328 100.062ZM281.18 95.6562C281.191 99.6641 282.809 103.566 286.359 105.102L284.531 107.492C282.164 106.344 280.57 104.211 279.68 101.574C278.766 104.375 277.125 106.672 274.688 107.867L272.812 105.43C276.469 103.777 278.133 99.6641 278.156 95.6562V92.4688H281.18V95.6562ZM283.969 99.9453V97.5312H288.164V90.8281H291.117V112.203H288.164V99.9453H283.969ZM62.5078 130.641C62.4961 133.887 64.2305 137.637 67.7344 139.266L66.0703 141.609C63.6914 140.52 62.0039 138.34 61.043 135.785C60.0938 138.598 58.3359 140.988 55.875 142.148L54.1406 139.781C57.6914 138.129 59.4844 134.168 59.5078 130.641V129.328H54.9844V126.891H66.7969V129.328H62.5078V130.641ZM68.4609 146.156V124.828H71.4609V132.961H74.6016V135.469H71.4609V146.156H68.4609ZM93.2344 124.852V140.414H90.2344V124.852H93.2344ZM75.3047 135.141C78.8789 133.945 80.4375 130.98 80.4375 128.086V126.023H83.5547V128.086C83.5312 130.91 85.043 133.664 88.5469 134.789L87.0234 137.133C84.6094 136.336 82.957 134.742 82.0078 132.715C81.0469 134.895 79.3477 136.652 76.8516 137.508L75.3047 135.141ZM78.9375 145.781V138.914H81.9609V143.391H93.7969V145.781H78.9375ZM113.039 124.828V129.492H115.922V131.953H113.039V136.758H110.039V124.828H113.039ZM95.8828 134.859C100.676 133.664 103.312 131.297 103.793 128.461H96.9375V126.07H107.062C107.051 131.719 103.477 135.539 97.0781 137.227L95.8828 134.859ZM99.0938 145.898V137.555H113.039V145.898H99.0938ZM102.07 143.555H110.086V139.969H102.07V143.555ZM130.148 138.516C130.148 140.227 130.875 142.008 132.598 143.18C134.367 141.926 135.141 140.098 135.141 138.516V137.789H138.094V138.516C138.07 140.742 139.254 142.793 142.102 143.672L140.648 145.852C138.609 145.16 137.273 143.859 136.535 142.207C135.832 143.859 134.59 145.289 132.68 146.039C130.676 145.312 129.422 143.93 128.73 142.289C127.969 143.871 126.656 145.16 124.711 145.852L123.234 143.672C126.035 142.711 127.23 140.59 127.242 138.516V137.789H130.148V138.516ZM122.719 131.062C122.719 128.039 125.227 125.93 128.555 125.93C131.871 125.93 134.379 128.039 134.391 131.062C134.379 134.027 131.871 136.16 128.555 136.148C125.227 136.16 122.719 134.027 122.719 131.062ZM125.648 131.062C125.625 132.668 126.844 133.676 128.555 133.664C130.219 133.676 131.426 132.668 131.438 131.062C131.426 129.41 130.219 128.438 128.555 128.438C126.844 128.438 125.625 129.41 125.648 131.062ZM137.25 136.898V124.852H140.25V136.898H137.25ZM161.625 124.828V146.156H158.812V124.828H161.625ZM142.875 139.617C147.188 137.062 149.086 133.957 149.496 129.773H144.047V127.359H152.461C152.461 129.398 152.238 131.297 151.723 133.055H154.289V125.297H157.078V145.219H154.289V135.422H150.797C149.578 137.859 147.598 139.969 144.562 141.727L142.875 139.617ZM187.852 124.828V146.156H185.016V135.445H182.953V145.125H180.211V125.18H182.953V133.055H185.016V124.828H187.852ZM170.016 141.328V127.289H177.961V129.703H173.016V138.82C175.078 138.785 176.906 138.668 178.969 138.305L179.18 140.742C176.578 141.234 174.305 141.316 171.492 141.328H170.016ZM207.07 124.828V129.445H209.953V131.906H207.07V136.242H204.07V124.828H207.07ZM190.969 135.75V126.117H200.484V128.508H193.969V133.336C197.836 133.301 199.957 133.184 202.336 132.656L202.641 135.07C199.957 135.633 197.496 135.738 192.773 135.75H190.969ZM193.055 145.898V137.273H196.055V139.242H204.07V137.273H207.07V145.898H193.055ZM196.055 143.508H204.07V141.586H196.055V143.508ZM229.219 124.852V137.977H226.383V132.727H224.719V137.742H221.93V125.133H224.719V130.312H226.383V124.852H229.219ZM210.773 129.234V126.867H214.547V124.945H217.523V126.867H221.25V129.234H210.773ZM211.43 133.641C211.418 131.402 213.375 129.914 216.047 129.914C218.754 129.914 220.699 131.402 220.711 133.641C220.699 135.832 218.754 137.355 216.047 137.367C213.375 137.355 211.418 135.832 211.43 133.641ZM212.086 143.672C214.852 142.875 216.094 140.953 216.094 139.078V138.633H219.07V139.078C219.047 140.637 219.75 142.242 221.426 143.309C223.125 142.184 223.875 140.508 223.898 139.078V138.633H226.875V139.078C226.852 141.059 228.047 142.957 230.883 143.672L229.5 145.898C227.438 145.266 226.078 144.023 225.328 142.453C224.648 144.023 223.418 145.406 221.484 146.109C219.504 145.418 218.25 144.117 217.559 142.559C216.797 144.059 215.449 145.266 213.492 145.898L212.086 143.672ZM214.102 133.641C214.09 134.637 214.875 135.211 216.047 135.211C217.207 135.211 218.004 134.637 218.016 133.641C218.004 132.598 217.207 132.047 216.047 132.047C214.887 132.047 214.09 132.598 214.102 133.641ZM237.516 126.328C240.398 126.328 242.555 128.695 242.977 132.539H246.68V124.828H249.633V146.203H246.68V134.93H243.012C242.695 139.031 240.492 141.539 237.516 141.539C234.281 141.539 231.961 138.609 231.984 133.922C231.961 129.27 234.281 126.328 237.516 126.328ZM234.844 133.922C234.832 137.098 235.922 138.832 237.516 138.82C239.121 138.832 240.188 137.098 240.188 133.922C240.188 130.758 239.121 129.023 237.516 129.023C235.922 129.023 234.832 130.758 234.844 133.922ZM271.898 141.211V143.672H252.375V141.211H256.734V135.984C255.082 134.988 254.086 133.477 254.086 131.602C254.086 128.145 257.461 125.871 262.102 125.859C266.719 125.871 270.129 128.145 270.141 131.602C270.129 133.441 269.168 134.93 267.562 135.926V141.211H271.898ZM257.039 131.602C257.039 133.688 259.043 134.977 262.102 134.977C265.113 134.977 267.176 133.688 267.188 131.602C267.176 129.457 265.113 128.215 262.102 128.227C259.043 128.215 257.039 129.457 257.039 131.602ZM259.688 141.211H264.539V137.062C263.777 137.215 262.957 137.297 262.102 137.297C261.246 137.297 260.438 137.215 259.688 137.074V141.211Z" fill="#2B2D35"/>
<path d="M67.2812 177.266H61.6094V183.328H60.125V177.266H54.5156V176.031H58.0078C58.2474 175.13 58.4115 174.312 58.5 173.578C58.5938 172.844 58.6484 172.141 58.6641 171.469H55.5312V170.266H60.125V170.844C60.125 171.615 60.0885 172.404 60.0156 173.211C59.9479 174.013 59.7812 174.953 59.5156 176.031H63.8672C64.0651 175.125 64.1979 174.305 64.2656 173.57C64.3385 172.836 64.375 172.135 64.375 171.469H61.1406V170.266H65.8438V171V171.367C65.8438 172.049 65.8125 172.766 65.75 173.516C65.6875 174.266 65.5599 175.104 65.3672 176.031H67.2812V177.266ZM79.9688 171.188H75.7031C75.7292 171.688 75.9505 172.161 76.3672 172.609C76.7891 173.057 77.3516 173.438 78.0547 173.75C78.763 174.062 79.5469 174.271 80.4062 174.375L79.8438 175.547C79.0469 175.443 78.3047 175.255 77.6172 174.984C76.9349 174.708 76.3438 174.362 75.8438 173.945C75.3438 173.529 74.9714 173.062 74.7266 172.547C74.4766 173.062 74.1016 173.529 73.6016 173.945C73.1016 174.362 72.5104 174.708 71.8281 174.984C71.1458 175.255 70.4062 175.443 69.6094 175.547L69.0469 174.375C69.9062 174.271 70.6875 174.062 71.3906 173.75C72.099 173.438 72.6615 173.057 73.0781 172.609C73.4948 172.161 73.7135 171.688 73.7344 171.188H69.5156V170H79.9688V171.188ZM68.3281 176.453H81.1406V177.656H75.5781V180.375H74.1094V177.656H68.3281V176.453ZM69.9219 179.031H71.4062V181.828H79.7188V183.031H69.9219V179.031ZM93.7656 183.328H92.2812V169.328H93.7656V183.328ZM82.4844 171.547H85.9375V169.469H87.4375V171.547H90.9219V172.75H82.4844V171.547ZM83.2031 177.016C83.2031 176.391 83.3516 175.831 83.6484 175.336C83.9505 174.841 84.3698 174.456 84.9062 174.18C85.4427 173.904 86.0469 173.766 86.7188 173.766C87.3906 173.766 87.9948 173.904 88.5312 174.18C89.0677 174.456 89.487 174.841 89.7891 175.336C90.0964 175.831 90.25 176.391 90.25 177.016C90.25 177.646 90.0964 178.208 89.7891 178.703C89.487 179.198 89.0677 179.586 88.5312 179.867C87.9948 180.143 87.3906 180.281 86.7188 180.281C86.0469 180.281 85.4427 180.143 84.9062 179.867C84.3698 179.586 83.9505 179.198 83.6484 178.703C83.3516 178.208 83.2031 177.646 83.2031 177.016ZM84.6094 177.016C84.6094 177.417 84.6979 177.771 84.875 178.078C85.0573 178.385 85.3073 178.622 85.625 178.789C85.9479 178.956 86.3125 179.036 86.7188 179.031C87.125 179.036 87.487 178.956 87.8047 178.789C88.1276 178.622 88.3776 178.385 88.5547 178.078C88.737 177.771 88.8281 177.417 88.8281 177.016C88.8281 176.625 88.737 176.276 88.5547 175.969C88.3776 175.661 88.1276 175.422 87.8047 175.25C87.487 175.073 87.125 174.984 86.7188 174.984C86.3125 174.984 85.9479 175.073 85.625 175.25C85.3073 175.422 85.0573 175.661 84.875 175.969C84.6979 176.276 84.6094 176.625 84.6094 177.016ZM107.047 169.859C107.047 170.385 107.268 170.88 107.711 171.344C108.154 171.802 108.753 172.19 109.508 172.508C110.263 172.82 111.094 173.026 112 173.125L111.484 174.25C110.318 174.109 109.268 173.805 108.336 173.336C107.409 172.862 106.724 172.273 106.281 171.57C105.833 172.273 105.146 172.859 104.219 173.328C103.292 173.797 102.25 174.104 101.094 174.25L100.578 173.125C101.484 173.026 102.315 172.82 103.07 172.508C103.826 172.19 104.424 171.802 104.867 171.344C105.31 170.88 105.531 170.385 105.531 169.859V169.391H107.047V169.859ZM99.9062 175.062H112.672V176.25H107.016V177.5H111.062V180.812H102.906V182.047H111.453V183.188H101.453V179.734H109.594V178.641H101.438V177.5H105.531V176.25H99.9062V175.062ZM120.875 169.859C120.875 170.385 121.096 170.88 121.539 171.344C121.982 171.802 122.581 172.19 123.336 172.508C124.091 172.82 124.922 173.026 125.828 173.125L125.312 174.25C124.146 174.109 123.096 173.805 122.164 173.336C121.237 172.862 120.552 172.273 120.109 171.57C119.661 172.273 118.974 172.859 118.047 173.328C117.12 173.797 116.078 174.104 114.922 174.25L114.406 173.125C115.312 173.026 116.143 172.82 116.898 172.508C117.654 172.19 118.253 171.802 118.695 171.344C119.138 170.88 119.359 170.385 119.359 169.859V169.391H120.875V169.859ZM113.734 175.062H126.5V176.25H120.844V177.5H124.891V180.812H116.734V182.047H125.281V183.188H115.281V179.734H123.422V178.641H115.266V177.5H119.359V176.25H113.734V175.062ZM140.375 181.656H127.562V180.406H133.203V177.953H129.125V173.5H137.344V171.531H129.094V170.312H138.812V174.688H130.594V176.734H139.141V177.953H134.672V180.406H140.375V181.656ZM156.969 179.656H155.484V176.016H152.008C151.674 176.417 151.263 176.729 150.773 176.953C150.284 177.172 149.75 177.281 149.172 177.281C148.474 177.281 147.846 177.13 147.289 176.828C146.732 176.526 146.294 176.107 145.977 175.57C145.659 175.029 145.5 174.422 145.5 173.75C145.5 173.073 145.656 172.464 145.969 171.922C146.286 171.38 146.724 170.958 147.281 170.656C147.844 170.349 148.474 170.193 149.172 170.188C149.745 170.193 150.273 170.307 150.758 170.531C151.247 170.75 151.659 171.057 151.992 171.453H155.484V169.344H156.969V179.656ZM146.922 173.75C146.922 174.182 147.016 174.568 147.203 174.906C147.396 175.245 147.664 175.508 148.008 175.695C148.352 175.878 148.74 175.969 149.172 175.969C149.589 175.969 149.966 175.878 150.305 175.695C150.643 175.508 150.909 175.245 151.102 174.906C151.294 174.568 151.391 174.182 151.391 173.75C151.391 173.318 151.294 172.932 151.102 172.594C150.909 172.255 150.643 171.992 150.305 171.805C149.966 171.612 149.589 171.516 149.172 171.516C148.74 171.516 148.352 171.612 148.008 171.805C147.664 171.992 147.396 172.255 147.203 172.594C147.016 172.932 146.922 173.318 146.922 173.75ZM147.875 178.578H149.359V181.828H157.344V183.031H147.875V178.578ZM152.648 172.656C152.758 173 152.812 173.365 152.812 173.75C152.812 174.12 152.76 174.474 152.656 174.812H155.484V172.656H152.648ZM162.172 179.203H168.75V177.719H170.234V183.156H160.703V177.719H162.172V179.203ZM159.125 175.609H171.891V176.844H159.125V175.609ZM159.812 173.578C160.708 173.464 161.534 173.234 162.289 172.891C163.044 172.542 163.643 172.122 164.086 171.633C164.529 171.138 164.75 170.62 164.75 170.078V169.484H166.266V170.078C166.266 170.604 166.49 171.117 166.938 171.617C167.385 172.112 167.984 172.536 168.734 172.891C169.49 173.24 170.307 173.469 171.188 173.578L170.656 174.75C169.901 174.646 169.188 174.461 168.516 174.195C167.844 173.93 167.25 173.599 166.734 173.203C166.219 172.802 165.812 172.357 165.516 171.867C165.219 172.362 164.81 172.807 164.289 173.203C163.773 173.599 163.18 173.93 162.508 174.195C161.836 174.461 161.125 174.646 160.375 174.75L159.812 173.578ZM168.75 181.969V180.359H162.172V181.969H168.75ZM183.953 173.844H185.984V175.078H183.953V179.812H182.469V169.344H183.953V173.844ZM172.969 170.969H176.406V169.328H177.891V170.969H181.312V172.172H172.969V170.969ZM173.734 175.484C173.734 174.958 173.875 174.495 174.156 174.094C174.443 173.693 174.844 173.385 175.359 173.172C175.875 172.953 176.469 172.844 177.141 172.844C177.807 172.844 178.396 172.953 178.906 173.172C179.422 173.385 179.82 173.693 180.102 174.094C180.388 174.495 180.531 174.958 180.531 175.484C180.531 176.005 180.388 176.464 180.102 176.859C179.82 177.255 179.422 177.562 178.906 177.781C178.396 178 177.807 178.109 177.141 178.109C176.469 178.109 175.875 178 175.359 177.781C174.844 177.562 174.443 177.255 174.156 176.859C173.875 176.464 173.734 176.005 173.734 175.484ZM175.078 178.984H176.562V181.828H184.547V183.031H175.078V178.984ZM175.172 175.484C175.167 175.781 175.245 176.042 175.406 176.266C175.568 176.484 175.794 176.654 176.086 176.773C176.383 176.893 176.727 176.953 177.117 176.953C177.721 176.953 178.208 176.823 178.578 176.562C178.948 176.302 179.135 175.943 179.141 175.484C179.135 175.026 178.951 174.664 178.586 174.398C178.221 174.128 177.74 173.99 177.141 173.984C176.745 173.984 176.396 174.047 176.094 174.172C175.797 174.292 175.568 174.466 175.406 174.695C175.245 174.919 175.167 175.182 175.172 175.484ZM197.859 171.5H192.922V175.922C194.25 175.911 195.326 175.878 196.148 175.82C196.977 175.763 197.792 175.651 198.594 175.484L198.734 176.672C197.911 176.854 197.078 176.977 196.234 177.039C195.396 177.096 194.297 177.125 192.938 177.125H192.516H191.453V170.281H197.859V171.5ZM192.875 178.406H202.359V183.328H200.875V179.594H192.875V178.406ZM197.078 172.906H200.875V169.328H202.359V177.719H200.875V174.109H197.078V172.906ZM217.312 177.844H211.75V180.422H210.281V177.844H204.5V176.656H217.312V177.844ZM206.094 179.203H207.562V181.828H215.891V183.031H206.094V179.203ZM206.188 169.766H207.656V171.469H214.141V169.766H215.625V175.422H206.188V169.766ZM214.141 174.234V172.578H207.656V174.234H214.141ZM230.391 183.328H228.969V169.328H230.391V183.328ZM218.5 175.375C218.5 174.375 218.622 173.505 218.867 172.766C219.117 172.021 219.469 171.451 219.922 171.055C220.38 170.654 220.911 170.453 221.516 170.453C222.078 170.453 222.576 170.622 223.008 170.961C223.445 171.299 223.794 171.789 224.055 172.43C224.32 173.065 224.482 173.818 224.539 174.688H226.125V169.594H227.547V182.641H226.125V175.891H224.547C224.505 176.797 224.354 177.583 224.094 178.25C223.833 178.911 223.482 179.422 223.039 179.781C222.596 180.135 222.089 180.312 221.516 180.312C220.911 180.312 220.38 180.115 219.922 179.719C219.469 179.318 219.117 178.745 218.867 178C218.622 177.25 218.5 176.375 218.5 175.375ZM219.875 175.375C219.875 176.109 219.94 176.742 220.07 177.273C220.206 177.805 220.396 178.211 220.641 178.492C220.891 178.768 221.182 178.906 221.516 178.906C221.859 178.906 222.156 178.768 222.406 178.492C222.656 178.211 222.849 177.805 222.984 177.273C223.12 176.742 223.188 176.109 223.188 175.375C223.188 174.635 223.12 174.003 222.984 173.477C222.849 172.945 222.656 172.542 222.406 172.266C222.156 171.984 221.859 171.844 221.516 171.844C221.182 171.844 220.891 171.984 220.641 172.266C220.396 172.542 220.206 172.945 220.07 173.477C219.94 174.008 219.875 174.641 219.875 175.375ZM247.672 176.531H246.203V169.328H247.672V176.531ZM236.125 175.281C236.839 175.042 237.461 174.693 237.992 174.234C238.529 173.776 238.938 173.247 239.219 172.648C239.505 172.049 239.651 171.427 239.656 170.781V169.703H241.172V170.781C241.172 171.401 241.312 171.995 241.594 172.562C241.875 173.13 242.279 173.63 242.805 174.062C243.331 174.49 243.948 174.812 244.656 175.031L243.922 176.188C243.109 175.922 242.404 175.526 241.805 175C241.206 174.474 240.747 173.852 240.43 173.133C240.107 173.909 239.638 174.586 239.023 175.164C238.414 175.742 237.698 176.172 236.875 176.453L236.125 175.281ZM238.484 177.203H247.688V180.703H239.969V182H248.156V183.188H238.531V179.578H246.219V178.375H238.484V177.203ZM261.922 183.328H260.5V169.328H261.922V183.328ZM249.703 179.469C250.344 179.083 250.888 178.562 251.336 177.906C251.789 177.25 252.128 176.521 252.352 175.719C252.581 174.911 252.698 174.083 252.703 173.234V172.109H250.125V170.906H256.531V172.109H254.125V173.234C254.125 174.047 254.234 174.836 254.453 175.602C254.677 176.367 255.008 177.06 255.445 177.68C255.888 178.299 256.427 178.792 257.062 179.156L256.172 180.25C255.521 179.865 254.964 179.333 254.5 178.656C254.042 177.979 253.685 177.206 253.43 176.336C253.174 177.279 252.807 178.117 252.328 178.852C251.849 179.586 251.276 180.161 250.609 180.578L249.703 179.469ZM255.5 174.281H257.672V169.625H259.078V182.625H257.672V175.5H255.5V174.281ZM274.781 171.703H277.828V169.344H279.312V179.547H277.828V175.922H274.781V177.141H268.281V170.516H274.781V171.703ZM273.328 175.969V171.719H269.75V175.969H273.328ZM270.172 178.609H271.672V181.828H279.625V183.031H270.172V178.609ZM277.828 174.703V172.922H274.781V174.703H277.828ZM293.125 176.953H291.656V173.859H289.031V172.641H291.656V169.328H293.125V176.953ZM281.484 176.016C282.188 175.771 282.802 175.417 283.328 174.953C283.859 174.49 284.266 173.958 284.547 173.359C284.828 172.76 284.969 172.141 284.969 171.5V171.312H281.938V170.109H289.484V171.312H286.484V171.516C286.479 172.094 286.612 172.661 286.883 173.219C287.159 173.776 287.552 174.276 288.062 174.719C288.573 175.156 289.172 175.49 289.859 175.719L289.094 176.875C288.318 176.599 287.643 176.198 287.07 175.672C286.497 175.141 286.057 174.526 285.75 173.828C285.443 174.609 284.987 175.294 284.383 175.883C283.784 176.466 283.073 176.901 282.25 177.188L281.484 176.016ZM284.016 177.578H285.484V179.188H291.656V177.578H293.125V183.156H284.016V177.578ZM291.656 181.953V180.344H285.484V181.953H291.656ZM65.5312 196.875H67.5469V198.094H65.5312V201.594H64.0312V193.328H65.5312V196.875ZM55.1094 194.359H61.3594V195.562H56.5781V199.375C58.0365 199.365 59.2031 199.331 60.0781 199.273C60.9531 199.211 61.8125 199.094 62.6562 198.922L62.7969 200.125C61.901 200.307 60.9818 200.43 60.0391 200.492C59.1016 200.549 57.8281 200.578 56.2188 200.578H55.1094V194.359ZM56.2969 204.578C56.2969 204.016 56.487 203.531 56.8672 203.125C57.2474 202.714 57.7891 202.401 58.4922 202.188C59.2005 201.969 60.0365 201.859 61 201.859C61.9531 201.859 62.776 201.969 63.4688 202.188C64.1667 202.401 64.7031 202.714 65.0781 203.125C65.4531 203.531 65.6406 204.016 65.6406 204.578C65.6406 205.146 65.4531 205.633 65.0781 206.039C64.7031 206.451 64.1667 206.763 63.4688 206.977C62.7708 207.19 61.9479 207.297 61 207.297C60.0365 207.297 59.2005 207.19 58.4922 206.977C57.7891 206.763 57.2474 206.451 56.8672 206.039C56.487 205.633 56.2969 205.146 56.2969 204.578ZM57.7656 204.578C57.7656 204.896 57.8906 205.169 58.1406 205.398C58.3958 205.628 58.763 205.805 59.2422 205.93C59.7266 206.049 60.2995 206.109 60.9609 206.109C61.6276 206.109 62.2057 206.049 62.6953 205.93C63.1849 205.81 63.5599 205.635 63.8203 205.406C64.0859 205.177 64.2188 204.901 64.2188 204.578C64.2188 204.26 64.0885 203.99 63.8281 203.766C63.5729 203.536 63.2057 203.362 62.7266 203.242C62.2526 203.122 61.6901 203.062 61.0391 203.062C60.0078 203.062 59.2031 203.195 58.625 203.461C58.0469 203.721 57.7604 204.094 57.7656 204.578ZM72.3125 193.797C73.0104 193.802 73.638 193.94 74.1953 194.211C74.7526 194.477 75.1901 194.846 75.5078 195.32C75.8255 195.794 75.9844 196.333 75.9844 196.938C75.9844 197.542 75.8255 198.081 75.5078 198.555C75.1901 199.029 74.7526 199.398 74.1953 199.664C73.638 199.93 73.0104 200.062 72.3125 200.062C71.6094 200.062 70.9766 199.93 70.4141 199.664C69.8568 199.398 69.4193 199.029 69.1016 198.555C68.7839 198.081 68.625 197.542 68.625 196.938C68.625 196.333 68.7839 195.794 69.1016 195.32C69.4193 194.846 69.8568 194.477 70.4141 194.211C70.9766 193.94 71.6094 193.802 72.3125 193.797ZM70.0781 196.938C70.0781 197.318 70.1719 197.654 70.3594 197.945C70.5521 198.232 70.8177 198.456 71.1562 198.617C71.5 198.779 71.8854 198.859 72.3125 198.859C72.7396 198.859 73.1224 198.779 73.4609 198.617C73.7995 198.456 74.0651 198.232 74.2578 197.945C74.4505 197.654 74.5469 197.318 74.5469 196.938C74.5469 196.562 74.4505 196.232 74.2578 195.945C74.0651 195.654 73.7969 195.43 73.4531 195.273C73.1146 195.117 72.7344 195.042 72.3125 195.047C71.8854 195.042 71.5 195.117 71.1562 195.273C70.8177 195.43 70.5521 195.654 70.3594 195.945C70.1719 196.232 70.0781 196.562 70.0781 196.938ZM70.75 201.094H79.9531V204.625H72.2344V205.969H80.4219V207.156H70.7969V203.516H78.4844V202.281H70.75V201.094ZM78.4688 193.328H79.9531V200.453H78.4688V193.328ZM94.2188 207.328H92.7969V193.328H94.2188V207.328ZM82.3281 199.375C82.3281 198.375 82.4505 197.505 82.6953 196.766C82.9453 196.021 83.2969 195.451 83.75 195.055C84.2083 194.654 84.7396 194.453 85.3438 194.453C85.9062 194.453 86.4036 194.622 86.8359 194.961C87.2734 195.299 87.6224 195.789 87.8828 196.43C88.1484 197.065 88.3099 197.818 88.3672 198.688H89.9531V193.594H91.375V206.641H89.9531V199.891H88.375C88.3333 200.797 88.1823 201.583 87.9219 202.25C87.6615 202.911 87.3099 203.422 86.8672 203.781C86.4245 204.135 85.9167 204.312 85.3438 204.312C84.7396 204.312 84.2083 204.115 83.75 203.719C83.2969 203.318 82.9453 202.745 82.6953 202C82.4505 201.25 82.3281 200.375 82.3281 199.375ZM83.7031 199.375C83.7031 200.109 83.7682 200.742 83.8984 201.273C84.0339 201.805 84.224 202.211 84.4688 202.492C84.7188 202.768 85.0104 202.906 85.3438 202.906C85.6875 202.906 85.9844 202.768 86.2344 202.492C86.4844 202.211 86.6771 201.805 86.8125 201.273C86.9479 200.742 87.0156 200.109 87.0156 199.375C87.0156 198.635 86.9479 198.003 86.8125 197.477C86.6771 196.945 86.4844 196.542 86.2344 196.266C85.9844 195.984 85.6875 195.844 85.3438 195.844C85.0104 195.844 84.7188 195.984 84.4688 196.266C84.224 196.542 84.0339 196.945 83.8984 197.477C83.7682 198.008 83.7031 198.641 83.7031 199.375ZM107.344 200.969H103.109V204.391H108.812V205.609H96V204.391H101.641V200.969H97.5938V194.406H107.219V195.609H99.0781V199.781H107.344V200.969ZM118.609 197.453C118.609 198.188 118.76 198.932 119.062 199.688C119.365 200.438 119.786 201.12 120.328 201.734C120.875 202.344 121.495 202.812 122.188 203.141L121.344 204.297C120.573 203.927 119.885 203.375 119.281 202.641C118.677 201.901 118.214 201.068 117.891 200.141C117.568 201.146 117.091 202.052 116.461 202.859C115.836 203.661 115.13 204.26 114.344 204.656L113.469 203.484C114.161 203.151 114.786 202.661 115.344 202.016C115.906 201.365 116.346 200.638 116.664 199.836C116.982 199.029 117.141 198.234 117.141 197.453V195.969H113.984V194.734H121.656V195.969H118.609V197.453ZM123.156 193.328H124.641V198.875H126.891V200.125H124.641V207.328H123.156V193.328ZM139.172 203.594H137.688V193.344H139.172V203.594ZM127.641 200.438C128.359 200.172 128.982 199.786 129.508 199.281C130.034 198.776 130.435 198.195 130.711 197.539C130.992 196.883 131.135 196.203 131.141 195.5V194.109H132.656V195.5C132.656 196.182 132.794 196.833 133.07 197.453C133.346 198.073 133.745 198.62 134.266 199.094C134.786 199.568 135.401 199.927 136.109 200.172L135.344 201.359C134.542 201.062 133.846 200.63 133.258 200.062C132.674 199.49 132.224 198.82 131.906 198.055C131.594 198.878 131.138 199.599 130.539 200.219C129.945 200.833 129.245 201.297 128.438 201.609L127.641 200.438ZM130.016 202.625H131.516V205.828H139.594V207.031H130.016V202.625ZM152.391 196.625H154.422V197.859H152.391V201.234H150.906V193.328H152.391V196.625ZM141.328 200.25C142.438 199.958 143.393 199.576 144.195 199.102C145.003 198.622 145.635 198.073 146.094 197.453C146.552 196.828 146.828 196.151 146.922 195.422H141.984V194.203H148.531C148.531 195.385 148.271 196.453 147.75 197.406C147.229 198.359 146.477 199.177 145.492 199.859C144.508 200.536 143.318 201.062 141.922 201.438L141.328 200.25ZM143.422 201.828H152.391V207.141H143.422V201.828ZM150.922 205.953V203.062H144.906V205.953H150.922ZM163.984 202.578C163.984 203.208 164.143 203.815 164.461 204.398C164.779 204.977 165.242 205.448 165.852 205.812C166.263 205.547 166.612 205.232 166.898 204.867C167.19 204.503 167.406 204.122 167.547 203.727C167.693 203.331 167.766 202.948 167.766 202.578V201.906H169.219V202.578C169.214 203.068 169.318 203.542 169.531 204C169.745 204.453 170.06 204.857 170.477 205.211C170.898 205.565 171.406 205.839 172 206.031L171.266 207.125C170.589 206.891 170.013 206.552 169.539 206.109C169.065 205.672 168.703 205.159 168.453 204.57C168.219 205.164 167.885 205.695 167.453 206.164C167.026 206.633 166.505 206.995 165.891 207.25C165.245 207.005 164.701 206.654 164.258 206.195C163.82 205.737 163.49 205.208 163.266 204.609C163.005 205.177 162.641 205.68 162.172 206.117C161.708 206.555 161.156 206.891 160.516 207.125L159.766 206.031C160.344 205.823 160.841 205.536 161.258 205.172C161.68 204.802 161.997 204.393 162.211 203.945C162.43 203.492 162.542 203.036 162.547 202.578V201.906H163.984V202.578ZM159.406 197.422C159.406 196.781 159.568 196.211 159.891 195.711C160.214 195.206 160.659 194.812 161.227 194.531C161.794 194.25 162.432 194.109 163.141 194.109C163.849 194.109 164.484 194.25 165.047 194.531C165.615 194.812 166.057 195.206 166.375 195.711C166.698 196.211 166.859 196.781 166.859 197.422C166.859 198.057 166.698 198.625 166.375 199.125C166.057 199.62 165.615 200.008 165.047 200.289C164.484 200.565 163.849 200.703 163.141 200.703C162.432 200.703 161.794 200.565 161.227 200.289C160.659 200.008 160.214 199.62 159.891 199.125C159.568 198.625 159.406 198.057 159.406 197.422ZM160.859 197.422C160.859 197.823 160.956 198.18 161.148 198.492C161.341 198.799 161.612 199.039 161.961 199.211C162.31 199.383 162.703 199.469 163.141 199.469C163.573 199.469 163.961 199.383 164.305 199.211C164.648 199.039 164.917 198.799 165.109 198.492C165.307 198.18 165.406 197.823 165.406 197.422C165.406 197.021 165.307 196.664 165.109 196.352C164.917 196.039 164.648 195.799 164.305 195.633C163.961 195.461 163.573 195.375 163.141 195.375C162.703 195.375 162.31 195.461 161.961 195.633C161.612 195.799 161.341 196.039 161.148 196.352C160.956 196.664 160.859 197.021 160.859 197.422ZM169.25 193.344H170.734V201.312H169.25V193.344ZM184.984 207.328H183.578V193.328H184.984V207.328ZM172.906 203.281C174.365 202.417 175.471 201.404 176.227 200.242C176.982 199.076 177.424 197.755 177.555 196.281H173.562V195.062H179.031C179.021 196.5 178.812 197.797 178.406 198.953H180.625V193.688H182.031V206.641H180.625V200.141H177.891C177.026 201.833 175.646 203.234 173.75 204.344L172.906 203.281ZM202.703 207.328H201.281V200.094H199.469V206.609H198.109V193.609H199.469V198.875H201.281V193.328H202.703V207.328ZM191.156 195.016H196.406V196.219H192.641V202.703C193.552 202.698 194.352 202.669 195.039 202.617C195.732 202.565 196.438 202.469 197.156 202.328L197.266 203.547C196.484 203.708 195.714 203.818 194.953 203.875C194.198 203.927 193.245 203.958 192.094 203.969H191.156V195.016ZM215.516 196.531H217.547V197.766H215.516V200.797H214.031V193.328H215.516V196.531ZM205.141 194.219H211.359V195.438H206.609V199.156C208.052 199.146 209.206 199.109 210.07 199.047C210.935 198.984 211.786 198.865 212.625 198.688L212.797 199.891C211.891 200.083 210.969 200.211 210.031 200.273C209.099 200.336 207.839 200.37 206.25 200.375H205.141V194.219ZM206.547 201.531H208.016V203.125H214.031V201.531H215.516V207.109H206.547V201.531ZM214.031 205.906V204.297H208.016V205.906H214.031ZM229.344 196.562H231.391V197.781H229.344V200.984H227.859V193.281H229.344V196.562ZM218.359 194.516H221.797V193.203H223.281V194.516H226.703V195.688H218.359V194.516ZM219.125 198.516C219.125 198.052 219.263 197.648 219.539 197.305C219.82 196.956 220.219 196.688 220.734 196.5C221.25 196.312 221.849 196.219 222.531 196.219C223.214 196.219 223.81 196.312 224.32 196.5C224.831 196.688 225.224 196.953 225.5 197.297C225.781 197.641 225.922 198.047 225.922 198.516C225.922 198.984 225.781 199.391 225.5 199.734C225.224 200.078 224.831 200.341 224.32 200.523C223.81 200.706 223.214 200.797 222.531 200.797C221.849 200.797 221.25 200.706 220.734 200.523C220.219 200.341 219.82 200.078 219.539 199.734C219.263 199.391 219.125 198.984 219.125 198.516ZM220.297 201.641H229.344V204.891H221.781V206.062H229.828V207.188H220.328V203.844H227.875V202.75H220.297V201.641ZM220.562 198.516C220.557 198.891 220.732 199.185 221.086 199.398C221.44 199.612 221.922 199.719 222.531 199.719C223.135 199.719 223.617 199.612 223.977 199.398C224.341 199.185 224.526 198.891 224.531 198.516C224.526 198.141 224.341 197.844 223.977 197.625C223.617 197.401 223.135 197.286 222.531 197.281C221.922 197.286 221.44 197.401 221.086 197.625C220.732 197.844 220.557 198.141 220.562 198.516ZM243.25 194.562C243.25 195.172 243.474 195.758 243.922 196.32C244.375 196.883 244.984 197.362 245.75 197.758C246.521 198.154 247.359 198.411 248.266 198.531L247.688 199.75C246.927 199.63 246.206 199.422 245.523 199.125C244.841 198.828 244.237 198.461 243.711 198.023C243.19 197.581 242.779 197.089 242.477 196.547C242.174 197.089 241.76 197.581 241.234 198.023C240.714 198.461 240.115 198.828 239.438 199.125C238.76 199.417 238.042 199.625 237.281 199.75L236.688 198.531C237.594 198.411 238.43 198.156 239.195 197.766C239.961 197.375 240.57 196.898 241.023 196.336C241.477 195.768 241.703 195.177 241.703 194.562V193.797H243.25V194.562ZM236.078 201.125H248.844V202.344H243.156V207.328H241.703V202.344H236.078V201.125ZM258.672 202.578C258.672 203.208 258.831 203.815 259.148 204.398C259.466 204.977 259.93 205.448 260.539 205.812C260.951 205.547 261.299 205.232 261.586 204.867C261.878 204.503 262.094 204.122 262.234 203.727C262.38 203.331 262.453 202.948 262.453 202.578V201.906H263.906V202.578C263.901 203.068 264.005 203.542 264.219 204C264.432 204.453 264.747 204.857 265.164 205.211C265.586 205.565 266.094 205.839 266.688 206.031L265.953 207.125C265.276 206.891 264.701 206.552 264.227 206.109C263.753 205.672 263.391 205.159 263.141 204.57C262.906 205.164 262.573 205.695 262.141 206.164C261.714 206.633 261.193 206.995 260.578 207.25C259.932 207.005 259.388 206.654 258.945 206.195C258.508 205.737 258.177 205.208 257.953 204.609C257.693 205.177 257.328 205.68 256.859 206.117C256.396 206.555 255.844 206.891 255.203 207.125L254.453 206.031C255.031 205.823 255.529 205.536 255.945 205.172C256.367 204.802 256.685 204.393 256.898 203.945C257.117 203.492 257.229 203.036 257.234 202.578V201.906H258.672V202.578ZM254.094 197.422C254.094 196.781 254.255 196.211 254.578 195.711C254.901 195.206 255.346 194.812 255.914 194.531C256.482 194.25 257.12 194.109 257.828 194.109C258.536 194.109 259.172 194.25 259.734 194.531C260.302 194.812 260.745 195.206 261.062 195.711C261.385 196.211 261.547 196.781 261.547 197.422C261.547 198.057 261.385 198.625 261.062 199.125C260.745 199.62 260.302 200.008 259.734 200.289C259.172 200.565 258.536 200.703 257.828 200.703C257.12 200.703 256.482 200.565 255.914 200.289C255.346 200.008 254.901 199.62 254.578 199.125C254.255 198.625 254.094 198.057 254.094 197.422ZM255.547 197.422C255.547 197.823 255.643 198.18 255.836 198.492C256.029 198.799 256.299 199.039 256.648 199.211C256.997 199.383 257.391 199.469 257.828 199.469C258.26 199.469 258.648 199.383 258.992 199.211C259.336 199.039 259.604 198.799 259.797 198.492C259.995 198.18 260.094 197.823 260.094 197.422C260.094 197.021 259.995 196.664 259.797 196.352C259.604 196.039 259.336 195.799 258.992 195.633C258.648 195.461 258.26 195.375 257.828 195.375C257.391 195.375 256.997 195.461 256.648 195.633C256.299 195.799 256.029 196.039 255.836 196.352C255.643 196.664 255.547 197.021 255.547 197.422ZM263.938 193.344H265.422V201.312H263.938V193.344ZM272.609 202.562C272.609 203.198 272.768 203.807 273.086 204.391C273.404 204.969 273.867 205.445 274.477 205.82C274.888 205.555 275.234 205.237 275.516 204.867C275.802 204.497 276.016 204.112 276.156 203.711C276.297 203.31 276.37 202.927 276.375 202.562V201.812H277.828V202.562C277.828 203.052 277.935 203.526 278.148 203.984C278.362 204.443 278.68 204.852 279.102 205.211C279.529 205.57 280.042 205.844 280.641 206.031L279.875 207.141C279.203 206.901 278.63 206.557 278.156 206.109C277.688 205.667 277.328 205.148 277.078 204.555C276.839 205.154 276.503 205.69 276.07 206.164C275.643 206.643 275.12 207.01 274.5 207.266C273.859 207.021 273.32 206.667 272.883 206.203C272.445 205.745 272.112 205.216 271.883 204.617C271.628 205.185 271.266 205.688 270.797 206.125C270.333 206.562 269.781 206.901 269.141 207.141L268.422 206.031C269 205.828 269.495 205.544 269.906 205.18C270.323 204.81 270.638 204.398 270.852 203.945C271.07 203.487 271.182 203.026 271.188 202.562V201.812H272.609V202.562ZM267.859 197.406C267.859 196.771 268.016 196.203 268.328 195.703C268.646 195.198 269.081 194.805 269.633 194.523C270.19 194.237 270.818 194.094 271.516 194.094C272.115 194.094 272.664 194.206 273.164 194.43C273.669 194.648 274.089 194.961 274.422 195.367C274.76 195.768 274.982 196.229 275.086 196.75H277.828V193.328H279.312V201.266H277.828V197.969H275.109C275.016 198.505 274.799 198.982 274.461 199.398C274.128 199.81 273.706 200.13 273.195 200.359C272.685 200.589 272.125 200.703 271.516 200.703C270.818 200.703 270.19 200.562 269.633 200.281C269.081 200 268.646 199.609 268.328 199.109C268.016 198.609 267.859 198.042 267.859 197.406ZM269.281 197.406C269.281 197.802 269.375 198.159 269.562 198.477C269.755 198.789 270.021 199.034 270.359 199.211C270.703 199.383 271.089 199.469 271.516 199.469C271.932 199.469 272.307 199.383 272.641 199.211C272.979 199.034 273.245 198.789 273.438 198.477C273.635 198.159 273.734 197.802 273.734 197.406C273.734 197 273.638 196.641 273.445 196.328C273.253 196.016 272.987 195.773 272.648 195.602C272.31 195.43 271.932 195.344 271.516 195.344C271.089 195.344 270.703 195.43 270.359 195.602C270.021 195.773 269.755 196.016 269.562 196.328C269.375 196.641 269.281 197 269.281 197.406ZM285.266 194.375C285.896 194.375 286.464 194.547 286.969 194.891C287.474 195.234 287.883 195.721 288.195 196.352C288.513 196.982 288.708 197.724 288.781 198.578H291.672V193.328H293.141V207.359H291.672V199.781H288.797C288.745 200.682 288.562 201.466 288.25 202.133C287.938 202.799 287.523 203.312 287.008 203.672C286.492 204.026 285.911 204.203 285.266 204.203C284.573 204.203 283.956 204.003 283.414 203.602C282.878 203.201 282.458 202.628 282.156 201.883C281.859 201.138 281.714 200.271 281.719 199.281C281.714 198.302 281.859 197.443 282.156 196.703C282.458 195.958 282.878 195.385 283.414 194.984C283.956 194.578 284.573 194.375 285.266 194.375ZM283.125 199.281C283.125 200.01 283.214 200.646 283.391 201.188C283.573 201.729 283.826 202.146 284.148 202.438C284.471 202.729 284.844 202.875 285.266 202.875C285.688 202.875 286.06 202.729 286.383 202.438C286.706 202.146 286.956 201.729 287.133 201.188C287.315 200.646 287.406 200.01 287.406 199.281C287.406 198.562 287.315 197.935 287.133 197.398C286.951 196.857 286.698 196.44 286.375 196.148C286.057 195.852 285.688 195.703 285.266 195.703C284.844 195.703 284.471 195.852 284.148 196.148C283.831 196.44 283.581 196.857 283.398 197.398C283.216 197.935 283.125 198.562 283.125 199.281ZM308.109 205.578H295.297V204.344H298.359V200.688C297.771 200.365 297.315 199.956 296.992 199.461C296.669 198.966 296.51 198.411 296.516 197.797C296.516 197.073 296.734 196.435 297.172 195.883C297.609 195.331 298.219 194.904 299 194.602C299.786 194.294 300.677 194.141 301.672 194.141C302.667 194.141 303.557 194.294 304.344 194.602C305.13 194.904 305.742 195.331 306.18 195.883C306.622 196.435 306.844 197.073 306.844 197.797C306.844 198.406 306.688 198.956 306.375 199.445C306.062 199.93 305.62 200.333 305.047 200.656V204.344H308.109V205.578ZM297.953 197.797C297.953 198.292 298.109 198.727 298.422 199.102C298.734 199.477 299.172 199.768 299.734 199.977C300.297 200.18 300.943 200.281 301.672 200.281C302.396 200.281 303.039 200.177 303.602 199.969C304.169 199.76 304.612 199.471 304.93 199.102C305.247 198.727 305.406 198.292 305.406 197.797C305.406 197.302 305.247 196.87 304.93 196.5C304.612 196.125 304.169 195.836 303.602 195.633C303.039 195.43 302.396 195.328 301.672 195.328C300.943 195.328 300.297 195.43 299.734 195.633C299.172 195.836 298.734 196.125 298.422 196.5C298.109 196.87 297.953 197.302 297.953 197.797ZM303.547 204.344V201.234C302.964 201.37 302.339 201.438 301.672 201.438C301.016 201.438 300.401 201.37 299.828 201.234V204.344H303.547ZM310.719 206.109C310.521 206.109 310.336 206.06 310.164 205.961C309.997 205.862 309.862 205.729 309.758 205.562C309.659 205.396 309.609 205.214 309.609 205.016C309.609 204.812 309.659 204.625 309.758 204.453C309.857 204.281 309.99 204.146 310.156 204.047C310.328 203.943 310.516 203.891 310.719 203.891C310.917 203.891 311.099 203.94 311.266 204.039C311.438 204.138 311.573 204.273 311.672 204.445C311.776 204.617 311.828 204.802 311.828 205C311.828 205.198 311.776 205.383 311.672 205.555C311.573 205.721 311.438 205.857 311.266 205.961C311.099 206.06 310.917 206.109 310.719 206.109Z" fill="#636572"/>
<path d="M65.1049 237.538C65.4846 236.821 66.5153 236.821 66.8951 237.538L69.4796 242.419C69.626 242.696 69.8929 242.889 70.2021 242.942L75.6596 243.883C76.4613 244.021 76.7798 244.998 76.2127 245.579L72.3526 249.537C72.1339 249.761 72.0319 250.074 72.0766 250.383L72.865 255.846C72.9808 256.649 72.147 257.252 71.4168 256.895L66.4465 254.459C66.1649 254.321 65.8351 254.321 65.5535 254.459L60.5832 256.895C59.853 257.252 59.0192 256.649 59.135 255.846L59.9234 250.383C59.9681 250.074 59.8661 249.761 59.6474 249.537L55.7873 245.579C55.2202 244.998 55.5387 244.021 56.3404 243.883L61.7979 242.942C62.1071 242.889 62.374 242.696 62.5204 242.419L65.1049 237.538Z" fill="#576DFC"/>
<path d="M91.1049 237.538C91.4846 236.821 92.5153 236.821 92.8951 237.538L95.4796 242.419C95.626 242.696 95.8929 242.889 96.2021 242.942L101.66 243.883C102.461 244.021 102.78 244.998 102.213 245.579L98.3526 249.537C98.1339 249.761 98.0319 250.074 98.0766 250.383L98.865 255.846C98.9808 256.649 98.147 257.252 97.4168 256.895L92.4465 254.459C92.1649 254.321 91.8351 254.321 91.5535 254.459L86.5832 256.895C85.853 257.252 85.0192 256.649 85.135 255.846L85.9234 250.383C85.9681 250.074 85.8661 249.761 85.6474 249.537L81.7873 245.579C81.2202 244.998 81.5387 244.021 82.3404 243.883L87.7979 242.942C88.1071 242.889 88.374 242.696 88.5204 242.419L91.1049 237.538Z" fill="#576DFC"/>
<path d="M117.105 237.538C117.485 236.821 118.515 236.821 118.895 237.538L121.48 242.419C121.626 242.696 121.893 242.889 122.202 242.942L127.66 243.883C128.461 244.021 128.78 244.998 128.213 245.579L124.353 249.537C124.134 249.761 124.032 250.074 124.077 250.383L124.865 255.846C124.981 256.649 124.147 257.252 123.417 256.895L118.447 254.459C118.165 254.321 117.835 254.321 117.553 254.459L112.583 256.895C111.853 257.252 111.019 256.649 111.135 255.846L111.923 250.383C111.968 250.074 111.866 249.761 111.647 249.537L107.787 245.579C107.22 244.998 107.539 244.021 108.34 243.883L113.798 242.942C114.107 242.889 114.374 242.696 114.52 242.419L117.105 237.538Z" fill="#576DFC"/>
<path d="M143.105 237.538C143.485 236.821 144.515 236.821 144.895 237.538L147.48 242.419C147.626 242.696 147.893 242.889 148.202 242.942L153.66 243.883C154.461 244.021 154.78 244.998 154.213 245.579L150.353 249.537C150.134 249.761 150.032 250.074 150.077 250.383L150.865 255.846C150.981 256.649 150.147 257.252 149.417 256.895L144.447 254.459C144.165 254.321 143.835 254.321 143.553 254.459L138.583 256.895C137.853 257.252 137.019 256.649 137.135 255.846L137.923 250.383C137.968 250.074 137.866 249.761 137.647 249.537L133.787 245.579C133.22 244.998 133.539 244.021 134.34 243.883L139.798 242.942C140.107 242.889 140.374 242.696 140.52 242.419L143.105 237.538Z" fill="#576DFC"/>
<path d="M169.105 237.538C169.485 236.821 170.515 236.821 170.895 237.538L173.48 242.419C173.626 242.696 173.893 242.889 174.202 242.942L179.66 243.883C180.461 244.021 180.78 244.998 180.213 245.579L176.353 249.537C176.134 249.761 176.032 250.074 176.077 250.383L176.865 255.846C176.981 256.649 176.147 257.252 175.417 256.895L170.447 254.459C170.165 254.321 169.835 254.321 169.553 254.459L164.583 256.895C163.853 257.252 163.019 256.649 163.135 255.846L163.923 250.383C163.968 250.074 163.866 249.761 163.647 249.537L159.787 245.579C159.22 244.998 159.539 244.021 160.34 243.883L165.798 242.942C166.107 242.889 166.374 242.696 166.52 242.419L169.105 237.538Z" fill="#576DFC"/>
<path d="M192.191 254.195C191.26 254.195 190.421 254.023 189.672 253.678C188.93 253.333 188.34 252.854 187.904 252.242C187.468 251.63 187.237 250.94 187.211 250.172H189.691C189.717 250.543 189.844 250.878 190.072 251.178C190.3 251.477 190.6 251.715 190.971 251.891C191.342 252.06 191.749 252.145 192.191 252.145C192.712 252.145 193.178 252.027 193.588 251.793C194.005 251.552 194.327 251.227 194.555 250.816C194.789 250.406 194.906 249.944 194.906 249.43C194.906 248.896 194.786 248.417 194.545 247.994C194.304 247.571 193.969 247.242 193.539 247.008C193.109 246.773 192.621 246.656 192.074 246.656C190.961 246.656 190.193 247.06 189.77 247.867H187.406L188.266 239.859H196.625V241.988H190.355L189.926 245.738H190.062C190.342 245.419 190.727 245.162 191.215 244.967C191.703 244.771 192.23 244.671 192.797 244.664C193.663 244.664 194.444 244.866 195.141 245.27C195.837 245.673 196.381 246.233 196.771 246.949C197.169 247.659 197.367 248.46 197.367 249.352C197.367 250.283 197.149 251.116 196.713 251.852C196.277 252.587 195.665 253.163 194.877 253.58C194.089 253.99 193.194 254.195 192.191 254.195Z" fill="#3E404B"/>
<path d="M55.1172 318.102H56.5801V323.707H56.7031L59.6426 320.576H61.3926L58.3916 323.762L61.5977 328H59.8066L57.2842 324.664L56.5801 325.361V328H55.1172V318.102ZM65.4258 328.15C64.7057 328.15 64.0791 327.993 63.5459 327.679C63.0127 327.364 62.6048 326.92 62.3223 326.346C62.0397 325.771 61.8984 325.102 61.8984 324.336C61.8984 323.579 62.0397 322.91 62.3223 322.326C62.6048 321.743 63.0059 321.289 63.5254 320.966C64.0449 320.642 64.6465 320.48 65.3301 320.48C65.9271 320.48 66.474 320.61 66.9707 320.87C67.4674 321.13 67.8662 321.54 68.167 322.101C68.4723 322.657 68.625 323.361 68.625 324.213V324.732H63.3477C63.3613 325.197 63.457 325.596 63.6348 325.929C63.8125 326.261 64.0563 326.514 64.3662 326.688C64.6761 326.861 65.0339 326.947 65.4395 326.947C65.8314 326.947 66.1641 326.874 66.4375 326.729C66.7155 326.578 66.9206 326.382 67.0527 326.141H68.5293C68.4199 326.542 68.224 326.895 67.9414 327.2C67.6589 327.501 67.3034 327.736 66.875 327.904C66.4466 328.068 65.9635 328.15 65.4258 328.15ZM67.1895 323.639C67.1895 323.265 67.112 322.93 66.957 322.634C66.8066 322.333 66.5902 322.101 66.3076 321.937C66.0296 321.768 65.7083 321.684 65.3438 321.684C64.9655 321.684 64.6283 321.772 64.332 321.95C64.0404 322.123 63.8102 322.36 63.6416 322.661C63.473 322.962 63.3773 323.288 63.3545 323.639H67.1895ZM71.5371 328H70.0742V318.102H71.5371V328ZM74.7773 328H73.3145V318.102H74.7773V328ZM78.6875 321.629L76.9648 322.736L76.4453 321.807L78.2637 320.891L76.4453 319.961L76.9648 319.031L78.6875 320.139L78.5918 318.102H79.6582L79.5625 320.139L81.2715 319.031L81.8047 319.961L79.9727 320.891L81.8047 321.807L81.2715 322.736L79.5625 321.629L79.6582 323.666H78.5918L78.6875 321.629ZM85.6055 321.629L83.8828 322.736L83.3633 321.807L85.1816 320.891L83.3633 319.961L83.8828 319.031L85.6055 320.139L85.5098 318.102H86.5762L86.4805 320.139L88.1895 319.031L88.7227 319.961L86.8906 320.891L88.7227 321.807L88.1895 322.736L86.4805 321.629L86.5762 323.666H85.5098L85.6055 321.629ZM92.5234 321.629L90.8008 322.736L90.2812 321.807L92.0996 320.891L90.2812 319.961L90.8008 319.031L92.5234 320.139L92.4277 318.102H93.4941L93.3984 320.139L95.1074 319.031L95.6406 319.961L93.8086 320.891L95.6406 321.807L95.1074 322.736L93.3984 321.629L93.4941 323.666H92.4277L92.5234 321.629ZM99.4414 321.629L97.7188 322.736L97.1992 321.807L99.0176 320.891L97.1992 319.961L97.7188 319.031L99.4414 320.139L99.3457 318.102H100.412L100.316 320.139L102.025 319.031L102.559 319.961L100.727 320.891L102.559 321.807L102.025 322.736L100.316 321.629L100.412 323.666H99.3457L99.4414 321.629ZM113.934 323.83H112.648V316.912H113.934V323.83ZM104.541 317.623H105.84V321.916C106.879 321.907 107.84 321.861 108.725 321.779C109.613 321.697 110.502 321.561 111.391 321.369L111.568 322.449C110.589 322.65 109.62 322.793 108.663 322.88C107.706 322.962 106.669 323.005 105.553 323.01H104.541V317.623ZM105.908 324.391H113.934V328.998H105.908V324.391ZM112.662 327.959V325.416H107.18V327.959H112.662ZM119.881 317.787C120.519 317.787 121.091 317.91 121.597 318.156C122.103 318.398 122.499 318.742 122.786 319.188C123.073 319.631 123.217 320.134 123.217 320.699C123.217 321.264 123.073 321.77 122.786 322.217C122.499 322.659 122.103 323.005 121.597 323.256C121.091 323.502 120.519 323.625 119.881 323.625C119.243 323.625 118.669 323.502 118.158 323.256C117.652 323.005 117.256 322.659 116.969 322.217C116.686 321.77 116.545 321.264 116.545 320.699C116.545 320.134 116.686 319.631 116.969 319.188C117.256 318.746 117.652 318.402 118.158 318.156C118.669 317.91 119.243 317.787 119.881 317.787ZM115.957 325.471C117.497 325.471 118.919 325.446 120.223 325.396C121.526 325.345 122.77 325.234 123.955 325.061L124.051 326.004C122.829 326.241 121.588 326.391 120.325 326.455C119.067 326.519 117.666 326.551 116.121 326.551L115.957 325.471ZM117.83 320.699C117.826 321.055 117.91 321.369 118.083 321.643C118.261 321.911 118.505 322.121 118.814 322.271C119.129 322.417 119.484 322.49 119.881 322.49C120.277 322.49 120.631 322.417 120.94 322.271C121.255 322.121 121.501 321.911 121.679 321.643C121.856 321.369 121.945 321.055 121.945 320.699C121.945 320.348 121.856 320.038 121.679 319.77C121.501 319.496 121.255 319.284 120.94 319.134C120.626 318.983 120.273 318.908 119.881 318.908C119.484 318.908 119.129 318.983 118.814 319.134C118.505 319.284 118.261 319.496 118.083 319.77C117.91 320.038 117.826 320.348 117.83 320.699ZM124.721 316.912H126.02V329.189H124.721V316.912ZM141.551 323.215H140.266V316.912H141.551V323.215ZM131.447 322.121C132.072 321.911 132.616 321.606 133.081 321.205C133.55 320.804 133.908 320.341 134.154 319.817C134.405 319.293 134.533 318.749 134.537 318.184V317.24H135.863V318.184C135.863 318.726 135.986 319.245 136.232 319.742C136.479 320.239 136.832 320.676 137.292 321.055C137.752 321.428 138.292 321.711 138.912 321.902L138.27 322.914C137.559 322.682 136.941 322.335 136.417 321.875C135.893 321.415 135.492 320.87 135.214 320.241C134.931 320.92 134.521 321.513 133.983 322.019C133.45 322.524 132.824 322.9 132.104 323.146L131.447 322.121ZM133.512 323.803H141.564V326.865H134.811V328H141.975V329.039H133.553V325.881H140.279V324.828H133.512V323.803ZM154.02 329.162H152.775V316.912H154.02V329.162ZM143.328 325.785C143.889 325.448 144.365 324.992 144.757 324.418C145.153 323.844 145.45 323.206 145.646 322.504C145.846 321.798 145.949 321.073 145.953 320.33V319.346H143.697V318.293H149.303V319.346H147.197V320.33C147.197 321.041 147.293 321.731 147.484 322.401C147.68 323.071 147.97 323.677 148.353 324.22C148.74 324.762 149.212 325.193 149.768 325.512L148.988 326.469C148.419 326.132 147.931 325.667 147.525 325.074C147.124 324.482 146.812 323.805 146.589 323.044C146.366 323.869 146.044 324.603 145.625 325.245C145.206 325.888 144.704 326.391 144.121 326.756L143.328 325.785ZM148.4 321.246H150.301V317.172H151.531V328.547H150.301V322.312H148.4V321.246ZM169.564 319.332H159.598V318.266H163.959V316.857H165.244V318.266H169.564V319.332ZM159.023 324.842H170.234V325.908H165.244V329.176H163.959V325.908H159.023V324.842ZM160.527 322.025C160.527 321.583 160.687 321.207 161.006 320.897C161.329 320.588 161.797 320.353 162.407 320.193C163.018 320.034 163.749 319.956 164.602 319.961C165.449 319.956 166.178 320.034 166.789 320.193C167.4 320.353 167.867 320.588 168.19 320.897C168.514 321.207 168.676 321.583 168.676 322.025C168.676 322.458 168.514 322.827 168.19 323.133C167.867 323.438 167.4 323.673 166.789 323.837C166.178 323.996 165.449 324.076 164.602 324.076C163.754 324.076 163.025 323.996 162.414 323.837C161.803 323.673 161.336 323.438 161.013 323.133C160.689 322.827 160.527 322.458 160.527 322.025ZM161.867 322.025C161.867 322.363 162.1 322.625 162.564 322.812C163.029 322.998 163.692 323.092 164.554 323.092C165.447 323.092 166.133 323.001 166.611 322.818C167.09 322.636 167.331 322.372 167.336 322.025C167.331 321.674 167.092 321.406 166.618 321.219C166.149 321.027 165.477 320.932 164.602 320.932C163.722 320.932 163.045 321.027 162.571 321.219C162.102 321.406 161.867 321.674 161.867 322.025ZM181.309 329.162H179.996V316.912H181.309V329.162ZM171.246 325.881C172.85 325.115 174.069 324.183 174.903 323.085C175.737 321.987 176.218 320.713 176.346 319.264H171.834V318.225H177.658C177.658 320.12 177.205 321.804 176.298 323.276C175.396 324.748 173.939 325.967 171.93 326.934L171.246 325.881Z" fill="#888CA0"/>
<defs>
<clipPath id="clip0_5204_8536">
<rect width="36" height="26" fill="white" transform="translate(54 42)"/>
</clipPath>
</defs>
</svg>
