<svg width="384" height="369" viewBox="0 0 384 369" fill="none" xmlns="http://www.w3.org/2000/svg">
<rect x="0.5" y="0.5" width="383" height="368" rx="29.5" fill="white"/>
<rect x="0.5" y="0.5" width="383" height="368" rx="29.5" stroke="#E6E6EF"/>
<g clip-path="url(#clip0_5204_8535)">
<path d="M69.905 46.571C67.3397 47.9876 64.7743 49.9876 63.0641 52.2376L64.1758 52.4043C67.8527 53.321 70.5036 56.321 70.5036 59.9876C70.5036 64.4043 66.9121 67.9043 62.38 67.9043C56.5653 67.9043 54 63.571 54 58.321C54 51.1543 59.6437 45.1543 65.886 41.9876L69.905 46.571ZM89.4014 46.571C86.8361 47.9876 84.2708 49.9876 82.5606 52.2376L83.6722 52.4043C87.3492 53.321 90 56.321 90 59.9876C90 64.4043 86.4086 67.9043 81.8765 67.9043C76.0618 67.9043 73.4964 63.571 73.4964 58.321C73.4964 51.1543 79.1401 45.1543 85.3824 41.9043L89.4014 46.4876V46.571Z" fill="#E6E6EF"/>
</g>
<path d="M73.0781 90.8281V112.156H70.2422V90.8281H73.0781ZM54.1875 105.922C57.3281 103.988 58.5 100.168 58.5 96.5469V95.3984H55.0078V93.0078H64.6172V95.3984H61.3828V96.5469C61.3711 100.086 62.4844 103.672 65.6016 105.453L63.8438 107.656C61.9336 106.531 60.6914 104.633 59.9648 102.336C59.2383 104.82 57.9492 106.93 55.9922 108.125L54.1875 105.922ZM63.0938 100.555V98.1406H65.9062V91.1797H68.7188V111.172H65.9062V100.555H63.0938ZM98.8828 90.8516V103.133H95.9062V101.047H91.1016V98.6562H95.9062V96.6172H91.3242C89.9883 99.9922 86.9531 102.324 82.2656 103.602L81.0938 101.234C85.9922 99.957 88.4062 97.6016 88.8281 94.6719H82.2422V92.2812H92.0859C92.0859 92.9727 92.0391 93.6406 91.9336 94.2734H95.9062V90.8516H98.8828ZM84.4922 107.703C84.4805 105.066 87.3984 103.402 91.7812 103.391C96.1055 103.402 99.0352 105.066 99.0469 107.703C99.0352 110.375 96.1055 112.062 91.7812 112.062C87.3984 112.062 84.4805 110.375 84.4922 107.703ZM87.4688 107.703C87.4688 109.027 89.0742 109.695 91.7812 109.695C94.4297 109.695 96.0352 109.027 96.0469 107.703C96.0352 106.391 94.4297 105.711 91.7812 105.734C89.0742 105.711 87.4688 106.391 87.4688 107.703ZM119.625 90.8281V103.719H116.648V99.5234H113.883V97.0859H116.648V90.8281H119.625ZM101.695 95.0703V92.6797H106.523V90.6406H109.477V92.6797H114.258V95.0703H101.695ZM102.867 99.5938C102.867 97.3672 105.012 95.7734 108 95.7734C111 95.7734 113.109 97.3672 113.109 99.5938C113.109 101.926 110.988 103.449 108 103.461C105.012 103.449 102.867 101.926 102.867 99.5938ZM105.281 111.922V104.633H119.625V111.922H105.281ZM105.75 99.5938C105.727 100.672 106.605 101.246 108 101.258C109.359 101.246 110.25 100.672 110.25 99.5938C110.25 98.5859 109.359 98.0117 108 98.0234C106.605 98.0117 105.727 98.5859 105.75 99.5938ZM108.281 109.531H116.695V106.977H108.281V109.531ZM134.391 92.9609V94.6719C134.367 96.6758 134.367 99.3008 133.805 102.852L130.852 102.617C131.344 99.5234 131.391 97.2383 131.414 95.3516H123.328V92.9609H134.391ZM122.203 105.406C123.398 105.406 124.734 105.395 126.117 105.359V99.0781H129.07V105.266C131.168 105.184 133.289 105.031 135.258 104.773L135.445 107C131.051 107.738 126.223 107.82 122.484 107.797L122.203 105.406ZM136.266 112.156V90.8281H139.289V99.4062H142.195V101.891H139.289V112.156H136.266ZM166.641 104.398V112.156H163.664V106.742H151.992V104.398H166.641ZM148.945 97.1797C148.922 94.1562 151.383 91.9531 154.617 91.9766C156.34 91.9648 157.852 92.6094 158.871 93.6875H163.664V90.8281H166.641V103.438H163.664V100.742H158.871C157.852 101.844 156.34 102.488 154.617 102.5C151.383 102.488 148.922 100.285 148.945 97.1797ZM151.781 97.1797C151.77 98.9258 152.953 99.9453 154.617 99.9453C156.188 99.9453 157.395 98.9258 157.406 97.1797C157.395 95.5156 156.188 94.4844 154.617 94.4844C152.953 94.4844 151.77 95.5156 151.781 97.1797ZM160.113 98.3516H163.664V96.1016H160.125C160.207 96.4414 160.242 96.8047 160.242 97.1797C160.242 97.5898 160.195 97.9766 160.113 98.3516ZM189.211 93.6875V96.1719H186.328V98.2109H189.211V100.672H186.328V103.719H183.328V90.8516H186.328V93.6875H189.211ZM170.156 94.4609V92.1172H179.953V98.4688H173.156V100.344C176.672 100.32 179.062 100.191 181.781 99.7109L182.109 102.102C179.051 102.676 176.309 102.781 171.984 102.781H170.18V96.2188H177.047V94.4609H170.156ZM171.984 108.148C171.984 105.582 174.785 104.047 179.297 104.047C183.727 104.047 186.527 105.582 186.539 108.148C186.527 110.668 183.727 112.133 179.297 112.133C174.785 112.133 171.984 110.668 171.984 108.148ZM174.938 108.148C174.914 109.309 176.449 109.906 179.297 109.906C182.109 109.906 183.586 109.309 183.586 108.148C183.586 106.965 182.109 106.355 179.297 106.367C176.449 106.355 174.914 106.965 174.938 108.148ZM208.641 90.8281V112.156H205.781V90.8281H208.641ZM190.336 100.062C190.336 95.293 192.152 92.3398 194.977 92.3516C197.543 92.3398 199.301 94.7422 199.629 98.7266H201.375V91.1328H204.188V111.172H201.375V101.094H199.652C199.395 105.277 197.602 107.82 194.977 107.82C192.152 107.82 190.336 104.855 190.336 100.062ZM193.102 100.062C193.078 103.344 193.781 104.961 194.977 104.938C196.207 104.961 196.934 103.344 196.922 100.062C196.934 96.793 196.207 95.1641 194.977 95.1641C193.781 95.1641 193.078 96.793 193.102 100.062ZM234.867 90.8281V112.156H232.031V101.445H229.969V111.125H227.227V91.1797H229.969V99.0547H232.031V90.8281H234.867ZM217.031 107.328V93.2891H224.977V95.7031H220.031V104.82C222.094 104.785 223.922 104.668 225.984 104.305L226.195 106.742C223.594 107.234 221.32 107.316 218.508 107.328H217.031ZM247.453 94.0859V96.4531H237.141V94.0859H240.844V91.4141H243.797V94.0859H247.453ZM237.633 102.477C237.633 99.5117 239.625 97.4258 242.344 97.4141C245.074 97.4258 247.02 99.5117 247.031 102.477C247.02 105.453 245.074 107.562 242.344 107.562C239.625 107.562 237.633 105.453 237.633 102.477ZM240.258 102.477C240.258 104.105 241.102 105.031 242.344 105.031C243.539 105.031 244.395 104.105 244.406 102.477C244.395 100.871 243.539 99.8984 242.344 99.8984C241.102 99.8984 240.258 100.871 240.258 102.477ZM248.25 111.242V91.25H251.039V99.5H252.773V90.8281H255.609V112.156H252.773V101.891H251.039V111.242H248.25ZM280.266 90.8281V98.75H283.406V101.188H280.266V112.203H277.266V90.8281H280.266ZM264.281 107.023V92.7969H274.289V95.2109H267.258V104.562C270.352 104.539 272.906 104.375 275.742 103.883L276.07 106.391C272.754 106.953 269.848 107.035 266.086 107.023H264.281ZM292.477 95.6562C292.465 99.5703 294.246 103.496 297.867 105.031L296.109 107.422C293.672 106.32 291.984 104.188 291.012 101.551C290.051 104.434 288.305 106.754 285.703 107.938L283.898 105.453C287.625 103.883 289.441 99.793 289.453 95.6562V92.4688H292.477V95.6562ZM299.016 112.203V90.8281H302.039V112.203H299.016ZM71.5547 124.852V131.391H74.4375V133.828H71.5547V140.766H68.5547V124.852H71.5547ZM54.6328 129.445V127.078H59.4844V124.805H62.4609V127.078H67.2891V129.445H54.6328ZM55.6641 134.32C55.6641 131.848 57.8555 130.195 60.9609 130.195C64.0547 130.195 66.2109 131.848 66.2109 134.32C66.2109 136.781 64.0547 138.398 60.9609 138.398C57.8555 138.398 55.6641 136.781 55.6641 134.32ZM57.7266 145.781V139.547H60.7031V143.391H72.3281V145.781H57.7266ZM58.5938 134.32C58.582 135.492 59.5312 136.125 60.9609 136.125C62.4023 136.125 63.375 135.492 63.375 134.32C63.375 133.137 62.4023 132.48 60.9609 132.469C59.5312 132.48 58.582 133.137 58.5938 134.32ZM98.8828 124.852V140.578H95.9062V132.891H91.9688V137.203H81.8203V126.234H84.8203V129.516H89.0156V126.234H91.9688V130.5H95.9062V124.852H98.8828ZM84.6797 145.781V139.008H87.7031V143.391H99.3281V145.781H84.6797ZM84.8203 134.859H89.0156V131.789H84.8203V134.859ZM117.914 126.703V129.141H111.211V138.609C114.316 138.574 116.555 138.434 119.062 137.977L119.367 140.391C116.438 140.953 113.859 141.07 109.922 141.047H108.188V126.703H117.914ZM116.859 134.648V132.211H122.227V124.828H125.203V146.203H122.227V134.648H116.859ZM140.273 128.625C140.273 130.934 141.469 133.207 144.305 134.297L142.711 136.57C140.883 135.879 139.629 134.613 138.867 133.043C138.094 134.883 136.758 136.418 134.766 137.25L133.148 134.953C136.16 133.629 137.367 131.004 137.367 128.625V126.117H140.273V128.625ZM137.109 142.172C137.098 139.676 139.969 138.176 144.492 138.188C148.992 138.176 151.875 139.676 151.898 142.172C151.875 144.645 148.992 146.168 144.492 146.156C139.969 146.168 137.098 144.645 137.109 142.172ZM140.109 142.172C140.086 143.32 141.691 143.906 144.492 143.906C147.27 143.906 148.875 143.32 148.875 142.172C148.875 141.012 147.27 140.414 144.492 140.414C141.691 140.414 140.086 141.012 140.109 142.172ZM144.375 137.227V125.227H147.164V130.055H148.945V124.852H151.781V137.883H148.945V132.469H147.164V137.227H144.375ZM171.117 124.828V129.82H174V132.305H171.117V137.227H168.117V124.828H171.117ZM153.891 134.906C158.754 133.676 161.426 131.262 161.883 128.391H155.016V126.023H165.117C165.105 131.719 161.531 135.574 155.133 137.18L153.891 134.906ZM156.75 140.461V138.07H171.117V146.156H168.117V140.461H156.75ZM185.227 128.086V130.453H174.914V128.086H178.617V125.414H181.57V128.086H185.227ZM175.406 136.477C175.406 133.512 177.398 131.426 180.117 131.414C182.848 131.426 184.793 133.512 184.805 136.477C184.793 139.453 182.848 141.562 180.117 141.562C177.398 141.562 175.406 139.453 175.406 136.477ZM178.031 136.477C178.031 138.105 178.875 139.031 180.117 139.031C181.312 139.031 182.168 138.105 182.18 136.477C182.168 134.871 181.312 133.898 180.117 133.898C178.875 133.898 178.031 134.871 178.031 136.477ZM186.023 145.242V125.25H188.812V133.5H190.547V124.828H193.383V146.156H190.547V135.891H188.812V145.242H186.023ZM201.117 125.156V126.633H209.672V125.156H212.648V132.305H206.836V133.688H215.133V136.031H195.68V133.688H203.883V132.305H198.164V125.156H201.117ZM197.93 139.336V137.156H212.766V142.547H200.883V143.766H213.328V146.016H197.953V140.484H209.812V139.336H197.93ZM201.117 130.078H209.672V128.789H201.117V130.078ZM233.273 126.492C233.262 129.012 235.84 131.789 240.727 132.398L239.555 134.812C235.828 134.273 233.098 132.551 231.703 130.242C230.297 132.539 227.578 134.273 223.898 134.812L222.703 132.398C227.555 131.789 230.121 129.012 230.133 126.492V125.461H233.273V126.492ZM221.953 138.867V136.43H241.406V138.867H233.109V146.156H230.156V138.867H221.953ZM255.984 138.516C255.984 140.227 256.711 142.008 258.434 143.18C260.203 141.926 260.977 140.098 260.977 138.516V137.789H263.93V138.516C263.906 140.742 265.09 142.793 267.938 143.672L266.484 145.852C264.445 145.16 263.109 143.859 262.371 142.207C261.668 143.859 260.426 145.289 258.516 146.039C256.512 145.312 255.258 143.93 254.566 142.289C253.805 143.871 252.492 145.16 250.547 145.852L249.07 143.672C251.871 142.711 253.066 140.59 253.078 138.516V137.789H255.984V138.516ZM248.555 131.062C248.555 128.039 251.062 125.93 254.391 125.93C257.707 125.93 260.215 128.039 260.227 131.062C260.215 134.027 257.707 136.16 254.391 136.148C251.062 136.16 248.555 134.027 248.555 131.062ZM251.484 131.062C251.461 132.668 252.68 133.676 254.391 133.664C256.055 133.676 257.262 132.668 257.273 131.062C257.262 129.41 256.055 128.438 254.391 128.438C252.68 128.438 251.461 129.41 251.484 131.062ZM263.086 136.898V124.852H266.086V136.898H263.086ZM277.008 138.445C276.996 140.191 277.711 141.984 279.457 143.191C281.215 141.902 281.93 140.027 281.953 138.445V137.578H284.883V138.445C284.895 140.672 286.055 142.781 288.961 143.672L287.438 145.875C285.41 145.172 284.098 143.848 283.359 142.195C282.656 143.836 281.402 145.289 279.469 146.062C277.512 145.336 276.258 143.941 275.555 142.277C274.793 143.871 273.48 145.16 271.547 145.875L270.094 143.672C272.906 142.734 274.09 140.566 274.102 138.445V137.578H277.008V138.445ZM269.227 131.016C269.227 128.074 271.664 125.906 274.922 125.93C277.617 125.906 279.809 127.477 280.395 129.773H283.969V124.828H286.945V136.781H283.969V132.211H280.406C279.844 134.566 277.641 136.16 274.922 136.148C271.664 136.16 269.227 134.016 269.227 131.016ZM272.109 131.016C272.086 132.645 273.281 133.676 274.922 133.664C276.516 133.676 277.699 132.645 277.711 131.016C277.699 129.387 276.516 128.402 274.922 128.414C273.281 128.402 272.086 129.387 272.109 131.016ZM295.594 126.328C298.477 126.328 300.633 128.695 301.055 132.539H304.758V124.828H307.711V146.203H304.758V134.93H301.09C300.773 139.031 298.57 141.539 295.594 141.539C292.359 141.539 290.039 138.609 290.062 133.922C290.039 129.27 292.359 126.328 295.594 126.328ZM292.922 133.922C292.91 137.098 294 138.832 295.594 138.82C297.199 138.832 298.266 137.098 298.266 133.922C298.266 130.758 297.199 129.023 295.594 129.023C294 129.023 292.91 130.758 292.922 133.922ZM329.977 141.211V143.672H310.453V141.211H314.812V135.984C313.16 134.988 312.164 133.477 312.164 131.602C312.164 128.145 315.539 125.871 320.18 125.859C324.797 125.871 328.207 128.145 328.219 131.602C328.207 133.441 327.246 134.93 325.641 135.926V141.211H329.977ZM315.117 131.602C315.117 133.688 317.121 134.977 320.18 134.977C323.191 134.977 325.254 133.688 325.266 131.602C325.254 129.457 323.191 128.215 320.18 128.227C317.121 128.215 315.117 129.457 315.117 131.602ZM317.766 141.211H322.617V137.062C321.855 137.215 321.035 137.297 320.18 137.297C319.324 137.297 318.516 137.215 317.766 137.074V141.211Z" fill="#2B2D35"/>
<path d="M66.5625 183.328H65.1406V169.328H66.5625V183.328ZM54.6719 175.375C54.6719 174.375 54.7943 173.505 55.0391 172.766C55.2891 172.021 55.6406 171.451 56.0938 171.055C56.5521 170.654 57.0833 170.453 57.6875 170.453C58.2812 170.448 58.8021 170.635 59.25 171.016C59.7031 171.391 60.0547 171.927 60.3047 172.625H62.3438V169.594H63.75V182.641H62.3438V178.125H60.3125C60.0573 178.828 59.7031 179.37 59.25 179.75C58.8021 180.13 58.2812 180.318 57.6875 180.312C57.0833 180.312 56.5521 180.115 56.0938 179.719C55.6406 179.318 55.2891 178.745 55.0391 178C54.7943 177.25 54.6719 176.375 54.6719 175.375ZM56.0312 175.336C56.0312 176.081 56.0964 176.721 56.2266 177.258C56.3568 177.794 56.5443 178.203 56.7891 178.484C57.0391 178.766 57.3385 178.906 57.6875 178.906C58.0312 178.906 58.3281 178.768 58.5781 178.492C58.8333 178.211 59.0286 177.805 59.1641 177.273C59.3047 176.742 59.375 176.109 59.375 175.375C59.375 174.641 59.3047 174.008 59.1641 173.477C59.0286 172.945 58.8333 172.542 58.5781 172.266C58.3281 171.984 58.0312 171.844 57.6875 171.844C57.3438 171.844 57.0469 171.982 56.7969 172.258C56.5521 172.529 56.362 172.927 56.2266 173.453C56.0964 173.979 56.0312 174.607 56.0312 175.336ZM60.6172 173.828C60.6953 174.302 60.7344 174.818 60.7344 175.375C60.7344 175.927 60.6953 176.438 60.6172 176.906H62.3438V173.828H60.6172ZM73.1719 171.562C73.1719 172.172 73.3073 172.758 73.5781 173.32C73.8542 173.883 74.2474 174.38 74.7578 174.812C75.2682 175.245 75.8646 175.573 76.5469 175.797L75.75 176.969C74.9948 176.703 74.3333 176.31 73.7656 175.789C73.2031 175.263 72.7682 174.651 72.4609 173.953C72.1536 174.75 71.7057 175.443 71.1172 176.031C70.5339 176.62 69.8385 177.062 69.0312 177.359L68.2344 176.172C68.9531 175.917 69.5703 175.552 70.0859 175.078C70.6068 174.604 71.0052 174.055 71.2812 173.43C71.5573 172.799 71.6979 172.135 71.7031 171.438V170.062H73.1719V171.562ZM70.125 180.703C70.125 180.161 70.3125 179.695 70.6875 179.305C71.0677 178.914 71.6094 178.617 72.3125 178.414C73.0208 178.211 73.8594 178.109 74.8281 178.109C75.7812 178.109 76.6068 178.211 77.3047 178.414C78.0026 178.617 78.5365 178.914 78.9062 179.305C79.2812 179.695 79.4688 180.161 79.4688 180.703C79.4688 181.25 79.2812 181.719 78.9062 182.109C78.5365 182.5 78.0026 182.794 77.3047 182.992C76.612 183.195 75.7865 183.297 74.8281 183.297C73.8594 183.297 73.0208 183.195 72.3125 182.992C71.6094 182.794 71.0677 182.5 70.6875 182.109C70.3125 181.719 70.125 181.25 70.125 180.703ZM71.6094 180.703C71.6042 181.161 71.8828 181.513 72.4453 181.758C73.013 182.003 73.8073 182.13 74.8281 182.141C75.8438 182.13 76.6302 182.003 77.1875 181.758C77.7448 181.513 78.0208 181.161 78.0156 180.703C78.0156 180.406 77.8906 180.151 77.6406 179.938C77.3906 179.724 77.026 179.562 76.5469 179.453C76.0677 179.339 75.4948 179.281 74.8281 179.281C74.1562 179.281 73.5781 179.339 73.0938 179.453C72.6146 179.562 72.2474 179.724 71.9922 179.938C71.737 180.151 71.6094 180.406 71.6094 180.703ZM77.8594 169.328H79.3438V172.844H81.375V174.094H79.3438V177.781H77.8594V169.328ZM90.5156 176.469H87.5625V179.062C89.0104 179 90.2865 178.906 91.3906 178.781L91.5 179.875C90.125 180.078 88.7057 180.214 87.2422 180.281C85.7786 180.349 84.1771 180.385 82.4375 180.391L82.25 179.156C83.6823 179.156 84.9583 179.143 86.0781 179.117V176.469H83.2656V170.625H90.4531V171.828H84.7344V175.25H90.5156V176.469ZM92.2656 169.328H93.75V183.359H92.2656V169.328ZM107.328 174.609H97.6875V169.828H99.1562V173.422H107.328V174.609ZM95.9844 176.375H108.797V177.562H95.9844V176.375ZM97.5781 178.891H99.0625V181.781H107.422V183H97.5781V178.891ZM125.328 176.562H123.859V169.328H125.328V176.562ZM113.891 175.453C114.604 175.234 115.227 174.914 115.758 174.492C116.289 174.065 116.698 173.576 116.984 173.023C117.276 172.466 117.422 171.885 117.422 171.281H114.281V170.078H122V171.281H118.922C118.922 171.849 119.062 172.393 119.344 172.914C119.63 173.435 120.039 173.893 120.57 174.289C121.102 174.685 121.724 174.984 122.438 175.188L121.719 176.328C120.901 176.083 120.19 175.711 119.586 175.211C118.982 174.711 118.518 174.12 118.195 173.438C117.883 174.188 117.414 174.841 116.789 175.398C116.169 175.951 115.432 176.359 114.578 176.625L113.891 175.453ZM116.141 177.203H125.344V180.672H117.625V182.031H125.812V183.188H116.188V179.594H123.875V178.344H116.141V177.203ZM140.359 177.609H134.797V180.328H133.328V177.609H127.547V176.406H140.359V177.609ZM129.141 179H130.625V181.828H138.938V183.031H129.141V179ZM129.188 169.984H138.703V174.953H129.188V169.984ZM137.234 173.781V171.156H130.641V173.781H137.234ZM154.172 176.25H141.391V175.062H154.172V176.25ZM142.922 177.359H152.547V180.75H144.391V182H152.938V183.172H142.938V179.656H151.078V178.5H142.922V177.359ZM143.062 169.734H152.516V170.938H144.547V172.859H152.656V174.047H143.062V169.734ZM161.594 169.562C162.646 169.562 163.544 169.654 164.289 169.836C165.034 170.018 165.604 170.292 166 170.656C166.396 171.016 166.594 171.453 166.594 171.969C166.594 172.49 166.396 172.932 166 173.297C165.604 173.656 165.034 173.93 164.289 174.117C163.544 174.299 162.646 174.391 161.594 174.391C160.542 174.391 159.641 174.299 158.891 174.117C158.146 173.93 157.576 173.656 157.18 173.297C156.789 172.932 156.594 172.49 156.594 171.969C156.594 171.453 156.789 171.016 157.18 170.656C157.576 170.292 158.146 170.018 158.891 169.836C159.641 169.654 160.542 169.562 161.594 169.562ZM155.219 175.25H167.984V176.438H155.219V175.25ZM156.75 177.516H166.375V180.797H158.219V182.047H166.766V183.188H156.766V179.719H164.906V178.625H156.75V177.516ZM158.141 171.969C158.135 172.401 158.43 172.729 159.023 172.953C159.617 173.172 160.474 173.281 161.594 173.281C162.724 173.281 163.586 173.172 164.18 172.953C164.773 172.729 165.068 172.401 165.062 171.969C165.068 171.552 164.768 171.229 164.164 171C163.565 170.771 162.708 170.656 161.594 170.656C160.484 170.656 159.63 170.771 159.031 171C158.432 171.229 158.135 171.552 158.141 171.969ZM185.766 181.594H172.953V180.359H178.594V177.484H174.422V170.281H175.906V172.688H182.781V170.281H184.25V177.484H180.062V180.359H185.766V181.594ZM182.781 176.281V173.891H175.906V176.281H182.781ZM193.828 172.625H196.984V169.328H198.453V183.359H196.984V177.672H193.828V179.828H187.328V170.672H193.828V172.625ZM192.375 178.641V171.828H188.797V178.641H192.375ZM196.984 176.469V173.844H193.828V176.469H196.984ZM216.203 183.359H214.719V175.578H211.828V174.359H214.719V169.328H216.203V183.359ZM204.359 179.453C205.062 179.12 205.69 178.628 206.242 177.977C206.799 177.32 207.234 176.581 207.547 175.758C207.859 174.93 208.016 174.099 208.016 173.266V171.953H204.922V170.734H212.625V171.953H209.516V173.266C209.516 174.052 209.669 174.839 209.977 175.625C210.289 176.411 210.721 177.117 211.273 177.742C211.826 178.362 212.453 178.828 213.156 179.141L212.266 180.328C211.474 179.943 210.773 179.37 210.164 178.609C209.56 177.849 209.099 176.982 208.781 176.008C208.464 177.039 207.997 177.964 207.383 178.781C206.768 179.594 206.062 180.203 205.266 180.609L204.359 179.453ZM230.391 183.328H228.969V169.328H230.391V183.328ZM218.5 175.375C218.5 174.375 218.622 173.505 218.867 172.766C219.117 172.021 219.469 171.451 219.922 171.055C220.38 170.654 220.911 170.453 221.516 170.453C222.078 170.453 222.576 170.622 223.008 170.961C223.445 171.299 223.794 171.789 224.055 172.43C224.32 173.065 224.482 173.818 224.539 174.688H226.125V169.594H227.547V182.641H226.125V175.891H224.547C224.505 176.797 224.354 177.583 224.094 178.25C223.833 178.911 223.482 179.422 223.039 179.781C222.596 180.135 222.089 180.312 221.516 180.312C220.911 180.312 220.38 180.115 219.922 179.719C219.469 179.318 219.117 178.745 218.867 178C218.622 177.25 218.5 176.375 218.5 175.375ZM219.875 175.375C219.875 176.109 219.94 176.742 220.07 177.273C220.206 177.805 220.396 178.211 220.641 178.492C220.891 178.768 221.182 178.906 221.516 178.906C221.859 178.906 222.156 178.768 222.406 178.492C222.656 178.211 222.849 177.805 222.984 177.273C223.12 176.742 223.188 176.109 223.188 175.375C223.188 174.635 223.12 174.003 222.984 173.477C222.849 172.945 222.656 172.542 222.406 172.266C222.156 171.984 221.859 171.844 221.516 171.844C221.182 171.844 220.891 171.984 220.641 172.266C220.396 172.542 220.206 172.945 220.07 173.477C219.94 174.008 219.875 174.641 219.875 175.375ZM248.094 183.328H246.672V176.094H244.859V182.609H243.5V169.609H244.859V174.875H246.672V169.328H248.094V183.328ZM236.547 171.016H241.797V172.219H238.031V178.703C238.943 178.698 239.742 178.669 240.43 178.617C241.122 178.565 241.828 178.469 242.547 178.328L242.656 179.547C241.875 179.708 241.104 179.818 240.344 179.875C239.589 179.927 238.635 179.958 237.484 179.969H236.547V171.016ZM256.828 172.844H249.875V171.641H252.625V169.734H254.094V171.641H256.828V172.844ZM250.328 176.906C250.328 176.286 250.456 175.732 250.711 175.242C250.971 174.753 251.333 174.372 251.797 174.102C252.26 173.826 252.781 173.688 253.359 173.688C253.943 173.688 254.464 173.826 254.922 174.102C255.385 174.372 255.747 174.753 256.008 175.242C256.273 175.732 256.406 176.286 256.406 176.906C256.406 177.536 256.273 178.099 256.008 178.594C255.747 179.089 255.385 179.474 254.922 179.75C254.464 180.021 253.943 180.156 253.359 180.156C252.781 180.156 252.26 180.021 251.797 179.75C251.333 179.474 250.971 179.089 250.711 178.594C250.456 178.099 250.328 177.536 250.328 176.906ZM251.641 176.906C251.641 177.297 251.714 177.643 251.859 177.945C252.005 178.242 252.208 178.474 252.469 178.641C252.729 178.807 253.026 178.891 253.359 178.891C253.693 178.891 253.99 178.807 254.25 178.641C254.516 178.474 254.721 178.242 254.867 177.945C255.018 177.643 255.094 177.297 255.094 176.906C255.094 176.526 255.018 176.185 254.867 175.883C254.721 175.581 254.516 175.346 254.25 175.18C253.99 175.008 253.693 174.922 253.359 174.922C253.026 174.922 252.729 175.008 252.469 175.18C252.208 175.346 252.005 175.581 251.859 175.883C251.714 176.185 251.641 176.526 251.641 176.906ZM257.469 169.641H258.875V175.156H260.484V169.328H261.891V183.328H260.484V176.375H258.875V182.672H257.469V169.641ZM274.75 171.859H269.828V178.688C271.083 178.677 272.143 178.641 273.008 178.578C273.872 178.516 274.745 178.401 275.625 178.234L275.797 179.453C274.833 179.635 273.88 179.76 272.938 179.828C272 179.891 270.833 179.922 269.438 179.922H268.328V170.625H274.75V171.859ZM273.953 174.328H277.844V169.328H279.328V183.359H277.844V175.562H273.953V174.328ZM292.906 170.266C292.906 171.443 292.638 172.497 292.102 173.43C291.565 174.357 290.799 175.141 289.805 175.781C288.81 176.422 287.62 176.911 286.234 177.25L285.625 176.047C286.755 175.797 287.732 175.448 288.555 175C289.378 174.547 290.021 174.021 290.484 173.422C290.953 172.823 291.229 172.172 291.312 171.469H286.359V170.266H292.906ZM287.578 181.906H289.562V178.859H287.703V177.703H297.188V178.859H295.312V181.906H297.344V183.109H287.578V181.906ZM293.859 181.906V178.859H291.016V181.906H293.859ZM295.484 169.344H296.969V176.953H295.484V169.344ZM310.797 183.359H309.312V169.328H310.797V183.359ZM299.688 175.281C299.688 174.302 299.841 173.443 300.148 172.703C300.456 171.958 300.883 171.385 301.43 170.984C301.982 170.578 302.609 170.375 303.312 170.375C304.005 170.375 304.625 170.578 305.172 170.984C305.719 171.385 306.146 171.958 306.453 172.703C306.766 173.443 306.922 174.302 306.922 175.281C306.922 176.271 306.766 177.138 306.453 177.883C306.146 178.628 305.719 179.201 305.172 179.602C304.625 180.003 304.005 180.203 303.312 180.203C302.609 180.203 301.982 180.003 301.43 179.602C300.883 179.201 300.456 178.628 300.148 177.883C299.841 177.138 299.688 176.271 299.688 175.281ZM301.125 175.281C301.125 176.01 301.216 176.646 301.398 177.188C301.581 177.729 301.836 178.146 302.164 178.438C302.497 178.729 302.88 178.875 303.312 178.875C303.74 178.875 304.117 178.729 304.445 178.438C304.773 178.146 305.029 177.729 305.211 177.188C305.393 176.646 305.484 176.01 305.484 175.281C305.484 174.562 305.393 173.935 305.211 173.398C305.029 172.857 304.773 172.44 304.445 172.148C304.117 171.852 303.74 171.703 303.312 171.703C302.88 171.703 302.497 171.852 302.164 172.148C301.836 172.44 301.581 172.857 301.398 173.398C301.216 173.935 301.125 174.562 301.125 175.281ZM58.7969 196.016C58.7969 196.531 58.9036 197.036 59.1172 197.531C59.3359 198.021 59.6562 198.464 60.0781 198.859C60.5 199.25 61.0052 199.557 61.5938 199.781L60.8125 200.922C60.1771 200.677 59.6276 200.331 59.1641 199.883C58.7057 199.435 58.349 198.914 58.0938 198.32C57.8281 198.992 57.4531 199.591 56.9688 200.117C56.4896 200.638 55.9219 201.042 55.2656 201.328L54.4531 200.172C55.0625 199.906 55.5859 199.549 56.0234 199.102C56.4609 198.648 56.7917 198.154 57.0156 197.617C57.2448 197.081 57.3594 196.547 57.3594 196.016V194.203H58.7969V196.016ZM57.0312 204.766C57.026 204.24 57.2135 203.786 57.5938 203.406C57.974 203.021 58.5208 202.727 59.2344 202.523C59.9479 202.32 60.7917 202.219 61.7656 202.219C62.7344 202.219 63.5755 202.32 64.2891 202.523C65.0078 202.727 65.5599 203.021 65.9453 203.406C66.3359 203.786 66.5312 204.24 66.5312 204.766C66.5312 205.292 66.3359 205.745 65.9453 206.125C65.5599 206.505 65.0078 206.794 64.2891 206.992C63.5755 207.195 62.7344 207.297 61.7656 207.297C60.7917 207.297 59.9479 207.195 59.2344 206.992C58.5208 206.794 57.974 206.505 57.5938 206.125C57.2135 205.745 57.026 205.292 57.0312 204.766ZM58.5 204.766C58.4948 205.057 58.6224 205.31 58.8828 205.523C59.1432 205.732 59.5182 205.891 60.0078 206C60.5026 206.109 61.0885 206.161 61.7656 206.156C62.4375 206.161 63.0182 206.109 63.5078 206C64.0026 205.891 64.3828 205.732 64.6484 205.523C64.9141 205.315 65.0469 205.062 65.0469 204.766C65.0469 204.474 64.9167 204.224 64.6562 204.016C64.3958 203.802 64.0234 203.641 63.5391 203.531C63.0547 203.417 62.4792 203.359 61.8125 203.359C60.7656 203.359 59.9505 203.482 59.3672 203.727C58.7839 203.971 58.4948 204.318 58.5 204.766ZM62.0312 193.594H63.4062V196.984H65.0469V193.344H66.4531V201.953H65.0469V198.203H63.4062V201.516H62.0312V193.594ZM79.3438 196.781H81.375V198.031H79.3438V201.516H77.8594V193.328H79.3438V196.781ZM68.2656 200.25C69.375 199.958 70.3333 199.573 71.1406 199.094C71.9531 198.615 72.5911 198.062 73.0547 197.438C73.5182 196.807 73.7917 196.125 73.875 195.391H68.9375V194.188H75.4688C75.4688 195.375 75.2083 196.448 74.6875 197.406C74.1667 198.359 73.4141 199.172 72.4297 199.844C71.4453 200.516 70.2604 201.031 68.875 201.391L68.2656 200.25ZM70.0938 202.125H79.3438V207.328H77.8594V203.328H70.0938V202.125ZM89.0938 196.844H82.1406V195.641H84.8906V193.734H86.3594V195.641H89.0938V196.844ZM82.5938 200.906C82.5938 200.286 82.7214 199.732 82.9766 199.242C83.237 198.753 83.599 198.372 84.0625 198.102C84.526 197.826 85.0469 197.688 85.625 197.688C86.2083 197.688 86.7292 197.826 87.1875 198.102C87.651 198.372 88.013 198.753 88.2734 199.242C88.5391 199.732 88.6719 200.286 88.6719 200.906C88.6719 201.536 88.5391 202.099 88.2734 202.594C88.013 203.089 87.651 203.474 87.1875 203.75C86.7292 204.021 86.2083 204.156 85.625 204.156C85.0469 204.156 84.526 204.021 84.0625 203.75C83.599 203.474 83.237 203.089 82.9766 202.594C82.7214 202.099 82.5938 201.536 82.5938 200.906ZM83.9062 200.906C83.9062 201.297 83.9792 201.643 84.125 201.945C84.2708 202.242 84.474 202.474 84.7344 202.641C84.9948 202.807 85.2917 202.891 85.625 202.891C85.9583 202.891 86.2552 202.807 86.5156 202.641C86.7812 202.474 86.987 202.242 87.1328 201.945C87.2839 201.643 87.3594 201.297 87.3594 200.906C87.3594 200.526 87.2839 200.185 87.1328 199.883C86.987 199.581 86.7812 199.346 86.5156 199.18C86.2552 199.008 85.9583 198.922 85.625 198.922C85.2917 198.922 84.9948 199.008 84.7344 199.18C84.474 199.346 84.2708 199.581 84.125 199.883C83.9792 200.185 83.9062 200.526 83.9062 200.906ZM89.7344 193.641H91.1406V199.156H92.75V193.328H94.1562V207.328H92.75V200.375H91.1406V206.672H89.7344V193.641ZM108.812 205.594H96V204.359H101.641V201.484H97.4688V194.281H98.9531V196.688H105.828V194.281H107.297V201.484H103.109V204.359H108.812V205.594ZM105.828 200.281V197.891H98.9531V200.281H105.828ZM121.156 198.609H111.516V193.828H112.984V197.422H121.156V198.609ZM109.812 200.375H122.625V201.562H109.812V200.375ZM111.406 202.891H112.891V205.781H121.25V207H111.406V202.891ZM132.703 196.891C132.698 197.734 132.852 198.565 133.164 199.383C133.482 200.201 133.922 200.927 134.484 201.562C135.052 202.193 135.693 202.667 136.406 202.984L135.516 204.156C134.719 203.776 134.013 203.214 133.398 202.469C132.784 201.724 132.31 200.87 131.977 199.906C131.648 200.948 131.169 201.867 130.539 202.664C129.914 203.461 129.188 204.062 128.359 204.469L127.453 203.219C128.177 202.901 128.823 202.414 129.391 201.758C129.958 201.096 130.401 200.341 130.719 199.492C131.042 198.638 131.203 197.771 131.203 196.891V194.5H132.703V196.891ZM137.672 193.328H139.156V207.359H137.672V193.328ZM152.391 197.469H154.422V198.703H152.391V203.5H150.891V193.328H152.391V197.469ZM141.375 200.781C142.464 200.453 143.409 200.034 144.211 199.523C145.018 199.008 145.656 198.422 146.125 197.766C146.599 197.104 146.883 196.391 146.977 195.625H141.969V194.391H148.594C148.594 195.599 148.331 196.701 147.805 197.695C147.279 198.685 146.521 199.542 145.531 200.266C144.547 200.984 143.37 201.552 142 201.969L141.375 200.781ZM143.5 202.453H145V205.828H152.969V207.031H143.5V202.453ZM161.594 193.562C162.646 193.562 163.544 193.654 164.289 193.836C165.034 194.018 165.604 194.292 166 194.656C166.396 195.016 166.594 195.453 166.594 195.969C166.594 196.49 166.396 196.932 166 197.297C165.604 197.656 165.034 197.93 164.289 198.117C163.544 198.299 162.646 198.391 161.594 198.391C160.542 198.391 159.641 198.299 158.891 198.117C158.146 197.93 157.576 197.656 157.18 197.297C156.789 196.932 156.594 196.49 156.594 195.969C156.594 195.453 156.789 195.016 157.18 194.656C157.576 194.292 158.146 194.018 158.891 193.836C159.641 193.654 160.542 193.562 161.594 193.562ZM155.219 199.25H167.984V200.438H155.219V199.25ZM156.75 201.516H166.375V204.797H158.219V206.047H166.766V207.188H156.766V203.719H164.906V202.625H156.75V201.516ZM158.141 195.969C158.135 196.401 158.43 196.729 159.023 196.953C159.617 197.172 160.474 197.281 161.594 197.281C162.724 197.281 163.586 197.172 164.18 196.953C164.773 196.729 165.068 196.401 165.062 195.969C165.068 195.552 164.768 195.229 164.164 195C163.565 194.771 162.708 194.656 161.594 194.656C160.484 194.656 159.63 194.771 159.031 195C158.432 195.229 158.135 195.552 158.141 195.969ZM183.859 198.906H186.031V200.141H183.859V207.312H182.375V193.328H183.859V198.906ZM172.969 203.578C174.719 202.703 176.07 201.635 177.023 200.375C177.982 199.115 178.536 197.667 178.688 196.031H173.672V194.797H180.203C180.193 196.932 179.674 198.852 178.648 200.555C177.622 202.253 176.005 203.646 173.797 204.734L172.969 203.578ZM198.375 200.562H196.906V193.328H198.375V200.562ZM186.938 199.453C187.651 199.234 188.273 198.914 188.805 198.492C189.336 198.065 189.745 197.576 190.031 197.023C190.323 196.466 190.469 195.885 190.469 195.281H187.328V194.078H195.047V195.281H191.969C191.969 195.849 192.109 196.393 192.391 196.914C192.677 197.435 193.086 197.893 193.617 198.289C194.148 198.685 194.771 198.984 195.484 199.188L194.766 200.328C193.948 200.083 193.237 199.711 192.633 199.211C192.029 198.711 191.565 198.12 191.242 197.438C190.93 198.188 190.461 198.841 189.836 199.398C189.216 199.951 188.479 200.359 187.625 200.625L186.938 199.453ZM189.188 201.203H198.391V204.672H190.672V206.031H198.859V207.188H189.234V203.594H196.922V202.344H189.188V201.203ZM211.688 194.562C211.688 195.172 211.911 195.758 212.359 196.32C212.812 196.883 213.422 197.362 214.188 197.758C214.958 198.154 215.797 198.411 216.703 198.531L216.125 199.75C215.365 199.63 214.643 199.422 213.961 199.125C213.279 198.828 212.674 198.461 212.148 198.023C211.628 197.581 211.216 197.089 210.914 196.547C210.612 197.089 210.198 197.581 209.672 198.023C209.151 198.461 208.552 198.828 207.875 199.125C207.198 199.417 206.479 199.625 205.719 199.75L205.125 198.531C206.031 198.411 206.867 198.156 207.633 197.766C208.398 197.375 209.008 196.898 209.461 196.336C209.914 195.768 210.141 195.177 210.141 194.562V193.797H211.688V194.562ZM204.516 201.125H217.281V202.344H211.594V207.328H210.141V202.344H204.516V201.125ZM227.109 202.578C227.109 203.208 227.268 203.815 227.586 204.398C227.904 204.977 228.367 205.448 228.977 205.812C229.388 205.547 229.737 205.232 230.023 204.867C230.315 204.503 230.531 204.122 230.672 203.727C230.818 203.331 230.891 202.948 230.891 202.578V201.906H232.344V202.578C232.339 203.068 232.443 203.542 232.656 204C232.87 204.453 233.185 204.857 233.602 205.211C234.023 205.565 234.531 205.839 235.125 206.031L234.391 207.125C233.714 206.891 233.138 206.552 232.664 206.109C232.19 205.672 231.828 205.159 231.578 204.57C231.344 205.164 231.01 205.695 230.578 206.164C230.151 206.633 229.63 206.995 229.016 207.25C228.37 207.005 227.826 206.654 227.383 206.195C226.945 205.737 226.615 205.208 226.391 204.609C226.13 205.177 225.766 205.68 225.297 206.117C224.833 206.555 224.281 206.891 223.641 207.125L222.891 206.031C223.469 205.823 223.966 205.536 224.383 205.172C224.805 204.802 225.122 204.393 225.336 203.945C225.555 203.492 225.667 203.036 225.672 202.578V201.906H227.109V202.578ZM222.531 197.422C222.531 196.781 222.693 196.211 223.016 195.711C223.339 195.206 223.784 194.812 224.352 194.531C224.919 194.25 225.557 194.109 226.266 194.109C226.974 194.109 227.609 194.25 228.172 194.531C228.74 194.812 229.182 195.206 229.5 195.711C229.823 196.211 229.984 196.781 229.984 197.422C229.984 198.057 229.823 198.625 229.5 199.125C229.182 199.62 228.74 200.008 228.172 200.289C227.609 200.565 226.974 200.703 226.266 200.703C225.557 200.703 224.919 200.565 224.352 200.289C223.784 200.008 223.339 199.62 223.016 199.125C222.693 198.625 222.531 198.057 222.531 197.422ZM223.984 197.422C223.984 197.823 224.081 198.18 224.273 198.492C224.466 198.799 224.737 199.039 225.086 199.211C225.435 199.383 225.828 199.469 226.266 199.469C226.698 199.469 227.086 199.383 227.43 199.211C227.773 199.039 228.042 198.799 228.234 198.492C228.432 198.18 228.531 197.823 228.531 197.422C228.531 197.021 228.432 196.664 228.234 196.352C228.042 196.039 227.773 195.799 227.43 195.633C227.086 195.461 226.698 195.375 226.266 195.375C225.828 195.375 225.435 195.461 225.086 195.633C224.737 195.799 224.466 196.039 224.273 196.352C224.081 196.664 223.984 197.021 223.984 197.422ZM232.375 193.344H233.859V201.312H232.375V193.344ZM241.047 202.562C241.047 203.198 241.206 203.807 241.523 204.391C241.841 204.969 242.305 205.445 242.914 205.82C243.326 205.555 243.672 205.237 243.953 204.867C244.24 204.497 244.453 204.112 244.594 203.711C244.734 203.31 244.807 202.927 244.812 202.562V201.812H246.266V202.562C246.266 203.052 246.372 203.526 246.586 203.984C246.799 204.443 247.117 204.852 247.539 205.211C247.966 205.57 248.479 205.844 249.078 206.031L248.312 207.141C247.641 206.901 247.068 206.557 246.594 206.109C246.125 205.667 245.766 205.148 245.516 204.555C245.276 205.154 244.94 205.69 244.508 206.164C244.081 206.643 243.557 207.01 242.938 207.266C242.297 207.021 241.758 206.667 241.32 206.203C240.883 205.745 240.549 205.216 240.32 204.617C240.065 205.185 239.703 205.688 239.234 206.125C238.771 206.562 238.219 206.901 237.578 207.141L236.859 206.031C237.438 205.828 237.932 205.544 238.344 205.18C238.76 204.81 239.076 204.398 239.289 203.945C239.508 203.487 239.62 203.026 239.625 202.562V201.812H241.047V202.562ZM236.297 197.406C236.297 196.771 236.453 196.203 236.766 195.703C237.083 195.198 237.518 194.805 238.07 194.523C238.628 194.237 239.255 194.094 239.953 194.094C240.552 194.094 241.102 194.206 241.602 194.43C242.107 194.648 242.526 194.961 242.859 195.367C243.198 195.768 243.419 196.229 243.523 196.75H246.266V193.328H247.75V201.266H246.266V197.969H243.547C243.453 198.505 243.237 198.982 242.898 199.398C242.565 199.81 242.143 200.13 241.633 200.359C241.122 200.589 240.562 200.703 239.953 200.703C239.255 200.703 238.628 200.562 238.07 200.281C237.518 200 237.083 199.609 236.766 199.109C236.453 198.609 236.297 198.042 236.297 197.406ZM237.719 197.406C237.719 197.802 237.812 198.159 238 198.477C238.193 198.789 238.458 199.034 238.797 199.211C239.141 199.383 239.526 199.469 239.953 199.469C240.37 199.469 240.745 199.383 241.078 199.211C241.417 199.034 241.682 198.789 241.875 198.477C242.073 198.159 242.172 197.802 242.172 197.406C242.172 197 242.076 196.641 241.883 196.328C241.69 196.016 241.424 195.773 241.086 195.602C240.747 195.43 240.37 195.344 239.953 195.344C239.526 195.344 239.141 195.43 238.797 195.602C238.458 195.773 238.193 196.016 238 196.328C237.812 196.641 237.719 197 237.719 197.406ZM257.156 195.641H252.203V200.328C253.448 200.328 254.495 200.299 255.344 200.242C256.193 200.185 257.047 200.073 257.906 199.906L258.062 201.109C257.115 201.276 256.174 201.391 255.242 201.453C254.31 201.516 253.167 201.547 251.812 201.547H250.734V194.422H257.156V195.641ZM252.453 202.75H253.953V205.906H261.938V207.109H252.453V202.75ZM256.281 197.141H260.094V193.344H261.578V203.547H260.094V198.328H256.281V197.141ZM279.312 202.75H277.828V198.422H274.969V197.203H277.828V193.344H279.312V202.75ZM267.844 200.766C269.484 200.271 270.766 199.583 271.688 198.703C272.615 197.823 273.148 196.797 273.289 195.625H268.562V194.422H274.875C274.875 196.234 274.328 197.776 273.234 199.047C272.146 200.318 270.568 201.281 268.5 201.938L267.844 200.766ZM269.328 206.094C270.203 205.953 270.992 205.695 271.695 205.32C272.398 204.94 272.953 204.477 273.359 203.93C273.766 203.383 273.969 202.797 273.969 202.172V201.594H275.438V202.172C275.438 202.792 275.635 203.372 276.031 203.914C276.432 204.451 276.982 204.909 277.68 205.289C278.383 205.664 279.172 205.927 280.047 206.078L279.438 207.25C278.359 207.057 277.404 206.701 276.57 206.18C275.737 205.664 275.112 205.026 274.695 204.266C274.273 205.026 273.641 205.667 272.797 206.188C271.958 206.714 270.995 207.078 269.906 207.281L269.328 206.094ZM296.375 196.484H298.406V197.688H296.375V200.766H294.891V193.328H296.375V196.484ZM285.391 199.828C286.542 199.594 287.521 199.266 288.328 198.844C289.135 198.417 289.758 197.919 290.195 197.352C290.633 196.779 290.885 196.156 290.953 195.484H286.016V194.297H292.594C292.594 196.057 292.026 197.508 290.891 198.648C289.755 199.784 288.13 200.578 286.016 201.031L285.391 199.828ZM287.391 201.359H296.438V202.484H288.875V203.688H296.281V204.766H288.875V206.031H296.75V207.156H287.391V201.359ZM302.953 194.375C303.646 194.375 304.263 194.578 304.805 194.984C305.352 195.385 305.779 195.958 306.086 196.703C306.393 197.443 306.547 198.302 306.547 199.281C306.547 200.271 306.393 201.138 306.086 201.883C305.779 202.628 305.354 203.201 304.812 203.602C304.271 204.003 303.651 204.203 302.953 204.203C302.255 204.203 301.635 204.003 301.094 203.602C300.552 203.201 300.13 202.628 299.828 201.883C299.526 201.138 299.375 200.271 299.375 199.281C299.375 198.302 299.526 197.443 299.828 196.703C300.13 195.958 300.552 195.385 301.094 194.984C301.635 194.578 302.255 194.375 302.953 194.375ZM300.797 199.281C300.797 200.01 300.885 200.646 301.062 201.188C301.245 201.729 301.5 202.146 301.828 202.438C302.156 202.729 302.531 202.875 302.953 202.875C303.385 202.875 303.766 202.732 304.094 202.445C304.422 202.154 304.674 201.737 304.852 201.195C305.034 200.648 305.125 200.01 305.125 199.281C305.125 198.557 305.034 197.927 304.852 197.391C304.674 196.849 304.422 196.432 304.094 196.141C303.766 195.849 303.385 195.703 302.953 195.703C302.531 195.703 302.156 195.852 301.828 196.148C301.5 196.44 301.245 196.857 301.062 197.398C300.885 197.935 300.797 198.562 300.797 199.281ZM308.625 193.328H310.109V198.812H312.359V200.062H310.109V207.328H308.625V193.328ZM325.844 205.578H313.031V204.344H316.094V200.688C315.505 200.365 315.049 199.956 314.727 199.461C314.404 198.966 314.245 198.411 314.25 197.797C314.25 197.073 314.469 196.435 314.906 195.883C315.344 195.331 315.953 194.904 316.734 194.602C317.521 194.294 318.411 194.141 319.406 194.141C320.401 194.141 321.292 194.294 322.078 194.602C322.865 194.904 323.477 195.331 323.914 195.883C324.357 196.435 324.578 197.073 324.578 197.797C324.578 198.406 324.422 198.956 324.109 199.445C323.797 199.93 323.354 200.333 322.781 200.656V204.344H325.844V205.578ZM315.688 197.797C315.688 198.292 315.844 198.727 316.156 199.102C316.469 199.477 316.906 199.768 317.469 199.977C318.031 200.18 318.677 200.281 319.406 200.281C320.13 200.281 320.773 200.177 321.336 199.969C321.904 199.76 322.346 199.471 322.664 199.102C322.982 198.727 323.141 198.292 323.141 197.797C323.141 197.302 322.982 196.87 322.664 196.5C322.346 196.125 321.904 195.836 321.336 195.633C320.773 195.43 320.13 195.328 319.406 195.328C318.677 195.328 318.031 195.43 317.469 195.633C316.906 195.836 316.469 196.125 316.156 196.5C315.844 196.87 315.688 197.302 315.688 197.797ZM321.281 204.344V201.234C320.698 201.37 320.073 201.438 319.406 201.438C318.75 201.438 318.135 201.37 317.562 201.234V204.344H321.281ZM328.453 206.109C328.255 206.109 328.07 206.06 327.898 205.961C327.732 205.862 327.596 205.729 327.492 205.562C327.393 205.396 327.344 205.214 327.344 205.016C327.344 204.812 327.393 204.625 327.492 204.453C327.591 204.281 327.724 204.146 327.891 204.047C328.062 203.943 328.25 203.891 328.453 203.891C328.651 203.891 328.833 203.94 329 204.039C329.172 204.138 329.307 204.273 329.406 204.445C329.51 204.617 329.562 204.802 329.562 205C329.562 205.198 329.51 205.383 329.406 205.555C329.307 205.721 329.172 205.857 329 205.961C328.833 206.06 328.651 206.109 328.453 206.109Z" fill="#636572"/>
<path d="M65.1049 237.538C65.4846 236.821 66.5153 236.821 66.8951 237.538L69.4796 242.419C69.626 242.696 69.8929 242.889 70.2021 242.942L75.6596 243.883C76.4613 244.021 76.7798 244.998 76.2127 245.579L72.3526 249.537C72.1339 249.761 72.0319 250.074 72.0766 250.383L72.865 255.846C72.9808 256.649 72.147 257.252 71.4168 256.895L66.4465 254.459C66.1649 254.321 65.8351 254.321 65.5535 254.459L60.5832 256.895C59.853 257.252 59.0192 256.649 59.135 255.846L59.9234 250.383C59.9681 250.074 59.8661 249.761 59.6474 249.537L55.7873 245.579C55.2202 244.998 55.5387 244.021 56.3404 243.883L61.7979 242.942C62.1071 242.889 62.374 242.696 62.5204 242.419L65.1049 237.538Z" fill="#576DFC"/>
<path d="M91.1049 237.538C91.4846 236.821 92.5153 236.821 92.8951 237.538L95.4796 242.419C95.626 242.696 95.8929 242.889 96.2021 242.942L101.66 243.883C102.461 244.021 102.78 244.998 102.213 245.579L98.3526 249.537C98.1339 249.761 98.0319 250.074 98.0766 250.383L98.865 255.846C98.9808 256.649 98.147 257.252 97.4168 256.895L92.4465 254.459C92.1649 254.321 91.8351 254.321 91.5535 254.459L86.5832 256.895C85.853 257.252 85.0192 256.649 85.135 255.846L85.9234 250.383C85.9681 250.074 85.8661 249.761 85.6474 249.537L81.7873 245.579C81.2202 244.998 81.5387 244.021 82.3404 243.883L87.7979 242.942C88.1071 242.889 88.374 242.696 88.5204 242.419L91.1049 237.538Z" fill="#576DFC"/>
<path d="M117.105 237.538C117.485 236.821 118.515 236.821 118.895 237.538L121.48 242.419C121.626 242.696 121.893 242.889 122.202 242.942L127.66 243.883C128.461 244.021 128.78 244.998 128.213 245.579L124.353 249.537C124.134 249.761 124.032 250.074 124.077 250.383L124.865 255.846C124.981 256.649 124.147 257.252 123.417 256.895L118.447 254.459C118.165 254.321 117.835 254.321 117.553 254.459L112.583 256.895C111.853 257.252 111.019 256.649 111.135 255.846L111.923 250.383C111.968 250.074 111.866 249.761 111.647 249.537L107.787 245.579C107.22 244.998 107.539 244.021 108.34 243.883L113.798 242.942C114.107 242.889 114.374 242.696 114.52 242.419L117.105 237.538Z" fill="#576DFC"/>
<path d="M143.105 237.538C143.485 236.821 144.515 236.821 144.895 237.538L147.48 242.419C147.626 242.696 147.893 242.889 148.202 242.942L153.66 243.883C154.461 244.021 154.78 244.998 154.213 245.579L150.353 249.537C150.134 249.761 150.032 250.074 150.077 250.383L150.865 255.846C150.981 256.649 150.147 257.252 149.417 256.895L144.447 254.459C144.165 254.321 143.835 254.321 143.553 254.459L138.583 256.895C137.853 257.252 137.019 256.649 137.135 255.846L137.923 250.383C137.968 250.074 137.866 249.761 137.647 249.537L133.787 245.579C133.22 244.998 133.539 244.021 134.34 243.883L139.798 242.942C140.107 242.889 140.374 242.696 140.52 242.419L143.105 237.538Z" fill="#576DFC"/>
<path d="M169.105 237.538C169.485 236.821 170.515 236.821 170.895 237.538L173.48 242.419C173.626 242.696 173.893 242.889 174.202 242.942L179.66 243.883C180.461 244.021 180.78 244.998 180.213 245.579L176.353 249.537C176.134 249.761 176.032 250.074 176.077 250.383L176.865 255.846C176.981 256.649 176.147 257.252 175.417 256.895L170.447 254.459C170.165 254.321 169.835 254.321 169.553 254.459L164.583 256.895C163.853 257.252 163.019 256.649 163.135 255.846L163.923 250.383C163.968 250.074 163.866 249.761 163.647 249.537L159.787 245.579C159.22 244.998 159.539 244.021 160.34 243.883L165.798 242.942C166.107 242.889 166.374 242.696 166.52 242.419L169.105 237.538Z" fill="#576DFC"/>
<path d="M192.191 254.195C191.26 254.195 190.421 254.023 189.672 253.678C188.93 253.333 188.34 252.854 187.904 252.242C187.468 251.63 187.237 250.94 187.211 250.172H189.691C189.717 250.543 189.844 250.878 190.072 251.178C190.3 251.477 190.6 251.715 190.971 251.891C191.342 252.06 191.749 252.145 192.191 252.145C192.712 252.145 193.178 252.027 193.588 251.793C194.005 251.552 194.327 251.227 194.555 250.816C194.789 250.406 194.906 249.944 194.906 249.43C194.906 248.896 194.786 248.417 194.545 247.994C194.304 247.571 193.969 247.242 193.539 247.008C193.109 246.773 192.621 246.656 192.074 246.656C190.961 246.656 190.193 247.06 189.77 247.867H187.406L188.266 239.859H196.625V241.988H190.355L189.926 245.738H190.062C190.342 245.419 190.727 245.162 191.215 244.967C191.703 244.771 192.23 244.671 192.797 244.664C193.663 244.664 194.444 244.866 195.141 245.27C195.837 245.673 196.381 246.233 196.771 246.949C197.169 247.659 197.367 248.46 197.367 249.352C197.367 250.283 197.149 251.116 196.713 251.852C196.277 252.587 195.665 253.163 194.877 253.58C194.089 253.99 193.194 254.195 192.191 254.195Z" fill="#3E404B"/>
<path d="M55.1885 320.576H56.5967V321.752H56.6787C56.8154 321.36 57.0524 321.048 57.3896 320.815C57.7314 320.583 58.1165 320.467 58.5449 320.467C58.7591 320.467 58.971 320.476 59.1807 320.494V321.889C59.0986 321.87 58.9801 321.852 58.8252 321.834C58.6748 321.816 58.5335 321.807 58.4014 321.807C58.0687 321.807 57.7702 321.88 57.5059 322.025C57.2415 322.167 57.0319 322.365 56.877 322.62C56.7266 322.871 56.6514 323.156 56.6514 323.475V328H55.1885V320.576ZM61.7373 328H60.2744V318.102H61.7373V328ZM63.1729 325.908C63.1683 325.138 63.4258 324.589 63.9453 324.261C64.4694 323.933 65.137 323.739 65.9482 323.68C67.001 323.62 67.6504 323.586 67.8965 323.577L67.8896 322.982C67.8942 322.559 67.7666 322.233 67.5068 322.005C67.2516 321.772 66.8779 321.656 66.3857 321.656C65.971 321.656 65.6315 321.743 65.3672 321.916C65.1029 322.085 64.932 322.312 64.8545 322.6H63.4053C63.4508 322.189 63.6035 321.825 63.8633 321.506C64.123 321.182 64.474 320.932 64.916 320.754C65.3581 320.572 65.8662 320.48 66.4404 320.48C66.9098 320.48 67.361 320.553 67.7939 320.699C68.2314 320.84 68.6006 321.105 68.9014 321.492C69.2021 321.875 69.3525 322.399 69.3525 323.064V328H67.9307V326.988H67.876C67.7074 327.312 67.4385 327.59 67.0693 327.822C66.7002 328.05 66.2354 328.164 65.6748 328.164C65.2008 328.164 64.7725 328.075 64.3896 327.897C64.0114 327.72 63.7129 327.462 63.4941 327.125C63.2799 326.783 63.1729 326.378 63.1729 325.908ZM64.5947 325.922C64.5947 326.268 64.7223 326.535 64.9775 326.722C65.2373 326.904 65.5791 326.997 66.0029 327.002C66.3857 327.002 66.7207 326.924 67.0078 326.77C67.2949 326.615 67.516 326.41 67.6709 326.154C67.8258 325.895 67.9033 325.617 67.9033 325.32L67.8965 324.644L66.1533 324.76C65.6566 324.796 65.2715 324.91 64.998 325.102C64.7292 325.293 64.5947 325.566 64.5947 325.922ZM73.8916 328.15C73.2946 328.146 72.7614 327.991 72.292 327.686C71.8226 327.376 71.4535 326.931 71.1846 326.353C70.9202 325.769 70.7881 325.088 70.7881 324.309C70.7881 323.52 70.9225 322.839 71.1914 322.265C71.4603 321.686 71.8294 321.244 72.2988 320.938C72.7728 320.633 73.3083 320.48 73.9053 320.48C74.3291 320.48 74.6823 320.551 74.9648 320.692C75.252 320.829 75.4707 320.989 75.6211 321.171C75.776 321.349 75.9196 321.551 76.0518 321.779H76.1201V318.102H77.583V328H76.1611V326.838H76.0518C75.9242 327.061 75.7783 327.266 75.6143 327.453C75.4548 327.635 75.2314 327.797 74.9443 327.938C74.6572 328.08 74.3063 328.15 73.8916 328.15ZM72.2783 324.281C72.2738 324.787 72.3467 325.238 72.4971 325.635C72.6475 326.027 72.8685 326.337 73.1602 326.564C73.4518 326.792 73.805 326.906 74.2197 326.906C74.6253 326.906 74.974 326.797 75.2656 326.578C75.5573 326.359 75.7783 326.052 75.9287 325.655C76.0837 325.259 76.1611 324.801 76.1611 324.281C76.1611 323.762 76.0859 323.311 75.9355 322.928C75.7852 322.545 75.5641 322.249 75.2725 322.039C74.9808 321.829 74.6299 321.725 74.2197 321.725C73.8005 321.725 73.445 321.834 73.1533 322.053C72.8617 322.271 72.6406 322.575 72.4902 322.962C72.3444 323.345 72.2738 323.785 72.2783 324.281ZM81.6162 321.629L79.8936 322.736L79.374 321.807L81.1924 320.891L79.374 319.961L79.8936 319.031L81.6162 320.139L81.5205 318.102H82.5869L82.4912 320.139L84.2002 319.031L84.7334 319.961L82.9014 320.891L84.7334 321.807L84.2002 322.736L82.4912 321.629L82.5869 323.666H81.5205L81.6162 321.629ZM88.5342 321.629L86.8115 322.736L86.292 321.807L88.1104 320.891L86.292 319.961L86.8115 319.031L88.5342 320.139L88.4385 318.102H89.5049L89.4092 320.139L91.1182 319.031L91.6514 319.961L89.8193 320.891L91.6514 321.807L91.1182 322.736L89.4092 321.629L89.5049 323.666H88.4385L88.5342 321.629ZM95.4521 321.629L93.7295 322.736L93.21 321.807L95.0283 320.891L93.21 319.961L93.7295 319.031L95.4521 320.139L95.3564 318.102H96.4229L96.3271 320.139L98.0361 319.031L98.5693 319.961L96.7373 320.891L98.5693 321.807L98.0361 322.736L96.3271 321.629L96.4229 323.666H95.3564L95.4521 321.629ZM102.37 321.629L100.647 322.736L100.128 321.807L101.946 320.891L100.128 319.961L100.647 319.031L102.37 320.139L102.274 318.102H103.341L103.245 320.139L104.954 319.031L105.487 319.961L103.655 320.891L105.487 321.807L104.954 322.736L103.245 321.629L103.341 323.666H102.274L102.37 321.629ZM116.862 323.83H115.577V316.912H116.862V323.83ZM107.47 317.623H108.769V321.916C109.808 321.907 110.769 321.861 111.653 321.779C112.542 321.697 113.431 321.561 114.319 321.369L114.497 322.449C113.517 322.65 112.549 322.793 111.592 322.88C110.635 322.962 109.598 323.005 108.481 323.01H107.47V317.623ZM108.837 324.391H116.862V328.998H108.837V324.391ZM115.591 327.959V325.416H110.108V327.959H115.591ZM122.81 317.787C123.448 317.787 124.02 317.91 124.525 318.156C125.031 318.398 125.428 318.742 125.715 319.188C126.002 319.631 126.146 320.134 126.146 320.699C126.146 321.264 126.002 321.77 125.715 322.217C125.428 322.659 125.031 323.005 124.525 323.256C124.02 323.502 123.448 323.625 122.81 323.625C122.172 323.625 121.597 323.502 121.087 323.256C120.581 323.005 120.185 322.659 119.897 322.217C119.615 321.77 119.474 321.264 119.474 320.699C119.474 320.134 119.615 319.631 119.897 319.188C120.185 318.746 120.581 318.402 121.087 318.156C121.597 317.91 122.172 317.787 122.81 317.787ZM118.886 325.471C120.426 325.471 121.848 325.446 123.151 325.396C124.455 325.345 125.699 325.234 126.884 325.061L126.979 326.004C125.758 326.241 124.516 326.391 123.254 326.455C121.996 326.519 120.595 326.551 119.05 326.551L118.886 325.471ZM120.759 320.699C120.754 321.055 120.839 321.369 121.012 321.643C121.189 321.911 121.433 322.121 121.743 322.271C122.058 322.417 122.413 322.49 122.81 322.49C123.206 322.49 123.559 322.417 123.869 322.271C124.184 322.121 124.43 321.911 124.607 321.643C124.785 321.369 124.874 321.055 124.874 320.699C124.874 320.348 124.785 320.038 124.607 319.77C124.43 319.496 124.184 319.284 123.869 319.134C123.555 318.983 123.201 318.908 122.81 318.908C122.413 318.908 122.058 318.983 121.743 319.134C121.433 319.284 121.189 319.496 121.012 319.77C120.839 320.038 120.754 320.348 120.759 320.699ZM127.649 316.912H128.948V329.189H127.649V316.912ZM144.479 323.215H143.194V316.912H144.479V323.215ZM134.376 322.121C135 321.911 135.545 321.606 136.01 321.205C136.479 320.804 136.837 320.341 137.083 319.817C137.334 319.293 137.461 318.749 137.466 318.184V317.24H138.792V318.184C138.792 318.726 138.915 319.245 139.161 319.742C139.407 320.239 139.76 320.676 140.221 321.055C140.681 321.428 141.221 321.711 141.841 321.902L141.198 322.914C140.487 322.682 139.87 322.335 139.346 321.875C138.822 321.415 138.421 320.87 138.143 320.241C137.86 320.92 137.45 321.513 136.912 322.019C136.379 322.524 135.752 322.9 135.032 323.146L134.376 322.121ZM136.44 323.803H144.493V326.865H137.739V328H144.903V329.039H136.481V325.881H143.208V324.828H136.44V323.803ZM156.948 329.162H155.704V316.912H156.948V329.162ZM146.257 325.785C146.817 325.448 147.294 324.992 147.686 324.418C148.082 323.844 148.378 323.206 148.574 322.504C148.775 321.798 148.877 321.073 148.882 320.33V319.346H146.626V318.293H152.231V319.346H150.126V320.33C150.126 321.041 150.222 321.731 150.413 322.401C150.609 323.071 150.898 323.677 151.281 324.22C151.669 324.762 152.14 325.193 152.696 325.512L151.917 326.469C151.347 326.132 150.86 325.667 150.454 325.074C150.053 324.482 149.741 323.805 149.518 323.044C149.294 323.869 148.973 324.603 148.554 325.245C148.134 325.888 147.633 326.391 147.05 326.756L146.257 325.785ZM151.329 321.246H153.229V317.172H154.46V328.547H153.229V322.312H151.329V321.246ZM172.493 319.332H162.526V318.266H166.888V316.857H168.173V318.266H172.493V319.332ZM161.952 324.842H173.163V325.908H168.173V329.176H166.888V325.908H161.952V324.842ZM163.456 322.025C163.456 321.583 163.616 321.207 163.935 320.897C164.258 320.588 164.725 320.353 165.336 320.193C165.947 320.034 166.678 319.956 167.53 319.961C168.378 319.956 169.107 320.034 169.718 320.193C170.328 320.353 170.796 320.588 171.119 320.897C171.443 321.207 171.604 321.583 171.604 322.025C171.604 322.458 171.443 322.827 171.119 323.133C170.796 323.438 170.328 323.673 169.718 323.837C169.107 323.996 168.378 324.076 167.53 324.076C166.683 324.076 165.953 323.996 165.343 323.837C164.732 323.673 164.265 323.438 163.941 323.133C163.618 322.827 163.456 322.458 163.456 322.025ZM164.796 322.025C164.796 322.363 165.028 322.625 165.493 322.812C165.958 322.998 166.621 323.092 167.482 323.092C168.376 323.092 169.062 323.001 169.54 322.818C170.019 322.636 170.26 322.372 170.265 322.025C170.26 321.674 170.021 321.406 169.547 321.219C169.077 321.027 168.405 320.932 167.53 320.932C166.651 320.932 165.974 321.027 165.5 321.219C165.031 321.406 164.796 321.674 164.796 322.025ZM184.237 329.162H182.925V316.912H184.237V329.162ZM174.175 325.881C175.779 325.115 176.998 324.183 177.832 323.085C178.666 321.987 179.147 320.713 179.274 319.264H174.763V318.225H180.587C180.587 320.12 180.133 321.804 179.227 323.276C178.324 324.748 176.868 325.967 174.858 326.934L174.175 325.881Z" fill="#888CA0"/>
<defs>
<clipPath id="clip0_5204_8535">
<rect width="36" height="26" fill="white" transform="translate(54 42)"/>
</clipPath>
</defs>
</svg>
