<svg width="24" height="24" viewBox="0 0 24 24" fill="none" xmlns="http://www.w3.org/2000/svg">
<path d="M20.3459 8.91881C19.5916 8.79793 18.8621 9.27094 18.5819 9.98152L17.5806 12.4966C17.5591 12.5551 17.4737 12.5585 17.4473 12.5046L13.3484 4.88268C13.0008 4.19916 12.1456 3.94311 11.4746 4.35002C10.8946 4.6996 10.7085 5.46173 10.9793 6.08372L13.1842 11.1664C13.0803 11.2173 12.9419 11.2882 12.7759 11.3751L9.45596 5.9841C9.10044 5.40654 8.3686 5.12519 7.75229 5.40365C7.03696 5.72562 6.75986 6.57726 7.11925 7.24934L10.1999 12.9909L9.75595 13.2894L6.38188 9.16925C5.95107 8.6445 5.19156 8.46673 4.61558 8.82322C3.94853 9.23704 3.78905 10.1174 4.23805 10.7376L7.66469 15.4678L7.3923 15.713L4.26166 12.8298C3.80118 12.4052 3.09884 12.3187 2.58359 12.6769C1.88527 13.1641 1.81252 14.1233 2.37143 14.7029L7.61832 20.1442C9.00217 21.5181 10.3092 23.0378 12.9374 23.1567C15.5655 23.2757 18.1109 21.5348 19.2171 19.5212C20.3233 17.5076 21.6476 11.036 21.6476 11.036C21.9555 10.1021 21.3719 9.08054 20.3493 8.91681L20.3459 8.91881Z" fill="#FFC83D"/>
<path d="M16.8289 14.3692C16.8289 14.3692 15.2115 16.0936 14.9598 18.5618C14.9598 18.5618 12.615 16.1176 16.8289 14.3692Z" fill="#EFAA25"/>
<path d="M16.1641 4V4C17.5448 4 18.6641 5.11929 18.6641 6.5V6.5" stroke="#576DFC" stroke-linecap="round"/>
<path d="M16.6641 2V2C18.8732 2 20.6641 3.79086 20.6641 6V6" stroke="#576DFC" stroke-linecap="round"/>
</svg>
