<svg width="124" height="52" viewBox="0 0 124 52" fill="none" xmlns="http://www.w3.org/2000/svg">
<path fill-rule="evenodd" clip-rule="evenodd" d="M98.1606 52H25.8433C11.5727 52 0.00195312 40.3582 0.00195312 26C0.00195312 11.6418 11.5727 0 25.8433 0H98.2249C112.495 0 124.066 11.6418 124.066 26C124.066 40.3582 112.431 52 98.1606 52Z" fill="#FFEB00"/>
<path fill-rule="evenodd" clip-rule="evenodd" d="M29.49 13C21.7625 13 15.5039 17.9824 15.5039 24.1941C15.5039 28.1412 18.1223 31.6353 22.018 33.6412L20.6769 38.6882C20.613 38.8176 20.6769 39.0118 20.8046 39.1412C20.8684 39.2059 20.9962 39.2706 21.06 39.2706C21.1239 39.2706 21.2516 39.2059 21.3155 39.2059L26.9993 35.3235C27.8296 35.4529 28.6598 35.5176 29.5539 35.5176C37.2814 35.5176 43.54 30.4706 43.54 24.3235C43.54 17.9824 37.2814 13 29.49 13Z" fill="black"/>
<path d="M55.3532 33.5119V40.759H50.2441V14.0355H53.8205L54.4591 15.7178C55.5448 14.6178 57.2053 13.4531 59.8237 13.4531C64.805 13.4531 67.168 17.2061 67.168 23.3531C67.168 29.759 63.5278 33.8355 58.2909 33.8355C57.2691 33.9002 56.5028 33.8355 55.3532 33.5119ZM55.3532 18.3708V29.8884C55.6087 29.9531 56.3112 30.0178 57.0137 30.0178C60.6539 30.0178 62.0589 27.4296 62.0589 23.3531C62.0589 19.7943 61.1009 17.659 58.2271 17.659C57.2053 17.659 56.1835 17.9178 55.3532 18.3708Z" fill="black"/>
<path d="M78.216 21.606H81.0898V20.959C81.0898 18.8237 79.8764 17.8531 77.8328 17.8531C76.2362 17.8531 74.2564 18.306 72.596 19.1472L71.191 15.7178C72.9791 14.4237 75.7891 13.5825 78.2798 13.5825C83.1335 13.5825 85.8157 16.1708 85.8157 21.1531V33.3825H82.2394L81.7285 31.7649C79.6848 33.2531 77.7689 33.9002 76.1085 33.9002C72.4044 33.9002 70.2969 31.6355 70.2969 27.8178C70.2969 23.7413 73.043 21.606 78.216 21.606ZM81.1537 28.4002V24.8413H78.7907C76.1723 24.8413 74.8312 25.8119 74.8312 27.6884C74.8312 29.1119 75.5337 29.8237 77.0664 29.8237C78.4714 29.8884 80.2596 29.1766 81.1537 28.4002Z" fill="black"/>
<path d="M101.271 31.3767C99.4832 36.1649 97.3757 39.659 94.2464 41.6002L91.117 38.6884C92.9052 37.0708 94.2464 35.5178 95.332 33.4473L88.5625 14.7473L93.6077 13.3884L97.9504 28.5296L102.229 13.3237L107.211 14.7473L101.271 31.3767Z" fill="black"/>
</svg>
