<svg width="100" height="30" viewBox="0 0 100 30" fill="none" xmlns="http://www.w3.org/2000/svg">
<path fill-rule="evenodd" clip-rule="evenodd" d="M15.2507 0C6.8245 0 0 5.2262 0 11.742C0 15.8822 2.85515 19.5473 7.10306 21.6514L5.64066 26.9455C5.57102 27.0812 5.64066 27.2848 5.77994 27.4206C5.84957 27.4884 5.98885 27.5563 6.05849 27.5563C6.12813 27.5563 6.2674 27.4884 6.33704 27.4884L12.5348 23.4161C13.4401 23.5518 14.3454 23.6197 15.3203 23.6197C23.7465 23.6197 30.571 18.3256 30.571 11.8777C30.571 5.2262 23.7465 0 15.2507 0Z" fill="#25272F"/>
<path d="M43.4538 21.5161V29.1179H37.8828V1.08644H41.7825L42.4789 2.85113C43.6627 1.69729 45.4733 0.475586 48.3285 0.475586C53.7602 0.475586 56.3368 4.4122 56.3368 10.8601C56.3368 17.5795 52.3675 21.8555 46.6572 21.8555C45.543 21.9234 44.7073 21.8555 43.4538 21.5161ZM43.4538 5.63391V17.7153C43.7324 17.7831 44.4984 17.851 45.2644 17.851C49.2338 17.851 50.7658 15.1361 50.7658 10.8601C50.7658 7.12711 49.7212 4.88731 46.5875 4.88731C45.4733 4.88731 44.3591 5.1588 43.4538 5.63391Z" fill="#25272F"/>
<path d="M68.3851 9.02754H71.5188V8.34882C71.5188 6.10902 70.1957 5.09093 67.9673 5.09093C66.2263 5.09093 64.0675 5.56603 62.257 6.44838L60.7249 2.85113C62.6748 1.49367 65.7389 0.611328 68.4547 0.611328C73.7472 0.611328 76.672 3.32624 76.672 8.55243V21.3804H72.7723L72.2152 19.6836C69.9868 21.2446 67.8976 21.9234 66.087 21.9234C62.048 21.9234 59.75 19.5478 59.75 15.5433C59.75 11.2673 62.7444 9.02754 68.3851 9.02754ZM71.5884 16.1542V12.4212H69.0118C66.1567 12.4212 64.6943 13.4393 64.6943 15.4076C64.6943 16.9008 65.4603 17.6474 67.1316 17.6474C68.6636 17.7153 70.6135 16.9686 71.5884 16.1542Z" fill="#25272F"/>
<path d="M93.522 19.2763C91.5721 24.2989 89.2741 27.964 85.8618 30.0002L82.4496 26.9459C84.3994 25.2491 85.8618 23.6202 87.0457 21.4483L79.6641 1.83304L85.1654 0.407717L89.9008 16.2899L94.5665 0.339844L99.9983 1.83304L93.522 19.2763Z" fill="#25272F"/>
</svg>
