<svg width="90" height="53" viewBox="0 0 90 53" fill="none" xmlns="http://www.w3.org/2000/svg">
<path d="M73.4447 0.0126944C73.2364 0.00423147 73.0268 0 72.8172 0C72.6076 0 72.398 0.00423147 72.1897 0.0126944H27.8048C12.4482 0.0126944 0 13.4166 0 29.9504C0 32.375 0.267253 34.7305 0.772937 36.9873H72.1897C72.398 36.9958 72.6076 37 72.8172 37C73.0268 37 73.2364 36.9958 73.4447 36.9873C82.644 36.6319 90 28.4919 90 18.5C90 8.50808 82.644 0.368138 73.4447 0.0126944Z" fill="#576DFC"/>
<path d="M16.63 49.8094C16.63 50.6752 16.7188 51.5215 16.8882 52.3394C8.98676 50.5951 2.75015 44.6145 0.855469 36.9922H29.8555C22.552 36.9922 16.63 42.7314 16.63 49.8094Z" fill="#4153CB"/>
</svg>
