<svg width="160" height="160" viewBox="0 0 160 160" fill="none" xmlns="http://www.w3.org/2000/svg">
<circle cx="80" cy="80" r="80" fill="white"/>
<path d="M63.5074 36.5713V23.7713H66.4697V34.1576H72.888V36.5713H63.5074ZM76.3331 36.5713L72.2005 26.7336H75.1445L78.5822 35.1999H77.1194L80.6851 26.7336H83.428L79.2771 36.5713H76.3331ZM85.0815 36.7176C84.5939 36.7176 84.1733 36.553 83.8198 36.2239C83.4785 35.8825 83.3078 35.4498 83.3078 34.9256C83.3078 34.4014 83.4785 33.9808 83.8198 33.6639C84.1733 33.3347 84.5939 33.1701 85.0815 33.1701C85.5813 33.1701 86.0019 33.3347 86.3432 33.6639C86.6846 33.9808 86.8552 34.4014 86.8552 34.9256C86.8552 35.4498 86.6846 35.8825 86.3432 36.2239C86.0019 36.553 85.5813 36.7176 85.0815 36.7176ZM88.2538 36.5713V34.6513L93.191 29.9884C93.5811 29.6349 93.8675 29.318 94.0504 29.0376C94.2332 28.7572 94.3552 28.5012 94.4161 28.2696C94.4892 28.038 94.5258 27.8246 94.5258 27.6296C94.5258 27.1176 94.3491 26.7275 93.9955 26.4593C93.6542 26.1789 93.1483 26.0387 92.4778 26.0387C91.9414 26.0387 91.4416 26.1423 90.9784 26.3496C90.5273 26.5568 90.1433 26.8799 89.8264 27.3187L87.6687 25.929C88.1563 25.1976 88.839 24.6185 89.7167 24.1919C90.5944 23.7652 91.6062 23.5519 92.7521 23.5519C93.703 23.5519 94.5319 23.7103 95.239 24.0273C95.9582 24.332 96.5129 24.7648 96.903 25.3256C97.3052 25.8863 97.5064 26.5568 97.5064 27.337C97.5064 27.7515 97.4515 28.166 97.3418 28.5804C97.2443 28.9827 97.0371 29.4094 96.7201 29.8604C96.4153 30.3115 95.9643 30.8174 95.367 31.3781L91.271 35.2364L90.7041 34.1576H97.927V36.5713H88.2538Z" fill="#D8D8D8"/>
<g clip-path="url(#clip0_88_28874)">
<circle cx="90.5972" cy="94.5767" r="32.2671" fill="#D8D8D8"/>
<path d="M93.4842 98.0034C97.9886 98.0034 101.64 94.3282 101.64 89.7947C101.64 85.2611 97.9886 81.5859 93.4842 81.5859C88.9797 81.5859 85.3281 85.2611 85.3281 89.7947C85.3281 94.3282 88.9797 98.0034 93.4842 98.0034Z" fill="white"/>
<path d="M91.2635 94.4838C93.835 94.4838 95.9197 92.3857 95.9197 89.7975C95.9197 87.2094 93.835 85.1113 91.2635 85.1113C88.692 85.1113 86.6074 87.2094 86.6074 89.7975C86.6074 92.3857 88.692 94.4838 91.2635 94.4838Z" fill="#282828"/>
<path d="M73.6521 98.0034C78.1566 98.0034 81.8081 94.3282 81.8081 89.7947C81.8081 85.2611 78.1566 81.5859 73.6521 81.5859C69.1477 81.5859 65.4961 85.2611 65.4961 89.7947C65.4961 94.3282 69.1477 98.0034 73.6521 98.0034Z" fill="white"/>
<path d="M75.8339 94.4838C78.4054 94.4838 80.49 92.3857 80.49 89.7975C80.49 87.2094 78.4054 85.1113 75.8339 85.1113C73.2624 85.1113 71.1777 87.2094 71.1777 89.7975C71.1777 92.3857 73.2624 94.4838 75.8339 94.4838Z" fill="#282828"/>
<path d="M89.3261 91.8253C90.2926 91.8253 91.0761 91.0367 91.0761 90.064C91.0761 89.0913 90.2926 88.3027 89.3261 88.3027C88.3597 88.3027 87.5762 89.0913 87.5762 90.064C87.5762 91.0367 88.3597 91.8253 89.3261 91.8253Z" fill="white"/>
<path d="M73.9375 91.8253C74.9039 91.8253 75.6874 91.0367 75.6874 90.064C75.6874 89.0913 74.9039 88.3027 73.9375 88.3027C72.971 88.3027 72.1875 89.0913 72.1875 90.064C72.1875 91.0367 72.971 91.8253 73.9375 91.8253Z" fill="white"/>
<path d="M117.492 130.441H85.9727V126.058H117.492C118.472 126.058 119.27 127.041 119.27 128.249C119.27 129.457 118.472 130.441 117.492 130.441Z" fill="#BDBDBD"/>
<path d="M112.961 59.103C114.076 58.5627 115.358 59.4321 115.268 60.668L114.036 77.6584C113.946 78.8943 112.552 79.5696 111.527 78.8741L97.4288 69.3117C96.4034 68.6162 96.5154 67.0714 97.6305 66.5311L112.961 59.103Z" fill="#D8D8D8"/>
<path fill-rule="evenodd" clip-rule="evenodd" d="M99.46 126.052C103.741 124.561 106.813 120.49 106.813 115.701C106.813 109.648 101.907 104.742 95.8549 104.742C89.8027 104.742 84.8965 109.648 84.8965 115.701C84.8965 120.49 87.9686 124.561 92.2497 126.052H99.46Z" fill="#E4E4E4"/>
<path d="M90.1212 130.438H44.8795C42.4711 130.438 40.3568 128.827 39.7126 126.515L31.5773 97.2409C30.8632 94.6484 32.7955 92.084 35.4839 92.084H77.323C78.9333 92.084 80.3335 93.163 80.7396 94.7185L90.1212 130.438Z" fill="url(#paint0_linear_88_28874)"/>
<path d="M59.0112 116.855C61.192 116.855 62.9598 115.085 62.9598 112.903C62.9598 110.72 61.192 108.951 59.0112 108.951C56.8304 108.951 55.0625 110.72 55.0625 112.903C55.0625 115.085 56.8304 116.855 59.0112 116.855Z" fill="white"/>
</g>
<defs>
<linearGradient id="paint0_linear_88_28874" x1="52.4481" y1="93.8362" x2="60.7745" y2="130.438" gradientUnits="userSpaceOnUse">
<stop stop-color="#EBEBEB"/>
<stop offset="1" stop-color="#D6D6D6"/>
</linearGradient>
<clipPath id="clip0_88_28874">
<rect width="91.4286" height="91.4286" fill="white" transform="translate(31.4297 49.1436)"/>
</clipPath>
</defs>
</svg>
