<svg width="160" height="160" viewBox="0 0 160 160" fill="none" xmlns="http://www.w3.org/2000/svg">
<circle cx="80" cy="80" r="80" fill="white"/>
<path d="M63.4895 36.5713V23.7713H66.4518V34.1576H72.8701V36.5713H63.4895ZM76.3152 36.5713L72.1827 26.7336H75.1267L78.5644 35.1999H77.1015L80.6672 26.7336H83.4101L79.2592 36.5713H76.3152ZM85.0637 36.7176C84.5761 36.7176 84.1555 36.553 83.802 36.2239C83.4606 35.8825 83.29 35.4498 83.29 34.9256C83.29 34.4014 83.4606 33.9808 83.802 33.6639C84.1555 33.3347 84.5761 33.1701 85.0637 33.1701C85.5635 33.1701 85.9841 33.3347 86.3254 33.6639C86.6667 33.9808 86.8374 34.4014 86.8374 34.9256C86.8374 35.4498 86.6667 35.8825 86.3254 36.2239C85.9841 36.553 85.5635 36.7176 85.0637 36.7176ZM92.4965 36.7907C91.6066 36.7907 90.7228 36.6749 89.8451 36.4433C88.9674 36.1995 88.2238 35.8581 87.6142 35.4193L88.7662 33.1519C89.2539 33.5054 89.8207 33.7858 90.4668 33.993C91.1129 34.2002 91.7651 34.3039 92.4234 34.3039C93.167 34.3039 93.7522 34.1576 94.1788 33.865C94.6055 33.5724 94.8188 33.1701 94.8188 32.6581C94.8188 32.1705 94.6299 31.7865 94.252 31.5061C93.8741 31.2258 93.2645 31.0856 92.4234 31.0856H91.0702V29.129L94.636 25.0879L94.9651 26.1484H88.2542V23.7713H97.2142V25.6913L93.6668 29.7324L92.1674 28.873H93.0268C94.5994 28.873 95.788 29.2265 96.5925 29.9336C97.3971 30.6406 97.7994 31.5488 97.7994 32.6581C97.7994 33.3774 97.6104 34.054 97.2325 34.6879C96.8546 35.3096 96.2756 35.8155 95.4954 36.2056C94.7152 36.5957 93.7156 36.7907 92.4965 36.7907Z" fill="#D8D8D8"/>
<path d="M71.5904 76.146C71.5904 86.1042 63.3441 94.1137 53.3865 93.5191C43.1519 92.9081 36.1442 83.0656 37.4643 72.7771C38.2628 66.5182 41.1963 61.151 44.3905 56.9894C44.9446 56.2628 45.515 62.1089 46.0854 61.4648C46.6558 60.8042 51.9524 51.6388 53.794 48.4185C54.1362 47.8239 54.9185 47.6423 55.4726 48.0717C59.172 50.8626 71.5904 61.3492 71.5904 76.146Z" fill="#969696"/>
<path d="M66.691 80.2454C66.691 86.8442 60.9461 92.1487 53.9581 91.9091C46.4158 91.6534 41.242 84.7511 42.3507 77.641C43.9465 67.4473 54.4117 60.8965 54.4117 60.8965C54.4117 60.8965 66.691 68.5817 66.691 80.2454Z" fill="#BFBFBF"/>
<ellipse cx="84.6339" cy="96.8175" rx="31.8937" ry="31.9112" fill="#D8D8D8"/>
<path d="M105.31 61.8737C106.399 61.3457 107.651 62.1954 107.563 63.4031L106.36 80.0076C106.272 81.2153 104.911 81.8754 103.909 81.1956L90.139 71.8505C89.1374 71.1708 89.2468 69.6611 90.3359 69.1331L105.31 61.8737Z" fill="#D8D8D8"/>
<path d="M63.5176 101.789L68.2284 98.4141C76.8708 100.49 82.387 105.095 84.6471 108.085V109.469L63.5176 101.789Z" fill="white"/>
<path d="M105.77 101.789L101.059 98.4141C92.417 100.49 86.9008 105.095 84.6406 108.085V109.469L105.77 101.789Z" fill="white"/>
<path d="M105.77 101.788C96.1233 101.635 87.6455 106.855 84.6406 109.469V131.923C90.9102 127.471 103.12 125.78 103.12 125.78L105.77 101.788Z" fill="#7B7B7B"/>
<path d="M63.5111 101.788C73.1579 101.635 81.6357 106.855 84.6406 109.469V131.923C78.371 127.471 66.1609 125.78 66.1609 125.78L63.5111 101.788Z" fill="#7B7B7B"/>
<ellipse cx="107.76" cy="114.373" rx="10.3654" ry="10.3711" fill="#E7E7E7"/>
<ellipse cx="59.9162" cy="114.373" rx="10.3654" ry="10.3711" fill="#E7E7E7"/>
<path d="M74.106 96.0016C69.331 96.0016 65.4601 92.1427 65.4601 87.3826C65.4601 82.6225 69.331 78.7637 74.106 78.7637C78.881 78.7637 82.752 82.6225 82.752 87.3826C82.752 92.1427 78.881 96.0016 74.106 96.0016Z" fill="white"/>
<path d="M76.4372 92.3027C73.7113 92.3027 71.5014 90.0998 71.5014 87.3823C71.5014 84.6648 73.7113 82.4619 76.4372 82.4619C79.1632 82.4619 81.373 84.6648 81.373 87.3823C81.373 90.0998 79.1632 92.3027 76.4372 92.3027Z" fill="#282828"/>
<path d="M78.6259 89.4271C77.6016 89.4271 76.7713 88.5991 76.7713 87.5778C76.7713 86.5565 77.6016 85.7285 78.6259 85.7285C79.6501 85.7285 80.4805 86.5565 80.4805 87.5778C80.4805 88.5991 79.6501 89.4271 78.6259 89.4271Z" fill="white"/>
<path d="M66.3454 82.2454L82.8789 88.3385V79.6341L71.5665 73.541L66.3454 82.2454Z" fill="#D8D8D8"/>
<path d="M95.0991 96.0016C99.8741 96.0016 103.745 92.1427 103.745 87.3826C103.745 82.6225 99.8741 78.7637 95.0991 78.7637C90.324 78.7637 86.4531 82.6225 86.4531 87.3826C86.4531 92.1427 90.324 96.0016 95.0991 96.0016Z" fill="white"/>
<path d="M92.7678 92.3027C95.4938 92.3027 97.7036 90.0998 97.7036 87.3823C97.7036 84.6648 95.4938 82.4619 92.7678 82.4619C90.0419 82.4619 87.832 84.6648 87.832 87.3823C87.832 90.0998 90.0419 92.3027 92.7678 92.3027Z" fill="#282828"/>
<path d="M90.5792 89.4271C91.6035 89.4271 92.4338 88.5991 92.4338 87.5778C92.4338 86.5565 91.6035 85.7285 90.5792 85.7285C89.5549 85.7285 88.7246 86.5565 88.7246 87.5778C88.7246 88.5991 89.5549 89.4271 90.5792 89.4271Z" fill="white"/>
<path d="M102.897 82.2454L86.3633 88.3385V79.6341L97.6756 73.541L102.897 82.2454Z" fill="#D8D8D8"/>
<path d="M85.3581 96.8769H85.1588C83.642 96.8769 82.1192 96.0763 81.3144 94.7768L81.3137 94.7756L81.3137 94.7756C81.1713 94.5421 81.2411 94.2346 81.4759 94.0897C81.7084 93.9462 82.0179 94.0168 82.1627 94.2512M85.3581 96.8769L86.0292 96.7844L85.9873 96.5895L86.0292 96.7844C86.2972 96.7268 86.4692 96.4622 86.4118 96.1925L86.4117 96.192C86.3545 95.9257 86.0887 95.7487 85.8174 95.8099L85.8613 96.0044L85.8195 95.8095C84.4451 96.1042 82.902 95.4464 82.1627 94.2512M85.3581 96.8769V96.8706M85.3581 96.8769V96.8706M82.1627 94.2512C82.1627 94.2512 82.1627 94.2512 82.1627 94.2513L81.9931 94.356L82.1626 94.2511C82.1626 94.2511 82.1627 94.2511 82.1627 94.2512ZM85.1588 96.6776H84.9594V96.6758V96.6728C84.9861 96.674 85.0127 96.6751 85.0394 96.6758C85.0792 96.677 85.119 96.6776 85.1588 96.6776ZM85.1588 96.6776V96.6758M85.1588 96.6776V96.6758M85.1588 96.6758H85.3581M85.1588 96.6758H85.3581M85.3581 96.8706V96.6776M85.3581 96.8706C85.2917 96.8737 85.2252 96.8752 85.1588 96.8752L85.3581 96.6776M85.3581 96.6776V96.6758M85.3581 96.6776V96.6758" fill="#AFAFAF" stroke="#AFAFAF" stroke-width="0.398671"/>
</svg>
