<svg width="160" height="160" viewBox="0 0 160 160" fill="none" xmlns="http://www.w3.org/2000/svg">
<circle cx="80" cy="80" r="80" fill="white"/>
<path d="M63.4895 36.5713V23.7713H66.4518V34.1576H72.8701V36.5713H63.4895ZM76.3152 36.5713L72.1827 26.7336H75.1267L78.5644 35.1999H77.1015L80.6672 26.7336H83.4101L79.2592 36.5713H76.3152ZM85.0637 36.7176C84.5761 36.7176 84.1555 36.553 83.802 36.2239C83.4606 35.8825 83.29 35.4498 83.29 34.9256C83.29 34.4014 83.4606 33.9808 83.802 33.6639C84.1555 33.3347 84.5761 33.1701 85.0637 33.1701C85.5635 33.1701 85.9841 33.3347 86.3254 33.6639C86.6667 33.9808 86.8374 34.4014 86.8374 34.9256C86.8374 35.4498 86.6667 35.8825 86.3254 36.2239C85.9841 36.553 85.5635 36.7176 85.0637 36.7176ZM92.4965 36.7907C91.6066 36.7907 90.7228 36.6749 89.8451 36.4433C88.9674 36.1995 88.2238 35.8581 87.6142 35.4193L88.7662 33.1519C89.2539 33.5054 89.8207 33.7858 90.4668 33.993C91.1129 34.2002 91.7651 34.3039 92.4234 34.3039C93.167 34.3039 93.7522 34.1576 94.1788 33.865C94.6055 33.5724 94.8188 33.1701 94.8188 32.6581C94.8188 32.1705 94.6299 31.7865 94.252 31.5061C93.8741 31.2258 93.2645 31.0856 92.4234 31.0856H91.0702V29.129L94.636 25.0879L94.9651 26.1484H88.2542V23.7713H97.2142V25.6913L93.6668 29.7324L92.1674 28.873H93.0268C94.5994 28.873 95.788 29.2265 96.5925 29.9336C97.3971 30.6406 97.7994 31.5488 97.7994 32.6581C97.7994 33.3774 97.6104 34.054 97.2325 34.6879C96.8546 35.3096 96.2756 35.8155 95.4954 36.2056C94.7152 36.5957 93.7156 36.7907 92.4965 36.7907Z" fill="#576DFC"/>
<path d="M71.5924 76.148C71.5924 86.1061 63.346 94.1156 53.3885 93.5211C43.1539 92.9101 36.1461 83.0675 37.4662 72.7791C38.2648 66.5201 41.1983 61.153 44.3925 56.9914C44.9466 56.2647 45.517 62.1108 46.0874 61.4667C46.6578 60.8062 51.9543 51.6407 53.7959 48.4204C54.1382 47.8259 54.9204 47.6442 55.4745 48.0736C59.174 50.8645 71.5924 61.3511 71.5924 76.148Z" fill="#FF6723"/>
<path d="M66.6949 80.2483C66.6949 86.8471 60.95 92.1517 53.962 91.912C46.4197 91.6564 41.246 84.754 42.3546 77.644C43.9504 67.4502 54.4156 60.8994 54.4156 60.8994C54.4156 60.8994 66.6949 68.5847 66.6949 80.2483Z" fill="#FFB02E"/>
<ellipse cx="84.6339" cy="96.8175" rx="31.8937" ry="31.9112" fill="#FCD53F"/>
<path d="M105.308 61.8747C106.397 61.3467 107.649 62.1963 107.561 63.4041L106.358 80.0085C106.27 81.2163 104.909 81.8763 103.907 81.1966L90.137 71.8515C89.1354 71.1718 89.2448 69.6621 90.334 69.134L105.308 61.8747Z" fill="#FCD53F"/>
<path d="M63.5156 101.789L68.2265 98.4141C76.8688 100.49 82.385 105.095 84.6452 108.085V109.469L63.5156 101.789Z" fill="white"/>
<path d="M105.768 101.789L101.057 98.4141C92.415 100.49 86.8988 105.095 84.6387 108.085V109.469L105.768 101.789Z" fill="white"/>
<path d="M105.768 101.788C96.1214 101.635 87.6436 106.855 84.6387 109.469V131.923C90.9083 127.471 103.118 125.78 103.118 125.78L105.768 101.788Z" fill="#576DFC"/>
<path d="M63.5091 101.788C73.156 101.635 81.6338 106.855 84.6387 109.469V131.923C78.3691 127.471 66.159 125.78 66.159 125.78L63.5091 101.788Z" fill="#576DFC"/>
<ellipse cx="107.76" cy="114.371" rx="10.3654" ry="10.3711" fill="#FFE376"/>
<ellipse cx="59.9162" cy="114.371" rx="10.3654" ry="10.3711" fill="#FFE376"/>
<path d="M74.106 95.9967C69.331 95.9967 65.4601 92.1379 65.4601 87.3777C65.4601 82.6176 69.331 78.7588 74.106 78.7588C78.881 78.7588 82.752 82.6176 82.752 87.3777C82.752 92.1379 78.881 95.9967 74.106 95.9967Z" fill="white"/>
<path d="M76.4392 92.2988C73.7132 92.2988 71.5034 90.0959 71.5034 87.3784C71.5034 84.6609 73.7132 82.458 76.4392 82.458C79.1652 82.458 81.375 84.6609 81.375 87.3784C81.375 90.0959 79.1652 92.2988 76.4392 92.2988Z" fill="#282828"/>
<path d="M78.6259 89.4222C77.6016 89.4222 76.7713 88.5942 76.7713 87.5729C76.7713 86.5516 77.6016 85.7236 78.6259 85.7236C79.6501 85.7236 80.4805 86.5516 80.4805 87.5729C80.4805 88.5942 79.6501 89.4222 78.6259 89.4222Z" fill="white"/>
<path d="M66.3454 82.2454L82.8789 88.3385V79.6341L71.5665 73.541L66.3454 82.2454Z" fill="#FCD53F"/>
<path d="M95.0991 95.9967C99.8741 95.9967 103.745 92.1379 103.745 87.3777C103.745 82.6176 99.8741 78.7588 95.0991 78.7588C90.324 78.7588 86.4531 82.6176 86.4531 87.3777C86.4531 92.1379 90.324 95.9967 95.0991 95.9967Z" fill="white"/>
<path d="M92.7659 92.2988C95.4919 92.2988 97.7017 90.0959 97.7017 87.3784C97.7017 84.6609 95.4919 82.458 92.7659 82.458C90.0399 82.458 87.8301 84.6609 87.8301 87.3784C87.8301 90.0959 90.0399 92.2988 92.7659 92.2988Z" fill="#282828"/>
<path d="M90.5792 89.4222C91.6035 89.4222 92.4338 88.5942 92.4338 87.5729C92.4338 86.5516 91.6035 85.7236 90.5792 85.7236C89.5549 85.7236 88.7246 86.5516 88.7246 87.5729C88.7246 88.5942 89.5549 89.4222 90.5792 89.4222Z" fill="white"/>
<path d="M102.897 82.2454L86.3633 88.3385V79.6341L97.6757 73.541L102.897 82.2454Z" fill="#FCD53F"/>
<path d="M85.3581 96.8769H85.1588C83.642 96.8769 82.1192 96.0763 81.3144 94.7768L81.3137 94.7756L81.3137 94.7756C81.1713 94.5421 81.2411 94.2346 81.4759 94.0897C81.7083 93.9462 82.0179 94.0168 82.1626 94.2511L85.3581 96.8769ZM85.3581 96.8769V96.8706M85.3581 96.8769V96.8706M85.3581 96.8706C85.5829 96.8603 85.8074 96.8321 86.0292 96.7844L85.3581 96.8706ZM86.4117 96.192L86.4118 96.1925C86.4692 96.4622 86.2972 96.7268 86.0292 96.7844L86.4117 96.192ZM86.4117 96.192C86.3545 95.9257 86.0887 95.7487 85.8174 95.8099L85.8613 96.0044L86.4117 96.192Z" fill="#E2A50F" stroke="#E2A50F" stroke-width="0.398671"/>
</svg>
