<svg width="160" height="160" viewBox="0 0 160 160" fill="none" xmlns="http://www.w3.org/2000/svg">
<circle cx="80" cy="80" r="80" fill="white"/>
<path d="M63.552 36.5713V23.7713H66.5143V34.1576H72.9326V36.5713H63.552ZM76.3777 36.5713L72.2452 26.7336H75.1892L78.6269 35.1999H77.164L80.7297 26.7336H83.4726L79.3217 36.5713H76.3777ZM85.1262 36.7176C84.6386 36.7176 84.218 36.553 83.8645 36.2239C83.5231 35.8825 83.3525 35.4498 83.3525 34.9256C83.3525 34.4014 83.5231 33.9808 83.8645 33.6639C84.218 33.3347 84.6386 33.1701 85.1262 33.1701C85.626 33.1701 86.0466 33.3347 86.3879 33.6639C86.7292 33.9808 86.8999 34.4014 86.8999 34.9256C86.8999 35.4498 86.7292 35.8825 86.3879 36.2239C86.0466 36.553 85.626 36.7176 85.1262 36.7176ZM92.5816 36.7907C91.6917 36.7907 90.8079 36.6749 89.9302 36.4433C89.0647 36.1995 88.321 35.8581 87.6993 35.4193L88.8696 33.1519C89.3572 33.5054 89.918 33.7858 90.5519 33.993C91.198 34.2002 91.8502 34.3039 92.5085 34.3039C93.2521 34.3039 93.8372 34.1576 94.2639 33.865C94.6906 33.5724 94.9039 33.1641 94.9039 32.6399C94.9039 32.3107 94.8186 32.0181 94.6479 31.7621C94.4772 31.5061 94.1725 31.3111 93.7336 31.177C93.3069 31.0429 92.7035 30.9759 91.9233 30.9759H88.6502L89.3085 23.7713H97.1165V26.1484H90.369L91.905 24.7953L91.4479 29.9336L89.9119 28.5804H92.6182C93.886 28.5804 94.9039 28.7572 95.6719 29.1107C96.4521 29.4521 97.0189 29.9214 97.3725 30.5187C97.726 31.1161 97.9027 31.7926 97.9027 32.5484C97.9027 33.3042 97.7138 34.0052 97.3359 34.6513C96.958 35.2852 96.3728 35.8033 95.5805 36.2056C94.8003 36.5957 93.8007 36.7907 92.5816 36.7907Z" fill="#576DFC"/>
<circle cx="11.2755" cy="11.2755" r="11.2755" transform="matrix(-1 0 0 1 117.537 93.1455)" fill="#F9C23C"/>
<path d="M101.504 115.009L124.241 106.476L128.203 117.032C128.54 117.929 128.085 118.929 127.188 119.266L107.699 126.58C106.802 126.917 105.802 126.462 105.466 125.565L101.504 115.009Z" fill="#8C5543"/>
<path d="M107.062 107.359L101.296 109.522C100.399 109.859 99.945 110.859 100.282 111.756L101.501 115.004C102.174 116.798 104.174 117.707 105.968 117.033L122.209 110.938C124.003 110.265 124.911 108.265 124.238 106.471L123.019 103.223C122.682 102.326 121.682 101.872 120.785 102.208L115.02 104.372C113.948 102.66 111.786 101.88 109.822 102.617C107.857 103.354 106.742 105.364 107.062 107.359ZM108.743 106.728C108.723 105.656 109.371 104.639 110.431 104.241C111.492 103.843 112.649 104.182 113.338 105.003L108.743 106.728Z" fill="#6D4534"/>
<path d="M111.66 114.903L113.792 113.177L116.532 113.074L117.142 114.698C117.31 115.147 117.083 115.647 116.635 115.815L113.387 117.034C112.938 117.203 112.438 116.975 112.27 116.527L111.66 114.903Z" fill="#D3883E"/>
<path d="M111.348 114.09C111.179 113.642 111.407 113.142 111.855 112.974L115.103 111.755C115.552 111.586 116.052 111.813 116.22 112.262L116.525 113.074L111.652 114.902L111.348 114.09Z" fill="#E19747"/>
<circle cx="33.8265" cy="33.8265" r="33.8265" transform="matrix(-1 0 0 1 113.201 61.9209)" fill="#FCD53F"/>
<path d="M97.4964 96.3759C92.4666 96.3759 88.3892 92.2722 88.3892 87.2099C88.3892 82.1477 92.4666 78.0439 97.4964 78.0439C102.526 78.0439 106.604 82.1477 106.604 87.2099C106.604 92.2722 102.526 96.3759 97.4964 96.3759Z" fill="white"/>
<path d="M95.0626 92.4459C92.1912 92.4459 89.8635 90.1031 89.8635 87.2132C89.8635 84.3232 92.1912 81.9805 95.0626 81.9805C97.934 81.9805 100.262 84.3232 100.262 87.2132C100.262 90.1031 97.934 92.4459 95.0626 92.4459Z" fill="#282828"/>
<path d="M97.169 88.404C96.0898 88.404 95.215 87.5235 95.215 86.4374C95.215 85.3512 96.0898 84.4707 97.169 84.4707C98.2482 84.4707 99.123 85.3512 99.123 86.4374C99.123 87.5235 98.2482 88.404 97.169 88.404Z" fill="white"/>
<path d="M76.3401 96.3769C71.3104 96.3769 67.233 92.2732 67.233 87.2109C67.233 82.1487 71.3104 78.0449 76.3401 78.0449C81.3699 78.0449 85.4473 82.1487 85.4473 87.2109C85.4473 92.2732 81.3699 96.3769 76.3401 96.3769Z" fill="white"/>
<path d="M79.3673 92.4468C76.4959 92.4468 74.1682 90.1041 74.1682 87.2141C74.1682 84.3242 76.4959 81.9814 79.3673 81.9814C82.2387 81.9814 84.5664 84.3242 84.5664 87.2141C84.5664 90.1041 82.2387 92.4468 79.3673 92.4468Z" fill="#282828"/>
<path d="M81.4737 88.405C80.3945 88.405 79.5197 87.5245 79.5197 86.4383C79.5197 85.3522 80.3945 84.4717 81.4737 84.4717C82.5529 84.4717 83.4277 85.3522 83.4277 86.4383C83.4277 87.5245 82.5529 88.405 81.4737 88.405Z" fill="white"/>
<path d="M64.5387 115.398L52.8588 115.403L50.8228 94.685L66.5684 94.6729L64.5387 115.398Z" fill="white"/>
<path d="M65.0473 90.2686L51.2773 91.1913L50.6912 93.1001L66.5684 93.0986L65.0473 90.2686Z" fill="#3A3E45"/>
<path d="M67.0974 92.4102L49.7172 92.4195L49.0193 94.6742L67.8027 94.6787L67.0974 92.4102Z" fill="#2B2E33"/>
<mask id="mask0_88_28683" style="mask-type:alpha" maskUnits="userSpaceOnUse" x="49" y="99" width="20" height="13">
<path d="M68.1016 99.2881H49.9664V111.978H68.1016V99.2881Z" fill="#D9D9D9"/>
</mask>
<g mask="url(#mask0_88_28683)">
<path d="M64.7906 117.147L52.6834 117.151L50.5729 95.6757L66.8945 95.6631L64.7906 117.147Z" fill="#9F6751"/>
</g>
<ellipse cx="3.07375" cy="3.07255" rx="3.07375" ry="3.07255" transform="matrix(-1 0 0 1 61.6484 102.249)" fill="#E3AD98"/>
<circle cx="11.2755" cy="11.2755" r="11.2755" transform="matrix(-1 0 0 1 60.293 94.8799)" fill="#FFDC58"/>
<path d="M54.0115 57.7538C52.8543 57.1928 51.524 58.0956 51.6171 59.3788L52.8958 77.021C52.9889 78.3043 54.4354 79.0056 55.4996 78.2833L70.1304 68.3542C71.1946 67.6319 71.0784 66.0279 69.9211 65.4669L54.0115 57.7538Z" fill="#FCD53F"/>
<rect x="64.1973" y="77.5312" width="43.3674" height="8.67347" fill="#FCD53F"/>
<path d="M84.576 91.4707C84.7776 92.5461 85.6949 93.3577 86.8339 93.3577C87.9729 93.3577 88.8902 92.5461 89.0918 91.4707H84.5861H84.576Z" fill="#FF6723"/>
</svg>
