<svg width="160" height="160" viewBox="0 0 160 160" fill="none" xmlns="http://www.w3.org/2000/svg">
<circle cx="80" cy="80" r="80" fill="white"/>
<path d="M63.552 36.5713V23.7713H66.5143V34.1576H72.9326V36.5713H63.552ZM76.3777 36.5713L72.2452 26.7336H75.1892L78.6269 35.1999H77.164L80.7297 26.7336H83.4726L79.3217 36.5713H76.3777ZM85.1262 36.7176C84.6386 36.7176 84.218 36.553 83.8645 36.2239C83.5231 35.8825 83.3525 35.4498 83.3525 34.9256C83.3525 34.4014 83.5231 33.9808 83.8645 33.6639C84.218 33.3347 84.6386 33.1701 85.1262 33.1701C85.626 33.1701 86.0466 33.3347 86.3879 33.6639C86.7292 33.9808 86.8999 34.4014 86.8999 34.9256C86.8999 35.4498 86.7292 35.8825 86.3879 36.2239C86.0466 36.553 85.626 36.7176 85.1262 36.7176ZM92.5816 36.7907C91.6917 36.7907 90.8079 36.6749 89.9302 36.4433C89.0647 36.1995 88.321 35.8581 87.6993 35.4193L88.8696 33.1519C89.3572 33.5054 89.918 33.7858 90.5519 33.993C91.198 34.2002 91.8502 34.3039 92.5085 34.3039C93.2521 34.3039 93.8372 34.1576 94.2639 33.865C94.6906 33.5724 94.9039 33.1641 94.9039 32.6399C94.9039 32.3107 94.8186 32.0181 94.6479 31.7621C94.4772 31.5061 94.1725 31.3111 93.7336 31.177C93.3069 31.0429 92.7035 30.9759 91.9233 30.9759H88.6502L89.3085 23.7713H97.1165V26.1484H90.369L91.905 24.7953L91.4479 29.9336L89.9119 28.5804H92.6182C93.886 28.5804 94.9039 28.7572 95.6719 29.1107C96.4521 29.4521 97.0189 29.9214 97.3725 30.5187C97.726 31.1161 97.9027 31.7926 97.9027 32.5484C97.9027 33.3042 97.7138 34.0052 97.3359 34.6513C96.958 35.2852 96.3728 35.8033 95.5805 36.2056C94.8003 36.5957 93.8007 36.7907 92.5816 36.7907Z" fill="#D8D8D8"/>
<circle cx="11.2755" cy="11.2755" r="11.2755" transform="matrix(-1 0 0 1 117.543 93.1416)" fill="#BBBBBB"/>
<path d="M101.512 115.006L124.249 106.473L128.211 117.029C128.547 117.926 128.093 118.926 127.196 119.263L107.707 126.577C106.81 126.914 105.81 126.459 105.474 125.562L101.512 115.006Z" fill="#636363"/>
<path d="M107.07 107.356L101.304 109.52C100.407 109.856 99.9529 110.856 100.289 111.753L101.509 115.001C102.182 116.795 104.182 117.704 105.976 117.03L122.217 110.935C124.01 110.262 124.919 108.262 124.246 106.468L123.027 103.22C122.69 102.323 121.69 101.869 120.793 102.205L115.028 104.369C113.956 102.657 111.794 101.877 109.83 102.614C107.865 103.351 106.75 105.361 107.07 107.356ZM108.751 106.725C108.73 105.653 109.378 104.636 110.439 104.238C111.5 103.84 112.657 104.18 113.346 105L108.751 106.725Z" fill="#4F4F4F"/>
<path d="M111.668 114.9L113.799 113.174L116.54 113.071L117.15 114.695C117.318 115.144 117.091 115.644 116.643 115.812L113.394 117.031C112.946 117.2 112.446 116.972 112.278 116.524L111.668 114.9Z" fill="#989898"/>
<path d="M111.357 114.087C111.189 113.639 111.416 113.139 111.865 112.971L115.113 111.752C115.561 111.583 116.061 111.81 116.23 112.259L116.535 113.071L111.662 114.899L111.357 114.087Z" fill="#A6A6A6"/>
<circle cx="33.8265" cy="33.8265" r="33.8265" transform="matrix(-1 0 0 1 113.207 61.918)" fill="#D8D8D8"/>
<path d="M97.5003 96.373C92.4705 96.373 88.3931 92.2693 88.3931 87.207C88.3931 82.1448 92.4705 78.041 97.5003 78.041C102.53 78.041 106.607 82.1448 106.607 87.207C106.607 92.2693 102.53 96.373 97.5003 96.373Z" fill="white"/>
<path d="M95.0665 92.4429C92.1951 92.4429 89.8674 90.1002 89.8674 87.2102C89.8674 84.3203 92.1951 81.9775 95.0665 81.9775C97.9379 81.9775 100.266 84.3203 100.266 87.2102C100.266 90.1002 97.9379 92.4429 95.0665 92.4429Z" fill="#282828"/>
<path d="M97.1729 88.4011C96.0938 88.4011 95.2189 87.5206 95.2189 86.4344C95.2189 85.3483 96.0938 84.4678 97.1729 84.4678C98.2521 84.4678 99.127 85.3483 99.127 86.4344C99.127 87.5206 98.2521 88.4011 97.1729 88.4011Z" fill="white"/>
<path d="M76.344 96.373C71.3143 96.373 67.2369 92.2693 67.2369 87.207C67.2369 82.1448 71.3143 78.041 76.344 78.041C81.3738 78.041 85.4512 82.1448 85.4512 87.207C85.4512 92.2693 81.3738 96.373 76.344 96.373Z" fill="white"/>
<path d="M79.3693 92.4429C76.4979 92.4429 74.1702 90.1002 74.1702 87.2102C74.1702 84.3203 76.4979 81.9775 79.3693 81.9775C82.2406 81.9775 84.5684 84.3203 84.5684 87.2102C84.5684 90.1002 82.2406 92.4429 79.3693 92.4429Z" fill="#282828"/>
<path d="M81.4757 88.4011C80.3965 88.4011 79.5216 87.5206 79.5216 86.4344C79.5216 85.3483 80.3965 84.4678 81.4757 84.4678C82.5548 84.4678 83.4297 85.3483 83.4297 86.4344C83.4297 87.5206 82.5548 88.4011 81.4757 88.4011Z" fill="white"/>
<path d="M64.5407 115.395L52.8608 115.4L50.8248 94.682L66.5703 94.6699L64.5407 115.395Z" fill="white"/>
<path d="M65.0493 90.2656L51.2793 91.1884L50.6932 93.0972L66.5703 93.0957L65.0493 90.2656Z" fill="#3A3E45"/>
<path d="M67.0993 92.4072L49.7192 92.4166L49.0213 94.6712L67.8047 94.6757L67.0993 92.4072Z" fill="#2B2E33"/>
<mask id="mask0_88_28809" style="mask-type:alpha" maskUnits="userSpaceOnUse" x="49" y="99" width="20" height="13">
<path d="M68.1016 99.2861H49.9664V111.976H68.1016V99.2861Z" fill="#D9D9D9"/>
</mask>
<g mask="url(#mask0_88_28809)">
<path d="M64.7926 117.144L52.6854 117.148L50.5748 95.6727L66.8965 95.6602L64.7926 117.144Z" fill="#747474"/>
</g>
<ellipse cx="3.07375" cy="3.07255" rx="3.07375" ry="3.07255" transform="matrix(-1 0 0 1 61.6504 102.246)" fill="#B9B9B9"/>
<circle cx="11.2755" cy="11.2755" r="11.2755" transform="matrix(-1 0 0 1 60.2969 94.877)" fill="#E9E9E9"/>
<path d="M54.0174 57.7509C52.8602 57.1899 51.5299 58.0926 51.6229 59.3759L52.9017 77.0181C52.9947 78.3014 54.4412 79.0026 55.5054 78.2804L70.1363 68.3512C71.2005 67.629 71.0842 66.025 69.927 65.4639L54.0174 57.7509Z" fill="#D8D8D8"/>
<rect x="64.2012" y="77.5312" width="43.3673" height="8.67347" fill="#D8D8D8"/>
<path d="M84.5819 91.4697C84.7835 92.5451 85.7008 93.3567 86.8398 93.3567C87.9788 93.3567 88.8961 92.5451 89.0977 91.4697H84.592H84.5819Z" fill="#969696"/>
</svg>
