<svg width="160" height="160" viewBox="0 0 160 160" fill="none" xmlns="http://www.w3.org/2000/svg">
<circle cx="80" cy="80" r="80" fill="white"/>
<g clip-path="url(#clip0_88_28769)">
<path d="M46.5467 49.3251C46.9376 48.4462 48.1415 48.4034 48.6133 49.1932L48.6815 49.3251L49.8866 52.037C50.9388 54.4042 52.6887 56.3937 54.9021 57.7395L55.2745 57.9581L57.414 59.1608C57.5841 59.256 57.7276 59.3923 57.8315 59.5572C57.9355 59.7221 57.9965 59.9104 58.009 60.1049C58.0216 60.2994 57.9852 60.494 57.9033 60.6708C57.8214 60.8477 57.6965 61.0013 57.54 61.1175L57.4151 61.1985L55.2745 62.4012C53.0164 63.6714 51.1999 65.6008 50.0681 67.9314L49.8866 68.3223L48.6815 71.0342C48.2906 71.9131 47.0868 71.9559 46.6149 71.166L46.5467 71.0342L45.3417 68.3223C44.2894 65.9551 42.5396 63.9656 40.3261 62.6198L39.9537 62.4012L37.8143 61.1985C37.6442 61.1033 37.5006 60.967 37.3967 60.8021C37.2928 60.6372 37.2317 60.4489 37.2192 60.2544C37.2067 60.0599 37.243 59.8653 37.3249 59.6884C37.4069 59.5116 37.5317 59.358 37.6882 59.2417L37.8131 59.1608L39.9537 57.9581C42.2118 56.6879 44.0283 54.7584 45.1601 52.4279L45.3417 52.037L46.5467 49.3251ZM57.1214 48.7549C57.6953 50.0591 58.6743 51.1435 59.9131 51.8473C60.0981 51.9514 60.0981 52.2174 59.9131 52.3215C58.6737 53.0254 57.6942 54.1103 57.1202 55.415C57.0983 55.4641 57.0626 55.5058 57.0174 55.5351C56.9723 55.5644 56.9196 55.5799 56.8658 55.5799C56.812 55.5799 56.7594 55.5644 56.7142 55.5351C56.6691 55.5058 56.6334 55.4641 56.6114 55.415C56.0372 54.1107 55.0578 53.0263 53.8185 52.3226C53.7767 52.2988 53.7419 52.2643 53.7178 52.2226C53.6936 52.181 53.6808 52.1337 53.6808 52.0856C53.6808 52.0374 53.6936 51.9901 53.7178 51.9485C53.7419 51.9068 53.7767 51.8723 53.8185 51.8485C55.0582 51.1442 56.0376 50.0589 56.6114 48.7538C56.6334 48.7047 56.6691 48.663 56.7142 48.6337C56.7594 48.6044 56.812 48.5889 56.8658 48.5889C56.9196 48.5889 56.9723 48.6044 57.0174 48.6337C57.0626 48.663 57.0983 48.7047 57.1202 48.7538L57.1214 48.7549Z" fill="#E8E8E8"/>
</g>
<circle cx="110.359" cy="100.946" r="11.2755" fill="#CACACA"/>
<circle cx="33.8265" cy="33.8265" r="33.8265" transform="matrix(-1 0 0 1 114.695 61.917)" fill="#D8D8D8"/>
<path d="M86.1991 86.4697H75.2441V88.1944H86.1991V86.4697Z" fill="#203745"/>
<path d="M86.195 88.7537H75.2401C74.9277 88.7537 74.6738 88.5023 74.6738 88.1928V86.4681C74.6738 86.1587 74.9277 85.9072 75.2401 85.9072H86.195C86.5075 85.9072 86.7613 86.1587 86.7613 86.4681V88.1928C86.7613 88.5023 86.5075 88.7537 86.195 88.7537ZM75.8064 87.6351H85.632V87.0323H75.8064V87.6351Z" fill="#2D2D2D"/>
<path d="M85.2734 83.2952V86.4866C85.2734 92.2505 89.9861 96.9183 95.802 96.9183C96.0168 96.9183 96.2316 96.9118 96.4464 96.8925C97.6832 96.828 98.8646 96.5379 99.9483 96.0769C100.655 95.7771 101.325 95.4096 101.937 94.9615C103.245 94.0331 104.329 92.8146 105.091 91.3962C105.881 89.9327 106.334 88.2596 106.334 86.4834V83.292H85.2734V83.2952Z" fill="#2D2D2D"/>
<path d="M95.7967 97.4773C89.6813 97.4773 84.7051 92.5452 84.7051 86.4847V83.2933C84.7051 82.9839 84.9589 82.7324 85.2714 82.7324H106.332C106.644 82.7324 106.898 82.9839 106.898 83.2933V86.4847C106.898 88.29 106.446 90.0791 105.59 91.6619C104.796 93.1415 103.643 94.4407 102.267 95.4174C101.642 95.872 100.936 96.2685 100.171 96.5908C98.9894 97.0937 97.7462 97.3838 96.4769 97.4515C96.2686 97.4709 96.0343 97.4773 95.8032 97.4773H95.7967ZM85.8344 83.8542V86.4847C85.8344 91.9294 90.303 96.3587 95.7967 96.3587C95.9952 96.3587 96.1905 96.3555 96.3858 96.3362C97.5444 96.2749 98.6575 96.0138 99.7185 95.5625C100.402 95.2724 101.033 94.921 101.596 94.5116C102.84 93.6315 103.871 92.4646 104.587 91.1364C105.355 89.7148 105.762 88.1062 105.762 86.488V83.8575H85.8312L85.8344 83.8542Z" fill="#2D2D2D"/>
<path d="M92.8119 83.2959L101.938 94.9655C103.246 94.037 104.33 92.8185 105.091 91.4001L98.7547 83.2959H92.8086H92.8119Z" fill="white" fill-opacity="0.5"/>
<path d="M101.929 95.5255C101.76 95.5255 101.594 95.4513 101.483 95.3095L92.3576 83.6399C92.2241 83.4723 92.2014 83.2434 92.2957 83.05C92.3901 82.8598 92.5886 82.7373 92.8035 82.7373H98.7496C98.9253 82.7373 99.0913 82.8179 99.1954 82.9533L105.532 91.0575C105.669 91.2316 105.688 91.4701 105.584 91.6635C104.787 93.1432 103.638 94.4455 102.258 95.4223C102.157 95.4932 102.043 95.5255 101.929 95.5255ZM93.9556 83.8559L102.033 94.1844C102.984 93.4269 103.794 92.4952 104.409 91.4508L98.4729 83.8559H93.9556Z" fill="#2D2D2D"/>
<path d="M85.8164 83.2861L96.4556 96.8834C97.6924 96.8189 98.8738 96.5288 99.9576 96.0678L89.9627 83.2861H85.8164Z" fill="white" fill-opacity="0.5"/>
<path d="M96.4537 97.4503C96.278 97.4503 96.1153 97.3697 96.0079 97.2343L85.3654 83.637C85.2319 83.4694 85.2092 83.2405 85.3036 83.0471C85.3979 82.8569 85.5965 82.7344 85.8113 82.7344H89.9576C90.1333 82.7344 90.2961 82.815 90.4035 82.9504L100.398 95.7321C100.506 95.8675 100.541 96.048 100.499 96.2156C100.457 96.3832 100.336 96.5219 100.174 96.5896C98.9923 97.0924 97.7491 97.3826 96.4798 97.4503C96.47 97.4503 96.4603 97.4503 96.4505 97.4503H96.4537ZM86.9666 83.8498L96.7174 96.3091C97.5082 96.2414 98.2893 96.0802 99.0444 95.8223L89.681 83.8498H86.9634H86.9666Z" fill="#2D2D2D"/>
<path d="M55.416 83.2952V86.4866C55.416 92.2505 60.1286 96.9183 65.9446 96.9183C66.1594 96.9183 66.3742 96.9118 66.589 96.8925C67.8257 96.828 69.0071 96.5379 70.0909 96.0769C70.7972 95.7771 71.4676 95.4096 72.0795 94.9615C73.3878 94.0331 74.4716 92.8146 75.2332 91.3962C76.024 89.9327 76.4764 88.2596 76.4764 86.4834V83.292H55.416V83.2952Z" fill="#2D2D2D"/>
<path d="M65.9406 97.4783C59.8252 97.4783 54.8457 92.5461 54.8457 86.4857V83.2943C54.8457 82.9848 55.0996 82.7334 55.412 82.7334H76.4724C76.7848 82.7334 77.0387 82.9848 77.0387 83.2943V86.4857C77.0387 88.2909 76.5863 90.0801 75.7303 91.6629C74.9362 93.1425 73.7841 94.4416 72.4042 95.4184C71.7793 95.8729 71.073 96.2694 70.3082 96.5918C69.1268 97.0947 67.8836 97.3848 66.6143 97.4525C66.406 97.4718 66.1716 97.4783 65.9406 97.4783ZM55.9783 83.8552V86.4857C55.9783 91.9304 60.4468 96.3597 65.9406 96.3597C66.1391 96.3597 66.3344 96.3565 66.5296 96.3371C67.6883 96.2759 68.8013 96.0148 69.8623 95.5635C70.5458 95.2733 71.1772 94.922 71.7402 94.5126C72.9835 93.6325 74.0152 92.4655 74.7312 91.1374C75.4993 89.7158 75.9061 88.1072 75.9061 86.4889V83.8584H55.975L55.9783 83.8552Z" fill="#2D2D2D"/>
<path d="M62.9544 83.2959L72.0803 94.9655C73.3886 94.037 74.4724 92.8185 75.234 91.4001L68.8973 83.2959H62.9512H62.9544Z" fill="white" fill-opacity="0.5"/>
<path d="M72.0875 95.5255C71.9183 95.5255 71.7523 95.4513 71.6416 95.3095L62.5158 83.6399C62.3823 83.4723 62.3596 83.2434 62.4539 83.05C62.5483 82.8598 62.7469 82.7373 62.9617 82.7373H68.9078C69.0835 82.7373 69.2463 82.8179 69.3537 82.9533L75.6903 91.0575C75.827 91.2316 75.8465 91.4701 75.7424 91.6635C74.945 93.1464 73.7962 94.4455 72.4162 95.4223C72.3153 95.4932 72.2014 95.5255 72.0875 95.5255ZM64.1138 83.8559L72.1916 94.1844C73.142 93.4269 73.9556 92.4952 74.5675 91.4508L68.6311 83.8559H64.1138Z" fill="#2D2D2D"/>
<path d="M55.9727 83.2871L66.6119 96.8844C67.8486 96.8199 69.03 96.5298 70.1138 96.0688L60.119 83.2871H55.9727Z" fill="white" fill-opacity="0.5"/>
<path d="M66.6067 97.4512C66.431 97.4512 66.2683 97.3706 66.1609 97.2353L55.5216 83.638C55.3882 83.4703 55.3654 83.2415 55.4598 83.048C55.5542 82.8578 55.7527 82.7354 55.9675 82.7354H60.1139C60.2896 82.7354 60.4523 82.8159 60.5597 82.9513L70.5545 95.733C70.6619 95.8684 70.6977 96.049 70.6554 96.2166C70.6131 96.3842 70.4927 96.5228 70.33 96.5905C69.1453 97.0934 67.9021 97.3835 66.636 97.4512C66.6263 97.4512 66.6165 97.4512 66.6067 97.4512ZM57.1196 83.8507L66.8704 96.3101C67.6612 96.2424 68.4423 96.0812 69.1974 95.8233L59.834 83.8507H57.1164H57.1196Z" fill="#2D2D2D"/>
<circle cx="50.5118" cy="100.946" r="11.2755" fill="#EDEDED"/>
<g clip-path="url(#clip1_88_28769)">
<path d="M78.1035 116.342L79.9466 109.276H81.7897L83.6329 116.342L80.8682 118.799L78.1035 116.342ZM79.9466 106.512H81.7897L82.7113 107.126L81.7897 109.276H79.9466L79.0251 107.126L79.9466 106.512Z" fill="#969696"/>
<path d="M79.9466 109.276L78.1035 116.342L80.8682 118.799L83.6329 116.342L81.7897 109.276M79.9466 109.276H81.7897M79.9466 109.276L79.0251 107.126L79.9466 106.512H81.7897L82.7113 107.126L81.7897 109.276" stroke="#969696" stroke-width="1.22874" stroke-linecap="round" stroke-linejoin="round"/>
</g>
<path d="M82.5233 97.6898H82.3115C80.666 97.6898 79.0111 96.8462 78.1354 95.4727L78.1346 95.4714L78.1346 95.4714C77.9773 95.2209 78.0569 94.8932 78.3102 94.7413C78.5576 94.593 78.8891 94.6637 79.0465 94.9113L82.5233 97.6898ZM82.5233 97.6898V97.6834M82.5233 97.6898V97.6834M82.5233 97.6834C82.7687 97.6726 83.0139 97.6429 83.2561 97.5923M82.5233 97.6834L79.0466 94.9115C79.0466 94.9114 79.0466 94.9114 79.0466 94.9114C79.8505 96.1738 81.5317 96.872 83.0325 96.5594L83.0757 96.7668L83.0303 96.5599C83.3166 96.4971 83.6059 96.6775 83.6693 96.9635L83.6694 96.964C83.7333 97.2557 83.5407 97.5329 83.2561 97.5923M83.2561 97.5923C83.2561 97.5923 83.2561 97.5923 83.2561 97.5923L83.2128 97.385L83.2561 97.5923Z" fill="#AFAFAF" stroke="#AFAFAF" stroke-width="0.423588"/>
<path d="M103.791 57.7499C104.948 57.1889 106.279 58.0917 106.186 59.3749L104.907 77.0171C104.814 78.3004 103.367 79.0017 102.303 78.2794L87.6723 68.3503C86.6081 67.628 86.7244 66.024 87.8816 65.463L103.791 57.7499Z" fill="#D8D8D8"/>
<path d="M63.001 36.5713V23.7713H65.9633V34.1576H72.3815V36.5713H63.001ZM75.8267 36.5713L71.6941 26.7336H74.6381L78.0758 35.1999H76.613L80.1787 26.7336H82.9215L78.7707 36.5713H75.8267ZM84.5751 36.7176C84.0875 36.7176 83.6669 36.553 83.3134 36.2239C82.9721 35.8825 82.8014 35.4498 82.8014 34.9256C82.8014 34.4014 82.9721 33.9808 83.3134 33.6639C83.6669 33.3347 84.0875 33.1701 84.5751 33.1701C85.0749 33.1701 85.4955 33.3347 85.8368 33.6639C86.1782 33.9808 86.3488 34.4014 86.3488 34.9256C86.3488 35.4498 86.1782 35.8825 85.8368 36.2239C85.4955 36.553 85.0749 36.7176 84.5751 36.7176ZM93.1698 36.7907C91.9995 36.7907 90.9816 36.5469 90.1161 36.0593C89.2628 35.5717 88.6045 34.8585 88.1413 33.9199C87.678 32.9812 87.4464 31.8231 87.4464 30.4456C87.4464 28.9705 87.7207 27.721 88.2693 26.697C88.83 25.673 89.598 24.8928 90.5733 24.3564C91.5607 23.82 92.6944 23.5519 93.9744 23.5519C94.6571 23.5519 95.3093 23.625 95.931 23.7713C96.5527 23.9176 97.0891 24.137 97.5401 24.4296L96.443 26.6056C96.0894 26.3618 95.7115 26.1972 95.3093 26.1119C94.907 26.0143 94.4864 25.9656 94.0475 25.9656C92.9382 25.9656 92.0605 26.3008 91.4144 26.9713C90.7683 27.6418 90.4453 28.6353 90.4453 29.9519C90.4453 30.1713 90.4453 30.4151 90.4453 30.6833C90.4574 30.9515 90.494 31.2197 90.555 31.4879L89.7321 30.7199C89.9637 30.2444 90.2624 29.8482 90.6281 29.5313C90.9938 29.2021 91.4266 28.9583 91.9264 28.7999C92.4384 28.6292 92.9992 28.5439 93.6087 28.5439C94.4376 28.5439 95.1813 28.7084 95.8395 29.0376C96.4978 29.3667 97.022 29.83 97.4121 30.4273C97.8144 31.0246 98.0155 31.7256 98.0155 32.5301C98.0155 33.3957 97.7961 34.1515 97.3573 34.7976C96.9306 35.4315 96.3515 35.9252 95.6201 36.2787C94.9009 36.6201 94.0841 36.7907 93.1698 36.7907ZM93.0053 34.5781C93.4197 34.5781 93.7854 34.505 94.1024 34.3587C94.4315 34.2002 94.6875 33.9747 94.8704 33.6821C95.0533 33.3896 95.1447 33.0543 95.1447 32.6764C95.1447 32.0913 94.9435 31.6281 94.5413 31.2867C94.1512 30.9332 93.627 30.7564 92.9687 30.7564C92.5298 30.7564 92.1458 30.8418 91.8167 31.0124C91.4875 31.1709 91.2254 31.3964 91.0304 31.689C90.8475 31.9694 90.7561 32.2985 90.7561 32.6764C90.7561 33.0421 90.8475 33.3713 91.0304 33.6639C91.2133 33.9442 91.4693 34.1698 91.7984 34.3404C92.1275 34.4989 92.5298 34.5781 93.0053 34.5781Z" fill="#D8D8D8"/>
<defs>
<clipPath id="clip0_88_28769">
<rect width="27.7551" height="27.7551" fill="white" transform="translate(34.8984 46.3057)"/>
</clipPath>
<clipPath id="clip1_88_28769">
<rect width="14.7449" height="14.7449" fill="white" transform="translate(73.4961 105.284)"/>
</clipPath>
</defs>
</svg>
