<svg width="160" height="160" viewBox="0 0 160 160" fill="none" xmlns="http://www.w3.org/2000/svg">
<circle cx="80" cy="80" r="80" fill="white"/>
<path d="M63.001 36.5713V23.7713H65.9633V34.1576H72.3815V36.5713H63.001ZM75.8267 36.5713L71.6941 26.7336H74.6381L78.0758 35.1999H76.613L80.1787 26.7336H82.9215L78.7707 36.5713H75.8267ZM84.5751 36.7176C84.0875 36.7176 83.6669 36.553 83.3134 36.2239C82.9721 35.8825 82.8014 35.4498 82.8014 34.9256C82.8014 34.4014 82.9721 33.9808 83.3134 33.6639C83.6669 33.3347 84.0875 33.1701 84.5751 33.1701C85.0749 33.1701 85.4955 33.3347 85.8368 33.6639C86.1782 33.9808 86.3488 34.4014 86.3488 34.9256C86.3488 35.4498 86.1782 35.8825 85.8368 36.2239C85.4955 36.553 85.0749 36.7176 84.5751 36.7176ZM93.1698 36.7907C91.9995 36.7907 90.9816 36.5469 90.1161 36.0593C89.2628 35.5717 88.6045 34.8585 88.1413 33.9199C87.678 32.9812 87.4464 31.8231 87.4464 30.4456C87.4464 28.9705 87.7207 27.721 88.2693 26.697C88.83 25.673 89.598 24.8928 90.5733 24.3564C91.5607 23.82 92.6944 23.5519 93.9744 23.5519C94.6571 23.5519 95.3093 23.625 95.931 23.7713C96.5527 23.9176 97.0891 24.137 97.5401 24.4296L96.443 26.6056C96.0894 26.3618 95.7115 26.1972 95.3093 26.1119C94.907 26.0143 94.4864 25.9656 94.0475 25.9656C92.9382 25.9656 92.0605 26.3008 91.4144 26.9713C90.7683 27.6418 90.4453 28.6353 90.4453 29.9519C90.4453 30.1713 90.4453 30.4151 90.4453 30.6833C90.4574 30.9515 90.494 31.2197 90.555 31.4879L89.7321 30.7199C89.9637 30.2444 90.2624 29.8482 90.6281 29.5313C90.9938 29.2021 91.4266 28.9583 91.9264 28.7999C92.4384 28.6292 92.9992 28.5439 93.6087 28.5439C94.4376 28.5439 95.1813 28.7084 95.8395 29.0376C96.4978 29.3667 97.022 29.83 97.4121 30.4273C97.8144 31.0246 98.0155 31.7256 98.0155 32.5301C98.0155 33.3957 97.7961 34.1515 97.3573 34.7976C96.9306 35.4315 96.3515 35.9252 95.6201 36.2787C94.9009 36.6201 94.0841 36.7907 93.1698 36.7907ZM93.0053 34.5781C93.4197 34.5781 93.7854 34.505 94.1024 34.3587C94.4315 34.2002 94.6875 33.9747 94.8704 33.6821C95.0533 33.3896 95.1447 33.0543 95.1447 32.6764C95.1447 32.0913 94.9435 31.6281 94.5413 31.2867C94.1512 30.9332 93.627 30.7564 92.9687 30.7564C92.5298 30.7564 92.1458 30.8418 91.8167 31.0124C91.4875 31.1709 91.2254 31.3964 91.0304 31.689C90.8475 31.9694 90.7561 32.2985 90.7561 32.6764C90.7561 33.0421 90.8475 33.3713 91.0304 33.6639C91.2133 33.9442 91.4693 34.1698 91.7984 34.3404C92.1275 34.4989 92.5298 34.5781 93.0053 34.5781Z" fill="#576DFC"/>
<g clip-path="url(#clip0_88_28643)">
<path d="M46.5506 49.3251C46.9415 48.4462 48.1454 48.4034 48.6172 49.1932L48.6854 49.3251L49.8905 52.037C50.9427 54.4042 52.6926 56.3937 54.906 57.7395L55.2784 57.9581L57.4179 59.1608C57.588 59.256 57.7315 59.3923 57.8354 59.5572C57.9394 59.7221 58.0004 59.9104 58.0129 60.1049C58.0255 60.2994 57.9891 60.494 57.9072 60.6708C57.8253 60.8477 57.7004 61.0013 57.5439 61.1175L57.419 61.1985L55.2784 62.4012C53.0203 63.6714 51.2038 65.6008 50.072 67.9314L49.8905 68.3223L48.6854 71.0342C48.2946 71.9131 47.0907 71.9559 46.6188 71.166L46.5506 71.0342L45.3456 68.3223C44.2933 65.9551 42.5435 63.9656 40.33 62.6198L39.9576 62.4012L37.8182 61.1985C37.6481 61.1033 37.5045 60.967 37.4006 60.8021C37.2967 60.6372 37.2357 60.4489 37.2231 60.2544C37.2106 60.0599 37.2469 59.8653 37.3289 59.6884C37.4108 59.5116 37.5356 59.358 37.6921 59.2417L37.817 59.1608L39.9576 57.9581C42.2157 56.6879 44.0322 54.7584 45.164 52.4279L45.3456 52.037L46.5506 49.3251ZM57.1253 48.7549C57.6992 50.0591 58.6782 51.1435 59.917 51.8473C60.102 51.9514 60.102 52.2174 59.917 52.3215C58.6776 53.0254 57.6981 54.1103 57.1241 55.415C57.1022 55.4641 57.0665 55.5058 57.0213 55.5351C56.9762 55.5644 56.9235 55.5799 56.8697 55.5799C56.8159 55.5799 56.7633 55.5644 56.7181 55.5351C56.673 55.5058 56.6373 55.4641 56.6153 55.415C56.0411 54.1107 55.0617 53.0263 53.8224 52.3226C53.7806 52.2988 53.7458 52.2643 53.7217 52.2226C53.6975 52.181 53.6847 52.1337 53.6847 52.0856C53.6847 52.0374 53.6975 51.9901 53.7217 51.9485C53.7458 51.9068 53.7806 51.8723 53.8224 51.8485C55.0621 51.1442 56.0415 50.0589 56.6153 48.7538C56.6373 48.7047 56.673 48.663 56.7181 48.6337C56.7633 48.6044 56.8159 48.5889 56.8697 48.5889C56.9235 48.5889 56.9762 48.6044 57.0213 48.6337C57.0665 48.663 57.1022 48.7047 57.1241 48.7538L57.1253 48.7549Z" fill="#FFEC00"/>
</g>
<circle cx="110.359" cy="100.95" r="11.2755" fill="#F9C23C"/>
<circle cx="33.8265" cy="33.8265" r="33.8265" transform="matrix(-1 0 0 1 114.697 61.9199)" fill="#FCD53F"/>
<path d="M86.201 86.4717H75.2461V88.1963H86.201V86.4717Z" fill="#203745"/>
<path d="M86.197 88.7556H75.2421C74.9296 88.7556 74.6758 88.5042 74.6758 88.1947V86.4701C74.6758 86.1606 74.9296 85.9092 75.2421 85.9092H86.197C86.5094 85.9092 86.7633 86.1606 86.7633 86.4701V88.1947C86.7633 88.5042 86.5094 88.7556 86.197 88.7556ZM75.8084 87.637H85.634V87.0342H75.8084V87.637Z" fill="#2B2D35"/>
<path d="M85.2754 83.2972V86.4886C85.2754 92.2524 89.988 96.9202 95.804 96.9202C96.0188 96.9202 96.2336 96.9138 96.4484 96.8945C97.6851 96.83 98.8665 96.5399 99.9503 96.0789C100.657 95.7791 101.327 95.4116 101.939 94.9635C103.247 94.0351 104.331 92.8166 105.093 91.3982C105.883 89.9346 106.336 88.2616 106.336 86.4853V83.2939H85.2754V83.2972Z" fill="#2B2D35"/>
<path d="M95.7967 97.4803C89.6813 97.4803 84.7051 92.5481 84.7051 86.4877V83.2963C84.7051 82.9868 84.9589 82.7354 85.2714 82.7354H106.332C106.644 82.7354 106.898 82.9868 106.898 83.2963V86.4877C106.898 88.2929 106.446 90.082 105.59 91.6648C104.796 93.1445 103.643 94.4436 102.267 95.4203C101.642 95.8749 100.936 96.2714 100.171 96.5938C98.9894 97.0966 97.7462 97.3868 96.4769 97.4545C96.2686 97.4738 96.0343 97.4803 95.8032 97.4803H95.7967ZM85.8344 83.8572V86.4877C85.8344 91.9324 90.303 96.3616 95.7967 96.3616C95.9952 96.3616 96.1905 96.3584 96.3858 96.3391C97.5444 96.2778 98.6575 96.0167 99.7185 95.5654C100.402 95.2753 101.033 94.9239 101.596 94.5145C102.84 93.6345 103.871 92.4675 104.587 91.1394C105.355 89.7177 105.762 88.1091 105.762 86.4909V83.8604H85.8312L85.8344 83.8572Z" fill="#2B2D35"/>
<path d="M92.8119 83.2969L101.938 94.9664C103.246 94.038 104.33 92.8195 105.091 91.4011L98.7547 83.2969H92.8086H92.8119Z" fill="white" fill-opacity="0.5"/>
<path d="M101.929 95.5264C101.76 95.5264 101.594 95.4523 101.483 95.3105L92.3576 83.6409C92.2241 83.4733 92.2014 83.2444 92.2957 83.051C92.3901 82.8608 92.5886 82.7383 92.8035 82.7383H98.7496C98.9253 82.7383 99.0913 82.8189 99.1954 82.9543L105.532 91.0585C105.669 91.2326 105.688 91.4711 105.584 91.6645C104.787 93.1442 103.638 94.4465 102.258 95.4233C102.157 95.4942 102.043 95.5264 101.929 95.5264ZM93.9556 83.8569L102.033 94.1854C102.984 93.4278 103.794 92.4962 104.409 91.4518L98.4729 83.8569H93.9556Z" fill="#2B2D35"/>
<path d="M85.8184 83.29L96.4576 96.8873C97.6943 96.8229 98.8757 96.5327 99.9595 96.0717L89.9647 83.29H85.8184Z" fill="white" fill-opacity="0.5"/>
<path d="M96.4557 97.4542C96.2799 97.4542 96.1172 97.3736 96.0098 97.2382L85.3673 83.6409C85.2339 83.4733 85.2111 83.2444 85.3055 83.051C85.3999 82.8608 85.5984 82.7383 85.8132 82.7383H89.9595C90.1353 82.7383 90.298 82.8189 90.4054 82.9543L100.4 95.736C100.508 95.8714 100.543 96.0519 100.501 96.2195C100.459 96.3871 100.338 96.5258 100.176 96.5935C98.9943 97.0963 97.751 97.3865 96.4817 97.4542C96.472 97.4542 96.4622 97.4542 96.4524 97.4542H96.4557ZM86.9686 83.8537L96.7193 96.313C97.5102 96.2453 98.2913 96.0841 99.0463 95.8262L89.6829 83.8537H86.9653H86.9686Z" fill="#2B2D35"/>
<path d="M55.418 83.2972V86.4886C55.418 92.2524 60.1306 96.9202 65.9465 96.9202C66.1613 96.9202 66.3761 96.9138 66.5909 96.8945C67.8277 96.83 69.0091 96.5399 70.0929 96.0789C70.7991 95.7791 71.4696 95.4116 72.0814 94.9635C73.3898 94.0351 74.4735 92.8166 75.2351 91.3982C76.026 89.9346 76.4784 88.2616 76.4784 86.4853V83.2939H55.418V83.2972Z" fill="#2B2D35"/>
<path d="M65.9425 97.4803C59.8272 97.4803 54.8477 92.5481 54.8477 86.4877V83.2963C54.8477 82.9868 55.1015 82.7354 55.414 82.7354H76.4743C76.7868 82.7354 77.0406 82.9868 77.0406 83.2963V86.4877C77.0406 88.2929 76.5883 90.082 75.7323 91.6648C74.9382 93.1445 73.7861 94.4436 72.4061 95.4203C71.7812 95.8749 71.075 96.2714 70.3102 96.5938C69.1288 97.0966 67.8855 97.3868 66.6162 97.4545C66.4079 97.4738 66.1736 97.4803 65.9425 97.4803ZM55.9803 83.8572V86.4877C55.9803 91.9324 60.4488 96.3616 65.9425 96.3616C66.1411 96.3616 66.3363 96.3584 66.5316 96.3391C67.6902 96.2778 68.8033 96.0167 69.8643 95.5654C70.5478 95.2753 71.1791 94.9239 71.7422 94.5145C72.9854 93.6345 74.0171 92.4675 74.7331 91.1394C75.5012 89.7177 75.9081 88.1091 75.9081 86.4909V83.8604H55.977L55.9803 83.8572Z" fill="#2B2D35"/>
<path d="M62.9544 83.2969L72.0803 94.9664C73.3886 94.038 74.4724 92.8195 75.234 91.4011L68.8973 83.2969H62.9512H62.9544Z" fill="white" fill-opacity="0.5"/>
<path d="M72.0875 95.5264C71.9183 95.5264 71.7523 95.4523 71.6416 95.3105L62.5158 83.6409C62.3823 83.4733 62.3596 83.2444 62.4539 83.051C62.5483 82.8608 62.7469 82.7383 62.9617 82.7383H68.9078C69.0835 82.7383 69.2463 82.8189 69.3537 82.9543L75.6903 91.0585C75.827 91.2326 75.8465 91.4711 75.7424 91.6645C74.945 93.1474 73.7962 94.4465 72.4162 95.4233C72.3153 95.4942 72.2014 95.5264 72.0875 95.5264ZM64.1138 83.8569L72.1916 94.1854C73.142 93.4278 73.9556 92.4962 74.5675 91.4518L68.6311 83.8569H64.1138Z" fill="#2B2D35"/>
<path d="M55.9746 83.29L66.6138 96.8873C67.8506 96.8229 69.032 96.5327 70.1158 96.0717L60.1209 83.29H55.9746Z" fill="white" fill-opacity="0.5"/>
<path d="M66.6087 97.4542C66.4329 97.4542 66.2702 97.3736 66.1628 97.2382L55.5236 83.6409C55.3902 83.4733 55.3674 83.2444 55.4618 83.051C55.5561 82.8608 55.7547 82.7383 55.9695 82.7383H60.1158C60.2916 82.7383 60.4543 82.8189 60.5617 82.9543L70.5565 95.736C70.6639 95.8714 70.6997 96.0519 70.6574 96.2195C70.6151 96.3871 70.4947 96.5258 70.3319 96.5935C69.1473 97.0963 67.904 97.3865 66.638 97.4542C66.6282 97.4542 66.6185 97.4542 66.6087 97.4542ZM57.1216 83.8537L66.8723 96.313C67.6632 96.2453 68.4443 96.0841 69.1993 95.8262L59.8359 83.8537H57.1183H57.1216Z" fill="#2B2D35"/>
<circle cx="50.5118" cy="100.95" r="11.2755" fill="#FFE583"/>
<g clip-path="url(#clip1_88_28643)">
<path d="M78.1055 116.346L79.9486 109.28H81.7917L83.6348 116.346L80.8701 118.803L78.1055 116.346ZM79.9486 106.516H81.7917L82.7132 107.13L81.7917 109.28H79.9486L79.027 107.13L79.9486 106.516Z" fill="#FF6723"/>
<path d="M79.9486 109.28L78.1055 116.346L80.8701 118.803L83.6348 116.346L81.7917 109.28M79.9486 109.28H81.7917M79.9486 109.28L79.027 107.13L79.9486 106.516H81.7917L82.7132 107.13L81.7917 109.28" stroke="#FF6723" stroke-width="1.22874" stroke-linecap="round" stroke-linejoin="round"/>
</g>
<path d="M82.5252 97.6927H82.3134C80.6679 97.6927 79.013 96.8491 78.1373 95.4756L78.1366 95.4744L78.1366 95.4744C77.9793 95.2238 78.0588 94.8961 78.3122 94.7442C78.5595 94.5959 78.8911 94.6667 79.0485 94.9143M82.5252 97.6927L83.4644 97.0122C83.502 97.1837 83.3893 97.3515 83.2147 97.3879M82.5252 97.6927V97.6863C82.7707 97.6756 83.0159 97.6459 83.258 97.5953M82.5252 97.6927L82.3134 97.4791C82.6157 97.4791 82.918 97.4499 83.2147 97.3879M79.0485 94.9143C79.0486 94.9143 79.0486 94.9144 79.0486 94.9144L78.8698 95.028L79.0485 94.9142C79.0485 94.9143 79.0485 94.9143 79.0485 94.9143ZM79.0485 94.9143C79.8525 96.1767 81.5337 96.8749 83.0345 96.5623L83.0776 96.7697L83.0323 96.5628C83.3186 96.5 83.6079 96.6804 83.6712 96.9665L83.6713 96.9669C83.7352 97.2586 83.5426 97.5358 83.258 97.5953M83.258 97.5953L83.2147 97.3879M83.258 97.5953C83.258 97.5953 83.258 97.5953 83.258 97.5953L83.2147 97.3879M82.1836 97.4791C82.1563 97.4784 82.129 97.4774 82.1016 97.4761V97.4791V97.4809H82.3134C82.2702 97.4809 82.2269 97.4803 82.1836 97.4791Z" fill="#E2A50F" stroke="#E2A50F" stroke-width="0.423588"/>
<path d="M103.791 57.7528C104.948 57.1918 106.279 58.0946 106.186 59.3778L104.907 77.0201C104.814 78.3033 103.367 79.0046 102.303 78.2824L87.6723 68.3532C86.6081 67.631 86.7244 66.0269 87.8816 65.4659L103.791 57.7528Z" fill="#FCD53F"/>
<defs>
<clipPath id="clip0_88_28643">
<rect width="27.7551" height="27.7551" fill="white" transform="translate(34.8984 46.3066)"/>
</clipPath>
<clipPath id="clip1_88_28643">
<rect width="14.7449" height="14.7449" fill="white" transform="translate(73.4961 105.287)"/>
</clipPath>
</defs>
</svg>
