<svg width="327" height="220" viewBox="0 0 327 220" fill="none" xmlns="http://www.w3.org/2000/svg">
<path d="M59.5 12C59.5 5.37258 64.8726 0 71.5 0H255.5C262.127 0 267.5 5.37258 267.5 12V28C267.5 34.6274 262.127 40 255.5 40H71.5C64.8726 40 59.5 34.6274 59.5 28V12Z" fill="#E4E8FF"/>
<path d="M76.4546 15.8086H79.9077C80.5933 15.8086 81.1772 15.9377 81.6597 16.1958C82.1463 16.4539 82.5145 16.8136 82.7642 17.2749C83.0138 17.7319 83.1408 18.2588 83.145 18.8555C83.1408 19.4479 83.0117 19.9727 82.7578 20.4297C82.5081 20.8867 82.1379 21.2443 81.647 21.5024C81.1603 21.7606 80.5721 21.8896 79.8823 21.8896H78.105V25H76.4546V15.8086ZM79.6538 20.5312C80.2547 20.527 80.7054 20.3747 81.0059 20.0742C81.3063 19.7695 81.4565 19.3633 81.4565 18.8555C81.4565 18.3434 81.3063 17.9393 81.0059 17.6431C80.7054 17.3426 80.2547 17.1924 79.6538 17.1924H78.105V20.5312H79.6538ZM90.6733 18.9062C90.6099 18.5465 90.4744 18.2355 90.2671 17.9731C90.064 17.7108 89.8079 17.5119 89.499 17.3765C89.1901 17.2368 88.8494 17.167 88.4771 17.167C87.9735 17.167 87.527 17.2939 87.1377 17.5479C86.7526 17.7975 86.4521 18.1657 86.2363 18.6523C86.0205 19.139 85.9126 19.723 85.9126 20.4043C85.9126 21.0941 86.0205 21.6823 86.2363 22.1689C86.4521 22.6514 86.7526 23.0174 87.1377 23.2671C87.527 23.5168 87.9735 23.6416 88.4771 23.6416C88.841 23.6416 89.1753 23.576 89.48 23.4448C89.7889 23.3094 90.047 23.1147 90.2544 22.8608C90.4618 22.6069 90.6014 22.3044 90.6733 21.9531H92.3364C92.2518 22.5456 92.0381 23.083 91.6953 23.5654C91.3525 24.0479 90.9019 24.4287 90.3433 24.708C89.7889 24.9873 89.1584 25.127 88.4517 25.127C87.6392 25.127 86.9134 24.9386 86.2744 24.562C85.6396 24.1812 85.1424 23.6353 84.7827 22.9243C84.4272 22.2091 84.2495 21.3691 84.2495 20.4043C84.2495 19.4352 84.4294 18.5952 84.7891 17.8843C85.153 17.1733 85.6523 16.6296 86.2871 16.2529C86.9261 15.8721 87.6476 15.6816 88.4517 15.6816C89.1287 15.6816 89.7445 15.8107 90.2988 16.0688C90.8532 16.3228 91.3081 16.693 91.6636 17.1797C92.019 17.6621 92.2433 18.2376 92.3364 18.9062H90.6733ZM103.191 26.1299H101.833V14.6533H103.191V26.1299ZM93.4028 19.6172C93.4028 18.7835 93.5044 18.0599 93.7075 17.4463C93.9106 16.8285 94.1984 16.3545 94.5708 16.0244C94.9474 15.6943 95.3833 15.5293 95.8784 15.5293C96.3397 15.5293 96.748 15.6668 97.1035 15.9419C97.4632 16.217 97.751 16.6126 97.9668 17.1289C98.1868 17.6452 98.3244 18.2588 98.3794 18.9697H99.4839V14.8564H100.83V25.5713H99.4839V20.1123H98.3921C98.3498 20.8529 98.2186 21.4961 97.9985 22.042C97.7827 22.5837 97.4928 22.9984 97.1289 23.2861C96.765 23.5739 96.3481 23.7178 95.8784 23.7178C95.3833 23.7178 94.9474 23.5527 94.5708 23.2227C94.1984 22.8926 93.9106 22.4186 93.7075 21.8008C93.5044 21.1787 93.4028 20.4508 93.4028 19.6172ZM94.7104 19.6553C94.7104 20.5312 94.812 21.2041 95.0151 21.6738C95.2225 22.1436 95.5103 22.3763 95.8784 22.3721C96.2635 22.3763 96.5618 22.1414 96.7734 21.6675C96.985 21.1935 97.0929 20.5101 97.0972 19.6172C97.0929 18.7285 96.985 18.0472 96.7734 17.5732C96.5618 17.0951 96.2635 16.8581 95.8784 16.8623C95.506 16.8581 95.2183 17.0972 95.0151 17.5796C94.812 18.062 94.7104 18.7539 94.7104 19.6553ZM108.764 17.4082C108.76 18.1276 108.87 18.8216 109.094 19.4902C109.319 20.1589 109.644 20.7534 110.072 21.2739C110.503 21.7902 111.015 22.1774 111.608 22.4355L110.757 23.5654C110.123 23.2565 109.577 22.8122 109.12 22.2324C108.663 21.6527 108.309 20.9777 108.06 20.2075C107.801 21.0243 107.438 21.7437 106.968 22.3657C106.498 22.9836 105.942 23.4554 105.298 23.7812L104.41 22.6387C105.015 22.3551 105.537 21.9404 105.978 21.3945C106.418 20.8486 106.752 20.2287 106.98 19.5347C107.209 18.8407 107.325 18.1318 107.33 17.4082V15.5801H108.764V17.4082ZM110.338 18.3604H112.75V14.6533H114.147V26.1426H112.75V19.5029H110.338V18.3604ZM124.798 15.0215C124.798 15.4277 124.963 15.8149 125.293 16.1831C125.624 16.547 126.087 16.8581 126.684 17.1162C127.285 17.3701 127.976 17.5394 128.759 17.624L128.29 18.6904C127.316 18.5804 126.459 18.3413 125.719 17.9731C124.982 17.6007 124.43 17.1353 124.062 16.5767C123.694 17.1353 123.142 17.6007 122.405 17.9731C121.669 18.3413 120.82 18.5804 119.86 18.6904L119.377 17.624C120.16 17.5394 120.852 17.3701 121.453 17.1162C122.058 16.8581 122.526 16.547 122.856 16.1831C123.186 15.8149 123.351 15.4277 123.351 15.0215V14.7168H124.798V15.0215ZM118.844 19.2617H129.305V20.3789H124.76V21.2676H127.998V24.1113H121.472V24.9492H128.315V26.0283H120.088V23.0957H126.614V22.3467H120.076V21.2676H123.351V20.3789H118.844V19.2617ZM136.034 15.0215C136.034 15.4277 136.199 15.8149 136.529 16.1831C136.859 16.547 137.322 16.8581 137.919 17.1162C138.52 17.3701 139.212 17.5394 139.995 17.624L139.525 18.6904C138.552 18.5804 137.695 18.3413 136.954 17.9731C136.218 17.6007 135.666 17.1353 135.297 16.5767C134.929 17.1353 134.377 17.6007 133.641 17.9731C132.904 18.3413 132.056 18.5804 131.095 18.6904L130.613 17.624C131.396 17.5394 132.088 17.3701 132.688 17.1162C133.294 16.8581 133.761 16.547 134.091 16.1831C134.421 15.8149 134.586 15.4277 134.586 15.0215V14.7168H136.034V15.0215ZM130.08 19.2617H140.541V20.3789H135.996V21.2676H139.233V24.1113H132.708V24.9492H139.55V26.0283H131.324V23.0957H137.849V22.3467H131.311V21.2676H134.586V20.3789H130.08V19.2617ZM146.533 14.8311C147.404 14.8311 148.149 14.9072 148.767 15.0596C149.385 15.2119 149.857 15.4362 150.183 15.7324C150.508 16.0244 150.671 16.3799 150.671 16.7988C150.671 17.222 150.508 17.5817 150.183 17.8779C149.857 18.1742 149.385 18.3984 148.767 18.5508C148.149 18.6989 147.404 18.7751 146.533 18.7793C145.661 18.7751 144.916 18.6989 144.298 18.5508C143.681 18.3984 143.209 18.1742 142.883 17.8779C142.557 17.5817 142.394 17.222 142.394 16.7988C142.394 16.3799 142.557 16.0244 142.883 15.7324C143.209 15.4362 143.681 15.214 144.298 15.0659C144.916 14.9136 145.661 14.8353 146.533 14.8311ZM141.315 19.3887H151.776V20.5186H141.315V19.3887ZM142.546 21.293H150.468V24.0986H143.943V24.9492H150.786V26.0283H142.559V23.0957H149.084V22.334H142.546V21.293ZM143.879 16.7988C143.875 17.112 144.095 17.3447 144.54 17.4971C144.984 17.6494 145.648 17.7256 146.533 17.7256C147.426 17.7256 148.094 17.6494 148.539 17.4971C148.987 17.3447 149.211 17.112 149.211 16.7988C149.211 16.5026 148.983 16.2741 148.526 16.1133C148.073 15.9525 147.409 15.8721 146.533 15.8721C145.665 15.8721 145.005 15.9525 144.552 16.1133C144.099 16.2741 143.875 16.5026 143.879 16.7988ZM159.749 25H158.085V17.4209H158.035L155.889 18.792V17.2812L158.162 15.8086H159.749V25ZM165.373 25.127C164.636 25.127 164.004 24.9429 163.475 24.5747C162.946 24.2023 162.542 23.6628 162.262 22.9561C161.983 22.2493 161.843 21.3988 161.843 20.4043C161.843 19.4141 161.983 18.5656 162.262 17.8589C162.546 17.1479 162.952 16.6084 163.481 16.2402C164.01 15.8678 164.64 15.6816 165.373 15.6816C166.105 15.6816 166.735 15.8678 167.264 16.2402C167.793 16.6084 168.197 17.1479 168.477 17.8589C168.76 18.5656 168.902 19.4141 168.902 20.4043C168.902 21.3988 168.76 22.2515 168.477 22.9624C168.197 23.6691 167.793 24.2065 167.264 24.5747C166.739 24.9429 166.109 25.127 165.373 25.127ZM163.506 20.4043C163.506 21.4919 163.669 22.3192 163.995 22.8862C164.325 23.4533 164.784 23.7389 165.373 23.7432C165.758 23.7389 166.09 23.612 166.369 23.3623C166.648 23.1126 166.862 22.7381 167.01 22.2388C167.163 21.7394 167.239 21.1279 167.239 20.4043C167.239 19.6849 167.163 19.0755 167.01 18.5762C166.862 18.0726 166.648 17.6938 166.369 17.4399C166.09 17.186 165.758 17.057 165.373 17.0527C164.987 17.057 164.655 17.186 164.376 17.4399C164.097 17.6938 163.881 18.0726 163.729 18.5762C163.58 19.0755 163.506 19.6849 163.506 20.4043ZM173.675 25.127C172.939 25.127 172.306 24.9429 171.777 24.5747C171.248 24.2023 170.844 23.6628 170.565 22.9561C170.286 22.2493 170.146 21.3988 170.146 20.4043C170.146 19.4141 170.286 18.5656 170.565 17.8589C170.848 17.1479 171.255 16.6084 171.784 16.2402C172.313 15.8678 172.943 15.6816 173.675 15.6816C174.407 15.6816 175.038 15.8678 175.567 16.2402C176.096 16.6084 176.5 17.1479 176.779 17.8589C177.063 18.5656 177.205 19.4141 177.205 20.4043C177.205 21.3988 177.063 22.2515 176.779 22.9624C176.5 23.6691 176.096 24.2065 175.567 24.5747C175.042 24.9429 174.412 25.127 173.675 25.127ZM171.809 20.4043C171.809 21.4919 171.972 22.3192 172.298 22.8862C172.628 23.4533 173.087 23.7389 173.675 23.7432C174.06 23.7389 174.393 23.612 174.672 23.3623C174.951 23.1126 175.165 22.7381 175.313 22.2388C175.465 21.7394 175.542 21.1279 175.542 20.4043C175.542 19.6849 175.465 19.0755 175.313 18.5762C175.165 18.0726 174.951 17.6938 174.672 17.4399C174.393 17.186 174.06 17.057 173.675 17.0527C173.29 17.057 172.958 17.186 172.679 17.4399C172.399 17.6938 172.184 18.0726 172.031 18.5762C171.883 19.0755 171.809 19.6849 171.809 20.4043ZM183.501 22.791C183.497 22.4313 183.571 22.1012 183.724 21.8008C183.88 21.5003 184.104 21.2612 184.396 21.0835C184.693 20.9015 185.042 20.8105 185.444 20.8105C185.85 20.8105 186.199 20.8994 186.491 21.0771C186.783 21.2549 187.003 21.494 187.151 21.7944C187.304 22.0949 187.378 22.4271 187.374 22.791V23.2734C187.378 23.6331 187.304 23.9653 187.151 24.27C186.999 24.5705 186.777 24.8096 186.485 24.9873C186.193 25.165 185.846 25.2539 185.444 25.2539C185.033 25.2539 184.682 25.165 184.39 24.9873C184.098 24.8096 183.876 24.5705 183.724 24.27C183.571 23.9696 183.497 23.6374 183.501 23.2734V22.791ZM178.83 17.5352C178.825 17.1712 178.899 16.839 179.052 16.5386C179.208 16.2381 179.433 15.999 179.725 15.8213C180.021 15.6436 180.37 15.5547 180.772 15.5547C181.182 15.5547 181.532 15.6436 181.819 15.8213C182.111 15.9948 182.331 16.2318 182.479 16.5322C182.632 16.8327 182.706 17.167 182.702 17.5352V18.0176C182.706 18.3815 182.632 18.7137 182.479 19.0142C182.327 19.3104 182.105 19.5474 181.813 19.7251C181.521 19.8986 181.174 19.9854 180.772 19.9854C180.361 19.9854 180.01 19.8986 179.718 19.7251C179.426 19.5474 179.204 19.3104 179.052 19.0142C178.899 18.7137 178.825 18.3815 178.83 18.0176V17.5352ZM185.66 15.8086H186.777L180.455 25H179.337L185.66 15.8086ZM179.998 18.0176C180.002 18.2884 180.065 18.5148 180.188 18.6968C180.311 18.8745 180.505 18.9655 180.772 18.9697C181.034 18.9655 181.225 18.8745 181.343 18.6968C181.466 18.5148 181.529 18.2884 181.534 18.0176V17.5352C181.529 17.2559 181.468 17.0273 181.35 16.8496C181.235 16.6676 181.043 16.5745 180.772 16.5703C180.51 16.5745 180.315 16.6698 180.188 16.856C180.065 17.0379 180.002 17.2643 179.998 17.5352V18.0176ZM184.669 23.2734C184.669 23.54 184.731 23.7664 184.854 23.9526C184.976 24.1346 185.173 24.2256 185.444 24.2256C185.706 24.2256 185.897 24.1367 186.015 23.959C186.138 23.777 186.201 23.5485 186.206 23.2734V22.791C186.201 22.516 186.14 22.2874 186.021 22.1055C185.903 21.9235 185.71 21.8346 185.444 21.8389C185.177 21.8346 184.98 21.9256 184.854 22.1118C184.731 22.2938 184.669 22.5202 184.669 22.791V23.2734ZM200.919 17.4463H202.468V18.627H200.919V21.4072H199.51V14.6533H200.919V17.4463ZM191.728 20.252C192.968 20.252 193.933 20.2435 194.623 20.2266V19.6489C193.967 19.5812 193.455 19.4183 193.086 19.1602C192.718 18.8978 192.536 18.5592 192.541 18.1445C192.541 17.8398 192.653 17.5775 192.877 17.3574C193.105 17.1331 193.427 16.9639 193.842 16.8496C194.261 16.7311 194.75 16.6719 195.308 16.6719C195.867 16.6719 196.353 16.7311 196.768 16.8496C197.187 16.9639 197.509 17.1331 197.733 17.3574C197.961 17.5775 198.076 17.8398 198.076 18.1445C198.076 18.555 197.894 18.8914 197.53 19.1538C197.17 19.4119 196.671 19.5749 196.032 19.6426V20.1758C197.145 20.1165 198.105 20.0319 198.914 19.9219L199.028 20.8105C197.94 20.9925 196.821 21.111 195.67 21.166C194.523 21.2168 193.26 21.2422 191.88 21.2422L191.728 20.252ZM192.02 15.4277H194.623V14.5645H196.032V15.4277H198.609V16.3926H192.02V15.4277ZM193.251 21.8643H200.919V24.3398H194.686V25.0762H201.326V26.0283H193.277V23.4639H199.51V22.8164H193.251V21.8643ZM193.899 18.1445C193.895 18.3477 194.015 18.5042 194.261 18.6143C194.51 18.7243 194.86 18.7793 195.308 18.7793C195.757 18.7793 196.106 18.7243 196.355 18.6143C196.605 18.5042 196.73 18.3477 196.73 18.1445C196.73 17.9583 196.605 17.8166 196.355 17.7192C196.11 17.6177 195.761 17.5648 195.308 17.5605C194.855 17.5648 194.506 17.6177 194.261 17.7192C194.015 17.8166 193.895 17.9583 193.899 18.1445ZM213.526 21.3057H203.065V20.1758H205.502V18.7222C205.062 18.536 204.726 18.3011 204.493 18.0176C204.26 17.7298 204.144 17.3997 204.144 17.0273C204.144 16.5745 204.311 16.1852 204.646 15.8594C204.984 15.5293 205.464 15.2775 206.086 15.104C206.708 14.9305 207.441 14.8438 208.283 14.8438C209.125 14.8438 209.855 14.9305 210.473 15.104C211.095 15.2775 211.575 15.5293 211.914 15.8594C212.252 16.1852 212.421 16.5745 212.421 17.0273C212.417 17.3997 212.297 17.7298 212.06 18.0176C211.827 18.3053 211.49 18.5402 211.05 18.7222V20.1758H213.526V21.3057ZM204.284 24.0479C204.284 23.612 204.442 23.2417 204.76 22.937C205.077 22.6281 205.534 22.3953 206.131 22.2388C206.732 22.078 207.449 21.9997 208.283 22.0039C209.104 21.9997 209.81 22.078 210.403 22.2388C211 22.3953 211.457 22.6281 211.774 22.937C212.096 23.2417 212.256 23.612 212.256 24.0479C212.256 24.488 212.098 24.8604 211.78 25.165C211.463 25.474 211.006 25.7067 210.409 25.8633C209.817 26.0241 209.108 26.1045 208.283 26.1045C207.445 26.1045 206.728 26.0241 206.131 25.8633C205.534 25.7067 205.077 25.474 204.76 25.165C204.442 24.8604 204.284 24.488 204.284 24.0479ZM205.617 17.0273C205.612 17.3701 205.837 17.6346 206.29 17.8208C206.747 18.0028 207.396 18.0938 208.238 18.0938C209.11 18.0938 209.781 18.0028 210.25 17.8208C210.724 17.6388 210.961 17.3743 210.961 17.0273C210.961 16.6803 210.729 16.4116 210.263 16.2212C209.802 16.0308 209.154 15.9355 208.321 15.9355C207.453 15.9355 206.785 16.0308 206.315 16.2212C205.845 16.4074 205.612 16.6761 205.617 17.0273ZM205.718 24.0479C205.714 24.3695 205.928 24.6149 206.359 24.7842C206.791 24.9535 207.417 25.0381 208.238 25.0381C209.08 25.0381 209.724 24.9556 210.168 24.7905C210.617 24.6213 210.843 24.3737 210.847 24.0479C210.843 23.7305 210.621 23.4893 210.181 23.3242C209.741 23.1592 209.108 23.0745 208.283 23.0703C207.445 23.0745 206.806 23.1592 206.366 23.3242C205.93 23.4893 205.714 23.7305 205.718 24.0479ZM209.641 20.1758V19.084C209.214 19.1432 208.761 19.1729 208.283 19.1729C207.805 19.1729 207.352 19.1432 206.924 19.084V20.1758H209.641ZM223.289 19.2236H225.053V20.3916H223.289V26.1299H221.892V14.6533H223.289V19.2236ZM214.237 16.418H216.954V14.8184H218.363V16.418H221.003V17.5479H214.237V16.418ZM214.77 21.001C214.766 20.4805 214.889 20.015 215.138 19.6045C215.388 19.1898 215.733 18.8682 216.173 18.6396C216.613 18.4111 217.11 18.2969 217.665 18.2969C218.21 18.2969 218.701 18.4111 219.137 18.6396C219.573 18.8682 219.916 19.1898 220.166 19.6045C220.419 20.015 220.546 20.4805 220.546 21.001C220.546 21.5215 220.419 21.987 220.166 22.3975C219.916 22.8037 219.573 23.1211 219.137 23.3496C218.701 23.5781 218.21 23.6924 217.665 23.6924C217.11 23.6924 216.613 23.5781 216.173 23.3496C215.733 23.1211 215.388 22.8037 215.138 22.3975C214.889 21.987 214.766 21.5215 214.77 21.001ZM216.116 21.001C216.116 21.3057 216.181 21.5744 216.312 21.8071C216.444 22.0356 216.626 22.2134 216.858 22.3403C217.095 22.4631 217.364 22.5244 217.665 22.5244C217.957 22.5244 218.219 22.4631 218.452 22.3403C218.684 22.2176 218.866 22.0399 218.998 21.8071C219.129 21.5744 219.196 21.3057 219.201 21.001C219.196 20.6963 219.127 20.4276 218.991 20.1948C218.86 19.9578 218.678 19.7759 218.445 19.6489C218.217 19.5177 217.957 19.4521 217.665 19.4521C217.364 19.4521 217.095 19.5177 216.858 19.6489C216.626 19.7759 216.444 19.9578 216.312 20.1948C216.181 20.4276 216.116 20.6963 216.116 21.001ZM229.116 17.6621C229.12 18.3053 229.198 18.9295 229.351 19.5347C229.507 20.1398 229.748 20.6942 230.074 21.1978C230.4 21.7013 230.813 22.1097 231.312 22.4229L230.538 23.502C230.038 23.2015 229.615 22.7995 229.268 22.2959C228.921 21.7923 228.648 21.2147 228.449 20.563C228.238 21.2782 227.944 21.9108 227.567 22.4609C227.194 23.0111 226.746 23.4469 226.221 23.7686L225.345 22.7148C225.883 22.389 226.331 21.9637 226.691 21.439C227.051 20.91 227.317 20.3281 227.491 19.6934C227.664 19.0544 227.753 18.3984 227.757 17.7256V15.6689H229.116V17.6621ZM230.081 18.6016H231.718V14.8564H233.051V25.5713H231.718V19.7695H230.081V18.6016ZM234.08 14.6533H235.438V26.1299H234.08V14.6533ZM247.257 24.7334H236.771V23.5781H239.196V20.6772C238.73 20.4106 238.368 20.0742 238.11 19.668C237.856 19.2617 237.732 18.8089 237.736 18.3096C237.736 17.7087 237.916 17.1797 238.275 16.7227C238.639 16.2614 239.145 15.9059 239.792 15.6562C240.44 15.4023 241.172 15.2754 241.989 15.2754C242.81 15.2754 243.544 15.4023 244.191 15.6562C244.843 15.9059 245.351 16.2614 245.715 16.7227C246.083 17.1797 246.267 17.7087 246.267 18.3096C246.271 18.8005 246.149 19.2448 245.899 19.6426C245.649 20.0404 245.298 20.3747 244.845 20.6455V23.5781H247.257V24.7334ZM239.12 18.3096C239.12 18.6947 239.238 19.0332 239.475 19.3252C239.716 19.613 240.053 19.8351 240.484 19.9917C240.92 20.1483 241.422 20.2266 241.989 20.2266C242.556 20.2266 243.057 20.1483 243.493 19.9917C243.933 19.8351 244.274 19.613 244.515 19.3252C244.761 19.0332 244.883 18.6947 244.883 18.3096C244.883 17.9202 244.761 17.5796 244.515 17.2876C244.274 16.9956 243.933 16.7734 243.493 16.6211C243.057 16.4688 242.556 16.3926 241.989 16.3926C241.417 16.3926 240.914 16.4688 240.478 16.6211C240.046 16.7734 239.712 16.9956 239.475 17.2876C239.238 17.5754 239.12 17.916 239.12 18.3096ZM243.411 23.5781V21.1851C242.962 21.2824 242.488 21.3311 241.989 21.3311C241.511 21.3311 241.045 21.2845 240.592 21.1914V23.5781H243.411ZM250.228 22.2959H248.793L248.641 15.8086H250.368L250.228 22.2959ZM248.527 24.1113C248.527 23.9378 248.571 23.777 248.66 23.6289C248.749 23.4766 248.87 23.356 249.022 23.2671C249.174 23.1782 249.339 23.1338 249.517 23.1338C249.691 23.1338 249.851 23.1782 250 23.2671C250.152 23.356 250.272 23.4766 250.361 23.6289C250.45 23.777 250.495 23.9378 250.495 24.1113C250.495 24.2891 250.45 24.4541 250.361 24.6064C250.272 24.7588 250.152 24.8794 250 24.9683C249.851 25.0571 249.691 25.1016 249.517 25.1016C249.339 25.1016 249.174 25.0571 249.022 24.9683C248.87 24.8794 248.749 24.7588 248.66 24.6064C248.571 24.4541 248.527 24.2891 248.527 24.1113Z" fill="#576DFC"/>
<path d="M162.747 47.1399C163.146 47.5952 163.854 47.5952 164.253 47.1399L170.5 40H156.5L162.747 47.1399Z" fill="#E4E8FF"/>
<path d="M0 72C0 60.9543 8.9543 52 20 52H307C318.046 52 327 60.9543 327 72V200C327 211.046 318.046 220 307 220H20C8.9543 220 0 211.046 0 200V72Z" fill="#F6F7FB"/>
<g filter="url(#filter0_b_1_39379)">
<path d="M53.3342 84.2419C53.9349 85.2823 53.9349 86.6792 53.9349 89.4729C53.9349 92.2666 53.9349 93.6635 53.3342 94.7039C52.9407 95.3855 52.3747 95.9516 51.6931 96.3451C50.6526 96.9458 49.2558 96.9458 46.4621 96.9458H43.4729C42.6309 96.9458 41.9158 96.9458 41.2991 96.9293L38.2484 98.7402C37.9339 98.9269 37.5402 98.6788 37.5729 98.3146L37.7773 96.0369C37.3016 95.6767 36.9009 95.2239 36.6007 94.7039C36 93.6635 36 92.2666 36 89.4729C36 86.6792 36 85.2823 36.6007 84.2419C36.9942 83.5603 37.5603 82.9942 38.2419 82.6007C39.2823 82 40.6792 82 43.4729 82L46.4621 82C49.2558 82 50.6526 82 51.6931 82.6007C52.3747 82.9942 52.9407 83.5603 53.3342 84.2419Z" fill="#576DFC"/>
</g>
<g filter="url(#filter1_b_1_39379)">
<path d="M42.6652 88.7851C42.0645 89.8255 42.0645 91.2224 42.0645 94.0161C42.0645 96.8098 42.0645 98.2067 42.6652 99.2471C43.0587 99.9287 43.6247 100.495 44.3063 100.888C45.3468 101.489 46.7436 101.489 49.5373 101.489H52.5265C53.4055 101.489 54.1463 101.489 54.7811 101.47L57.7463 103.27C58.0607 103.461 58.4584 103.213 58.4256 102.847L58.2221 100.58C58.6979 100.22 59.0985 99.7671 59.3987 99.2471C59.9994 98.2067 59.9994 96.8098 59.9994 94.0161C59.9994 91.2224 59.9994 89.8255 59.3987 88.7851C59.0052 88.1035 58.4391 87.5375 57.7575 87.1439C56.7171 86.5432 55.3202 86.5432 52.5265 86.5432L49.5374 86.5432C46.7436 86.5432 45.3468 86.5432 44.3063 87.1439C43.6247 87.5374 43.0587 88.1035 42.6652 88.7851Z" fill="#A1AEFF"/>
</g>
<g filter="url(#filter2_b_1_39379)">
<rect x="55.6875" y="91.0337" width="1.52368" height="9.14208" rx="0.76184" transform="rotate(90 55.6875 91.0337)" fill="white"/>
</g>
<g filter="url(#filter3_b_1_39379)">
<rect x="53.5527" y="95.5188" width="1.68174" height="7.00725" rx="0.84087" transform="rotate(90 53.5527 95.5188)" fill="white"/>
</g>
<path d="M88.4219 99.2656H87.2188V92.0781H85.2188V98.5469H84.0625V85.6875H85.2188V91.0312H87.2188V85.375H88.4219V99.2656ZM77.2656 87.0781H78.4844V94.5781C80.0781 94.5677 81.5938 94.4167 83.0312 94.125L83.1875 95.2188C82.2708 95.3854 81.4036 95.5026 80.5859 95.5703C79.7734 95.638 78.9531 95.6719 78.125 95.6719H77.2656V87.0781ZM99.1094 89.6406C99.1042 90.3698 99.2604 91.1094 99.5781 91.8594C99.901 92.6094 100.339 93.2891 100.891 93.8984C101.443 94.5026 102.052 94.9635 102.719 95.2812L102.016 96.25C101.24 95.8698 100.539 95.2969 99.9141 94.5312C99.2891 93.7656 98.8203 92.9089 98.5078 91.9609C98.2943 92.6328 98.0052 93.2734 97.6406 93.8828C97.276 94.4922 96.8594 95.0312 96.3906 95.5C95.9271 95.9635 95.4375 96.3281 94.9219 96.5938L94.1719 95.625C94.8333 95.3021 95.4479 94.8177 96.0156 94.1719C96.5885 93.526 97.0443 92.8021 97.3828 92C97.7266 91.1979 97.901 90.4115 97.9062 89.6406V87.8281H94.6719V86.8125H102.234V87.8281H99.1094V89.6406ZM103.938 85.375H105.156V91H107.484V92.0469H105.156V99.2656H103.938V85.375ZM119.719 99.2656H118.484V85.375H119.719V99.2656ZM108.406 95.6562C110.26 94.776 111.68 93.6823 112.664 92.375C113.654 91.0677 114.219 89.5729 114.359 87.8906H109.047V86.8906H115.609C115.599 88.9844 115.068 90.8672 114.016 92.5391C112.964 94.2109 111.318 95.5833 109.078 96.6562L108.406 95.6562ZM134.781 97.4531H122.062V96.4375H127.75V93.0312H128.953V96.4375H134.781V97.4531ZM122.562 92.1719C123.385 92.0312 124.193 91.7266 124.984 91.2578C125.781 90.7891 126.432 90.2135 126.938 89.5312C127.448 88.849 127.703 88.1354 127.703 87.3906V86.3281H128.984V87.3906C128.984 88.1302 129.24 88.8411 129.75 89.5234C130.266 90.2057 130.924 90.7839 131.727 91.2578C132.529 91.7266 133.339 92.0312 134.156 92.1719L133.609 93.1875C132.891 93.0365 132.185 92.7839 131.492 92.4297C130.799 92.0703 130.177 91.625 129.625 91.0938C129.073 90.5573 128.651 89.9661 128.359 89.3203C128.062 89.9661 127.638 90.5547 127.086 91.0859C126.539 91.6172 125.919 92.0651 125.227 92.4297C124.534 92.7891 123.828 93.0417 123.109 93.1875L122.562 92.1719ZM147.75 99.2656H146.547V92H144.625V98.5781H143.453V85.75H144.625V90.9844H146.547V85.375H147.75V99.2656ZM135.906 95.4219C137.453 94.5573 138.607 93.5182 139.367 92.3047C140.128 91.0859 140.562 89.7188 140.672 88.2031H136.438V87.1875H141.875C141.865 89.1146 141.456 90.8516 140.648 92.3984C139.846 93.9401 138.505 95.2344 136.625 96.2812L135.906 95.4219ZM154.609 89.1094C154.609 89.9323 154.768 90.7448 155.086 91.5469C155.409 92.349 155.846 93.0625 156.398 93.6875C156.956 94.3073 157.568 94.7708 158.234 95.0781L157.5 96.0781C156.708 95.6719 156.003 95.0781 155.383 94.2969C154.768 93.5104 154.307 92.6224 154 91.6328C153.688 92.6797 153.221 93.6198 152.602 94.4531C151.987 95.2865 151.286 95.9115 150.5 96.3281L149.703 95.3438C150.375 95.0156 150.99 94.5234 151.547 93.8672C152.104 93.2057 152.544 92.4583 152.867 91.625C153.195 90.7865 153.359 89.9479 153.359 89.1094V86.5781H154.609V89.1094ZM156.719 90.125H160.016V85.375H161.234V99.2969H160.016V91.125H156.719V90.125ZM179.047 99.2656H177.812V85.375H179.047V99.2656ZM167.734 95.6562C169.589 94.776 171.008 93.6823 171.992 92.375C172.982 91.0677 173.547 89.5729 173.688 87.8906H168.375V86.8906H174.938C174.927 88.9844 174.396 90.8672 173.344 92.5391C172.292 94.2109 170.646 95.5833 168.406 96.6562L167.734 95.6562ZM192.25 89.5938H194.344V90.625H192.25V95.5938H191.031V85.3906H192.25V89.5938ZM181.984 86.3906H183.188V88.7344H187.234V86.3906H188.453V93.25H181.984V86.3906ZM187.234 92.25V89.7031H183.188V92.25H187.234ZM183.562 94.5938H184.766V97.9375H192.891V98.9688H183.562V94.5938ZM206.109 86.375V87.4531H208.766V85.2344H210.75V95.5781H208.766V92.0938H206.109V93.2969H199.359V86.375H206.109ZM201.281 99.1875V94.5938H203.297V97.5938H211.047V99.1875H201.281ZM201.344 91.75H204.156V87.9531H201.344V91.75ZM206.109 90.5156H208.766V89.0625H206.109V90.5156ZM224.578 85.2188V93H222.594V90.0312H220.344V88.4062H222.594V85.2188H224.578ZM212.516 91.6875C214.758 90.9375 215.828 89.2188 215.93 87.4844H213.078V85.8594H220.797V87.4844H217.977C218.062 89.0703 219.086 90.7109 221.234 91.4219L220.25 92.9531C218.68 92.4375 217.594 91.4141 216.977 90.1406C216.344 91.5625 215.211 92.7031 213.531 93.25L212.516 91.6875ZM215.094 99.2812V93.5469H217.062V94.8906H222.594V93.5469H224.578V99.2812H215.094ZM217.062 97.6875H222.594V96.4219H217.062V97.6875ZM238.312 85.2188V92.5156H236.328V85.2188H238.312ZM226.484 91.0938C228.695 90.4844 229.789 88.9922 229.922 87.4688H227.016V85.875H234.828V87.4688H231.984C232.117 88.8828 233.195 90.2734 235.375 90.8438L234.422 92.375C232.773 91.9219 231.633 90.9688 230.992 89.75C230.344 91.1016 229.141 92.1719 227.391 92.6719L226.484 91.0938ZM228.781 94.5938V93.0781H238.328V96.875H230.766V97.8125H238.719V99.3438H228.812V95.4531H236.344V94.5938H228.781ZM253.25 92.25V93.8281H247.891V96.2812H245.922V93.8281H240.234V92.25H253.25ZM241.766 99.1875V95.0469H243.75V97.5938H251.812V99.1875H241.766ZM241.859 91.0781V85.8438H251.578V91.0781H241.859ZM243.812 89.5312H249.625V87.3906H243.812V89.5312ZM270.094 85.2188V99.4375H268.188V85.2188H270.094ZM257.891 91.375C257.891 88.1953 259.102 86.2266 260.984 86.2344C262.172 86.2266 263.109 87.0078 263.633 88.375H265.312V85.4219H267.188V98.7812H265.312V94.375H263.641C263.109 95.7578 262.18 96.5469 260.984 96.5469C259.102 96.5469 257.891 94.5703 257.891 91.375ZM259.703 91.375C259.688 93.5625 260.148 94.6406 260.984 94.625C261.805 94.6406 262.305 93.5625 262.312 91.375C262.305 89.1953 261.805 88.1094 260.984 88.1094C260.148 88.1094 259.688 89.1953 259.703 91.375ZM264.031 89.9688C264.094 90.4062 264.125 90.875 264.125 91.375C264.125 91.8672 264.094 92.3359 264.039 92.7656H265.312V89.9688H264.031ZM284.562 92.2656V93.8594H271.594V92.2656H284.562ZM272.141 90.2344C275.227 90.0391 276.672 89.1172 276.914 88.0938H272.844V86.5469H277.078V85.2656H279.047V86.5469H283.312V88.0938H279.203C279.438 89.1172 280.875 90.0391 283.984 90.2344L283.375 91.75C280.758 91.5547 278.953 90.7969 278.055 89.6484C277.164 90.7969 275.352 91.5547 272.75 91.75L272.141 90.2344ZM273.031 96.5V94.9375H282.984V99.4375H281V96.5H273.031Z" fill="#3E404B"/>
<rect width="8.98098" height="10.4683" rx="2.84637" transform="matrix(0.738434 0.674326 -0.682681 0.730716 52.9688 124)" fill="#576DFC"/>
<g filter="url(#filter4_b_1_39379)">
<path d="M48.8862 128.371C49.45 127.767 50.402 127.73 51.0124 128.287L55.4336 132.325C56.0441 132.882 56.0819 133.823 55.518 134.427L46.8952 143.656C46.5251 144.052 46.0531 144.342 45.5296 144.493L42.9615 145.236L38.9824 141.602L39.5278 139.012C39.639 138.484 39.8932 137.996 40.2633 137.6L48.8862 128.371Z" fill="#B9C2FF"/>
</g>
<g filter="url(#filter5_b_1_39379)">
<rect width="5.98732" height="1.49548" rx="0.747739" transform="matrix(-0.738434 -0.674326 -0.682681 0.730716 54.4121 133.418)" fill="white"/>
</g>
<path d="M42.9621 145.237L38.9824 141.603L38.1648 145.485C38.0489 146.035 38.5675 146.508 39.1127 146.351L42.9621 145.237Z" fill="#576DFC"/>
<path d="M84.0156 130.828C84.0104 132.26 83.8073 133.589 83.4062 134.812C83.0104 136.036 82.3333 137.177 81.375 138.234C80.4219 139.292 79.1406 140.214 77.5312 141L76.8438 140.016C78.1198 139.406 79.1745 138.706 80.0078 137.914C80.8464 137.122 81.4896 136.245 81.9375 135.281L77.1094 135.75L76.9062 134.656L82.3281 134.297C82.5729 133.547 82.7266 132.729 82.7891 131.844H77.6094V130.828H84.0156ZM86.8125 129.375H88.0469V143.266H86.8125V129.375ZM101.891 143.281H100.641V139.828H97.4375V138.891H100.641V129.391H101.891V143.281ZM90.3281 136.703C92.25 136.698 93.9323 136.669 95.375 136.617C96.8229 136.565 98.2188 136.443 99.5625 136.25L99.6406 137.172C98.4531 137.375 97.0573 137.526 95.4531 137.625V142.844H94.2188V137.688C93.0365 137.729 91.7969 137.75 90.5 137.75L90.3281 136.703ZM91.3906 132.812C91.3906 132.276 91.5365 131.802 91.8281 131.391C92.125 130.974 92.5391 130.651 93.0703 130.422C93.6068 130.193 94.2188 130.078 94.9062 130.078C95.5885 130.078 96.1953 130.193 96.7266 130.422C97.2578 130.651 97.6693 130.974 97.9609 131.391C98.2578 131.802 98.4062 132.276 98.4062 132.812C98.4062 133.354 98.2578 133.831 97.9609 134.242C97.6693 134.648 97.2578 134.966 96.7266 135.195C96.1953 135.419 95.5885 135.531 94.9062 135.531C94.2135 135.531 93.6016 135.419 93.0703 135.195C92.5391 134.966 92.125 134.648 91.8281 134.242C91.5365 133.831 91.3906 133.354 91.3906 132.812ZM92.5469 132.812C92.5469 133.161 92.6458 133.471 92.8438 133.742C93.0417 134.008 93.3177 134.214 93.6719 134.359C94.0312 134.505 94.4427 134.578 94.9062 134.578C95.3594 134.578 95.763 134.505 96.1172 134.359C96.4714 134.214 96.7474 134.008 96.9453 133.742C97.1484 133.471 97.25 133.161 97.25 132.812C97.25 132.469 97.1484 132.164 96.9453 131.898C96.7474 131.628 96.4714 131.417 96.1172 131.266C95.763 131.109 95.3594 131.031 94.9062 131.031C94.4427 131.031 94.0312 131.107 93.6719 131.258C93.3177 131.409 93.0417 131.62 92.8438 131.891C92.6458 132.161 92.5469 132.469 92.5469 132.812ZM115.438 137.078H105.844V130.672H115.297V131.688H107.062V136.062H115.438V137.078ZM104.219 140.344H116.938V141.375H104.219V140.344ZM133.312 136.734H129V140.438H134.781V141.453H122.062V140.438H127.781V136.734H123.625V130.562H124.875V135.703H133.312V136.734ZM147.141 137.891H137.531V130.578H146.984V131.609H138.781V133.672H146.688V134.656H138.781V136.891H147.141V137.891ZM135.891 140.438H148.609V141.453H135.891V140.438ZM162.438 141.547H149.719V140.516H155.438V137.891H151.312V133.609H159.625V131.422H151.281V130.406H160.828V134.609H152.531V136.875H161.156V137.891H156.641V140.516H162.438V141.547ZM180.656 134.609V136.234H178.641V143.406H176.641V129.219H178.641V134.609H180.656ZM167.875 139.938V130.578H169.859V138.289C171.68 138.258 173.633 138.086 175.688 137.672L175.891 139.328C173.508 139.812 171.203 139.938 169.109 139.938H167.875ZM188.5 130.391V137.219H181.672V130.391H188.5ZM183.312 143.188V138.578H185.297V141.594H193.047V143.188H183.312ZM183.641 135.656H186.531V131.984H183.641V135.656ZM190.531 139.594V129.219H192.531V133.312H194.453V134.953H192.531V139.594H190.531ZM199.688 130.172C201.945 130.164 203.617 131.617 203.625 133.656C203.617 135.703 201.945 137.148 199.688 137.156C197.445 137.148 195.727 135.703 195.734 133.656C195.727 131.617 197.445 130.164 199.688 130.172ZM195.141 138.938C197.68 138.945 201.195 138.914 204.234 138.484L204.391 139.922C201.234 140.539 197.859 140.562 195.375 140.562L195.141 138.938ZM197.719 133.656C197.711 134.781 198.562 135.43 199.688 135.422C200.82 135.43 201.68 134.781 201.688 133.656C201.68 132.547 200.82 131.891 199.688 131.891C198.562 131.891 197.711 132.547 197.719 133.656ZM205.047 143.469V129.219H207.031V143.469H205.047ZM223.875 129.219V132.297H225.797V133.938H223.875V136.828H221.875V129.219H223.875ZM213.141 136.5V130.078H219.484V131.672H215.141V134.891C217.719 134.867 219.133 134.789 220.719 134.438L220.922 136.047C219.133 136.422 217.492 136.492 214.344 136.5H213.141ZM214.531 143.266V137.516H216.531V138.828H221.875V137.516H223.875V143.266H214.531ZM216.531 141.672H221.875V140.391H216.531V141.672ZM238.406 129.234V139.719H236.422V136.25H233.797V137.469H227.031V130.156H229.031V132.344H231.828V130.156H233.797V131.609H236.422V129.234H238.406ZM228.938 143.188V138.672H230.953V141.594H238.703V143.188H228.938ZM229.031 135.906H231.828V133.859H229.031V135.906ZM233.797 134.656H236.422V133.219H233.797V134.656ZM255.922 129.219V137.656H253.938V134.297H251.719V132.688H253.938V129.219H255.922ZM243.844 136.094C246.172 135.312 247.234 133.453 247.281 131.672H244.422V130.078H252.141V131.672H249.312C249.352 133.328 250.367 135 252.578 135.734L251.594 137.297C250.031 136.789 248.945 135.758 248.328 134.484C247.703 135.93 246.562 137.094 244.875 137.672L243.844 136.094ZM246.172 140.719C246.172 138.992 248.031 137.977 251.062 137.969C254.102 137.977 255.961 138.992 255.969 140.719C255.961 142.445 254.102 143.453 251.062 143.453C248.031 143.453 246.172 142.445 246.172 140.719ZM248.156 140.719C248.156 141.531 249.18 141.938 251.062 141.938C252.953 141.938 253.977 141.531 253.984 140.719C253.977 139.898 252.953 139.492 251.062 139.5C249.18 139.492 248.156 139.898 248.156 140.719ZM269.688 129.219V143.469H267.703V129.219H269.688ZM258.516 132.016V130.406H265.281V135.891H260.594V138.5C262.766 138.484 264.602 138.375 266.688 138.031L266.859 139.641C264.523 140.055 262.406 140.141 259.812 140.141H258.531V134.312H263.25V132.016H258.516Z" fill="#3E404B"/>
<path d="M36.002 172.967C36.002 172.154 36.002 171.747 36.1628 171.437C36.2984 171.176 36.5112 170.963 36.7721 170.828C37.0818 170.667 37.4887 170.667 38.3024 170.667H44.7667C45.1128 170.667 45.2859 170.667 45.4491 170.706C45.5879 170.739 45.7209 170.793 45.8438 170.865C45.9884 170.95 46.113 171.07 46.3624 171.31L46.5838 171.524C46.8331 171.764 46.9578 171.884 47.1023 171.969C47.2252 172.041 47.3583 172.095 47.497 172.128C47.6602 172.167 47.8333 172.167 48.1795 172.167H54.7015C55.5152 172.167 55.922 172.167 56.2317 172.328C56.4927 172.463 56.7055 172.676 56.841 172.937C57.0019 173.247 57.0019 173.654 57.0019 174.467V189.017C57.0019 189.424 57.0019 189.627 56.9215 189.782C56.8537 189.912 56.7473 190.019 56.6168 190.087C56.462 190.167 56.2585 190.167 55.8517 190.167H38.0723C37.34 190.167 36.9738 190.167 36.6951 190.022C36.4602 189.9 36.2687 189.709 36.1467 189.474C36.002 189.195 36.002 188.829 36.002 188.097V172.967Z" fill="#576DFC"/>
<g filter="url(#filter6_b_1_39379)">
<path d="M41.5835 177.359C41.7852 176.665 41.8861 176.318 42.1529 176.117C42.4197 175.917 42.7815 175.917 43.5051 175.917H57.5366C58.676 175.917 59.2457 175.917 59.5459 176.287C59.8461 176.657 59.7287 177.214 59.494 178.329L57.3363 188.579C57.1761 189.34 57.096 189.72 56.8205 189.943C56.5451 190.167 56.1563 190.167 55.3788 190.167H37.502C38.2778 189.323 38.2778 188.479 39.0537 185.948C39.6162 184.113 40.913 179.665 41.5835 177.359Z" fill="#B9C2FF"/>
</g>
<path d="M39.002 172.916C39.002 172.502 39.3377 172.166 39.752 172.166H42.7519C43.1662 172.166 43.5019 172.502 43.5019 172.916C43.5019 173.33 43.1662 173.666 42.7519 173.666H39.752C39.3377 173.666 39.002 173.33 39.002 172.916Z" fill="#E4E8FF"/>
<path d="M88.4219 187.266H87.2188V180.078H85.2188V186.547H84.0625V173.688H85.2188V179.031H87.2188V173.375H88.4219V187.266ZM77.2656 175.078H78.4844V182.578C80.0781 182.568 81.5938 182.417 83.0312 182.125L83.1875 183.219C82.2708 183.385 81.4036 183.503 80.5859 183.57C79.7734 183.638 78.9531 183.672 78.125 183.672H77.2656V175.078ZM101.438 175.828H104.688V173.391H105.922V183.531H104.688V179.828H101.438V181.078H95.0625V174.594H101.438V175.828ZM100.234 180.094V175.609H96.2812V180.094H100.234ZM96.9375 182.625H98.1719V185.938H106.234V186.969H96.9375V182.625ZM104.688 178.812V176.859H101.438V178.812H104.688ZM119.734 180.922H118.516V177.781H115.703V176.75H118.516V173.375H119.734V180.922ZM108.297 180.188C108.974 179.943 109.581 179.589 110.117 179.125C110.654 178.656 111.073 178.12 111.375 177.516C111.677 176.911 111.828 176.286 111.828 175.641V175.234H108.688V174.219H116.172V175.234H113.062V175.641C113.062 176.229 113.206 176.805 113.492 177.367C113.784 177.93 114.188 178.432 114.703 178.875C115.224 179.312 115.818 179.646 116.484 179.875L115.844 180.828C115.068 180.547 114.385 180.13 113.797 179.578C113.214 179.026 112.771 178.391 112.469 177.672C112.172 178.474 111.714 179.18 111.094 179.789C110.479 180.398 109.76 180.854 108.938 181.156L108.297 180.188ZM110.797 181.594H112.031V183.328H118.516V181.594H119.734V187.078H110.797V181.594ZM118.516 186.078V184.312H112.031V186.078H118.516ZM133.516 180.594H132.312V173.375H133.516V180.594ZM122.266 179.641C122.953 179.411 123.565 179.081 124.102 178.648C124.643 178.211 125.065 177.708 125.367 177.141C125.674 176.568 125.828 175.969 125.828 175.344V175.188H122.578V174.172H130.266V175.188H127.062V175.344C127.062 175.938 127.214 176.503 127.516 177.039C127.823 177.576 128.247 178.047 128.789 178.453C129.331 178.854 129.948 179.156 130.641 179.359L130.031 180.312C129.208 180.052 128.484 179.659 127.859 179.133C127.24 178.602 126.776 177.982 126.469 177.273C126.167 178.049 125.698 178.729 125.062 179.312C124.432 179.891 123.693 180.323 122.844 180.609L122.266 179.641ZM124.5 181.266H133.531V184.578H125.734V186.125H134.031V187.109H124.531V183.656H132.312V182.234H124.5V181.266ZM148.594 181.5H142.938V184.344H141.719V181.5H135.875V180.484H148.594V181.5ZM137.5 182.969H138.734V185.938H147.172V186.969H137.5V182.969ZM137.531 174.062H146.938V178.891H137.531V174.062ZM145.719 177.906V175.031H138.734V177.906H145.719ZM157.422 175.641C157.417 176.542 157.391 177.406 157.344 178.234C157.297 179.062 157.188 180.036 157.016 181.156L155.781 181.047C156.052 179.391 156.188 177.771 156.188 176.188V175.922H150.359V174.922H157.422V175.641ZM149.578 183.188C150.906 183.177 151.906 183.164 152.578 183.148V178.891H153.781V183.109C155.495 183.047 157.016 182.938 158.344 182.781L158.406 183.703C156.255 184.036 153.583 184.203 150.391 184.203H149.734L149.578 183.188ZM159.219 173.375H160.438V179.188H162.688V180.25H160.438V187.266H159.219V173.375ZM178.422 176.641H180.516V177.672H178.422V180.781H177.203V173.375H178.422V176.641ZM168.219 174.297H174.375V175.312H169.438V179.281C170.896 179.281 172.076 179.25 172.977 179.188C173.878 179.12 174.776 178.995 175.672 178.812L175.828 179.828C174.88 180.016 173.932 180.143 172.984 180.211C172.042 180.279 170.812 180.312 169.297 180.312H168.219V174.297ZM169.625 181.531H170.844V183.266H177.203V181.531H178.422V187.031H169.625V181.531ZM177.203 186.016V184.25H170.844V186.016H177.203ZM192.906 183.672H191.672V179.938H188.391V181.297H182.094V174.312H183.312V176.781H187.188V174.312H188.391V175.938H191.672V173.391H192.906V183.672ZM187.188 180.281V177.75H183.312V180.281H187.188ZM183.922 182.656H185.156V185.938H193.219V186.969H183.922V182.656ZM191.672 178.922V176.969H188.391V178.922H191.672ZM202.922 174.219C205.094 174.219 206.664 176.18 206.672 179.281C206.664 182.406 205.094 184.359 202.922 184.359C200.742 184.359 199.164 182.406 199.172 179.281C199.164 176.18 200.742 174.219 202.922 174.219ZM201.094 179.281C201.094 181.398 201.836 182.555 202.922 182.547C204.031 182.555 204.758 181.398 204.766 179.281C204.758 177.172 204.031 176.016 202.922 176.016C201.836 176.016 201.094 177.172 201.094 179.281ZM208.312 187.438V173.219H210.312V178.578H212.406V180.234H210.312V187.438H208.312ZM220.344 174.578C220.328 178.969 219.266 182.617 213.953 185.281L212.859 183.781C215.234 182.602 216.648 181.281 217.453 179.703L213.25 180.094L213 178.391L218.055 178.086C218.203 177.484 218.305 176.844 218.352 176.172H213.75V174.578H220.344ZM222.141 187.406V173.219H224.141V178.672H226.156V180.312H224.141V187.406H222.141ZM238.656 173.219V187.469H236.641V173.219H238.656ZM227.172 179.281C227.164 176.18 228.75 174.219 230.938 174.219C233.078 174.219 234.672 176.18 234.672 179.281C234.672 182.406 233.078 184.359 230.938 184.359C228.75 184.359 227.164 182.406 227.172 179.281ZM229.094 179.281C229.086 181.398 229.828 182.555 230.938 182.547C232.016 182.555 232.742 181.398 232.75 179.281C232.742 177.172 232.016 176.016 230.938 176.016C229.828 176.016 229.086 177.172 229.094 179.281ZM243.266 174.078V175.953H246.25V174.078H248.234V180.828H241.297V174.078H243.266ZM242.75 184.719C242.742 182.977 244.617 181.961 247.641 181.953C250.648 181.961 252.516 182.977 252.531 184.719C252.516 186.445 250.648 187.445 247.641 187.438C244.617 187.445 242.742 186.445 242.75 184.719ZM243.266 179.25H246.25V177.484H243.266V179.25ZM244.75 184.719C244.75 185.492 245.727 185.922 247.641 185.922C249.539 185.922 250.555 185.492 250.562 184.719C250.555 183.883 249.539 183.477 247.641 183.484C245.727 183.477 244.75 183.883 244.75 184.719ZM250.484 181.734V173.234H252.484V181.734H250.484Z" fill="#3E404B"/>
<defs>
<filter id="filter0_b_1_39379" x="33.1561" y="79.1561" width="23.6233" height="22.4917" filterUnits="userSpaceOnUse" color-interpolation-filters="sRGB">
<feFlood flood-opacity="0" result="BackgroundImageFix"/>
<feGaussianBlur in="BackgroundImageFix" stdDeviation="1.42194"/>
<feComposite in2="SourceAlpha" operator="in" result="effect1_backgroundBlur_1_39379"/>
<feBlend mode="normal" in="SourceGraphic" in2="effect1_backgroundBlur_1_39379" result="shape"/>
</filter>
<filter id="filter1_b_1_39379" x="39.2206" y="83.6993" width="23.6233" height="22.481" filterUnits="userSpaceOnUse" color-interpolation-filters="sRGB">
<feFlood flood-opacity="0" result="BackgroundImageFix"/>
<feGaussianBlur in="BackgroundImageFix" stdDeviation="1.42194"/>
<feComposite in2="SourceAlpha" operator="in" result="effect1_backgroundBlur_1_39379"/>
<feBlend mode="normal" in="SourceGraphic" in2="effect1_backgroundBlur_1_39379" result="shape"/>
</filter>
<filter id="filter2_b_1_39379" x="43.6457" y="88.1344" width="14.9411" height="7.32217" filterUnits="userSpaceOnUse" color-interpolation-filters="sRGB">
<feFlood flood-opacity="0" result="BackgroundImageFix"/>
<feGaussianBlur in="BackgroundImageFix" stdDeviation="1.44962"/>
<feComposite in2="SourceAlpha" operator="in" result="effect1_backgroundBlur_1_39379"/>
<feBlend mode="normal" in="SourceGraphic" in2="effect1_backgroundBlur_1_39379" result="shape"/>
</filter>
<filter id="filter3_b_1_39379" x="43.6457" y="92.6196" width="12.8063" height="7.48013" filterUnits="userSpaceOnUse" color-interpolation-filters="sRGB">
<feFlood flood-opacity="0" result="BackgroundImageFix"/>
<feGaussianBlur in="BackgroundImageFix" stdDeviation="1.44962"/>
<feComposite in2="SourceAlpha" operator="in" result="effect1_backgroundBlur_1_39379"/>
<feBlend mode="normal" in="SourceGraphic" in2="effect1_backgroundBlur_1_39379" result="shape"/>
</filter>
<filter id="filter4_b_1_39379" x="36.1361" y="125.046" width="22.6283" height="23.0362" filterUnits="userSpaceOnUse" color-interpolation-filters="sRGB">
<feFlood flood-opacity="0" result="BackgroundImageFix"/>
<feGaussianBlur in="BackgroundImageFix" stdDeviation="1.42318"/>
<feComposite in2="SourceAlpha" operator="in" result="effect1_backgroundBlur_1_39379"/>
<feBlend mode="normal" in="SourceGraphic" in2="effect1_backgroundBlur_1_39379" result="shape"/>
</filter>
<filter id="filter5_b_1_39379" x="43.5885" y="123.995" width="16.2058" height="15.9013" filterUnits="userSpaceOnUse" color-interpolation-filters="sRGB">
<feFlood flood-opacity="0" result="BackgroundImageFix"/>
<feGaussianBlur in="BackgroundImageFix" stdDeviation="2.84637"/>
<feComposite in2="SourceAlpha" operator="in" result="effect1_backgroundBlur_1_39379"/>
<feBlend mode="normal" in="SourceGraphic" in2="effect1_backgroundBlur_1_39379" result="shape"/>
</filter>
<filter id="filter6_b_1_39379" x="34.6443" y="173.059" width="27.938" height="19.9653" filterUnits="userSpaceOnUse" color-interpolation-filters="sRGB">
<feFlood flood-opacity="0" result="BackgroundImageFix"/>
<feGaussianBlur in="BackgroundImageFix" stdDeviation="1.42883"/>
<feComposite in2="SourceAlpha" operator="in" result="effect1_backgroundBlur_1_39379"/>
<feBlend mode="normal" in="SourceGraphic" in2="effect1_backgroundBlur_1_39379" result="shape"/>
</filter>
</defs>
</svg>
