<svg width="255" height="180" viewBox="0 0 255 180" fill="none" xmlns="http://www.w3.org/2000/svg">
<g clip-path="url(#clip0_1_39344)">
<g filter="url(#filter0_d_1_39344)">
<rect x="33" y="26" width="189" height="123" rx="10" fill="white"/>
</g>
<path d="M33 36C33 30.4772 37.4772 26 43 26H212C217.523 26 222 30.4772 222 36V43H33V36Z" fill="#576DFC"/>
<circle cx="47.5" cy="34.5" r="2.5" fill="white"/>
<circle cx="56.5" cy="34.5" r="2.5" fill="white"/>
<circle cx="65.5" cy="34.5" r="2.5" fill="white"/>
<rect x="45" y="53" width="165" height="86" rx="4" fill="#E4E8FF"/>
<path d="M85.7262 95.099C85.7262 95.349 85.7519 95.5933 85.8008 95.8294C83.5195 95.3258 81.7189 93.5991 81.1719 91.3984H89.5446C87.436 91.3984 85.7262 93.0554 85.7262 95.099Z" fill="#3D499A"/>
<path d="M97.3211 84.0025C97.2748 84.0008 97.2282 84 97.1816 84C97.135 84 97.0884 84.0008 97.0422 84.0025H87.1788C83.7663 84.0025 81 86.6837 81 89.9909C81 90.4759 81.0594 90.9471 81.1718 91.3985H97.0422C97.0884 91.4002 97.135 91.4011 97.1816 91.4011C97.2282 91.4011 97.2748 91.4002 97.3211 91.3985C99.3653 91.3274 101 89.6992 101 87.7005C101 85.7019 99.3653 84.0736 97.3211 84.0025Z" fill="#576DFC"/>
<path d="M96.2735 94.9004C96.2735 94.6504 96.2479 94.4061 96.1989 94.1699C98.4802 94.6735 100.281 96.4002 100.828 98.6009H92.4551C94.5637 98.6009 96.2735 96.9439 96.2735 94.9004Z" fill="#3D499A"/>
<path d="M84.6789 105.998C84.7252 106 84.7718 106.001 84.8184 106.001C84.865 106.001 84.9116 106 84.9578 105.998H94.8212C98.2337 105.998 101 103.317 101 100.01C101 99.5247 100.941 99.0536 100.828 98.6021H84.9578C84.9116 98.6005 84.865 98.5996 84.8184 98.5996C84.7718 98.5996 84.7252 98.6005 84.6789 98.6021C82.6347 98.673 81 100.301 81 102.3C81 104.299 82.6347 105.927 84.6789 105.998V105.998Z" fill="#576DFC"/>
<path d="M118.227 87.5711L118.227 87.5711C119.186 87.8659 120.034 88.2715 120.771 88.7882L120.83 88.8298L120.794 88.8927L119.344 91.4371L119.302 91.5103L119.231 91.4645C118.493 90.9858 117.718 90.6199 116.907 90.366C116.094 90.1121 115.373 89.9857 114.744 89.9857C114.009 89.9857 113.427 90.1267 112.99 90.4013L112.99 90.4013C112.558 90.6726 112.347 91.0466 112.347 91.5292C112.347 91.9039 112.473 92.2119 112.725 92.4596L118.227 87.5711ZM118.227 87.5711C117.267 87.2763 116.269 87.1294 115.235 87.1294C114.006 87.1294 112.905 87.336 111.934 87.75L111.934 87.75C110.963 88.1645 110.203 88.7583 109.658 89.532M118.227 87.5711L111.965 87.8232C111.006 88.2326 110.258 88.8176 109.723 89.5778M109.723 89.5778L109.658 89.532M109.723 89.5778L109.658 89.532M109.723 89.5778C109.187 90.3383 108.919 91.2084 108.919 92.1879C108.919 93.0215 109.131 93.6941 109.555 94.2058M109.658 89.532C109.112 90.3067 108.84 91.1929 108.84 92.1879C108.84 93.0352 109.055 93.7272 109.494 94.2565M109.555 94.2058L109.494 94.2565C109.494 94.2565 109.494 94.2565 109.494 94.2565M109.555 94.2058C109.979 94.7177 110.492 95.1087 111.095 95.3791L109.555 94.2058ZM109.494 94.2565C109.926 94.7778 110.449 95.1762 111.062 95.4517M109.494 94.2565L111.062 95.4517M111.062 95.4517C111.669 95.7244 112.45 96 113.405 96.278M111.062 95.4517L112.725 92.4596C112.984 92.7146 113.306 92.9215 113.692 93.0787L113.692 93.0788C114.083 93.2386 114.634 93.4276 115.348 93.6467L115.348 93.6467C116.301 93.9399 117.079 94.2265 117.679 94.5061L117.679 94.5061C118.285 94.7893 118.804 95.1953 119.235 95.7231L119.235 95.7231C119.674 96.2598 119.889 96.9549 119.889 97.8022C119.889 98.8845 119.602 99.8263 119.026 100.623L118.962 100.577M113.405 96.278C113.405 96.278 113.405 96.278 113.405 96.278L113.427 96.2017L113.405 96.278ZM113.405 96.278C114.103 96.4827 114.654 96.6682 115.059 96.8347M115.059 96.8347C115.461 96.9998 115.791 97.2071 116.05 97.4547M115.059 96.8347L115.09 96.7611L115.059 96.8347C115.059 96.8347 115.059 96.8347 115.059 96.8347ZM116.05 97.4547C116.301 97.6945 116.427 97.9984 116.427 98.3731C116.427 98.9608 116.187 99.4152 115.703 99.7438L115.703 99.7438C115.215 100.075 114.534 100.245 113.65 100.245C112.815 100.245 111.933 100.044 111.004 99.6379L111.004 99.6378C110.076 99.2326 109.259 98.6752 108.552 97.9657L108.479 97.8932L108.427 97.981L106.932 100.481L106.899 100.535L106.945 100.579C107.741 101.348 108.703 101.956 109.827 102.405M116.05 97.4547L116.105 97.3972L116.05 97.4547C116.05 97.4547 116.05 97.4547 116.05 97.4547ZM109.827 102.405C110.952 102.855 112.108 103.08 113.338 103.08C114.567 103.08 115.679 102.87 116.672 102.449C117.666 102.027 118.451 101.419 119.026 100.623L118.962 100.577M109.827 102.405C109.827 102.405 109.827 102.405 109.827 102.405L109.857 102.332M109.827 102.405L109.857 102.332M118.962 100.577C119.527 99.7947 119.81 98.8697 119.81 97.8022C119.81 96.9687 119.598 96.2927 119.174 95.7734L107 100.522C107.788 101.283 108.741 101.886 109.857 102.332M118.962 100.577C118.396 101.359 117.623 101.959 116.641 102.375C115.659 102.792 114.558 103 113.338 103C112.118 103 110.972 102.778 109.857 102.332" fill="#2B2D35" stroke="#2B2D35" stroke-width="0.159089"/>
<path d="M125.774 103.068C127.214 103.068 128.37 102.576 129.236 101.591L128.982 102.963L128.965 103.057H129.06H131.789H131.854L131.867 102.992L134.037 91.9939L134.056 91.899H133.959H131.272H131.207L131.194 91.9623L129.995 97.7111L129.995 97.7112C129.819 98.5632 129.438 99.2446 128.853 99.7601C128.268 100.276 127.594 100.533 126.828 100.533C126.152 100.533 125.636 100.36 125.27 100.025L125.27 100.025C124.903 99.691 124.717 99.233 124.717 98.6417C124.717 98.4305 124.737 98.2186 124.777 98.0069C124.777 98.0068 124.777 98.0066 124.777 98.0065L125.997 91.9943L126.016 91.899H125.919H123.211H123.146L123.133 91.9627L121.831 98.3606C121.831 98.3608 121.831 98.361 121.831 98.3611C121.748 98.7454 121.706 99.1233 121.706 99.4948C121.706 100.508 122.019 101.334 122.649 101.965H122.64L122.796 102.104C123.525 102.75 124.521 103.068 125.774 103.068Z" fill="#2B2D35" stroke="#2B2D35" stroke-width="0.159089"/>
<path d="M150.8 97.6928C150.473 97.2617 150.086 96.925 149.64 96.6837C149.194 96.4425 148.613 96.1757 147.899 95.8831M150.8 97.6928L143.659 92.7464M150.8 97.6928C151.128 98.1242 151.291 98.6617 151.291 99.3048M150.8 97.6928L151.291 99.3048M147.899 95.8831L147.93 95.8097C147.93 95.8097 147.93 95.8096 147.93 95.8096M147.899 95.8831C147.2 95.5907 146.694 95.3458 146.382 95.1484C146.069 94.951 145.913 94.6912 145.913 94.3697C145.913 94.0481 146.065 93.7774 146.37 93.558C146.675 93.3387 147.059 93.2289 147.52 93.2289C148.026 93.2289 148.606 93.3572 149.26 93.6128M147.899 95.8831L147.929 95.8095C147.929 95.8095 147.93 95.8096 147.93 95.8096M147.93 95.8096C148.645 96.1027 149.228 96.3707 149.678 96.6138C150.135 96.8608 150.53 97.2052 150.864 97.6447L150.864 97.6447C151.203 98.0924 151.371 98.6477 151.371 99.3048C151.371 100.037 151.173 100.689 150.776 101.259L150.776 101.259C150.38 101.828 149.825 102.271 149.115 102.591C148.403 102.911 147.596 103.069 146.694 103.069C145.627 103.069 144.583 102.863 143.562 102.449L143.562 102.449C142.542 102.036 141.742 101.496 141.166 100.826L141.127 100.78L141.16 100.73L142.41 98.8657L142.466 98.7824L142.535 98.8557C143.032 99.3881 143.663 99.8281 144.429 100.175L144.429 100.175C145.194 100.523 145.912 100.695 146.583 100.695C147.123 100.695 147.544 100.583 147.854 100.369L147.854 100.369C148.161 100.156 148.311 99.8766 148.311 99.5239C148.311 99.2191 148.164 98.9639 147.855 98.7564C147.535 98.5421 147.036 98.3034 146.353 98.0409L146.352 98.0404L146.352 98.0403C145.666 97.7622 145.102 97.505 144.659 97.2693C144.209 97.0297 143.825 96.6924 143.506 96.2591C143.182 95.8192 143.022 95.2752 143.022 94.6328C143.022 93.9021 143.212 93.257 143.594 92.7014M147.93 95.8096C147.231 95.5176 146.73 95.2748 146.424 95.0812C146.131 94.8958 145.993 94.6595 145.993 94.3697C145.993 94.0782 146.129 93.8299 146.417 93.6226L146.417 93.6226C146.705 93.4151 147.071 93.3085 147.52 93.3085C148.013 93.3085 148.582 93.4336 149.232 93.6869M143.594 92.7014L143.659 92.7464M143.594 92.7014C143.594 92.7014 143.594 92.7014 143.594 92.7014L143.659 92.7464M143.594 92.7014C143.974 92.1472 144.507 91.7144 145.188 91.402L145.188 91.4019C145.87 91.0894 146.655 90.9341 147.542 90.9341C148.429 90.9341 149.349 91.0931 150.257 91.4101L150.257 91.4101C151.165 91.7273 151.929 92.152 152.548 92.6862L152.604 92.7342L152.56 92.7935L151.177 94.6799L151.13 94.7439L151.066 94.697C150.491 94.2772 149.879 93.9405 149.232 93.6869M143.659 92.7464C144.031 92.2055 144.552 91.7815 145.221 91.4742C145.891 91.1673 146.664 91.0137 147.542 91.0137C148.42 91.0137 149.331 91.1709 150.231 91.4852C151.131 91.7997 151.886 92.2199 152.496 92.7464L151.113 94.6328C150.532 94.209 149.915 93.8689 149.26 93.6128M149.232 93.6869L149.26 93.6128M149.232 93.6869C149.232 93.6869 149.232 93.6869 149.231 93.6869L149.26 93.6128M151.291 99.3048C151.291 100.021 151.098 100.658 150.711 101.213L151.291 99.3048ZM147.899 98.6904C147.572 98.471 147.066 98.2298 146.382 97.9666L147.899 98.6904Z" fill="#2B2D35" stroke="#2B2D35" stroke-width="0.159089"/>
<path d="M157.547 103.068C158.987 103.068 160.144 102.576 161.01 101.591L160.756 102.963L160.738 103.057H160.834H163.562H163.628L163.64 102.992L165.811 91.9939L165.829 91.899H165.733H163.046H162.981L162.968 91.9623L161.769 97.7111L161.769 97.7112C161.593 98.5632 161.211 99.2446 160.626 99.7601C160.041 100.276 159.367 100.533 158.602 100.533C157.926 100.533 157.41 100.36 157.043 100.025L157.043 100.025C156.676 99.691 156.49 99.233 156.49 98.6417C156.49 98.4305 156.51 98.2186 156.551 98.0069C156.551 98.0068 156.551 98.0066 156.551 98.0065L157.77 91.9943L157.79 91.899H157.692H154.985H154.92L154.907 91.9627L153.605 98.3606C153.605 98.3608 153.605 98.361 153.605 98.3611C153.521 98.7454 153.479 99.1233 153.479 99.4948C153.479 100.508 153.792 101.334 154.423 101.965H154.413L154.57 102.104C155.298 102.75 156.294 103.068 157.547 103.068Z" fill="#2B2D35" stroke="#2B2D35" stroke-width="0.159089"/>
<path d="M173.079 87.0161L173.099 86.9205H173.001H170.1H170.035L170.022 86.9839L166.719 102.972L166.699 103.067H166.797H169.698H169.763L169.776 103.004L173.079 87.0161Z" fill="#2B2D35" stroke="#2B2D35" stroke-width="0.159089"/>
<path d="M141.303 87.0161L141.323 86.9205H141.226H138.324H138.26L138.246 86.9839L134.944 102.972L134.924 103.067H135.021H137.923H137.987L138.001 103.004L141.303 87.0161Z" fill="#2B2D35" stroke="#2B2D35" stroke-width="0.159089"/>
<g filter="url(#filter1_d_1_39344)">
<path d="M230.204 146.29C229.794 146.511 229.347 146.643 228.877 146.684L216.103 147.793L208.119 157.826C207.825 158.194 207.468 158.494 207.058 158.714C206.01 159.276 204.719 159.244 203.689 158.628C202.652 158.009 202.031 156.915 202.03 155.702L202 127.886C201.999 126.624 202.689 125.469 203.801 124.872C204.913 124.275 206.257 124.338 207.308 125.037L230.474 140.435C231.484 141.107 232.053 142.229 231.996 143.435C231.94 144.634 231.253 145.727 230.205 146.29H230.204Z" fill="white"/>
</g>
<path d="M204.563 127.884L204.593 155.7C204.593 156.508 205.612 156.863 206.115 156.231L214.556 145.624C214.702 145.44 214.917 145.325 215.15 145.304L228.656 144.132C229.461 144.062 229.727 143.016 229.055 142.569L205.889 127.172C205.321 126.794 204.562 127.202 204.563 127.884Z" fill="#3E404B"/>
</g>
<defs>
<filter id="filter0_d_1_39344" x="9" y="6" width="237" height="171" filterUnits="userSpaceOnUse" color-interpolation-filters="sRGB">
<feFlood flood-opacity="0" result="BackgroundImageFix"/>
<feColorMatrix in="SourceAlpha" type="matrix" values="0 0 0 0 0 0 0 0 0 0 0 0 0 0 0 0 0 0 127 0" result="hardAlpha"/>
<feOffset dy="4"/>
<feGaussianBlur stdDeviation="12"/>
<feComposite in2="hardAlpha" operator="out"/>
<feColorMatrix type="matrix" values="0 0 0 0 0.103451 0 0 0 0 0.131258 0 0 0 0 0.31664 0 0 0 0.24 0"/>
<feBlend mode="normal" in2="BackgroundImageFix" result="effect1_dropShadow_1_39344"/>
<feBlend mode="normal" in="SourceGraphic" in2="effect1_dropShadow_1_39344" result="shape"/>
</filter>
<filter id="filter1_d_1_39344" x="178" y="104.465" width="78" height="82.6489" filterUnits="userSpaceOnUse" color-interpolation-filters="sRGB">
<feFlood flood-opacity="0" result="BackgroundImageFix"/>
<feColorMatrix in="SourceAlpha" type="matrix" values="0 0 0 0 0 0 0 0 0 0 0 0 0 0 0 0 0 0 127 0" result="hardAlpha"/>
<feOffset dy="4"/>
<feGaussianBlur stdDeviation="12"/>
<feComposite in2="hardAlpha" operator="out"/>
<feColorMatrix type="matrix" values="0 0 0 0 0.103451 0 0 0 0 0.131258 0 0 0 0 0.31664 0 0 0 0.24 0"/>
<feBlend mode="normal" in2="BackgroundImageFix" result="effect1_dropShadow_1_39344"/>
<feBlend mode="normal" in="SourceGraphic" in2="effect1_dropShadow_1_39344" result="shape"/>
</filter>
<clipPath id="clip0_1_39344">
<rect width="255" height="180" fill="white"/>
</clipPath>
</defs>
</svg>
