<svg width="42" height="42" viewBox="0 0 42 42" fill="none" xmlns="http://www.w3.org/2000/svg">
<g clip-path="url(#clip0_71_20446)">
<path d="M21 42C32.598 42 42 32.598 42 21C42 9.40202 32.598 0 21 0C9.40202 0 0 9.40202 0 21C0 32.598 9.40202 42 21 42Z" fill="url(#paint0_linear_71_20446)"/>
<path d="M21 40C31.4934 40 40 31.4934 40 21C40 10.5066 31.4934 2 21 2C10.5066 2 2 10.5066 2 21C2 31.4934 10.5066 40 21 40Z" fill="#F0F0F5"/>
<path d="M30.5097 29.2501C34.8341 29.2501 38.3397 25.7445 38.3397 21.4201C38.3397 17.0957 34.8341 13.5901 30.5097 13.5901C26.1853 13.5901 22.6797 17.0957 22.6797 21.4201C22.6797 25.7445 26.1853 29.2501 30.5097 29.2501Z" fill="white"/>
<path d="M28.3899 25.8902C30.8586 25.8902 32.8599 23.8889 32.8599 21.4202C32.8599 18.9515 30.8586 16.9502 28.3899 16.9502C25.9212 16.9502 23.9199 18.9515 23.9199 21.4202C23.9199 23.8889 25.9212 25.8902 28.3899 25.8902Z" fill="#282828"/>
<path d="M26.7288 21.63C27.6567 21.63 28.4088 20.8779 28.4088 19.95C28.4088 19.0222 27.6567 18.27 26.7288 18.27C25.801 18.27 25.0488 19.0222 25.0488 19.95C25.0488 20.8779 25.801 21.63 26.7288 21.63Z" fill="white"/>
<path d="M11.4902 29.2501C15.8145 29.2501 19.3202 25.7445 19.3202 21.4201C19.3202 17.0957 15.8145 13.5901 11.4902 13.5901C7.16577 13.5901 3.66016 17.0957 3.66016 21.4201C3.66016 25.7445 7.16577 29.2501 11.4902 29.2501Z" fill="white"/>
<path d="M13.6106 25.8902C16.0793 25.8902 18.0806 23.8889 18.0806 21.4202C18.0806 18.9515 16.0793 16.9502 13.6106 16.9502C11.1419 16.9502 9.14062 18.9515 9.14062 21.4202C9.14062 23.8889 11.1419 25.8902 13.6106 25.8902Z" fill="#282828"/>
<path d="M15.2698 21.63C16.1977 21.63 16.9498 20.8779 16.9498 19.95C16.9498 19.0222 16.1977 18.27 15.2698 18.27C14.342 18.27 13.5898 19.0222 13.5898 19.95C13.5898 20.8779 14.342 21.63 15.2698 21.63Z" fill="white"/>
<path d="M23.2398 25.6001C23.0398 26.6601 22.1298 27.4601 20.9998 27.4601C19.8698 27.4601 18.9598 26.6601 18.7598 25.6001H23.2298H23.2398Z" fill="#FF8484"/>
</g>
<defs>
<linearGradient id="paint0_linear_71_20446" x1="6.5" y1="5" x2="37.5" y2="36" gradientUnits="userSpaceOnUse">
<stop stop-color="#576DFC"/>
<stop offset="1" stop-color="#53D6AE"/>
</linearGradient>
<clipPath id="clip0_71_20446">
<rect width="42" height="42" fill="white"/>
</clipPath>
</defs>
</svg>
