<svg width="63" height="55" viewBox="0 0 63 55" fill="none" xmlns="http://www.w3.org/2000/svg">
<path fill-rule="evenodd" clip-rule="evenodd" d="M52.327 0.419587C52.6476 -0.0301199 53.2721 -0.134784 53.7218 0.185812L61.9429 6.04664C62.1757 6.21264 62.3264 6.47039 62.3567 6.75475C62.3871 7.03911 62.2943 7.32285 62.1017 7.53427L54.969 15.3653C54.5971 15.7736 53.9647 15.8031 53.5564 15.4312C53.148 15.0593 53.1185 14.4269 53.4904 14.0186L58.6845 8.31594C46.0873 8.61717 31.6006 13.5467 20.1413 24.0147C12.0273 31.4268 5.40782 41.6367 2.05988 55H0C3.39937 41.0336 10.2764 30.3174 18.7924 22.5381C30.6991 11.6614 45.7629 6.56842 58.869 6.31146L52.5608 1.81434C52.1111 1.49375 52.0064 0.869294 52.327 0.419587Z" fill="white"/>
</svg>
