<svg width="32" height="32" viewBox="0 0 32 32" fill="none" xmlns="http://www.w3.org/2000/svg">
<path d="M4.00146 8.9674C4.00146 8.1537 4.00146 7.74685 4.16233 7.43717C4.29789 7.1762 4.51067 6.96342 4.77164 6.82786C5.08132 6.66699 5.48817 6.66699 6.30187 6.66699H12.7662C13.1124 6.66699 13.2854 6.66699 13.4487 6.70586C13.5874 6.73891 13.7205 6.79255 13.8433 6.865C13.9879 6.95022 14.1125 7.07027 14.3619 7.31037L14.5833 7.52361C14.8326 7.76371 14.9573 7.88376 15.1018 7.96898C15.2247 8.04143 15.3578 8.09507 15.4965 8.12812C15.6598 8.16699 15.8328 8.16699 16.179 8.16699H22.701C23.5147 8.16699 23.9216 8.16699 24.2312 8.32785C24.4922 8.46342 24.705 8.6762 24.8405 8.93716C25.0014 9.24684 25.0014 9.6537 25.0014 10.4674V25.0167C25.0014 25.4236 25.0014 25.627 24.921 25.7819C24.8532 25.9123 24.7468 26.0187 24.6163 26.0865C24.4615 26.1669 24.2581 26.1669 23.8512 26.1669H6.07183C5.3395 26.1669 4.97333 26.1669 4.69462 26.0222C4.45975 25.9002 4.26825 25.7087 4.14624 25.4738C4.00146 25.1951 4.00146 24.8289 4.00146 24.0966V8.9674Z" fill="#576DFC"/>
<g filter="url(#filter0_b_155_2661)">
<path d="M9.58299 13.3586C9.78472 12.6646 9.88558 12.3176 10.1524 12.1173C10.4192 11.917 10.781 11.917 11.5046 11.917H25.5361C26.6755 11.917 27.2452 11.917 27.5454 12.287C27.8456 12.657 27.7282 13.2145 27.4935 14.3294L25.3358 24.5787C25.1756 25.3395 25.0955 25.7199 24.8201 25.9434C24.5446 26.167 24.1558 26.167 23.3783 26.167H5.50146C6.27732 25.3232 6.27732 24.4795 7.05318 21.9482C7.61573 20.1129 8.91248 15.6654 9.58299 13.3586Z" fill="#B9C2FF"/>
</g>
<path d="M7.00098 8.91626C7.00098 8.50205 7.33676 8.16626 7.75097 8.16626H10.751C11.1652 8.16626 11.501 8.50205 11.501 8.91626C11.501 9.33047 11.1652 9.66626 10.751 9.66626H7.75097C7.33676 9.66626 7.00098 9.33047 7.00098 8.91626Z" fill="#E4E8FF"/>
<defs>
<filter id="filter0_b_155_2661" x="2.64381" y="9.05934" width="27.9389" height="19.9653" filterUnits="userSpaceOnUse" color-interpolation-filters="sRGB">
<feFlood flood-opacity="0" result="BackgroundImageFix"/>
<feGaussianBlur in="BackgroundImageFix" stdDeviation="1.42883"/>
<feComposite in2="SourceAlpha" operator="in" result="effect1_backgroundBlur_155_2661"/>
<feBlend mode="normal" in="SourceGraphic" in2="effect1_backgroundBlur_155_2661" result="shape"/>
</filter>
</defs>
</svg>
