<svg width="32" height="32" viewBox="0 0 32 32" fill="none" xmlns="http://www.w3.org/2000/svg">
<g filter="url(#filter0_b_3118_22101)">
<path d="M21.3342 8.24187C21.9349 9.28232 21.9349 10.6792 21.935 13.4729C21.935 16.2666 21.9349 17.6635 21.3342 18.7039C20.9407 19.3855 20.3747 19.9516 19.6931 20.3451C18.6526 20.9458 17.2558 20.9458 14.4621 20.9458H11.4729C10.6309 20.9458 9.91584 20.9458 9.29915 20.9293L6.24837 22.7402C5.93389 22.9269 5.54024 22.6788 5.57293 22.3146L5.77734 20.0369C5.30157 19.6767 4.90094 19.2239 4.60071 18.7039C4 17.6635 4 16.2666 4 13.4729C4 10.6792 4 9.28232 4.60071 8.24187C4.99424 7.56025 5.56025 6.99424 6.24187 6.60071C7.28232 6 8.67918 6 11.4729 6L14.4621 6C17.2558 6 18.6526 6 19.6931 6.60071C20.3747 6.99424 20.9407 7.56025 21.3342 8.24187Z" fill="#576DFC"/>
</g>
<g filter="url(#filter1_b_3118_22101)">
<path d="M10.6652 12.7853C10.0645 13.8258 10.0645 15.2226 10.0645 18.0164C10.0645 20.8101 10.0645 22.2069 10.6652 23.2474C11.0587 23.929 11.6247 24.495 12.3063 24.8885C13.3468 25.4892 14.7436 25.4892 17.5373 25.4892H20.5265C21.4055 25.4892 22.1463 25.4892 22.7811 25.4705L25.7463 27.2706C26.0607 27.4615 26.4584 27.2136 26.4256 26.8473L26.2221 24.5803C26.6979 24.2201 27.0985 23.7674 27.3987 23.2474C27.9994 22.2069 27.9994 20.8101 27.9994 18.0164C27.9994 15.2226 27.9994 13.8258 27.3987 12.7853C27.0052 12.1037 26.4392 11.5377 25.7575 11.1442C24.7171 10.5435 23.3202 10.5435 20.5265 10.5435L17.5374 10.5435C14.7436 10.5435 13.3468 10.5435 12.3063 11.1442C11.6247 11.5377 11.0587 12.1037 10.6652 12.7853Z" fill="#A1AEFF"/>
</g>
<g filter="url(#filter2_b_3118_22101)">
<rect x="23.6875" y="15.0337" width="1.52368" height="9.14208" rx="0.76184" transform="rotate(90 23.6875 15.0337)" fill="white"/>
</g>
<g filter="url(#filter3_b_3118_22101)">
<rect x="21.5527" y="19.519" width="1.68174" height="7.00725" rx="0.84087" transform="rotate(90 21.5527 19.519)" fill="white"/>
</g>
<defs>
<filter id="filter0_b_3118_22101" x="1.15613" y="3.15613" width="23.6233" height="22.4915" filterUnits="userSpaceOnUse" color-interpolation-filters="sRGB">
<feFlood flood-opacity="0" result="BackgroundImageFix"/>
<feGaussianBlur in="BackgroundImageFix" stdDeviation="1.42194"/>
<feComposite in2="SourceAlpha" operator="in" result="effect1_backgroundBlur_3118_22101"/>
<feBlend mode="normal" in="SourceGraphic" in2="effect1_backgroundBlur_3118_22101" result="shape"/>
</filter>
<filter id="filter1_b_3118_22101" x="7.22058" y="7.69958" width="23.6233" height="22.4807" filterUnits="userSpaceOnUse" color-interpolation-filters="sRGB">
<feFlood flood-opacity="0" result="BackgroundImageFix"/>
<feGaussianBlur in="BackgroundImageFix" stdDeviation="1.42194"/>
<feComposite in2="SourceAlpha" operator="in" result="effect1_backgroundBlur_3118_22101"/>
<feBlend mode="normal" in="SourceGraphic" in2="effect1_backgroundBlur_3118_22101" result="shape"/>
</filter>
<filter id="filter2_b_3118_22101" x="11.6457" y="12.1344" width="14.9411" height="7.32193" filterUnits="userSpaceOnUse" color-interpolation-filters="sRGB">
<feFlood flood-opacity="0" result="BackgroundImageFix"/>
<feGaussianBlur in="BackgroundImageFix" stdDeviation="1.44962"/>
<feComposite in2="SourceAlpha" operator="in" result="effect1_backgroundBlur_3118_22101"/>
<feBlend mode="normal" in="SourceGraphic" in2="effect1_backgroundBlur_3118_22101" result="shape"/>
</filter>
<filter id="filter3_b_3118_22101" x="11.6457" y="16.6198" width="12.8063" height="7.48013" filterUnits="userSpaceOnUse" color-interpolation-filters="sRGB">
<feFlood flood-opacity="0" result="BackgroundImageFix"/>
<feGaussianBlur in="BackgroundImageFix" stdDeviation="1.44962"/>
<feComposite in2="SourceAlpha" operator="in" result="effect1_backgroundBlur_3118_22101"/>
<feBlend mode="normal" in="SourceGraphic" in2="effect1_backgroundBlur_3118_22101" result="shape"/>
</filter>
</defs>
</svg>
