<svg width="32" height="32" viewBox="0 0 32 32" fill="none" xmlns="http://www.w3.org/2000/svg">
<g clip-path="url(#clip0_2163_2074)">
<path d="M16.0001 32C23.953 32 30.4001 25.5528 30.4001 17.6C30.4001 9.64706 23.953 3.19995 16.0001 3.19995C8.04718 3.19995 1.6001 9.64706 1.6001 17.6C1.6001 25.5528 8.04718 32 16.0001 32Z" fill="#B9BCCC"/>
<path d="M15.9999 29.2C22.4064 29.2 27.5999 24.0065 27.5999 17.6C27.5999 11.1935 22.4064 6 15.9999 6C9.59339 6 4.3999 11.1935 4.3999 17.6C4.3999 24.0065 9.59339 29.2 15.9999 29.2Z" fill="white"/>
<path d="M1.86425 6.9667C1.15282 4.76506 1.9017 2.26007 3.83004 0.899942C5.75839 -0.460185 8.26711 -0.235113 9.94271 1.28157C10.4669 1.76104 10.4108 2.63189 9.83974 3.03308L3.45561 7.52443C2.87524 7.92562 2.08891 7.65166 1.86425 6.9667Z" fill="#888CA0"/>
<path d="M30.1359 6.9667C30.8474 4.76506 30.0985 2.26007 28.1702 0.899942C26.2418 -0.460185 23.7331 -0.235113 22.0575 1.28157C21.5333 1.76104 21.5894 2.63189 22.1605 3.03308L28.5446 7.52443C29.125 7.92562 29.9113 7.65166 30.1359 6.9667Z" fill="#888CA0"/>
<path fill-rule="evenodd" clip-rule="evenodd" d="M15.5999 12.8C16.2626 12.8 16.7999 13.3373 16.7999 14V18.4274L20.4965 20.1076C21.0998 20.3819 21.3666 21.0933 21.0923 21.6966C20.8181 22.3 20.1067 22.5667 19.5033 22.2925L15.1033 20.2925C14.6749 20.0978 14.3999 19.6706 14.3999 19.2V14C14.3999 13.3373 14.9372 12.8 15.5999 12.8Z" fill="#888CA0"/>
</g>
<defs>
<clipPath id="clip0_2163_2074">
<rect width="32" height="32" fill="white"/>
</clipPath>
</defs>
</svg>
