<svg width="32" height="32" viewBox="0 0 32 32" fill="none" xmlns="http://www.w3.org/2000/svg">
<circle cx="16" cy="16" r="16" fill="#FCD857"/>
<circle cx="10.4001" cy="12.8" r="4.8" fill="white"/>
<circle cx="21.5998" cy="12.8" r="4.8" fill="white"/>
<circle cx="20.0001" cy="12.4" r="2.4" fill="#2B2D35"/>
<circle cx="9.60019" cy="12.4" r="2.4" fill="#2B2D35"/>
<path d="M13.6001 19.2C14.4001 18.4278 16.4001 17.4946 18.4001 19.2" stroke="#7F2E1B" stroke-width="1.44" stroke-linecap="round"/>
<g clip-path="url(#clip0_2163_2073)">
<path d="M14.7116 22.6035H9.18818C9.12036 22.6035 9.06761 22.5508 9.06761 22.483V19.5592C9.06761 18.7605 8.47232 18.0447 7.68111 17.9994C6.77687 17.9467 6.03841 18.7002 6.03088 19.5894C6.00827 20.9834 5.81235 22.8296 4.95333 23.1084C1.65285 23.8921 0.401992 28.3228 2.97154 30.3724C4.31282 31.8192 7.53041 31.8117 9.06761 31.8117H11.705C11.705 31.8117 11.7502 31.8117 11.7653 31.8041C11.7728 31.8117 11.7803 31.8041 11.7803 31.8041C12.3153 31.7665 12.7298 31.3294 12.7298 30.7869C12.7298 30.7567 12.7298 30.7266 12.7222 30.6965C12.677 30.1916 12.2777 29.7998 11.7728 29.7696H12.5489C12.5489 29.7696 12.6167 29.7696 12.6469 29.7621C13.1442 29.7169 13.5285 29.3326 13.5737 28.8352C13.5813 28.8051 13.5813 28.7674 13.5813 28.7373C13.5813 28.1646 13.1216 27.7049 12.5489 27.7049H12.7976C12.7976 27.7049 12.8654 27.7049 12.8956 27.6974C13.1442 27.6673 13.3627 27.5316 13.5285 27.3206C13.5285 27.3131 13.5361 27.3131 13.5436 27.3056C13.7244 27.0946 13.8299 26.8082 13.8299 26.5068V26.3863C13.8299 26.115 13.7621 25.8588 13.6566 25.6478C13.6265 25.6026 13.6039 25.5574 13.5737 25.5197L13.5587 25.5046C13.5436 25.4669 13.5135 25.4368 13.4833 25.4067C13.3929 25.2936 13.2874 25.2107 13.1593 25.158H14.704C15.4199 25.158 15.9926 24.5853 15.9926 23.877C15.9926 23.1687 15.4199 22.6035 14.704 22.6035H14.7116Z" fill="#FFAF37"/>
</g>
<defs>
<clipPath id="clip0_2163_2073">
<rect width="14.4" height="13.8122" fill="white" transform="translate(1.6001 18)"/>
</clipPath>
</defs>
</svg>
