<svg width="20" height="20" viewBox="0 0 20 20" fill="none" xmlns="http://www.w3.org/2000/svg">
<path d="M9.99984 18.3334C5.39984 18.3334 1.6665 14.6001 1.6665 10.0001C1.6665 5.40008 5.39984 1.66675 9.99984 1.66675C14.5998 1.66675 18.3332 5.40008 18.3332 10.0001C18.3332 14.6001 14.5998 18.3334 9.99984 18.3334Z" stroke="#D1D3E1" stroke-width="1.25" stroke-linecap="round" stroke-linejoin="round"/>
<path d="M8.00244 7.91659V7.91659C8.00244 6.94915 8.6891 6.11787 9.63912 5.93517L9.75994 5.91194C10.0302 5.85996 10.308 5.85996 10.5783 5.91194L10.6501 5.92575C11.6286 6.11392 12.3358 6.97008 12.3358 7.96646V7.96646C12.3358 8.91737 11.6903 9.74697 10.7686 9.98077L10.2596 10.1099C9.91075 10.1984 9.66644 10.5124 9.66644 10.8723V11.6666" stroke="#D1D3E1" stroke-width="1.25" stroke-linecap="round"/>
<circle cx="9.66927" cy="13.8333" r="0.416667" fill="#D1D3E1" stroke="#D1D3E1" stroke-width="0.833333"/>
</svg>
