<svg width="24" height="24" viewBox="0 0 24 24" fill="none" xmlns="http://www.w3.org/2000/svg">
<path fill-rule="evenodd" clip-rule="evenodd" d="M6.17741 15.0837C6.17741 15.6455 5.72234 16.101 5.16097 16.101C4.59961 16.101 4.14453 15.6455 4.14453 15.0837C4.14453 14.5219 4.59961 14.0664 5.16097 14.0664C5.72234 14.0664 6.17741 14.5219 6.17741 15.0837ZM19.8543 15.0837C19.8543 15.6455 19.3993 16.101 18.8379 16.101C18.2765 16.101 17.8214 15.6455 17.8214 15.0837C17.8214 14.5219 18.2765 14.0664 18.8379 14.0664C19.3993 14.0664 19.8543 14.5219 19.8543 15.0837Z" fill="#576DFC"/>
<path fill-rule="evenodd" clip-rule="evenodd" d="M8.30699 8.4975L10.3527 11.2468L6.11328 11.7361L7.47711 8.58765C7.14902 8.45888 6.91743 8.13695 6.91743 7.76352C6.91743 7.27419 7.31628 6.875 7.8052 6.875C8.29412 6.875 8.69298 7.27419 8.69298 7.76352C8.69298 8.07257 8.53858 8.33654 8.30699 8.4975ZM16.5158 8.58765L17.8797 11.7361L13.6402 11.2468L15.686 8.4975C15.4544 8.33654 15.3 8.06613 15.3 7.76352C15.3 7.27419 15.6988 6.875 16.1877 6.875C16.6767 6.875 17.0755 7.27419 17.0755 7.76352C17.0755 8.13695 16.8439 8.45888 16.5158 8.58765Z" fill="#E19747"/>
<path d="M21 8.382C21 7.89267 20.6011 7.49348 20.1122 7.49348C19.6233 7.49348 19.2244 7.89267 19.2244 8.382C19.2244 8.56228 19.2823 8.73612 19.3724 8.87133C19.2309 8.87133 19.0893 8.90353 18.9543 8.99367L16.426 10.6291C16.0915 10.8415 15.654 10.7643 15.416 10.4423L12.6047 6.62429C12.5854 6.5921 12.5597 6.56634 12.534 6.54059C12.8749 6.35387 13.1065 5.98687 13.1065 5.56836C13.1065 4.9567 12.6111 4.46094 12 4.46094C11.3888 4.46094 10.8935 4.9567 10.8935 5.56836C10.8935 5.98687 11.1251 6.35387 11.466 6.54059C11.4403 6.56634 11.4146 6.5921 11.3953 6.62429L8.58399 10.4423C8.35239 10.7643 7.9085 10.8415 7.57398 10.6291L5.04575 8.99367C4.91065 8.90353 4.76912 8.87133 4.62759 8.87133C4.72409 8.72968 4.77555 8.56228 4.77555 8.382C4.77555 7.89267 4.3767 7.49348 3.88778 7.49348C3.39886 7.49348 3 7.89267 3 8.382C3 8.87133 3.39886 9.27052 3.88778 9.27052C3.91994 9.27052 3.95211 9.27051 3.97784 9.26407C3.89421 9.41216 3.86204 9.58601 3.90064 9.77272L5.57327 18.1235C5.6955 18.7223 6.22302 19.1537 6.83417 19.1537H8.16583H12H15.8342H17.1658C17.777 19.1537 18.3045 18.7223 18.4267 18.1235L20.0994 9.77272C20.138 9.58601 20.0994 9.40572 20.0222 9.26407C20.0543 9.26407 20.0865 9.27052 20.1122 9.27052C20.6011 9.27052 21 8.87133 21 8.382Z" fill="#FFB02E"/>
<path d="M11.9989 16.6939C12.8871 16.6939 13.6072 15.9732 13.6072 15.0842C13.6072 14.1953 12.8871 13.4746 11.9989 13.4746C11.1107 13.4746 10.3906 14.1953 10.3906 15.0842C10.3906 15.9732 11.1107 16.6939 11.9989 16.6939Z" fill="#576DFC"/>
<path fill-rule="evenodd" clip-rule="evenodd" d="M8.78932 15.0849C8.78932 15.6183 8.35729 16.0507 7.82435 16.0507C7.29141 16.0507 6.85938 15.6183 6.85938 15.0849C6.85938 14.5515 7.29141 14.1191 7.82435 14.1191C8.35729 14.1191 8.78932 14.5515 8.78932 15.0849ZM17.1524 15.0849C17.1524 15.6183 16.7204 16.0507 16.1875 16.0507C15.6545 16.0507 15.2225 15.6183 15.2225 15.0849C15.2225 14.5515 15.6545 14.1191 16.1875 14.1191C16.7204 14.1191 17.1524 14.5515 17.1524 15.0849Z" fill="#F03843"/>
</svg>
