<svg width="20" height="20" viewBox="0 0 20 20" fill="none" xmlns="http://www.w3.org/2000/svg">
<mask id="path-1-outside-1_1_28553" maskUnits="userSpaceOnUse" x="5.23438" y="1.20703" width="14" height="18" fill="black">
<rect fill="white" x="5.23438" y="1.20703" width="14" height="18"/>
<path d="M6.23438 15.292L8.81771 17.292C9.15104 17.6254 9.90104 17.792 10.401 17.792H13.5677C14.5677 17.792 15.651 17.042 15.901 16.042L17.901 9.95871C18.3177 8.79205 17.5677 7.79205 16.3177 7.79205H12.9844C12.4844 7.79205 12.0677 7.37538 12.151 6.79205L12.5677 4.12538C12.7344 3.37538 12.2344 2.54205 11.4844 2.29205C10.8177 2.04205 9.98437 2.37538 9.65104 2.87538L6.23438 7.95871"/>
</mask>
<path d="M6.23438 15.292L8.81771 17.292C9.15104 17.6254 9.90104 17.792 10.401 17.792H13.5677C14.5677 17.792 15.651 17.042 15.901 16.042L17.901 9.95871C18.3177 8.79205 17.5677 7.79205 16.3177 7.79205H12.9844C12.4844 7.79205 12.0677 7.37538 12.151 6.79205L12.5677 4.12538C12.7344 3.37538 12.2344 2.54205 11.4844 2.29205C10.8177 2.04205 9.98437 2.37538 9.65104 2.87538L6.23438 7.95871" fill="#576DFC"/>
<path d="M5.73438 7.95871V15.292H6.73438V7.95871H5.73438ZM8.81771 17.292L9.52481 16.5849L9.48 16.5401L9.42988 16.5013L8.81771 17.292ZM15.901 16.042L14.9511 15.7297L14.9397 15.7643L14.9309 15.7995L15.901 16.042ZM17.901 9.95871L16.9593 9.62238L16.955 9.63433L16.9511 9.64639L17.901 9.95871ZM12.151 6.79205L11.1629 6.63766L11.1611 6.65063L12.151 6.79205ZM12.5677 4.12538L11.5915 3.90845L11.5846 3.93954L11.5797 3.971L12.5677 4.12538ZM11.4844 2.29205L11.1333 3.22838L11.1506 3.23488L11.1681 3.24073L11.4844 2.29205ZM9.65104 2.87538L10.481 3.43322L10.4831 3.43008L9.65104 2.87538ZM5.6222 16.0828L8.20554 18.0828L9.42988 16.5013L6.84655 14.5013L5.6222 16.0828ZM8.1106 17.9992C8.45507 18.3436 8.91922 18.5277 9.27215 18.6286C9.64957 18.7364 10.0545 18.792 10.401 18.792V16.792C10.2476 16.792 10.0275 16.7644 9.8216 16.7055C9.72145 16.6769 9.64085 16.6455 9.58263 16.6164C9.52075 16.5854 9.50983 16.57 9.52481 16.5849L8.1106 17.9992ZM10.401 18.792H13.5677V16.792H10.401V18.792ZM13.5677 18.792C14.3074 18.792 15.0312 18.5198 15.6061 18.0991C16.1818 17.6778 16.6785 17.0552 16.8712 16.2846L14.9309 15.7995C14.8736 16.0289 14.7036 16.2812 14.4251 16.485C14.1459 16.6893 13.828 16.792 13.5677 16.792V18.792ZM16.851 16.3544L18.851 10.271L16.9511 9.64639L14.9511 15.7297L16.851 16.3544ZM18.8428 10.2951C19.1498 9.43538 19.0506 8.53845 18.5394 7.84468C18.0329 7.1573 17.2133 6.79205 16.3177 6.79205V8.79205C16.6722 8.79205 16.8525 8.9268 16.9293 9.03108C17.0015 9.12897 17.0689 9.31538 16.9593 9.62238L18.8428 10.2951ZM16.3177 6.79205H12.9844V8.79205H16.3177V6.79205ZM12.9844 6.79205C13.0146 6.79205 13.0608 6.80614 13.0988 6.84918C13.1176 6.87048 13.1299 6.89424 13.1361 6.91558C13.1425 6.93741 13.1393 6.94561 13.141 6.93347L11.1611 6.65063C10.9893 7.85351 11.8932 8.79205 12.9844 8.79205V6.79205ZM13.1391 6.94642L13.5557 4.27976L11.5797 3.971L11.163 6.63767L13.1391 6.94642ZM13.5439 4.34231C13.8297 3.05634 13.0012 1.74357 11.8006 1.34336L11.1681 3.24073C11.4675 3.34052 11.6391 3.69442 11.5915 3.90845L13.5439 4.34231ZM11.8355 1.35572C11.2395 1.13221 10.6201 1.18404 10.1176 1.35678C9.62186 1.5272 9.13114 1.85245 8.81899 2.32068L10.4831 3.43008C10.5043 3.39831 10.5969 3.3069 10.7678 3.24815C10.932 3.19172 11.0626 3.20189 11.1333 3.22838L11.8355 1.35572ZM8.82109 2.31754L5.40442 7.40088L7.06433 8.51655L10.481 3.43322L8.82109 2.31754Z" fill="white" mask="url(#path-1-outside-1_1_28553)"/>
<path d="M1.48438 7.12533V15.292C1.48438 15.9317 1.61938 16.4993 2.04107 16.8886C2.45293 17.2687 3.02939 17.3753 3.65104 17.3753H4.48438C5.10603 17.3753 5.68248 17.2687 6.09435 16.8886C6.51604 16.4993 6.65104 15.9317 6.65104 15.292V7.12533C6.65104 6.48565 6.51604 5.91801 6.09435 5.52876C5.68248 5.14858 5.10603 5.04199 4.48438 5.04199H3.65104C3.02939 5.04199 2.45293 5.14858 2.04107 5.52876C1.61938 5.91801 1.48438 6.48565 1.48438 7.12533Z" fill="#576DFC" stroke="white" stroke-linecap="round" stroke-linejoin="round"/>
</svg>
