<svg width="32" height="32" viewBox="0 0 32 32" fill="none" xmlns="http://www.w3.org/2000/svg">
<g filter="url(#filter0_b_10_19215)">
<path d="M21.3342 8.24187C21.9349 9.28232 21.9349 10.6792 21.9349 13.4729C21.9349 16.2666 21.9349 17.6635 21.3342 18.7039C20.9407 19.3855 20.3747 19.9516 19.6931 20.3451C18.6526 20.9458 17.2558 20.9458 14.4621 20.9458H11.4729C10.6309 20.9458 9.91584 20.9458 9.29915 20.9293L6.24837 22.7402C5.93389 22.9269 5.54024 22.6788 5.57293 22.3146L5.77734 20.0369C5.30157 19.6767 4.90094 19.2239 4.60071 18.7039C4 17.6635 4 16.2666 4 13.4729C4 10.6792 4 9.28232 4.60071 8.24187C4.99424 7.56025 5.56025 6.99424 6.24187 6.60071C7.28232 6 8.67918 6 11.4729 6L14.4621 6C17.2558 6 18.6526 6 19.6931 6.60071C20.3747 6.99424 20.9407 7.56025 21.3342 8.24187Z" fill="#576DFC"/>
</g>
<g filter="url(#filter1_b_10_19215)">
<path d="M10.6671 12.7851C10.0664 13.8255 10.0664 15.2224 10.0664 18.0161C10.0664 20.8098 10.0664 22.2067 10.6671 23.2471C11.0606 23.9287 11.6267 24.4948 12.3083 24.8883C13.3487 25.489 14.7456 25.489 17.5393 25.489H20.5285C21.4075 25.489 22.1482 25.489 22.7831 25.4703L25.7483 27.2704C26.0626 27.4612 26.4604 27.2133 26.4275 26.847L26.2241 24.58C26.6998 24.2199 27.1004 23.7671 27.4007 23.2471C28.0014 22.2067 28.0014 20.8098 28.0014 18.0161C28.0014 15.2224 28.0014 13.8255 27.4007 12.7851C27.0071 12.1035 26.4411 11.5375 25.7595 11.1439C24.719 10.5432 23.3222 10.5432 20.5285 10.5432L17.5393 10.5432C14.7456 10.5432 13.3487 10.5432 12.3083 11.1439C11.6267 11.5374 11.0606 12.1035 10.6671 12.7851Z" fill="#A1AEFF"/>
</g>
<g filter="url(#filter2_b_10_19215)">
<rect x="23.6875" y="15.0337" width="1.52368" height="9.14208" rx="0.76184" transform="rotate(90 23.6875 15.0337)" fill="white"/>
</g>
<g filter="url(#filter3_b_10_19215)">
<rect x="21.5547" y="19.5188" width="1.68174" height="7.00725" rx="0.84087" transform="rotate(90 21.5547 19.5188)" fill="white"/>
</g>
<defs>
<filter id="filter0_b_10_19215" x="1.15613" y="3.15613" width="23.6213" height="22.4917" filterUnits="userSpaceOnUse" color-interpolation-filters="sRGB">
<feFlood flood-opacity="0" result="BackgroundImageFix"/>
<feGaussianBlur in="BackgroundImageFix" stdDeviation="1.42194"/>
<feComposite in2="SourceAlpha" operator="in" result="effect1_backgroundBlur_10_19215"/>
<feBlend mode="normal" in="SourceGraphic" in2="effect1_backgroundBlur_10_19215" result="shape"/>
</filter>
<filter id="filter1_b_10_19215" x="7.22253" y="7.69934" width="23.6213" height="22.481" filterUnits="userSpaceOnUse" color-interpolation-filters="sRGB">
<feFlood flood-opacity="0" result="BackgroundImageFix"/>
<feGaussianBlur in="BackgroundImageFix" stdDeviation="1.42194"/>
<feComposite in2="SourceAlpha" operator="in" result="effect1_backgroundBlur_10_19215"/>
<feBlend mode="normal" in="SourceGraphic" in2="effect1_backgroundBlur_10_19215" result="shape"/>
</filter>
<filter id="filter2_b_10_19215" x="11.6476" y="12.1344" width="14.9391" height="7.32217" filterUnits="userSpaceOnUse" color-interpolation-filters="sRGB">
<feFlood flood-opacity="0" result="BackgroundImageFix"/>
<feGaussianBlur in="BackgroundImageFix" stdDeviation="1.44962"/>
<feComposite in2="SourceAlpha" operator="in" result="effect1_backgroundBlur_10_19215"/>
<feBlend mode="normal" in="SourceGraphic" in2="effect1_backgroundBlur_10_19215" result="shape"/>
</filter>
<filter id="filter3_b_10_19215" x="11.6476" y="16.6196" width="12.8063" height="7.48013" filterUnits="userSpaceOnUse" color-interpolation-filters="sRGB">
<feFlood flood-opacity="0" result="BackgroundImageFix"/>
<feGaussianBlur in="BackgroundImageFix" stdDeviation="1.44962"/>
<feComposite in2="SourceAlpha" operator="in" result="effect1_backgroundBlur_10_19215"/>
<feBlend mode="normal" in="SourceGraphic" in2="effect1_backgroundBlur_10_19215" result="shape"/>
</filter>
</defs>
</svg>
