<svg width="24" height="24" viewBox="0 0 24 24" fill="none" xmlns="http://www.w3.org/2000/svg">
<path d="M12 22C6.48 22 2 17.52 2 12C2 6.48 6.48 2 12 2C17.52 2 22 6.48 22 12C22 17.52 17.52 22 12 22Z" stroke="#888CA0" stroke-width="1.5" stroke-linecap="round" stroke-linejoin="round"/>
<path d="M9.60059 9.5V9.5C9.60059 8.33908 10.4246 7.34154 11.5646 7.12231L11.7096 7.09442C12.0339 7.03205 12.3672 7.03205 12.6916 7.09442L12.7778 7.111C13.9519 7.3368 14.8006 8.36419 14.8006 9.55985V9.55985C14.8006 10.7009 14.0261 11.6965 12.92 11.977L12.3092 12.1319C11.8906 12.2381 11.5974 12.615 11.5974 13.0469V14" stroke="#888CA0" stroke-width="1.5" stroke-linecap="round"/>
<circle cx="11.6001" cy="16.6001" r="0.5" fill="#888CA0" stroke="#888CA0"/>
</svg>
