<svg width="24" height="24" viewBox="0 0 24 24" fill="none" xmlns="http://www.w3.org/2000/svg">
<path d="M12.75 8C12.75 7.58579 12.4142 7.25 12 7.25C11.5858 7.25 11.25 7.58579 11.25 8H12.75ZM12 13H11.25C11.25 13.4142 11.5858 13.75 12 13.75V13ZM17 13.75C17.4142 13.75 17.75 13.4142 17.75 13C17.75 12.5858 17.4142 12.25 17 12.25V13.75ZM20.5215 6.14568C20.8388 6.41194 21.3119 6.37055 21.5782 6.05324C21.8444 5.73593 21.803 5.26287 21.4857 4.99662L20.5215 6.14568ZM18.4215 2.42547C18.1042 2.15922 17.6312 2.2006 17.3649 2.51791C17.0987 2.83522 17.1401 3.30828 17.4574 3.57453L18.4215 2.42547ZM6.54627 3.57466C6.86357 3.3084 6.90496 2.83534 6.63871 2.51803C6.37246 2.20073 5.89939 2.15934 5.58209 2.42559L6.54627 3.57466ZM2.51791 4.99674C2.2006 5.26299 2.15922 5.73606 2.42547 6.05336C2.69172 6.37067 3.16478 6.41206 3.48209 6.14581L2.51791 4.99674ZM11.25 8V13H12.75V8H11.25ZM12 13.75H17V12.25H12V13.75ZM12 20.25C7.99594 20.25 4.75 17.0041 4.75 13H3.25C3.25 17.8325 7.16751 21.75 12 21.75V20.25ZM4.75 13C4.75 8.99594 7.99594 5.75 12 5.75V4.25C7.16751 4.25 3.25 8.16751 3.25 13H4.75ZM12 5.75C16.0041 5.75 19.25 8.99594 19.25 13H20.75C20.75 8.16751 16.8325 4.25 12 4.25V5.75ZM19.25 13C19.25 17.0041 16.0041 20.25 12 20.25V21.75C16.8325 21.75 20.75 17.8325 20.75 13H19.25ZM21.4857 4.99662L18.4215 2.42547L17.4574 3.57453L20.5215 6.14568L21.4857 4.99662ZM5.58209 2.42559L2.51791 4.99674L3.48209 6.14581L6.54627 3.57466L5.58209 2.42559Z" fill="#888CA0"/>
</svg>
