<svg width="24" height="24" viewBox="0 0 24 24" fill="none" xmlns="http://www.w3.org/2000/svg">
<path opacity="0.5" d="M21.7888 8.67543C22.0902 8.77459 22.0902 9.22541 21.7888 9.32457C19.5261 10.0691 18.6941 10.9011 17.9496 13.1638C17.8504 13.4652 17.3996 13.4652 17.3004 13.1638C16.5559 10.9011 15.7239 10.0691 13.4612 9.32457C13.1598 9.22541 13.1598 8.77459 13.4612 8.67543C15.7239 7.93085 16.5559 7.0989 17.3004 4.83619C17.3996 4.53485 17.8504 4.53485 17.9496 4.83619C18.6941 7.0989 19.5261 7.93085 21.7888 8.67543Z" fill="#888CA0"/>
<path d="M14.0708 16.1128C14.4329 16.2302 14.4329 16.7698 14.0708 16.8872C11.0608 17.8624 9.98738 18.9358 9.01216 21.9458C8.89483 22.3079 8.35517 22.3079 8.23784 21.9458C7.26262 18.9358 6.18922 17.8624 3.17922 16.8872C2.81707 16.7698 2.81707 16.2302 3.17922 16.1128C6.18922 15.1376 7.26262 14.0642 8.23784 11.0542C8.35517 10.6921 8.89483 10.6921 9.01216 11.0542C9.98738 14.0642 11.0608 15.1376 14.0708 16.1128Z" fill="#888CA0"/>
<path opacity="0.8" d="M9.25552 4.99189C9.49695 5.07012 9.49695 5.42988 9.25552 5.50811C7.24886 6.15825 6.53325 6.87386 5.88311 8.88052C5.80488 9.12195 5.44512 9.12195 5.36689 8.88052C4.71675 6.87386 4.00114 6.15825 1.99448 5.50811C1.75305 5.42988 1.75305 5.07012 1.99448 4.99189C4.00114 4.34175 4.71675 3.62614 5.36689 1.61948C5.44512 1.37805 5.80488 1.37805 5.88311 1.61948C6.53325 3.62614 7.24886 4.34175 9.25552 4.99189Z" fill="#888CA0"/>
</svg>
