<svg width="24" height="24" viewBox="0 0 24 24" fill="none" xmlns="http://www.w3.org/2000/svg">
<path d="M8.97316 14.3796L5.52074 10.9272L6.74781 6.37415L11.0945 5.35352L14.5469 8.80593L13.4978 13.1241L8.97316 14.3796Z" fill="#DF4F55"/>
<path d="M20.752 20.7434C21.0827 20.4128 21.0827 19.8812 20.752 19.5506L14.9439 13.7424L13.7511 14.9352L19.5593 20.7434C19.8899 21.074 20.4214 21.074 20.752 20.7434Z" fill="#D3D3D3"/>
<path d="M11.1573 6.24213L6.31494 11.078C5.65374 11.7392 4.58415 11.7392 3.92295 11.078L3.20341 10.3584C2.93115 10.0862 2.93115 9.64537 3.20341 9.37311L9.4524 3.12412C9.72466 2.85186 10.1655 2.85186 10.4377 3.12412L11.1573 3.84366C11.8185 4.50486 11.8185 5.58093 11.1573 6.24213Z" fill="#FF5A61"/>
<path d="M18.3527 11.065L11.1443 18.2734C10.8072 18.6104 10.2562 18.6104 9.91911 18.2734L9.32922 17.6835C8.31797 16.6722 8.31797 15.0387 9.32922 14.0274L14.1067 9.24992C15.118 8.23868 16.7515 8.23868 17.7628 9.24992L18.3527 9.83982C18.6897 10.1769 18.6897 10.7279 18.3527 11.065Z" fill="#FF5A61"/>
</svg>
