<svg width="24" height="24" viewBox="0 0 24 24" fill="none" xmlns="http://www.w3.org/2000/svg">
<path d="M4 8.25C3.58579 8.25 3.25 8.58579 3.25 9C3.25 9.41421 3.58579 9.75 4 9.75V8.25ZM20 9.75C20.4142 9.75 20.75 9.41421 20.75 9C20.75 8.58579 20.4142 8.25 20 8.25V9.75ZM5.0918 20.782L5.43229 20.1137L5.0918 20.782ZM4.21799 19.908L3.54973 20.2485H3.54973L4.21799 19.908ZM19.7822 19.908L19.114 19.5675L19.7822 19.908ZM18.9078 20.782L18.5673 20.1137L18.9078 20.782ZM18.9078 5.21799L19.2483 4.54973L18.9078 5.21799ZM19.7822 6.09204L19.114 6.43253L19.7822 6.09204ZM5.0918 5.21799L5.43229 5.88624L5.0918 5.21799ZM4.21799 6.09204L4.88624 6.43253L4.21799 6.09204ZM16 13.75C16.4142 13.75 16.75 13.4142 16.75 13C16.75 12.5858 16.4142 12.25 16 12.25V13.75ZM8 12.25C7.58579 12.25 7.25 12.5858 7.25 13C7.25 13.4142 7.58579 13.75 8 13.75V12.25ZM16.75 3C16.75 2.58579 16.4142 2.25 16 2.25C15.5858 2.25 15.25 2.58579 15.25 3H16.75ZM15.25 5C15.25 5.41421 15.5858 5.75 16 5.75C16.4142 5.75 16.75 5.41421 16.75 5H15.25ZM8.75 3C8.75 2.58579 8.41421 2.25 8 2.25C7.58579 2.25 7.25 2.58579 7.25 3H8.75ZM7.25 5C7.25 5.41421 7.58579 5.75 8 5.75C8.41421 5.75 8.75 5.41421 8.75 5H7.25ZM4 9.75H20V8.25H4V9.75ZM7.2002 5.75H16.8002V4.25H7.2002V5.75ZM19.25 8.19995V17.8H20.75V8.19995H19.25ZM16.8002 20.25H7.2002V21.75H16.8002V20.25ZM4.75 17.8V8.19995H3.25V17.8H4.75ZM7.2002 20.25C6.62779 20.25 6.24345 20.2494 5.94746 20.2252C5.66018 20.2018 5.52282 20.1599 5.43229 20.1137L4.7513 21.4502C5.0886 21.6221 5.44538 21.6892 5.82532 21.7202C6.19655 21.7506 6.6525 21.75 7.2002 21.75V20.25ZM3.25 17.8C3.25 18.3476 3.24942 18.8035 3.27974 19.1747C3.31078 19.5546 3.37788 19.9112 3.54973 20.2485L4.88624 19.5675C4.8401 19.477 4.79822 19.3397 4.77476 19.0525C4.75058 18.7566 4.75 18.3724 4.75 17.8H3.25ZM5.43229 20.1137C5.1972 19.9939 5.00614 19.8029 4.88624 19.5675L3.54973 20.2485C3.81333 20.7659 4.23374 21.1865 4.7513 21.4502L5.43229 20.1137ZM19.25 17.8C19.25 18.3725 19.2495 18.7567 19.2253 19.0526C19.2019 19.3398 19.1601 19.4771 19.114 19.5675L20.4505 20.2485C20.6224 19.9112 20.6894 19.5544 20.7204 19.1745C20.7506 18.8034 20.75 18.3476 20.75 17.8H19.25ZM16.8002 21.75C17.3479 21.75 17.8037 21.7506 18.1747 21.7202C18.5546 21.6892 18.9111 21.6221 19.2483 21.4502L18.5673 20.1137C18.4767 20.1599 18.3394 20.2018 18.0525 20.2252C17.7567 20.2494 17.3726 20.25 16.8002 20.25V21.75ZM19.114 19.5675C18.9943 19.8024 18.8029 19.9937 18.5673 20.1137L19.2483 21.4502C19.7653 21.1868 20.1866 20.7664 20.4505 20.2485L19.114 19.5675ZM16.8002 5.75C17.3726 5.75 17.7567 5.75058 18.0525 5.77476C18.3395 5.79821 18.4767 5.84008 18.5673 5.88624L19.2483 4.54973C18.9111 4.37791 18.5545 4.31078 18.1747 4.27974C17.8036 4.24942 17.3479 4.25 16.8002 4.25V5.75ZM20.75 8.19995C20.75 7.65235 20.7506 7.1965 20.7204 6.82543C20.6894 6.4456 20.6224 6.08889 20.4505 5.75155L19.114 6.43253C19.1601 6.52302 19.2019 6.66021 19.2253 6.94735C19.2495 7.24326 19.25 7.62745 19.25 8.19995H20.75ZM18.5673 5.88624C18.8028 6.00624 18.9943 6.19764 19.114 6.43253L20.4505 5.75155C20.1867 5.2338 19.7654 4.81323 19.2483 4.54973L18.5673 5.88624ZM7.2002 4.25C6.65251 4.25 6.19656 4.24942 5.82534 4.27974C5.44541 4.31077 5.08861 4.37787 4.7513 4.54973L5.43229 5.88624C5.52281 5.84012 5.66016 5.79822 5.94745 5.77476C6.24344 5.75058 6.62777 5.75 7.2002 5.75V4.25ZM4.75 8.19995C4.75 7.62752 4.75058 7.24333 4.77476 6.94747C4.79822 6.66037 4.84009 6.5231 4.88624 6.43253L3.54973 5.75155C3.37789 6.0888 3.31078 6.44544 3.27974 6.82531C3.24942 7.19643 3.25 7.65228 3.25 8.19995H4.75ZM4.7513 4.54973C4.23366 4.81348 3.81329 5.2343 3.54973 5.75155L4.88624 6.43253C5.00618 6.19714 5.19728 6.00599 5.43229 5.88624L4.7513 4.54973ZM16 12.25H8V13.75H16V12.25ZM15.25 3V5H16.75V3H15.25ZM7.25 3V5H8.75V3H7.25Z" fill="#888CA0"/>
</svg>
