<svg width="19" height="18" viewBox="0 0 19 18" fill="none" xmlns="http://www.w3.org/2000/svg">
<path opacity="0.3" d="M18.5 9C18.5 13.9706 14.4706 18 9.5 18C4.52944 18 0.5 13.9706 0.5 9C0.5 4.02944 4.52944 0 9.5 0C14.4706 0 18.5 4.02944 18.5 9ZM2.75 9C2.75 12.7279 5.77208 15.75 9.5 15.75C13.2279 15.75 16.25 12.7279 16.25 9C16.25 5.27208 13.2279 2.25 9.5 2.25C5.77208 2.25 2.75 5.27208 2.75 9Z" fill="white"/>
<path d="M17.375 9C17.9963 9 18.5072 8.49439 18.4298 7.87792C18.3297 7.08157 18.1234 6.30048 17.8149 5.55585C17.3626 4.46392 16.6997 3.47177 15.864 2.63604C15.0282 1.80031 14.0361 1.13738 12.9442 0.685084C12.1995 0.376648 11.4184 0.170289 10.6221 0.0702216C10.0056 -0.00724242 9.5 0.50368 9.5 1.125C9.5 1.74632 10.0071 2.24046 10.6198 2.34353C11.1207 2.4278 11.6116 2.56852 12.0831 2.76381C12.9021 3.10303 13.6462 3.60023 14.273 4.22703C14.8998 4.85382 15.397 5.59794 15.7362 6.41689C15.9315 6.88836 16.0722 7.37931 16.1565 7.88019C16.2595 8.4929 16.7537 9 17.375 9Z" fill="white"/>
</svg>
