<svg width="24" height="24" viewBox="0 0 24 24" fill="none" xmlns="http://www.w3.org/2000/svg">
<path d="M2.33496 10.3364C2.02171 10.0467 2.19187 9.52304 2.61557 9.4728L8.61914 8.761C8.79182 8.74053 8.94181 8.63173 9.01465 8.47382L11.5469 2.98396C11.7256 2.59653 12.2764 2.59648 12.4551 2.98391L14.9873 8.4739C15.0601 8.6318 15.2092 8.74054 15.3818 8.76101L21.3857 9.4728C21.8094 9.52304 21.9795 10.0468 21.6662 10.3365L17.2279 14.4412C17.1002 14.5593 17.0433 14.7352 17.0771 14.9058L18.2551 20.8356C18.3383 21.2541 17.8929 21.5777 17.5206 21.3693L12.2453 18.4164C12.0935 18.3315 11.9087 18.3313 11.757 18.4163L6.48109 21.3693C6.10878 21.5777 5.66294 21.2541 5.74609 20.8356L6.92437 14.9057C6.95826 14.7352 6.90134 14.5593 6.77367 14.4412L2.33496 10.3364Z" fill="#E6E6EF" stroke="#E6E6EF" stroke-width="2" stroke-linecap="round" stroke-linejoin="round"/>
</svg>
